{"asset":{"generator":"Khronos glTF Blender I/O v1.2.75","version":"2.0"},"scene":0,"scenes":[{"name":"Scene","nodes":[0]}],"nodes":[{"mesh":0,"name":"Mesh"}],"meshes":[{"name":"SM_SignboardText05","primitives":[{"indices":5,"attributes":{"POSITION":0,"NORMAL":1,"TEXCOORD_0":2,"TEXCOORD_1":3,"TANGENT":4},"mode":4}]}],"accessors":[{"bufferView":0,"componentType":5126,"count":2520,"type":"VEC3","min":[-6.45687744140625,-1.0417678833007813,-3.101857146248221e-8],"max":[6.456880493164062,1.0417681884765626,0.21499996185302733]},{"bufferView":1,"componentType":5126,"count":2520,"type":"VEC3"},{"bufferView":2,"componentType":5126,"count":2520,"type":"VEC2"},{"bufferView":3,"componentType":5126,"count":2520,"type":"VEC2"},{"bufferView":4,"componentType":5126,"count":2520,"type":"VEC4"},{"bufferView":5,"componentType":5123,"count":6924,"type":"SCALAR"}],"bufferViews":[{"buffer":0,"byteOffset":0,"byteLength":30240},{"buffer":0,"byteOffset":30240,"byteLength":30240},{"buffer":0,"byteOffset":60480,"byteLength":20160},{"buffer":0,"byteOffset":80640,"byteLength":20160},{"buffer":0,"byteOffset":100800,"byteLength":40320},{"buffer":0,"byteOffset":141120,"byteLength":13848}],"buffers":[{"byteLength":154968,"uri":"data:application/octet-stream;base64,"}]}
