{"asset":{"generator":"Khronos glTF Blender I/O v1.2.75","version":"2.0"},"scene":0,"scenes":[{"name":"Scene","nodes":[0]}],"nodes":[{"mesh":0,"name":"Mesh"}],"meshes":[{"name":"SM_RubberFloor_01","primitives":[{"indices":6,"attributes":{"POSITION":0,"NORMAL":1,"COLOR_0":2,"TEXCOORD_0":3,"TEXCOORD_1":4,"TANGENT":5},"mode":4}]}],"accessors":[{"bufferView":0,"componentType":5126,"count":2275,"type":"VEC3","min":[-2.99999755859375,-0.3124017143249512,-2.7529867553710936],"max":[3.000687255859375,0.000001087188720703125,2.7500094604492187]},{"bufferView":1,"componentType":5126,"count":2275,"type":"VEC3"},{"bufferView":2,"componentType":5126,"count":2275,"type":"VEC4"},{"bufferView":3,"componentType":5126,"count":2275,"type":"VEC2"},{"bufferView":4,"componentType":5126,"count":2275,"type":"VEC2"},{"bufferView":5,"componentType":5126,"count":2275,"type":"VEC4"},{"bufferView":6,"componentType":5123,"count":3060,"type":"SCALAR"}],"bufferViews":[{"buffer":0,"byteOffset":0,"byteLength":27300},{"buffer":0,"byteOffset":27300,"byteLength":27300},{"buffer":0,"byteOffset":54600,"byteLength":36400},{"buffer":0,"byteOffset":91000,"byteLength":18200},{"buffer":0,"byteOffset":109200,"byteLength":18200},{"buffer":0,"byteOffset":127400,"byteLength":36400},{"buffer":0,"byteOffset":163800,"byteLength":6120}],"buffers":[{"byteLength":169920,"uri":"data:application/octet-stream;base64,"}]}
