{"asset":{"generator":"Khronos glTF Blender I/O v1.2.75","version":"2.0"},"scene":0,"scenes":[{"name":"Scene","nodes":[0]}],"nodes":[{"mesh":0,"name":"Mesh"}],"meshes":[{"name":"SM_RubberFloor_01","primitives":[{"indices":6,"attributes":{"POSITION":0,"NORMAL":1,"COLOR_0":2,"TEXCOORD_0":3,"TEXCOORD_1":4,"TANGENT":5},"mode":4}]}],"accessors":[{"bufferView":0,"componentType":5126,"count":3293,"type":"VEC3","min":[-2.99999755859375,-0.3124017143249512,-2.7529867553710936],"max":[3.000687255859375,0.000001087188720703125,2.7500094604492187]},{"bufferView":1,"componentType":5126,"count":3293,"type":"VEC3"},{"bufferView":2,"componentType":5126,"count":3293,"type":"VEC4"},{"bufferView":3,"componentType":5126,"count":3293,"type":"VEC2"},{"bufferView":4,"componentType":5126,"count":3293,"type":"VEC2"},{"bufferView":5,"componentType":5126,"count":3293,"type":"VEC4"},{"bufferView":6,"componentType":5123,"count":5100,"type":"SCALAR"}],"bufferViews":[{"buffer":0,"byteOffset":0,"byteLength":39516},{"buffer":0,"byteOffset":39516,"byteLength":39516},{"buffer":0,"byteOffset":79032,"byteLength":52688},{"buffer":0,"byteOffset":131720,"byteLength":26344},{"buffer":0,"byteOffset":158064,"byteLength":26344},{"buffer":0,"byteOffset":184408,"byteLength":52688},{"buffer":0,"byteOffset":237096,"byteLength":10200}],"buffers":[{"byteLength":247296,"uri":"data:application/octet-stream;base64,"}]}
