{"asset":{"generator":"Khronos glTF Blender I/O v1.2.75","version":"2.0"},"scene":0,"scenes":[{"name":"Scene","nodes":[0]}],"nodes":[{"mesh":0,"name":"Mesh"}],"meshes":[{"name":"SM_Beam_5m","primitives":[{"indices":5,"attributes":{"POSITION":0,"NORMAL":1,"TEXCOORD_0":2,"TEXCOORD_1":3,"TANGENT":4},"mode":4}]}],"accessors":[{"bufferView":0,"componentType":5126,"count":20,"type":"VEC3","min":[-2.5264549255371094,-0.3210210037231445,-0.1721097183227539],"max":[2.5135838317871095,-0.00024993896484375,0.1776591110229492]},{"bufferView":1,"componentType":5126,"count":20,"type":"VEC3"},{"bufferView":2,"componentType":5126,"count":20,"type":"VEC2"},{"bufferView":3,"componentType":5126,"count":20,"type":"VEC2"},{"bufferView":4,"componentType":5126,"count":20,"type":"VEC4"},{"bufferView":5,"componentType":5123,"count":30,"type":"SCALAR"}],"bufferViews":[{"buffer":0,"byteOffset":0,"byteLength":240},{"buffer":0,"byteOffset":240,"byteLength":240},{"buffer":0,"byteOffset":480,"byteLength":160},{"buffer":0,"byteOffset":640,"byteLength":160},{"buffer":0,"byteOffset":800,"byteLength":320},{"buffer":0,"byteOffset":1120,"byteLength":60}],"buffers":[{"byteLength":1180,"uri":"data:application/octet-stream;base64,"}]}
