{"asset":{"generator":"Khronos glTF Blender I/O v1.2.75","version":"2.0"},"scene":0,"scenes":[{"name":"Scene","nodes":[0]}],"nodes":[{"mesh":0,"name":"Mesh"}],"meshes":[{"name":"SM_Roof_02","primitives":[{"indices":5,"attributes":{"POSITION":0,"NORMAL":1,"TEXCOORD_0":2,"TEXCOORD_1":3,"TANGENT":4},"mode":4}]}],"accessors":[{"bufferView":0,"componentType":5126,"count":15,"type":"VEC3","min":[0,0,0],"max":[5,3.0616168508832557e-16,5]},{"bufferView":1,"componentType":5126,"count":15,"type":"VEC3"},{"bufferView":2,"componentType":5126,"count":15,"type":"VEC2"},{"bufferView":3,"componentType":5126,"count":15,"type":"VEC2"},{"bufferView":4,"componentType":5126,"count":15,"type":"VEC4"},{"bufferView":5,"componentType":5123,"count":21,"type":"SCALAR"}],"bufferViews":[{"buffer":0,"byteOffset":0,"byteLength":180},{"buffer":0,"byteOffset":180,"byteLength":180},{"buffer":0,"byteOffset":360,"byteLength":120},{"buffer":0,"byteOffset":480,"byteLength":120},{"buffer":0,"byteOffset":600,"byteLength":240},{"buffer":0,"byteOffset":840,"byteLength":42}],"buffers":[{"byteLength":882,"uri":"data:application/octet-stream;base64,"}]}
