{"asset":{"generator":"Khronos glTF Blender I/O v1.2.75","version":"2.0"},"scene":0,"scenes":[{"name":"Scene","nodes":[0]}],"nodes":[{"mesh":0,"name":"Mesh"}],"meshes":[{"name":"SM_PipeMerged06","primitives":[{"indices":5,"attributes":{"POSITION":0,"NORMAL":1,"TEXCOORD_0":2,"TEXCOORD_1":3,"TANGENT":4},"mode":4}]}],"accessors":[{"bufferView":0,"componentType":5126,"count":7965,"type":"VEC3","min":[-0.0037347722053527833,-2.3,-3.7],"max":[0.05345074653625488,1.8374295043945312,1.4374488830566405]},{"bufferView":1,"componentType":5126,"count":7965,"type":"VEC3"},{"bufferView":2,"componentType":5126,"count":7965,"type":"VEC2"},{"bufferView":3,"componentType":5126,"count":7965,"type":"VEC2"},{"bufferView":4,"componentType":5126,"count":7965,"type":"VEC4"},{"bufferView":5,"componentType":5123,"count":24672,"type":"SCALAR"}],"bufferViews":[{"buffer":0,"byteOffset":0,"byteLength":95580},{"buffer":0,"byteOffset":95580,"byteLength":95580},{"buffer":0,"byteOffset":191160,"byteLength":63720},{"buffer":0,"byteOffset":254880,"byteLength":63720},{"buffer":0,"byteOffset":318600,"byteLength":127440},{"buffer":0,"byteOffset":446040,"byteLength":49344}],"buffers":[{"byteLength":495384,"uri":"data:application/octet-stream;base64,"}]}
