{"asset":{"generator":"Khronos glTF Blender I/O v1.2.75","version":"2.0"},"scene":0,"scenes":[{"name":"Scene","nodes":[0]}],"nodes":[{"mesh":0,"name":"Mesh"}],"meshes":[{"name":"SM_MetalWallPart_02","primitives":[{"indices":6,"attributes":{"POSITION":0,"NORMAL":1,"COLOR_0":2,"TEXCOORD_0":3,"TEXCOORD_1":4,"TANGENT":5},"mode":4}]}],"accessors":[{"bufferView":0,"componentType":5126,"count":560,"type":"VEC3","min":[-0.027187414169311523,-0.003093676269054413,-4.0000003051757815],"max":[0.18397796630859375,4.000018920898437,9.5367431640625e-9]},{"bufferView":1,"componentType":5126,"count":560,"type":"VEC3"},{"bufferView":2,"componentType":5126,"count":560,"type":"VEC4"},{"bufferView":3,"componentType":5126,"count":560,"type":"VEC2"},{"bufferView":4,"componentType":5126,"count":560,"type":"VEC2"},{"bufferView":5,"componentType":5126,"count":560,"type":"VEC4"},{"bufferView":6,"componentType":5123,"count":1524,"type":"SCALAR"}],"bufferViews":[{"buffer":0,"byteOffset":0,"byteLength":6720},{"buffer":0,"byteOffset":6720,"byteLength":6720},{"buffer":0,"byteOffset":13440,"byteLength":8960},{"buffer":0,"byteOffset":22400,"byteLength":4480},{"buffer":0,"byteOffset":26880,"byteLength":4480},{"buffer":0,"byteOffset":31360,"byteLength":8960},{"buffer":0,"byteOffset":40320,"byteLength":3048}],"buffers":[{"byteLength":43368,"uri":"data:application/octet-stream;base64,"}]}
