{"asset":{"generator":"Khronos glTF Blender I/O v1.2.75","version":"2.0"},"scene":0,"scenes":[{"name":"Scene","nodes":[0]}],"nodes":[{"mesh":0,"name":"Mesh"}],"meshes":[{"name":"SM_GroundDetail08","primitives":[{"indices":5,"attributes":{"POSITION":0,"NORMAL":1,"TEXCOORD_0":2,"TEXCOORD_1":3,"TANGENT":4},"mode":4}]}],"accessors":[{"bufferView":0,"componentType":5126,"count":100,"type":"VEC3","min":[-0.52479736328125,7.772445678710937e-7,-2.670228271484375],"max":[0.52479736328125,0.06829987525939941,2.6702288818359374]},{"bufferView":1,"componentType":5126,"count":100,"type":"VEC3"},{"bufferView":2,"componentType":5126,"count":100,"type":"VEC2"},{"bufferView":3,"componentType":5126,"count":100,"type":"VEC2"},{"bufferView":4,"componentType":5126,"count":100,"type":"VEC4"},{"bufferView":5,"componentType":5123,"count":150,"type":"SCALAR"}],"bufferViews":[{"buffer":0,"byteOffset":0,"byteLength":1200},{"buffer":0,"byteOffset":1200,"byteLength":1200},{"buffer":0,"byteOffset":2400,"byteLength":800},{"buffer":0,"byteOffset":3200,"byteLength":800},{"buffer":0,"byteOffset":4000,"byteLength":1600},{"buffer":0,"byteOffset":5600,"byteLength":300}],"buffers":[{"byteLength":5900,"uri":"data:application/octet-stream;base64,"}]}
