{"asset":{"generator":"Khronos glTF Blender I/O v1.2.75","version":"2.0"},"scene":0,"scenes":[{"name":"Scene","nodes":[0]}],"nodes":[{"mesh":0,"name":"Mesh"}],"meshes":[{"name":"SM_Cable_1m","primitives":[{"indices":5,"attributes":{"POSITION":0,"NORMAL":1,"TEXCOORD_0":2,"TEXCOORD_1":3,"TANGENT":4},"mode":4}]}],"accessors":[{"bufferView":0,"componentType":5126,"count":175,"type":"VEC3","min":[0,-6.097990876696713e-9,-0.03742919921875],"max":[1,0.05273275375366211,0.037429201602935794]},{"bufferView":1,"componentType":5126,"count":175,"type":"VEC3"},{"bufferView":2,"componentType":5126,"count":175,"type":"VEC2"},{"bufferView":3,"componentType":5126,"count":175,"type":"VEC2"},{"bufferView":4,"componentType":5126,"count":175,"type":"VEC4"},{"bufferView":5,"componentType":5123,"count":540,"type":"SCALAR"}],"bufferViews":[{"buffer":0,"byteOffset":0,"byteLength":2100},{"buffer":0,"byteOffset":2100,"byteLength":2100},{"buffer":0,"byteOffset":4200,"byteLength":1400},{"buffer":0,"byteOffset":5600,"byteLength":1400},{"buffer":0,"byteOffset":7000,"byteLength":2800},{"buffer":0,"byteOffset":9800,"byteLength":1080}],"buffers":[{"byteLength":10880,"uri":"data:application/octet-stream;base64,"}]}
