{"asset":{"generator":"Khronos glTF Blender I/O v1.2.75","version":"2.0"},"scene":0,"scenes":[{"name":"Scene","nodes":[0]}],"nodes":[{"mesh":0,"name":"Mesh"}],"meshes":[{"name":"SM_PipeGroup35","primitives":[{"indices":5,"attributes":{"POSITION":0,"NORMAL":1,"TEXCOORD_0":2,"TEXCOORD_1":3,"TANGENT":4},"mode":4}]}],"accessors":[{"bufferView":0,"componentType":5126,"count":1194,"type":"VEC3","min":[-0.5511971664428711,-17.059498291015625,-1.7100599670410157],"max":[11.286859130859375,15.106805419921875,7.588355712890625]},{"bufferView":1,"componentType":5126,"count":1194,"type":"VEC3"},{"bufferView":2,"componentType":5126,"count":1194,"type":"VEC2"},{"bufferView":3,"componentType":5126,"count":1194,"type":"VEC2"},{"bufferView":4,"componentType":5126,"count":1194,"type":"VEC4"},{"bufferView":5,"componentType":5123,"count":2166,"type":"SCALAR"}],"bufferViews":[{"buffer":0,"byteOffset":0,"byteLength":14328},{"buffer":0,"byteOffset":14328,"byteLength":14328},{"buffer":0,"byteOffset":28656,"byteLength":9552},{"buffer":0,"byteOffset":38208,"byteLength":9552},{"buffer":0,"byteOffset":47760,"byteLength":19104},{"buffer":0,"byteOffset":66864,"byteLength":4332}],"buffers":[{"byteLength":71196,"uri":"data:application/octet-stream;base64,"}]}
