{"asset":{"generator":"Khronos glTF Blender I/O v1.2.75","version":"2.0"},"scene":0,"scenes":[{"name":"Scene","nodes":[0]}],"nodes":[{"mesh":0,"name":"Mesh"}],"meshes":[{"name":"SM_CornerBuilding01_04","primitives":[{"indices":5,"attributes":{"POSITION":0,"NORMAL":1,"TEXCOORD_0":2,"TEXCOORD_1":3,"TANGENT":4},"mode":4}]}],"accessors":[{"bufferView":0,"componentType":5126,"count":64,"type":"VEC3","min":[-0.2068743896484375,1.52587890625e-7,-4],"max":[0.3015343475341797,3.5,0]},{"bufferView":1,"componentType":5126,"count":64,"type":"VEC3"},{"bufferView":2,"componentType":5126,"count":64,"type":"VEC2"},{"bufferView":3,"componentType":5126,"count":64,"type":"VEC2"},{"bufferView":4,"componentType":5126,"count":64,"type":"VEC4"},{"bufferView":5,"componentType":5123,"count":114,"type":"SCALAR"}],"bufferViews":[{"buffer":0,"byteOffset":0,"byteLength":768},{"buffer":0,"byteOffset":768,"byteLength":768},{"buffer":0,"byteOffset":1536,"byteLength":512},{"buffer":0,"byteOffset":2048,"byteLength":512},{"buffer":0,"byteOffset":2560,"byteLength":1024},{"buffer":0,"byteOffset":3584,"byteLength":228}],"buffers":[{"byteLength":3812,"uri":"data:application/octet-stream;base64,"}]}
