{"asset":{"generator":"Khronos glTF Blender I/O v1.2.75","version":"2.0"},"scene":0,"scenes":[{"name":"Scene","nodes":[0]}],"nodes":[{"mesh":0,"name":"Mesh"}],"meshes":[{"name":"SM_Fence_01","primitives":[{"indices":6,"attributes":{"POSITION":0,"NORMAL":1,"COLOR_0":2,"TEXCOORD_0":3,"TEXCOORD_1":4,"TANGENT":5},"mode":4},{"indices":13,"attributes":{"POSITION":7,"NORMAL":8,"COLOR_0":9,"TEXCOORD_0":10,"TEXCOORD_1":11,"TANGENT":12},"mode":4}]}],"accessors":[{"bufferView":0,"componentType":5126,"count":96,"type":"VEC3","min":[-1.281571044921875,-0.0025397539138793945,-0.028640761375427246],"max":[0,1.0140961456298827,0.05597301483154297]},{"bufferView":1,"componentType":5126,"count":96,"type":"VEC3"},{"bufferView":2,"componentType":5126,"count":104,"type":"VEC4"},{"bufferView":3,"componentType":5126,"count":96,"type":"VEC2"},{"bufferView":4,"componentType":5126,"count":96,"type":"VEC2"},{"bufferView":5,"componentType":5126,"count":96,"type":"VEC4"},{"bufferView":6,"componentType":5123,"count":144,"type":"SCALAR"},{"bufferView":7,"componentType":5126,"count":8,"type":"VEC3","min":[-1.281571044921875,-0.0025397539138793945,-0.028640761375427246],"max":[0,1.0140961456298827,0.05597301483154297]},{"bufferView":8,"componentType":5126,"count":8,"type":"VEC3"},{"bufferView":9,"componentType":5126,"count":104,"type":"VEC4"},{"bufferView":10,"componentType":5126,"count":8,"type":"VEC2"},{"bufferView":11,"componentType":5126,"count":8,"type":"VEC2"},{"bufferView":12,"componentType":5126,"count":8,"type":"VEC4"},{"bufferView":13,"componentType":5123,"count":12,"type":"SCALAR"}],"bufferViews":[{"buffer":0,"byteOffset":0,"byteLength":1152},{"buffer":0,"byteOffset":1152,"byteLength":1152},{"buffer":0,"byteOffset":2304,"byteLength":1664},{"buffer":0,"byteOffset":3968,"byteLength":768},{"buffer":0,"byteOffset":4736,"byteLength":768},{"buffer":0,"byteOffset":5504,"byteLength":1536},{"buffer":0,"byteOffset":7040,"byteLength":288},{"buffer":1,"byteOffset":0,"byteLength":96},{"buffer":1,"byteOffset":96,"byteLength":96},{"buffer":1,"byteOffset":192,"byteLength":1664},{"buffer":1,"byteOffset":1856,"byteLength":64},{"buffer":1,"byteOffset":1920,"byteLength":64},{"buffer":1,"byteOffset":1984,"byteLength":128},{"buffer":1,"byteOffset":2112,"byteLength":24}],"buffers":[{"byteLength":7328,"uri":"data:application/octet-stream;base64,"},{"byteLength":2136,"uri":"data:application/octet-stream;base64,"}]}
