{"asset":{"generator":"Khronos glTF Blender I/O v1.2.75","version":"2.0"},"scene":0,"scenes":[{"name":"Scene","nodes":[0]}],"nodes":[{"mesh":0,"name":"Mesh"}],"meshes":[{"name":"SM_CornerBuildingMerged03","primitives":[{"indices":5,"attributes":{"POSITION":0,"NORMAL":1,"TEXCOORD_0":2,"TEXCOORD_1":3,"TANGENT":4},"mode":4},{"indices":11,"attributes":{"POSITION":6,"NORMAL":7,"TEXCOORD_0":8,"TEXCOORD_1":9,"TANGENT":10},"mode":4}]}],"accessors":[{"bufferView":0,"componentType":5126,"count":440,"type":"VEC3","min":[-1.2030099487304688,-1.0026663208007813,-1.0394215393066406],"max":[19.98574951171875,0.9354438781738281,20.64102294921875]},{"bufferView":1,"componentType":5126,"count":440,"type":"VEC3"},{"bufferView":2,"componentType":5126,"count":440,"type":"VEC2"},{"bufferView":3,"componentType":5126,"count":440,"type":"VEC2"},{"bufferView":4,"componentType":5126,"count":440,"type":"VEC4"},{"bufferView":5,"componentType":5123,"count":924,"type":"SCALAR"},{"bufferView":6,"componentType":5126,"count":240,"type":"VEC3","min":[-1.2030099487304688,-1.0026663208007813,-1.0394215393066406],"max":[19.98574951171875,0.9354438781738281,20.64102294921875]},{"bufferView":7,"componentType":5126,"count":240,"type":"VEC3"},{"bufferView":8,"componentType":5126,"count":240,"type":"VEC2"},{"bufferView":9,"componentType":5126,"count":240,"type":"VEC2"},{"bufferView":10,"componentType":5126,"count":240,"type":"VEC4"},{"bufferView":11,"componentType":5123,"count":360,"type":"SCALAR"}],"bufferViews":[{"buffer":0,"byteOffset":0,"byteLength":5280},{"buffer":0,"byteOffset":5280,"byteLength":5280},{"buffer":0,"byteOffset":10560,"byteLength":3520},{"buffer":0,"byteOffset":14080,"byteLength":3520},{"buffer":0,"byteOffset":17600,"byteLength":7040},{"buffer":0,"byteOffset":24640,"byteLength":1848},{"buffer":1,"byteOffset":0,"byteLength":2880},{"buffer":1,"byteOffset":2880,"byteLength":2880},{"buffer":1,"byteOffset":5760,"byteLength":1920},{"buffer":1,"byteOffset":7680,"byteLength":1920},{"buffer":1,"byteOffset":9600,"byteLength":3840},{"buffer":1,"byteOffset":13440,"byteLength":720}],"buffers":[{"byteLength":26488,"uri":"data:application/octet-stream;base64,"},{"byteLength":14160,"uri":"data:application/octet-stream;base64,"}]}
