{"asset":{"generator":"Khronos glTF Blender I/O v1.2.75","version":"2.0"},"scene":0,"scenes":[{"name":"Scene","nodes":[0]}],"nodes":[{"mesh":0,"name":"Mesh"}],"meshes":[{"name":"SM_CornerBuildingMerged03","primitives":[{"indices":5,"attributes":{"POSITION":0,"NORMAL":1,"TEXCOORD_0":2,"TEXCOORD_1":3,"TANGENT":4},"mode":4},{"indices":11,"attributes":{"POSITION":6,"NORMAL":7,"TEXCOORD_0":8,"TEXCOORD_1":9,"TANGENT":10},"mode":4}]}],"accessors":[{"bufferView":0,"componentType":5126,"count":6,"type":"VEC3","min":[-1.2030099487304688,-1.0026663208007813,-1.0394215393066406],"max":[19.98574951171875,0.9354438781738281,20.64102294921875]},{"bufferView":1,"componentType":5126,"count":6,"type":"VEC3"},{"bufferView":2,"componentType":5126,"count":6,"type":"VEC2"},{"bufferView":3,"componentType":5126,"count":6,"type":"VEC2"},{"bufferView":4,"componentType":5126,"count":6,"type":"VEC4"},{"bufferView":5,"componentType":5123,"count":6,"type":"SCALAR"},{"bufferView":6,"componentType":5126,"count":224,"type":"VEC3","min":[-1.2030099487304688,-1.0026663208007813,-1.0394215393066406],"max":[19.98574951171875,0.9354438781738281,20.64102294921875]},{"bufferView":7,"componentType":5126,"count":224,"type":"VEC3"},{"bufferView":8,"componentType":5126,"count":224,"type":"VEC2"},{"bufferView":9,"componentType":5126,"count":224,"type":"VEC2"},{"bufferView":10,"componentType":5126,"count":224,"type":"VEC4"},{"bufferView":11,"componentType":5123,"count":312,"type":"SCALAR"}],"bufferViews":[{"buffer":0,"byteOffset":0,"byteLength":72},{"buffer":0,"byteOffset":72,"byteLength":72},{"buffer":0,"byteOffset":144,"byteLength":48},{"buffer":0,"byteOffset":192,"byteLength":48},{"buffer":0,"byteOffset":240,"byteLength":96},{"buffer":0,"byteOffset":336,"byteLength":12},{"buffer":1,"byteOffset":0,"byteLength":2688},{"buffer":1,"byteOffset":2688,"byteLength":2688},{"buffer":1,"byteOffset":5376,"byteLength":1792},{"buffer":1,"byteOffset":7168,"byteLength":1792},{"buffer":1,"byteOffset":8960,"byteLength":3584},{"buffer":1,"byteOffset":12544,"byteLength":624}],"buffers":[{"byteLength":348,"uri":"data:application/octet-stream;base64,"},{"byteLength":13168,"uri":"data:application/octet-stream;base64,"}]}
