{"asset":{"generator":"Khronos glTF Blender I/O v1.2.75","version":"2.0"},"scene":0,"scenes":[{"name":"Scene","nodes":[0]}],"nodes":[{"mesh":0,"name":"Mesh"}],"meshes":[{"name":"SM_FloorMat02","primitives":[{"indices":6,"attributes":{"POSITION":0,"NORMAL":1,"COLOR_0":2,"TEXCOORD_0":3,"TEXCOORD_1":4,"TANGENT":5},"mode":4}]}],"accessors":[{"bufferView":0,"componentType":5126,"count":60,"type":"VEC3","min":[-0.9999999237060547,-4.9591064453125e-7,-1],"max":[0.9999999237060547,0.03569164276123047,1]},{"bufferView":1,"componentType":5126,"count":60,"type":"VEC3"},{"bufferView":2,"componentType":5126,"count":60,"type":"VEC4"},{"bufferView":3,"componentType":5126,"count":60,"type":"VEC2"},{"bufferView":4,"componentType":5126,"count":60,"type":"VEC2"},{"bufferView":5,"componentType":5126,"count":60,"type":"VEC4"},{"bufferView":6,"componentType":5123,"count":102,"type":"SCALAR"}],"bufferViews":[{"buffer":0,"byteOffset":0,"byteLength":720},{"buffer":0,"byteOffset":720,"byteLength":720},{"buffer":0,"byteOffset":1440,"byteLength":960},{"buffer":0,"byteOffset":2400,"byteLength":480},{"buffer":0,"byteOffset":2880,"byteLength":480},{"buffer":0,"byteOffset":3360,"byteLength":960},{"buffer":0,"byteOffset":4320,"byteLength":204}],"buffers":[{"byteLength":4524,"uri":"data:application/octet-stream;base64,"}]}
