{"asset":{"generator":"Khronos glTF Blender I/O v1.2.75","version":"2.0"},"scene":0,"scenes":[{"name":"Scene","nodes":[0]}],"nodes":[{"mesh":0,"name":"Mesh"}],"meshes":[{"name":"SM_Stair_Painted_04","primitives":[{"indices":6,"attributes":{"POSITION":0,"NORMAL":1,"COLOR_0":2,"TEXCOORD_0":3,"TEXCOORD_1":4,"TANGENT":5},"mode":4}]}],"accessors":[{"bufferView":0,"componentType":5126,"count":4736,"type":"VEC3","min":[-2.1154403686523438,-3.0517578125e-7,-4.146284484863282],"max":[0.00027374267578125,1.5046517944335938,0.09180295944213868]},{"bufferView":1,"componentType":5126,"count":4736,"type":"VEC3"},{"bufferView":2,"componentType":5126,"count":4736,"type":"VEC4"},{"bufferView":3,"componentType":5126,"count":4736,"type":"VEC2"},{"bufferView":4,"componentType":5126,"count":4736,"type":"VEC2"},{"bufferView":5,"componentType":5126,"count":4736,"type":"VEC4"},{"bufferView":6,"componentType":5123,"count":13230,"type":"SCALAR"}],"bufferViews":[{"buffer":0,"byteOffset":0,"byteLength":56832},{"buffer":0,"byteOffset":56832,"byteLength":56832},{"buffer":0,"byteOffset":113664,"byteLength":75776},{"buffer":0,"byteOffset":189440,"byteLength":37888},{"buffer":0,"byteOffset":227328,"byteLength":37888},{"buffer":0,"byteOffset":265216,"byteLength":75776},{"buffer":0,"byteOffset":340992,"byteLength":26460}],"buffers":[{"byteLength":367452,"uri":"data:application/octet-stream;base64,"}]}
