{"asset":{"generator":"Khronos glTF Blender I/O v1.2.75","version":"2.0"},"scene":0,"scenes":[{"name":"Scene","nodes":[0]}],"nodes":[{"mesh":0,"name":"Mesh"}],"meshes":[{"name":"SM_Stair_Painted_04","primitives":[{"indices":6,"attributes":{"POSITION":0,"NORMAL":1,"COLOR_0":2,"TEXCOORD_0":3,"TEXCOORD_1":4,"TANGENT":5},"mode":4}]}],"accessors":[{"bufferView":0,"componentType":5126,"count":1961,"type":"VEC3","min":[-2.1154403686523438,-3.0517578125e-7,-4.146284484863282],"max":[0.00027374267578125,1.5046517944335938,0.09180295944213868]},{"bufferView":1,"componentType":5126,"count":1961,"type":"VEC3"},{"bufferView":2,"componentType":5126,"count":1961,"type":"VEC4"},{"bufferView":3,"componentType":5126,"count":1961,"type":"VEC2"},{"bufferView":4,"componentType":5126,"count":1961,"type":"VEC2"},{"bufferView":5,"componentType":5126,"count":1961,"type":"VEC4"},{"bufferView":6,"componentType":5123,"count":3972,"type":"SCALAR"}],"bufferViews":[{"buffer":0,"byteOffset":0,"byteLength":23532},{"buffer":0,"byteOffset":23532,"byteLength":23532},{"buffer":0,"byteOffset":47064,"byteLength":31376},{"buffer":0,"byteOffset":78440,"byteLength":15688},{"buffer":0,"byteOffset":94128,"byteLength":15688},{"buffer":0,"byteOffset":109816,"byteLength":31376},{"buffer":0,"byteOffset":141192,"byteLength":7944}],"buffers":[{"byteLength":149136,"uri":"data:application/octet-stream;base64,"}]}
