{"asset":{"generator":"Khronos glTF Blender I/O v1.2.75","version":"2.0"},"scene":0,"scenes":[{"name":"Scene","nodes":[0]}],"nodes":[{"mesh":0,"name":"Mesh"}],"meshes":[{"name":"SM_Column_04","primitives":[{"indices":5,"attributes":{"POSITION":0,"NORMAL":1,"TEXCOORD_0":2,"TEXCOORD_1":3,"TANGENT":4},"mode":4},{"indices":11,"attributes":{"POSITION":6,"NORMAL":7,"TEXCOORD_0":8,"TEXCOORD_1":9,"TANGENT":10},"mode":4}]}],"accessors":[{"bufferView":0,"componentType":5126,"count":264,"type":"VEC3","min":[-0.4949013137817383,-0.000308837890625,-0.8114083099365235],"max":[0.49490135192871093,5,0.811408462524414]},{"bufferView":1,"componentType":5126,"count":264,"type":"VEC3"},{"bufferView":2,"componentType":5126,"count":264,"type":"VEC2"},{"bufferView":3,"componentType":5126,"count":264,"type":"VEC2"},{"bufferView":4,"componentType":5126,"count":264,"type":"VEC4"},{"bufferView":5,"componentType":5123,"count":468,"type":"SCALAR"},{"bufferView":6,"componentType":5126,"count":359,"type":"VEC3","min":[-0.4949013137817383,-0.000308837890625,-0.8114083099365235],"max":[0.49490135192871093,5,0.811408462524414]},{"bufferView":7,"componentType":5126,"count":359,"type":"VEC3"},{"bufferView":8,"componentType":5126,"count":359,"type":"VEC2"},{"bufferView":9,"componentType":5126,"count":359,"type":"VEC2"},{"bufferView":10,"componentType":5126,"count":359,"type":"VEC4"},{"bufferView":11,"componentType":5123,"count":690,"type":"SCALAR"}],"bufferViews":[{"buffer":0,"byteOffset":0,"byteLength":3168},{"buffer":0,"byteOffset":3168,"byteLength":3168},{"buffer":0,"byteOffset":6336,"byteLength":2112},{"buffer":0,"byteOffset":8448,"byteLength":2112},{"buffer":0,"byteOffset":10560,"byteLength":4224},{"buffer":0,"byteOffset":14784,"byteLength":936},{"buffer":1,"byteOffset":0,"byteLength":4308},{"buffer":1,"byteOffset":4308,"byteLength":4308},{"buffer":1,"byteOffset":8616,"byteLength":2872},{"buffer":1,"byteOffset":11488,"byteLength":2872},{"buffer":1,"byteOffset":14360,"byteLength":5744},{"buffer":1,"byteOffset":20104,"byteLength":1380}],"buffers":[{"byteLength":15720,"uri":"data:application/octet-stream;base64,"},{"byteLength":21484,"uri":"data:application/octet-stream;base64,"}]}
