{"asset":{"generator":"Khronos glTF Blender I/O v1.2.75","version":"2.0"},"scene":0,"scenes":[{"name":"Scene","nodes":[0]}],"nodes":[{"mesh":0,"name":"Mesh"}],"meshes":[{"name":"SM_Column_04","primitives":[{"indices":5,"attributes":{"POSITION":0,"NORMAL":1,"TEXCOORD_0":2,"TEXCOORD_1":3,"TANGENT":4},"mode":4},{"indices":11,"attributes":{"POSITION":6,"NORMAL":7,"TEXCOORD_0":8,"TEXCOORD_1":9,"TANGENT":10},"mode":4}]}],"accessors":[{"bufferView":0,"componentType":5126,"count":332,"type":"VEC3","min":[-0.4949013137817383,-0.000308837890625,-0.8114083099365235],"max":[0.49490135192871093,5,0.811408462524414]},{"bufferView":1,"componentType":5126,"count":332,"type":"VEC3"},{"bufferView":2,"componentType":5126,"count":332,"type":"VEC2"},{"bufferView":3,"componentType":5126,"count":332,"type":"VEC2"},{"bufferView":4,"componentType":5126,"count":332,"type":"VEC4"},{"bufferView":5,"componentType":5123,"count":708,"type":"SCALAR"},{"bufferView":6,"componentType":5126,"count":2000,"type":"VEC3","min":[-0.4949013137817383,-0.000308837890625,-0.8114083099365235],"max":[0.49490135192871093,5,0.811408462524414]},{"bufferView":7,"componentType":5126,"count":2000,"type":"VEC3"},{"bufferView":8,"componentType":5126,"count":2000,"type":"VEC2"},{"bufferView":9,"componentType":5126,"count":2000,"type":"VEC2"},{"bufferView":10,"componentType":5126,"count":2000,"type":"VEC4"},{"bufferView":11,"componentType":5123,"count":7008,"type":"SCALAR"}],"bufferViews":[{"buffer":0,"byteOffset":0,"byteLength":3984},{"buffer":0,"byteOffset":3984,"byteLength":3984},{"buffer":0,"byteOffset":7968,"byteLength":2656},{"buffer":0,"byteOffset":10624,"byteLength":2656},{"buffer":0,"byteOffset":13280,"byteLength":5312},{"buffer":0,"byteOffset":18592,"byteLength":1416},{"buffer":1,"byteOffset":0,"byteLength":24000},{"buffer":1,"byteOffset":24000,"byteLength":24000},{"buffer":1,"byteOffset":48000,"byteLength":16000},{"buffer":1,"byteOffset":64000,"byteLength":16000},{"buffer":1,"byteOffset":80000,"byteLength":32000},{"buffer":1,"byteOffset":112000,"byteLength":14016}],"buffers":[{"byteLength":20008,"uri":"data:application/octet-stream;base64,"},{"byteLength":126016,"uri":"data:application/octet-stream;base64,"}]}
