{"asset":{"generator":"Khronos glTF Blender I/O v1.2.75","version":"2.0"},"scene":0,"scenes":[{"name":"Scene","nodes":[0]}],"nodes":[{"mesh":0,"name":"Mesh"}],"meshes":[{"name":"SM_Building09_02","primitives":[{"indices":5,"attributes":{"POSITION":0,"NORMAL":1,"TEXCOORD_0":2,"TEXCOORD_1":3,"TANGENT":4},"mode":4}]}],"accessors":[{"bufferView":0,"componentType":5126,"count":5549,"type":"VEC3","min":[-21.29998046875,-0.12051464080810546,-20.6502001953125],"max":[0.00019287109375,30.174912109375,0.6699169921875]},{"bufferView":1,"componentType":5126,"count":5549,"type":"VEC3"},{"bufferView":2,"componentType":5126,"count":5549,"type":"VEC2"},{"bufferView":3,"componentType":5126,"count":5549,"type":"VEC2"},{"bufferView":4,"componentType":5126,"count":5549,"type":"VEC4"},{"bufferView":5,"componentType":5123,"count":8421,"type":"SCALAR"}],"bufferViews":[{"buffer":0,"byteOffset":0,"byteLength":66588},{"buffer":0,"byteOffset":66588,"byteLength":66588},{"buffer":0,"byteOffset":133176,"byteLength":44392},{"buffer":0,"byteOffset":177568,"byteLength":44392},{"buffer":0,"byteOffset":221960,"byteLength":88784},{"buffer":0,"byteOffset":310744,"byteLength":16842}],"buffers":[{"byteLength":327586,"uri":"data:application/octet-stream;base64,"}]}
