{"asset":{"generator":"Khronos glTF Blender I/O v1.2.75","version":"2.0"},"scene":0,"scenes":[{"name":"Scene","nodes":[0]}],"nodes":[{"mesh":0,"name":"Mesh"}],"meshes":[{"name":"SM_Building09_02","primitives":[{"indices":5,"attributes":{"POSITION":0,"NORMAL":1,"TEXCOORD_0":2,"TEXCOORD_1":3,"TANGENT":4},"mode":4}]}],"accessors":[{"bufferView":0,"componentType":5126,"count":11019,"type":"VEC3","min":[-21.29998046875,-0.12051464080810546,-20.6502001953125],"max":[0.00019287109375,30.174912109375,0.6699169921875]},{"bufferView":1,"componentType":5126,"count":11019,"type":"VEC3"},{"bufferView":2,"componentType":5126,"count":11019,"type":"VEC2"},{"bufferView":3,"componentType":5126,"count":11019,"type":"VEC2"},{"bufferView":4,"componentType":5126,"count":11019,"type":"VEC4"},{"bufferView":5,"componentType":5123,"count":16845,"type":"SCALAR"}],"bufferViews":[{"buffer":0,"byteOffset":0,"byteLength":132228},{"buffer":0,"byteOffset":132228,"byteLength":132228},{"buffer":0,"byteOffset":264456,"byteLength":88152},{"buffer":0,"byteOffset":352608,"byteLength":88152},{"buffer":0,"byteOffset":440760,"byteLength":176304},{"buffer":0,"byteOffset":617064,"byteLength":33690}],"buffers":[{"byteLength":650754,"uri":"data:application/octet-stream;base64,"}]}
