{"asset":{"generator":"Khronos glTF Blender I/O v1.2.75","version":"2.0"},"scene":0,"scenes":[{"name":"Scene","nodes":[0]}],"nodes":[{"mesh":0,"name":"Mesh"}],"meshes":[{"name":"Hotel01","primitives":[{"indices":5,"attributes":{"POSITION":0,"NORMAL":1,"TEXCOORD_0":2,"TEXCOORD_1":3,"TANGENT":4},"mode":4}]}],"accessors":[{"bufferView":0,"componentType":5126,"count":850,"type":"VEC3","min":[-0.5433258056640625,-1.0964739227294922,-0.08291039466857911],"max":[-2.0926436263835058e-8,1.0964739227294922,0.08219544410705566]},{"bufferView":1,"componentType":5126,"count":850,"type":"VEC3"},{"bufferView":2,"componentType":5126,"count":850,"type":"VEC2"},{"bufferView":3,"componentType":5126,"count":850,"type":"VEC2"},{"bufferView":4,"componentType":5126,"count":850,"type":"VEC4"},{"bufferView":5,"componentType":5123,"count":1848,"type":"SCALAR"}],"bufferViews":[{"buffer":0,"byteOffset":0,"byteLength":10200},{"buffer":0,"byteOffset":10200,"byteLength":10200},{"buffer":0,"byteOffset":20400,"byteLength":6800},{"buffer":0,"byteOffset":27200,"byteLength":6800},{"buffer":0,"byteOffset":34000,"byteLength":13600},{"buffer":0,"byteOffset":47600,"byteLength":3696}],"buffers":[{"byteLength":51296,"uri":"data:application/octet-stream;base64,"}]}
