{"asset":{"generator":"Khronos glTF Blender I/O v1.2.75","version":"2.0"},"scene":0,"scenes":[{"name":"Scene","nodes":[0]}],"nodes":[{"mesh":0,"name":"Mesh"}],"meshes":[{"name":"Hotel01","primitives":[{"indices":5,"attributes":{"POSITION":0,"NORMAL":1,"TEXCOORD_0":2,"TEXCOORD_1":3,"TANGENT":4},"mode":4}]}],"accessors":[{"bufferView":0,"componentType":5126,"count":459,"type":"VEC3","min":[-0.5433258056640625,-1.0964739227294922,-0.08291039466857911],"max":[-2.0926436263835058e-8,1.0964739227294922,0.08219544410705566]},{"bufferView":1,"componentType":5126,"count":459,"type":"VEC3"},{"bufferView":2,"componentType":5126,"count":459,"type":"VEC2"},{"bufferView":3,"componentType":5126,"count":459,"type":"VEC2"},{"bufferView":4,"componentType":5126,"count":459,"type":"VEC4"},{"bufferView":5,"componentType":5123,"count":741,"type":"SCALAR"}],"bufferViews":[{"buffer":0,"byteOffset":0,"byteLength":5508},{"buffer":0,"byteOffset":5508,"byteLength":5508},{"buffer":0,"byteOffset":11016,"byteLength":3672},{"buffer":0,"byteOffset":14688,"byteLength":3672},{"buffer":0,"byteOffset":18360,"byteLength":7344},{"buffer":0,"byteOffset":25704,"byteLength":1482}],"buffers":[{"byteLength":27186,"uri":"data:application/octet-stream;base64,"}]}
