{"asset":{"generator":"Khronos glTF Blender I/O v1.2.75","version":"2.0"},"scene":0,"scenes":[{"name":"Scene","nodes":[0]}],"nodes":[{"mesh":0,"name":"Mesh"}],"meshes":[{"name":"SM_SignboardText03","primitives":[{"indices":5,"attributes":{"POSITION":0,"NORMAL":1,"TEXCOORD_0":2,"TEXCOORD_1":3,"TANGENT":4},"mode":4}]}],"accessors":[{"bufferView":0,"componentType":5126,"count":850,"type":"VEC3","min":[-5.52383056640625,-0.6334642791748046,-0.011850258111953735],"max":[5.523821411132812,0.6391041564941407,0.24063350677490233]},{"bufferView":1,"componentType":5126,"count":850,"type":"VEC3"},{"bufferView":2,"componentType":5126,"count":850,"type":"VEC2"},{"bufferView":3,"componentType":5126,"count":850,"type":"VEC2"},{"bufferView":4,"componentType":5126,"count":850,"type":"VEC4"},{"bufferView":5,"componentType":5123,"count":1710,"type":"SCALAR"}],"bufferViews":[{"buffer":0,"byteOffset":0,"byteLength":10200},{"buffer":0,"byteOffset":10200,"byteLength":10200},{"buffer":0,"byteOffset":20400,"byteLength":6800},{"buffer":0,"byteOffset":27200,"byteLength":6800},{"buffer":0,"byteOffset":34000,"byteLength":13600},{"buffer":0,"byteOffset":47600,"byteLength":3420}],"buffers":[{"byteLength":51020,"uri":"data:application/octet-stream;base64,"}]}
