{"asset":{"generator":"Khronos glTF Blender I/O v1.2.75","version":"2.0"},"scene":0,"scenes":[{"name":"Scene","nodes":[0]}],"nodes":[{"mesh":0,"name":"Mesh"}],"meshes":[{"name":"SM_SignboardText03","primitives":[{"indices":5,"attributes":{"POSITION":0,"NORMAL":1,"TEXCOORD_0":2,"TEXCOORD_1":3,"TANGENT":4},"mode":4}]}],"accessors":[{"bufferView":0,"componentType":5126,"count":1424,"type":"VEC3","min":[-5.52383056640625,-0.6334642791748046,-0.011850258111953735],"max":[5.523821411132812,0.6391041564941407,0.24063350677490233]},{"bufferView":1,"componentType":5126,"count":1424,"type":"VEC3"},{"bufferView":2,"componentType":5126,"count":1424,"type":"VEC2"},{"bufferView":3,"componentType":5126,"count":1424,"type":"VEC2"},{"bufferView":4,"componentType":5126,"count":1424,"type":"VEC4"},{"bufferView":5,"componentType":5123,"count":3426,"type":"SCALAR"}],"bufferViews":[{"buffer":0,"byteOffset":0,"byteLength":17088},{"buffer":0,"byteOffset":17088,"byteLength":17088},{"buffer":0,"byteOffset":34176,"byteLength":11392},{"buffer":0,"byteOffset":45568,"byteLength":11392},{"buffer":0,"byteOffset":56960,"byteLength":22784},{"buffer":0,"byteOffset":79744,"byteLength":6852}],"buffers":[{"byteLength":86596,"uri":"data:application/octet-stream;base64,"}]}
