{"asset":{"generator":"Khronos glTF Blender I/O v1.2.75","version":"2.0"},"scene":0,"scenes":[{"name":"Scene","nodes":[0]}],"nodes":[{"mesh":0,"name":"Mesh"}],"meshes":[{"name":"SM_pipe_conditioning01_03","primitives":[{"indices":5,"attributes":{"POSITION":0,"NORMAL":1,"TEXCOORD_0":2,"TEXCOORD_1":3,"TANGENT":4},"mode":4}]}],"accessors":[{"bufferView":0,"componentType":5126,"count":220,"type":"VEC3","min":[-0.47183910369873044,-0.4481199645996094,-0.07227889537811279],"max":[0.4488434982299805,0.4679034423828125,0.07093504428863526]},{"bufferView":1,"componentType":5126,"count":220,"type":"VEC3"},{"bufferView":2,"componentType":5126,"count":220,"type":"VEC2"},{"bufferView":3,"componentType":5126,"count":220,"type":"VEC2"},{"bufferView":4,"componentType":5126,"count":220,"type":"VEC4"},{"bufferView":5,"componentType":5123,"count":852,"type":"SCALAR"}],"bufferViews":[{"buffer":0,"byteOffset":0,"byteLength":2640},{"buffer":0,"byteOffset":2640,"byteLength":2640},{"buffer":0,"byteOffset":5280,"byteLength":1760},{"buffer":0,"byteOffset":7040,"byteLength":1760},{"buffer":0,"byteOffset":8800,"byteLength":3520},{"buffer":0,"byteOffset":12320,"byteLength":1704}],"buffers":[{"byteLength":14024,"uri":"data:application/octet-stream;base64,"}]}
