{"asset":{"generator":"Khronos glTF Blender I/O v1.2.75","version":"2.0"},"scene":0,"scenes":[{"name":"Scene","nodes":[0]}],"nodes":[{"mesh":0,"name":"Mesh"}],"meshes":[{"name":"SM_pipe_conditioning01_03","primitives":[{"indices":5,"attributes":{"POSITION":0,"NORMAL":1,"TEXCOORD_0":2,"TEXCOORD_1":3,"TANGENT":4},"mode":4}]}],"accessors":[{"bufferView":0,"componentType":5126,"count":82,"type":"VEC3","min":[-0.47183910369873044,-0.4481199645996094,-0.07227889537811279],"max":[0.4488434982299805,0.4679034423828125,0.07093504428863526]},{"bufferView":1,"componentType":5126,"count":82,"type":"VEC3"},{"bufferView":2,"componentType":5126,"count":82,"type":"VEC2"},{"bufferView":3,"componentType":5126,"count":82,"type":"VEC2"},{"bufferView":4,"componentType":5126,"count":82,"type":"VEC4"},{"bufferView":5,"componentType":5123,"count":258,"type":"SCALAR"}],"bufferViews":[{"buffer":0,"byteOffset":0,"byteLength":984},{"buffer":0,"byteOffset":984,"byteLength":984},{"buffer":0,"byteOffset":1968,"byteLength":656},{"buffer":0,"byteOffset":2624,"byteLength":656},{"buffer":0,"byteOffset":3280,"byteLength":1312},{"buffer":0,"byteOffset":4592,"byteLength":516}],"buffers":[{"byteLength":5108,"uri":"data:application/octet-stream;base64,"}]}
