{"asset":{"generator":"Khronos glTF Blender I/O v1.2.75","version":"2.0"},"scene":0,"scenes":[{"name":"Scene","nodes":[0]}],"nodes":[{"mesh":0,"name":"Mesh"}],"meshes":[{"name":"SM_MetalBeamMerged01","primitives":[{"indices":5,"attributes":{"POSITION":0,"NORMAL":1,"TEXCOORD_0":2,"TEXCOORD_1":3,"TANGENT":4},"mode":4}]}],"accessors":[{"bufferView":0,"componentType":5126,"count":3736,"type":"VEC3","min":[-1.82065673828125,0,-0.05720245361328125],"max":[0.08581787109375,3.5578204345703126,1.9270831298828126]},{"bufferView":1,"componentType":5126,"count":3736,"type":"VEC3"},{"bufferView":2,"componentType":5126,"count":3736,"type":"VEC2"},{"bufferView":3,"componentType":5126,"count":3736,"type":"VEC2"},{"bufferView":4,"componentType":5126,"count":3736,"type":"VEC4"},{"bufferView":5,"componentType":5123,"count":8064,"type":"SCALAR"}],"bufferViews":[{"buffer":0,"byteOffset":0,"byteLength":44832},{"buffer":0,"byteOffset":44832,"byteLength":44832},{"buffer":0,"byteOffset":89664,"byteLength":29888},{"buffer":0,"byteOffset":119552,"byteLength":29888},{"buffer":0,"byteOffset":149440,"byteLength":59776},{"buffer":0,"byteOffset":209216,"byteLength":16128}],"buffers":[{"byteLength":225344,"uri":"data:application/octet-stream;base64,"}]}
