{"asset":{"generator":"Khronos glTF Blender I/O v1.2.75","version":"2.0"},"scene":0,"scenes":[{"name":"Scene","nodes":[0]}],"nodes":[{"mesh":0,"name":"Mesh"}],"meshes":[{"name":"SM_MetalBeamMerged01","primitives":[{"indices":5,"attributes":{"POSITION":0,"NORMAL":1,"TEXCOORD_0":2,"TEXCOORD_1":3,"TANGENT":4},"mode":4}]}],"accessors":[{"bufferView":0,"componentType":5126,"count":2458,"type":"VEC3","min":[-1.82065673828125,0,-0.05720245361328125],"max":[0.08581787109375,3.5578204345703126,1.9270831298828126]},{"bufferView":1,"componentType":5126,"count":2458,"type":"VEC3"},{"bufferView":2,"componentType":5126,"count":2458,"type":"VEC2"},{"bufferView":3,"componentType":5126,"count":2458,"type":"VEC2"},{"bufferView":4,"componentType":5126,"count":2458,"type":"VEC4"},{"bufferView":5,"componentType":5123,"count":4032,"type":"SCALAR"}],"bufferViews":[{"buffer":0,"byteOffset":0,"byteLength":29496},{"buffer":0,"byteOffset":29496,"byteLength":29496},{"buffer":0,"byteOffset":58992,"byteLength":19664},{"buffer":0,"byteOffset":78656,"byteLength":19664},{"buffer":0,"byteOffset":98320,"byteLength":39328},{"buffer":0,"byteOffset":137648,"byteLength":8064}],"buffers":[{"byteLength":145712,"uri":"data:application/octet-stream;base64,"}]}
