{"asset":{"generator":"Khronos glTF Blender I/O v1.2.75","version":"2.0"},"scene":0,"scenes":[{"name":"Scene","nodes":[0]}],"nodes":[{"mesh":0,"name":"Mesh"}],"meshes":[{"name":"SM_MetalBeamMerged01","primitives":[{"indices":5,"attributes":{"POSITION":0,"NORMAL":1,"TEXCOORD_0":2,"TEXCOORD_1":3,"TANGENT":4},"mode":4}]}],"accessors":[{"bufferView":0,"componentType":5126,"count":780,"type":"VEC3","min":[-1.82065673828125,0,-0.05720245361328125],"max":[0.08581787109375,3.5578204345703126,1.9270831298828126]},{"bufferView":1,"componentType":5126,"count":780,"type":"VEC3"},{"bufferView":2,"componentType":5126,"count":780,"type":"VEC2"},{"bufferView":3,"componentType":5126,"count":780,"type":"VEC2"},{"bufferView":4,"componentType":5126,"count":780,"type":"VEC4"},{"bufferView":5,"componentType":5123,"count":1212,"type":"SCALAR"}],"bufferViews":[{"buffer":0,"byteOffset":0,"byteLength":9360},{"buffer":0,"byteOffset":9360,"byteLength":9360},{"buffer":0,"byteOffset":18720,"byteLength":6240},{"buffer":0,"byteOffset":24960,"byteLength":6240},{"buffer":0,"byteOffset":31200,"byteLength":12480},{"buffer":0,"byteOffset":43680,"byteLength":2424}],"buffers":[{"byteLength":46104,"uri":"data:application/octet-stream;base64,"}]}
