{"asset":{"generator":"Khronos glTF Blender I/O v1.2.75","version":"2.0"},"scene":0,"scenes":[{"name":"Scene","nodes":[0]}],"nodes":[{"mesh":0,"name":"Mesh"}],"meshes":[{"name":"Play_Signboard_02","primitives":[{"indices":5,"attributes":{"POSITION":0,"NORMAL":1,"TEXCOORD_0":2,"TEXCOORD_1":3,"TANGENT":4},"mode":4}]}],"accessors":[{"bufferView":0,"componentType":5126,"count":10330,"type":"VEC3","min":[-0.6827555847167969,-0.5704803466796875,-1.4308991922007408e-7],"max":[0.7443806457519532,0.5694792938232421,0.16973711013793946]},{"bufferView":1,"componentType":5126,"count":10330,"type":"VEC3"},{"bufferView":2,"componentType":5126,"count":10330,"type":"VEC2"},{"bufferView":3,"componentType":5126,"count":10330,"type":"VEC2"},{"bufferView":4,"componentType":5126,"count":10330,"type":"VEC4"},{"bufferView":5,"componentType":5123,"count":15702,"type":"SCALAR"}],"bufferViews":[{"buffer":0,"byteOffset":0,"byteLength":123960},{"buffer":0,"byteOffset":123960,"byteLength":123960},{"buffer":0,"byteOffset":247920,"byteLength":82640},{"buffer":0,"byteOffset":330560,"byteLength":82640},{"buffer":0,"byteOffset":413200,"byteLength":165280},{"buffer":0,"byteOffset":578480,"byteLength":31404}],"buffers":[{"byteLength":609884,"uri":"data:application/octet-stream;base64,"}]}
