{"asset":{"generator":"Khronos glTF Blender I/O v1.2.75","version":"2.0"},"scene":0,"scenes":[{"name":"Scene","nodes":[0]}],"nodes":[{"mesh":0,"name":"Mesh"}],"meshes":[{"name":"Play_Signboard_02","primitives":[{"indices":5,"attributes":{"POSITION":0,"NORMAL":1,"TEXCOORD_0":2,"TEXCOORD_1":3,"TANGENT":4},"mode":4}]}],"accessors":[{"bufferView":0,"componentType":5126,"count":5047,"type":"VEC3","min":[-0.6827555847167969,-0.5704803466796875,-1.4308991922007408e-7],"max":[0.7443806457519532,0.5694792938232421,0.16973711013793946]},{"bufferView":1,"componentType":5126,"count":5047,"type":"VEC3"},{"bufferView":2,"componentType":5126,"count":5047,"type":"VEC2"},{"bufferView":3,"componentType":5126,"count":5047,"type":"VEC2"},{"bufferView":4,"componentType":5126,"count":5047,"type":"VEC4"},{"bufferView":5,"componentType":5123,"count":6273,"type":"SCALAR"}],"bufferViews":[{"buffer":0,"byteOffset":0,"byteLength":60564},{"buffer":0,"byteOffset":60564,"byteLength":60564},{"buffer":0,"byteOffset":121128,"byteLength":40376},{"buffer":0,"byteOffset":161504,"byteLength":40376},{"buffer":0,"byteOffset":201880,"byteLength":80752},{"buffer":0,"byteOffset":282632,"byteLength":12546}],"buffers":[{"byteLength":295178,"uri":"data:application/octet-stream;base64,"}]}
