{"asset":{"generator":"Khronos glTF Blender I/O v1.2.75","version":"2.0"},"scene":0,"scenes":[{"name":"Scene","nodes":[0]}],"nodes":[{"mesh":0,"name":"Mesh"}],"meshes":[{"name":"SM_Pipe_round_short","primitives":[{"indices":6,"attributes":{"POSITION":0,"NORMAL":1,"COLOR_0":2,"TEXCOORD_0":3,"TEXCOORD_1":4,"TANGENT":5},"mode":4}]}],"accessors":[{"bufferView":0,"componentType":5126,"count":96,"type":"VEC3","min":[-0.21678503036499022,-0.22219203948974608,-0.0026195573806762694],"max":[0.21452104568481445,0.21432964324951173,0.25243722915649414]},{"bufferView":1,"componentType":5126,"count":96,"type":"VEC3"},{"bufferView":2,"componentType":5126,"count":96,"type":"VEC4"},{"bufferView":3,"componentType":5126,"count":96,"type":"VEC2"},{"bufferView":4,"componentType":5126,"count":96,"type":"VEC2"},{"bufferView":5,"componentType":5126,"count":96,"type":"VEC4"},{"bufferView":6,"componentType":5123,"count":258,"type":"SCALAR"}],"bufferViews":[{"buffer":0,"byteOffset":0,"byteLength":1152},{"buffer":0,"byteOffset":1152,"byteLength":1152},{"buffer":0,"byteOffset":2304,"byteLength":1536},{"buffer":0,"byteOffset":3840,"byteLength":768},{"buffer":0,"byteOffset":4608,"byteLength":768},{"buffer":0,"byteOffset":5376,"byteLength":1536},{"buffer":0,"byteOffset":6912,"byteLength":516}],"buffers":[{"byteLength":7428,"uri":"data:application/octet-stream;base64,"}]}
