{"asset":{"generator":"Khronos glTF Blender I/O v1.2.75","version":"2.0"},"scene":0,"scenes":[{"name":"Scene","nodes":[0]}],"nodes":[{"mesh":0,"name":"Mesh"}],"meshes":[{"name":"SM_ConcretePillar01","primitives":[{"indices":6,"attributes":{"POSITION":0,"NORMAL":1,"COLOR_0":2,"TEXCOORD_0":3,"TEXCOORD_1":4,"TANGENT":5},"mode":4}]}],"accessors":[{"bufferView":0,"componentType":5126,"count":192,"type":"VEC3","min":[-0.7499998474121093,3.136172745143995e-7,-0.7499999237060547],"max":[0.7499998474121093,6.999998779296875,0.7500002288818359]},{"bufferView":1,"componentType":5126,"count":192,"type":"VEC3"},{"bufferView":2,"componentType":5126,"count":192,"type":"VEC4"},{"bufferView":3,"componentType":5126,"count":192,"type":"VEC2"},{"bufferView":4,"componentType":5126,"count":192,"type":"VEC2"},{"bufferView":5,"componentType":5126,"count":192,"type":"VEC4"},{"bufferView":6,"componentType":5123,"count":756,"type":"SCALAR"}],"bufferViews":[{"buffer":0,"byteOffset":0,"byteLength":2304},{"buffer":0,"byteOffset":2304,"byteLength":2304},{"buffer":0,"byteOffset":4608,"byteLength":3072},{"buffer":0,"byteOffset":7680,"byteLength":1536},{"buffer":0,"byteOffset":9216,"byteLength":1536},{"buffer":0,"byteOffset":10752,"byteLength":3072},{"buffer":0,"byteOffset":13824,"byteLength":1512}],"buffers":[{"byteLength":15336,"uri":"data:application/octet-stream;base64,"}]}
