{"asset":{"generator":"Khronos glTF Blender I/O v1.2.75","version":"2.0"},"scene":0,"scenes":[{"name":"Scene","nodes":[0]}],"nodes":[{"mesh":0,"name":"Mesh"}],"meshes":[{"name":"SM_MetalBeam09","primitives":[{"indices":6,"attributes":{"POSITION":0,"NORMAL":1,"COLOR_0":2,"TEXCOORD_0":3,"TEXCOORD_1":4,"TANGENT":5},"mode":4}]}],"accessors":[{"bufferView":0,"componentType":5126,"count":1883,"type":"VEC3","min":[-0.8233467102050781,-0.005078554153442383,-0.8591278076171875],"max":[0.83148193359375,23.45141357421875,0.813291015625]},{"bufferView":1,"componentType":5126,"count":1883,"type":"VEC3"},{"bufferView":2,"componentType":5126,"count":1883,"type":"VEC4"},{"bufferView":3,"componentType":5126,"count":1883,"type":"VEC2"},{"bufferView":4,"componentType":5126,"count":1883,"type":"VEC2"},{"bufferView":5,"componentType":5126,"count":1883,"type":"VEC4"},{"bufferView":6,"componentType":5123,"count":5034,"type":"SCALAR"}],"bufferViews":[{"buffer":0,"byteOffset":0,"byteLength":22596},{"buffer":0,"byteOffset":22596,"byteLength":22596},{"buffer":0,"byteOffset":45192,"byteLength":30128},{"buffer":0,"byteOffset":75320,"byteLength":15064},{"buffer":0,"byteOffset":90384,"byteLength":15064},{"buffer":0,"byteOffset":105448,"byteLength":30128},{"buffer":0,"byteOffset":135576,"byteLength":10068}],"buffers":[{"byteLength":145644,"uri":"data:application/octet-stream;base64,"}]}
