{"asset":{"generator":"Khronos glTF Blender I/O v1.2.75","version":"2.0"},"scene":0,"scenes":[{"name":"Scene","nodes":[0]}],"nodes":[{"mesh":0,"name":"Mesh"}],"meshes":[{"name":"SM_Cable_2m","primitives":[{"indices":5,"attributes":{"POSITION":0,"NORMAL":1,"TEXCOORD_0":2,"TEXCOORD_1":3,"TANGENT":4},"mode":4}]}],"accessors":[{"bufferView":0,"componentType":5126,"count":88,"type":"VEC3","min":[0,0.002518659234046936,-0.03742919921875],"max":[2.000030517578125,0.05273275375366211,0.037429201602935794]},{"bufferView":1,"componentType":5126,"count":88,"type":"VEC3"},{"bufferView":2,"componentType":5126,"count":88,"type":"VEC2"},{"bufferView":3,"componentType":5126,"count":88,"type":"VEC2"},{"bufferView":4,"componentType":5126,"count":88,"type":"VEC4"},{"bufferView":5,"componentType":5123,"count":246,"type":"SCALAR"}],"bufferViews":[{"buffer":0,"byteOffset":0,"byteLength":1056},{"buffer":0,"byteOffset":1056,"byteLength":1056},{"buffer":0,"byteOffset":2112,"byteLength":704},{"buffer":0,"byteOffset":2816,"byteLength":704},{"buffer":0,"byteOffset":3520,"byteLength":1408},{"buffer":0,"byteOffset":4928,"byteLength":492}],"buffers":[{"byteLength":5420,"uri":"data:application/octet-stream;base64,"}]}
