{"asset":{"generator":"Khronos glTF Blender I/O v1.2.75","version":"2.0"},"scene":0,"scenes":[{"name":"Scene","nodes":[0]}],"nodes":[{"mesh":0,"name":"Mesh"}],"meshes":[{"name":"SM_Pipe_square_grate1","primitives":[{"indices":6,"attributes":{"POSITION":0,"NORMAL":1,"COLOR_0":2,"TEXCOORD_0":3,"TEXCOORD_1":4,"TANGENT":5},"mode":4}]}],"accessors":[{"bufferView":0,"componentType":5126,"count":232,"type":"VEC3","min":[-0.18000030517578125,-0.21000009536743164,-0.19500030517578126],"max":[0.17999971389770508,2.9802322387695312e-8,0.19499969482421875]},{"bufferView":1,"componentType":5126,"count":232,"type":"VEC3"},{"bufferView":2,"componentType":5126,"count":232,"type":"VEC4"},{"bufferView":3,"componentType":5126,"count":232,"type":"VEC2"},{"bufferView":4,"componentType":5126,"count":232,"type":"VEC2"},{"bufferView":5,"componentType":5126,"count":232,"type":"VEC4"},{"bufferView":6,"componentType":5123,"count":486,"type":"SCALAR"}],"bufferViews":[{"buffer":0,"byteOffset":0,"byteLength":2784},{"buffer":0,"byteOffset":2784,"byteLength":2784},{"buffer":0,"byteOffset":5568,"byteLength":3712},{"buffer":0,"byteOffset":9280,"byteLength":1856},{"buffer":0,"byteOffset":11136,"byteLength":1856},{"buffer":0,"byteOffset":12992,"byteLength":3712},{"buffer":0,"byteOffset":16704,"byteLength":972}],"buffers":[{"byteLength":17676,"uri":"data:application/octet-stream;base64,"}]}
