{"asset":{"generator":"Khronos glTF Blender I/O v1.2.75","version":"2.0"},"scene":0,"scenes":[{"name":"Scene","nodes":[0]}],"nodes":[{"mesh":0,"name":"Mesh"}],"meshes":[{"name":"SM_Pipe_round_tee_transition2","primitives":[{"indices":6,"attributes":{"POSITION":0,"NORMAL":1,"COLOR_0":2,"TEXCOORD_0":3,"TEXCOORD_1":4,"TANGENT":5},"mode":4}]}],"accessors":[{"bufferView":0,"componentType":5126,"count":425,"type":"VEC3","min":[-0.3151295280456543,-0.3151295280456543,-0.3999999237060547],"max":[0.31512985229492185,0.40238845825195313,0.4000001525878906]},{"bufferView":1,"componentType":5126,"count":425,"type":"VEC3"},{"bufferView":2,"componentType":5126,"count":425,"type":"VEC4"},{"bufferView":3,"componentType":5126,"count":425,"type":"VEC2"},{"bufferView":4,"componentType":5126,"count":425,"type":"VEC2"},{"bufferView":5,"componentType":5126,"count":425,"type":"VEC4"},{"bufferView":6,"componentType":5123,"count":1512,"type":"SCALAR"}],"bufferViews":[{"buffer":0,"byteOffset":0,"byteLength":5100},{"buffer":0,"byteOffset":5100,"byteLength":5100},{"buffer":0,"byteOffset":10200,"byteLength":6800},{"buffer":0,"byteOffset":17000,"byteLength":3400},{"buffer":0,"byteOffset":20400,"byteLength":3400},{"buffer":0,"byteOffset":23800,"byteLength":6800},{"buffer":0,"byteOffset":30600,"byteLength":3024}],"buffers":[{"byteLength":33624,"uri":"data:application/octet-stream;base64,"}]}
