{"asset":{"generator":"Khronos glTF Blender I/O v1.2.75","version":"2.0"},"scene":0,"scenes":[{"name":"Scene","nodes":[0]}],"nodes":[{"mesh":0,"name":"Mesh"}],"meshes":[{"name":"SM_Building11_03","primitives":[{"indices":5,"attributes":{"POSITION":0,"NORMAL":1,"TEXCOORD_0":2,"TEXCOORD_1":3,"TANGENT":4},"mode":4}]}],"accessors":[{"bufferView":0,"componentType":5126,"count":18,"type":"VEC3","min":[-5.149846765561961e-7,-0.00000213623046875,-5.735299682617187],"max":[0.20000041961669923,8.1894287109375,0.00000399986922275275]},{"bufferView":1,"componentType":5126,"count":18,"type":"VEC3"},{"bufferView":2,"componentType":5126,"count":18,"type":"VEC2"},{"bufferView":3,"componentType":5126,"count":18,"type":"VEC2"},{"bufferView":4,"componentType":5126,"count":18,"type":"VEC4"},{"bufferView":5,"componentType":5123,"count":24,"type":"SCALAR"}],"bufferViews":[{"buffer":0,"byteOffset":0,"byteLength":216},{"buffer":0,"byteOffset":216,"byteLength":216},{"buffer":0,"byteOffset":432,"byteLength":144},{"buffer":0,"byteOffset":576,"byteLength":144},{"buffer":0,"byteOffset":720,"byteLength":288},{"buffer":0,"byteOffset":1008,"byteLength":48}],"buffers":[{"byteLength":1056,"uri":"data:application/octet-stream;base64,"}]}
