{"asset":{"generator":"Khronos glTF Blender I/O v1.2.75","version":"2.0"},"scene":0,"scenes":[{"name":"Scene","nodes":[0]}],"nodes":[{"mesh":0,"name":"Mesh"}],"meshes":[{"name":"SM_Building08_05","primitives":[{"indices":5,"attributes":{"POSITION":0,"NORMAL":1,"TEXCOORD_0":2,"TEXCOORD_1":3,"TANGENT":4},"mode":4}]}],"accessors":[{"bufferView":0,"componentType":5126,"count":788,"type":"VEC3","min":[3.0517578125e-7,0,4.57763671875e-7],"max":[10.000001220703124,11,0.7541107940673828]},{"bufferView":1,"componentType":5126,"count":788,"type":"VEC3"},{"bufferView":2,"componentType":5126,"count":788,"type":"VEC2"},{"bufferView":3,"componentType":5126,"count":788,"type":"VEC2"},{"bufferView":4,"componentType":5126,"count":788,"type":"VEC4"},{"bufferView":5,"componentType":5123,"count":1494,"type":"SCALAR"}],"bufferViews":[{"buffer":0,"byteOffset":0,"byteLength":9456},{"buffer":0,"byteOffset":9456,"byteLength":9456},{"buffer":0,"byteOffset":18912,"byteLength":6304},{"buffer":0,"byteOffset":25216,"byteLength":6304},{"buffer":0,"byteOffset":31520,"byteLength":12608},{"buffer":0,"byteOffset":44128,"byteLength":2988}],"buffers":[{"byteLength":47116,"uri":"data:application/octet-stream;base64,"}]}
