{"asset":{"generator":"Khronos glTF Blender I/O v1.2.75","version":"2.0"},"scene":0,"scenes":[{"name":"Scene","nodes":[0]}],"nodes":[{"mesh":0,"name":"Mesh"}],"meshes":[{"name":"SM_PipeGroup06","primitives":[{"indices":5,"attributes":{"POSITION":0,"NORMAL":1,"TEXCOORD_0":2,"TEXCOORD_1":3,"TANGENT":4},"mode":4}]}],"accessors":[{"bufferView":0,"componentType":5126,"count":3430,"type":"VEC3","min":[-10.93692138671875,-19.49105712890625,-7.064667358398437],"max":[0.29692399978637696,2.2506658935546877,2.320545654296875]},{"bufferView":1,"componentType":5126,"count":3430,"type":"VEC3"},{"bufferView":2,"componentType":5126,"count":3430,"type":"VEC2"},{"bufferView":3,"componentType":5126,"count":3430,"type":"VEC2"},{"bufferView":4,"componentType":5126,"count":3430,"type":"VEC4"},{"bufferView":5,"componentType":5123,"count":6069,"type":"SCALAR"}],"bufferViews":[{"buffer":0,"byteOffset":0,"byteLength":41160},{"buffer":0,"byteOffset":41160,"byteLength":41160},{"buffer":0,"byteOffset":82320,"byteLength":27440},{"buffer":0,"byteOffset":109760,"byteLength":27440},{"buffer":0,"byteOffset":137200,"byteLength":54880},{"buffer":0,"byteOffset":192080,"byteLength":12138}],"buffers":[{"byteLength":204218,"uri":"data:application/octet-stream;base64,"}]}
