{"asset":{"generator":"Khronos glTF Blender I/O v1.2.75","version":"2.0"},"scene":0,"scenes":[{"name":"Scene","nodes":[0]}],"nodes":[{"mesh":0,"name":"Mesh"}],"meshes":[{"name":"SM_Platform_01","primitives":[{"indices":6,"attributes":{"POSITION":0,"NORMAL":1,"COLOR_0":2,"TEXCOORD_0":3,"TEXCOORD_1":4,"TANGENT":5},"mode":4}]}],"accessors":[{"bufferView":0,"componentType":5126,"count":432,"type":"VEC3","min":[0,-0.665806884765625,-3.0000009155273437],"max":[6,-3.814697265625e-8,-3.0517578125e-7]},{"bufferView":1,"componentType":5126,"count":432,"type":"VEC3"},{"bufferView":2,"componentType":5126,"count":432,"type":"VEC4"},{"bufferView":3,"componentType":5126,"count":432,"type":"VEC2"},{"bufferView":4,"componentType":5126,"count":432,"type":"VEC2"},{"bufferView":5,"componentType":5126,"count":432,"type":"VEC4"},{"bufferView":6,"componentType":5123,"count":810,"type":"SCALAR"}],"bufferViews":[{"buffer":0,"byteOffset":0,"byteLength":5184},{"buffer":0,"byteOffset":5184,"byteLength":5184},{"buffer":0,"byteOffset":10368,"byteLength":6912},{"buffer":0,"byteOffset":17280,"byteLength":3456},{"buffer":0,"byteOffset":20736,"byteLength":3456},{"buffer":0,"byteOffset":24192,"byteLength":6912},{"buffer":0,"byteOffset":31104,"byteLength":1620}],"buffers":[{"byteLength":32724,"uri":"data:application/octet-stream;base64,"}]}
