{"asset":{"generator":"Khronos glTF Blender I/O v1.2.75","version":"2.0"},"scene":0,"scenes":[{"name":"Scene","nodes":[0]}],"nodes":[{"mesh":0,"name":"Mesh"}],"meshes":[{"name":"SM_CornerBuilding01_12","primitives":[{"indices":5,"attributes":{"POSITION":0,"NORMAL":1,"TEXCOORD_0":2,"TEXCOORD_1":3,"TANGENT":4},"mode":4}]}],"accessors":[{"bufferView":0,"componentType":5126,"count":398,"type":"VEC3","min":[-5.000000610351562,2.80299399799935e-23,-5.1771917724609375],"max":[0.1771918487548828,5.000000610351562,-4.57763671875e-7]},{"bufferView":1,"componentType":5126,"count":398,"type":"VEC3"},{"bufferView":2,"componentType":5126,"count":398,"type":"VEC2"},{"bufferView":3,"componentType":5126,"count":398,"type":"VEC2"},{"bufferView":4,"componentType":5126,"count":398,"type":"VEC4"},{"bufferView":5,"componentType":5123,"count":678,"type":"SCALAR"}],"bufferViews":[{"buffer":0,"byteOffset":0,"byteLength":4776},{"buffer":0,"byteOffset":4776,"byteLength":4776},{"buffer":0,"byteOffset":9552,"byteLength":3184},{"buffer":0,"byteOffset":12736,"byteLength":3184},{"buffer":0,"byteOffset":15920,"byteLength":6368},{"buffer":0,"byteOffset":22288,"byteLength":1356}],"buffers":[{"byteLength":23644,"uri":"data:application/octet-stream;base64,"}]}
