{"asset":{"generator":"Khronos glTF Blender I/O v1.2.75","version":"2.0"},"scene":0,"scenes":[{"name":"Scene","nodes":[0]}],"nodes":[{"mesh":0,"name":"Mesh"}],"meshes":[{"name":"SM_KYLIE01","primitives":[{"indices":5,"attributes":{"POSITION":0,"NORMAL":1,"TEXCOORD_0":2,"TEXCOORD_1":3,"TANGENT":4},"mode":4}]}],"accessors":[{"bufferView":0,"componentType":5126,"count":516,"type":"VEC3","min":[-11.26633056640625,-2.860085754394531,-0.003312743604183197],"max":[11.266326904296875,2.860085754394531,0.17516468048095704]},{"bufferView":1,"componentType":5126,"count":516,"type":"VEC3"},{"bufferView":2,"componentType":5126,"count":516,"type":"VEC2"},{"bufferView":3,"componentType":5126,"count":516,"type":"VEC2"},{"bufferView":4,"componentType":5126,"count":516,"type":"VEC4"},{"bufferView":5,"componentType":5123,"count":1032,"type":"SCALAR"}],"bufferViews":[{"buffer":0,"byteOffset":0,"byteLength":6192},{"buffer":0,"byteOffset":6192,"byteLength":6192},{"buffer":0,"byteOffset":12384,"byteLength":4128},{"buffer":0,"byteOffset":16512,"byteLength":4128},{"buffer":0,"byteOffset":20640,"byteLength":8256},{"buffer":0,"byteOffset":28896,"byteLength":2064}],"buffers":[{"byteLength":30960,"uri":"data:application/octet-stream;base64,"}]}
