{"asset":{"generator":"Khronos glTF Blender I/O v1.2.75","version":"2.0"},"scene":0,"scenes":[{"name":"Scene","nodes":[0]}],"nodes":[{"mesh":0,"name":"Mesh"}],"meshes":[{"name":"SM_Building09_03","primitives":[{"indices":5,"attributes":{"POSITION":0,"NORMAL":1,"TEXCOORD_0":2,"TEXCOORD_1":3,"TANGENT":4},"mode":4}]}],"accessors":[{"bufferView":0,"componentType":5126,"count":11016,"type":"VEC3","min":[-15.3764599609375,-0.002473021596670151,-15.516668701171875],"max":[0.21171340942382813,29.31092529296875,0.0000048828125]},{"bufferView":1,"componentType":5126,"count":11016,"type":"VEC3"},{"bufferView":2,"componentType":5126,"count":11016,"type":"VEC2"},{"bufferView":3,"componentType":5126,"count":11016,"type":"VEC2"},{"bufferView":4,"componentType":5126,"count":11016,"type":"VEC4"},{"bufferView":5,"componentType":5123,"count":32832,"type":"SCALAR"}],"bufferViews":[{"buffer":0,"byteOffset":0,"byteLength":132192},{"buffer":0,"byteOffset":132192,"byteLength":132192},{"buffer":0,"byteOffset":264384,"byteLength":88128},{"buffer":0,"byteOffset":352512,"byteLength":88128},{"buffer":0,"byteOffset":440640,"byteLength":176256},{"buffer":0,"byteOffset":616896,"byteLength":65664}],"buffers":[{"byteLength":682560,"uri":"data:application/octet-stream;base64,"}]}
