{"asset":{"generator":"Khronos glTF Blender I/O v1.2.75","version":"2.0"},"scene":0,"scenes":[{"name":"Scene","nodes":[0]}],"nodes":[{"mesh":0,"name":"Mesh"}],"meshes":[{"name":"SM_Building09_03","primitives":[{"indices":5,"attributes":{"POSITION":0,"NORMAL":1,"TEXCOORD_0":2,"TEXCOORD_1":3,"TANGENT":4},"mode":4}]}],"accessors":[{"bufferView":0,"componentType":5126,"count":6084,"type":"VEC3","min":[-15.3764599609375,-0.002473021596670151,-15.516668701171875],"max":[0.21171340942382813,29.31092529296875,0.0000048828125]},{"bufferView":1,"componentType":5126,"count":6084,"type":"VEC3"},{"bufferView":2,"componentType":5126,"count":6084,"type":"VEC2"},{"bufferView":3,"componentType":5126,"count":6084,"type":"VEC2"},{"bufferView":4,"componentType":5126,"count":6084,"type":"VEC4"},{"bufferView":5,"componentType":5123,"count":16416,"type":"SCALAR"}],"bufferViews":[{"buffer":0,"byteOffset":0,"byteLength":73008},{"buffer":0,"byteOffset":73008,"byteLength":73008},{"buffer":0,"byteOffset":146016,"byteLength":48672},{"buffer":0,"byteOffset":194688,"byteLength":48672},{"buffer":0,"byteOffset":243360,"byteLength":97344},{"buffer":0,"byteOffset":340704,"byteLength":32832}],"buffers":[{"byteLength":373536,"uri":"data:application/octet-stream;base64,"}]}
