{"asset":{"generator":"Khronos glTF Blender I/O v1.2.75","version":"2.0"},"scene":0,"scenes":[{"name":"Scene","nodes":[0]}],"nodes":[{"mesh":0,"name":"Mesh"}],"meshes":[{"name":"SM_Building09_03","primitives":[{"indices":5,"attributes":{"POSITION":0,"NORMAL":1,"TEXCOORD_0":2,"TEXCOORD_1":3,"TANGENT":4},"mode":4}]}],"accessors":[{"bufferView":0,"componentType":5126,"count":1149,"type":"VEC3","min":[-15.3764599609375,-0.002473021596670151,-15.516668701171875],"max":[0.21171340942382813,29.31092529296875,0.0000048828125]},{"bufferView":1,"componentType":5126,"count":1149,"type":"VEC3"},{"bufferView":2,"componentType":5126,"count":1149,"type":"VEC2"},{"bufferView":3,"componentType":5126,"count":1149,"type":"VEC2"},{"bufferView":4,"componentType":5126,"count":1149,"type":"VEC4"},{"bufferView":5,"componentType":5123,"count":2301,"type":"SCALAR"}],"bufferViews":[{"buffer":0,"byteOffset":0,"byteLength":13788},{"buffer":0,"byteOffset":13788,"byteLength":13788},{"buffer":0,"byteOffset":27576,"byteLength":9192},{"buffer":0,"byteOffset":36768,"byteLength":9192},{"buffer":0,"byteOffset":45960,"byteLength":18384},{"buffer":0,"byteOffset":64344,"byteLength":4602}],"buffers":[{"byteLength":68946,"uri":"data:application/octet-stream;base64,"}]}
