{"asset":{"generator":"Khronos glTF Blender I/O v1.2.75","version":"2.0"},"scene":0,"scenes":[{"name":"Scene","nodes":[0]}],"nodes":[{"mesh":0,"name":"Mesh"}],"meshes":[{"name":"SM_AirConditioningPlatform_2","primitives":[{"indices":6,"attributes":{"POSITION":0,"NORMAL":1,"COLOR_0":2,"TEXCOORD_0":3,"TEXCOORD_1":4,"TANGENT":5},"mode":4}]}],"accessors":[{"bufferView":0,"componentType":5126,"count":1160,"type":"VEC3","min":[-1.5093544006347657,-0.007507196068763733,-0.9267945098876953],"max":[1.5045492553710937,0.32083118438720704,0.9267389678955078]},{"bufferView":1,"componentType":5126,"count":1160,"type":"VEC3"},{"bufferView":2,"componentType":5126,"count":1160,"type":"VEC4"},{"bufferView":3,"componentType":5126,"count":1160,"type":"VEC2"},{"bufferView":4,"componentType":5126,"count":1160,"type":"VEC2"},{"bufferView":5,"componentType":5126,"count":1160,"type":"VEC4"},{"bufferView":6,"componentType":5123,"count":1560,"type":"SCALAR"}],"bufferViews":[{"buffer":0,"byteOffset":0,"byteLength":13920},{"buffer":0,"byteOffset":13920,"byteLength":13920},{"buffer":0,"byteOffset":27840,"byteLength":18560},{"buffer":0,"byteOffset":46400,"byteLength":9280},{"buffer":0,"byteOffset":55680,"byteLength":9280},{"buffer":0,"byteOffset":64960,"byteLength":18560},{"buffer":0,"byteOffset":83520,"byteLength":3120}],"buffers":[{"byteLength":86640,"uri":"data:application/octet-stream;base64,"}]}
