{"asset":{"generator":"Khronos glTF Blender I/O v1.2.75","version":"2.0"},"scene":0,"scenes":[{"name":"Scene","nodes":[0]}],"nodes":[{"mesh":0,"name":"Mesh"}],"meshes":[{"name":"SM_AirConditioningPlatform_2","primitives":[{"indices":6,"attributes":{"POSITION":0,"NORMAL":1,"COLOR_0":2,"TEXCOORD_0":3,"TEXCOORD_1":4,"TANGENT":5},"mode":4}]}],"accessors":[{"bufferView":0,"componentType":5126,"count":2736,"type":"VEC3","min":[-1.5093544006347657,-0.007507196068763733,-0.9267945098876953],"max":[1.5045492553710937,0.32083118438720704,0.9267389678955078]},{"bufferView":1,"componentType":5126,"count":2736,"type":"VEC3"},{"bufferView":2,"componentType":5126,"count":2736,"type":"VEC4"},{"bufferView":3,"componentType":5126,"count":2736,"type":"VEC2"},{"bufferView":4,"componentType":5126,"count":2736,"type":"VEC2"},{"bufferView":5,"componentType":5126,"count":2736,"type":"VEC4"},{"bufferView":6,"componentType":5123,"count":6252,"type":"SCALAR"}],"bufferViews":[{"buffer":0,"byteOffset":0,"byteLength":32832},{"buffer":0,"byteOffset":32832,"byteLength":32832},{"buffer":0,"byteOffset":65664,"byteLength":43776},{"buffer":0,"byteOffset":109440,"byteLength":21888},{"buffer":0,"byteOffset":131328,"byteLength":21888},{"buffer":0,"byteOffset":153216,"byteLength":43776},{"buffer":0,"byteOffset":196992,"byteLength":12504}],"buffers":[{"byteLength":209496,"uri":"data:application/octet-stream;base64,"}]}
