{"asset":{"generator":"Khronos glTF Blender I/O v1.2.75","version":"2.0"},"scene":0,"scenes":[{"name":"Scene","nodes":[0]}],"nodes":[{"mesh":0,"name":"Mesh"}],"meshes":[{"name":"SM_Building05_12","primitives":[{"indices":5,"attributes":{"POSITION":0,"NORMAL":1,"TEXCOORD_0":2,"TEXCOORD_1":3,"TANGENT":4},"mode":4},{"indices":11,"attributes":{"POSITION":6,"NORMAL":7,"TEXCOORD_0":8,"TEXCOORD_1":9,"TANGENT":10},"mode":4}]}],"accessors":[{"bufferView":0,"componentType":5126,"count":2678,"type":"VEC3","min":[-0.3295199584960937,-0.14,-0.3703697967529297],"max":[26.24753173828125,12,20.018341064453125]},{"bufferView":1,"componentType":5126,"count":2678,"type":"VEC3"},{"bufferView":2,"componentType":5126,"count":2678,"type":"VEC2"},{"bufferView":3,"componentType":5126,"count":2678,"type":"VEC2"},{"bufferView":4,"componentType":5126,"count":2678,"type":"VEC4"},{"bufferView":5,"componentType":5123,"count":4914,"type":"SCALAR"},{"bufferView":6,"componentType":5126,"count":8,"type":"VEC3","min":[-0.3295199584960937,-0.14,-0.3703697967529297],"max":[26.24753173828125,12,20.018341064453125]},{"bufferView":7,"componentType":5126,"count":8,"type":"VEC3"},{"bufferView":8,"componentType":5126,"count":8,"type":"VEC2"},{"bufferView":9,"componentType":5126,"count":8,"type":"VEC2"},{"bufferView":10,"componentType":5126,"count":8,"type":"VEC4"},{"bufferView":11,"componentType":5123,"count":12,"type":"SCALAR"}],"bufferViews":[{"buffer":0,"byteOffset":0,"byteLength":32136},{"buffer":0,"byteOffset":32136,"byteLength":32136},{"buffer":0,"byteOffset":64272,"byteLength":21424},{"buffer":0,"byteOffset":85696,"byteLength":21424},{"buffer":0,"byteOffset":107120,"byteLength":42848},{"buffer":0,"byteOffset":149968,"byteLength":9828},{"buffer":1,"byteOffset":0,"byteLength":96},{"buffer":1,"byteOffset":96,"byteLength":96},{"buffer":1,"byteOffset":192,"byteLength":64},{"buffer":1,"byteOffset":256,"byteLength":64},{"buffer":1,"byteOffset":320,"byteLength":128},{"buffer":1,"byteOffset":448,"byteLength":24}],"buffers":[{"byteLength":159796,"uri":"data:application/octet-stream;base64,"},{"byteLength":472,"uri":"data:application/octet-stream;base64,"}]}
