{"asset":{"generator":"Khronos glTF Blender I/O v1.2.75","version":"2.0"},"scene":0,"scenes":[{"name":"Scene","nodes":[0]}],"nodes":[{"mesh":0,"name":"Mesh"}],"meshes":[{"name":"SM_PaperBox_01_02","primitives":[{"indices":6,"attributes":{"POSITION":0,"NORMAL":1,"COLOR_0":2,"TEXCOORD_0":3,"TEXCOORD_1":4,"TANGENT":5},"mode":4}]}],"accessors":[{"bufferView":0,"componentType":5126,"count":136,"type":"VEC3","min":[-0.6170396423339843,-0.0010965102910995483,-0.42534652709960935],"max":[0.6117924118041992,0.5053364181518555,0.4059226608276367]},{"bufferView":1,"componentType":5126,"count":136,"type":"VEC3"},{"bufferView":2,"componentType":5126,"count":136,"type":"VEC4"},{"bufferView":3,"componentType":5126,"count":136,"type":"VEC2"},{"bufferView":4,"componentType":5126,"count":136,"type":"VEC2"},{"bufferView":5,"componentType":5126,"count":136,"type":"VEC4"},{"bufferView":6,"componentType":5123,"count":138,"type":"SCALAR"}],"bufferViews":[{"buffer":0,"byteOffset":0,"byteLength":1632},{"buffer":0,"byteOffset":1632,"byteLength":1632},{"buffer":0,"byteOffset":3264,"byteLength":2176},{"buffer":0,"byteOffset":5440,"byteLength":1088},{"buffer":0,"byteOffset":6528,"byteLength":1088},{"buffer":0,"byteOffset":7616,"byteLength":2176},{"buffer":0,"byteOffset":9792,"byteLength":276}],"buffers":[{"byteLength":10068,"uri":"data:application/octet-stream;base64,"}]}
