{"asset":{"generator":"Khronos glTF Blender I/O v1.2.75","version":"2.0"},"scene":0,"scenes":[{"name":"Scene","nodes":[0]}],"nodes":[{"mesh":0,"name":"Mesh"}],"meshes":[{"name":"SM_MetalBeam12","primitives":[{"indices":6,"attributes":{"POSITION":0,"NORMAL":1,"COLOR_0":2,"TEXCOORD_0":3,"TEXCOORD_1":4,"TANGENT":5},"mode":4}]}],"accessors":[{"bufferView":0,"componentType":5126,"count":584,"type":"VEC3","min":[-0.8504261779785156,-0.0000011920928955078125,-0.5567489624023437],"max":[0.56302001953125,15.999998779296876,1.2778880310058593]},{"bufferView":1,"componentType":5126,"count":584,"type":"VEC3"},{"bufferView":2,"componentType":5126,"count":584,"type":"VEC4"},{"bufferView":3,"componentType":5126,"count":584,"type":"VEC2"},{"bufferView":4,"componentType":5126,"count":584,"type":"VEC2"},{"bufferView":5,"componentType":5126,"count":584,"type":"VEC4"},{"bufferView":6,"componentType":5123,"count":1920,"type":"SCALAR"}],"bufferViews":[{"buffer":0,"byteOffset":0,"byteLength":7008},{"buffer":0,"byteOffset":7008,"byteLength":7008},{"buffer":0,"byteOffset":14016,"byteLength":9344},{"buffer":0,"byteOffset":23360,"byteLength":4672},{"buffer":0,"byteOffset":28032,"byteLength":4672},{"buffer":0,"byteOffset":32704,"byteLength":9344},{"buffer":0,"byteOffset":42048,"byteLength":3840}],"buffers":[{"byteLength":45888,"uri":"data:application/octet-stream;base64,"}]}
