{"asset":{"generator":"Khronos glTF Blender I/O v1.2.75","version":"2.0"},"scene":0,"scenes":[{"name":"Scene","nodes":[0]}],"nodes":[{"mesh":0,"name":"Mesh"}],"meshes":[{"name":"SM_StreetLamp_02","primitives":[{"indices":6,"attributes":{"POSITION":0,"NORMAL":1,"COLOR_0":2,"TEXCOORD_0":3,"TEXCOORD_1":4,"TANGENT":5},"mode":4}]}],"accessors":[{"bufferView":0,"componentType":5126,"count":670,"type":"VEC3","min":[-2.990234375,-0.6062640380859375,-0.22556671142578125],"max":[0.14524494171142577,1.1405036926269532,0.22559589385986328]},{"bufferView":1,"componentType":5126,"count":670,"type":"VEC3"},{"bufferView":2,"componentType":5126,"count":670,"type":"VEC4"},{"bufferView":3,"componentType":5126,"count":670,"type":"VEC2"},{"bufferView":4,"componentType":5126,"count":670,"type":"VEC2"},{"bufferView":5,"componentType":5126,"count":670,"type":"VEC4"},{"bufferView":6,"componentType":5123,"count":2550,"type":"SCALAR"}],"bufferViews":[{"buffer":0,"byteOffset":0,"byteLength":8040},{"buffer":0,"byteOffset":8040,"byteLength":8040},{"buffer":0,"byteOffset":16080,"byteLength":10720},{"buffer":0,"byteOffset":26800,"byteLength":5360},{"buffer":0,"byteOffset":32160,"byteLength":5360},{"buffer":0,"byteOffset":37520,"byteLength":10720},{"buffer":0,"byteOffset":48240,"byteLength":5100}],"buffers":[{"byteLength":53340,"uri":"data:application/octet-stream;base64,"}]}
