{"asset":{"generator":"Khronos glTF Blender I/O v1.2.75","version":"2.0"},"scene":0,"scenes":[{"name":"Scene","nodes":[0]}],"nodes":[{"mesh":0,"name":"Mesh"}],"meshes":[{"name":"SM_StreetLamp_02","primitives":[{"indices":6,"attributes":{"POSITION":0,"NORMAL":1,"COLOR_0":2,"TEXCOORD_0":3,"TEXCOORD_1":4,"TANGENT":5},"mode":4}]}],"accessors":[{"bufferView":0,"componentType":5126,"count":1230,"type":"VEC3","min":[-2.990234375,-0.6062640380859375,-0.22556671142578125],"max":[0.14524494171142577,1.1405036926269532,0.22559589385986328]},{"bufferView":1,"componentType":5126,"count":1230,"type":"VEC3"},{"bufferView":2,"componentType":5126,"count":1230,"type":"VEC4"},{"bufferView":3,"componentType":5126,"count":1230,"type":"VEC2"},{"bufferView":4,"componentType":5126,"count":1230,"type":"VEC2"},{"bufferView":5,"componentType":5126,"count":1230,"type":"VEC4"},{"bufferView":6,"componentType":5123,"count":5097,"type":"SCALAR"}],"bufferViews":[{"buffer":0,"byteOffset":0,"byteLength":14760},{"buffer":0,"byteOffset":14760,"byteLength":14760},{"buffer":0,"byteOffset":29520,"byteLength":19680},{"buffer":0,"byteOffset":49200,"byteLength":9840},{"buffer":0,"byteOffset":59040,"byteLength":9840},{"buffer":0,"byteOffset":68880,"byteLength":19680},{"buffer":0,"byteOffset":88560,"byteLength":10194}],"buffers":[{"byteLength":98754,"uri":"data:application/octet-stream;base64,"}]}
