{"asset":{"generator":"Khronos glTF Blender I/O v1.2.75","version":"2.0"},"scene":0,"scenes":[{"name":"Scene","nodes":[0]}],"nodes":[{"mesh":0,"name":"Mesh"}],"meshes":[{"name":"SM_PipeGroup01","primitives":[{"indices":5,"attributes":{"POSITION":0,"NORMAL":1,"TEXCOORD_0":2,"TEXCOORD_1":3,"TANGENT":4},"mode":4}]}],"accessors":[{"bufferView":0,"componentType":5126,"count":3044,"type":"VEC3","min":[-0.5504978942871094,-0.8196649932861328,-0.31551040649414064],"max":[0.5504587936401367,11.97029541015625,7.986224365234375]},{"bufferView":1,"componentType":5126,"count":3044,"type":"VEC3"},{"bufferView":2,"componentType":5126,"count":3044,"type":"VEC2"},{"bufferView":3,"componentType":5126,"count":3044,"type":"VEC2"},{"bufferView":4,"componentType":5126,"count":3044,"type":"VEC4"},{"bufferView":5,"componentType":5123,"count":6996,"type":"SCALAR"}],"bufferViews":[{"buffer":0,"byteOffset":0,"byteLength":36528},{"buffer":0,"byteOffset":36528,"byteLength":36528},{"buffer":0,"byteOffset":73056,"byteLength":24352},{"buffer":0,"byteOffset":97408,"byteLength":24352},{"buffer":0,"byteOffset":121760,"byteLength":48704},{"buffer":0,"byteOffset":170464,"byteLength":13992}],"buffers":[{"byteLength":184456,"uri":"data:application/octet-stream;base64,"}]}
