{"asset":{"generator":"Khronos glTF Blender I/O v1.2.75","version":"2.0"},"scene":0,"scenes":[{"name":"Scene","nodes":[0]}],"nodes":[{"mesh":0,"name":"Mesh"}],"meshes":[{"name":"SM_PipeGroup01","primitives":[{"indices":5,"attributes":{"POSITION":0,"NORMAL":1,"TEXCOORD_0":2,"TEXCOORD_1":3,"TANGENT":4},"mode":4}]}],"accessors":[{"bufferView":0,"componentType":5126,"count":320,"type":"VEC3","min":[-0.5504978942871094,-0.8196649932861328,-0.31551040649414064],"max":[0.5504587936401367,11.97029541015625,7.986224365234375]},{"bufferView":1,"componentType":5126,"count":320,"type":"VEC3"},{"bufferView":2,"componentType":5126,"count":320,"type":"VEC2"},{"bufferView":3,"componentType":5126,"count":320,"type":"VEC2"},{"bufferView":4,"componentType":5126,"count":320,"type":"VEC4"},{"bufferView":5,"componentType":5123,"count":702,"type":"SCALAR"}],"bufferViews":[{"buffer":0,"byteOffset":0,"byteLength":3840},{"buffer":0,"byteOffset":3840,"byteLength":3840},{"buffer":0,"byteOffset":7680,"byteLength":2560},{"buffer":0,"byteOffset":10240,"byteLength":2560},{"buffer":0,"byteOffset":12800,"byteLength":5120},{"buffer":0,"byteOffset":17920,"byteLength":1404}],"buffers":[{"byteLength":19324,"uri":"data:application/octet-stream;base64,"}]}
