{"asset":{"generator":"Khronos glTF Blender I/O v1.2.75","version":"2.0"},"scene":0,"scenes":[{"name":"Scene","nodes":[0]}],"nodes":[{"mesh":0,"name":"Mesh"}],"meshes":[{"name":"SM_LampSet_01","primitives":[{"indices":6,"attributes":{"POSITION":0,"NORMAL":1,"COLOR_0":2,"TEXCOORD_0":3,"TEXCOORD_1":4,"TANGENT":5},"mode":4},{"indices":13,"attributes":{"POSITION":7,"NORMAL":8,"COLOR_0":9,"TEXCOORD_0":10,"TEXCOORD_1":11,"TANGENT":12},"mode":4}]}],"accessors":[{"bufferView":0,"componentType":5126,"count":1265,"type":"VEC3","min":[-0.14189001083374023,-0.003529367446899414,-0.718468017578125],"max":[0.14188993453979493,0.12735536575317383,0.7197666168212891]},{"bufferView":1,"componentType":5126,"count":1265,"type":"VEC3"},{"bufferView":2,"componentType":5126,"count":1450,"type":"VEC4"},{"bufferView":3,"componentType":5126,"count":1265,"type":"VEC2"},{"bufferView":4,"componentType":5126,"count":1265,"type":"VEC2"},{"bufferView":5,"componentType":5126,"count":1265,"type":"VEC4"},{"bufferView":6,"componentType":5123,"count":3252,"type":"SCALAR"},{"bufferView":7,"componentType":5126,"count":185,"type":"VEC3","min":[-0.14189001083374023,-0.003529367446899414,-0.718468017578125],"max":[0.14188993453979493,0.12735536575317383,0.7197666168212891]},{"bufferView":8,"componentType":5126,"count":185,"type":"VEC3"},{"bufferView":9,"componentType":5126,"count":1450,"type":"VEC4"},{"bufferView":10,"componentType":5126,"count":185,"type":"VEC2"},{"bufferView":11,"componentType":5126,"count":185,"type":"VEC2"},{"bufferView":12,"componentType":5126,"count":185,"type":"VEC4"},{"bufferView":13,"componentType":5123,"count":804,"type":"SCALAR"}],"bufferViews":[{"buffer":0,"byteOffset":0,"byteLength":15180},{"buffer":0,"byteOffset":15180,"byteLength":15180},{"buffer":0,"byteOffset":30360,"byteLength":23200},{"buffer":0,"byteOffset":53560,"byteLength":10120},{"buffer":0,"byteOffset":63680,"byteLength":10120},{"buffer":0,"byteOffset":73800,"byteLength":20240},{"buffer":0,"byteOffset":94040,"byteLength":6504},{"buffer":1,"byteOffset":0,"byteLength":2220},{"buffer":1,"byteOffset":2220,"byteLength":2220},{"buffer":1,"byteOffset":4440,"byteLength":23200},{"buffer":1,"byteOffset":27640,"byteLength":1480},{"buffer":1,"byteOffset":29120,"byteLength":1480},{"buffer":1,"byteOffset":30600,"byteLength":2960},{"buffer":1,"byteOffset":33560,"byteLength":1608}],"buffers":[{"byteLength":100544,"uri":"data:application/octet-stream;base64,"},{"byteLength":35168,"uri":"data:application/octet-stream;base64,"}]}
