{"asset":{"generator":"Khronos glTF Blender I/O v1.2.75","version":"2.0"},"scene":0,"scenes":[{"name":"Scene","nodes":[0]}],"nodes":[{"mesh":0,"name":"Mesh"}],"meshes":[{"name":"SM_LampSet_01","primitives":[{"indices":6,"attributes":{"POSITION":0,"NORMAL":1,"COLOR_0":2,"TEXCOORD_0":3,"TEXCOORD_1":4,"TANGENT":5},"mode":4},{"indices":13,"attributes":{"POSITION":7,"NORMAL":8,"COLOR_0":9,"TEXCOORD_0":10,"TEXCOORD_1":11,"TANGENT":12},"mode":4}]}],"accessors":[{"bufferView":0,"componentType":5126,"count":670,"type":"VEC3","min":[-0.14189001083374023,-0.003529367446899414,-0.718468017578125],"max":[0.14188993453979493,0.12735536575317383,0.7197666168212891]},{"bufferView":1,"componentType":5126,"count":670,"type":"VEC3"},{"bufferView":2,"componentType":5126,"count":761,"type":"VEC4"},{"bufferView":3,"componentType":5126,"count":670,"type":"VEC2"},{"bufferView":4,"componentType":5126,"count":670,"type":"VEC2"},{"bufferView":5,"componentType":5126,"count":670,"type":"VEC4"},{"bufferView":6,"componentType":5123,"count":1332,"type":"SCALAR"},{"bufferView":7,"componentType":5126,"count":91,"type":"VEC3","min":[-0.14189001083374023,-0.003529367446899414,-0.718468017578125],"max":[0.14188993453979493,0.12735536575317383,0.7197666168212891]},{"bufferView":8,"componentType":5126,"count":91,"type":"VEC3"},{"bufferView":9,"componentType":5126,"count":761,"type":"VEC4"},{"bufferView":10,"componentType":5126,"count":91,"type":"VEC2"},{"bufferView":11,"componentType":5126,"count":91,"type":"VEC2"},{"bufferView":12,"componentType":5126,"count":91,"type":"VEC4"},{"bufferView":13,"componentType":5123,"count":288,"type":"SCALAR"}],"bufferViews":[{"buffer":0,"byteOffset":0,"byteLength":8040},{"buffer":0,"byteOffset":8040,"byteLength":8040},{"buffer":0,"byteOffset":16080,"byteLength":12176},{"buffer":0,"byteOffset":28256,"byteLength":5360},{"buffer":0,"byteOffset":33616,"byteLength":5360},{"buffer":0,"byteOffset":38976,"byteLength":10720},{"buffer":0,"byteOffset":49696,"byteLength":2664},{"buffer":1,"byteOffset":0,"byteLength":1092},{"buffer":1,"byteOffset":1092,"byteLength":1092},{"buffer":1,"byteOffset":2184,"byteLength":12176},{"buffer":1,"byteOffset":14360,"byteLength":728},{"buffer":1,"byteOffset":15088,"byteLength":728},{"buffer":1,"byteOffset":15816,"byteLength":1456},{"buffer":1,"byteOffset":17272,"byteLength":576}],"buffers":[{"byteLength":52360,"uri":"data:application/octet-stream;base64,"},{"byteLength":17848,"uri":"data:application/octet-stream;base64,"}]}
