{"asset":{"generator":"Khronos glTF Blender I/O v1.2.75","version":"2.0"},"scene":0,"scenes":[{"name":"Scene","nodes":[0]}],"nodes":[{"mesh":0,"name":"Mesh"}],"meshes":[{"name":"SM_LampSet_01","primitives":[{"indices":6,"attributes":{"POSITION":0,"NORMAL":1,"COLOR_0":2,"TEXCOORD_0":3,"TEXCOORD_1":4,"TANGENT":5},"mode":4},{"indices":13,"attributes":{"POSITION":7,"NORMAL":8,"COLOR_0":9,"TEXCOORD_0":10,"TEXCOORD_1":11,"TANGENT":12},"mode":4}]}],"accessors":[{"bufferView":0,"componentType":5126,"count":2112,"type":"VEC3","min":[-0.14189001083374023,-0.003529367446899414,-0.718468017578125],"max":[0.14188993453979493,0.12735536575317383,0.7197666168212891]},{"bufferView":1,"componentType":5126,"count":2112,"type":"VEC3"},{"bufferView":2,"componentType":5126,"count":2364,"type":"VEC4"},{"bufferView":3,"componentType":5126,"count":2112,"type":"VEC2"},{"bufferView":4,"componentType":5126,"count":2112,"type":"VEC2"},{"bufferView":5,"componentType":5126,"count":2112,"type":"VEC4"},{"bufferView":6,"componentType":5123,"count":6930,"type":"SCALAR"},{"bufferView":7,"componentType":5126,"count":252,"type":"VEC3","min":[-0.14189001083374023,-0.003529367446899414,-0.718468017578125],"max":[0.14188993453979493,0.12735536575317383,0.7197666168212891]},{"bufferView":8,"componentType":5126,"count":252,"type":"VEC3"},{"bufferView":9,"componentType":5126,"count":2364,"type":"VEC4"},{"bufferView":10,"componentType":5126,"count":252,"type":"VEC2"},{"bufferView":11,"componentType":5126,"count":252,"type":"VEC2"},{"bufferView":12,"componentType":5126,"count":252,"type":"VEC4"},{"bufferView":13,"componentType":5123,"count":1182,"type":"SCALAR"}],"bufferViews":[{"buffer":0,"byteOffset":0,"byteLength":25344},{"buffer":0,"byteOffset":25344,"byteLength":25344},{"buffer":0,"byteOffset":50688,"byteLength":37824},{"buffer":0,"byteOffset":88512,"byteLength":16896},{"buffer":0,"byteOffset":105408,"byteLength":16896},{"buffer":0,"byteOffset":122304,"byteLength":33792},{"buffer":0,"byteOffset":156096,"byteLength":13860},{"buffer":1,"byteOffset":0,"byteLength":3024},{"buffer":1,"byteOffset":3024,"byteLength":3024},{"buffer":1,"byteOffset":6048,"byteLength":37824},{"buffer":1,"byteOffset":43872,"byteLength":2016},{"buffer":1,"byteOffset":45888,"byteLength":2016},{"buffer":1,"byteOffset":47904,"byteLength":4032},{"buffer":1,"byteOffset":51936,"byteLength":2364}],"buffers":[{"byteLength":169956,"uri":"data:application/octet-stream;base64,"},{"byteLength":54300,"uri":"data:application/octet-stream;base64,"}]}
