{"asset":{"generator":"Khronos glTF Blender I/O v1.2.75","version":"2.0"},"scene":0,"scenes":[{"name":"Scene","nodes":[0]}],"nodes":[{"mesh":0,"name":"Mesh"}],"meshes":[{"name":"AudioMag","primitives":[{"indices":5,"attributes":{"POSITION":0,"NORMAL":1,"TEXCOORD_0":2,"TEXCOORD_1":3,"TANGENT":4},"mode":4}]}],"accessors":[{"bufferView":0,"componentType":5126,"count":1402,"type":"VEC3","min":[5.075775334262289e-8,-0.6930933380126953,-0.06297420501708985],"max":[1.0284088134765625,0.6930933380126953,0.06553887367248536]},{"bufferView":1,"componentType":5126,"count":1402,"type":"VEC3"},{"bufferView":2,"componentType":5126,"count":1402,"type":"VEC2"},{"bufferView":3,"componentType":5126,"count":1402,"type":"VEC2"},{"bufferView":4,"componentType":5126,"count":1402,"type":"VEC4"},{"bufferView":5,"componentType":5123,"count":3378,"type":"SCALAR"}],"bufferViews":[{"buffer":0,"byteOffset":0,"byteLength":16824},{"buffer":0,"byteOffset":16824,"byteLength":16824},{"buffer":0,"byteOffset":33648,"byteLength":11216},{"buffer":0,"byteOffset":44864,"byteLength":11216},{"buffer":0,"byteOffset":56080,"byteLength":22432},{"buffer":0,"byteOffset":78512,"byteLength":6756}],"buffers":[{"byteLength":85268,"uri":"data:application/octet-stream;base64,"}]}
