{"asset":{"generator":"Khronos glTF Blender I/O v1.2.75","version":"2.0"},"scene":0,"scenes":[{"name":"Scene","nodes":[0]}],"nodes":[{"mesh":0,"name":"Mesh"}],"meshes":[{"name":"AudioMag","primitives":[{"indices":5,"attributes":{"POSITION":0,"NORMAL":1,"TEXCOORD_0":2,"TEXCOORD_1":3,"TANGENT":4},"mode":4}]}],"accessors":[{"bufferView":0,"componentType":5126,"count":418,"type":"VEC3","min":[5.075775334262289e-8,-0.6930933380126953,-0.06297420501708985],"max":[1.0284088134765625,0.6930933380126953,0.06553887367248536]},{"bufferView":1,"componentType":5126,"count":418,"type":"VEC3"},{"bufferView":2,"componentType":5126,"count":418,"type":"VEC2"},{"bufferView":3,"componentType":5126,"count":418,"type":"VEC2"},{"bufferView":4,"componentType":5126,"count":418,"type":"VEC4"},{"bufferView":5,"componentType":5123,"count":846,"type":"SCALAR"}],"bufferViews":[{"buffer":0,"byteOffset":0,"byteLength":5016},{"buffer":0,"byteOffset":5016,"byteLength":5016},{"buffer":0,"byteOffset":10032,"byteLength":3344},{"buffer":0,"byteOffset":13376,"byteLength":3344},{"buffer":0,"byteOffset":16720,"byteLength":6688},{"buffer":0,"byteOffset":23408,"byteLength":1692}],"buffers":[{"byteLength":25100,"uri":"data:application/octet-stream;base64,"}]}
