{"asset":{"generator":"Khronos glTF Blender I/O v1.2.75","version":"2.0"},"scene":0,"scenes":[{"name":"Scene","nodes":[0]}],"nodes":[{"mesh":0,"name":"Mesh"}],"meshes":[{"name":"SM_PipeGroup02","primitives":[{"indices":5,"attributes":{"POSITION":0,"NORMAL":1,"TEXCOORD_0":2,"TEXCOORD_1":3,"TANGENT":4},"mode":4}]}],"accessors":[{"bufferView":0,"componentType":5126,"count":5075,"type":"VEC3","min":[-0.9096624755859375,-0.12010943412780761,-0.22048460006713866],"max":[4.2647531127929685,1.0356343078613282,5.28136474609375]},{"bufferView":1,"componentType":5126,"count":5075,"type":"VEC3"},{"bufferView":2,"componentType":5126,"count":5075,"type":"VEC2"},{"bufferView":3,"componentType":5126,"count":5075,"type":"VEC2"},{"bufferView":4,"componentType":5126,"count":5075,"type":"VEC4"},{"bufferView":5,"componentType":5123,"count":9765,"type":"SCALAR"}],"bufferViews":[{"buffer":0,"byteOffset":0,"byteLength":60900},{"buffer":0,"byteOffset":60900,"byteLength":60900},{"buffer":0,"byteOffset":121800,"byteLength":40600},{"buffer":0,"byteOffset":162400,"byteLength":40600},{"buffer":0,"byteOffset":203000,"byteLength":81200},{"buffer":0,"byteOffset":284200,"byteLength":19530}],"buffers":[{"byteLength":303730,"uri":"data:application/octet-stream;base64,"}]}
