{"asset":{"generator":"Khronos glTF Blender I/O v1.2.75","version":"2.0"},"scene":0,"scenes":[{"name":"Scene","nodes":[0]}],"nodes":[{"mesh":0,"name":"Mesh"}],"meshes":[{"name":"SM_GasStationNeon01","primitives":[{"indices":5,"attributes":{"POSITION":0,"NORMAL":1,"TEXCOORD_0":2,"TEXCOORD_1":3,"TANGENT":4},"mode":4}]}],"accessors":[{"bufferView":0,"componentType":5126,"count":152,"type":"VEC3","min":[-9.9132861328125,-0.022521352767944335,-10.04692626953125],"max":[0.0362689208984375,0.022521350383758545,0.0370477294921875]},{"bufferView":1,"componentType":5126,"count":152,"type":"VEC3"},{"bufferView":2,"componentType":5126,"count":152,"type":"VEC2"},{"bufferView":3,"componentType":5126,"count":152,"type":"VEC2"},{"bufferView":4,"componentType":5126,"count":152,"type":"VEC4"},{"bufferView":5,"componentType":5123,"count":420,"type":"SCALAR"}],"bufferViews":[{"buffer":0,"byteOffset":0,"byteLength":1824},{"buffer":0,"byteOffset":1824,"byteLength":1824},{"buffer":0,"byteOffset":3648,"byteLength":1216},{"buffer":0,"byteOffset":4864,"byteLength":1216},{"buffer":0,"byteOffset":6080,"byteLength":2432},{"buffer":0,"byteOffset":8512,"byteLength":840}],"buffers":[{"byteLength":9352,"uri":"data:application/octet-stream;base64,"}]}
