{"asset":{"generator":"Khronos glTF Blender I/O v1.2.75","version":"2.0"},"scene":0,"scenes":[{"name":"Scene","nodes":[0]}],"nodes":[{"mesh":0,"name":"Mesh"}],"meshes":[{"name":"SM_gun01","primitives":[{"indices":5,"attributes":{"POSITION":0,"NORMAL":1,"TEXCOORD_0":2,"TEXCOORD_1":3,"TANGENT":4},"mode":4}]}],"accessors":[{"bufferView":0,"componentType":5126,"count":2049,"type":"VEC3","min":[-0.1217754077911377,0.054581675529479984,-0.03995225667953491],"max":[0.1614125442504883,0.24322282791137695,0.03995225667953491]},{"bufferView":1,"componentType":5126,"count":2049,"type":"VEC3"},{"bufferView":2,"componentType":5126,"count":2049,"type":"VEC2"},{"bufferView":3,"componentType":5126,"count":2049,"type":"VEC2"},{"bufferView":4,"componentType":5126,"count":2049,"type":"VEC4"},{"bufferView":5,"componentType":5123,"count":5856,"type":"SCALAR"}],"bufferViews":[{"buffer":0,"byteOffset":0,"byteLength":24588},{"buffer":0,"byteOffset":24588,"byteLength":24588},{"buffer":0,"byteOffset":49176,"byteLength":16392},{"buffer":0,"byteOffset":65568,"byteLength":16392},{"buffer":0,"byteOffset":81960,"byteLength":32784},{"buffer":0,"byteOffset":114744,"byteLength":11712}],"buffers":[{"byteLength":126456,"uri":"data:application/octet-stream;base64,"}]}
