{"asset":{"generator":"Khronos glTF Blender I/O v1.2.75","version":"2.0"},"scene":0,"scenes":[{"name":"Scene","nodes":[0]}],"nodes":[{"mesh":0,"name":"Mesh"}],"meshes":[{"name":"SM_GateRight02","primitives":[{"indices":6,"attributes":{"POSITION":0,"NORMAL":1,"COLOR_0":2,"TEXCOORD_0":3,"TEXCOORD_1":4,"TANGENT":5},"mode":4}]}],"accessors":[{"bufferView":0,"componentType":5126,"count":3292,"type":"VEC3","min":[-5.974521484375,0.07530517578125,-0.08844942092895508],"max":[0.09847975730895996,20.9999951171875,0.7130425262451172]},{"bufferView":1,"componentType":5126,"count":3292,"type":"VEC3"},{"bufferView":2,"componentType":5126,"count":3292,"type":"VEC4"},{"bufferView":3,"componentType":5126,"count":3292,"type":"VEC2"},{"bufferView":4,"componentType":5126,"count":3292,"type":"VEC2"},{"bufferView":5,"componentType":5126,"count":3292,"type":"VEC4"},{"bufferView":6,"componentType":5123,"count":6996,"type":"SCALAR"}],"bufferViews":[{"buffer":0,"byteOffset":0,"byteLength":39504},{"buffer":0,"byteOffset":39504,"byteLength":39504},{"buffer":0,"byteOffset":79008,"byteLength":52672},{"buffer":0,"byteOffset":131680,"byteLength":26336},{"buffer":0,"byteOffset":158016,"byteLength":26336},{"buffer":0,"byteOffset":184352,"byteLength":52672},{"buffer":0,"byteOffset":237024,"byteLength":13992}],"buffers":[{"byteLength":251016,"uri":"data:application/octet-stream;base64,"}]}
