{"asset":{"generator":"Khronos glTF Blender I/O v1.2.75","version":"2.0"},"scene":0,"scenes":[{"name":"Scene","nodes":[0]}],"nodes":[{"mesh":0,"name":"Mesh"}],"meshes":[{"name":"SM_GateRight02","primitives":[{"indices":6,"attributes":{"POSITION":0,"NORMAL":1,"COLOR_0":2,"TEXCOORD_0":3,"TEXCOORD_1":4,"TANGENT":5},"mode":4}]}],"accessors":[{"bufferView":0,"componentType":5126,"count":1452,"type":"VEC3","min":[-5.974521484375,0.07530517578125,-0.08844942092895508],"max":[0.09847975730895996,20.9999951171875,0.7130425262451172]},{"bufferView":1,"componentType":5126,"count":1452,"type":"VEC3"},{"bufferView":2,"componentType":5126,"count":1452,"type":"VEC4"},{"bufferView":3,"componentType":5126,"count":1452,"type":"VEC2"},{"bufferView":4,"componentType":5126,"count":1452,"type":"VEC2"},{"bufferView":5,"componentType":5126,"count":1452,"type":"VEC4"},{"bufferView":6,"componentType":5123,"count":2100,"type":"SCALAR"}],"bufferViews":[{"buffer":0,"byteOffset":0,"byteLength":17424},{"buffer":0,"byteOffset":17424,"byteLength":17424},{"buffer":0,"byteOffset":34848,"byteLength":23232},{"buffer":0,"byteOffset":58080,"byteLength":11616},{"buffer":0,"byteOffset":69696,"byteLength":11616},{"buffer":0,"byteOffset":81312,"byteLength":23232},{"buffer":0,"byteOffset":104544,"byteLength":4200}],"buffers":[{"byteLength":108744,"uri":"data:application/octet-stream;base64,"}]}
