{
	"asset":{
		"generator":"Khronos glTF Blender I/O v3.6.0",
		"version":"2.0"
	},
	"scene":0,
	"scenes":[
		{
			"name":"Scene",
			"nodes":[
				0
			]
		}
	],
	"nodes":[
		{
			"mesh":0,
			"name":"grenade_gun_0_tps"
		}
	],
	"materials":[
		{
			"doubleSided":true,
			"emissiveFactor":[
				1,
				1,
				1
			],
			"emissiveTexture":{
				"index":0
			},
			"name":"standard1",
			"pbrMetallicRoughness":{
				"baseColorTexture":{
					"index":1
				},
				"metallicFactor":0,
				"metallicRoughnessTexture":{
					"index":2
				}
			}
		},
		{
			"doubleSided":true,
			"name":"standard",
			"pbrMetallicRoughness":{
				"baseColorTexture":{
					"index":3
				},
				"metallicFactor":0,
				"metallicRoughnessTexture":{
					"index":4
				}
			}
		}
	],
	"meshes":[
		{
			"name":"mesh_grenade_gun_0_tps",
			"primitives":[
				{
					"attributes":{
						"POSITION":0,
						"TEXCOORD_0":1,
						"NORMAL":2
					},
					"indices":3,
					"material":0
				},
				{
					"attributes":{
						"POSITION":4,
						"TEXCOORD_0":5,
						"NORMAL":6
					},
					"indices":7,
					"material":1
				}
			]
		}
	],
	"textures":[
		{
			"sampler":0,
			"source":0
		},
		{
			"sampler":0,
			"source":0
		},
		{
			"sampler":0,
			"source":1
		},
		{
			"sampler":0,
			"source":0
		},
		{
			"sampler":0,
			"source":2
		}
	],
	"images":[
		{
			"mimeType":"image/jpeg",
			"name":"standard_baseColor",
			"uri":"standard_baseColor.jpg"
		},
		{
			"mimeType":"image/png",
			"name":"standard1_metallicRoughness",
			"uri":"standard1_metallicRoughness.png"
		},
		{
			"mimeType":"image/png",
			"name":"standard_metallicRoughness",
			"uri":"standard_metallicRoughness.png"
		}
	],
	"accessors":[
		{
			"bufferView":0,
			"componentType":5126,
			"count":754,
			"max":[
				3.1814956665039062,
				5.5173468589782715,
				36.83564758300781
			],
			"min":[
				-3.1814937591552734,
				-1.0056304931640625,
				3.386227607727051
			],
			"type":"VEC3"
		},
		{
			"bufferView":1,
			"componentType":5126,
			"count":754,
			"type":"VEC2"
		},
		{
			"bufferView":2,
			"componentType":5126,
			"count":754,
			"type":"VEC3"
		},
		{
			"bufferView":3,
			"componentType":5123,
			"count":1344,
			"type":"SCALAR"
		},
		{
			"bufferView":4,
			"componentType":5126,
			"count":2754,
			"max":[
				4.031371593475342,
				8.336365699768066,
				37.713348388671875
			],
			"min":[
				-4.031372547149658,
				-5.795275688171387,
				-7.184579849243164
			],
			"type":"VEC3"
		},
		{
			"bufferView":5,
			"componentType":5126,
			"count":2754,
			"type":"VEC2"
		},
		{
			"bufferView":6,
			"componentType":5126,
			"count":2754,
			"type":"VEC3"
		},
		{
			"bufferView":7,
			"componentType":5123,
			"count":5046,
			"type":"SCALAR"
		}
	],
	"bufferViews":[
		{
			"buffer":0,
			"byteLength":9048,
			"byteOffset":0,
			"target":34962
		},
		{
			"buffer":0,
			"byteLength":6032,
			"byteOffset":9048,
			"target":34962
		},
		{
			"buffer":0,
			"byteLength":9048,
			"byteOffset":15080,
			"target":34962
		},
		{
			"buffer":0,
			"byteLength":2688,
			"byteOffset":24128,
			"target":34963
		},
		{
			"buffer":0,
			"byteLength":33048,
			"byteOffset":26816,
			"target":34962
		},
		{
			"buffer":0,
			"byteLength":22032,
			"byteOffset":59864,
			"target":34962
		},
		{
			"buffer":0,
			"byteLength":33048,
			"byteOffset":81896,
			"target":34962
		},
		{
			"buffer":0,
			"byteLength":10092,
			"byteOffset":114944,
			"target":34963
		}
	],
	"samplers":[
		{
			"magFilter":9729,
			"minFilter":9987
		}
	],
	"buffers":[
		{
			"byteLength":125036,
			"uri":"grenade_gun_0.bin"
		}
	]
}
