{"asset":{"generator":"Khronos glTF Blender I/O v1.2.75","version":"2.0"},"scene":0,"scenes":[{"name":"Scene","nodes":[0]}],"nodes":[{"mesh":0,"name":"Mesh"}],"meshes":[{"name":"SM_Fence08","primitives":[{"indices":6,"attributes":{"POSITION":0,"NORMAL":1,"COLOR_0":2,"TEXCOORD_0":3,"TEXCOORD_1":4,"TANGENT":5},"mode":4},{"indices":13,"attributes":{"POSITION":7,"NORMAL":8,"COLOR_0":9,"TEXCOORD_0":10,"TEXCOORD_1":11,"TANGENT":12},"mode":4}]}],"accessors":[{"bufferView":0,"componentType":5126,"count":38,"type":"VEC3","min":[-0.0000010312088852515443,0.1005670166015625,-0.07284407615661621],"max":[0.716131591796875,1.5352359008789063,-0.009625203609466552]},{"bufferView":1,"componentType":5126,"count":38,"type":"VEC3"},{"bufferView":2,"componentType":5126,"count":52,"type":"VEC4"},{"bufferView":3,"componentType":5126,"count":38,"type":"VEC2"},{"bufferView":4,"componentType":5126,"count":38,"type":"VEC2"},{"bufferView":5,"componentType":5126,"count":38,"type":"VEC4"},{"bufferView":6,"componentType":5123,"count":42,"type":"SCALAR"},{"bufferView":7,"componentType":5126,"count":14,"type":"VEC3","min":[-0.0000010312088852515443,0.1005670166015625,-0.07284407615661621],"max":[0.716131591796875,1.5352359008789063,-0.009625203609466552]},{"bufferView":8,"componentType":5126,"count":14,"type":"VEC3"},{"bufferView":9,"componentType":5126,"count":52,"type":"VEC4"},{"bufferView":10,"componentType":5126,"count":14,"type":"VEC2"},{"bufferView":11,"componentType":5126,"count":14,"type":"VEC2"},{"bufferView":12,"componentType":5126,"count":14,"type":"VEC4"},{"bufferView":13,"componentType":5123,"count":18,"type":"SCALAR"}],"bufferViews":[{"buffer":0,"byteOffset":0,"byteLength":456},{"buffer":0,"byteOffset":456,"byteLength":456},{"buffer":0,"byteOffset":912,"byteLength":832},{"buffer":0,"byteOffset":1744,"byteLength":304},{"buffer":0,"byteOffset":2048,"byteLength":304},{"buffer":0,"byteOffset":2352,"byteLength":608},{"buffer":0,"byteOffset":2960,"byteLength":84},{"buffer":1,"byteOffset":0,"byteLength":168},{"buffer":1,"byteOffset":168,"byteLength":168},{"buffer":1,"byteOffset":336,"byteLength":832},{"buffer":1,"byteOffset":1168,"byteLength":112},{"buffer":1,"byteOffset":1280,"byteLength":112},{"buffer":1,"byteOffset":1392,"byteLength":224},{"buffer":1,"byteOffset":1616,"byteLength":36}],"buffers":[{"byteLength":3044,"uri":"data:application/octet-stream;base64,"},{"byteLength":1652,"uri":"data:application/octet-stream;base64,"}]}
