{"asset":{"generator":"Khronos glTF Blender I/O v1.2.75","version":"2.0"},"scene":0,"scenes":[{"name":"Scene","nodes":[0]}],"nodes":[{"mesh":0,"name":"Mesh"}],"meshes":[{"name":"SM_BagsMerged01","primitives":[{"indices":5,"attributes":{"POSITION":0,"NORMAL":1,"TEXCOORD_0":2,"TEXCOORD_1":3,"TANGENT":4},"mode":4},{"indices":11,"attributes":{"POSITION":6,"NORMAL":7,"TEXCOORD_0":8,"TEXCOORD_1":9,"TANGENT":10},"mode":4}]}],"accessors":[{"bufferView":0,"componentType":5126,"count":254,"type":"VEC3","min":[-1.8657308959960937,-0.03751855611801148,-2.4626300048828127],"max":[4.118325805664062,2.2386329650878904,1.191068115234375]},{"bufferView":1,"componentType":5126,"count":254,"type":"VEC3"},{"bufferView":2,"componentType":5126,"count":254,"type":"VEC2"},{"bufferView":3,"componentType":5126,"count":254,"type":"VEC2"},{"bufferView":4,"componentType":5126,"count":254,"type":"VEC4"},{"bufferView":5,"componentType":5123,"count":738,"type":"SCALAR"},{"bufferView":6,"componentType":5126,"count":8248,"type":"VEC3","min":[-1.8657308959960937,-0.03751855611801148,-2.4626300048828127],"max":[4.118325805664062,2.2386329650878904,1.191068115234375]},{"bufferView":7,"componentType":5126,"count":8248,"type":"VEC3"},{"bufferView":8,"componentType":5126,"count":8248,"type":"VEC2"},{"bufferView":9,"componentType":5126,"count":8248,"type":"VEC2"},{"bufferView":10,"componentType":5126,"count":8248,"type":"VEC4"},{"bufferView":11,"componentType":5123,"count":40821,"type":"SCALAR"}],"bufferViews":[{"buffer":0,"byteOffset":0,"byteLength":3048},{"buffer":0,"byteOffset":3048,"byteLength":3048},{"buffer":0,"byteOffset":6096,"byteLength":2032},{"buffer":0,"byteOffset":8128,"byteLength":2032},{"buffer":0,"byteOffset":10160,"byteLength":4064},{"buffer":0,"byteOffset":14224,"byteLength":1476},{"buffer":1,"byteOffset":0,"byteLength":98976},{"buffer":1,"byteOffset":98976,"byteLength":98976},{"buffer":1,"byteOffset":197952,"byteLength":65984},{"buffer":1,"byteOffset":263936,"byteLength":65984},{"buffer":1,"byteOffset":329920,"byteLength":131968},{"buffer":1,"byteOffset":461888,"byteLength":81642}],"buffers":[{"byteLength":15700,"uri":"data:application/octet-stream;base64,"},{"byteLength":543530,"uri":"data:application/octet-stream;base64,"}]}
