{"asset":{"generator":"Khronos glTF Blender I/O v1.2.75","version":"2.0"},"scene":0,"scenes":[{"name":"Scene","nodes":[0]}],"nodes":[{"mesh":0,"name":"Mesh"}],"meshes":[{"name":"SM_BagsMerged01","primitives":[{"indices":5,"attributes":{"POSITION":0,"NORMAL":1,"TEXCOORD_0":2,"TEXCOORD_1":3,"TANGENT":4},"mode":4},{"indices":11,"attributes":{"POSITION":6,"NORMAL":7,"TEXCOORD_0":8,"TEXCOORD_1":9,"TANGENT":10},"mode":4}]}],"accessors":[{"bufferView":0,"componentType":5126,"count":98,"type":"VEC3","min":[-1.8657308959960937,-0.03751855611801148,-2.4626300048828127],"max":[4.118325805664062,2.2386329650878904,1.191068115234375]},{"bufferView":1,"componentType":5126,"count":98,"type":"VEC3"},{"bufferView":2,"componentType":5126,"count":98,"type":"VEC2"},{"bufferView":3,"componentType":5126,"count":98,"type":"VEC2"},{"bufferView":4,"componentType":5126,"count":98,"type":"VEC4"},{"bufferView":5,"componentType":5123,"count":156,"type":"SCALAR"},{"bufferView":6,"componentType":5126,"count":582,"type":"VEC3","min":[-1.8657308959960937,-0.03751855611801148,-2.4626300048828127],"max":[4.118325805664062,2.2386329650878904,1.191068115234375]},{"bufferView":7,"componentType":5126,"count":582,"type":"VEC3"},{"bufferView":8,"componentType":5126,"count":582,"type":"VEC2"},{"bufferView":9,"componentType":5126,"count":582,"type":"VEC2"},{"bufferView":10,"componentType":5126,"count":582,"type":"VEC4"},{"bufferView":11,"componentType":5123,"count":1920,"type":"SCALAR"}],"bufferViews":[{"buffer":0,"byteOffset":0,"byteLength":1176},{"buffer":0,"byteOffset":1176,"byteLength":1176},{"buffer":0,"byteOffset":2352,"byteLength":784},{"buffer":0,"byteOffset":3136,"byteLength":784},{"buffer":0,"byteOffset":3920,"byteLength":1568},{"buffer":0,"byteOffset":5488,"byteLength":312},{"buffer":1,"byteOffset":0,"byteLength":6984},{"buffer":1,"byteOffset":6984,"byteLength":6984},{"buffer":1,"byteOffset":13968,"byteLength":4656},{"buffer":1,"byteOffset":18624,"byteLength":4656},{"buffer":1,"byteOffset":23280,"byteLength":9312},{"buffer":1,"byteOffset":32592,"byteLength":3840}],"buffers":[{"byteLength":5800,"uri":"data:application/octet-stream;base64,"},{"byteLength":36432,"uri":"data:application/octet-stream;base64,"}]}
