{"asset":{"generator":"Khronos glTF Blender I/O v1.2.75","version":"2.0"},"scene":0,"scenes":[{"name":"Scene","nodes":[0]}],"nodes":[{"mesh":0,"name":"Mesh"}],"meshes":[{"name":"SM_Cable_G01","primitives":[{"indices":5,"attributes":{"POSITION":0,"NORMAL":1,"TEXCOORD_0":2,"TEXCOORD_1":3,"TANGENT":4},"mode":4}]}],"accessors":[{"bufferView":0,"componentType":5126,"count":6792,"type":"VEC3","min":[-0.03742919921875,-3.8000283813476563,-0.0001361306756734848],"max":[1.93742919921875,1.0000039672851562,0.05940056324005127]},{"bufferView":1,"componentType":5126,"count":6792,"type":"VEC3"},{"bufferView":2,"componentType":5126,"count":6792,"type":"VEC2"},{"bufferView":3,"componentType":5126,"count":6792,"type":"VEC2"},{"bufferView":4,"componentType":5126,"count":6792,"type":"VEC4"},{"bufferView":5,"componentType":5123,"count":16740,"type":"SCALAR"}],"bufferViews":[{"buffer":0,"byteOffset":0,"byteLength":81504},{"buffer":0,"byteOffset":81504,"byteLength":81504},{"buffer":0,"byteOffset":163008,"byteLength":54336},{"buffer":0,"byteOffset":217344,"byteLength":54336},{"buffer":0,"byteOffset":271680,"byteLength":108672},{"buffer":0,"byteOffset":380352,"byteLength":33480}],"buffers":[{"byteLength":413832,"uri":"data:application/octet-stream;base64,"}]}
