{"asset":{"generator":"Khronos glTF Blender I/O v1.2.75","version":"2.0"},"scene":0,"scenes":[{"name":"Scene","nodes":[0]}],"nodes":[{"mesh":0,"name":"Mesh"}],"meshes":[{"name":"SM_GroundDetail04","primitives":[{"indices":5,"attributes":{"POSITION":0,"NORMAL":1,"TEXCOORD_0":2,"TEXCOORD_1":3,"TANGENT":4},"mode":4}]}],"accessors":[{"bufferView":0,"componentType":5126,"count":32,"type":"VEC3","min":[-0.2198895263671875,4.76837158203125e-7,-9.99999755859375],"max":[0.21988937377929688,0.056284313201904294,0.00000244140625]},{"bufferView":1,"componentType":5126,"count":32,"type":"VEC3"},{"bufferView":2,"componentType":5126,"count":32,"type":"VEC2"},{"bufferView":3,"componentType":5126,"count":32,"type":"VEC2"},{"bufferView":4,"componentType":5126,"count":32,"type":"VEC4"},{"bufferView":5,"componentType":5123,"count":48,"type":"SCALAR"}],"bufferViews":[{"buffer":0,"byteOffset":0,"byteLength":384},{"buffer":0,"byteOffset":384,"byteLength":384},{"buffer":0,"byteOffset":768,"byteLength":256},{"buffer":0,"byteOffset":1024,"byteLength":256},{"buffer":0,"byteOffset":1280,"byteLength":512},{"buffer":0,"byteOffset":1792,"byteLength":96}],"buffers":[{"byteLength":1888,"uri":"data:application/octet-stream;base64,"}]}
