{"asset":{"generator":"Khronos glTF Blender I/O v1.2.75","version":"2.0"},"scene":0,"scenes":[{"name":"Scene","nodes":[0]}],"nodes":[{"mesh":0,"name":"Mesh"}],"meshes":[{"name":"SM_Building08_06","primitives":[{"indices":5,"attributes":{"POSITION":0,"NORMAL":1,"TEXCOORD_0":2,"TEXCOORD_1":3,"TANGENT":4},"mode":4}]}],"accessors":[{"bufferView":0,"componentType":5126,"count":208,"type":"VEC3","min":[-1.893895721435547,-40.0292138671875,-0.0025304126739501952],"max":[0.510477409362793,18.583828125,20.9745947265625]},{"bufferView":1,"componentType":5126,"count":208,"type":"VEC3"},{"bufferView":2,"componentType":5126,"count":208,"type":"VEC2"},{"bufferView":3,"componentType":5126,"count":208,"type":"VEC2"},{"bufferView":4,"componentType":5126,"count":208,"type":"VEC4"},{"bufferView":5,"componentType":5123,"count":300,"type":"SCALAR"}],"bufferViews":[{"buffer":0,"byteOffset":0,"byteLength":2496},{"buffer":0,"byteOffset":2496,"byteLength":2496},{"buffer":0,"byteOffset":4992,"byteLength":1664},{"buffer":0,"byteOffset":6656,"byteLength":1664},{"buffer":0,"byteOffset":8320,"byteLength":3328},{"buffer":0,"byteOffset":11648,"byteLength":600}],"buffers":[{"byteLength":12248,"uri":"data:application/octet-stream;base64,"}]}
