{"asset":{"generator":"Khronos glTF Blender I/O v1.2.75","version":"2.0"},"scene":0,"scenes":[{"name":"Scene","nodes":[0]}],"nodes":[{"mesh":0,"name":"Mesh"}],"meshes":[{"name":"SM_Building08_06","primitives":[{"indices":5,"attributes":{"POSITION":0,"NORMAL":1,"TEXCOORD_0":2,"TEXCOORD_1":3,"TANGENT":4},"mode":4}]}],"accessors":[{"bufferView":0,"componentType":5126,"count":352,"type":"VEC3","min":[-1.893895721435547,-40.0292138671875,-0.0025304126739501952],"max":[0.510477409362793,18.583828125,20.9745947265625]},{"bufferView":1,"componentType":5126,"count":352,"type":"VEC3"},{"bufferView":2,"componentType":5126,"count":352,"type":"VEC2"},{"bufferView":3,"componentType":5126,"count":352,"type":"VEC2"},{"bufferView":4,"componentType":5126,"count":352,"type":"VEC4"},{"bufferView":5,"componentType":5123,"count":600,"type":"SCALAR"}],"bufferViews":[{"buffer":0,"byteOffset":0,"byteLength":4224},{"buffer":0,"byteOffset":4224,"byteLength":4224},{"buffer":0,"byteOffset":8448,"byteLength":2816},{"buffer":0,"byteOffset":11264,"byteLength":2816},{"buffer":0,"byteOffset":14080,"byteLength":5632},{"buffer":0,"byteOffset":19712,"byteLength":1200}],"buffers":[{"byteLength":20912,"uri":"data:application/octet-stream;base64,"}]}
