{"asset":{"generator":"Khronos glTF Blender I/O v1.2.75","version":"2.0"},"scene":0,"scenes":[{"name":"Scene","nodes":[0]}],"nodes":[{"mesh":0,"name":"Mesh"}],"meshes":[{"name":"SM_Building08_06","primitives":[{"indices":5,"attributes":{"POSITION":0,"NORMAL":1,"TEXCOORD_0":2,"TEXCOORD_1":3,"TANGENT":4},"mode":4}]}],"accessors":[{"bufferView":0,"componentType":5126,"count":122,"type":"VEC3","min":[-1.893895721435547,-40.0292138671875,-0.0025304126739501952],"max":[0.510477409362793,18.583828125,20.9745947265625]},{"bufferView":1,"componentType":5126,"count":122,"type":"VEC3"},{"bufferView":2,"componentType":5126,"count":122,"type":"VEC2"},{"bufferView":3,"componentType":5126,"count":122,"type":"VEC2"},{"bufferView":4,"componentType":5126,"count":122,"type":"VEC4"},{"bufferView":5,"componentType":5123,"count":150,"type":"SCALAR"}],"bufferViews":[{"buffer":0,"byteOffset":0,"byteLength":1464},{"buffer":0,"byteOffset":1464,"byteLength":1464},{"buffer":0,"byteOffset":2928,"byteLength":976},{"buffer":0,"byteOffset":3904,"byteLength":976},{"buffer":0,"byteOffset":4880,"byteLength":1952},{"buffer":0,"byteOffset":6832,"byteLength":300}],"buffers":[{"byteLength":7132,"uri":"data:application/octet-stream;base64,"}]}
