{"asset":{"generator":"Khronos glTF Blender I/O v1.2.75","version":"2.0"},"scene":0,"scenes":[{"name":"Scene","nodes":[0]}],"nodes":[{"mesh":0,"name":"Mesh"}],"meshes":[{"name":"SM_MetalBumper03","primitives":[{"indices":6,"attributes":{"POSITION":0,"NORMAL":1,"COLOR_0":2,"TEXCOORD_0":3,"TEXCOORD_1":4,"TANGENT":5},"mode":4}]}],"accessors":[{"bufferView":0,"componentType":5126,"count":759,"type":"VEC3","min":[2.8211427434143843e-8,-1.5721723696112983e-23,-1.0999997711181642],"max":[1.1,0.6584859466552735,1.6172582036233508e-7]},{"bufferView":1,"componentType":5126,"count":759,"type":"VEC3"},{"bufferView":2,"componentType":5126,"count":759,"type":"VEC4"},{"bufferView":3,"componentType":5126,"count":759,"type":"VEC2"},{"bufferView":4,"componentType":5126,"count":759,"type":"VEC2"},{"bufferView":5,"componentType":5126,"count":759,"type":"VEC4"},{"bufferView":6,"componentType":5123,"count":3612,"type":"SCALAR"}],"bufferViews":[{"buffer":0,"byteOffset":0,"byteLength":9108},{"buffer":0,"byteOffset":9108,"byteLength":9108},{"buffer":0,"byteOffset":18216,"byteLength":12144},{"buffer":0,"byteOffset":30360,"byteLength":6072},{"buffer":0,"byteOffset":36432,"byteLength":6072},{"buffer":0,"byteOffset":42504,"byteLength":12144},{"buffer":0,"byteOffset":54648,"byteLength":7224}],"buffers":[{"byteLength":61872,"uri":"data:application/octet-stream;base64,"}]}
