{"asset":{"generator":"Khronos glTF Blender I/O v1.2.75","version":"2.0"},"scene":0,"scenes":[{"name":"Scene","nodes":[0]}],"nodes":[{"mesh":0,"name":"Mesh"}],"meshes":[{"name":"SM_Building03_02","primitives":[{"indices":5,"attributes":{"POSITION":0,"NORMAL":1,"TEXCOORD_0":2,"TEXCOORD_1":3,"TANGENT":4},"mode":4}]}],"accessors":[{"bufferView":0,"componentType":5126,"count":16,"type":"VEC3","min":[-8,0,0],"max":[-3.0517578125e-7,3.01510009765625,0]},{"bufferView":1,"componentType":5126,"count":16,"type":"VEC3"},{"bufferView":2,"componentType":5126,"count":16,"type":"VEC2"},{"bufferView":3,"componentType":5126,"count":16,"type":"VEC2"},{"bufferView":4,"componentType":5126,"count":16,"type":"VEC4"},{"bufferView":5,"componentType":5123,"count":24,"type":"SCALAR"}],"bufferViews":[{"buffer":0,"byteOffset":0,"byteLength":192},{"buffer":0,"byteOffset":192,"byteLength":192},{"buffer":0,"byteOffset":384,"byteLength":128},{"buffer":0,"byteOffset":512,"byteLength":128},{"buffer":0,"byteOffset":640,"byteLength":256},{"buffer":0,"byteOffset":896,"byteLength":48}],"buffers":[{"byteLength":944,"uri":"data:application/octet-stream;base64,"}]}
