{"asset":{"generator":"Khronos glTF Blender I/O v1.2.75","version":"2.0"},"scene":0,"scenes":[{"name":"Scene","nodes":[0]}],"nodes":[{"mesh":0,"name":"Mesh"}],"meshes":[{"name":"SM_BaseGate","primitives":[{"indices":5,"attributes":{"POSITION":0,"NORMAL":1,"TEXCOORD_0":2,"TEXCOORD_1":3,"TANGENT":4},"mode":4},{"indices":11,"attributes":{"POSITION":6,"NORMAL":7,"TEXCOORD_0":8,"TEXCOORD_1":9,"TANGENT":10},"mode":4}]}],"accessors":[{"bufferView":0,"componentType":5126,"count":122,"type":"VEC3","min":[-5,-0.01115567684173584,-5.0000003051757815],"max":[3.552713678800501e-17,5.0000003051757815,0.01033607244491577]},{"bufferView":1,"componentType":5126,"count":122,"type":"VEC3"},{"bufferView":2,"componentType":5126,"count":122,"type":"VEC2"},{"bufferView":3,"componentType":5126,"count":122,"type":"VEC2"},{"bufferView":4,"componentType":5126,"count":122,"type":"VEC4"},{"bufferView":5,"componentType":5123,"count":207,"type":"SCALAR"},{"bufferView":6,"componentType":5126,"count":264,"type":"VEC3","min":[-5,-0.01115567684173584,-5.0000003051757815],"max":[3.552713678800501e-17,5.0000003051757815,0.01033607244491577]},{"bufferView":7,"componentType":5126,"count":264,"type":"VEC3"},{"bufferView":8,"componentType":5126,"count":264,"type":"VEC2"},{"bufferView":9,"componentType":5126,"count":264,"type":"VEC2"},{"bufferView":10,"componentType":5126,"count":264,"type":"VEC4"},{"bufferView":11,"componentType":5123,"count":450,"type":"SCALAR"}],"bufferViews":[{"buffer":0,"byteOffset":0,"byteLength":1464},{"buffer":0,"byteOffset":1464,"byteLength":1464},{"buffer":0,"byteOffset":2928,"byteLength":976},{"buffer":0,"byteOffset":3904,"byteLength":976},{"buffer":0,"byteOffset":4880,"byteLength":1952},{"buffer":0,"byteOffset":6832,"byteLength":414},{"buffer":1,"byteOffset":0,"byteLength":3168},{"buffer":1,"byteOffset":3168,"byteLength":3168},{"buffer":1,"byteOffset":6336,"byteLength":2112},{"buffer":1,"byteOffset":8448,"byteLength":2112},{"buffer":1,"byteOffset":10560,"byteLength":4224},{"buffer":1,"byteOffset":14784,"byteLength":900}],"buffers":[{"byteLength":7246,"uri":"data:application/octet-stream;base64,"},{"byteLength":15684,"uri":"data:application/octet-stream;base64,"}]}
