{"asset":{"generator":"Khronos glTF Blender I/O v1.2.75","version":"2.0"},"scene":0,"scenes":[{"name":"Scene","nodes":[0]}],"nodes":[{"mesh":0,"name":"Mesh"}],"meshes":[{"name":"SM_BaseGate","primitives":[{"indices":5,"attributes":{"POSITION":0,"NORMAL":1,"TEXCOORD_0":2,"TEXCOORD_1":3,"TANGENT":4},"mode":4},{"indices":11,"attributes":{"POSITION":6,"NORMAL":7,"TEXCOORD_0":8,"TEXCOORD_1":9,"TANGENT":10},"mode":4}]}],"accessors":[{"bufferView":0,"componentType":5126,"count":307,"type":"VEC3","min":[-5,-0.01115567684173584,-5.0000003051757815],"max":[3.552713678800501e-17,5.0000003051757815,0.01033607244491577]},{"bufferView":1,"componentType":5126,"count":307,"type":"VEC3"},{"bufferView":2,"componentType":5126,"count":307,"type":"VEC2"},{"bufferView":3,"componentType":5126,"count":307,"type":"VEC2"},{"bufferView":4,"componentType":5126,"count":307,"type":"VEC4"},{"bufferView":5,"componentType":5123,"count":780,"type":"SCALAR"},{"bufferView":6,"componentType":5126,"count":294,"type":"VEC3","min":[-5,-0.01115567684173584,-5.0000003051757815],"max":[3.552713678800501e-17,5.0000003051757815,0.01033607244491577]},{"bufferView":7,"componentType":5126,"count":294,"type":"VEC3"},{"bufferView":8,"componentType":5126,"count":294,"type":"VEC2"},{"bufferView":9,"componentType":5126,"count":294,"type":"VEC2"},{"bufferView":10,"componentType":5126,"count":294,"type":"VEC4"},{"bufferView":11,"componentType":5123,"count":540,"type":"SCALAR"}],"bufferViews":[{"buffer":0,"byteOffset":0,"byteLength":3684},{"buffer":0,"byteOffset":3684,"byteLength":3684},{"buffer":0,"byteOffset":7368,"byteLength":2456},{"buffer":0,"byteOffset":9824,"byteLength":2456},{"buffer":0,"byteOffset":12280,"byteLength":4912},{"buffer":0,"byteOffset":17192,"byteLength":1560},{"buffer":1,"byteOffset":0,"byteLength":3528},{"buffer":1,"byteOffset":3528,"byteLength":3528},{"buffer":1,"byteOffset":7056,"byteLength":2352},{"buffer":1,"byteOffset":9408,"byteLength":2352},{"buffer":1,"byteOffset":11760,"byteLength":4704},{"buffer":1,"byteOffset":16464,"byteLength":1080}],"buffers":[{"byteLength":18752,"uri":"data:application/octet-stream;base64,"},{"byteLength":17544,"uri":"data:application/octet-stream;base64,"}]}
