{"asset":{"generator":"Khronos glTF Blender I/O v1.2.75","version":"2.0"},"scene":0,"scenes":[{"name":"Scene","nodes":[0]}],"nodes":[{"mesh":0,"name":"Mesh"}],"meshes":[{"name":"SM_PlatformRailing_03","primitives":[{"indices":6,"attributes":{"POSITION":0,"NORMAL":1,"COLOR_0":2,"TEXCOORD_0":3,"TEXCOORD_1":4,"TANGENT":5},"mode":4}]}],"accessors":[{"bufferView":0,"componentType":5126,"count":564,"type":"VEC3","min":[-0.04376066207885742,-0.000012675743782892823,-0.42898323059082033],"max":[0.04342480659484863,1.276668167114258,0.05706896781921387]},{"bufferView":1,"componentType":5126,"count":564,"type":"VEC3"},{"bufferView":2,"componentType":5126,"count":564,"type":"VEC4"},{"bufferView":3,"componentType":5126,"count":564,"type":"VEC2"},{"bufferView":4,"componentType":5126,"count":564,"type":"VEC2"},{"bufferView":5,"componentType":5126,"count":564,"type":"VEC4"},{"bufferView":6,"componentType":5123,"count":2208,"type":"SCALAR"}],"bufferViews":[{"buffer":0,"byteOffset":0,"byteLength":6768},{"buffer":0,"byteOffset":6768,"byteLength":6768},{"buffer":0,"byteOffset":13536,"byteLength":9024},{"buffer":0,"byteOffset":22560,"byteLength":4512},{"buffer":0,"byteOffset":27072,"byteLength":4512},{"buffer":0,"byteOffset":31584,"byteLength":9024},{"buffer":0,"byteOffset":40608,"byteLength":4416}],"buffers":[{"byteLength":45024,"uri":"data:application/octet-stream;base64,"}]}
