{"asset":{"generator":"Khronos glTF Blender I/O v1.2.75","version":"2.0"},"scene":0,"scenes":[{"name":"Scene","nodes":[0]}],"nodes":[{"mesh":0,"name":"Mesh"}],"meshes":[{"name":"SM_PlatformRailing_03","primitives":[{"indices":6,"attributes":{"POSITION":0,"NORMAL":1,"COLOR_0":2,"TEXCOORD_0":3,"TEXCOORD_1":4,"TANGENT":5},"mode":4}]}],"accessors":[{"bufferView":0,"componentType":5126,"count":164,"type":"VEC3","min":[-0.04376066207885742,-0.000012675743782892823,-0.42898323059082033],"max":[0.04342480659484863,1.276668167114258,0.05706896781921387]},{"bufferView":1,"componentType":5126,"count":164,"type":"VEC3"},{"bufferView":2,"componentType":5126,"count":164,"type":"VEC4"},{"bufferView":3,"componentType":5126,"count":164,"type":"VEC2"},{"bufferView":4,"componentType":5126,"count":164,"type":"VEC2"},{"bufferView":5,"componentType":5126,"count":164,"type":"VEC4"},{"bufferView":6,"componentType":5123,"count":441,"type":"SCALAR"}],"bufferViews":[{"buffer":0,"byteOffset":0,"byteLength":1968},{"buffer":0,"byteOffset":1968,"byteLength":1968},{"buffer":0,"byteOffset":3936,"byteLength":2624},{"buffer":0,"byteOffset":6560,"byteLength":1312},{"buffer":0,"byteOffset":7872,"byteLength":1312},{"buffer":0,"byteOffset":9184,"byteLength":2624},{"buffer":0,"byteOffset":11808,"byteLength":882}],"buffers":[{"byteLength":12690,"uri":"data:application/octet-stream;base64,"}]}
