{"asset":{"generator":"Khronos glTF Blender I/O v1.2.75","version":"2.0"},"scene":0,"scenes":[{"name":"Scene","nodes":[0]}],"nodes":[{"mesh":0,"name":"Mesh"}],"meshes":[{"name":"SM_TrashBox01","primitives":[{"indices":5,"attributes":{"POSITION":0,"NORMAL":1,"TEXCOORD_0":2,"TEXCOORD_1":3,"TANGENT":4},"mode":4}]}],"accessors":[{"bufferView":0,"componentType":5126,"count":2064,"type":"VEC3","min":[-0.023049626350402832,-1.5760742826387287e-7,-1.5025643920898437],"max":[0.7403224182128906,1.1345813751220704,0.09446083068847656]},{"bufferView":1,"componentType":5126,"count":2064,"type":"VEC3"},{"bufferView":2,"componentType":5126,"count":2064,"type":"VEC2"},{"bufferView":3,"componentType":5126,"count":2064,"type":"VEC2"},{"bufferView":4,"componentType":5126,"count":2064,"type":"VEC4"},{"bufferView":5,"componentType":5123,"count":5802,"type":"SCALAR"}],"bufferViews":[{"buffer":0,"byteOffset":0,"byteLength":24768},{"buffer":0,"byteOffset":24768,"byteLength":24768},{"buffer":0,"byteOffset":49536,"byteLength":16512},{"buffer":0,"byteOffset":66048,"byteLength":16512},{"buffer":0,"byteOffset":82560,"byteLength":33024},{"buffer":0,"byteOffset":115584,"byteLength":11604}],"buffers":[{"byteLength":127188,"uri":"data:application/octet-stream;base64,"}]}
