{"asset":{"generator":"Khronos glTF Blender I/O v1.2.75","version":"2.0"},"scene":0,"scenes":[{"name":"Scene","nodes":[0]}],"nodes":[{"mesh":0,"name":"Mesh"}],"meshes":[{"name":"SM_Building13_04","primitives":[{"indices":5,"attributes":{"POSITION":0,"NORMAL":1,"TEXCOORD_0":2,"TEXCOORD_1":3,"TANGENT":4},"mode":4}]}],"accessors":[{"bufferView":0,"componentType":5126,"count":36,"type":"VEC3","min":[-6.103515625e-7,0.000003662109375,-3],"max":[3,10.000150146484375,0.0000048828125]},{"bufferView":1,"componentType":5126,"count":36,"type":"VEC3"},{"bufferView":2,"componentType":5126,"count":36,"type":"VEC2"},{"bufferView":3,"componentType":5126,"count":36,"type":"VEC2"},{"bufferView":4,"componentType":5126,"count":36,"type":"VEC4"},{"bufferView":5,"componentType":5123,"count":60,"type":"SCALAR"}],"bufferViews":[{"buffer":0,"byteOffset":0,"byteLength":432},{"buffer":0,"byteOffset":432,"byteLength":432},{"buffer":0,"byteOffset":864,"byteLength":288},{"buffer":0,"byteOffset":1152,"byteLength":288},{"buffer":0,"byteOffset":1440,"byteLength":576},{"buffer":0,"byteOffset":2016,"byteLength":120}],"buffers":[{"byteLength":2136,"uri":"data:application/octet-stream;base64,"}]}
