{"asset":{"generator":"Khronos glTF Blender I/O v1.2.75","version":"2.0"},"scene":0,"scenes":[{"name":"Scene","nodes":[0]}],"nodes":[{"mesh":0,"name":"Mesh"}],"meshes":[{"name":"SM_PaperBox_03_04","primitives":[{"indices":6,"attributes":{"POSITION":0,"NORMAL":1,"COLOR_0":2,"TEXCOORD_0":3,"TEXCOORD_1":4,"TANGENT":5},"mode":4}]}],"accessors":[{"bufferView":0,"componentType":5126,"count":546,"type":"VEC3","min":[-0.6636241149902343,-0.07982052803039551,-0.6642809295654297],"max":[0.7004183197021484,0.907080078125,0.7544629669189453]},{"bufferView":1,"componentType":5126,"count":546,"type":"VEC3"},{"bufferView":2,"componentType":5126,"count":546,"type":"VEC4"},{"bufferView":3,"componentType":5126,"count":546,"type":"VEC2"},{"bufferView":4,"componentType":5126,"count":546,"type":"VEC2"},{"bufferView":5,"componentType":5126,"count":546,"type":"VEC4"},{"bufferView":6,"componentType":5123,"count":588,"type":"SCALAR"}],"bufferViews":[{"buffer":0,"byteOffset":0,"byteLength":6552},{"buffer":0,"byteOffset":6552,"byteLength":6552},{"buffer":0,"byteOffset":13104,"byteLength":8736},{"buffer":0,"byteOffset":21840,"byteLength":4368},{"buffer":0,"byteOffset":26208,"byteLength":4368},{"buffer":0,"byteOffset":30576,"byteLength":8736},{"buffer":0,"byteOffset":39312,"byteLength":1176}],"buffers":[{"byteLength":40488,"uri":"data:application/octet-stream;base64,"}]}
