{"asset":{"generator":"Khronos glTF Blender I/O v1.2.75","version":"2.0"},"scene":0,"scenes":[{"name":"Scene","nodes":[0]}],"nodes":[{"mesh":0,"name":"Mesh"}],"meshes":[{"name":"SM_PipeMerged02","primitives":[{"indices":5,"attributes":{"POSITION":0,"NORMAL":1,"TEXCOORD_0":2,"TEXCOORD_1":3,"TANGENT":4},"mode":4}]}],"accessors":[{"bufferView":0,"componentType":5126,"count":9968,"type":"VEC3","min":[-0.6556809997558594,-1.1511640930175782,-1.861061553955078],"max":[0.11070744514465332,2.3252655029296876,0.0829086685180664]},{"bufferView":1,"componentType":5126,"count":9968,"type":"VEC3"},{"bufferView":2,"componentType":5126,"count":9968,"type":"VEC2"},{"bufferView":3,"componentType":5126,"count":9968,"type":"VEC2"},{"bufferView":4,"componentType":5126,"count":9968,"type":"VEC4"},{"bufferView":5,"componentType":5123,"count":30708,"type":"SCALAR"}],"bufferViews":[{"buffer":0,"byteOffset":0,"byteLength":119616},{"buffer":0,"byteOffset":119616,"byteLength":119616},{"buffer":0,"byteOffset":239232,"byteLength":79744},{"buffer":0,"byteOffset":318976,"byteLength":79744},{"buffer":0,"byteOffset":398720,"byteLength":159488},{"buffer":0,"byteOffset":558208,"byteLength":61416}],"buffers":[{"byteLength":619624,"uri":"data:application/octet-stream;base64,"}]}
