{"asset":{"generator":"Khronos glTF Blender I/O v1.2.75","version":"2.0"},"scene":0,"scenes":[{"name":"Scene","nodes":[0]}],"nodes":[{"mesh":0,"name":"Mesh"}],"meshes":[{"name":"SM_Building05_02","primitives":[{"indices":5,"attributes":{"POSITION":0,"NORMAL":1,"TEXCOORD_0":2,"TEXCOORD_1":3,"TANGENT":4},"mode":4}]}],"accessors":[{"bufferView":0,"componentType":5126,"count":25,"type":"VEC3","min":[2.1457672119140626e-7,0,-0.2513022613525391],"max":[3,12,2.347958219723386e-16]},{"bufferView":1,"componentType":5126,"count":25,"type":"VEC3"},{"bufferView":2,"componentType":5126,"count":25,"type":"VEC2"},{"bufferView":3,"componentType":5126,"count":25,"type":"VEC2"},{"bufferView":4,"componentType":5126,"count":25,"type":"VEC4"},{"bufferView":5,"componentType":5123,"count":60,"type":"SCALAR"}],"bufferViews":[{"buffer":0,"byteOffset":0,"byteLength":300},{"buffer":0,"byteOffset":300,"byteLength":300},{"buffer":0,"byteOffset":600,"byteLength":200},{"buffer":0,"byteOffset":800,"byteLength":200},{"buffer":0,"byteOffset":1000,"byteLength":400},{"buffer":0,"byteOffset":1400,"byteLength":120}],"buffers":[{"byteLength":1520,"uri":"data:application/octet-stream;base64,"}]}
