{"asset":{"generator":"Khronos glTF Blender I/O v1.2.75","version":"2.0"},"scene":0,"scenes":[{"name":"Scene","nodes":[0]}],"nodes":[{"mesh":0,"name":"Mesh"}],"meshes":[{"name":"SM_ladderT01_01","primitives":[{"indices":5,"attributes":{"POSITION":0,"NORMAL":1,"TEXCOORD_0":2,"TEXCOORD_1":3,"TANGENT":4},"mode":4},{"indices":11,"attributes":{"POSITION":6,"NORMAL":7,"TEXCOORD_0":8,"TEXCOORD_1":9,"TANGENT":10},"mode":4},{"indices":17,"attributes":{"POSITION":12,"NORMAL":13,"TEXCOORD_0":14,"TEXCOORD_1":15,"TANGENT":16},"mode":4}]}],"accessors":[{"bufferView":0,"componentType":5126,"count":678,"type":"VEC3","min":[-0.6393928527832031,0.08602180480957031,-0.07646383285522461],"max":[0.639388313293457,3.153818359375,3.2702731323242187]},{"bufferView":1,"componentType":5126,"count":678,"type":"VEC3"},{"bufferView":2,"componentType":5126,"count":678,"type":"VEC2"},{"bufferView":3,"componentType":5126,"count":678,"type":"VEC2"},{"bufferView":4,"componentType":5126,"count":678,"type":"VEC4"},{"bufferView":5,"componentType":5123,"count":1182,"type":"SCALAR"},{"bufferView":6,"componentType":5126,"count":648,"type":"VEC3","min":[-0.6393928527832031,0.08602180480957031,-0.07646383285522461],"max":[0.639388313293457,3.153818359375,3.2702731323242187]},{"bufferView":7,"componentType":5126,"count":648,"type":"VEC3"},{"bufferView":8,"componentType":5126,"count":648,"type":"VEC2"},{"bufferView":9,"componentType":5126,"count":648,"type":"VEC2"},{"bufferView":10,"componentType":5126,"count":648,"type":"VEC4"},{"bufferView":11,"componentType":5123,"count":2340,"type":"SCALAR"},{"bufferView":12,"componentType":5126,"count":16,"type":"VEC3","min":[-0.6393928527832031,0.08602180480957031,-0.07646383285522461],"max":[0.639388313293457,3.153818359375,3.2702731323242187]},{"bufferView":13,"componentType":5126,"count":16,"type":"VEC3"},{"bufferView":14,"componentType":5126,"count":16,"type":"VEC2"},{"bufferView":15,"componentType":5126,"count":16,"type":"VEC2"},{"bufferView":16,"componentType":5126,"count":16,"type":"VEC4"},{"bufferView":17,"componentType":5123,"count":24,"type":"SCALAR"}],"bufferViews":[{"buffer":0,"byteOffset":0,"byteLength":8136},{"buffer":0,"byteOffset":8136,"byteLength":8136},{"buffer":0,"byteOffset":16272,"byteLength":5424},{"buffer":0,"byteOffset":21696,"byteLength":5424},{"buffer":0,"byteOffset":27120,"byteLength":10848},{"buffer":0,"byteOffset":37968,"byteLength":2364},{"buffer":1,"byteOffset":0,"byteLength":7776},{"buffer":1,"byteOffset":7776,"byteLength":7776},{"buffer":1,"byteOffset":15552,"byteLength":5184},{"buffer":1,"byteOffset":20736,"byteLength":5184},{"buffer":1,"byteOffset":25920,"byteLength":10368},{"buffer":1,"byteOffset":36288,"byteLength":4680},{"buffer":2,"byteOffset":0,"byteLength":192},{"buffer":2,"byteOffset":192,"byteLength":192},{"buffer":2,"byteOffset":384,"byteLength":128},{"buffer":2,"byteOffset":512,"byteLength":128},{"buffer":2,"byteOffset":640,"byteLength":256},{"buffer":2,"byteOffset":896,"byteLength":48}],"buffers":[{"byteLength":40332,"uri":"data:application/octet-stream;base64,"},{"byteLength":40968,"uri":"data:application/octet-stream;base64,"},{"byteLength":944,"uri":"data:application/octet-stream;base64,"}]}
