{"asset":{"generator":"Khronos glTF Blender I/O v1.2.75","version":"2.0"},"scene":0,"scenes":[{"name":"Scene","nodes":[0]}],"nodes":[{"mesh":0,"name":"Mesh"}],"meshes":[{"name":"SM_SkySphere","primitives":[{"indices":4,"attributes":{"POSITION":0,"NORMAL":1,"TEXCOORD_0":2,"TEXCOORD_1":3},"mode":4}]}],"accessors":[{"bufferView":0,"componentType":5126,"count":2208,"type":"VEC3","min":[-40.96,-40.96,-40.96],"max":[40.96,40.96,40.96]},{"bufferView":1,"componentType":5126,"count":2208,"type":"VEC3"},{"bufferView":2,"componentType":5126,"count":2208,"type":"VEC2"},{"bufferView":3,"componentType":5126,"count":2208,"type":"VEC2"},{"bufferView":4,"componentType":5123,"count":11904,"type":"SCALAR"}],"bufferViews":[{"buffer":0,"byteOffset":0,"byteLength":26496},{"buffer":0,"byteOffset":26496,"byteLength":26496},{"buffer":0,"byteOffset":52992,"byteLength":17664},{"buffer":0,"byteOffset":70656,"byteLength":17664},{"buffer":0,"byteOffset":88320,"byteLength":23808}],"buffers":[{"byteLength":112128,"uri":"data:application/octet-stream;base64,"}]}
