{"asset":{"generator":"Khronos glTF Blender I/O v1.2.75","version":"2.0"},"scene":0,"scenes":[{"name":"Scene","nodes":[0]}],"nodes":[{"mesh":0,"name":"Mesh"}],"meshes":[{"name":"SM_PaperBox_02_04","primitives":[{"indices":6,"attributes":{"POSITION":0,"NORMAL":1,"COLOR_0":2,"TEXCOORD_0":3,"TEXCOORD_1":4,"TANGENT":5},"mode":4}]}],"accessors":[{"bufferView":0,"componentType":5126,"count":385,"type":"VEC3","min":[-0.6020410919189453,-2.322866943891698e-17,-0.39712066650390626],"max":[0.6047154998779297,0.6028616333007812,0.40776657104492187]},{"bufferView":1,"componentType":5126,"count":385,"type":"VEC3"},{"bufferView":2,"componentType":5126,"count":385,"type":"VEC4"},{"bufferView":3,"componentType":5126,"count":385,"type":"VEC2"},{"bufferView":4,"componentType":5126,"count":385,"type":"VEC2"},{"bufferView":5,"componentType":5126,"count":385,"type":"VEC4"},{"bufferView":6,"componentType":5123,"count":630,"type":"SCALAR"}],"bufferViews":[{"buffer":0,"byteOffset":0,"byteLength":4620},{"buffer":0,"byteOffset":4620,"byteLength":4620},{"buffer":0,"byteOffset":9240,"byteLength":6160},{"buffer":0,"byteOffset":15400,"byteLength":3080},{"buffer":0,"byteOffset":18480,"byteLength":3080},{"buffer":0,"byteOffset":21560,"byteLength":6160},{"buffer":0,"byteOffset":27720,"byteLength":1260}],"buffers":[{"byteLength":28980,"uri":"data:application/octet-stream;base64,"}]}
