{"asset":{"generator":"Khronos glTF Blender I/O v1.2.75","version":"2.0"},"scene":0,"scenes":[{"name":"Scene","nodes":[0]}],"nodes":[{"mesh":0,"name":"Mesh"}],"meshes":[{"name":"SM_PaperBox_02_04","primitives":[{"indices":6,"attributes":{"POSITION":0,"NORMAL":1,"COLOR_0":2,"TEXCOORD_0":3,"TEXCOORD_1":4,"TANGENT":5},"mode":4}]}],"accessors":[{"bufferView":0,"componentType":5126,"count":172,"type":"VEC3","min":[-0.6020410919189453,-2.322866943891698e-17,-0.39712066650390626],"max":[0.6047154998779297,0.6028616333007812,0.40776657104492187]},{"bufferView":1,"componentType":5126,"count":172,"type":"VEC3"},{"bufferView":2,"componentType":5126,"count":172,"type":"VEC4"},{"bufferView":3,"componentType":5126,"count":172,"type":"VEC2"},{"bufferView":4,"componentType":5126,"count":172,"type":"VEC2"},{"bufferView":5,"componentType":5126,"count":172,"type":"VEC4"},{"bufferView":6,"componentType":5123,"count":219,"type":"SCALAR"}],"bufferViews":[{"buffer":0,"byteOffset":0,"byteLength":2064},{"buffer":0,"byteOffset":2064,"byteLength":2064},{"buffer":0,"byteOffset":4128,"byteLength":2752},{"buffer":0,"byteOffset":6880,"byteLength":1376},{"buffer":0,"byteOffset":8256,"byteLength":1376},{"buffer":0,"byteOffset":9632,"byteLength":2752},{"buffer":0,"byteOffset":12384,"byteLength":438}],"buffers":[{"byteLength":12822,"uri":"data:application/octet-stream;base64,"}]}
