{"asset":{"generator":"Khronos glTF Blender I/O v1.2.75","version":"2.0"},"scene":0,"scenes":[{"name":"Scene","nodes":[0]}],"nodes":[{"mesh":0,"name":"Mesh"}],"meshes":[{"name":"SM_CornerBuilding01_15","primitives":[{"indices":5,"attributes":{"POSITION":0,"NORMAL":1,"TEXCOORD_0":2,"TEXCOORD_1":3,"TANGENT":4},"mode":4}]}],"accessors":[{"bufferView":0,"componentType":5126,"count":136,"type":"VEC3","min":[-4.9999996948242185,-0.475,-5.25],"max":[0.2507916831970215,0.4750010299682617,5.912686901865527e-7]},{"bufferView":1,"componentType":5126,"count":136,"type":"VEC3"},{"bufferView":2,"componentType":5126,"count":136,"type":"VEC2"},{"bufferView":3,"componentType":5126,"count":136,"type":"VEC2"},{"bufferView":4,"componentType":5126,"count":136,"type":"VEC4"},{"bufferView":5,"componentType":5123,"count":372,"type":"SCALAR"}],"bufferViews":[{"buffer":0,"byteOffset":0,"byteLength":1632},{"buffer":0,"byteOffset":1632,"byteLength":1632},{"buffer":0,"byteOffset":3264,"byteLength":1088},{"buffer":0,"byteOffset":4352,"byteLength":1088},{"buffer":0,"byteOffset":5440,"byteLength":2176},{"buffer":0,"byteOffset":7616,"byteLength":744}],"buffers":[{"byteLength":8360,"uri":"data:application/octet-stream;base64,"}]}
