{"asset":{"generator":"Khronos glTF Blender I/O v1.2.75","version":"2.0"},"scene":0,"scenes":[{"name":"Scene","nodes":[0]}],"nodes":[{"mesh":0,"name":"Mesh"}],"meshes":[{"name":"SM_MainHero","primitives":[{"indices":5,"attributes":{"POSITION":0,"NORMAL":1,"TEXCOORD_0":2,"TEXCOORD_1":3,"TANGENT":4},"mode":4},{"indices":11,"attributes":{"POSITION":6,"NORMAL":7,"TEXCOORD_0":8,"TEXCOORD_1":9,"TANGENT":10},"mode":4}]}],"accessors":[{"bufferView":0,"componentType":5126,"count":8414,"type":"VEC3","min":[-0.481265983581543,0.002063000053167343,-0.16371799468994142],"max":[0.4826010131835938,1.818292999267578,0.14943099975585938]},{"bufferView":1,"componentType":5126,"count":8414,"type":"VEC3"},{"bufferView":2,"componentType":5126,"count":8414,"type":"VEC2"},{"bufferView":3,"componentType":5126,"count":8414,"type":"VEC2"},{"bufferView":4,"componentType":5126,"count":8414,"type":"VEC4"},{"bufferView":5,"componentType":5123,"count":40968,"type":"SCALAR"},{"bufferView":6,"componentType":5126,"count":4119,"type":"VEC3","min":[-0.481265983581543,0.002063000053167343,-0.16371799468994142],"max":[0.4826010131835938,1.818292999267578,0.14943099975585938]},{"bufferView":7,"componentType":5126,"count":4119,"type":"VEC3"},{"bufferView":8,"componentType":5126,"count":4119,"type":"VEC2"},{"bufferView":9,"componentType":5126,"count":4119,"type":"VEC2"},{"bufferView":10,"componentType":5126,"count":4119,"type":"VEC4"},{"bufferView":11,"componentType":5123,"count":24204,"type":"SCALAR"}],"bufferViews":[{"buffer":0,"byteOffset":0,"byteLength":100968},{"buffer":0,"byteOffset":100968,"byteLength":100968},{"buffer":0,"byteOffset":201936,"byteLength":67312},{"buffer":0,"byteOffset":269248,"byteLength":67312},{"buffer":0,"byteOffset":336560,"byteLength":134624},{"buffer":0,"byteOffset":471184,"byteLength":81936},{"buffer":1,"byteOffset":0,"byteLength":49428},{"buffer":1,"byteOffset":49428,"byteLength":49428},{"buffer":1,"byteOffset":98856,"byteLength":32952},{"buffer":1,"byteOffset":131808,"byteLength":32952},{"buffer":1,"byteOffset":164760,"byteLength":65904},{"buffer":1,"byteOffset":230664,"byteLength":48408}],"buffers":[{"byteLength":553120,"uri":"data:application/octet-stream;base64,"},{"byteLength":279072,"uri":"data:application/octet-stream;base64,"}]}
