{"asset":{"generator":"Khronos glTF Blender I/O v1.2.75","version":"2.0"},"scene":0,"scenes":[{"name":"Scene","nodes":[0]}],"nodes":[{"mesh":0,"name":"Mesh"}],"meshes":[{"name":"SM_FVMach_02","primitives":[{"indices":5,"attributes":{"POSITION":0,"NORMAL":1,"TEXCOORD_0":2,"TEXCOORD_1":3,"TANGENT":4},"mode":4},{"indices":11,"attributes":{"POSITION":6,"NORMAL":7,"TEXCOORD_0":8,"TEXCOORD_1":9,"TANGENT":10},"mode":4}]}],"accessors":[{"bufferView":0,"componentType":5126,"count":4299,"type":"VEC3","min":[2.288818359375e-7,0,-1],"max":[0.7000002288818359,2.2000001525878905,3.584254955057986e-7]},{"bufferView":1,"componentType":5126,"count":4299,"type":"VEC3"},{"bufferView":2,"componentType":5126,"count":4299,"type":"VEC2"},{"bufferView":3,"componentType":5126,"count":4299,"type":"VEC2"},{"bufferView":4,"componentType":5126,"count":4299,"type":"VEC4"},{"bufferView":5,"componentType":5123,"count":8436,"type":"SCALAR"},{"bufferView":6,"componentType":5126,"count":4,"type":"VEC3","min":[2.288818359375e-7,0,-1],"max":[0.7000002288818359,2.2000001525878905,3.584254955057986e-7]},{"bufferView":7,"componentType":5126,"count":4,"type":"VEC3"},{"bufferView":8,"componentType":5126,"count":4,"type":"VEC2"},{"bufferView":9,"componentType":5126,"count":4,"type":"VEC2"},{"bufferView":10,"componentType":5126,"count":4,"type":"VEC4"},{"bufferView":11,"componentType":5123,"count":6,"type":"SCALAR"}],"bufferViews":[{"buffer":0,"byteOffset":0,"byteLength":51588},{"buffer":0,"byteOffset":51588,"byteLength":51588},{"buffer":0,"byteOffset":103176,"byteLength":34392},{"buffer":0,"byteOffset":137568,"byteLength":34392},{"buffer":0,"byteOffset":171960,"byteLength":68784},{"buffer":0,"byteOffset":240744,"byteLength":16872},{"buffer":1,"byteOffset":0,"byteLength":48},{"buffer":1,"byteOffset":48,"byteLength":48},{"buffer":1,"byteOffset":96,"byteLength":32},{"buffer":1,"byteOffset":128,"byteLength":32},{"buffer":1,"byteOffset":160,"byteLength":64},{"buffer":1,"byteOffset":224,"byteLength":12}],"buffers":[{"byteLength":257616,"uri":"data:application/octet-stream;base64,"},{"byteLength":236,"uri":"data:application/octet-stream;base64,"}]}
