{"asset":{"generator":"Khronos glTF Blender I/O v1.2.75","version":"2.0"},"scene":0,"scenes":[{"name":"Scene","nodes":[0]}],"nodes":[{"mesh":0,"name":"Mesh"}],"meshes":[{"name":"SM_ladderT01_02","primitives":[{"indices":5,"attributes":{"POSITION":0,"NORMAL":1,"TEXCOORD_0":2,"TEXCOORD_1":3,"TANGENT":4},"mode":4},{"indices":11,"attributes":{"POSITION":6,"NORMAL":7,"TEXCOORD_0":8,"TEXCOORD_1":9,"TANGENT":10},"mode":4}]}],"accessors":[{"bufferView":0,"componentType":5126,"count":12,"type":"VEC3","min":[-3.0517578125e-7,-2.153744844690664e-9,-1.2737297058105468],"max":[2.5455531311035156,1.1010233306884765,1.194734522869112e-7]},{"bufferView":1,"componentType":5126,"count":12,"type":"VEC3"},{"bufferView":2,"componentType":5126,"count":12,"type":"VEC2"},{"bufferView":3,"componentType":5126,"count":12,"type":"VEC2"},{"bufferView":4,"componentType":5126,"count":12,"type":"VEC4"},{"bufferView":5,"componentType":5123,"count":18,"type":"SCALAR"},{"bufferView":6,"componentType":5126,"count":632,"type":"VEC3","min":[-3.0517578125e-7,-2.153744844690664e-9,-1.2737297058105468],"max":[2.5455531311035156,1.1010233306884765,1.194734522869112e-7]},{"bufferView":7,"componentType":5126,"count":632,"type":"VEC3"},{"bufferView":8,"componentType":5126,"count":632,"type":"VEC2"},{"bufferView":9,"componentType":5126,"count":632,"type":"VEC2"},{"bufferView":10,"componentType":5126,"count":632,"type":"VEC4"},{"bufferView":11,"componentType":5123,"count":2244,"type":"SCALAR"}],"bufferViews":[{"buffer":0,"byteOffset":0,"byteLength":144},{"buffer":0,"byteOffset":144,"byteLength":144},{"buffer":0,"byteOffset":288,"byteLength":96},{"buffer":0,"byteOffset":384,"byteLength":96},{"buffer":0,"byteOffset":480,"byteLength":192},{"buffer":0,"byteOffset":672,"byteLength":36},{"buffer":1,"byteOffset":0,"byteLength":7584},{"buffer":1,"byteOffset":7584,"byteLength":7584},{"buffer":1,"byteOffset":15168,"byteLength":5056},{"buffer":1,"byteOffset":20224,"byteLength":5056},{"buffer":1,"byteOffset":25280,"byteLength":10112},{"buffer":1,"byteOffset":35392,"byteLength":4488}],"buffers":[{"byteLength":708,"uri":"data:application/octet-stream;base64,"},{"byteLength":39880,"uri":"data:application/octet-stream;base64,"}]}
