{"asset":{"generator":"Khronos glTF Blender I/O v1.2.75","version":"2.0"},"scene":0,"scenes":[{"name":"Scene","nodes":[0]}],"nodes":[{"mesh":0,"name":"Mesh"}],"meshes":[{"name":"SM_Pipe_round_corner4","primitives":[{"indices":6,"attributes":{"POSITION":0,"NORMAL":1,"COLOR_0":2,"TEXCOORD_0":3,"TEXCOORD_1":4,"TANGENT":5},"mode":4}]}],"accessors":[{"bufferView":0,"componentType":5126,"count":700,"type":"VEC3","min":[-0.21008625030517578,-0.29465755462646487,-2.288818359375e-7],"max":[0.21008642196655272,0.21008626937866212,0.7923628234863281]},{"bufferView":1,"componentType":5126,"count":700,"type":"VEC3"},{"bufferView":2,"componentType":5126,"count":700,"type":"VEC4"},{"bufferView":3,"componentType":5126,"count":700,"type":"VEC2"},{"bufferView":4,"componentType":5126,"count":700,"type":"VEC2"},{"bufferView":5,"componentType":5126,"count":700,"type":"VEC4"},{"bufferView":6,"componentType":5123,"count":3168,"type":"SCALAR"}],"bufferViews":[{"buffer":0,"byteOffset":0,"byteLength":8400},{"buffer":0,"byteOffset":8400,"byteLength":8400},{"buffer":0,"byteOffset":16800,"byteLength":11200},{"buffer":0,"byteOffset":28000,"byteLength":5600},{"buffer":0,"byteOffset":33600,"byteLength":5600},{"buffer":0,"byteOffset":39200,"byteLength":11200},{"buffer":0,"byteOffset":50400,"byteLength":6336}],"buffers":[{"byteLength":56736,"uri":"data:application/octet-stream;base64,"}]}
