{"asset":{"generator":"Khronos glTF Blender I/O v1.2.75","version":"2.0"},"scene":0,"scenes":[{"name":"Scene","nodes":[0]}],"nodes":[{"mesh":0,"name":"Mesh"}],"meshes":[{"name":"SM_Banner_02","primitives":[{"indices":5,"attributes":{"POSITION":0,"NORMAL":1,"TEXCOORD_0":2,"TEXCOORD_1":3,"TANGENT":4},"mode":4}]}],"accessors":[{"bufferView":0,"componentType":5126,"count":76,"type":"VEC3","min":[0,-1,-5],"max":[5.1,0,0.1]},{"bufferView":1,"componentType":5126,"count":76,"type":"VEC3"},{"bufferView":2,"componentType":5126,"count":76,"type":"VEC2"},{"bufferView":3,"componentType":5126,"count":76,"type":"VEC2"},{"bufferView":4,"componentType":5126,"count":76,"type":"VEC4"},{"bufferView":5,"componentType":5123,"count":174,"type":"SCALAR"}],"bufferViews":[{"buffer":0,"byteOffset":0,"byteLength":912},{"buffer":0,"byteOffset":912,"byteLength":912},{"buffer":0,"byteOffset":1824,"byteLength":608},{"buffer":0,"byteOffset":2432,"byteLength":608},{"buffer":0,"byteOffset":3040,"byteLength":1216},{"buffer":0,"byteOffset":4256,"byteLength":348}],"buffers":[{"byteLength":4604,"uri":"data:application/octet-stream;base64,"}]}
