{"asset":{"generator":"Khronos glTF Blender I/O v1.2.75","version":"2.0"},"scene":0,"scenes":[{"name":"Scene","nodes":[0]}],"nodes":[{"mesh":0,"name":"Mesh"}],"meshes":[{"name":"SM_Pipe_round_long","primitives":[{"indices":6,"attributes":{"POSITION":0,"NORMAL":1,"COLOR_0":2,"TEXCOORD_0":3,"TEXCOORD_1":4,"TANGENT":5},"mode":4}]}],"accessors":[{"bufferView":0,"componentType":5126,"count":96,"type":"VEC3","min":[-0.21782659530639648,-0.2302090072631836,-0.003136141300201416],"max":[0.23081995010375977,0.21412298202514649,2.0047846984863282]},{"bufferView":1,"componentType":5126,"count":96,"type":"VEC3"},{"bufferView":2,"componentType":5126,"count":96,"type":"VEC4"},{"bufferView":3,"componentType":5126,"count":96,"type":"VEC2"},{"bufferView":4,"componentType":5126,"count":96,"type":"VEC2"},{"bufferView":5,"componentType":5126,"count":96,"type":"VEC4"},{"bufferView":6,"componentType":5123,"count":258,"type":"SCALAR"}],"bufferViews":[{"buffer":0,"byteOffset":0,"byteLength":1152},{"buffer":0,"byteOffset":1152,"byteLength":1152},{"buffer":0,"byteOffset":2304,"byteLength":1536},{"buffer":0,"byteOffset":3840,"byteLength":768},{"buffer":0,"byteOffset":4608,"byteLength":768},{"buffer":0,"byteOffset":5376,"byteLength":1536},{"buffer":0,"byteOffset":6912,"byteLength":516}],"buffers":[{"byteLength":7428,"uri":"data:application/octet-stream;base64,"}]}
