{"asset":{"generator":"Khronos glTF Blender I/O v1.2.75","version":"2.0"},"scene":0,"scenes":[{"name":"Scene","nodes":[0]}],"nodes":[{"mesh":0,"name":"Mesh"}],"meshes":[{"name":"logo","primitives":[{"indices":6,"attributes":{"POSITION":0,"NORMAL":1,"COLOR_0":2,"TEXCOORD_0":3,"TEXCOORD_1":4,"TANGENT":5},"mode":4}]}],"accessors":[{"bufferView":0,"componentType":5126,"count":1861,"type":"VEC3","min":[-0.35358978271484376,-0.2316007423400879,0.0625123929977417],"max":[0.3742234420776367,0.710132827758789,0.1262196922302246]},{"bufferView":1,"componentType":5126,"count":1861,"type":"VEC3"},{"bufferView":2,"componentType":5126,"count":1861,"type":"VEC4"},{"bufferView":3,"componentType":5126,"count":1861,"type":"VEC2"},{"bufferView":4,"componentType":5126,"count":1861,"type":"VEC2"},{"bufferView":5,"componentType":5126,"count":1861,"type":"VEC4"},{"bufferView":6,"componentType":5123,"count":2943,"type":"SCALAR"}],"bufferViews":[{"buffer":0,"byteOffset":0,"byteLength":22332},{"buffer":0,"byteOffset":22332,"byteLength":22332},{"buffer":0,"byteOffset":44664,"byteLength":29776},{"buffer":0,"byteOffset":74440,"byteLength":14888},{"buffer":0,"byteOffset":89328,"byteLength":14888},{"buffer":0,"byteOffset":104216,"byteLength":29776},{"buffer":0,"byteOffset":133992,"byteLength":5886}],"buffers":[{"byteLength":139878,"uri":"data:application/octet-stream;base64,"}]}
