{"asset":{"generator":"Khronos glTF Blender I/O v1.2.75","version":"2.0"},"scene":0,"scenes":[{"name":"Scene","nodes":[0]}],"nodes":[{"mesh":0,"name":"Mesh"}],"meshes":[{"name":"GirlClub02","primitives":[{"indices":5,"attributes":{"POSITION":0,"NORMAL":1,"TEXCOORD_0":2,"TEXCOORD_1":3,"TANGENT":4},"mode":4}]}],"accessors":[{"bufferView":0,"componentType":5126,"count":2044,"type":"VEC3","min":[-1.2716407012939452,-1.3596365356445312,-0.03876641273498535],"max":[0.00234539195895195,1.3575669860839843,0.04021261215209961]},{"bufferView":1,"componentType":5126,"count":2044,"type":"VEC3"},{"bufferView":2,"componentType":5126,"count":2044,"type":"VEC2"},{"bufferView":3,"componentType":5126,"count":2044,"type":"VEC2"},{"bufferView":4,"componentType":5126,"count":2044,"type":"VEC4"},{"bufferView":5,"componentType":5123,"count":4482,"type":"SCALAR"}],"bufferViews":[{"buffer":0,"byteOffset":0,"byteLength":24528},{"buffer":0,"byteOffset":24528,"byteLength":24528},{"buffer":0,"byteOffset":49056,"byteLength":16352},{"buffer":0,"byteOffset":65408,"byteLength":16352},{"buffer":0,"byteOffset":81760,"byteLength":32704},{"buffer":0,"byteOffset":114464,"byteLength":8964}],"buffers":[{"byteLength":123428,"uri":"data:application/octet-stream;base64,"}]}
