{"asset":{"generator":"Khronos glTF Blender I/O v1.2.75","version":"2.0"},"scene":0,"scenes":[{"name":"Scene","nodes":[0]}],"nodes":[{"mesh":0,"name":"Mesh"}],"meshes":[{"name":"GirlClub02","primitives":[{"indices":5,"attributes":{"POSITION":0,"NORMAL":1,"TEXCOORD_0":2,"TEXCOORD_1":3,"TANGENT":4},"mode":4}]}],"accessors":[{"bufferView":0,"componentType":5126,"count":891,"type":"VEC3","min":[-1.2716407012939452,-1.3596365356445312,-0.03876641273498535],"max":[0.00234539195895195,1.3575669860839843,0.04021261215209961]},{"bufferView":1,"componentType":5126,"count":891,"type":"VEC3"},{"bufferView":2,"componentType":5126,"count":891,"type":"VEC2"},{"bufferView":3,"componentType":5126,"count":891,"type":"VEC2"},{"bufferView":4,"componentType":5126,"count":891,"type":"VEC4"},{"bufferView":5,"componentType":5123,"count":1566,"type":"SCALAR"}],"bufferViews":[{"buffer":0,"byteOffset":0,"byteLength":10692},{"buffer":0,"byteOffset":10692,"byteLength":10692},{"buffer":0,"byteOffset":21384,"byteLength":7128},{"buffer":0,"byteOffset":28512,"byteLength":7128},{"buffer":0,"byteOffset":35640,"byteLength":14256},{"buffer":0,"byteOffset":49896,"byteLength":3132}],"buffers":[{"byteLength":53028,"uri":"data:application/octet-stream;base64,"}]}
