{"asset":{"generator":"Khronos glTF Blender I/O v1.2.75","version":"2.0"},"scene":0,"scenes":[{"name":"Scene","nodes":[0]}],"nodes":[{"mesh":0,"name":"Mesh"}],"meshes":[{"name":"GirlClub02","primitives":[{"indices":5,"attributes":{"POSITION":0,"NORMAL":1,"TEXCOORD_0":2,"TEXCOORD_1":3,"TANGENT":4},"mode":4}]}],"accessors":[{"bufferView":0,"componentType":5126,"count":671,"type":"VEC3","min":[-1.2716407012939452,-1.3596365356445312,-0.03876641273498535],"max":[0.00234539195895195,1.3575669860839843,0.04021261215209961]},{"bufferView":1,"componentType":5126,"count":671,"type":"VEC3"},{"bufferView":2,"componentType":5126,"count":671,"type":"VEC2"},{"bufferView":3,"componentType":5126,"count":671,"type":"VEC2"},{"bufferView":4,"componentType":5126,"count":671,"type":"VEC4"},{"bufferView":5,"componentType":5123,"count":1122,"type":"SCALAR"}],"bufferViews":[{"buffer":0,"byteOffset":0,"byteLength":8052},{"buffer":0,"byteOffset":8052,"byteLength":8052},{"buffer":0,"byteOffset":16104,"byteLength":5368},{"buffer":0,"byteOffset":21472,"byteLength":5368},{"buffer":0,"byteOffset":26840,"byteLength":10736},{"buffer":0,"byteOffset":37576,"byteLength":2244}],"buffers":[{"byteLength":39820,"uri":"data:application/octet-stream;base64,"}]}
