{"asset":{"generator":"Khronos glTF Blender I/O v1.2.75","version":"2.0"},"scene":0,"scenes":[{"name":"Scene","nodes":[0]}],"nodes":[{"mesh":0,"name":"Mesh"}],"meshes":[{"name":"SM_Pipe_square_cross_transition","primitives":[{"indices":6,"attributes":{"POSITION":0,"NORMAL":1,"COLOR_0":2,"TEXCOORD_0":3,"TEXCOORD_1":4,"TANGENT":5},"mode":4}]}],"accessors":[{"bufferView":0,"componentType":5126,"count":784,"type":"VEC3","min":[-0.279981689453125,-0.12000004768371582,-0.2799817085266113],"max":[0.2799817657470703,0.12000026702880859,0.27998172760009765]},{"bufferView":1,"componentType":5126,"count":784,"type":"VEC3"},{"bufferView":2,"componentType":5126,"count":784,"type":"VEC4"},{"bufferView":3,"componentType":5126,"count":784,"type":"VEC2"},{"bufferView":4,"componentType":5126,"count":784,"type":"VEC2"},{"bufferView":5,"componentType":5126,"count":784,"type":"VEC4"},{"bufferView":6,"componentType":5123,"count":1668,"type":"SCALAR"}],"bufferViews":[{"buffer":0,"byteOffset":0,"byteLength":9408},{"buffer":0,"byteOffset":9408,"byteLength":9408},{"buffer":0,"byteOffset":18816,"byteLength":12544},{"buffer":0,"byteOffset":31360,"byteLength":6272},{"buffer":0,"byteOffset":37632,"byteLength":6272},{"buffer":0,"byteOffset":43904,"byteLength":12544},{"buffer":0,"byteOffset":56448,"byteLength":3336}],"buffers":[{"byteLength":59784,"uri":"data:application/octet-stream;base64,"}]}
