{"asset":{"generator":"Khronos glTF Blender I/O v1.2.75","version":"2.0"},"scene":0,"scenes":[{"name":"Scene","nodes":[0]}],"nodes":[{"mesh":0,"name":"Mesh"}],"meshes":[{"name":"SM_Stair_02","primitives":[{"indices":6,"attributes":{"POSITION":0,"NORMAL":1,"COLOR_0":2,"TEXCOORD_0":3,"TEXCOORD_1":4,"TANGENT":5},"mode":4}]}],"accessors":[{"bufferView":0,"componentType":5126,"count":4005,"type":"VEC3","min":[-2.1154403686523438,-3.0517578125e-7,-4.144271240234375],"max":[0.00027374267578125,1.4980668640136718,0.09180295944213868]},{"bufferView":1,"componentType":5126,"count":4005,"type":"VEC3"},{"bufferView":2,"componentType":5126,"count":4005,"type":"VEC4"},{"bufferView":3,"componentType":5126,"count":4005,"type":"VEC2"},{"bufferView":4,"componentType":5126,"count":4005,"type":"VEC2"},{"bufferView":5,"componentType":5126,"count":4005,"type":"VEC4"},{"bufferView":6,"componentType":5123,"count":10584,"type":"SCALAR"}],"bufferViews":[{"buffer":0,"byteOffset":0,"byteLength":48060},{"buffer":0,"byteOffset":48060,"byteLength":48060},{"buffer":0,"byteOffset":96120,"byteLength":64080},{"buffer":0,"byteOffset":160200,"byteLength":32040},{"buffer":0,"byteOffset":192240,"byteLength":32040},{"buffer":0,"byteOffset":224280,"byteLength":64080},{"buffer":0,"byteOffset":288360,"byteLength":21168}],"buffers":[{"byteLength":309528,"uri":"data:application/octet-stream;base64,"}]}
