{"asset":{"generator":"Khronos glTF Blender I/O v1.2.75","version":"2.0"},"scene":0,"scenes":[{"name":"Scene","nodes":[0]}],"nodes":[{"mesh":0,"name":"Mesh"}],"meshes":[{"name":"SM_Building06_04","primitives":[{"indices":5,"attributes":{"POSITION":0,"NORMAL":1,"TEXCOORD_0":2,"TEXCOORD_1":3,"TANGENT":4},"mode":4}]}],"accessors":[{"bufferView":0,"componentType":5126,"count":12,"type":"VEC3","min":[0,-6.866455078125e-7,-6.198883056640625e-7],"max":[0.16712890625,12.000001220703124,0.28803464889526365]},{"bufferView":1,"componentType":5126,"count":12,"type":"VEC3"},{"bufferView":2,"componentType":5126,"count":12,"type":"VEC2"},{"bufferView":3,"componentType":5126,"count":12,"type":"VEC2"},{"bufferView":4,"componentType":5126,"count":12,"type":"VEC4"},{"bufferView":5,"componentType":5123,"count":18,"type":"SCALAR"}],"bufferViews":[{"buffer":0,"byteOffset":0,"byteLength":144},{"buffer":0,"byteOffset":144,"byteLength":144},{"buffer":0,"byteOffset":288,"byteLength":96},{"buffer":0,"byteOffset":384,"byteLength":96},{"buffer":0,"byteOffset":480,"byteLength":192},{"buffer":0,"byteOffset":672,"byteLength":36}],"buffers":[{"byteLength":708,"uri":"data:application/octet-stream;base64,"}]}
