{"asset":{"generator":"Khronos glTF Blender I/O v1.2.75","version":"2.0"},"scene":0,"scenes":[{"name":"Scene","nodes":[0]}],"nodes":[{"mesh":0,"name":"Mesh"}],"meshes":[{"name":"SM_HangingCable01","primitives":[{"indices":5,"attributes":{"POSITION":0,"NORMAL":1,"TEXCOORD_0":2,"TEXCOORD_1":3,"TANGENT":4},"mode":4}]}],"accessors":[{"bufferView":0,"componentType":5126,"count":775,"type":"VEC3","min":[-0.017052001953125,-3.8081671142578126,-0.10727001190185546],"max":[10.824068603515625,0.055737457275390624,0.10694193840026855]},{"bufferView":1,"componentType":5126,"count":775,"type":"VEC3"},{"bufferView":2,"componentType":5126,"count":775,"type":"VEC2"},{"bufferView":3,"componentType":5126,"count":775,"type":"VEC2"},{"bufferView":4,"componentType":5126,"count":775,"type":"VEC4"},{"bufferView":5,"componentType":5123,"count":3738,"type":"SCALAR"}],"bufferViews":[{"buffer":0,"byteOffset":0,"byteLength":9300},{"buffer":0,"byteOffset":9300,"byteLength":9300},{"buffer":0,"byteOffset":18600,"byteLength":6200},{"buffer":0,"byteOffset":24800,"byteLength":6200},{"buffer":0,"byteOffset":31000,"byteLength":12400},{"buffer":0,"byteOffset":43400,"byteLength":7476}],"buffers":[{"byteLength":50876,"uri":"data:application/octet-stream;base64,"}]}
