{"asset":{"generator":"Khronos glTF Blender I/O v1.2.75","version":"2.0"},"scene":0,"scenes":[{"name":"Scene","nodes":[0]}],"nodes":[{"mesh":0,"name":"Mesh"}],"meshes":[{"name":"SM_HangingCable01","primitives":[{"indices":5,"attributes":{"POSITION":0,"NORMAL":1,"TEXCOORD_0":2,"TEXCOORD_1":3,"TANGENT":4},"mode":4}]}],"accessors":[{"bufferView":0,"componentType":5126,"count":1499,"type":"VEC3","min":[-0.017052001953125,-3.8081671142578126,-0.10727001190185546],"max":[10.824068603515625,0.055737457275390624,0.10694193840026855]},{"bufferView":1,"componentType":5126,"count":1499,"type":"VEC3"},{"bufferView":2,"componentType":5126,"count":1499,"type":"VEC2"},{"bufferView":3,"componentType":5126,"count":1499,"type":"VEC2"},{"bufferView":4,"componentType":5126,"count":1499,"type":"VEC4"},{"bufferView":5,"componentType":5123,"count":7476,"type":"SCALAR"}],"bufferViews":[{"buffer":0,"byteOffset":0,"byteLength":17988},{"buffer":0,"byteOffset":17988,"byteLength":17988},{"buffer":0,"byteOffset":35976,"byteLength":11992},{"buffer":0,"byteOffset":47968,"byteLength":11992},{"buffer":0,"byteOffset":59960,"byteLength":23984},{"buffer":0,"byteOffset":83944,"byteLength":14952}],"buffers":[{"byteLength":98896,"uri":"data:application/octet-stream;base64,"}]}
