{"asset":{"generator":"Khronos glTF Blender I/O v1.2.75","version":"2.0"},"scene":0,"scenes":[{"name":"Scene","nodes":[0]}],"nodes":[{"mesh":0,"name":"Mesh"}],"meshes":[{"name":"SM_PillarWithBreckets","primitives":[{"indices":6,"attributes":{"POSITION":0,"NORMAL":1,"COLOR_0":2,"TEXCOORD_0":3,"TEXCOORD_1":4,"TANGENT":5},"mode":4}]}],"accessors":[{"bufferView":0,"componentType":5126,"count":500,"type":"VEC3","min":[-0.2597697830200195,-4.57763671875e-7,-0.25985424041748045],"max":[0.2597697448730469,4,0.25985424041748045]},{"bufferView":1,"componentType":5126,"count":500,"type":"VEC3"},{"bufferView":2,"componentType":5126,"count":500,"type":"VEC4"},{"bufferView":3,"componentType":5126,"count":500,"type":"VEC2"},{"bufferView":4,"componentType":5126,"count":500,"type":"VEC2"},{"bufferView":5,"componentType":5126,"count":500,"type":"VEC4"},{"bufferView":6,"componentType":5123,"count":858,"type":"SCALAR"}],"bufferViews":[{"buffer":0,"byteOffset":0,"byteLength":6000},{"buffer":0,"byteOffset":6000,"byteLength":6000},{"buffer":0,"byteOffset":12000,"byteLength":8000},{"buffer":0,"byteOffset":20000,"byteLength":4000},{"buffer":0,"byteOffset":24000,"byteLength":4000},{"buffer":0,"byteOffset":28000,"byteLength":8000},{"buffer":0,"byteOffset":36000,"byteLength":1716}],"buffers":[{"byteLength":37716,"uri":"data:application/octet-stream;base64,"}]}
