{"asset":{"generator":"Khronos glTF Blender I/O v1.2.75","version":"2.0"},"scene":0,"scenes":[{"name":"Scene","nodes":[0]}],"nodes":[{"mesh":0,"name":"Mesh"}],"meshes":[{"name":"SM_PipeMerged01","primitives":[{"indices":5,"attributes":{"POSITION":0,"NORMAL":1,"TEXCOORD_0":2,"TEXCOORD_1":3,"TANGENT":4},"mode":4}]}],"accessors":[{"bufferView":0,"componentType":5126,"count":813,"type":"VEC3","min":[-0.22681673049926757,-1.0086956787109376,-6.327425537109375],"max":[0.18561294555664062,3.17106201171875,0.18258533477783204]},{"bufferView":1,"componentType":5126,"count":813,"type":"VEC3"},{"bufferView":2,"componentType":5126,"count":813,"type":"VEC2"},{"bufferView":3,"componentType":5126,"count":813,"type":"VEC2"},{"bufferView":4,"componentType":5126,"count":813,"type":"VEC4"},{"bufferView":5,"componentType":5123,"count":1617,"type":"SCALAR"}],"bufferViews":[{"buffer":0,"byteOffset":0,"byteLength":9756},{"buffer":0,"byteOffset":9756,"byteLength":9756},{"buffer":0,"byteOffset":19512,"byteLength":6504},{"buffer":0,"byteOffset":26016,"byteLength":6504},{"buffer":0,"byteOffset":32520,"byteLength":13008},{"buffer":0,"byteOffset":45528,"byteLength":3234}],"buffers":[{"byteLength":48762,"uri":"data:application/octet-stream;base64,"}]}
