{"asset":{"generator":"Khronos glTF Blender I/O v1.2.75","version":"2.0"},"scene":0,"scenes":[{"name":"Scene","nodes":[0]}],"nodes":[{"mesh":0,"name":"Mesh"}],"meshes":[{"name":"SM_PipeGroup17","primitives":[{"indices":5,"attributes":{"POSITION":0,"NORMAL":1,"TEXCOORD_0":2,"TEXCOORD_1":3,"TANGENT":4},"mode":4}]}],"accessors":[{"bufferView":0,"componentType":5126,"count":6162,"type":"VEC3","min":[-8.281404418945312,-1.6727870178222657,-0.4669277954101563],"max":[0.5273288726806641,15.096199951171876,18.213211669921876]},{"bufferView":1,"componentType":5126,"count":6162,"type":"VEC3"},{"bufferView":2,"componentType":5126,"count":6162,"type":"VEC2"},{"bufferView":3,"componentType":5126,"count":6162,"type":"VEC2"},{"bufferView":4,"componentType":5126,"count":6162,"type":"VEC4"},{"bufferView":5,"componentType":5123,"count":19872,"type":"SCALAR"}],"bufferViews":[{"buffer":0,"byteOffset":0,"byteLength":73944},{"buffer":0,"byteOffset":73944,"byteLength":73944},{"buffer":0,"byteOffset":147888,"byteLength":49296},{"buffer":0,"byteOffset":197184,"byteLength":49296},{"buffer":0,"byteOffset":246480,"byteLength":98592},{"buffer":0,"byteOffset":345072,"byteLength":39744}],"buffers":[{"byteLength":384816,"uri":"data:application/octet-stream;base64,"}]}
