{"asset":{"generator":"Khronos glTF Blender I/O v1.2.75","version":"2.0"},"scene":0,"scenes":[{"name":"Scene","nodes":[0]}],"nodes":[{"mesh":0,"name":"Mesh"}],"meshes":[{"name":"SM_PipeGroup17","primitives":[{"indices":5,"attributes":{"POSITION":0,"NORMAL":1,"TEXCOORD_0":2,"TEXCOORD_1":3,"TANGENT":4},"mode":4}]}],"accessors":[{"bufferView":0,"componentType":5126,"count":3146,"type":"VEC3","min":[-8.281404418945312,-1.6727870178222657,-0.4669277954101563],"max":[0.5273288726806641,15.096199951171876,18.213211669921876]},{"bufferView":1,"componentType":5126,"count":3146,"type":"VEC3"},{"bufferView":2,"componentType":5126,"count":3146,"type":"VEC2"},{"bufferView":3,"componentType":5126,"count":3146,"type":"VEC2"},{"bufferView":4,"componentType":5126,"count":3146,"type":"VEC4"},{"bufferView":5,"componentType":5123,"count":8943,"type":"SCALAR"}],"bufferViews":[{"buffer":0,"byteOffset":0,"byteLength":37752},{"buffer":0,"byteOffset":37752,"byteLength":37752},{"buffer":0,"byteOffset":75504,"byteLength":25168},{"buffer":0,"byteOffset":100672,"byteLength":25168},{"buffer":0,"byteOffset":125840,"byteLength":50336},{"buffer":0,"byteOffset":176176,"byteLength":17886}],"buffers":[{"byteLength":194062,"uri":"data:application/octet-stream;base64,"}]}
