{"asset":{"generator":"Khronos glTF Blender I/O v1.2.75","version":"2.0"},"scene":0,"scenes":[{"name":"Scene","nodes":[0]}],"nodes":[{"mesh":0,"name":"Mesh"}],"meshes":[{"name":"SM_PipeGroup17","primitives":[{"indices":5,"attributes":{"POSITION":0,"NORMAL":1,"TEXCOORD_0":2,"TEXCOORD_1":3,"TANGENT":4},"mode":4}]}],"accessors":[{"bufferView":0,"componentType":5126,"count":1066,"type":"VEC3","min":[-8.281404418945312,-1.6727870178222657,-0.4669277954101563],"max":[0.5273288726806641,15.096199951171876,18.213211669921876]},{"bufferView":1,"componentType":5126,"count":1066,"type":"VEC3"},{"bufferView":2,"componentType":5126,"count":1066,"type":"VEC2"},{"bufferView":3,"componentType":5126,"count":1066,"type":"VEC2"},{"bufferView":4,"componentType":5126,"count":1066,"type":"VEC4"},{"bufferView":5,"componentType":5123,"count":1989,"type":"SCALAR"}],"bufferViews":[{"buffer":0,"byteOffset":0,"byteLength":12792},{"buffer":0,"byteOffset":12792,"byteLength":12792},{"buffer":0,"byteOffset":25584,"byteLength":8528},{"buffer":0,"byteOffset":34112,"byteLength":8528},{"buffer":0,"byteOffset":42640,"byteLength":17056},{"buffer":0,"byteOffset":59696,"byteLength":3978}],"buffers":[{"byteLength":63674,"uri":"data:application/octet-stream;base64,"}]}
