{"asset":{"generator":"Khronos glTF Blender I/O v1.2.75","version":"2.0"},"scene":0,"scenes":[{"name":"Scene","nodes":[0]}],"nodes":[{"mesh":0,"name":"Mesh"}],"meshes":[{"name":"SM_Building13Merged01","primitives":[{"indices":5,"attributes":{"POSITION":0,"NORMAL":1,"TEXCOORD_0":2,"TEXCOORD_1":3,"TANGENT":4},"mode":4},{"indices":11,"attributes":{"POSITION":6,"NORMAL":7,"TEXCOORD_0":8,"TEXCOORD_1":9,"TANGENT":10},"mode":4}]}],"accessors":[{"bufferView":0,"componentType":5126,"count":1032,"type":"VEC3","min":[-1.76443115234375,0,-29.99998779296875],"max":[3.061567687988281,40.400009765625,0.00002655029296875]},{"bufferView":1,"componentType":5126,"count":1032,"type":"VEC3"},{"bufferView":2,"componentType":5126,"count":1032,"type":"VEC2"},{"bufferView":3,"componentType":5126,"count":1032,"type":"VEC2"},{"bufferView":4,"componentType":5126,"count":1032,"type":"VEC4"},{"bufferView":5,"componentType":5123,"count":1728,"type":"SCALAR"},{"bufferView":6,"componentType":5126,"count":27,"type":"VEC3","min":[-1.76443115234375,0,-29.99998779296875],"max":[3.061567687988281,40.400009765625,0.00002655029296875]},{"bufferView":7,"componentType":5126,"count":27,"type":"VEC3"},{"bufferView":8,"componentType":5126,"count":27,"type":"VEC2"},{"bufferView":9,"componentType":5126,"count":27,"type":"VEC2"},{"bufferView":10,"componentType":5126,"count":27,"type":"VEC4"},{"bufferView":11,"componentType":5123,"count":33,"type":"SCALAR"}],"bufferViews":[{"buffer":0,"byteOffset":0,"byteLength":12384},{"buffer":0,"byteOffset":12384,"byteLength":12384},{"buffer":0,"byteOffset":24768,"byteLength":8256},{"buffer":0,"byteOffset":33024,"byteLength":8256},{"buffer":0,"byteOffset":41280,"byteLength":16512},{"buffer":0,"byteOffset":57792,"byteLength":3456},{"buffer":1,"byteOffset":0,"byteLength":324},{"buffer":1,"byteOffset":324,"byteLength":324},{"buffer":1,"byteOffset":648,"byteLength":216},{"buffer":1,"byteOffset":864,"byteLength":216},{"buffer":1,"byteOffset":1080,"byteLength":432},{"buffer":1,"byteOffset":1512,"byteLength":66}],"buffers":[{"byteLength":61248,"uri":"data:application/octet-stream;base64,"},{"byteLength":1578,"uri":"data:application/octet-stream;base64,"}]}
