{"asset":{"generator":"Khronos glTF Blender I/O v1.2.75","version":"2.0"},"scene":0,"scenes":[{"name":"Scene","nodes":[0]}],"nodes":[{"mesh":0,"name":"Mesh"}],"meshes":[{"name":"SM_Building13Merged01","primitives":[{"indices":5,"attributes":{"POSITION":0,"NORMAL":1,"TEXCOORD_0":2,"TEXCOORD_1":3,"TANGENT":4},"mode":4},{"indices":11,"attributes":{"POSITION":6,"NORMAL":7,"TEXCOORD_0":8,"TEXCOORD_1":9,"TANGENT":10},"mode":4}]}],"accessors":[{"bufferView":0,"componentType":5126,"count":1872,"type":"VEC3","min":[-1.76443115234375,0,-29.99998779296875],"max":[3.061567687988281,40.400009765625,0.00002655029296875]},{"bufferView":1,"componentType":5126,"count":1872,"type":"VEC3"},{"bufferView":2,"componentType":5126,"count":1872,"type":"VEC2"},{"bufferView":3,"componentType":5126,"count":1872,"type":"VEC2"},{"bufferView":4,"componentType":5126,"count":1872,"type":"VEC4"},{"bufferView":5,"componentType":5123,"count":3600,"type":"SCALAR"},{"bufferView":6,"componentType":5126,"count":3144,"type":"VEC3","min":[-1.76443115234375,0,-29.99998779296875],"max":[3.061567687988281,40.400009765625,0.00002655029296875]},{"bufferView":7,"componentType":5126,"count":3144,"type":"VEC3"},{"bufferView":8,"componentType":5126,"count":3144,"type":"VEC2"},{"bufferView":9,"componentType":5126,"count":3144,"type":"VEC2"},{"bufferView":10,"componentType":5126,"count":3144,"type":"VEC4"},{"bufferView":11,"componentType":5123,"count":8136,"type":"SCALAR"}],"bufferViews":[{"buffer":0,"byteOffset":0,"byteLength":22464},{"buffer":0,"byteOffset":22464,"byteLength":22464},{"buffer":0,"byteOffset":44928,"byteLength":14976},{"buffer":0,"byteOffset":59904,"byteLength":14976},{"buffer":0,"byteOffset":74880,"byteLength":29952},{"buffer":0,"byteOffset":104832,"byteLength":7200},{"buffer":1,"byteOffset":0,"byteLength":37728},{"buffer":1,"byteOffset":37728,"byteLength":37728},{"buffer":1,"byteOffset":75456,"byteLength":25152},{"buffer":1,"byteOffset":100608,"byteLength":25152},{"buffer":1,"byteOffset":125760,"byteLength":50304},{"buffer":1,"byteOffset":176064,"byteLength":16272}],"buffers":[{"byteLength":112032,"uri":"data:application/octet-stream;base64,"},{"byteLength":192336,"uri":"data:application/octet-stream;base64,"}]}
