{"asset":{"generator":"Khronos glTF Blender I/O v1.2.75","version":"2.0"},"scene":0,"scenes":[{"name":"Scene","nodes":[0]}],"nodes":[{"mesh":0,"name":"Mesh"}],"meshes":[{"name":"SM_Building13Merged01","primitives":[{"indices":5,"attributes":{"POSITION":0,"NORMAL":1,"TEXCOORD_0":2,"TEXCOORD_1":3,"TANGENT":4},"mode":4},{"indices":11,"attributes":{"POSITION":6,"NORMAL":7,"TEXCOORD_0":8,"TEXCOORD_1":9,"TANGENT":10},"mode":4}]}],"accessors":[{"bufferView":0,"componentType":5126,"count":1824,"type":"VEC3","min":[-1.76443115234375,0,-29.99998779296875],"max":[3.061567687988281,40.400009765625,0.00002655029296875]},{"bufferView":1,"componentType":5126,"count":1824,"type":"VEC3"},{"bufferView":2,"componentType":5126,"count":1824,"type":"VEC2"},{"bufferView":3,"componentType":5126,"count":1824,"type":"VEC2"},{"bufferView":4,"componentType":5126,"count":1824,"type":"VEC4"},{"bufferView":5,"componentType":5123,"count":3456,"type":"SCALAR"},{"bufferView":6,"componentType":5126,"count":1320,"type":"VEC3","min":[-1.76443115234375,0,-29.99998779296875],"max":[3.061567687988281,40.400009765625,0.00002655029296875]},{"bufferView":7,"componentType":5126,"count":1320,"type":"VEC3"},{"bufferView":8,"componentType":5126,"count":1320,"type":"VEC2"},{"bufferView":9,"componentType":5126,"count":1320,"type":"VEC2"},{"bufferView":10,"componentType":5126,"count":1320,"type":"VEC4"},{"bufferView":11,"componentType":5123,"count":2412,"type":"SCALAR"}],"bufferViews":[{"buffer":0,"byteOffset":0,"byteLength":21888},{"buffer":0,"byteOffset":21888,"byteLength":21888},{"buffer":0,"byteOffset":43776,"byteLength":14592},{"buffer":0,"byteOffset":58368,"byteLength":14592},{"buffer":0,"byteOffset":72960,"byteLength":29184},{"buffer":0,"byteOffset":102144,"byteLength":6912},{"buffer":1,"byteOffset":0,"byteLength":15840},{"buffer":1,"byteOffset":15840,"byteLength":15840},{"buffer":1,"byteOffset":31680,"byteLength":10560},{"buffer":1,"byteOffset":42240,"byteLength":10560},{"buffer":1,"byteOffset":52800,"byteLength":21120},{"buffer":1,"byteOffset":73920,"byteLength":4824}],"buffers":[{"byteLength":109056,"uri":"data:application/octet-stream;base64,"},{"byteLength":78744,"uri":"data:application/octet-stream;base64,"}]}
