{"asset":{"generator":"Khronos glTF Blender I/O v1.2.75","version":"2.0"},"scene":0,"scenes":[{"name":"Scene","nodes":[0]}],"nodes":[{"mesh":0,"name":"Mesh"}],"meshes":[{"name":"SM_Steps_03","primitives":[{"indices":5,"attributes":{"POSITION":0,"NORMAL":1,"TEXCOORD_0":2,"TEXCOORD_1":3,"TANGENT":4},"mode":4}]}],"accessors":[{"bufferView":0,"componentType":5126,"count":522,"type":"VEC3","min":[-0.2010174560546875,-0.2500002861022949,-2.580821838378906],"max":[1.57864013671875,0.8297122192382812,2.0425206457730382e-7]},{"bufferView":1,"componentType":5126,"count":522,"type":"VEC3"},{"bufferView":2,"componentType":5126,"count":522,"type":"VEC2"},{"bufferView":3,"componentType":5126,"count":522,"type":"VEC2"},{"bufferView":4,"componentType":5126,"count":522,"type":"VEC4"},{"bufferView":5,"componentType":5123,"count":2040,"type":"SCALAR"}],"bufferViews":[{"buffer":0,"byteOffset":0,"byteLength":6264},{"buffer":0,"byteOffset":6264,"byteLength":6264},{"buffer":0,"byteOffset":12528,"byteLength":4176},{"buffer":0,"byteOffset":16704,"byteLength":4176},{"buffer":0,"byteOffset":20880,"byteLength":8352},{"buffer":0,"byteOffset":29232,"byteLength":4080}],"buffers":[{"byteLength":33312,"uri":"data:application/octet-stream;base64,"}]}
