{"asset":{"generator":"Khronos glTF Blender I/O v1.2.75","version":"2.0"},"scene":0,"scenes":[{"name":"Scene","nodes":[0]}],"nodes":[{"mesh":0,"name":"Mesh"}],"meshes":[{"name":"SM_Pipe_round_grate","primitives":[{"indices":6,"attributes":{"POSITION":0,"NORMAL":1,"COLOR_0":2,"TEXCOORD_0":3,"TEXCOORD_1":4,"TANGENT":5},"mode":4}]}],"accessors":[{"bufferView":0,"componentType":5126,"count":175,"type":"VEC3","min":[-0.20267097473144532,-0.03975728750228882,-0.20615121841430664],"max":[0.2053789520263672,0.0004536817967891693,0.21337526321411132]},{"bufferView":1,"componentType":5126,"count":175,"type":"VEC3"},{"bufferView":2,"componentType":5126,"count":175,"type":"VEC4"},{"bufferView":3,"componentType":5126,"count":175,"type":"VEC2"},{"bufferView":4,"componentType":5126,"count":175,"type":"VEC2"},{"bufferView":5,"componentType":5126,"count":175,"type":"VEC4"},{"bufferView":6,"componentType":5123,"count":504,"type":"SCALAR"}],"bufferViews":[{"buffer":0,"byteOffset":0,"byteLength":2100},{"buffer":0,"byteOffset":2100,"byteLength":2100},{"buffer":0,"byteOffset":4200,"byteLength":2800},{"buffer":0,"byteOffset":7000,"byteLength":1400},{"buffer":0,"byteOffset":8400,"byteLength":1400},{"buffer":0,"byteOffset":9800,"byteLength":2800},{"buffer":0,"byteOffset":12600,"byteLength":1008}],"buffers":[{"byteLength":13608,"uri":"data:application/octet-stream;base64,"}]}
