{"asset":{"generator":"Khronos glTF Blender I/O v1.2.75","version":"2.0"},"scene":0,"scenes":[{"name":"Scene","nodes":[0]}],"nodes":[{"mesh":0,"name":"Mesh"}],"meshes":[{"name":"SM_Building11_01","primitives":[{"indices":5,"attributes":{"POSITION":0,"NORMAL":1,"TEXCOORD_0":2,"TEXCOORD_1":3,"TANGENT":4},"mode":4},{"indices":11,"attributes":{"POSITION":6,"NORMAL":7,"TEXCOORD_0":8,"TEXCOORD_1":9,"TANGENT":10},"mode":4},{"indices":17,"attributes":{"POSITION":12,"NORMAL":13,"TEXCOORD_0":14,"TEXCOORD_1":15,"TANGENT":16},"mode":4}]}],"accessors":[{"bufferView":0,"componentType":5126,"count":746,"type":"VEC3","min":[-0.0024515581130981445,0.000003662109375,-6.56437255859375],"max":[4.4065789794921875,76.62865234375,2.551200103759766]},{"bufferView":1,"componentType":5126,"count":746,"type":"VEC3"},{"bufferView":2,"componentType":5126,"count":746,"type":"VEC2"},{"bufferView":3,"componentType":5126,"count":746,"type":"VEC2"},{"bufferView":4,"componentType":5126,"count":746,"type":"VEC4"},{"bufferView":5,"componentType":5123,"count":1692,"type":"SCALAR"},{"bufferView":6,"componentType":5126,"count":64,"type":"VEC3","min":[-0.0024515581130981445,0.000003662109375,-6.56437255859375],"max":[4.4065789794921875,76.62865234375,2.551200103759766]},{"bufferView":7,"componentType":5126,"count":64,"type":"VEC3"},{"bufferView":8,"componentType":5126,"count":64,"type":"VEC2"},{"bufferView":9,"componentType":5126,"count":64,"type":"VEC2"},{"bufferView":10,"componentType":5126,"count":64,"type":"VEC4"},{"bufferView":11,"componentType":5123,"count":96,"type":"SCALAR"},{"bufferView":12,"componentType":5126,"count":484,"type":"VEC3","min":[-0.0024515581130981445,0.000003662109375,-6.56437255859375],"max":[4.4065789794921875,76.62865234375,2.551200103759766]},{"bufferView":13,"componentType":5126,"count":484,"type":"VEC3"},{"bufferView":14,"componentType":5126,"count":484,"type":"VEC2"},{"bufferView":15,"componentType":5126,"count":484,"type":"VEC2"},{"bufferView":16,"componentType":5126,"count":484,"type":"VEC4"},{"bufferView":17,"componentType":5123,"count":858,"type":"SCALAR"}],"bufferViews":[{"buffer":0,"byteOffset":0,"byteLength":8952},{"buffer":0,"byteOffset":8952,"byteLength":8952},{"buffer":0,"byteOffset":17904,"byteLength":5968},{"buffer":0,"byteOffset":23872,"byteLength":5968},{"buffer":0,"byteOffset":29840,"byteLength":11936},{"buffer":0,"byteOffset":41776,"byteLength":3384},{"buffer":1,"byteOffset":0,"byteLength":768},{"buffer":1,"byteOffset":768,"byteLength":768},{"buffer":1,"byteOffset":1536,"byteLength":512},{"buffer":1,"byteOffset":2048,"byteLength":512},{"buffer":1,"byteOffset":2560,"byteLength":1024},{"buffer":1,"byteOffset":3584,"byteLength":192},{"buffer":2,"byteOffset":0,"byteLength":5808},{"buffer":2,"byteOffset":5808,"byteLength":5808},{"buffer":2,"byteOffset":11616,"byteLength":3872},{"buffer":2,"byteOffset":15488,"byteLength":3872},{"buffer":2,"byteOffset":19360,"byteLength":7744},{"buffer":2,"byteOffset":27104,"byteLength":1716}],"buffers":[{"byteLength":45160,"uri":"data:application/octet-stream;base64,"},{"byteLength":3776,"uri":"data:application/octet-stream;base64,"},{"byteLength":28820,"uri":"data:application/octet-stream;base64,"}]}
