{"asset":{"generator":"Khronos glTF Blender I/O v1.2.75","version":"2.0"},"scene":0,"scenes":[{"name":"Scene","nodes":[0]}],"nodes":[{"mesh":0,"name":"Mesh"}],"meshes":[{"name":"Sphere","primitives":[{"indices":3,"attributes":{"POSITION":0,"NORMAL":1,"TEXCOORD_0":2},"mode":4}]}],"accessors":[{"bufferView":0,"componentType":5126,"count":559,"type":"VEC3","min":[-0.5,-0.5,-0.49999996185302736],"max":[0.5,0.5,0.5000000381469727]},{"bufferView":1,"componentType":5126,"count":559,"type":"VEC3"},{"bufferView":2,"componentType":5126,"count":559,"type":"VEC2"},{"bufferView":3,"componentType":5123,"count":2880,"type":"SCALAR"}],"bufferViews":[{"buffer":0,"byteOffset":0,"byteLength":6708},{"buffer":0,"byteOffset":6708,"byteLength":6708},{"buffer":0,"byteOffset":13416,"byteLength":4472},{"buffer":0,"byteOffset":17888,"byteLength":5760}],"buffers":[{"byteLength":23648,"uri":"data:application/octet-stream;base64,"}]}
