{"asset":{"generator":"Khronos glTF Blender I/O v1.2.75","version":"2.0"},"scene":0,"scenes":[{"name":"Scene","nodes":[0]}],"nodes":[{"mesh":0,"name":"Mesh"}],"meshes":[{"name":"SM_BuyText","primitives":[{"indices":5,"attributes":{"POSITION":0,"NORMAL":1,"TEXCOORD_0":2,"TEXCOORD_1":3,"TANGENT":4},"mode":4}]}],"accessors":[{"bufferView":0,"componentType":5126,"count":921,"type":"VEC3","min":[-3.879727783203125,-0.0003829672187566757,-1.3010237121582031],"max":[3.8797286987304687,0.71843994140625,1.2994654846191407]},{"bufferView":1,"componentType":5126,"count":921,"type":"VEC3"},{"bufferView":2,"componentType":5126,"count":921,"type":"VEC2"},{"bufferView":3,"componentType":5126,"count":921,"type":"VEC2"},{"bufferView":4,"componentType":5126,"count":921,"type":"VEC4"},{"bufferView":5,"componentType":5123,"count":2493,"type":"SCALAR"}],"bufferViews":[{"buffer":0,"byteOffset":0,"byteLength":11052},{"buffer":0,"byteOffset":11052,"byteLength":11052},{"buffer":0,"byteOffset":22104,"byteLength":7368},{"buffer":0,"byteOffset":29472,"byteLength":7368},{"buffer":0,"byteOffset":36840,"byteLength":14736},{"buffer":0,"byteOffset":51576,"byteLength":4986}],"buffers":[{"byteLength":56562,"uri":"data:application/octet-stream;base64,"}]}
