{"asset":{"generator":"Khronos glTF Blender I/O v1.2.75","version":"2.0"},"scene":0,"scenes":[{"name":"Scene","nodes":[0]}],"nodes":[{"mesh":0,"name":"Mesh"}],"meshes":[{"name":"SM_BuyText","primitives":[{"indices":5,"attributes":{"POSITION":0,"NORMAL":1,"TEXCOORD_0":2,"TEXCOORD_1":3,"TANGENT":4},"mode":4}]}],"accessors":[{"bufferView":0,"componentType":5126,"count":506,"type":"VEC3","min":[-3.879727783203125,-0.0003829672187566757,-1.3010237121582031],"max":[3.8797286987304687,0.71843994140625,1.2994654846191407]},{"bufferView":1,"componentType":5126,"count":506,"type":"VEC3"},{"bufferView":2,"componentType":5126,"count":506,"type":"VEC2"},{"bufferView":3,"componentType":5126,"count":506,"type":"VEC2"},{"bufferView":4,"componentType":5126,"count":506,"type":"VEC4"},{"bufferView":5,"componentType":5123,"count":1248,"type":"SCALAR"}],"bufferViews":[{"buffer":0,"byteOffset":0,"byteLength":6072},{"buffer":0,"byteOffset":6072,"byteLength":6072},{"buffer":0,"byteOffset":12144,"byteLength":4048},{"buffer":0,"byteOffset":16192,"byteLength":4048},{"buffer":0,"byteOffset":20240,"byteLength":8096},{"buffer":0,"byteOffset":28336,"byteLength":2496}],"buffers":[{"byteLength":30832,"uri":"data:application/octet-stream;base64,"}]}
