{"asset":{"generator":"Khronos glTF Blender I/O v1.2.75","version":"2.0"},"scene":0,"scenes":[{"name":"Scene","nodes":[0]}],"nodes":[{"mesh":0,"name":"Mesh"}],"meshes":[{"name":"SM_Building10_01","primitives":[{"indices":5,"attributes":{"POSITION":0,"NORMAL":1,"TEXCOORD_0":2,"TEXCOORD_1":3,"TANGENT":4},"mode":4}]}],"accessors":[{"bufferView":0,"componentType":5126,"count":312,"type":"VEC3","min":[-6.103515625e-7,-0.04499700546264648,-0.46214054107666014],"max":[10.023230590820312,10.011265258789063,-5.7220458984375e-8]},{"bufferView":1,"componentType":5126,"count":312,"type":"VEC3"},{"bufferView":2,"componentType":5126,"count":312,"type":"VEC2"},{"bufferView":3,"componentType":5126,"count":312,"type":"VEC2"},{"bufferView":4,"componentType":5126,"count":312,"type":"VEC4"},{"bufferView":5,"componentType":5123,"count":462,"type":"SCALAR"}],"bufferViews":[{"buffer":0,"byteOffset":0,"byteLength":3744},{"buffer":0,"byteOffset":3744,"byteLength":3744},{"buffer":0,"byteOffset":7488,"byteLength":2496},{"buffer":0,"byteOffset":9984,"byteLength":2496},{"buffer":0,"byteOffset":12480,"byteLength":4992},{"buffer":0,"byteOffset":17472,"byteLength":924}],"buffers":[{"byteLength":18396,"uri":"data:application/octet-stream;base64,"}]}
