{"asset":{"generator":"Khronos glTF Blender I/O v1.2.75","version":"2.0"},"scene":0,"scenes":[{"name":"Scene","nodes":[0]}],"nodes":[{"mesh":0,"name":"Mesh"}],"meshes":[{"name":"SM_Building10_01","primitives":[{"indices":5,"attributes":{"POSITION":0,"NORMAL":1,"TEXCOORD_0":2,"TEXCOORD_1":3,"TANGENT":4},"mode":4}]}],"accessors":[{"bufferView":0,"componentType":5126,"count":548,"type":"VEC3","min":[-6.103515625e-7,-0.04499700546264648,-0.46214054107666014],"max":[10.023230590820312,10.011265258789063,-5.7220458984375e-8]},{"bufferView":1,"componentType":5126,"count":548,"type":"VEC3"},{"bufferView":2,"componentType":5126,"count":548,"type":"VEC2"},{"bufferView":3,"componentType":5126,"count":548,"type":"VEC2"},{"bufferView":4,"componentType":5126,"count":548,"type":"VEC4"},{"bufferView":5,"componentType":5123,"count":924,"type":"SCALAR"}],"bufferViews":[{"buffer":0,"byteOffset":0,"byteLength":6576},{"buffer":0,"byteOffset":6576,"byteLength":6576},{"buffer":0,"byteOffset":13152,"byteLength":4384},{"buffer":0,"byteOffset":17536,"byteLength":4384},{"buffer":0,"byteOffset":21920,"byteLength":8768},{"buffer":0,"byteOffset":30688,"byteLength":1848}],"buffers":[{"byteLength":32536,"uri":"data:application/octet-stream;base64,"}]}
