{"asset":{"generator":"Khronos glTF Blender I/O v1.2.75","version":"2.0"},"scene":0,"scenes":[{"name":"Scene","nodes":[0]}],"nodes":[{"mesh":0,"name":"Mesh"}],"meshes":[{"name":"SM_Building02_07","primitives":[{"indices":5,"attributes":{"POSITION":0,"NORMAL":1,"TEXCOORD_0":2,"TEXCOORD_1":3,"TANGENT":4},"mode":4},{"indices":11,"attributes":{"POSITION":6,"NORMAL":7,"TEXCOORD_0":8,"TEXCOORD_1":9,"TANGENT":10},"mode":4},{"indices":17,"attributes":{"POSITION":12,"NORMAL":13,"TEXCOORD_0":14,"TEXCOORD_1":15,"TANGENT":16},"mode":4}]}],"accessors":[{"bufferView":0,"componentType":5126,"count":100,"type":"VEC3","min":[-5.461441650390625,-0.0000029474496841430666,-0.2147097396850586],"max":[-0.00000213623046875,4.000000610351562,0.2317533302307129]},{"bufferView":1,"componentType":5126,"count":100,"type":"VEC3"},{"bufferView":2,"componentType":5126,"count":100,"type":"VEC2"},{"bufferView":3,"componentType":5126,"count":100,"type":"VEC2"},{"bufferView":4,"componentType":5126,"count":100,"type":"VEC4"},{"bufferView":5,"componentType":5123,"count":204,"type":"SCALAR"},{"bufferView":6,"componentType":5126,"count":294,"type":"VEC3","min":[-5.461441650390625,-0.0000029474496841430666,-0.2147097396850586],"max":[-0.00000213623046875,4.000000610351562,0.2317533302307129]},{"bufferView":7,"componentType":5126,"count":294,"type":"VEC3"},{"bufferView":8,"componentType":5126,"count":294,"type":"VEC2"},{"bufferView":9,"componentType":5126,"count":294,"type":"VEC2"},{"bufferView":10,"componentType":5126,"count":294,"type":"VEC4"},{"bufferView":11,"componentType":5123,"count":432,"type":"SCALAR"},{"bufferView":12,"componentType":5126,"count":60,"type":"VEC3","min":[-5.461441650390625,-0.0000029474496841430666,-0.2147097396850586],"max":[-0.00000213623046875,4.000000610351562,0.2317533302307129]},{"bufferView":13,"componentType":5126,"count":60,"type":"VEC3"},{"bufferView":14,"componentType":5126,"count":60,"type":"VEC2"},{"bufferView":15,"componentType":5126,"count":60,"type":"VEC2"},{"bufferView":16,"componentType":5126,"count":60,"type":"VEC4"},{"bufferView":17,"componentType":5123,"count":96,"type":"SCALAR"}],"bufferViews":[{"buffer":0,"byteOffset":0,"byteLength":1200},{"buffer":0,"byteOffset":1200,"byteLength":1200},{"buffer":0,"byteOffset":2400,"byteLength":800},{"buffer":0,"byteOffset":3200,"byteLength":800},{"buffer":0,"byteOffset":4000,"byteLength":1600},{"buffer":0,"byteOffset":5600,"byteLength":408},{"buffer":1,"byteOffset":0,"byteLength":3528},{"buffer":1,"byteOffset":3528,"byteLength":3528},{"buffer":1,"byteOffset":7056,"byteLength":2352},{"buffer":1,"byteOffset":9408,"byteLength":2352},{"buffer":1,"byteOffset":11760,"byteLength":4704},{"buffer":1,"byteOffset":16464,"byteLength":864},{"buffer":2,"byteOffset":0,"byteLength":720},{"buffer":2,"byteOffset":720,"byteLength":720},{"buffer":2,"byteOffset":1440,"byteLength":480},{"buffer":2,"byteOffset":1920,"byteLength":480},{"buffer":2,"byteOffset":2400,"byteLength":960},{"buffer":2,"byteOffset":3360,"byteLength":192}],"buffers":[{"byteLength":6008,"uri":"data:application/octet-stream;base64,"},{"byteLength":17328,"uri":"data:application/octet-stream;base64,"},{"byteLength":3552,"uri":"data:application/octet-stream;base64,"}]}
