{"asset":{"generator":"Khronos glTF Blender I/O v1.2.75","version":"2.0"},"scene":0,"scenes":[{"name":"Scene","nodes":[0]}],"nodes":[{"mesh":0,"name":"Mesh"}],"meshes":[{"name":"SM_GasStat","primitives":[{"indices":5,"attributes":{"POSITION":0,"NORMAL":1,"TEXCOORD_0":2,"TEXCOORD_1":3,"TANGENT":4},"mode":4}]}],"accessors":[{"bufferView":0,"componentType":5126,"count":482,"type":"VEC3","min":[-0.24159555435180663,-0.003936377167701721,-0.5652899169921874],"max":[0.24166664123535156,2.5000001525878908,0.7870442199707032]},{"bufferView":1,"componentType":5126,"count":482,"type":"VEC3"},{"bufferView":2,"componentType":5126,"count":482,"type":"VEC2"},{"bufferView":3,"componentType":5126,"count":482,"type":"VEC2"},{"bufferView":4,"componentType":5126,"count":482,"type":"VEC4"},{"bufferView":5,"componentType":5123,"count":939,"type":"SCALAR"}],"bufferViews":[{"buffer":0,"byteOffset":0,"byteLength":5784},{"buffer":0,"byteOffset":5784,"byteLength":5784},{"buffer":0,"byteOffset":11568,"byteLength":3856},{"buffer":0,"byteOffset":15424,"byteLength":3856},{"buffer":0,"byteOffset":19280,"byteLength":7712},{"buffer":0,"byteOffset":26992,"byteLength":1878}],"buffers":[{"byteLength":28870,"uri":"data:application/octet-stream;base64,"}]}
