{"asset":{"generator":"Khronos glTF Blender I/O v1.2.75","version":"2.0"},"scene":0,"scenes":[{"name":"Scene","nodes":[0]}],"nodes":[{"mesh":0,"name":"Mesh"}],"meshes":[{"name":"SM_Steps_05","primitives":[{"indices":5,"attributes":{"POSITION":0,"NORMAL":1,"TEXCOORD_0":2,"TEXCOORD_1":3,"TANGENT":4},"mode":4}]}],"accessors":[{"bufferView":0,"componentType":5126,"count":669,"type":"VEC3","min":[-0.031295166015625,0.0031247279047966004,-2.575],"max":[1.7,3.1789013671875,0.09166812896728516]},{"bufferView":1,"componentType":5126,"count":669,"type":"VEC3"},{"bufferView":2,"componentType":5126,"count":669,"type":"VEC2"},{"bufferView":3,"componentType":5126,"count":669,"type":"VEC2"},{"bufferView":4,"componentType":5126,"count":669,"type":"VEC4"},{"bufferView":5,"componentType":5123,"count":1548,"type":"SCALAR"}],"bufferViews":[{"buffer":0,"byteOffset":0,"byteLength":8028},{"buffer":0,"byteOffset":8028,"byteLength":8028},{"buffer":0,"byteOffset":16056,"byteLength":5352},{"buffer":0,"byteOffset":21408,"byteLength":5352},{"buffer":0,"byteOffset":26760,"byteLength":10704},{"buffer":0,"byteOffset":37464,"byteLength":3096}],"buffers":[{"byteLength":40560,"uri":"data:application/octet-stream;base64,"}]}
