{"asset":{"generator":"Khronos glTF Blender I/O v1.2.75","version":"2.0"},"scene":0,"scenes":[{"name":"Scene","nodes":[0]}],"nodes":[{"mesh":0,"name":"Mesh"}],"meshes":[{"name":"SM_Stair_Painted_03","primitives":[{"indices":6,"attributes":{"POSITION":0,"NORMAL":1,"COLOR_0":2,"TEXCOORD_0":3,"TEXCOORD_1":4,"TANGENT":5},"mode":4}]}],"accessors":[{"bufferView":0,"componentType":5126,"count":944,"type":"VEC3","min":[-5.261175537109375,-9.343313999825804e-24,-2.0532069396972656],"max":[0.019716057777404785,4.579451904296875,0.14452016830444336]},{"bufferView":1,"componentType":5126,"count":944,"type":"VEC3"},{"bufferView":2,"componentType":5126,"count":944,"type":"VEC4"},{"bufferView":3,"componentType":5126,"count":944,"type":"VEC2"},{"bufferView":4,"componentType":5126,"count":944,"type":"VEC2"},{"bufferView":5,"componentType":5126,"count":944,"type":"VEC4"},{"bufferView":6,"componentType":5123,"count":1875,"type":"SCALAR"}],"bufferViews":[{"buffer":0,"byteOffset":0,"byteLength":11328},{"buffer":0,"byteOffset":11328,"byteLength":11328},{"buffer":0,"byteOffset":22656,"byteLength":15104},{"buffer":0,"byteOffset":37760,"byteLength":7552},{"buffer":0,"byteOffset":45312,"byteLength":7552},{"buffer":0,"byteOffset":52864,"byteLength":15104},{"buffer":0,"byteOffset":67968,"byteLength":3750}],"buffers":[{"byteLength":71718,"uri":"data:application/octet-stream;base64,"}]}
