{"asset":{"generator":"Khronos glTF Blender I/O v1.2.75","version":"2.0"},"scene":0,"scenes":[{"name":"Scene","nodes":[0]}],"nodes":[{"mesh":0,"name":"Mesh"}],"meshes":[{"name":"GirlClub01","primitives":[{"indices":5,"attributes":{"POSITION":0,"NORMAL":1,"TEXCOORD_0":2,"TEXCOORD_1":3,"TANGENT":4},"mode":4}]}],"accessors":[{"bufferView":0,"componentType":5126,"count":946,"type":"VEC3","min":[-1.4265876770019532,-1.3786860656738282,-0.023171894550323487],"max":[0.03518648386001587,1.3783573913574219,0.026018710136413575]},{"bufferView":1,"componentType":5126,"count":946,"type":"VEC3"},{"bufferView":2,"componentType":5126,"count":946,"type":"VEC2"},{"bufferView":3,"componentType":5126,"count":946,"type":"VEC2"},{"bufferView":4,"componentType":5126,"count":946,"type":"VEC4"},{"bufferView":5,"componentType":5123,"count":2166,"type":"SCALAR"}],"bufferViews":[{"buffer":0,"byteOffset":0,"byteLength":11352},{"buffer":0,"byteOffset":11352,"byteLength":11352},{"buffer":0,"byteOffset":22704,"byteLength":7568},{"buffer":0,"byteOffset":30272,"byteLength":7568},{"buffer":0,"byteOffset":37840,"byteLength":15136},{"buffer":0,"byteOffset":52976,"byteLength":4332}],"buffers":[{"byteLength":57308,"uri":"data:application/octet-stream;base64,"}]}
