{"asset":{"generator":"Khronos glTF Blender I/O v1.2.75","version":"2.0"},"scene":0,"scenes":[{"name":"Scene","nodes":[0]}],"nodes":[{"mesh":0,"name":"Mesh"}],"meshes":[{"name":"SM_CornerBuilding01_09","primitives":[{"indices":5,"attributes":{"POSITION":0,"NORMAL":1,"TEXCOORD_0":2,"TEXCOORD_1":3,"TANGENT":4},"mode":4}]}],"accessors":[{"bufferView":0,"componentType":5126,"count":84,"type":"VEC3","min":[-0.337508544921875,2.755453742779579e-16,-5.000000610351562],"max":[0.17090019226074218,5,-4.57763671875e-7]},{"bufferView":1,"componentType":5126,"count":84,"type":"VEC3"},{"bufferView":2,"componentType":5126,"count":84,"type":"VEC2"},{"bufferView":3,"componentType":5126,"count":84,"type":"VEC2"},{"bufferView":4,"componentType":5126,"count":84,"type":"VEC4"},{"bufferView":5,"componentType":5123,"count":150,"type":"SCALAR"}],"bufferViews":[{"buffer":0,"byteOffset":0,"byteLength":1008},{"buffer":0,"byteOffset":1008,"byteLength":1008},{"buffer":0,"byteOffset":2016,"byteLength":672},{"buffer":0,"byteOffset":2688,"byteLength":672},{"buffer":0,"byteOffset":3360,"byteLength":1344},{"buffer":0,"byteOffset":4704,"byteLength":300}],"buffers":[{"byteLength":5004,"uri":"data:application/octet-stream;base64,"}]}
