{"asset":{"generator":"Khronos glTF Blender I/O v1.2.75","version":"2.0"},"scene":0,"scenes":[{"name":"Scene","nodes":[0]}],"nodes":[{"mesh":0,"name":"Mesh"}],"meshes":[{"name":"SM_Building08_03","primitives":[{"indices":5,"attributes":{"POSITION":0,"NORMAL":1,"TEXCOORD_0":2,"TEXCOORD_1":3,"TANGENT":4},"mode":4}]}],"accessors":[{"bufferView":0,"componentType":5126,"count":3,"type":"VEC3","min":[-3.0517578125e-7,-3.0517578125e-7,-3.0517578125e-7],"max":[8,8,-3.0517578125e-7]},{"bufferView":1,"componentType":5126,"count":3,"type":"VEC3"},{"bufferView":2,"componentType":5126,"count":3,"type":"VEC2"},{"bufferView":3,"componentType":5126,"count":3,"type":"VEC2"},{"bufferView":4,"componentType":5126,"count":3,"type":"VEC4"},{"bufferView":5,"componentType":5123,"count":3,"type":"SCALAR"}],"bufferViews":[{"buffer":0,"byteOffset":0,"byteLength":36},{"buffer":0,"byteOffset":36,"byteLength":36},{"buffer":0,"byteOffset":72,"byteLength":24},{"buffer":0,"byteOffset":96,"byteLength":24},{"buffer":0,"byteOffset":120,"byteLength":48},{"buffer":0,"byteOffset":168,"byteLength":6}],"buffers":[{"byteLength":174,"uri":"data:application/octet-stream;base64,"}]}
