{"asset":{"generator":"Khronos glTF Blender I/O v1.2.75","version":"2.0"},"scene":0,"scenes":[{"name":"Scene","nodes":[0]}],"nodes":[{"mesh":0,"name":"Mesh"}],"meshes":[{"name":"SM_NeonSig03Merged02","primitives":[{"indices":5,"attributes":{"POSITION":0,"NORMAL":1,"TEXCOORD_0":2,"TEXCOORD_1":3,"TANGENT":4},"mode":4}]}],"accessors":[{"bufferView":0,"componentType":5126,"count":892,"type":"VEC3","min":[-1.9098565673828125,-18.00001220703125,-0.000001220703125],"max":[0.0837969970703125,1.99364013671875,0.921201171875]},{"bufferView":1,"componentType":5126,"count":892,"type":"VEC3"},{"bufferView":2,"componentType":5126,"count":892,"type":"VEC2"},{"bufferView":3,"componentType":5126,"count":892,"type":"VEC2"},{"bufferView":4,"componentType":5126,"count":892,"type":"VEC4"},{"bufferView":5,"componentType":5123,"count":2328,"type":"SCALAR"}],"bufferViews":[{"buffer":0,"byteOffset":0,"byteLength":10704},{"buffer":0,"byteOffset":10704,"byteLength":10704},{"buffer":0,"byteOffset":21408,"byteLength":7136},{"buffer":0,"byteOffset":28544,"byteLength":7136},{"buffer":0,"byteOffset":35680,"byteLength":14272},{"buffer":0,"byteOffset":49952,"byteLength":4656}],"buffers":[{"byteLength":54608,"uri":"data:application/octet-stream;base64,"}]}
