{"asset":{"generator":"Khronos glTF Blender I/O v1.2.75","version":"2.0"},"scene":0,"scenes":[{"name":"Scene","nodes":[0]}],"nodes":[{"mesh":0,"name":"Mesh"}],"meshes":[{"name":"SM_Building05_06","primitives":[{"indices":5,"attributes":{"POSITION":0,"NORMAL":1,"TEXCOORD_0":2,"TEXCOORD_1":3,"TANGENT":4},"mode":4}]}],"accessors":[{"bufferView":0,"componentType":5126,"count":89,"type":"VEC3","min":[-5.705933227539062,-0.00020025622099637986,-0.04775021553039551],"max":[0.29624832153320313,1.3992330932617187,5.820090942382812]},{"bufferView":1,"componentType":5126,"count":89,"type":"VEC3"},{"bufferView":2,"componentType":5126,"count":89,"type":"VEC2"},{"bufferView":3,"componentType":5126,"count":89,"type":"VEC2"},{"bufferView":4,"componentType":5126,"count":89,"type":"VEC4"},{"bufferView":5,"componentType":5123,"count":120,"type":"SCALAR"}],"bufferViews":[{"buffer":0,"byteOffset":0,"byteLength":1068},{"buffer":0,"byteOffset":1068,"byteLength":1068},{"buffer":0,"byteOffset":2136,"byteLength":712},{"buffer":0,"byteOffset":2848,"byteLength":712},{"buffer":0,"byteOffset":3560,"byteLength":1424},{"buffer":0,"byteOffset":4984,"byteLength":240}],"buffers":[{"byteLength":5224,"uri":"data:application/octet-stream;base64,"}]}
