{"asset":{"generator":"Khronos glTF Blender I/O v1.2.75","version":"2.0"},"scene":0,"scenes":[{"name":"Scene","nodes":[0]}],"nodes":[{"mesh":0,"name":"Mesh"}],"meshes":[{"name":"SM_Pipe03","primitives":[{"indices":5,"attributes":{"POSITION":0,"NORMAL":1,"TEXCOORD_0":2,"TEXCOORD_1":3,"TANGENT":4},"mode":4}]}],"accessors":[{"bufferView":0,"componentType":5126,"count":1650,"type":"VEC3","min":[-2.906596984863281,-0.027251644134521483,-0.4416323089599609],"max":[0.5273261260986328,15.974791259765626,0.4266910934448242]},{"bufferView":1,"componentType":5126,"count":1650,"type":"VEC3"},{"bufferView":2,"componentType":5126,"count":1650,"type":"VEC2"},{"bufferView":3,"componentType":5126,"count":1650,"type":"VEC2"},{"bufferView":4,"componentType":5126,"count":1650,"type":"VEC4"},{"bufferView":5,"componentType":5123,"count":5472,"type":"SCALAR"}],"bufferViews":[{"buffer":0,"byteOffset":0,"byteLength":19800},{"buffer":0,"byteOffset":19800,"byteLength":19800},{"buffer":0,"byteOffset":39600,"byteLength":13200},{"buffer":0,"byteOffset":52800,"byteLength":13200},{"buffer":0,"byteOffset":66000,"byteLength":26400},{"buffer":0,"byteOffset":92400,"byteLength":10944}],"buffers":[{"byteLength":103344,"uri":"data:application/octet-stream;base64,"}]}
