{"asset":{"generator":"Khronos glTF Blender I/O v1.2.75","version":"2.0"},"scene":0,"scenes":[{"name":"Scene","nodes":[0]}],"nodes":[{"mesh":0,"name":"Mesh"}],"meshes":[{"name":"SM_Pipe03","primitives":[{"indices":5,"attributes":{"POSITION":0,"NORMAL":1,"TEXCOORD_0":2,"TEXCOORD_1":3,"TANGENT":4},"mode":4}]}],"accessors":[{"bufferView":0,"componentType":5126,"count":902,"type":"VEC3","min":[-2.906596984863281,-0.027251644134521483,-0.4416323089599609],"max":[0.5273261260986328,15.974791259765626,0.4266910934448242]},{"bufferView":1,"componentType":5126,"count":902,"type":"VEC3"},{"bufferView":2,"componentType":5126,"count":902,"type":"VEC2"},{"bufferView":3,"componentType":5126,"count":902,"type":"VEC2"},{"bufferView":4,"componentType":5126,"count":902,"type":"VEC4"},{"bufferView":5,"componentType":5123,"count":2736,"type":"SCALAR"}],"bufferViews":[{"buffer":0,"byteOffset":0,"byteLength":10824},{"buffer":0,"byteOffset":10824,"byteLength":10824},{"buffer":0,"byteOffset":21648,"byteLength":7216},{"buffer":0,"byteOffset":28864,"byteLength":7216},{"buffer":0,"byteOffset":36080,"byteLength":14432},{"buffer":0,"byteOffset":50512,"byteLength":5472}],"buffers":[{"byteLength":55984,"uri":"data:application/octet-stream;base64,"}]}
