{"asset":{"generator":"Khronos glTF Blender I/O v1.2.75","version":"2.0"},"scene":0,"scenes":[{"name":"Scene","nodes":[0]}],"nodes":[{"mesh":0,"name":"Mesh"}],"meshes":[{"name":"SM_PaperBox_03_01","primitives":[{"indices":6,"attributes":{"POSITION":0,"NORMAL":1,"COLOR_0":2,"TEXCOORD_0":3,"TEXCOORD_1":4,"TANGENT":5},"mode":4}]}],"accessors":[{"bufferView":0,"componentType":5126,"count":36,"type":"VEC3","min":[-0.34638084411621095,-0.06718262195587159,-0.5639854049682618],"max":[0.33999549865722656,0.7348662567138672,0.5902786254882812]},{"bufferView":1,"componentType":5126,"count":36,"type":"VEC3"},{"bufferView":2,"componentType":5126,"count":36,"type":"VEC4"},{"bufferView":3,"componentType":5126,"count":36,"type":"VEC2"},{"bufferView":4,"componentType":5126,"count":36,"type":"VEC2"},{"bufferView":5,"componentType":5126,"count":36,"type":"VEC4"},{"bufferView":6,"componentType":5123,"count":36,"type":"SCALAR"}],"bufferViews":[{"buffer":0,"byteOffset":0,"byteLength":432},{"buffer":0,"byteOffset":432,"byteLength":432},{"buffer":0,"byteOffset":864,"byteLength":576},{"buffer":0,"byteOffset":1440,"byteLength":288},{"buffer":0,"byteOffset":1728,"byteLength":288},{"buffer":0,"byteOffset":2016,"byteLength":576},{"buffer":0,"byteOffset":2592,"byteLength":72}],"buffers":[{"byteLength":2664,"uri":"data:application/octet-stream;base64,"}]}
