{"asset":{"generator":"Khronos glTF Blender I/O v1.2.75","version":"2.0"},"scene":0,"scenes":[{"name":"Scene","nodes":[0]}],"nodes":[{"mesh":0,"name":"Mesh"}],"meshes":[{"name":"SM_GateTopLeft01","primitives":[{"indices":6,"attributes":{"POSITION":0,"NORMAL":1,"COLOR_0":2,"TEXCOORD_0":3,"TEXCOORD_1":4,"TANGENT":5},"mode":4},{"indices":13,"attributes":{"POSITION":7,"NORMAL":8,"COLOR_0":9,"TEXCOORD_0":10,"TEXCOORD_1":11,"TANGENT":12},"mode":4}]}],"accessors":[{"bufferView":0,"componentType":5126,"count":170,"type":"VEC3","min":[-0.0850864315032959,0.3186090087890625,-0.6798560333251953],"max":[5.994996337890625,7.913470458984375,0.06441688537597656]},{"bufferView":1,"componentType":5126,"count":170,"type":"VEC3"},{"bufferView":2,"componentType":5126,"count":472,"type":"VEC4"},{"bufferView":3,"componentType":5126,"count":170,"type":"VEC2"},{"bufferView":4,"componentType":5126,"count":170,"type":"VEC2"},{"bufferView":5,"componentType":5126,"count":170,"type":"VEC4"},{"bufferView":6,"componentType":5123,"count":324,"type":"SCALAR"},{"bufferView":7,"componentType":5126,"count":302,"type":"VEC3","min":[-0.0850864315032959,0.3186090087890625,-0.6798560333251953],"max":[5.994996337890625,7.913470458984375,0.06441688537597656]},{"bufferView":8,"componentType":5126,"count":302,"type":"VEC3"},{"bufferView":9,"componentType":5126,"count":472,"type":"VEC4"},{"bufferView":10,"componentType":5126,"count":302,"type":"VEC2"},{"bufferView":11,"componentType":5126,"count":302,"type":"VEC2"},{"bufferView":12,"componentType":5126,"count":302,"type":"VEC4"},{"bufferView":13,"componentType":5123,"count":414,"type":"SCALAR"}],"bufferViews":[{"buffer":0,"byteOffset":0,"byteLength":2040},{"buffer":0,"byteOffset":2040,"byteLength":2040},{"buffer":0,"byteOffset":4080,"byteLength":7552},{"buffer":0,"byteOffset":11632,"byteLength":1360},{"buffer":0,"byteOffset":12992,"byteLength":1360},{"buffer":0,"byteOffset":14352,"byteLength":2720},{"buffer":0,"byteOffset":17072,"byteLength":648},{"buffer":1,"byteOffset":0,"byteLength":3624},{"buffer":1,"byteOffset":3624,"byteLength":3624},{"buffer":1,"byteOffset":7248,"byteLength":7552},{"buffer":1,"byteOffset":14800,"byteLength":2416},{"buffer":1,"byteOffset":17216,"byteLength":2416},{"buffer":1,"byteOffset":19632,"byteLength":4832},{"buffer":1,"byteOffset":24464,"byteLength":828}],"buffers":[{"byteLength":17720,"uri":"data:application/octet-stream;base64,"},{"byteLength":25292,"uri":"data:application/octet-stream;base64,"}]}
