{"asset":{"generator":"Khronos glTF Blender I/O v1.2.75","version":"2.0"},"scene":0,"scenes":[{"name":"Scene","nodes":[0]}],"nodes":[{"mesh":0,"name":"Mesh"}],"meshes":[{"name":"SM_GateTopLeft01","primitives":[{"indices":6,"attributes":{"POSITION":0,"NORMAL":1,"COLOR_0":2,"TEXCOORD_0":3,"TEXCOORD_1":4,"TANGENT":5},"mode":4},{"indices":13,"attributes":{"POSITION":7,"NORMAL":8,"COLOR_0":9,"TEXCOORD_0":10,"TEXCOORD_1":11,"TANGENT":12},"mode":4}]}],"accessors":[{"bufferView":0,"componentType":5126,"count":826,"type":"VEC3","min":[-0.0850864315032959,0.3186090087890625,-0.6798560333251953],"max":[5.994996337890625,7.913470458984375,0.06441688537597656]},{"bufferView":1,"componentType":5126,"count":826,"type":"VEC3"},{"bufferView":2,"componentType":5126,"count":2474,"type":"VEC4"},{"bufferView":3,"componentType":5126,"count":826,"type":"VEC2"},{"bufferView":4,"componentType":5126,"count":826,"type":"VEC2"},{"bufferView":5,"componentType":5126,"count":826,"type":"VEC4"},{"bufferView":6,"componentType":5123,"count":2430,"type":"SCALAR"},{"bufferView":7,"componentType":5126,"count":1648,"type":"VEC3","min":[-0.0850864315032959,0.3186090087890625,-0.6798560333251953],"max":[5.994996337890625,7.913470458984375,0.06441688537597656]},{"bufferView":8,"componentType":5126,"count":1648,"type":"VEC3"},{"bufferView":9,"componentType":5126,"count":2474,"type":"VEC4"},{"bufferView":10,"componentType":5126,"count":1648,"type":"VEC2"},{"bufferView":11,"componentType":5126,"count":1648,"type":"VEC2"},{"bufferView":12,"componentType":5126,"count":1648,"type":"VEC4"},{"bufferView":13,"componentType":5123,"count":4956,"type":"SCALAR"}],"bufferViews":[{"buffer":0,"byteOffset":0,"byteLength":9912},{"buffer":0,"byteOffset":9912,"byteLength":9912},{"buffer":0,"byteOffset":19824,"byteLength":39584},{"buffer":0,"byteOffset":59408,"byteLength":6608},{"buffer":0,"byteOffset":66016,"byteLength":6608},{"buffer":0,"byteOffset":72624,"byteLength":13216},{"buffer":0,"byteOffset":85840,"byteLength":4860},{"buffer":1,"byteOffset":0,"byteLength":19776},{"buffer":1,"byteOffset":19776,"byteLength":19776},{"buffer":1,"byteOffset":39552,"byteLength":39584},{"buffer":1,"byteOffset":79136,"byteLength":13184},{"buffer":1,"byteOffset":92320,"byteLength":13184},{"buffer":1,"byteOffset":105504,"byteLength":26368},{"buffer":1,"byteOffset":131872,"byteLength":9912}],"buffers":[{"byteLength":90700,"uri":"data:application/octet-stream;base64,"},{"byteLength":141784,"uri":"data:application/octet-stream;base64,"}]}
