{"asset":{"generator":"Khronos glTF Blender I/O v1.2.75","version":"2.0"},"scene":0,"scenes":[{"name":"Scene","nodes":[0]}],"nodes":[{"mesh":0,"name":"Mesh"}],"meshes":[{"name":"SM_GateTopLeft01","primitives":[{"indices":6,"attributes":{"POSITION":0,"NORMAL":1,"COLOR_0":2,"TEXCOORD_0":3,"TEXCOORD_1":4,"TANGENT":5},"mode":4},{"indices":13,"attributes":{"POSITION":7,"NORMAL":8,"COLOR_0":9,"TEXCOORD_0":10,"TEXCOORD_1":11,"TANGENT":12},"mode":4}]}],"accessors":[{"bufferView":0,"componentType":5126,"count":258,"type":"VEC3","min":[-0.0850864315032959,0.3186090087890625,-0.6798560333251953],"max":[5.994996337890625,7.913470458984375,0.06441688537597656]},{"bufferView":1,"componentType":5126,"count":258,"type":"VEC3"},{"bufferView":2,"componentType":5126,"count":810,"type":"VEC4"},{"bufferView":3,"componentType":5126,"count":258,"type":"VEC2"},{"bufferView":4,"componentType":5126,"count":258,"type":"VEC2"},{"bufferView":5,"componentType":5126,"count":258,"type":"VEC4"},{"bufferView":6,"componentType":5123,"count":528,"type":"SCALAR"},{"bufferView":7,"componentType":5126,"count":552,"type":"VEC3","min":[-0.0850864315032959,0.3186090087890625,-0.6798560333251953],"max":[5.994996337890625,7.913470458984375,0.06441688537597656]},{"bufferView":8,"componentType":5126,"count":552,"type":"VEC3"},{"bufferView":9,"componentType":5126,"count":810,"type":"VEC4"},{"bufferView":10,"componentType":5126,"count":552,"type":"VEC2"},{"bufferView":11,"componentType":5126,"count":552,"type":"VEC2"},{"bufferView":12,"componentType":5126,"count":552,"type":"VEC4"},{"bufferView":13,"componentType":5123,"count":948,"type":"SCALAR"}],"bufferViews":[{"buffer":0,"byteOffset":0,"byteLength":3096},{"buffer":0,"byteOffset":3096,"byteLength":3096},{"buffer":0,"byteOffset":6192,"byteLength":12960},{"buffer":0,"byteOffset":19152,"byteLength":2064},{"buffer":0,"byteOffset":21216,"byteLength":2064},{"buffer":0,"byteOffset":23280,"byteLength":4128},{"buffer":0,"byteOffset":27408,"byteLength":1056},{"buffer":1,"byteOffset":0,"byteLength":6624},{"buffer":1,"byteOffset":6624,"byteLength":6624},{"buffer":1,"byteOffset":13248,"byteLength":12960},{"buffer":1,"byteOffset":26208,"byteLength":4416},{"buffer":1,"byteOffset":30624,"byteLength":4416},{"buffer":1,"byteOffset":35040,"byteLength":8832},{"buffer":1,"byteOffset":43872,"byteLength":1896}],"buffers":[{"byteLength":28464,"uri":"data:application/octet-stream;base64,"},{"byteLength":45768,"uri":"data:application/octet-stream;base64,"}]}
