{"asset":{"generator":"Khronos glTF Blender I/O v1.2.75","version":"2.0"},"scene":0,"scenes":[{"name":"Scene","nodes":[0]}],"nodes":[{"mesh":0,"name":"Mesh"}],"meshes":[{"name":"SM_Column_02","primitives":[{"indices":5,"attributes":{"POSITION":0,"NORMAL":1,"TEXCOORD_0":2,"TEXCOORD_1":3,"TANGENT":4},"mode":4},{"indices":11,"attributes":{"POSITION":6,"NORMAL":7,"TEXCOORD_0":8,"TEXCOORD_1":9,"TANGENT":10},"mode":4}]}],"accessors":[{"bufferView":0,"componentType":5126,"count":554,"type":"VEC3","min":[-0.4949009323120117,-6.103515625e-7,-0.8113970184326171],"max":[0.49490081787109375,5,0.8113970184326171]},{"bufferView":1,"componentType":5126,"count":554,"type":"VEC3"},{"bufferView":2,"componentType":5126,"count":554,"type":"VEC2"},{"bufferView":3,"componentType":5126,"count":554,"type":"VEC2"},{"bufferView":4,"componentType":5126,"count":554,"type":"VEC4"},{"bufferView":5,"componentType":5123,"count":942,"type":"SCALAR"},{"bufferView":6,"componentType":5126,"count":1937,"type":"VEC3","min":[-0.4949009323120117,-6.103515625e-7,-0.8113970184326171],"max":[0.49490081787109375,5,0.8113970184326171]},{"bufferView":7,"componentType":5126,"count":1937,"type":"VEC3"},{"bufferView":8,"componentType":5126,"count":1937,"type":"VEC2"},{"bufferView":9,"componentType":5126,"count":1937,"type":"VEC2"},{"bufferView":10,"componentType":5126,"count":1937,"type":"VEC4"},{"bufferView":11,"componentType":5123,"count":5184,"type":"SCALAR"}],"bufferViews":[{"buffer":0,"byteOffset":0,"byteLength":6648},{"buffer":0,"byteOffset":6648,"byteLength":6648},{"buffer":0,"byteOffset":13296,"byteLength":4432},{"buffer":0,"byteOffset":17728,"byteLength":4432},{"buffer":0,"byteOffset":22160,"byteLength":8864},{"buffer":0,"byteOffset":31024,"byteLength":1884},{"buffer":1,"byteOffset":0,"byteLength":23244},{"buffer":1,"byteOffset":23244,"byteLength":23244},{"buffer":1,"byteOffset":46488,"byteLength":15496},{"buffer":1,"byteOffset":61984,"byteLength":15496},{"buffer":1,"byteOffset":77480,"byteLength":30992},{"buffer":1,"byteOffset":108472,"byteLength":10368}],"buffers":[{"byteLength":32908,"uri":"data:application/octet-stream;base64,"},{"byteLength":118840,"uri":"data:application/octet-stream;base64,"}]}
