{"asset":{"generator":"Khronos glTF Blender I/O v1.2.75","version":"2.0"},"scene":0,"scenes":[{"name":"Scene","nodes":[0]}],"nodes":[{"mesh":0,"name":"Mesh"}],"meshes":[{"name":"SM_Column_02","primitives":[{"indices":5,"attributes":{"POSITION":0,"NORMAL":1,"TEXCOORD_0":2,"TEXCOORD_1":3,"TANGENT":4},"mode":4},{"indices":11,"attributes":{"POSITION":6,"NORMAL":7,"TEXCOORD_0":8,"TEXCOORD_1":9,"TANGENT":10},"mode":4}]}],"accessors":[{"bufferView":0,"componentType":5126,"count":644,"type":"VEC3","min":[-0.4949009323120117,-6.103515625e-7,-0.8113970184326171],"max":[0.49490081787109375,5,0.8113970184326171]},{"bufferView":1,"componentType":5126,"count":644,"type":"VEC3"},{"bufferView":2,"componentType":5126,"count":644,"type":"VEC2"},{"bufferView":3,"componentType":5126,"count":644,"type":"VEC2"},{"bufferView":4,"componentType":5126,"count":644,"type":"VEC4"},{"bufferView":5,"componentType":5123,"count":1296,"type":"SCALAR"},{"bufferView":6,"componentType":5126,"count":4001,"type":"VEC3","min":[-0.4949009323120117,-6.103515625e-7,-0.8113970184326171],"max":[0.49490081787109375,5,0.8113970184326171]},{"bufferView":7,"componentType":5126,"count":4001,"type":"VEC3"},{"bufferView":8,"componentType":5126,"count":4001,"type":"VEC2"},{"bufferView":9,"componentType":5126,"count":4001,"type":"VEC2"},{"bufferView":10,"componentType":5126,"count":4001,"type":"VEC4"},{"bufferView":11,"componentType":5123,"count":14016,"type":"SCALAR"}],"bufferViews":[{"buffer":0,"byteOffset":0,"byteLength":7728},{"buffer":0,"byteOffset":7728,"byteLength":7728},{"buffer":0,"byteOffset":15456,"byteLength":5152},{"buffer":0,"byteOffset":20608,"byteLength":5152},{"buffer":0,"byteOffset":25760,"byteLength":10304},{"buffer":0,"byteOffset":36064,"byteLength":2592},{"buffer":1,"byteOffset":0,"byteLength":48012},{"buffer":1,"byteOffset":48012,"byteLength":48012},{"buffer":1,"byteOffset":96024,"byteLength":32008},{"buffer":1,"byteOffset":128032,"byteLength":32008},{"buffer":1,"byteOffset":160040,"byteLength":64016},{"buffer":1,"byteOffset":224056,"byteLength":28032}],"buffers":[{"byteLength":38656,"uri":"data:application/octet-stream;base64,"},{"byteLength":252088,"uri":"data:application/octet-stream;base64,"}]}
