{"asset":{"generator":"Khronos glTF Blender I/O v1.2.75","version":"2.0"},"scene":0,"scenes":[{"name":"Scene","nodes":[0]}],"nodes":[{"mesh":0,"name":"Mesh"}],"meshes":[{"name":"SM_MainHero_Hair","primitives":[{"indices":5,"attributes":{"POSITION":0,"NORMAL":1,"TEXCOORD_0":2,"TEXCOORD_1":3,"TANGENT":4},"mode":4},{"indices":11,"attributes":{"POSITION":6,"NORMAL":7,"TEXCOORD_0":8,"TEXCOORD_1":9,"TANGENT":10},"mode":4},{"indices":17,"attributes":{"POSITION":12,"NORMAL":13,"TEXCOORD_0":14,"TEXCOORD_1":15,"TANGENT":16},"mode":4}]}],"accessors":[{"bufferView":0,"componentType":5126,"count":2136,"type":"VEC3","min":[-0.047304935455322265,1.3010261535644532,-0.23837167739868165],"max":[0.06827319622039794,1.6902638244628907,-0.0745713472366333]},{"bufferView":1,"componentType":5126,"count":2136,"type":"VEC3"},{"bufferView":2,"componentType":5126,"count":2136,"type":"VEC2"},{"bufferView":3,"componentType":5126,"count":2136,"type":"VEC2"},{"bufferView":4,"componentType":5126,"count":2136,"type":"VEC4"},{"bufferView":5,"componentType":5123,"count":11160,"type":"SCALAR"},{"bufferView":6,"componentType":5126,"count":3327,"type":"VEC3","min":[-0.047304935455322265,1.3010261535644532,-0.23837167739868165],"max":[0.06827319622039794,1.6902638244628907,-0.0745713472366333]},{"bufferView":7,"componentType":5126,"count":3327,"type":"VEC3"},{"bufferView":8,"componentType":5126,"count":3327,"type":"VEC2"},{"bufferView":9,"componentType":5126,"count":3327,"type":"VEC2"},{"bufferView":10,"componentType":5126,"count":3327,"type":"VEC4"},{"bufferView":11,"componentType":5123,"count":15450,"type":"SCALAR"},{"bufferView":12,"componentType":5126,"count":148,"type":"VEC3","min":[-0.047304935455322265,1.3010261535644532,-0.23837167739868165],"max":[0.06827319622039794,1.6902638244628907,-0.0745713472366333]},{"bufferView":13,"componentType":5126,"count":148,"type":"VEC3"},{"bufferView":14,"componentType":5126,"count":148,"type":"VEC2"},{"bufferView":15,"componentType":5126,"count":148,"type":"VEC2"},{"bufferView":16,"componentType":5126,"count":148,"type":"VEC4"},{"bufferView":17,"componentType":5123,"count":408,"type":"SCALAR"}],"bufferViews":[{"buffer":0,"byteOffset":0,"byteLength":25632},{"buffer":0,"byteOffset":25632,"byteLength":25632},{"buffer":0,"byteOffset":51264,"byteLength":17088},{"buffer":0,"byteOffset":68352,"byteLength":17088},{"buffer":0,"byteOffset":85440,"byteLength":34176},{"buffer":0,"byteOffset":119616,"byteLength":22320},{"buffer":1,"byteOffset":0,"byteLength":39924},{"buffer":1,"byteOffset":39924,"byteLength":39924},{"buffer":1,"byteOffset":79848,"byteLength":26616},{"buffer":1,"byteOffset":106464,"byteLength":26616},{"buffer":1,"byteOffset":133080,"byteLength":53232},{"buffer":1,"byteOffset":186312,"byteLength":30900},{"buffer":2,"byteOffset":0,"byteLength":1776},{"buffer":2,"byteOffset":1776,"byteLength":1776},{"buffer":2,"byteOffset":3552,"byteLength":1184},{"buffer":2,"byteOffset":4736,"byteLength":1184},{"buffer":2,"byteOffset":5920,"byteLength":2368},{"buffer":2,"byteOffset":8288,"byteLength":816}],"buffers":[{"byteLength":141936,"uri":"data:application/octet-stream;base64,"},{"byteLength":217212,"uri":"data:application/octet-stream;base64,"},{"byteLength":9104,"uri":"data:application/octet-stream;base64,"}]}
