{"asset":{"generator":"Khronos glTF Blender I/O v1.2.75","version":"2.0"},"scene":0,"scenes":[{"name":"Scene","nodes":[0]}],"nodes":[{"mesh":0,"name":"Mesh"}],"meshes":[{"name":"SM_Building07_06","primitives":[{"indices":5,"attributes":{"POSITION":0,"NORMAL":1,"TEXCOORD_0":2,"TEXCOORD_1":3,"TANGENT":4},"mode":4}]}],"accessors":[{"bufferView":0,"componentType":5126,"count":937,"type":"VEC3","min":[-0.6194415283203125,0.0000010088157432619481,-17.000001220703126],"max":[7.2479248046875e-7,19.64285400390625,-0.0000010364662011852487]},{"bufferView":1,"componentType":5126,"count":937,"type":"VEC3"},{"bufferView":2,"componentType":5126,"count":937,"type":"VEC2"},{"bufferView":3,"componentType":5126,"count":937,"type":"VEC2"},{"bufferView":4,"componentType":5126,"count":937,"type":"VEC4"},{"bufferView":5,"componentType":5123,"count":1749,"type":"SCALAR"}],"bufferViews":[{"buffer":0,"byteOffset":0,"byteLength":11244},{"buffer":0,"byteOffset":11244,"byteLength":11244},{"buffer":0,"byteOffset":22488,"byteLength":7496},{"buffer":0,"byteOffset":29984,"byteLength":7496},{"buffer":0,"byteOffset":37480,"byteLength":14992},{"buffer":0,"byteOffset":52472,"byteLength":3498}],"buffers":[{"byteLength":55970,"uri":"data:application/octet-stream;base64,"}]}
