{"asset":{"generator":"Khronos glTF Blender I/O v1.2.75","version":"2.0"},"scene":0,"scenes":[{"name":"Scene","nodes":[0]}],"nodes":[{"mesh":0,"name":"Mesh"}],"meshes":[{"name":"SM_IndustrialPlatform04","primitives":[{"indices":6,"attributes":{"POSITION":0,"NORMAL":1,"COLOR_0":2,"TEXCOORD_0":3,"TEXCOORD_1":4,"TANGENT":5},"mode":4}]}],"accessors":[{"bufferView":0,"componentType":5126,"count":1088,"type":"VEC3","min":[-1.5323551940917968,-0.010730905532836914,-1.5022273254394531],"max":[1.510201416015625,0.6884170532226562,1.5058782958984376]},{"bufferView":1,"componentType":5126,"count":1088,"type":"VEC3"},{"bufferView":2,"componentType":5126,"count":1088,"type":"VEC4"},{"bufferView":3,"componentType":5126,"count":1088,"type":"VEC2"},{"bufferView":4,"componentType":5126,"count":1088,"type":"VEC2"},{"bufferView":5,"componentType":5126,"count":1088,"type":"VEC4"},{"bufferView":6,"componentType":5123,"count":2244,"type":"SCALAR"}],"bufferViews":[{"buffer":0,"byteOffset":0,"byteLength":13056},{"buffer":0,"byteOffset":13056,"byteLength":13056},{"buffer":0,"byteOffset":26112,"byteLength":17408},{"buffer":0,"byteOffset":43520,"byteLength":8704},{"buffer":0,"byteOffset":52224,"byteLength":8704},{"buffer":0,"byteOffset":60928,"byteLength":17408},{"buffer":0,"byteOffset":78336,"byteLength":4488}],"buffers":[{"byteLength":82824,"uri":"data:application/octet-stream;base64,"}]}
