{"asset":{"generator":"Khronos glTF Blender I/O v1.2.75","version":"2.0"},"scene":0,"scenes":[{"name":"Scene","nodes":[0]}],"nodes":[{"mesh":0,"name":"Mesh"}],"meshes":[{"name":"SM_Pavement03","primitives":[{"indices":5,"attributes":{"POSITION":0,"NORMAL":1,"TEXCOORD_0":2,"TEXCOORD_1":3,"TANGENT":4},"mode":4},{"indices":11,"attributes":{"POSITION":6,"NORMAL":7,"TEXCOORD_0":8,"TEXCOORD_1":9,"TANGENT":10},"mode":4}]}],"accessors":[{"bufferView":0,"componentType":5126,"count":136,"type":"VEC3","min":[-5.581214599609375,-4.57763671875e-7,-0.000026938728988170625],"max":[3.169345703125,0.4013577651977539,24.74019287109375]},{"bufferView":1,"componentType":5126,"count":136,"type":"VEC3"},{"bufferView":2,"componentType":5126,"count":136,"type":"VEC2"},{"bufferView":3,"componentType":5126,"count":136,"type":"VEC2"},{"bufferView":4,"componentType":5126,"count":136,"type":"VEC4"},{"bufferView":5,"componentType":5123,"count":234,"type":"SCALAR"},{"bufferView":6,"componentType":5126,"count":19,"type":"VEC3","min":[-5.581214599609375,-4.57763671875e-7,-0.000026938728988170625],"max":[3.169345703125,0.4013577651977539,24.74019287109375]},{"bufferView":7,"componentType":5126,"count":19,"type":"VEC3"},{"bufferView":8,"componentType":5126,"count":19,"type":"VEC2"},{"bufferView":9,"componentType":5126,"count":19,"type":"VEC2"},{"bufferView":10,"componentType":5126,"count":19,"type":"VEC4"},{"bufferView":11,"componentType":5123,"count":27,"type":"SCALAR"}],"bufferViews":[{"buffer":0,"byteOffset":0,"byteLength":1632},{"buffer":0,"byteOffset":1632,"byteLength":1632},{"buffer":0,"byteOffset":3264,"byteLength":1088},{"buffer":0,"byteOffset":4352,"byteLength":1088},{"buffer":0,"byteOffset":5440,"byteLength":2176},{"buffer":0,"byteOffset":7616,"byteLength":468},{"buffer":1,"byteOffset":0,"byteLength":228},{"buffer":1,"byteOffset":228,"byteLength":228},{"buffer":1,"byteOffset":456,"byteLength":152},{"buffer":1,"byteOffset":608,"byteLength":152},{"buffer":1,"byteOffset":760,"byteLength":304},{"buffer":1,"byteOffset":1064,"byteLength":54}],"buffers":[{"byteLength":8084,"uri":"data:application/octet-stream;base64,"},{"byteLength":1118,"uri":"data:application/octet-stream;base64,"}]}
