{"asset":{"generator":"Khronos glTF Blender I/O v1.2.75","version":"2.0"},"scene":0,"scenes":[{"name":"Scene","nodes":[0]}],"nodes":[{"mesh":0,"name":"Mesh"}],"meshes":[{"name":"SM_NeonSig06","primitives":[{"indices":5,"attributes":{"POSITION":0,"NORMAL":1,"TEXCOORD_0":2,"TEXCOORD_1":3,"TANGENT":4},"mode":4}]}],"accessors":[{"bufferView":0,"componentType":5126,"count":1145,"type":"VEC3","min":[-0.000001373291015625,-0.0007445526123046875,-3.183096923828125],"max":[3.3422109985351565,1.413438720703125,0.1396352481842041]},{"bufferView":1,"componentType":5126,"count":1145,"type":"VEC3"},{"bufferView":2,"componentType":5126,"count":1145,"type":"VEC2"},{"bufferView":3,"componentType":5126,"count":1145,"type":"VEC2"},{"bufferView":4,"componentType":5126,"count":1145,"type":"VEC4"},{"bufferView":5,"componentType":5123,"count":4458,"type":"SCALAR"}],"bufferViews":[{"buffer":0,"byteOffset":0,"byteLength":13740},{"buffer":0,"byteOffset":13740,"byteLength":13740},{"buffer":0,"byteOffset":27480,"byteLength":9160},{"buffer":0,"byteOffset":36640,"byteLength":9160},{"buffer":0,"byteOffset":45800,"byteLength":18320},{"buffer":0,"byteOffset":64120,"byteLength":8916}],"buffers":[{"byteLength":73036,"uri":"data:application/octet-stream;base64,"}]}
