{"asset":{"generator":"Khronos glTF Blender I/O v1.2.75","version":"2.0"},"scene":0,"scenes":[{"name":"Scene","nodes":[0]}],"nodes":[{"mesh":0,"name":"Mesh"}],"meshes":[{"name":"SM_NeonSig06","primitives":[{"indices":5,"attributes":{"POSITION":0,"NORMAL":1,"TEXCOORD_0":2,"TEXCOORD_1":3,"TANGENT":4},"mode":4}]}],"accessors":[{"bufferView":0,"componentType":5126,"count":1912,"type":"VEC3","min":[-0.000001373291015625,-0.0007445526123046875,-3.183096923828125],"max":[3.3422109985351565,1.413438720703125,0.1396352481842041]},{"bufferView":1,"componentType":5126,"count":1912,"type":"VEC3"},{"bufferView":2,"componentType":5126,"count":1912,"type":"VEC2"},{"bufferView":3,"componentType":5126,"count":1912,"type":"VEC2"},{"bufferView":4,"componentType":5126,"count":1912,"type":"VEC4"},{"bufferView":5,"componentType":5123,"count":8916,"type":"SCALAR"}],"bufferViews":[{"buffer":0,"byteOffset":0,"byteLength":22944},{"buffer":0,"byteOffset":22944,"byteLength":22944},{"buffer":0,"byteOffset":45888,"byteLength":15296},{"buffer":0,"byteOffset":61184,"byteLength":15296},{"buffer":0,"byteOffset":76480,"byteLength":30592},{"buffer":0,"byteOffset":107072,"byteLength":17832}],"buffers":[{"byteLength":124904,"uri":"data:application/octet-stream;base64,"}]}
