{"asset":{"generator":"Khronos glTF Blender I/O v1.2.75","version":"2.0"},"scene":0,"scenes":[{"name":"Scene","nodes":[0]}],"nodes":[{"mesh":0,"name":"Mesh"}],"meshes":[{"name":"SM_Pipe_round_corner2","primitives":[{"indices":6,"attributes":{"POSITION":0,"NORMAL":1,"COLOR_0":2,"TEXCOORD_0":3,"TEXCOORD_1":4,"TANGENT":5},"mode":4}]}],"accessors":[{"bufferView":0,"componentType":5126,"count":264,"type":"VEC3","min":[-0.23229984283447266,-0.7948030090332031,-0.0026112356781959533],"max":[0.2173259162902832,0.2201226043701172,1.0050130462646485]},{"bufferView":1,"componentType":5126,"count":264,"type":"VEC3"},{"bufferView":2,"componentType":5126,"count":264,"type":"VEC4"},{"bufferView":3,"componentType":5126,"count":264,"type":"VEC2"},{"bufferView":4,"componentType":5126,"count":264,"type":"VEC2"},{"bufferView":5,"componentType":5126,"count":264,"type":"VEC4"},{"bufferView":6,"componentType":5123,"count":888,"type":"SCALAR"}],"bufferViews":[{"buffer":0,"byteOffset":0,"byteLength":3168},{"buffer":0,"byteOffset":3168,"byteLength":3168},{"buffer":0,"byteOffset":6336,"byteLength":4224},{"buffer":0,"byteOffset":10560,"byteLength":2112},{"buffer":0,"byteOffset":12672,"byteLength":2112},{"buffer":0,"byteOffset":14784,"byteLength":4224},{"buffer":0,"byteOffset":19008,"byteLength":1776}],"buffers":[{"byteLength":20784,"uri":"data:application/octet-stream;base64,"}]}
