{"asset":{"generator":"Khronos glTF Blender I/O v1.2.75","version":"2.0"},"scene":0,"scenes":[{"name":"Scene","nodes":[0]}],"nodes":[{"mesh":0,"name":"Mesh"}],"meshes":[{"name":"SM_Cable_0_5m","primitives":[{"indices":5,"attributes":{"POSITION":0,"NORMAL":1,"TEXCOORD_0":2,"TEXCOORD_1":3,"TANGENT":4},"mode":4}]}],"accessors":[{"bufferView":0,"componentType":5126,"count":111,"type":"VEC3","min":[0,-6.097990876696713e-9,-0.03742919921875],"max":[0.5,0.04976293087005615,0.037429201602935794]},{"bufferView":1,"componentType":5126,"count":111,"type":"VEC3"},{"bufferView":2,"componentType":5126,"count":111,"type":"VEC2"},{"bufferView":3,"componentType":5126,"count":111,"type":"VEC2"},{"bufferView":4,"componentType":5126,"count":111,"type":"VEC4"},{"bufferView":5,"componentType":5123,"count":342,"type":"SCALAR"}],"bufferViews":[{"buffer":0,"byteOffset":0,"byteLength":1332},{"buffer":0,"byteOffset":1332,"byteLength":1332},{"buffer":0,"byteOffset":2664,"byteLength":888},{"buffer":0,"byteOffset":3552,"byteLength":888},{"buffer":0,"byteOffset":4440,"byteLength":1776},{"buffer":0,"byteOffset":6216,"byteLength":684}],"buffers":[{"byteLength":6900,"uri":"data:application/octet-stream;base64,"}]}
