{"asset":{"generator":"Khronos glTF Blender I/O v1.2.75","version":"2.0"},"scene":0,"scenes":[{"name":"Scene","nodes":[0]}],"nodes":[{"mesh":0,"name":"Mesh"}],"meshes":[{"name":"SM_Steps_02","primitives":[{"indices":5,"attributes":{"POSITION":0,"NORMAL":1,"TEXCOORD_0":2,"TEXCOORD_1":3,"TANGENT":4},"mode":4}]}],"accessors":[{"bufferView":0,"componentType":5126,"count":368,"type":"VEC3","min":[-0.0292169189453125,-0.2500002861022949,-2.580821838378906],"max":[1.57864013671875,0.8297122192382812,2.0425206457730382e-7]},{"bufferView":1,"componentType":5126,"count":368,"type":"VEC3"},{"bufferView":2,"componentType":5126,"count":368,"type":"VEC2"},{"bufferView":3,"componentType":5126,"count":368,"type":"VEC2"},{"bufferView":4,"componentType":5126,"count":368,"type":"VEC4"},{"bufferView":5,"componentType":5123,"count":1392,"type":"SCALAR"}],"bufferViews":[{"buffer":0,"byteOffset":0,"byteLength":4416},{"buffer":0,"byteOffset":4416,"byteLength":4416},{"buffer":0,"byteOffset":8832,"byteLength":2944},{"buffer":0,"byteOffset":11776,"byteLength":2944},{"buffer":0,"byteOffset":14720,"byteLength":5888},{"buffer":0,"byteOffset":20608,"byteLength":2784}],"buffers":[{"byteLength":23392,"uri":"data:application/octet-stream;base64,"}]}
