{"asset":{"generator":"Khronos glTF Blender I/O v1.2.75","version":"2.0"},"scene":0,"scenes":[{"name":"Scene","nodes":[0]}],"nodes":[{"mesh":0,"name":"Mesh"}],"meshes":[{"name":"SM_Building10_05","primitives":[{"indices":5,"attributes":{"POSITION":0,"NORMAL":1,"TEXCOORD_0":2,"TEXCOORD_1":3,"TANGENT":4},"mode":4},{"indices":11,"attributes":{"POSITION":6,"NORMAL":7,"TEXCOORD_0":8,"TEXCOORD_1":9,"TANGENT":10},"mode":4}]}],"accessors":[{"bufferView":0,"componentType":5126,"count":536,"type":"VEC3","min":[-20.79046875,-1.5689373779296876,-1.0603843688964845],"max":[1.1472996520996093,1.5127943420410157,21.4289404296875]},{"bufferView":1,"componentType":5126,"count":536,"type":"VEC3"},{"bufferView":2,"componentType":5126,"count":536,"type":"VEC2"},{"bufferView":3,"componentType":5126,"count":536,"type":"VEC2"},{"bufferView":4,"componentType":5126,"count":536,"type":"VEC4"},{"bufferView":5,"componentType":5123,"count":1212,"type":"SCALAR"},{"bufferView":6,"componentType":5126,"count":312,"type":"VEC3","min":[-20.79046875,-1.5689373779296876,-1.0603843688964845],"max":[1.1472996520996093,1.5127943420410157,21.4289404296875]},{"bufferView":7,"componentType":5126,"count":312,"type":"VEC3"},{"bufferView":8,"componentType":5126,"count":312,"type":"VEC2"},{"bufferView":9,"componentType":5126,"count":312,"type":"VEC2"},{"bufferView":10,"componentType":5126,"count":312,"type":"VEC4"},{"bufferView":11,"componentType":5123,"count":468,"type":"SCALAR"}],"bufferViews":[{"buffer":0,"byteOffset":0,"byteLength":6432},{"buffer":0,"byteOffset":6432,"byteLength":6432},{"buffer":0,"byteOffset":12864,"byteLength":4288},{"buffer":0,"byteOffset":17152,"byteLength":4288},{"buffer":0,"byteOffset":21440,"byteLength":8576},{"buffer":0,"byteOffset":30016,"byteLength":2424},{"buffer":1,"byteOffset":0,"byteLength":3744},{"buffer":1,"byteOffset":3744,"byteLength":3744},{"buffer":1,"byteOffset":7488,"byteLength":2496},{"buffer":1,"byteOffset":9984,"byteLength":2496},{"buffer":1,"byteOffset":12480,"byteLength":4992},{"buffer":1,"byteOffset":17472,"byteLength":936}],"buffers":[{"byteLength":32440,"uri":"data:application/octet-stream;base64,"},{"byteLength":18408,"uri":"data:application/octet-stream;base64,"}]}
