{"asset":{"generator":"Khronos glTF Blender I/O v1.2.75","version":"2.0"},"scene":0,"scenes":[{"name":"Scene","nodes":[0]}],"nodes":[{"mesh":0,"name":"Mesh"}],"meshes":[{"name":"SM_Building10_05","primitives":[{"indices":5,"attributes":{"POSITION":0,"NORMAL":1,"TEXCOORD_0":2,"TEXCOORD_1":3,"TANGENT":4},"mode":4},{"indices":11,"attributes":{"POSITION":6,"NORMAL":7,"TEXCOORD_0":8,"TEXCOORD_1":9,"TANGENT":10},"mode":4}]}],"accessors":[{"bufferView":0,"componentType":5126,"count":126,"type":"VEC3","min":[-20.79046875,-1.5689373779296876,-1.0603843688964845],"max":[1.1472996520996093,1.5127943420410157,21.4289404296875]},{"bufferView":1,"componentType":5126,"count":126,"type":"VEC3"},{"bufferView":2,"componentType":5126,"count":126,"type":"VEC2"},{"bufferView":3,"componentType":5126,"count":126,"type":"VEC2"},{"bufferView":4,"componentType":5126,"count":126,"type":"VEC4"},{"bufferView":5,"componentType":5123,"count":150,"type":"SCALAR"},{"bufferView":6,"componentType":5126,"count":220,"type":"VEC3","min":[-20.79046875,-1.5689373779296876,-1.0603843688964845],"max":[1.1472996520996093,1.5127943420410157,21.4289404296875]},{"bufferView":7,"componentType":5126,"count":220,"type":"VEC3"},{"bufferView":8,"componentType":5126,"count":220,"type":"VEC2"},{"bufferView":9,"componentType":5126,"count":220,"type":"VEC2"},{"bufferView":10,"componentType":5126,"count":220,"type":"VEC4"},{"bufferView":11,"componentType":5123,"count":270,"type":"SCALAR"}],"bufferViews":[{"buffer":0,"byteOffset":0,"byteLength":1512},{"buffer":0,"byteOffset":1512,"byteLength":1512},{"buffer":0,"byteOffset":3024,"byteLength":1008},{"buffer":0,"byteOffset":4032,"byteLength":1008},{"buffer":0,"byteOffset":5040,"byteLength":2016},{"buffer":0,"byteOffset":7056,"byteLength":300},{"buffer":1,"byteOffset":0,"byteLength":2640},{"buffer":1,"byteOffset":2640,"byteLength":2640},{"buffer":1,"byteOffset":5280,"byteLength":1760},{"buffer":1,"byteOffset":7040,"byteLength":1760},{"buffer":1,"byteOffset":8800,"byteLength":3520},{"buffer":1,"byteOffset":12320,"byteLength":540}],"buffers":[{"byteLength":7356,"uri":"data:application/octet-stream;base64,"},{"byteLength":12860,"uri":"data:application/octet-stream;base64,"}]}
