{"asset":{"generator":"Khronos glTF Blender I/O v1.2.75","version":"2.0"},"scene":0,"scenes":[{"name":"Scene","nodes":[0]}],"nodes":[{"mesh":0,"name":"Mesh"}],"meshes":[{"name":"SM_Building07_03","primitives":[{"indices":5,"attributes":{"POSITION":0,"NORMAL":1,"TEXCOORD_0":2,"TEXCOORD_1":3,"TANGENT":4},"mode":4}]}],"accessors":[{"bufferView":0,"componentType":5126,"count":266,"type":"VEC3","min":[-0.05029348373413086,-1.7587591552734374,-2.74643798828125],"max":[0.21215503692626952,20.9484326171875,1.1368683772161603e-15]},{"bufferView":1,"componentType":5126,"count":266,"type":"VEC3"},{"bufferView":2,"componentType":5126,"count":266,"type":"VEC2"},{"bufferView":3,"componentType":5126,"count":266,"type":"VEC2"},{"bufferView":4,"componentType":5126,"count":266,"type":"VEC4"},{"bufferView":5,"componentType":5123,"count":660,"type":"SCALAR"}],"bufferViews":[{"buffer":0,"byteOffset":0,"byteLength":3192},{"buffer":0,"byteOffset":3192,"byteLength":3192},{"buffer":0,"byteOffset":6384,"byteLength":2128},{"buffer":0,"byteOffset":8512,"byteLength":2128},{"buffer":0,"byteOffset":10640,"byteLength":4256},{"buffer":0,"byteOffset":14896,"byteLength":1320}],"buffers":[{"byteLength":16216,"uri":"data:application/octet-stream;base64,"}]}
