{"asset":{"generator":"Khronos glTF Blender I/O v1.2.75","version":"2.0"},"scene":0,"scenes":[{"name":"Scene","nodes":[0]}],"nodes":[{"mesh":0,"name":"Mesh"}],"meshes":[{"name":"SM_PipeGroup13","primitives":[{"indices":5,"attributes":{"POSITION":0,"NORMAL":1,"TEXCOORD_0":2,"TEXCOORD_1":3,"TANGENT":4},"mode":4}]}],"accessors":[{"bufferView":0,"componentType":5126,"count":654,"type":"VEC3","min":[-0.5502839279174805,-31.98332275390625,-12.2502880859375],"max":[0.5503108215332031,0.3003621864318848,5.003416748046875]},{"bufferView":1,"componentType":5126,"count":654,"type":"VEC3"},{"bufferView":2,"componentType":5126,"count":654,"type":"VEC2"},{"bufferView":3,"componentType":5126,"count":654,"type":"VEC2"},{"bufferView":4,"componentType":5126,"count":654,"type":"VEC4"},{"bufferView":5,"componentType":5123,"count":1218,"type":"SCALAR"}],"bufferViews":[{"buffer":0,"byteOffset":0,"byteLength":7848},{"buffer":0,"byteOffset":7848,"byteLength":7848},{"buffer":0,"byteOffset":15696,"byteLength":5232},{"buffer":0,"byteOffset":20928,"byteLength":5232},{"buffer":0,"byteOffset":26160,"byteLength":10464},{"buffer":0,"byteOffset":36624,"byteLength":2436}],"buffers":[{"byteLength":39060,"uri":"data:application/octet-stream;base64,"}]}
