{"asset":{"generator":"Khronos glTF Blender I/O v1.2.75","version":"2.0"},"scene":0,"scenes":[{"name":"Scene","nodes":[0]}],"nodes":[{"mesh":0,"name":"Mesh"}],"meshes":[{"name":"SM_PipeGroup05","primitives":[{"indices":5,"attributes":{"POSITION":0,"NORMAL":1,"TEXCOORD_0":2,"TEXCOORD_1":3,"TANGENT":4},"mode":4}]}],"accessors":[{"bufferView":0,"componentType":5126,"count":746,"type":"VEC3","min":[-8.771171264648437,-24.1938720703125,-0.3161491584777832],"max":[0.5603681564331054,2.500538635253906,0.31614728927612307]},{"bufferView":1,"componentType":5126,"count":746,"type":"VEC3"},{"bufferView":2,"componentType":5126,"count":746,"type":"VEC2"},{"bufferView":3,"componentType":5126,"count":746,"type":"VEC2"},{"bufferView":4,"componentType":5126,"count":746,"type":"VEC4"},{"bufferView":5,"componentType":5123,"count":1560,"type":"SCALAR"}],"bufferViews":[{"buffer":0,"byteOffset":0,"byteLength":8952},{"buffer":0,"byteOffset":8952,"byteLength":8952},{"buffer":0,"byteOffset":17904,"byteLength":5968},{"buffer":0,"byteOffset":23872,"byteLength":5968},{"buffer":0,"byteOffset":29840,"byteLength":11936},{"buffer":0,"byteOffset":41776,"byteLength":3120}],"buffers":[{"byteLength":44896,"uri":"data:application/octet-stream;base64,"}]}
