{"asset":{"generator":"Khronos glTF Blender I/O v1.2.75","version":"2.0"},"scene":0,"scenes":[{"name":"Scene","nodes":[0]}],"nodes":[{"mesh":0,"name":"Mesh"}],"meshes":[{"name":"SM_PipeGroup05","primitives":[{"indices":5,"attributes":{"POSITION":0,"NORMAL":1,"TEXCOORD_0":2,"TEXCOORD_1":3,"TANGENT":4},"mode":4}]}],"accessors":[{"bufferView":0,"componentType":5126,"count":3186,"type":"VEC3","min":[-8.771171264648437,-24.1938720703125,-0.3161491584777832],"max":[0.5603681564331054,2.500538635253906,0.31614728927612307]},{"bufferView":1,"componentType":5126,"count":3186,"type":"VEC3"},{"bufferView":2,"componentType":5126,"count":3186,"type":"VEC2"},{"bufferView":3,"componentType":5126,"count":3186,"type":"VEC2"},{"bufferView":4,"componentType":5126,"count":3186,"type":"VEC4"},{"bufferView":5,"componentType":5123,"count":5466,"type":"SCALAR"}],"bufferViews":[{"buffer":0,"byteOffset":0,"byteLength":38232},{"buffer":0,"byteOffset":38232,"byteLength":38232},{"buffer":0,"byteOffset":76464,"byteLength":25488},{"buffer":0,"byteOffset":101952,"byteLength":25488},{"buffer":0,"byteOffset":127440,"byteLength":50976},{"buffer":0,"byteOffset":178416,"byteLength":10932}],"buffers":[{"byteLength":189348,"uri":"data:application/octet-stream;base64,"}]}
