{"asset":{"generator":"Khronos glTF Blender I/O v1.2.75","version":"2.0"},"scene":0,"scenes":[{"name":"Scene","nodes":[0]}],"nodes":[{"mesh":0,"name":"Mesh"}],"meshes":[{"name":"SM_PaperBox_03_03","primitives":[{"indices":6,"attributes":{"POSITION":0,"NORMAL":1,"COLOR_0":2,"TEXCOORD_0":3,"TEXCOORD_1":4,"TANGENT":5},"mode":4}]}],"accessors":[{"bufferView":0,"componentType":5126,"count":126,"type":"VEC3","min":[-0.4017778015136719,-0.036173162460327146,-0.5971836090087891],"max":[0.4017782974243164,0.9204264831542969,0.5850777435302734]},{"bufferView":1,"componentType":5126,"count":126,"type":"VEC3"},{"bufferView":2,"componentType":5126,"count":126,"type":"VEC4"},{"bufferView":3,"componentType":5126,"count":126,"type":"VEC2"},{"bufferView":4,"componentType":5126,"count":126,"type":"VEC2"},{"bufferView":5,"componentType":5126,"count":126,"type":"VEC4"},{"bufferView":6,"componentType":5123,"count":138,"type":"SCALAR"}],"bufferViews":[{"buffer":0,"byteOffset":0,"byteLength":1512},{"buffer":0,"byteOffset":1512,"byteLength":1512},{"buffer":0,"byteOffset":3024,"byteLength":2016},{"buffer":0,"byteOffset":5040,"byteLength":1008},{"buffer":0,"byteOffset":6048,"byteLength":1008},{"buffer":0,"byteOffset":7056,"byteLength":2016},{"buffer":0,"byteOffset":9072,"byteLength":276}],"buffers":[{"byteLength":9348,"uri":"data:application/octet-stream;base64,"}]}
