{"asset":{"generator":"Khronos glTF Blender I/O v1.2.75","version":"2.0"},"scene":0,"scenes":[{"name":"Scene","nodes":[0]}],"nodes":[{"mesh":0,"name":"Mesh"}],"meshes":[{"name":"SM_PaperBox_03_03","primitives":[{"indices":6,"attributes":{"POSITION":0,"NORMAL":1,"COLOR_0":2,"TEXCOORD_0":3,"TEXCOORD_1":4,"TANGENT":5},"mode":4}]}],"accessors":[{"bufferView":0,"componentType":5126,"count":514,"type":"VEC3","min":[-0.4017778015136719,-0.036173162460327146,-0.5971836090087891],"max":[0.4017782974243164,0.9204264831542969,0.5850777435302734]},{"bufferView":1,"componentType":5126,"count":514,"type":"VEC3"},{"bufferView":2,"componentType":5126,"count":514,"type":"VEC4"},{"bufferView":3,"componentType":5126,"count":514,"type":"VEC2"},{"bufferView":4,"componentType":5126,"count":514,"type":"VEC2"},{"bufferView":5,"componentType":5126,"count":514,"type":"VEC4"},{"bufferView":6,"componentType":5123,"count":564,"type":"SCALAR"}],"bufferViews":[{"buffer":0,"byteOffset":0,"byteLength":6168},{"buffer":0,"byteOffset":6168,"byteLength":6168},{"buffer":0,"byteOffset":12336,"byteLength":8224},{"buffer":0,"byteOffset":20560,"byteLength":4112},{"buffer":0,"byteOffset":24672,"byteLength":4112},{"buffer":0,"byteOffset":28784,"byteLength":8224},{"buffer":0,"byteOffset":37008,"byteLength":1128}],"buffers":[{"byteLength":38136,"uri":"data:application/octet-stream;base64,"}]}
