{"asset":{"generator":"Khronos glTF Blender I/O v1.2.75","version":"2.0"},"scene":0,"scenes":[{"name":"Scene","nodes":[0]}],"nodes":[{"mesh":0,"name":"Mesh"}],"meshes":[{"name":"SM_MetalBeam01","primitives":[{"indices":6,"attributes":{"POSITION":0,"NORMAL":1,"COLOR_0":2,"TEXCOORD_0":3,"TEXCOORD_1":4,"TANGENT":5},"mode":4}]}],"accessors":[{"bufferView":0,"componentType":5126,"count":154,"type":"VEC3","min":[-6.103515625e-7,-0.27330856323242186,-0.4535906982421875],"max":[6,0.27330856323242186,0.4535906982421875]},{"bufferView":1,"componentType":5126,"count":154,"type":"VEC3"},{"bufferView":2,"componentType":5126,"count":154,"type":"VEC4"},{"bufferView":3,"componentType":5126,"count":154,"type":"VEC2"},{"bufferView":4,"componentType":5126,"count":154,"type":"VEC2"},{"bufferView":5,"componentType":5126,"count":154,"type":"VEC4"},{"bufferView":6,"componentType":5123,"count":480,"type":"SCALAR"}],"bufferViews":[{"buffer":0,"byteOffset":0,"byteLength":1848},{"buffer":0,"byteOffset":1848,"byteLength":1848},{"buffer":0,"byteOffset":3696,"byteLength":2464},{"buffer":0,"byteOffset":6160,"byteLength":1232},{"buffer":0,"byteOffset":7392,"byteLength":1232},{"buffer":0,"byteOffset":8624,"byteLength":2464},{"buffer":0,"byteOffset":11088,"byteLength":960}],"buffers":[{"byteLength":12048,"uri":"data:application/octet-stream;base64,"}]}
