{"asset":{"generator":"Khronos glTF Blender I/O v1.2.75","version":"2.0"},"scene":0,"scenes":[{"name":"Scene","nodes":[0]}],"nodes":[{"mesh":0,"name":"Mesh"}],"meshes":[{"name":"SM_Building12_02","primitives":[{"indices":5,"attributes":{"POSITION":0,"NORMAL":1,"TEXCOORD_0":2,"TEXCOORD_1":3,"TANGENT":4},"mode":4}]}],"accessors":[{"bufferView":0,"componentType":5126,"count":164,"type":"VEC3","min":[-1.023412857055664,-7.742643356323242e-7,-10.999998779296876],"max":[5.340576171875e-7,1.7142866516113282,0.0000010075102909468115]},{"bufferView":1,"componentType":5126,"count":164,"type":"VEC3"},{"bufferView":2,"componentType":5126,"count":164,"type":"VEC2"},{"bufferView":3,"componentType":5126,"count":164,"type":"VEC2"},{"bufferView":4,"componentType":5126,"count":164,"type":"VEC4"},{"bufferView":5,"componentType":5123,"count":372,"type":"SCALAR"}],"bufferViews":[{"buffer":0,"byteOffset":0,"byteLength":1968},{"buffer":0,"byteOffset":1968,"byteLength":1968},{"buffer":0,"byteOffset":3936,"byteLength":1312},{"buffer":0,"byteOffset":5248,"byteLength":1312},{"buffer":0,"byteOffset":6560,"byteLength":2624},{"buffer":0,"byteOffset":9184,"byteLength":744}],"buffers":[{"byteLength":9928,"uri":"data:application/octet-stream;base64,"}]}
