{"asset":{"generator":"Khronos glTF Blender I/O v1.2.75","version":"2.0"},"scene":0,"scenes":[{"name":"Scene","nodes":[0]}],"nodes":[{"mesh":0,"name":"Mesh"}],"meshes":[{"name":"SM_BG_Aircon01","primitives":[{"indices":5,"attributes":{"POSITION":0,"NORMAL":1,"TEXCOORD_0":2,"TEXCOORD_1":3,"TANGENT":4},"mode":4}]}],"accessors":[{"bufferView":0,"componentType":5126,"count":187,"type":"VEC3","min":[-1.7904486083984374,0.000001220703125,-1.77472412109375],"max":[1.7722901916503906,1.8323117065429688,1.796778564453125]},{"bufferView":1,"componentType":5126,"count":187,"type":"VEC3"},{"bufferView":2,"componentType":5126,"count":187,"type":"VEC2"},{"bufferView":3,"componentType":5126,"count":187,"type":"VEC2"},{"bufferView":4,"componentType":5126,"count":187,"type":"VEC4"},{"bufferView":5,"componentType":5123,"count":372,"type":"SCALAR"}],"bufferViews":[{"buffer":0,"byteOffset":0,"byteLength":2244},{"buffer":0,"byteOffset":2244,"byteLength":2244},{"buffer":0,"byteOffset":4488,"byteLength":1496},{"buffer":0,"byteOffset":5984,"byteLength":1496},{"buffer":0,"byteOffset":7480,"byteLength":2992},{"buffer":0,"byteOffset":10472,"byteLength":744}],"buffers":[{"byteLength":11216,"uri":"data:application/octet-stream;base64,"}]}
