{"asset":{"generator":"Khronos glTF Blender I/O v1.2.75","version":"2.0"},"scene":0,"scenes":[{"name":"Scene","nodes":[0]}],"nodes":[{"mesh":0,"name":"Mesh"}],"meshes":[{"name":"SM_Banner_03","primitives":[{"indices":5,"attributes":{"POSITION":0,"NORMAL":1,"TEXCOORD_0":2,"TEXCOORD_1":3,"TANGENT":4},"mode":4}]}],"accessors":[{"bufferView":0,"componentType":5126,"count":154,"type":"VEC3","min":[-0.06,-1.115400924682617,-0.6228739929199218],"max":[0.08012238502502442,0.009744220972061157,0.5165217590332031]},{"bufferView":1,"componentType":5126,"count":154,"type":"VEC3"},{"bufferView":2,"componentType":5126,"count":154,"type":"VEC2"},{"bufferView":3,"componentType":5126,"count":154,"type":"VEC2"},{"bufferView":4,"componentType":5126,"count":154,"type":"VEC4"},{"bufferView":5,"componentType":5123,"count":300,"type":"SCALAR"}],"bufferViews":[{"buffer":0,"byteOffset":0,"byteLength":1848},{"buffer":0,"byteOffset":1848,"byteLength":1848},{"buffer":0,"byteOffset":3696,"byteLength":1232},{"buffer":0,"byteOffset":4928,"byteLength":1232},{"buffer":0,"byteOffset":6160,"byteLength":2464},{"buffer":0,"byteOffset":8624,"byteLength":600}],"buffers":[{"byteLength":9224,"uri":"data:application/octet-stream;base64,"}]}
