{"asset":{"generator":"Khronos glTF Blender I/O v1.2.75","version":"2.0"},"scene":0,"scenes":[{"name":"Scene","nodes":[0]}],"nodes":[{"mesh":0,"name":"Mesh"}],"meshes":[{"name":"SM_Banner_03","primitives":[{"indices":5,"attributes":{"POSITION":0,"NORMAL":1,"TEXCOORD_0":2,"TEXCOORD_1":3,"TANGENT":4},"mode":4}]}],"accessors":[{"bufferView":0,"componentType":5126,"count":47,"type":"VEC3","min":[-0.06,-1.115400924682617,-0.6228739929199218],"max":[0.08012238502502442,0.009744220972061157,0.5165217590332031]},{"bufferView":1,"componentType":5126,"count":47,"type":"VEC3"},{"bufferView":2,"componentType":5126,"count":47,"type":"VEC2"},{"bufferView":3,"componentType":5126,"count":47,"type":"VEC2"},{"bufferView":4,"componentType":5126,"count":47,"type":"VEC4"},{"bufferView":5,"componentType":5123,"count":72,"type":"SCALAR"}],"bufferViews":[{"buffer":0,"byteOffset":0,"byteLength":564},{"buffer":0,"byteOffset":564,"byteLength":564},{"buffer":0,"byteOffset":1128,"byteLength":376},{"buffer":0,"byteOffset":1504,"byteLength":376},{"buffer":0,"byteOffset":1880,"byteLength":752},{"buffer":0,"byteOffset":2632,"byteLength":144}],"buffers":[{"byteLength":2776,"uri":"data:application/octet-stream;base64,"}]}
