{"asset":{"generator":"Khronos glTF Blender I/O v1.2.75","version":"2.0"},"scene":0,"scenes":[{"name":"Scene","nodes":[0]}],"nodes":[{"mesh":0,"name":"Mesh"}],"meshes":[{"name":"SM_Banner_03","primitives":[{"indices":5,"attributes":{"POSITION":0,"NORMAL":1,"TEXCOORD_0":2,"TEXCOORD_1":3,"TANGENT":4},"mode":4}]}],"accessors":[{"bufferView":0,"componentType":5126,"count":85,"type":"VEC3","min":[-0.06,-1.115400924682617,-0.6228739929199218],"max":[0.08012238502502442,0.009744220972061157,0.5165217590332031]},{"bufferView":1,"componentType":5126,"count":85,"type":"VEC3"},{"bufferView":2,"componentType":5126,"count":85,"type":"VEC2"},{"bufferView":3,"componentType":5126,"count":85,"type":"VEC2"},{"bufferView":4,"componentType":5126,"count":85,"type":"VEC4"},{"bufferView":5,"componentType":5123,"count":150,"type":"SCALAR"}],"bufferViews":[{"buffer":0,"byteOffset":0,"byteLength":1020},{"buffer":0,"byteOffset":1020,"byteLength":1020},{"buffer":0,"byteOffset":2040,"byteLength":680},{"buffer":0,"byteOffset":2720,"byteLength":680},{"buffer":0,"byteOffset":3400,"byteLength":1360},{"buffer":0,"byteOffset":4760,"byteLength":300}],"buffers":[{"byteLength":5060,"uri":"data:application/octet-stream;base64,"}]}
