{"asset":{"generator":"Khronos glTF Blender I/O v1.2.75","version":"2.0"},"scene":0,"scenes":[{"name":"Scene","nodes":[0]}],"nodes":[{"mesh":0,"name":"Mesh"}],"meshes":[{"name":"SM_AirConditioner01","primitives":[{"indices":6,"attributes":{"POSITION":0,"NORMAL":1,"COLOR_0":2,"TEXCOORD_0":3,"TEXCOORD_1":4,"TANGENT":5},"mode":4},{"indices":13,"attributes":{"POSITION":7,"NORMAL":8,"COLOR_0":9,"TEXCOORD_0":10,"TEXCOORD_1":11,"TANGENT":12},"mode":4}]}],"accessors":[{"bufferView":0,"componentType":5126,"count":3444,"type":"VEC3","min":[-0.5544599914550781,0.00077606201171875,-0.3651824188232422],"max":[0.5544599914550781,1.6691400146484374,0.3651824188232422]},{"bufferView":1,"componentType":5126,"count":3444,"type":"VEC3"},{"bufferView":2,"componentType":5126,"count":3468,"type":"VEC4"},{"bufferView":3,"componentType":5126,"count":3444,"type":"VEC2"},{"bufferView":4,"componentType":5126,"count":3444,"type":"VEC2"},{"bufferView":5,"componentType":5126,"count":3444,"type":"VEC4"},{"bufferView":6,"componentType":5123,"count":8994,"type":"SCALAR"},{"bufferView":7,"componentType":5126,"count":24,"type":"VEC3","min":[-0.5544599914550781,0.00077606201171875,-0.3651824188232422],"max":[0.5544599914550781,1.6691400146484374,0.3651824188232422]},{"bufferView":8,"componentType":5126,"count":24,"type":"VEC3"},{"bufferView":9,"componentType":5126,"count":3468,"type":"VEC4"},{"bufferView":10,"componentType":5126,"count":24,"type":"VEC2"},{"bufferView":11,"componentType":5126,"count":24,"type":"VEC2"},{"bufferView":12,"componentType":5126,"count":24,"type":"VEC4"},{"bufferView":13,"componentType":5123,"count":36,"type":"SCALAR"}],"bufferViews":[{"buffer":0,"byteOffset":0,"byteLength":41328},{"buffer":0,"byteOffset":41328,"byteLength":41328},{"buffer":0,"byteOffset":82656,"byteLength":55488},{"buffer":0,"byteOffset":138144,"byteLength":27552},{"buffer":0,"byteOffset":165696,"byteLength":27552},{"buffer":0,"byteOffset":193248,"byteLength":55104},{"buffer":0,"byteOffset":248352,"byteLength":17988},{"buffer":1,"byteOffset":0,"byteLength":288},{"buffer":1,"byteOffset":288,"byteLength":288},{"buffer":1,"byteOffset":576,"byteLength":55488},{"buffer":1,"byteOffset":56064,"byteLength":192},{"buffer":1,"byteOffset":56256,"byteLength":192},{"buffer":1,"byteOffset":56448,"byteLength":384},{"buffer":1,"byteOffset":56832,"byteLength":72}],"buffers":[{"byteLength":266340,"uri":"data:application/octet-stream;base64,"},{"byteLength":56904,"uri":"data:application/octet-stream;base64,"}]}
