{"asset":{"generator":"Khronos glTF Blender I/O v1.2.75","version":"2.0"},"scene":0,"scenes":[{"name":"Scene","nodes":[0]}],"nodes":[{"mesh":0,"name":"Mesh"}],"meshes":[{"name":"SM_Pipe_W","primitives":[{"indices":5,"attributes":{"POSITION":0,"NORMAL":1,"TEXCOORD_0":2,"TEXCOORD_1":3,"TANGENT":4},"mode":4}]}],"accessors":[{"bufferView":0,"componentType":5126,"count":484,"type":"VEC3","min":[-0.6,-0.12742557525634765,-0.30000001907348633],"max":[0,0.1274256420135498,0.127425537109375]},{"bufferView":1,"componentType":5126,"count":484,"type":"VEC3"},{"bufferView":2,"componentType":5126,"count":484,"type":"VEC2"},{"bufferView":3,"componentType":5126,"count":484,"type":"VEC2"},{"bufferView":4,"componentType":5126,"count":484,"type":"VEC4"},{"bufferView":5,"componentType":5123,"count":1392,"type":"SCALAR"}],"bufferViews":[{"buffer":0,"byteOffset":0,"byteLength":5808},{"buffer":0,"byteOffset":5808,"byteLength":5808},{"buffer":0,"byteOffset":11616,"byteLength":3872},{"buffer":0,"byteOffset":15488,"byteLength":3872},{"buffer":0,"byteOffset":19360,"byteLength":7744},{"buffer":0,"byteOffset":27104,"byteLength":2784}],"buffers":[{"byteLength":29888,"uri":"data:application/octet-stream;base64,"}]}
