{"asset":{"generator":"Khronos glTF Blender I/O v1.2.75","version":"2.0"},"scene":0,"scenes":[{"name":"Scene","nodes":[0]}],"nodes":[{"mesh":0,"name":"Mesh"}],"meshes":[{"name":"SM_PipeGroup15","primitives":[{"indices":5,"attributes":{"POSITION":0,"NORMAL":1,"TEXCOORD_0":2,"TEXCOORD_1":3,"TANGENT":4},"mode":4}]}],"accessors":[{"bufferView":0,"componentType":5126,"count":927,"type":"VEC3","min":[-0.008554790616035462,-0.15936882972717284,-12.76125244140625],"max":[6.565864868164063,0.15192769050598146,0.1321015739440918]},{"bufferView":1,"componentType":5126,"count":927,"type":"VEC3"},{"bufferView":2,"componentType":5126,"count":927,"type":"VEC2"},{"bufferView":3,"componentType":5126,"count":927,"type":"VEC2"},{"bufferView":4,"componentType":5126,"count":927,"type":"VEC4"},{"bufferView":5,"componentType":5123,"count":2553,"type":"SCALAR"}],"bufferViews":[{"buffer":0,"byteOffset":0,"byteLength":11124},{"buffer":0,"byteOffset":11124,"byteLength":11124},{"buffer":0,"byteOffset":22248,"byteLength":7416},{"buffer":0,"byteOffset":29664,"byteLength":7416},{"buffer":0,"byteOffset":37080,"byteLength":14832},{"buffer":0,"byteOffset":51912,"byteLength":5106}],"buffers":[{"byteLength":57018,"uri":"data:application/octet-stream;base64,"}]}
