{"asset":{"generator":"Khronos glTF Blender I/O v1.2.75","version":"2.0"},"scene":0,"scenes":[{"name":"Scene","nodes":[0]}],"nodes":[{"mesh":0,"name":"Mesh"}],"meshes":[{"name":"SM_PipeGroup15","primitives":[{"indices":5,"attributes":{"POSITION":0,"NORMAL":1,"TEXCOORD_0":2,"TEXCOORD_1":3,"TANGENT":4},"mode":4}]}],"accessors":[{"bufferView":0,"componentType":5126,"count":1652,"type":"VEC3","min":[-0.008554790616035462,-0.15936882972717284,-12.76125244140625],"max":[6.565864868164063,0.15192769050598146,0.1321015739440918]},{"bufferView":1,"componentType":5126,"count":1652,"type":"VEC3"},{"bufferView":2,"componentType":5126,"count":1652,"type":"VEC2"},{"bufferView":3,"componentType":5126,"count":1652,"type":"VEC2"},{"bufferView":4,"componentType":5126,"count":1652,"type":"VEC4"},{"bufferView":5,"componentType":5123,"count":5112,"type":"SCALAR"}],"bufferViews":[{"buffer":0,"byteOffset":0,"byteLength":19824},{"buffer":0,"byteOffset":19824,"byteLength":19824},{"buffer":0,"byteOffset":39648,"byteLength":13216},{"buffer":0,"byteOffset":52864,"byteLength":13216},{"buffer":0,"byteOffset":66080,"byteLength":26432},{"buffer":0,"byteOffset":92512,"byteLength":10224}],"buffers":[{"byteLength":102736,"uri":"data:application/octet-stream;base64,"}]}
