{"asset":{"generator":"Khronos glTF Blender I/O v1.2.75","version":"2.0"},"scene":0,"scenes":[{"name":"Scene","nodes":[0]}],"nodes":[{"mesh":0,"name":"Mesh"}],"meshes":[{"name":"SM_PillarSmall01","primitives":[{"indices":6,"attributes":{"POSITION":0,"NORMAL":1,"COLOR_0":2,"TEXCOORD_0":3,"TEXCOORD_1":4,"TANGENT":5},"mode":4}]}],"accessors":[{"bufferView":0,"componentType":5126,"count":225,"type":"VEC3","min":[-0.14304784774780274,-0.0014135873317718507,-0.15713927268981934],"max":[0.140219783782959,1.5679966735839843,0.14283722877502442]},{"bufferView":1,"componentType":5126,"count":225,"type":"VEC3"},{"bufferView":2,"componentType":5126,"count":225,"type":"VEC4"},{"bufferView":3,"componentType":5126,"count":225,"type":"VEC2"},{"bufferView":4,"componentType":5126,"count":225,"type":"VEC2"},{"bufferView":5,"componentType":5126,"count":225,"type":"VEC4"},{"bufferView":6,"componentType":5123,"count":531,"type":"SCALAR"}],"bufferViews":[{"buffer":0,"byteOffset":0,"byteLength":2700},{"buffer":0,"byteOffset":2700,"byteLength":2700},{"buffer":0,"byteOffset":5400,"byteLength":3600},{"buffer":0,"byteOffset":9000,"byteLength":1800},{"buffer":0,"byteOffset":10800,"byteLength":1800},{"buffer":0,"byteOffset":12600,"byteLength":3600},{"buffer":0,"byteOffset":16200,"byteLength":1062}],"buffers":[{"byteLength":17262,"uri":"data:application/octet-stream;base64,"}]}
