{"asset":{"generator":"Khronos glTF Blender I/O v1.2.75","version":"2.0"},"scene":0,"scenes":[{"name":"Scene","nodes":[0]}],"nodes":[{"mesh":0,"name":"Mesh"}],"meshes":[{"name":"SM_PillarSmall01","primitives":[{"indices":6,"attributes":{"POSITION":0,"NORMAL":1,"COLOR_0":2,"TEXCOORD_0":3,"TEXCOORD_1":4,"TANGENT":5},"mode":4}]}],"accessors":[{"bufferView":0,"componentType":5126,"count":54,"type":"VEC3","min":[-0.14304784774780274,-0.0014135873317718507,-0.15713927268981934],"max":[0.140219783782959,1.5679966735839843,0.14283722877502442]},{"bufferView":1,"componentType":5126,"count":54,"type":"VEC3"},{"bufferView":2,"componentType":5126,"count":54,"type":"VEC4"},{"bufferView":3,"componentType":5126,"count":54,"type":"VEC2"},{"bufferView":4,"componentType":5126,"count":54,"type":"VEC2"},{"bufferView":5,"componentType":5126,"count":54,"type":"VEC4"},{"bufferView":6,"componentType":5123,"count":135,"type":"SCALAR"}],"bufferViews":[{"buffer":0,"byteOffset":0,"byteLength":648},{"buffer":0,"byteOffset":648,"byteLength":648},{"buffer":0,"byteOffset":1296,"byteLength":864},{"buffer":0,"byteOffset":2160,"byteLength":432},{"buffer":0,"byteOffset":2592,"byteLength":432},{"buffer":0,"byteOffset":3024,"byteLength":864},{"buffer":0,"byteOffset":3888,"byteLength":270}],"buffers":[{"byteLength":4158,"uri":"data:application/octet-stream;base64,"}]}
