{"asset":{"generator":"Khronos glTF Blender I/O v1.2.75","version":"2.0"},"scene":0,"scenes":[{"name":"Scene","nodes":[0]}],"nodes":[{"mesh":0,"name":"Mesh"}],"meshes":[{"name":"SM_FenceMerged01","primitives":[{"indices":5,"attributes":{"POSITION":0,"NORMAL":1,"TEXCOORD_0":2,"TEXCOORD_1":3,"TANGENT":4},"mode":4}]}],"accessors":[{"bufferView":0,"componentType":5126,"count":768,"type":"VEC3","min":[-12.77471923828125,-0.002799307107925415,-0.1554098606109619],"max":[0.073204345703125,1.130712890625,0.03516951084136963]},{"bufferView":1,"componentType":5126,"count":768,"type":"VEC3"},{"bufferView":2,"componentType":5126,"count":768,"type":"VEC2"},{"bufferView":3,"componentType":5126,"count":768,"type":"VEC2"},{"bufferView":4,"componentType":5126,"count":768,"type":"VEC4"},{"bufferView":5,"componentType":5123,"count":972,"type":"SCALAR"}],"bufferViews":[{"buffer":0,"byteOffset":0,"byteLength":9216},{"buffer":0,"byteOffset":9216,"byteLength":9216},{"buffer":0,"byteOffset":18432,"byteLength":6144},{"buffer":0,"byteOffset":24576,"byteLength":6144},{"buffer":0,"byteOffset":30720,"byteLength":12288},{"buffer":0,"byteOffset":43008,"byteLength":1944}],"buffers":[{"byteLength":44952,"uri":"data:application/octet-stream;base64,"}]}
