{"asset":{"generator":"Khronos glTF Blender I/O v1.2.75","version":"2.0"},"scene":0,"scenes":[{"name":"Scene","nodes":[0]}],"nodes":[{"mesh":0,"name":"Mesh"}],"meshes":[{"name":"SM_FenceMerged01","primitives":[{"indices":5,"attributes":{"POSITION":0,"NORMAL":1,"TEXCOORD_0":2,"TEXCOORD_1":3,"TANGENT":4},"mode":4}]}],"accessors":[{"bufferView":0,"componentType":5126,"count":4842,"type":"VEC3","min":[-12.77471923828125,-0.002799307107925415,-0.1554098606109619],"max":[0.073204345703125,1.130712890625,0.03516951084136963]},{"bufferView":1,"componentType":5126,"count":4842,"type":"VEC3"},{"bufferView":2,"componentType":5126,"count":4842,"type":"VEC2"},{"bufferView":3,"componentType":5126,"count":4842,"type":"VEC2"},{"bufferView":4,"componentType":5126,"count":4842,"type":"VEC4"},{"bufferView":5,"componentType":5123,"count":9720,"type":"SCALAR"}],"bufferViews":[{"buffer":0,"byteOffset":0,"byteLength":58104},{"buffer":0,"byteOffset":58104,"byteLength":58104},{"buffer":0,"byteOffset":116208,"byteLength":38736},{"buffer":0,"byteOffset":154944,"byteLength":38736},{"buffer":0,"byteOffset":193680,"byteLength":77472},{"buffer":0,"byteOffset":271152,"byteLength":19440}],"buffers":[{"byteLength":290592,"uri":"data:application/octet-stream;base64,"}]}
