{"asset":{"generator":"Khronos glTF Blender I/O v1.2.75","version":"2.0"},"scene":0,"scenes":[{"name":"Scene","nodes":[0]}],"nodes":[{"mesh":0,"name":"Mesh"}],"meshes":[{"name":"SM_FenceMerged01","primitives":[{"indices":5,"attributes":{"POSITION":0,"NORMAL":1,"TEXCOORD_0":2,"TEXCOORD_1":3,"TANGENT":4},"mode":4}]}],"accessors":[{"bufferView":0,"componentType":5126,"count":3146,"type":"VEC3","min":[-12.77471923828125,-0.002799307107925415,-0.1554098606109619],"max":[0.073204345703125,1.130712890625,0.03516951084136963]},{"bufferView":1,"componentType":5126,"count":3146,"type":"VEC3"},{"bufferView":2,"componentType":5126,"count":3146,"type":"VEC2"},{"bufferView":3,"componentType":5126,"count":3146,"type":"VEC2"},{"bufferView":4,"componentType":5126,"count":3146,"type":"VEC4"},{"bufferView":5,"componentType":5123,"count":4860,"type":"SCALAR"}],"bufferViews":[{"buffer":0,"byteOffset":0,"byteLength":37752},{"buffer":0,"byteOffset":37752,"byteLength":37752},{"buffer":0,"byteOffset":75504,"byteLength":25168},{"buffer":0,"byteOffset":100672,"byteLength":25168},{"buffer":0,"byteOffset":125840,"byteLength":50336},{"buffer":0,"byteOffset":176176,"byteLength":9720}],"buffers":[{"byteLength":185896,"uri":"data:application/octet-stream;base64,"}]}
