{"asset":{"generator":"Khronos glTF Blender I/O v1.2.75","version":"2.0"},"scene":0,"scenes":[{"name":"Scene","nodes":[0]}],"nodes":[{"mesh":0,"name":"Mesh"}],"meshes":[{"name":"SM_Building05_04","primitives":[{"indices":5,"attributes":{"POSITION":0,"NORMAL":1,"TEXCOORD_0":2,"TEXCOORD_1":3,"TANGENT":4},"mode":4}]}],"accessors":[{"bufferView":0,"componentType":5126,"count":86,"type":"VEC3","min":[-0.07289291381835937,5.87040231039282e-7,-0.6937091064453125],"max":[14.89497802734375,1.3783326721191407,0.1468922233581543]},{"bufferView":1,"componentType":5126,"count":86,"type":"VEC3"},{"bufferView":2,"componentType":5126,"count":86,"type":"VEC2"},{"bufferView":3,"componentType":5126,"count":86,"type":"VEC2"},{"bufferView":4,"componentType":5126,"count":86,"type":"VEC4"},{"bufferView":5,"componentType":5123,"count":156,"type":"SCALAR"}],"bufferViews":[{"buffer":0,"byteOffset":0,"byteLength":1032},{"buffer":0,"byteOffset":1032,"byteLength":1032},{"buffer":0,"byteOffset":2064,"byteLength":688},{"buffer":0,"byteOffset":2752,"byteLength":688},{"buffer":0,"byteOffset":3440,"byteLength":1376},{"buffer":0,"byteOffset":4816,"byteLength":312}],"buffers":[{"byteLength":5128,"uri":"data:application/octet-stream;base64,"}]}
