{"asset":{"generator":"Khronos glTF Blender I/O v1.2.75","version":"2.0"},"scene":0,"scenes":[{"name":"Scene","nodes":[0]}],"nodes":[{"mesh":0,"name":"Mesh"}],"meshes":[{"name":"SM_Bridge","primitives":[{"indices":5,"attributes":{"POSITION":0,"NORMAL":1,"TEXCOORD_0":2,"TEXCOORD_1":3,"TANGENT":4},"mode":4}]}],"accessors":[{"bufferView":0,"componentType":5126,"count":8285,"type":"VEC3","min":[-2.000023193359375,-1.0291977691650391,-13.498994140625],"max":[0,1.9072496032714843,0.5626269149780273]},{"bufferView":1,"componentType":5126,"count":8285,"type":"VEC3"},{"bufferView":2,"componentType":5126,"count":8285,"type":"VEC2"},{"bufferView":3,"componentType":5126,"count":8285,"type":"VEC2"},{"bufferView":4,"componentType":5126,"count":8285,"type":"VEC4"},{"bufferView":5,"componentType":5123,"count":10428,"type":"SCALAR"}],"bufferViews":[{"buffer":0,"byteOffset":0,"byteLength":99420},{"buffer":0,"byteOffset":99420,"byteLength":99420},{"buffer":0,"byteOffset":198840,"byteLength":66280},{"buffer":0,"byteOffset":265120,"byteLength":66280},{"buffer":0,"byteOffset":331400,"byteLength":132560},{"buffer":0,"byteOffset":463960,"byteLength":20856}],"buffers":[{"byteLength":484816,"uri":"data:application/octet-stream;base64,"}]}
