{"asset":{"generator":"Khronos glTF Blender I/O v1.2.75","version":"2.0"},"scene":0,"scenes":[{"name":"Scene","nodes":[0]}],"nodes":[{"mesh":0,"name":"Mesh"}],"meshes":[{"name":"SM_Bridge","primitives":[{"indices":5,"attributes":{"POSITION":0,"NORMAL":1,"TEXCOORD_0":2,"TEXCOORD_1":3,"TANGENT":4},"mode":4}]}],"accessors":[{"bufferView":0,"componentType":5126,"count":1946,"type":"VEC3","min":[-2.000023193359375,-1.0291977691650391,-13.498994140625],"max":[0,1.9072496032714843,0.5626269149780273]},{"bufferView":1,"componentType":5126,"count":1946,"type":"VEC3"},{"bufferView":2,"componentType":5126,"count":1946,"type":"VEC2"},{"bufferView":3,"componentType":5126,"count":1946,"type":"VEC2"},{"bufferView":4,"componentType":5126,"count":1946,"type":"VEC4"},{"bufferView":5,"componentType":5123,"count":2604,"type":"SCALAR"}],"bufferViews":[{"buffer":0,"byteOffset":0,"byteLength":23352},{"buffer":0,"byteOffset":23352,"byteLength":23352},{"buffer":0,"byteOffset":46704,"byteLength":15568},{"buffer":0,"byteOffset":62272,"byteLength":15568},{"buffer":0,"byteOffset":77840,"byteLength":31136},{"buffer":0,"byteOffset":108976,"byteLength":5208}],"buffers":[{"byteLength":114184,"uri":"data:application/octet-stream;base64,"}]}
