{"asset":{"generator":"Khronos glTF Blender I/O v1.2.75","version":"2.0"},"scene":0,"scenes":[{"name":"Scene","nodes":[0]}],"nodes":[{"mesh":0,"name":"Mesh"}],"meshes":[{"name":"SM_RoofMain_02","primitives":[{"indices":5,"attributes":{"POSITION":0,"NORMAL":1,"TEXCOORD_0":2,"TEXCOORD_1":3,"TANGENT":4},"mode":4}]}],"accessors":[{"bufferView":0,"componentType":5126,"count":1899,"type":"VEC3","min":[-6.103515625e-7,-5.6539006436651105e-8,-9.184850891462947e-17],"max":[11.2,1.5,11.1]},{"bufferView":1,"componentType":5126,"count":1899,"type":"VEC3"},{"bufferView":2,"componentType":5126,"count":1899,"type":"VEC2"},{"bufferView":3,"componentType":5126,"count":1899,"type":"VEC2"},{"bufferView":4,"componentType":5126,"count":1899,"type":"VEC4"},{"bufferView":5,"componentType":5123,"count":4644,"type":"SCALAR"}],"bufferViews":[{"buffer":0,"byteOffset":0,"byteLength":22788},{"buffer":0,"byteOffset":22788,"byteLength":22788},{"buffer":0,"byteOffset":45576,"byteLength":15192},{"buffer":0,"byteOffset":60768,"byteLength":15192},{"buffer":0,"byteOffset":75960,"byteLength":30384},{"buffer":0,"byteOffset":106344,"byteLength":9288}],"buffers":[{"byteLength":115632,"uri":"data:application/octet-stream;base64,"}]}
