{"asset":{"generator":"Khronos glTF Blender I/O v1.2.75","version":"2.0"},"scene":0,"scenes":[{"name":"Scene","nodes":[0]}],"nodes":[{"mesh":0,"name":"Mesh"}],"meshes":[{"name":"SM_MetalBeam08","primitives":[{"indices":6,"attributes":{"POSITION":0,"NORMAL":1,"COLOR_0":2,"TEXCOORD_0":3,"TEXCOORD_1":4,"TANGENT":5},"mode":4}]}],"accessors":[{"bufferView":0,"componentType":5126,"count":4200,"type":"VEC3","min":[-0.8094329833984375,0,-0.9561813354492188],"max":[15.030225830078125,23.44265380859375,0.6626844787597657]},{"bufferView":1,"componentType":5126,"count":4200,"type":"VEC3"},{"bufferView":2,"componentType":5126,"count":4200,"type":"VEC4"},{"bufferView":3,"componentType":5126,"count":4200,"type":"VEC2"},{"bufferView":4,"componentType":5126,"count":4200,"type":"VEC2"},{"bufferView":5,"componentType":5126,"count":4200,"type":"VEC4"},{"bufferView":6,"componentType":5123,"count":12846,"type":"SCALAR"}],"bufferViews":[{"buffer":0,"byteOffset":0,"byteLength":50400},{"buffer":0,"byteOffset":50400,"byteLength":50400},{"buffer":0,"byteOffset":100800,"byteLength":67200},{"buffer":0,"byteOffset":168000,"byteLength":33600},{"buffer":0,"byteOffset":201600,"byteLength":33600},{"buffer":0,"byteOffset":235200,"byteLength":67200},{"buffer":0,"byteOffset":302400,"byteLength":25692}],"buffers":[{"byteLength":328092,"uri":"data:application/octet-stream;base64,"}]}
