{"asset":{"generator":"Khronos glTF Blender I/O v1.2.75","version":"2.0"},"scene":0,"scenes":[{"name":"Scene","nodes":[0]}],"nodes":[{"mesh":0,"name":"Mesh"}],"meshes":[{"name":"SM_Building08_01","primitives":[{"indices":5,"attributes":{"POSITION":0,"NORMAL":1,"TEXCOORD_0":2,"TEXCOORD_1":3,"TANGENT":4},"mode":4}]}],"accessors":[{"bufferView":0,"componentType":5126,"count":48,"type":"VEC3","min":[-1.5,-3.814697265625e-7,-1.30000244140625],"max":[1.1309875844744966e-8,9.999999389648437,0.000004039389605168253]},{"bufferView":1,"componentType":5126,"count":48,"type":"VEC3"},{"bufferView":2,"componentType":5126,"count":48,"type":"VEC2"},{"bufferView":3,"componentType":5126,"count":48,"type":"VEC2"},{"bufferView":4,"componentType":5126,"count":48,"type":"VEC4"},{"bufferView":5,"componentType":5123,"count":84,"type":"SCALAR"}],"bufferViews":[{"buffer":0,"byteOffset":0,"byteLength":576},{"buffer":0,"byteOffset":576,"byteLength":576},{"buffer":0,"byteOffset":1152,"byteLength":384},{"buffer":0,"byteOffset":1536,"byteLength":384},{"buffer":0,"byteOffset":1920,"byteLength":768},{"buffer":0,"byteOffset":2688,"byteLength":168}],"buffers":[{"byteLength":2856,"uri":"data:application/octet-stream;base64,"}]}
