{"asset":{"generator":"Khronos glTF Blender I/O v1.2.75","version":"2.0"},"scene":0,"scenes":[{"name":"Scene","nodes":[0]}],"nodes":[{"mesh":0,"name":"Mesh"}],"meshes":[{"name":"SM_Building08_04","primitives":[{"indices":5,"attributes":{"POSITION":0,"NORMAL":1,"TEXCOORD_0":2,"TEXCOORD_1":3,"TANGENT":4},"mode":4}]}],"accessors":[{"bufferView":0,"componentType":5126,"count":152,"type":"VEC3","min":[-1.604378662109375,-9.417785034179687,-3.0517578125e-7],"max":[-0.000001220703125,0,1.3550003051757813]},{"bufferView":1,"componentType":5126,"count":152,"type":"VEC3"},{"bufferView":2,"componentType":5126,"count":152,"type":"VEC2"},{"bufferView":3,"componentType":5126,"count":152,"type":"VEC2"},{"bufferView":4,"componentType":5126,"count":152,"type":"VEC4"},{"bufferView":5,"componentType":5123,"count":468,"type":"SCALAR"}],"bufferViews":[{"buffer":0,"byteOffset":0,"byteLength":1824},{"buffer":0,"byteOffset":1824,"byteLength":1824},{"buffer":0,"byteOffset":3648,"byteLength":1216},{"buffer":0,"byteOffset":4864,"byteLength":1216},{"buffer":0,"byteOffset":6080,"byteLength":2432},{"buffer":0,"byteOffset":8512,"byteLength":936}],"buffers":[{"byteLength":9448,"uri":"data:application/octet-stream;base64,"}]}
