{"asset":{"generator":"Khronos glTF Blender I/O v1.2.75","version":"2.0"},"scene":0,"scenes":[{"name":"Scene","nodes":[0]}],"nodes":[{"mesh":0,"name":"Mesh"}],"meshes":[{"name":"SM_SignboardText02","primitives":[{"indices":5,"attributes":{"POSITION":0,"NORMAL":1,"TEXCOORD_0":2,"TEXCOORD_1":3,"TANGENT":4},"mode":4}]}],"accessors":[{"bufferView":0,"componentType":5126,"count":648,"type":"VEC3","min":[-5.35732421875,-0.7734611511230469,-0.025776164531707765],"max":[5.35732421875,0.7629618835449219,0.24168815612792968]},{"bufferView":1,"componentType":5126,"count":648,"type":"VEC3"},{"bufferView":2,"componentType":5126,"count":648,"type":"VEC2"},{"bufferView":3,"componentType":5126,"count":648,"type":"VEC2"},{"bufferView":4,"componentType":5126,"count":648,"type":"VEC4"},{"bufferView":5,"componentType":5123,"count":1188,"type":"SCALAR"}],"bufferViews":[{"buffer":0,"byteOffset":0,"byteLength":7776},{"buffer":0,"byteOffset":7776,"byteLength":7776},{"buffer":0,"byteOffset":15552,"byteLength":5184},{"buffer":0,"byteOffset":20736,"byteLength":5184},{"buffer":0,"byteOffset":25920,"byteLength":10368},{"buffer":0,"byteOffset":36288,"byteLength":2376}],"buffers":[{"byteLength":38664,"uri":"data:application/octet-stream;base64,"}]}
