{"asset":{"generator":"Khronos glTF Blender I/O v1.2.75","version":"2.0"},"scene":0,"scenes":[{"name":"Scene","nodes":[0]}],"nodes":[{"mesh":0,"name":"Mesh"}],"meshes":[{"name":"SM_Antenna","primitives":[{"indices":5,"attributes":{"POSITION":0,"NORMAL":1,"TEXCOORD_0":2,"TEXCOORD_1":3,"TANGENT":4},"mode":4}]}],"accessors":[{"bufferView":0,"componentType":5126,"count":4361,"type":"VEC3","min":[-3.014913330078125,-0.1342194652557373,-2.958253173828125],"max":[2.4714093017578125,33.17413330078125,1.9639430236816406]},{"bufferView":1,"componentType":5126,"count":4361,"type":"VEC3"},{"bufferView":2,"componentType":5126,"count":4361,"type":"VEC2"},{"bufferView":3,"componentType":5126,"count":4361,"type":"VEC2"},{"bufferView":4,"componentType":5126,"count":4361,"type":"VEC4"},{"bufferView":5,"componentType":5123,"count":7650,"type":"SCALAR"}],"bufferViews":[{"buffer":0,"byteOffset":0,"byteLength":52332},{"buffer":0,"byteOffset":52332,"byteLength":52332},{"buffer":0,"byteOffset":104664,"byteLength":34888},{"buffer":0,"byteOffset":139552,"byteLength":34888},{"buffer":0,"byteOffset":174440,"byteLength":69776},{"buffer":0,"byteOffset":244216,"byteLength":15300}],"buffers":[{"byteLength":259516,"uri":"data:application/octet-stream;base64,"}]}
