{"asset":{"generator":"Khronos glTF Blender I/O v1.2.75","version":"2.0"},"scene":0,"scenes":[{"name":"Scene","nodes":[0]}],"nodes":[{"mesh":0,"name":"Mesh"}],"meshes":[{"name":"SM_Condition","primitives":[{"indices":5,"attributes":{"POSITION":0,"NORMAL":1,"TEXCOORD_0":2,"TEXCOORD_1":3,"TANGENT":4},"mode":4}]}],"accessors":[{"bufferView":0,"componentType":5126,"count":308,"type":"VEC3","min":[-0.003432736396789551,-0.027576191425323485,-0.04377464771270752],"max":[1.0395471954345703,0.8,0.4221586608886719]},{"bufferView":1,"componentType":5126,"count":308,"type":"VEC3"},{"bufferView":2,"componentType":5126,"count":308,"type":"VEC2"},{"bufferView":3,"componentType":5126,"count":308,"type":"VEC2"},{"bufferView":4,"componentType":5126,"count":308,"type":"VEC4"},{"bufferView":5,"componentType":5123,"count":546,"type":"SCALAR"}],"bufferViews":[{"buffer":0,"byteOffset":0,"byteLength":3696},{"buffer":0,"byteOffset":3696,"byteLength":3696},{"buffer":0,"byteOffset":7392,"byteLength":2464},{"buffer":0,"byteOffset":9856,"byteLength":2464},{"buffer":0,"byteOffset":12320,"byteLength":4928},{"buffer":0,"byteOffset":17248,"byteLength":1092}],"buffers":[{"byteLength":18340,"uri":"data:application/octet-stream;base64,"}]}
