{"asset":{"generator":"Khronos glTF Blender I/O v1.2.75","version":"2.0"},"scene":0,"scenes":[{"name":"Scene","nodes":[0]}],"nodes":[{"mesh":0,"name":"Mesh"}],"meshes":[{"name":"SM_NeonSig07","primitives":[{"indices":5,"attributes":{"POSITION":0,"NORMAL":1,"TEXCOORD_0":2,"TEXCOORD_1":3,"TANGENT":4},"mode":4}]}],"accessors":[{"bufferView":0,"componentType":5126,"count":826,"type":"VEC3","min":[-0.00000152587890625,-9.238502389052882e-7,-1.260492172241211],"max":[1.400130615234375,1.3872726440429688,0.1396352481842041]},{"bufferView":1,"componentType":5126,"count":826,"type":"VEC3"},{"bufferView":2,"componentType":5126,"count":826,"type":"VEC2"},{"bufferView":3,"componentType":5126,"count":826,"type":"VEC2"},{"bufferView":4,"componentType":5126,"count":826,"type":"VEC4"},{"bufferView":5,"componentType":5123,"count":3540,"type":"SCALAR"}],"bufferViews":[{"buffer":0,"byteOffset":0,"byteLength":9912},{"buffer":0,"byteOffset":9912,"byteLength":9912},{"buffer":0,"byteOffset":19824,"byteLength":6608},{"buffer":0,"byteOffset":26432,"byteLength":6608},{"buffer":0,"byteOffset":33040,"byteLength":13216},{"buffer":0,"byteOffset":46256,"byteLength":7080}],"buffers":[{"byteLength":53336,"uri":"data:application/octet-stream;base64,"}]}
