{"asset":{"generator":"Khronos glTF Blender I/O v1.2.75","version":"2.0"},"scene":0,"scenes":[{"name":"Scene","nodes":[0]}],"nodes":[{"mesh":0,"name":"Mesh"}],"meshes":[{"name":"SM_Stairs01","primitives":[{"indices":6,"attributes":{"POSITION":0,"NORMAL":1,"COLOR_0":2,"TEXCOORD_0":3,"TEXCOORD_1":4,"TANGENT":5},"mode":4}]}],"accessors":[{"bufferView":0,"componentType":5126,"count":512,"type":"VEC3","min":[-1.2986729431152344,3.4355925890849905e-7,-0.6497846221923829],"max":[7.155214552767575e-7,0.5922126770019531,0.6497840118408204]},{"bufferView":1,"componentType":5126,"count":512,"type":"VEC3"},{"bufferView":2,"componentType":5126,"count":512,"type":"VEC4"},{"bufferView":3,"componentType":5126,"count":512,"type":"VEC2"},{"bufferView":4,"componentType":5126,"count":512,"type":"VEC2"},{"bufferView":5,"componentType":5126,"count":512,"type":"VEC4"},{"bufferView":6,"componentType":5123,"count":768,"type":"SCALAR"}],"bufferViews":[{"buffer":0,"byteOffset":0,"byteLength":6144},{"buffer":0,"byteOffset":6144,"byteLength":6144},{"buffer":0,"byteOffset":12288,"byteLength":8192},{"buffer":0,"byteOffset":20480,"byteLength":4096},{"buffer":0,"byteOffset":24576,"byteLength":4096},{"buffer":0,"byteOffset":28672,"byteLength":8192},{"buffer":0,"byteOffset":36864,"byteLength":1536}],"buffers":[{"byteLength":38400,"uri":"data:application/octet-stream;base64,"}]}
