{"asset":{"generator":"Khronos glTF Blender I/O v1.2.75","version":"2.0"},"scene":0,"scenes":[{"name":"Scene","nodes":[0]}],"nodes":[{"mesh":0,"name":"Mesh"}],"meshes":[{"name":"SM_Pavement02","primitives":[{"indices":5,"attributes":{"POSITION":0,"NORMAL":1,"TEXCOORD_0":2,"TEXCOORD_1":3,"TANGENT":4},"mode":4},{"indices":11,"attributes":{"POSITION":6,"NORMAL":7,"TEXCOORD_0":8,"TEXCOORD_1":9,"TANGENT":10},"mode":4}]}],"accessors":[{"bufferView":0,"componentType":5126,"count":136,"type":"VEC3","min":[-5.0000003051757815,-1.4698512789443216e-23,-5.59841064453125],"max":[0.5837403869628907,0.4013581848144531,0]},{"bufferView":1,"componentType":5126,"count":136,"type":"VEC3"},{"bufferView":2,"componentType":5126,"count":136,"type":"VEC2"},{"bufferView":3,"componentType":5126,"count":136,"type":"VEC2"},{"bufferView":4,"componentType":5126,"count":136,"type":"VEC4"},{"bufferView":5,"componentType":5123,"count":348,"type":"SCALAR"},{"bufferView":6,"componentType":5126,"count":5,"type":"VEC3","min":[-5.0000003051757815,-1.4698512789443216e-23,-5.59841064453125],"max":[0.5837403869628907,0.4013581848144531,0]},{"bufferView":7,"componentType":5126,"count":5,"type":"VEC3"},{"bufferView":8,"componentType":5126,"count":5,"type":"VEC2"},{"bufferView":9,"componentType":5126,"count":5,"type":"VEC2"},{"bufferView":10,"componentType":5126,"count":5,"type":"VEC4"},{"bufferView":11,"componentType":5123,"count":9,"type":"SCALAR"}],"bufferViews":[{"buffer":0,"byteOffset":0,"byteLength":1632},{"buffer":0,"byteOffset":1632,"byteLength":1632},{"buffer":0,"byteOffset":3264,"byteLength":1088},{"buffer":0,"byteOffset":4352,"byteLength":1088},{"buffer":0,"byteOffset":5440,"byteLength":2176},{"buffer":0,"byteOffset":7616,"byteLength":696},{"buffer":1,"byteOffset":0,"byteLength":60},{"buffer":1,"byteOffset":60,"byteLength":60},{"buffer":1,"byteOffset":120,"byteLength":40},{"buffer":1,"byteOffset":160,"byteLength":40},{"buffer":1,"byteOffset":200,"byteLength":80},{"buffer":1,"byteOffset":280,"byteLength":18}],"buffers":[{"byteLength":8312,"uri":"data:application/octet-stream;base64,"},{"byteLength":298,"uri":"data:application/octet-stream;base64,"}]}
