{"asset":{"generator":"Khronos glTF Blender I/O v1.2.75","version":"2.0"},"scene":0,"scenes":[{"name":"Scene","nodes":[0]}],"nodes":[{"mesh":0,"name":"Mesh"}],"meshes":[{"name":"SM_SignboardText01","primitives":[{"indices":5,"attributes":{"POSITION":0,"NORMAL":1,"TEXCOORD_0":2,"TEXCOORD_1":3,"TANGENT":4},"mode":4}]}],"accessors":[{"bufferView":0,"componentType":5126,"count":1028,"type":"VEC3","min":[-3.01493896484375,-0.8219482421875,-0.007322582006454467],"max":[3.01493896484375,0.8079071044921875,0.23819252014160155]},{"bufferView":1,"componentType":5126,"count":1028,"type":"VEC3"},{"bufferView":2,"componentType":5126,"count":1028,"type":"VEC2"},{"bufferView":3,"componentType":5126,"count":1028,"type":"VEC2"},{"bufferView":4,"componentType":5126,"count":1028,"type":"VEC4"},{"bufferView":5,"componentType":5123,"count":2712,"type":"SCALAR"}],"bufferViews":[{"buffer":0,"byteOffset":0,"byteLength":12336},{"buffer":0,"byteOffset":12336,"byteLength":12336},{"buffer":0,"byteOffset":24672,"byteLength":8224},{"buffer":0,"byteOffset":32896,"byteLength":8224},{"buffer":0,"byteOffset":41120,"byteLength":16448},{"buffer":0,"byteOffset":57568,"byteLength":5424}],"buffers":[{"byteLength":62992,"uri":"data:application/octet-stream;base64,"}]}
