{"asset":{"generator":"Khronos glTF Blender I/O v1.2.75","version":"2.0"},"scene":0,"scenes":[{"name":"Scene","nodes":[0]}],"nodes":[{"mesh":0,"name":"Mesh"}],"meshes":[{"name":"SM_SignboardText01","primitives":[{"indices":5,"attributes":{"POSITION":0,"NORMAL":1,"TEXCOORD_0":2,"TEXCOORD_1":3,"TANGENT":4},"mode":4}]}],"accessors":[{"bufferView":0,"componentType":5126,"count":288,"type":"VEC3","min":[-3.01493896484375,-0.8219482421875,-0.007322582006454467],"max":[3.01493896484375,0.8079071044921875,0.23819252014160155]},{"bufferView":1,"componentType":5126,"count":288,"type":"VEC3"},{"bufferView":2,"componentType":5126,"count":288,"type":"VEC2"},{"bufferView":3,"componentType":5126,"count":288,"type":"VEC2"},{"bufferView":4,"componentType":5126,"count":288,"type":"VEC4"},{"bufferView":5,"componentType":5123,"count":540,"type":"SCALAR"}],"bufferViews":[{"buffer":0,"byteOffset":0,"byteLength":3456},{"buffer":0,"byteOffset":3456,"byteLength":3456},{"buffer":0,"byteOffset":6912,"byteLength":2304},{"buffer":0,"byteOffset":9216,"byteLength":2304},{"buffer":0,"byteOffset":11520,"byteLength":4608},{"buffer":0,"byteOffset":16128,"byteLength":1080}],"buffers":[{"byteLength":17208,"uri":"data:application/octet-stream;base64,"}]}
