{"asset":{"generator":"Khronos glTF Blender I/O v1.2.75","version":"2.0"},"scene":0,"scenes":[{"name":"Scene","nodes":[0]}],"nodes":[{"mesh":0,"name":"Mesh"}],"meshes":[{"name":"SM_Building05_11","primitives":[{"indices":5,"attributes":{"POSITION":0,"NORMAL":1,"TEXCOORD_0":2,"TEXCOORD_1":3,"TANGENT":4},"mode":4},{"indices":11,"attributes":{"POSITION":6,"NORMAL":7,"TEXCOORD_0":8,"TEXCOORD_1":9,"TANGENT":10},"mode":4}]}],"accessors":[{"bufferView":0,"componentType":5126,"count":500,"type":"VEC3","min":[-0.3004170036315918,-0.002663592100143433,-7.243701171875],"max":[17.58008544921875,1.404037322998047,5.9045361328125]},{"bufferView":1,"componentType":5126,"count":500,"type":"VEC3"},{"bufferView":2,"componentType":5126,"count":500,"type":"VEC2"},{"bufferView":3,"componentType":5126,"count":500,"type":"VEC2"},{"bufferView":4,"componentType":5126,"count":500,"type":"VEC4"},{"bufferView":5,"componentType":5123,"count":870,"type":"SCALAR"},{"bufferView":6,"componentType":5126,"count":96,"type":"VEC3","min":[-0.3004170036315918,-0.002663592100143433,-7.243701171875],"max":[17.58008544921875,1.404037322998047,5.9045361328125]},{"bufferView":7,"componentType":5126,"count":96,"type":"VEC3"},{"bufferView":8,"componentType":5126,"count":96,"type":"VEC2"},{"bufferView":9,"componentType":5126,"count":96,"type":"VEC2"},{"bufferView":10,"componentType":5126,"count":96,"type":"VEC4"},{"bufferView":11,"componentType":5123,"count":144,"type":"SCALAR"}],"bufferViews":[{"buffer":0,"byteOffset":0,"byteLength":6000},{"buffer":0,"byteOffset":6000,"byteLength":6000},{"buffer":0,"byteOffset":12000,"byteLength":4000},{"buffer":0,"byteOffset":16000,"byteLength":4000},{"buffer":0,"byteOffset":20000,"byteLength":8000},{"buffer":0,"byteOffset":28000,"byteLength":1740},{"buffer":1,"byteOffset":0,"byteLength":1152},{"buffer":1,"byteOffset":1152,"byteLength":1152},{"buffer":1,"byteOffset":2304,"byteLength":768},{"buffer":1,"byteOffset":3072,"byteLength":768},{"buffer":1,"byteOffset":3840,"byteLength":1536},{"buffer":1,"byteOffset":5376,"byteLength":288}],"buffers":[{"byteLength":29740,"uri":"data:application/octet-stream;base64,"},{"byteLength":5664,"uri":"data:application/octet-stream;base64,"}]}
