{"asset":{"generator":"Khronos glTF Blender I/O v1.2.75","version":"2.0"},"scene":0,"scenes":[{"name":"Scene","nodes":[0]}],"nodes":[{"mesh":0,"name":"Mesh"}],"meshes":[{"name":"SM_Building12_05","primitives":[{"indices":5,"attributes":{"POSITION":0,"NORMAL":1,"TEXCOORD_0":2,"TEXCOORD_1":3,"TANGENT":4},"mode":4}]}],"accessors":[{"bufferView":0,"componentType":5126,"count":4142,"type":"VEC3","min":[-20.3338134765625,-0.06488120555877686,-22.266904296875],"max":[3.742963963304646e-7,13.721788330078125,4.666845703125]},{"bufferView":1,"componentType":5126,"count":4142,"type":"VEC3"},{"bufferView":2,"componentType":5126,"count":4142,"type":"VEC2"},{"bufferView":3,"componentType":5126,"count":4142,"type":"VEC2"},{"bufferView":4,"componentType":5126,"count":4142,"type":"VEC4"},{"bufferView":5,"componentType":5123,"count":6180,"type":"SCALAR"}],"bufferViews":[{"buffer":0,"byteOffset":0,"byteLength":49704},{"buffer":0,"byteOffset":49704,"byteLength":49704},{"buffer":0,"byteOffset":99408,"byteLength":33136},{"buffer":0,"byteOffset":132544,"byteLength":33136},{"buffer":0,"byteOffset":165680,"byteLength":66272},{"buffer":0,"byteOffset":231952,"byteLength":12360}],"buffers":[{"byteLength":244312,"uri":"data:application/octet-stream;base64,"}]}
