{"asset":{"generator":"Khronos glTF Blender I/O v1.2.75","version":"2.0"},"scene":0,"scenes":[{"name":"Scene","nodes":[0]}],"nodes":[{"mesh":0,"name":"Mesh"}],"meshes":[{"name":"SM_Building12_05","primitives":[{"indices":5,"attributes":{"POSITION":0,"NORMAL":1,"TEXCOORD_0":2,"TEXCOORD_1":3,"TANGENT":4},"mode":4}]}],"accessors":[{"bufferView":0,"componentType":5126,"count":945,"type":"VEC3","min":[-20.3338134765625,-0.06488120555877686,-22.266904296875],"max":[3.742963963304646e-7,13.721788330078125,4.666845703125]},{"bufferView":1,"componentType":5126,"count":945,"type":"VEC3"},{"bufferView":2,"componentType":5126,"count":945,"type":"VEC2"},{"bufferView":3,"componentType":5126,"count":945,"type":"VEC2"},{"bufferView":4,"componentType":5126,"count":945,"type":"VEC4"},{"bufferView":5,"componentType":5123,"count":1542,"type":"SCALAR"}],"bufferViews":[{"buffer":0,"byteOffset":0,"byteLength":11340},{"buffer":0,"byteOffset":11340,"byteLength":11340},{"buffer":0,"byteOffset":22680,"byteLength":7560},{"buffer":0,"byteOffset":30240,"byteLength":7560},{"buffer":0,"byteOffset":37800,"byteLength":15120},{"buffer":0,"byteOffset":52920,"byteLength":3084}],"buffers":[{"byteLength":56004,"uri":"data:application/octet-stream;base64,"}]}
