{"asset":{"generator":"Khronos glTF Blender I/O v1.2.75","version":"2.0"},"scene":0,"scenes":[{"name":"Scene","nodes":[0]}],"nodes":[{"mesh":0,"name":"Mesh"}],"meshes":[{"name":"SM_MetalBumper01","primitives":[{"indices":6,"attributes":{"POSITION":0,"NORMAL":1,"COLOR_0":2,"TEXCOORD_0":3,"TEXCOORD_1":4,"TANGENT":5},"mode":4}]}],"accessors":[{"bufferView":0,"componentType":5126,"count":486,"type":"VEC3","min":[-9.5367431640625e-9,0,-1.9999998474121095],"max":[0.12904431343078612,0.6584859466552735,1.4718601680351338e-18]},{"bufferView":1,"componentType":5126,"count":486,"type":"VEC3"},{"bufferView":2,"componentType":5126,"count":486,"type":"VEC4"},{"bufferView":3,"componentType":5126,"count":486,"type":"VEC2"},{"bufferView":4,"componentType":5126,"count":486,"type":"VEC2"},{"bufferView":5,"componentType":5126,"count":486,"type":"VEC4"},{"bufferView":6,"componentType":5123,"count":2100,"type":"SCALAR"}],"bufferViews":[{"buffer":0,"byteOffset":0,"byteLength":5832},{"buffer":0,"byteOffset":5832,"byteLength":5832},{"buffer":0,"byteOffset":11664,"byteLength":7776},{"buffer":0,"byteOffset":19440,"byteLength":3888},{"buffer":0,"byteOffset":23328,"byteLength":3888},{"buffer":0,"byteOffset":27216,"byteLength":7776},{"buffer":0,"byteOffset":34992,"byteLength":4200}],"buffers":[{"byteLength":39192,"uri":"data:application/octet-stream;base64,"}]}
