{"asset":{"generator":"Khronos glTF Blender I/O v1.2.75","version":"2.0"},"scene":0,"scenes":[{"name":"Scene","nodes":[0]}],"nodes":[{"mesh":0,"name":"Mesh"}],"meshes":[{"name":"SM_CornerBuilding01_05","primitives":[{"indices":5,"attributes":{"POSITION":0,"NORMAL":1,"TEXCOORD_0":2,"TEXCOORD_1":3,"TANGENT":4},"mode":4}]}],"accessors":[{"bufferView":0,"componentType":5126,"count":130,"type":"VEC3","min":[-0.4257137680053711,2.80299399799935e-23,-2.500000457763672],"max":[0.1771918487548828,5,-4.57763671875e-7]},{"bufferView":1,"componentType":5126,"count":130,"type":"VEC3"},{"bufferView":2,"componentType":5126,"count":130,"type":"VEC2"},{"bufferView":3,"componentType":5126,"count":130,"type":"VEC2"},{"bufferView":4,"componentType":5126,"count":130,"type":"VEC4"},{"bufferView":5,"componentType":5123,"count":222,"type":"SCALAR"}],"bufferViews":[{"buffer":0,"byteOffset":0,"byteLength":1560},{"buffer":0,"byteOffset":1560,"byteLength":1560},{"buffer":0,"byteOffset":3120,"byteLength":1040},{"buffer":0,"byteOffset":4160,"byteLength":1040},{"buffer":0,"byteOffset":5200,"byteLength":2080},{"buffer":0,"byteOffset":7280,"byteLength":444}],"buffers":[{"byteLength":7724,"uri":"data:application/octet-stream;base64,"}]}
