{"asset":{"generator":"Khronos glTF Blender I/O v1.2.75","version":"2.0"},"scene":0,"scenes":[{"name":"Scene","nodes":[0]}],"nodes":[{"mesh":0,"name":"Mesh"}],"meshes":[{"name":"SM_MetalBeam11","primitives":[{"indices":6,"attributes":{"POSITION":0,"NORMAL":1,"COLOR_0":2,"TEXCOORD_0":3,"TEXCOORD_1":4,"TANGENT":5},"mode":4}]}],"accessors":[{"bufferView":0,"componentType":5126,"count":318,"type":"VEC3","min":[-0.567666015625,-0.015592131614685058,-0.560935173034668],"max":[0.5789743804931641,15.999998779296876,1.2834255981445313]},{"bufferView":1,"componentType":5126,"count":318,"type":"VEC3"},{"bufferView":2,"componentType":5126,"count":318,"type":"VEC4"},{"bufferView":3,"componentType":5126,"count":318,"type":"VEC2"},{"bufferView":4,"componentType":5126,"count":318,"type":"VEC2"},{"bufferView":5,"componentType":5126,"count":318,"type":"VEC4"},{"bufferView":6,"componentType":5123,"count":768,"type":"SCALAR"}],"bufferViews":[{"buffer":0,"byteOffset":0,"byteLength":3816},{"buffer":0,"byteOffset":3816,"byteLength":3816},{"buffer":0,"byteOffset":7632,"byteLength":5088},{"buffer":0,"byteOffset":12720,"byteLength":2544},{"buffer":0,"byteOffset":15264,"byteLength":2544},{"buffer":0,"byteOffset":17808,"byteLength":5088},{"buffer":0,"byteOffset":22896,"byteLength":1536}],"buffers":[{"byteLength":24432,"uri":"data:application/octet-stream;base64,"}]}
