{"asset":{"generator":"Khronos glTF Blender I/O v1.2.75","version":"2.0"},"scene":0,"scenes":[{"name":"Scene","nodes":[0]}],"nodes":[{"mesh":0,"name":"Mesh"}],"meshes":[{"name":"SM_Building05_10","primitives":[{"indices":5,"attributes":{"POSITION":0,"NORMAL":1,"TEXCOORD_0":2,"TEXCOORD_1":3,"TANGENT":4},"mode":4}]}],"accessors":[{"bufferView":0,"componentType":5126,"count":796,"type":"VEC3","min":[-0.3227629089355469,-0.035534086227416994,-0.0766256332397461],"max":[1.190029296875,12,12.516278076171876]},{"bufferView":1,"componentType":5126,"count":796,"type":"VEC3"},{"bufferView":2,"componentType":5126,"count":796,"type":"VEC2"},{"bufferView":3,"componentType":5126,"count":796,"type":"VEC2"},{"bufferView":4,"componentType":5126,"count":796,"type":"VEC4"},{"bufferView":5,"componentType":5123,"count":1686,"type":"SCALAR"}],"bufferViews":[{"buffer":0,"byteOffset":0,"byteLength":9552},{"buffer":0,"byteOffset":9552,"byteLength":9552},{"buffer":0,"byteOffset":19104,"byteLength":6368},{"buffer":0,"byteOffset":25472,"byteLength":6368},{"buffer":0,"byteOffset":31840,"byteLength":12736},{"buffer":0,"byteOffset":44576,"byteLength":3372}],"buffers":[{"byteLength":47948,"uri":"data:application/octet-stream;base64,"}]}
