{"asset":{"generator":"Khronos glTF Blender I/O v1.2.75","version":"2.0"},"scene":0,"scenes":[{"name":"Scene","nodes":[0]}],"nodes":[{"mesh":0,"name":"Mesh"}],"meshes":[{"name":"SM_Building05_10","primitives":[{"indices":5,"attributes":{"POSITION":0,"NORMAL":1,"TEXCOORD_0":2,"TEXCOORD_1":3,"TANGENT":4},"mode":4}]}],"accessors":[{"bufferView":0,"componentType":5126,"count":201,"type":"VEC3","min":[-0.3227629089355469,-0.035534086227416994,-0.0766256332397461],"max":[1.190029296875,12,12.516278076171876]},{"bufferView":1,"componentType":5126,"count":201,"type":"VEC3"},{"bufferView":2,"componentType":5126,"count":201,"type":"VEC2"},{"bufferView":3,"componentType":5126,"count":201,"type":"VEC2"},{"bufferView":4,"componentType":5126,"count":201,"type":"VEC4"},{"bufferView":5,"componentType":5123,"count":423,"type":"SCALAR"}],"bufferViews":[{"buffer":0,"byteOffset":0,"byteLength":2412},{"buffer":0,"byteOffset":2412,"byteLength":2412},{"buffer":0,"byteOffset":4824,"byteLength":1608},{"buffer":0,"byteOffset":6432,"byteLength":1608},{"buffer":0,"byteOffset":8040,"byteLength":3216},{"buffer":0,"byteOffset":11256,"byteLength":846}],"buffers":[{"byteLength":12102,"uri":"data:application/octet-stream;base64,"}]}
