{"asset":{"generator":"Khronos glTF Blender I/O v1.2.75","version":"2.0"},"scene":0,"scenes":[{"name":"Scene","nodes":[0]}],"nodes":[{"mesh":0,"name":"Mesh"}],"meshes":[{"name":"SM_Beam_2m_G01","primitives":[{"indices":5,"attributes":{"POSITION":0,"NORMAL":1,"TEXCOORD_0":2,"TEXCOORD_1":3,"TANGENT":4},"mode":4}]}],"accessors":[{"bufferView":0,"componentType":5126,"count":1280,"type":"VEC3","min":[-7,-0.0002668046951293945,-0.003466894030570984],"max":[3,0.5029084777832031,0.10487234115600585]},{"bufferView":1,"componentType":5126,"count":1280,"type":"VEC3"},{"bufferView":2,"componentType":5126,"count":1280,"type":"VEC2"},{"bufferView":3,"componentType":5126,"count":1280,"type":"VEC2"},{"bufferView":4,"componentType":5126,"count":1280,"type":"VEC4"},{"bufferView":5,"componentType":5123,"count":2880,"type":"SCALAR"}],"bufferViews":[{"buffer":0,"byteOffset":0,"byteLength":15360},{"buffer":0,"byteOffset":15360,"byteLength":15360},{"buffer":0,"byteOffset":30720,"byteLength":10240},{"buffer":0,"byteOffset":40960,"byteLength":10240},{"buffer":0,"byteOffset":51200,"byteLength":20480},{"buffer":0,"byteOffset":71680,"byteLength":5760}],"buffers":[{"byteLength":77440,"uri":"data:application/octet-stream;base64,"}]}
