{"asset":{"generator":"Khronos glTF Blender I/O v1.2.75","version":"2.0"},"scene":0,"scenes":[{"name":"Scene","nodes":[0]}],"nodes":[{"mesh":0,"name":"Mesh"}],"meshes":[{"name":"SM_Beam_2m_G01","primitives":[{"indices":5,"attributes":{"POSITION":0,"NORMAL":1,"TEXCOORD_0":2,"TEXCOORD_1":3,"TANGENT":4},"mode":4}]}],"accessors":[{"bufferView":0,"componentType":5126,"count":747,"type":"VEC3","min":[-7,-0.0002668046951293945,-0.003466894030570984],"max":[3,0.5029084777832031,0.10487234115600585]},{"bufferView":1,"componentType":5126,"count":747,"type":"VEC3"},{"bufferView":2,"componentType":5126,"count":747,"type":"VEC2"},{"bufferView":3,"componentType":5126,"count":747,"type":"VEC2"},{"bufferView":4,"componentType":5126,"count":747,"type":"VEC4"},{"bufferView":5,"componentType":5123,"count":1440,"type":"SCALAR"}],"bufferViews":[{"buffer":0,"byteOffset":0,"byteLength":8964},{"buffer":0,"byteOffset":8964,"byteLength":8964},{"buffer":0,"byteOffset":17928,"byteLength":5976},{"buffer":0,"byteOffset":23904,"byteLength":5976},{"buffer":0,"byteOffset":29880,"byteLength":11952},{"buffer":0,"byteOffset":41832,"byteLength":2880}],"buffers":[{"byteLength":44712,"uri":"data:application/octet-stream;base64,"}]}
