{"asset":{"generator":"Khronos glTF Blender I/O v1.2.75","version":"2.0"},"scene":0,"scenes":[{"name":"Scene","nodes":[0]}],"nodes":[{"mesh":0,"name":"Mesh"}],"meshes":[{"name":"SM_RoadMarkings01","primitives":[{"indices":5,"attributes":{"POSITION":0,"NORMAL":1,"TEXCOORD_0":2,"TEXCOORD_1":3,"TANGENT":4},"mode":4}]}],"accessors":[{"bufferView":0,"componentType":5126,"count":144,"type":"VEC3","min":[-0.22257381439208984,-3.130458013715339e-17,-0.4364775085449219],"max":[0.22320816040039063,2.6726538581415712e-17,0.5112425994873047]},{"bufferView":1,"componentType":5126,"count":144,"type":"VEC3"},{"bufferView":2,"componentType":5126,"count":144,"type":"VEC2"},{"bufferView":3,"componentType":5126,"count":144,"type":"VEC2"},{"bufferView":4,"componentType":5126,"count":144,"type":"VEC4"},{"bufferView":5,"componentType":5123,"count":324,"type":"SCALAR"}],"bufferViews":[{"buffer":0,"byteOffset":0,"byteLength":1728},{"buffer":0,"byteOffset":1728,"byteLength":1728},{"buffer":0,"byteOffset":3456,"byteLength":1152},{"buffer":0,"byteOffset":4608,"byteLength":1152},{"buffer":0,"byteOffset":5760,"byteLength":2304},{"buffer":0,"byteOffset":8064,"byteLength":648}],"buffers":[{"byteLength":8712,"uri":"data:application/octet-stream;base64,"}]}
