{"asset":{"generator":"Khronos glTF Blender I/O v1.2.75","version":"2.0"},"scene":0,"scenes":[{"name":"Scene","nodes":[0]}],"nodes":[{"mesh":0,"name":"Mesh"}],"meshes":[{"name":"SM_Building12_04","primitives":[{"indices":5,"attributes":{"POSITION":0,"NORMAL":1,"TEXCOORD_0":2,"TEXCOORD_1":3,"TANGENT":4},"mode":4}]}],"accessors":[{"bufferView":0,"componentType":5126,"count":104,"type":"VEC3","min":[-1.023412857055664,-6.431341171264648e-7,-6.599998168945312],"max":[5.340576171875e-7,1.7142866516113282,0.0000010075102909468115]},{"bufferView":1,"componentType":5126,"count":104,"type":"VEC3"},{"bufferView":2,"componentType":5126,"count":104,"type":"VEC2"},{"bufferView":3,"componentType":5126,"count":104,"type":"VEC2"},{"bufferView":4,"componentType":5126,"count":104,"type":"VEC4"},{"bufferView":5,"componentType":5123,"count":228,"type":"SCALAR"}],"bufferViews":[{"buffer":0,"byteOffset":0,"byteLength":1248},{"buffer":0,"byteOffset":1248,"byteLength":1248},{"buffer":0,"byteOffset":2496,"byteLength":832},{"buffer":0,"byteOffset":3328,"byteLength":832},{"buffer":0,"byteOffset":4160,"byteLength":1664},{"buffer":0,"byteOffset":5824,"byteLength":456}],"buffers":[{"byteLength":6280,"uri":"data:application/octet-stream;base64,"}]}
