{"asset":{"generator":"Khronos glTF Blender I/O v1.2.75","version":"2.0"},"scene":0,"scenes":[{"name":"Scene","nodes":[0]}],"nodes":[{"mesh":0,"name":"Mesh"}],"meshes":[{"name":"SM_GarbageBag02","primitives":[{"indices":5,"attributes":{"POSITION":0,"NORMAL":1,"TEXCOORD_0":2,"TEXCOORD_1":3,"TANGENT":4},"mode":4}]}],"accessors":[{"bufferView":0,"componentType":5126,"count":4065,"type":"VEC3","min":[-0.5442880249023437,-0.0019594430923461914,-0.5371563339233398],"max":[0.5473721313476563,1.1065216827392579,0.5371567535400391]},{"bufferView":1,"componentType":5126,"count":4065,"type":"VEC3"},{"bufferView":2,"componentType":5126,"count":4065,"type":"VEC2"},{"bufferView":3,"componentType":5126,"count":4065,"type":"VEC2"},{"bufferView":4,"componentType":5126,"count":4065,"type":"VEC4"},{"bufferView":5,"componentType":5123,"count":22377,"type":"SCALAR"}],"bufferViews":[{"buffer":0,"byteOffset":0,"byteLength":48780},{"buffer":0,"byteOffset":48780,"byteLength":48780},{"buffer":0,"byteOffset":97560,"byteLength":32520},{"buffer":0,"byteOffset":130080,"byteLength":32520},{"buffer":0,"byteOffset":162600,"byteLength":65040},{"buffer":0,"byteOffset":227640,"byteLength":44754}],"buffers":[{"byteLength":272394,"uri":"data:application/octet-stream;base64,"}]}
