{"asset":{"generator":"Khronos glTF Blender I/O v1.2.75","version":"2.0"},"scene":0,"scenes":[{"name":"Scene","nodes":[0]}],"nodes":[{"mesh":0,"name":"Mesh"}],"meshes":[{"name":"SM_GarbageBag02","primitives":[{"indices":5,"attributes":{"POSITION":0,"NORMAL":1,"TEXCOORD_0":2,"TEXCOORD_1":3,"TANGENT":4},"mode":4}]}],"accessors":[{"bufferView":0,"componentType":5126,"count":1155,"type":"VEC3","min":[-0.5442880249023437,-0.0019594430923461914,-0.5371563339233398],"max":[0.5473721313476563,1.1065216827392579,0.5371567535400391]},{"bufferView":1,"componentType":5126,"count":1155,"type":"VEC3"},{"bufferView":2,"componentType":5126,"count":1155,"type":"VEC2"},{"bufferView":3,"componentType":5126,"count":1155,"type":"VEC2"},{"bufferView":4,"componentType":5126,"count":1155,"type":"VEC4"},{"bufferView":5,"componentType":5123,"count":5595,"type":"SCALAR"}],"bufferViews":[{"buffer":0,"byteOffset":0,"byteLength":13860},{"buffer":0,"byteOffset":13860,"byteLength":13860},{"buffer":0,"byteOffset":27720,"byteLength":9240},{"buffer":0,"byteOffset":36960,"byteLength":9240},{"buffer":0,"byteOffset":46200,"byteLength":18480},{"buffer":0,"byteOffset":64680,"byteLength":11190}],"buffers":[{"byteLength":75870,"uri":"data:application/octet-stream;base64,"}]}
