{"asset":{"generator":"Khronos glTF Blender I/O v1.2.75","version":"2.0"},"scene":0,"scenes":[{"name":"Scene","nodes":[0]}],"nodes":[{"mesh":0,"name":"Mesh"}],"meshes":[{"name":"SM_ATM","primitives":[{"indices":5,"attributes":{"POSITION":0,"NORMAL":1,"TEXCOORD_0":2,"TEXCOORD_1":3,"TANGENT":4},"mode":4}]}],"accessors":[{"bufferView":0,"componentType":5126,"count":202,"type":"VEC3","min":[1.9073486328125e-7,-0.03315995454788208,-0.3538763809204102],"max":[0.7150725555419922,1.7999998474121093,0.35000030517578123]},{"bufferView":1,"componentType":5126,"count":202,"type":"VEC3"},{"bufferView":2,"componentType":5126,"count":202,"type":"VEC2"},{"bufferView":3,"componentType":5126,"count":202,"type":"VEC2"},{"bufferView":4,"componentType":5126,"count":202,"type":"VEC4"},{"bufferView":5,"componentType":5123,"count":300,"type":"SCALAR"}],"bufferViews":[{"buffer":0,"byteOffset":0,"byteLength":2424},{"buffer":0,"byteOffset":2424,"byteLength":2424},{"buffer":0,"byteOffset":4848,"byteLength":1616},{"buffer":0,"byteOffset":6464,"byteLength":1616},{"buffer":0,"byteOffset":8080,"byteLength":3232},{"buffer":0,"byteOffset":11312,"byteLength":600}],"buffers":[{"byteLength":11912,"uri":"data:application/octet-stream;base64,"}]}
