{"asset":{"generator":"Khronos glTF Blender I/O v1.2.75","version":"2.0"},"scene":0,"scenes":[{"name":"Scene","nodes":[0]}],"nodes":[{"mesh":0,"name":"Mesh"}],"meshes":[{"name":"SM_MetalBeam07","primitives":[{"indices":6,"attributes":{"POSITION":0,"NORMAL":1,"COLOR_0":2,"TEXCOORD_0":3,"TEXCOORD_1":4,"TANGENT":5},"mode":4}]}],"accessors":[{"bufferView":0,"componentType":5126,"count":378,"type":"VEC3","min":[-0.56302001953125,-8.869171142578125e-7,-0.5567489624023437],"max":[0.56302001953125,8,0.556749382019043]},{"bufferView":1,"componentType":5126,"count":378,"type":"VEC3"},{"bufferView":2,"componentType":5126,"count":378,"type":"VEC4"},{"bufferView":3,"componentType":5126,"count":378,"type":"VEC2"},{"bufferView":4,"componentType":5126,"count":378,"type":"VEC2"},{"bufferView":5,"componentType":5126,"count":378,"type":"VEC4"},{"bufferView":6,"componentType":5123,"count":1236,"type":"SCALAR"}],"bufferViews":[{"buffer":0,"byteOffset":0,"byteLength":4536},{"buffer":0,"byteOffset":4536,"byteLength":4536},{"buffer":0,"byteOffset":9072,"byteLength":6048},{"buffer":0,"byteOffset":15120,"byteLength":3024},{"buffer":0,"byteOffset":18144,"byteLength":3024},{"buffer":0,"byteOffset":21168,"byteLength":6048},{"buffer":0,"byteOffset":27216,"byteLength":2472}],"buffers":[{"byteLength":29688,"uri":"data:application/octet-stream;base64,"}]}
