{"asset":{"generator":"Khronos glTF Blender I/O v1.2.75","version":"2.0"},"scene":0,"scenes":[{"name":"Scene","nodes":[0]}],"nodes":[{"mesh":0,"name":"Mesh"}],"meshes":[{"name":"SM_Building05_13","primitives":[{"indices":5,"attributes":{"POSITION":0,"NORMAL":1,"TEXCOORD_0":2,"TEXCOORD_1":3,"TANGENT":4},"mode":4},{"indices":11,"attributes":{"POSITION":6,"NORMAL":7,"TEXCOORD_0":8,"TEXCOORD_1":9,"TANGENT":10},"mode":4},{"indices":17,"attributes":{"POSITION":12,"NORMAL":13,"TEXCOORD_0":14,"TEXCOORD_1":15,"TANGENT":16},"mode":4}]}],"accessors":[{"bufferView":0,"componentType":5126,"count":1600,"type":"VEC3","min":[-0.1590366268157959,-2.3620814317837358e-8,-5.830092163085937],"max":[26.379033203125,6.517377319335938,14.970091552734376]},{"bufferView":1,"componentType":5126,"count":1600,"type":"VEC3"},{"bufferView":2,"componentType":5126,"count":1600,"type":"VEC2"},{"bufferView":3,"componentType":5126,"count":1600,"type":"VEC2"},{"bufferView":4,"componentType":5126,"count":1600,"type":"VEC4"},{"bufferView":5,"componentType":5123,"count":2904,"type":"SCALAR"},{"bufferView":6,"componentType":5126,"count":256,"type":"VEC3","min":[-0.1590366268157959,-2.3620814317837358e-8,-5.830092163085937],"max":[26.379033203125,6.517377319335938,14.970091552734376]},{"bufferView":7,"componentType":5126,"count":256,"type":"VEC3"},{"bufferView":8,"componentType":5126,"count":256,"type":"VEC2"},{"bufferView":9,"componentType":5126,"count":256,"type":"VEC2"},{"bufferView":10,"componentType":5126,"count":256,"type":"VEC4"},{"bufferView":11,"componentType":5123,"count":384,"type":"SCALAR"},{"bufferView":12,"componentType":5126,"count":2689,"type":"VEC3","min":[-0.1590366268157959,-2.3620814317837358e-8,-5.830092163085937],"max":[26.379033203125,6.517377319335938,14.970091552734376]},{"bufferView":13,"componentType":5126,"count":2689,"type":"VEC3"},{"bufferView":14,"componentType":5126,"count":2689,"type":"VEC2"},{"bufferView":15,"componentType":5126,"count":2689,"type":"VEC2"},{"bufferView":16,"componentType":5126,"count":2689,"type":"VEC4"},{"bufferView":17,"componentType":5123,"count":3492,"type":"SCALAR"}],"bufferViews":[{"buffer":0,"byteOffset":0,"byteLength":19200},{"buffer":0,"byteOffset":19200,"byteLength":19200},{"buffer":0,"byteOffset":38400,"byteLength":12800},{"buffer":0,"byteOffset":51200,"byteLength":12800},{"buffer":0,"byteOffset":64000,"byteLength":25600},{"buffer":0,"byteOffset":89600,"byteLength":5808},{"buffer":1,"byteOffset":0,"byteLength":3072},{"buffer":1,"byteOffset":3072,"byteLength":3072},{"buffer":1,"byteOffset":6144,"byteLength":2048},{"buffer":1,"byteOffset":8192,"byteLength":2048},{"buffer":1,"byteOffset":10240,"byteLength":4096},{"buffer":1,"byteOffset":14336,"byteLength":768},{"buffer":2,"byteOffset":0,"byteLength":32268},{"buffer":2,"byteOffset":32268,"byteLength":32268},{"buffer":2,"byteOffset":64536,"byteLength":21512},{"buffer":2,"byteOffset":86048,"byteLength":21512},{"buffer":2,"byteOffset":107560,"byteLength":43024},{"buffer":2,"byteOffset":150584,"byteLength":6984}],"buffers":[{"byteLength":95408,"uri":"data:application/octet-stream;base64,"},{"byteLength":15104,"uri":"data:application/octet-stream;base64,"},{"byteLength":157568,"uri":"data:application/octet-stream;base64,"}]}
