{"asset":{"generator":"Khronos glTF Blender I/O v1.2.75","version":"2.0"},"scene":0,"scenes":[{"name":"Scene","nodes":[0]}],"nodes":[{"mesh":0,"name":"Mesh"}],"meshes":[{"name":"SM_CornerBuilding01_13","primitives":[{"indices":5,"attributes":{"POSITION":0,"NORMAL":1,"TEXCOORD_0":2,"TEXCOORD_1":3,"TANGENT":4},"mode":4}]}],"accessors":[{"bufferView":0,"componentType":5126,"count":260,"type":"VEC3","min":[-0.425716552734375,0,-5],"max":[0.177191162109375,5,-6.103515625e-7]},{"bufferView":1,"componentType":5126,"count":260,"type":"VEC3"},{"bufferView":2,"componentType":5126,"count":260,"type":"VEC2"},{"bufferView":3,"componentType":5126,"count":260,"type":"VEC2"},{"bufferView":4,"componentType":5126,"count":260,"type":"VEC4"},{"bufferView":5,"componentType":5123,"count":444,"type":"SCALAR"}],"bufferViews":[{"buffer":0,"byteOffset":0,"byteLength":3120},{"buffer":0,"byteOffset":3120,"byteLength":3120},{"buffer":0,"byteOffset":6240,"byteLength":2080},{"buffer":0,"byteOffset":8320,"byteLength":2080},{"buffer":0,"byteOffset":10400,"byteLength":4160},{"buffer":0,"byteOffset":14560,"byteLength":888}],"buffers":[{"byteLength":15448,"uri":"data:application/octet-stream;base64,"}]}
