{"asset":{"generator":"Khronos glTF Blender I/O v1.2.75","version":"2.0"},"scene":0,"scenes":[{"name":"Scene","nodes":[0]}],"nodes":[{"mesh":0,"name":"Mesh"}],"meshes":[{"name":"SM_BackgroundBuildingPipe03","primitives":[{"indices":5,"attributes":{"POSITION":0,"NORMAL":1,"TEXCOORD_0":2,"TEXCOORD_1":3,"TANGENT":4},"mode":4}]}],"accessors":[{"bufferView":0,"componentType":5126,"count":130,"type":"VEC3","min":[-0.006394534707069397,-0.5976530456542969,-31.7992919921875],"max":[32.3906201171875,0.6089469528198242,0.4661717987060547]},{"bufferView":1,"componentType":5126,"count":130,"type":"VEC3"},{"bufferView":2,"componentType":5126,"count":130,"type":"VEC2"},{"bufferView":3,"componentType":5126,"count":130,"type":"VEC2"},{"bufferView":4,"componentType":5126,"count":130,"type":"VEC4"},{"bufferView":5,"componentType":5123,"count":426,"type":"SCALAR"}],"bufferViews":[{"buffer":0,"byteOffset":0,"byteLength":1560},{"buffer":0,"byteOffset":1560,"byteLength":1560},{"buffer":0,"byteOffset":3120,"byteLength":1040},{"buffer":0,"byteOffset":4160,"byteLength":1040},{"buffer":0,"byteOffset":5200,"byteLength":2080},{"buffer":0,"byteOffset":7280,"byteLength":852}],"buffers":[{"byteLength":8132,"uri":"data:application/octet-stream;base64,"}]}
