{"asset":{"generator":"Khronos glTF Blender I/O v1.2.75","version":"2.0"},"scene":0,"scenes":[{"name":"Scene","nodes":[0]}],"nodes":[{"mesh":0,"name":"Mesh"}],"meshes":[{"name":"SM_MetalWall_02","primitives":[{"indices":6,"attributes":{"POSITION":0,"NORMAL":1,"COLOR_0":2,"TEXCOORD_0":3,"TEXCOORD_1":4,"TANGENT":5},"mode":4}]}],"accessors":[{"bufferView":0,"componentType":5126,"count":992,"type":"VEC3","min":[0,-1.2787113519152626e-8,-0.37886695861816405],"max":[4,6,0.0008594894409179688]},{"bufferView":1,"componentType":5126,"count":992,"type":"VEC3"},{"bufferView":2,"componentType":5126,"count":992,"type":"VEC4"},{"bufferView":3,"componentType":5126,"count":992,"type":"VEC2"},{"bufferView":4,"componentType":5126,"count":992,"type":"VEC2"},{"bufferView":5,"componentType":5126,"count":992,"type":"VEC4"},{"bufferView":6,"componentType":5123,"count":1980,"type":"SCALAR"}],"bufferViews":[{"buffer":0,"byteOffset":0,"byteLength":11904},{"buffer":0,"byteOffset":11904,"byteLength":11904},{"buffer":0,"byteOffset":23808,"byteLength":15872},{"buffer":0,"byteOffset":39680,"byteLength":7936},{"buffer":0,"byteOffset":47616,"byteLength":7936},{"buffer":0,"byteOffset":55552,"byteLength":15872},{"buffer":0,"byteOffset":71424,"byteLength":3960}],"buffers":[{"byteLength":75384,"uri":"data:application/octet-stream;base64,"}]}
