{"asset":{"generator":"Khronos glTF Blender I/O v1.2.75","version":"2.0"},"scene":0,"scenes":[{"name":"Scene","nodes":[0]}],"nodes":[{"mesh":0,"name":"Mesh"}],"meshes":[{"name":"SM_PlatformRailing_06","primitives":[{"indices":6,"attributes":{"POSITION":0,"NORMAL":1,"COLOR_0":2,"TEXCOORD_0":3,"TEXCOORD_1":4,"TANGENT":5},"mode":4}]}],"accessors":[{"bufferView":0,"componentType":5126,"count":226,"type":"VEC3","min":[-0.055537261962890626,-0.00003767383983358741,-0.1640645980834961],"max":[0.05615286350250244,1.2836119079589843,1.0374015808105468]},{"bufferView":1,"componentType":5126,"count":226,"type":"VEC3"},{"bufferView":2,"componentType":5126,"count":226,"type":"VEC4"},{"bufferView":3,"componentType":5126,"count":226,"type":"VEC2"},{"bufferView":4,"componentType":5126,"count":226,"type":"VEC2"},{"bufferView":5,"componentType":5126,"count":226,"type":"VEC4"},{"bufferView":6,"componentType":5123,"count":504,"type":"SCALAR"}],"bufferViews":[{"buffer":0,"byteOffset":0,"byteLength":2712},{"buffer":0,"byteOffset":2712,"byteLength":2712},{"buffer":0,"byteOffset":5424,"byteLength":3616},{"buffer":0,"byteOffset":9040,"byteLength":1808},{"buffer":0,"byteOffset":10848,"byteLength":1808},{"buffer":0,"byteOffset":12656,"byteLength":3616},{"buffer":0,"byteOffset":16272,"byteLength":1008}],"buffers":[{"byteLength":17280,"uri":"data:application/octet-stream;base64,"}]}
