{"asset":{"generator":"Khronos glTF Blender I/O v1.2.75","version":"2.0"},"scene":0,"scenes":[{"name":"Scene","nodes":[0]}],"nodes":[{"mesh":0,"name":"Mesh"}],"meshes":[{"name":"SM_Building02_05","primitives":[{"indices":5,"attributes":{"POSITION":0,"NORMAL":1,"TEXCOORD_0":2,"TEXCOORD_1":3,"TANGENT":4},"mode":4},{"indices":11,"attributes":{"POSITION":6,"NORMAL":7,"TEXCOORD_0":8,"TEXCOORD_1":9,"TANGENT":10},"mode":4},{"indices":17,"attributes":{"POSITION":12,"NORMAL":13,"TEXCOORD_0":14,"TEXCOORD_1":15,"TANGENT":16},"mode":4}]}],"accessors":[{"bufferView":0,"componentType":5126,"count":58,"type":"VEC3","min":[-4.0000003051757815,-2.611612640555927e-17,-0.2745317840576172],"max":[0.00012932085432112216,4.000132751464844,0.580167121887207]},{"bufferView":1,"componentType":5126,"count":58,"type":"VEC3"},{"bufferView":2,"componentType":5126,"count":58,"type":"VEC2"},{"bufferView":3,"componentType":5126,"count":58,"type":"VEC2"},{"bufferView":4,"componentType":5126,"count":58,"type":"VEC4"},{"bufferView":5,"componentType":5123,"count":108,"type":"SCALAR"},{"bufferView":6,"componentType":5126,"count":27,"type":"VEC3","min":[-4.0000003051757815,-2.611612640555927e-17,-0.2745317840576172],"max":[0.00012932085432112216,4.000132751464844,0.580167121887207]},{"bufferView":7,"componentType":5126,"count":27,"type":"VEC3"},{"bufferView":8,"componentType":5126,"count":27,"type":"VEC2"},{"bufferView":9,"componentType":5126,"count":27,"type":"VEC2"},{"bufferView":10,"componentType":5126,"count":27,"type":"VEC4"},{"bufferView":11,"componentType":5123,"count":57,"type":"SCALAR"},{"bufferView":12,"componentType":5126,"count":870,"type":"VEC3","min":[-4.0000003051757815,-2.611612640555927e-17,-0.2745317840576172],"max":[0.00012932085432112216,4.000132751464844,0.580167121887207]},{"bufferView":13,"componentType":5126,"count":870,"type":"VEC3"},{"bufferView":14,"componentType":5126,"count":870,"type":"VEC2"},{"bufferView":15,"componentType":5126,"count":870,"type":"VEC2"},{"bufferView":16,"componentType":5126,"count":870,"type":"VEC4"},{"bufferView":17,"componentType":5123,"count":1884,"type":"SCALAR"}],"bufferViews":[{"buffer":0,"byteOffset":0,"byteLength":696},{"buffer":0,"byteOffset":696,"byteLength":696},{"buffer":0,"byteOffset":1392,"byteLength":464},{"buffer":0,"byteOffset":1856,"byteLength":464},{"buffer":0,"byteOffset":2320,"byteLength":928},{"buffer":0,"byteOffset":3248,"byteLength":216},{"buffer":1,"byteOffset":0,"byteLength":324},{"buffer":1,"byteOffset":324,"byteLength":324},{"buffer":1,"byteOffset":648,"byteLength":216},{"buffer":1,"byteOffset":864,"byteLength":216},{"buffer":1,"byteOffset":1080,"byteLength":432},{"buffer":1,"byteOffset":1512,"byteLength":114},{"buffer":2,"byteOffset":0,"byteLength":10440},{"buffer":2,"byteOffset":10440,"byteLength":10440},{"buffer":2,"byteOffset":20880,"byteLength":6960},{"buffer":2,"byteOffset":27840,"byteLength":6960},{"buffer":2,"byteOffset":34800,"byteLength":13920},{"buffer":2,"byteOffset":48720,"byteLength":3768}],"buffers":[{"byteLength":3464,"uri":"data:application/octet-stream;base64,"},{"byteLength":1626,"uri":"data:application/octet-stream;base64,"},{"byteLength":52488,"uri":"data:application/octet-stream;base64,"}]}
