{"asset":{"generator":"Khronos glTF Blender I/O v1.2.75","version":"2.0"},"scene":0,"scenes":[{"name":"Scene","nodes":[0]}],"nodes":[{"mesh":0,"name":"Mesh"}],"meshes":[{"name":"SM_Building02_05","primitives":[{"indices":5,"attributes":{"POSITION":0,"NORMAL":1,"TEXCOORD_0":2,"TEXCOORD_1":3,"TANGENT":4},"mode":4},{"indices":11,"attributes":{"POSITION":6,"NORMAL":7,"TEXCOORD_0":8,"TEXCOORD_1":9,"TANGENT":10},"mode":4},{"indices":17,"attributes":{"POSITION":12,"NORMAL":13,"TEXCOORD_0":14,"TEXCOORD_1":15,"TANGENT":16},"mode":4}]}],"accessors":[{"bufferView":0,"componentType":5126,"count":54,"type":"VEC3","min":[-4.0000003051757815,-2.611612640555927e-17,-0.2745317840576172],"max":[0.00012932085432112216,4.000132751464844,0.580167121887207]},{"bufferView":1,"componentType":5126,"count":54,"type":"VEC3"},{"bufferView":2,"componentType":5126,"count":54,"type":"VEC2"},{"bufferView":3,"componentType":5126,"count":54,"type":"VEC2"},{"bufferView":4,"componentType":5126,"count":54,"type":"VEC4"},{"bufferView":5,"componentType":5123,"count":102,"type":"SCALAR"},{"bufferView":6,"componentType":5126,"count":21,"type":"VEC3","min":[-4.0000003051757815,-2.611612640555927e-17,-0.2745317840576172],"max":[0.00012932085432112216,4.000132751464844,0.580167121887207]},{"bufferView":7,"componentType":5126,"count":21,"type":"VEC3"},{"bufferView":8,"componentType":5126,"count":21,"type":"VEC2"},{"bufferView":9,"componentType":5126,"count":21,"type":"VEC2"},{"bufferView":10,"componentType":5126,"count":21,"type":"VEC4"},{"bufferView":11,"componentType":5123,"count":39,"type":"SCALAR"},{"bufferView":12,"componentType":5126,"count":486,"type":"VEC3","min":[-4.0000003051757815,-2.611612640555927e-17,-0.2745317840576172],"max":[0.00012932085432112216,4.000132751464844,0.580167121887207]},{"bufferView":13,"componentType":5126,"count":486,"type":"VEC3"},{"bufferView":14,"componentType":5126,"count":486,"type":"VEC2"},{"bufferView":15,"componentType":5126,"count":486,"type":"VEC2"},{"bufferView":16,"componentType":5126,"count":486,"type":"VEC4"},{"bufferView":17,"componentType":5123,"count":882,"type":"SCALAR"}],"bufferViews":[{"buffer":0,"byteOffset":0,"byteLength":648},{"buffer":0,"byteOffset":648,"byteLength":648},{"buffer":0,"byteOffset":1296,"byteLength":432},{"buffer":0,"byteOffset":1728,"byteLength":432},{"buffer":0,"byteOffset":2160,"byteLength":864},{"buffer":0,"byteOffset":3024,"byteLength":204},{"buffer":1,"byteOffset":0,"byteLength":252},{"buffer":1,"byteOffset":252,"byteLength":252},{"buffer":1,"byteOffset":504,"byteLength":168},{"buffer":1,"byteOffset":672,"byteLength":168},{"buffer":1,"byteOffset":840,"byteLength":336},{"buffer":1,"byteOffset":1176,"byteLength":78},{"buffer":2,"byteOffset":0,"byteLength":5832},{"buffer":2,"byteOffset":5832,"byteLength":5832},{"buffer":2,"byteOffset":11664,"byteLength":3888},{"buffer":2,"byteOffset":15552,"byteLength":3888},{"buffer":2,"byteOffset":19440,"byteLength":7776},{"buffer":2,"byteOffset":27216,"byteLength":1764}],"buffers":[{"byteLength":3228,"uri":"data:application/octet-stream;base64,"},{"byteLength":1254,"uri":"data:application/octet-stream;base64,"},{"byteLength":28980,"uri":"data:application/octet-stream;base64,"}]}
