{"asset":{"generator":"Khronos glTF Blender I/O v1.2.75","version":"2.0"},"scene":0,"scenes":[{"name":"Scene","nodes":[0]}],"nodes":[{"mesh":0,"name":"Mesh"}],"meshes":[{"name":"SM_Building02_05","primitives":[{"indices":5,"attributes":{"POSITION":0,"NORMAL":1,"TEXCOORD_0":2,"TEXCOORD_1":3,"TANGENT":4},"mode":4},{"indices":11,"attributes":{"POSITION":6,"NORMAL":7,"TEXCOORD_0":8,"TEXCOORD_1":9,"TANGENT":10},"mode":4},{"indices":17,"attributes":{"POSITION":12,"NORMAL":13,"TEXCOORD_0":14,"TEXCOORD_1":15,"TANGENT":16},"mode":4}]}],"accessors":[{"bufferView":0,"componentType":5126,"count":84,"type":"VEC3","min":[-4.0000003051757815,-2.611612640555927e-17,-0.2745317840576172],"max":[0.00012932085432112216,4.000132751464844,0.580167121887207]},{"bufferView":1,"componentType":5126,"count":84,"type":"VEC3"},{"bufferView":2,"componentType":5126,"count":84,"type":"VEC2"},{"bufferView":3,"componentType":5126,"count":84,"type":"VEC2"},{"bufferView":4,"componentType":5126,"count":84,"type":"VEC4"},{"bufferView":5,"componentType":5123,"count":186,"type":"SCALAR"},{"bufferView":6,"componentType":5126,"count":33,"type":"VEC3","min":[-4.0000003051757815,-2.611612640555927e-17,-0.2745317840576172],"max":[0.00012932085432112216,4.000132751464844,0.580167121887207]},{"bufferView":7,"componentType":5126,"count":33,"type":"VEC3"},{"bufferView":8,"componentType":5126,"count":33,"type":"VEC2"},{"bufferView":9,"componentType":5126,"count":33,"type":"VEC2"},{"bufferView":10,"componentType":5126,"count":33,"type":"VEC4"},{"bufferView":11,"componentType":5123,"count":75,"type":"SCALAR"},{"bufferView":12,"componentType":5126,"count":1378,"type":"VEC3","min":[-4.0000003051757815,-2.611612640555927e-17,-0.2745317840576172],"max":[0.00012932085432112216,4.000132751464844,0.580167121887207]},{"bufferView":13,"componentType":5126,"count":1378,"type":"VEC3"},{"bufferView":14,"componentType":5126,"count":1378,"type":"VEC2"},{"bufferView":15,"componentType":5126,"count":1378,"type":"VEC2"},{"bufferView":16,"componentType":5126,"count":1378,"type":"VEC4"},{"bufferView":17,"componentType":5123,"count":3834,"type":"SCALAR"}],"bufferViews":[{"buffer":0,"byteOffset":0,"byteLength":1008},{"buffer":0,"byteOffset":1008,"byteLength":1008},{"buffer":0,"byteOffset":2016,"byteLength":672},{"buffer":0,"byteOffset":2688,"byteLength":672},{"buffer":0,"byteOffset":3360,"byteLength":1344},{"buffer":0,"byteOffset":4704,"byteLength":372},{"buffer":1,"byteOffset":0,"byteLength":396},{"buffer":1,"byteOffset":396,"byteLength":396},{"buffer":1,"byteOffset":792,"byteLength":264},{"buffer":1,"byteOffset":1056,"byteLength":264},{"buffer":1,"byteOffset":1320,"byteLength":528},{"buffer":1,"byteOffset":1848,"byteLength":150},{"buffer":2,"byteOffset":0,"byteLength":16536},{"buffer":2,"byteOffset":16536,"byteLength":16536},{"buffer":2,"byteOffset":33072,"byteLength":11024},{"buffer":2,"byteOffset":44096,"byteLength":11024},{"buffer":2,"byteOffset":55120,"byteLength":22048},{"buffer":2,"byteOffset":77168,"byteLength":7668}],"buffers":[{"byteLength":5076,"uri":"data:application/octet-stream;base64,"},{"byteLength":1998,"uri":"data:application/octet-stream;base64,"},{"byteLength":84836,"uri":"data:application/octet-stream;base64,"}]}
