{"asset":{"generator":"Khronos glTF Blender I/O v1.2.75","version":"2.0"},"scene":0,"scenes":[{"name":"Scene","nodes":[0]}],"nodes":[{"mesh":0,"name":"Mesh"}],"meshes":[{"name":"SM_CyborgEnemy02","primitives":[{"indices":5,"attributes":{"POSITION":0,"NORMAL":1,"TEXCOORD_0":2,"TEXCOORD_1":3,"TANGENT":4},"mode":4}]}],"accessors":[{"bufferView":0,"componentType":5126,"count":5930,"type":"VEC3","min":[-0.5748130416870117,-0.0012994956970214843,-0.17537473678588866],"max":[0.5748130416870117,1.6100418090820312,0.17537473678588866]},{"bufferView":1,"componentType":5126,"count":5930,"type":"VEC3"},{"bufferView":2,"componentType":5126,"count":5930,"type":"VEC2"},{"bufferView":3,"componentType":5126,"count":5930,"type":"VEC2"},{"bufferView":4,"componentType":5126,"count":5930,"type":"VEC4"},{"bufferView":5,"componentType":5123,"count":23292,"type":"SCALAR"}],"bufferViews":[{"buffer":0,"byteOffset":0,"byteLength":71160},{"buffer":0,"byteOffset":71160,"byteLength":71160},{"buffer":0,"byteOffset":142320,"byteLength":47440},{"buffer":0,"byteOffset":189760,"byteLength":47440},{"buffer":0,"byteOffset":237200,"byteLength":94880},{"buffer":0,"byteOffset":332080,"byteLength":46584}],"buffers":[{"byteLength":378664,"uri":"data:application/octet-stream;base64,"}]}
