{"asset":{"generator":"Khronos glTF Blender I/O v1.2.75","version":"2.0"},"scene":0,"scenes":[{"name":"Scene","nodes":[0]}],"nodes":[{"mesh":0,"name":"Mesh"}],"meshes":[{"name":"SM_PipeGroup28","primitives":[{"indices":5,"attributes":{"POSITION":0,"NORMAL":1,"TEXCOORD_0":2,"TEXCOORD_1":3,"TANGENT":4},"mode":4}]}],"accessors":[{"bufferView":0,"componentType":5126,"count":4828,"type":"VEC3","min":[-0.5540600204467774,-3.220301513671875,-1.7102056884765624],"max":[0.5544715881347656,3.860293273925781,13.464185791015625]},{"bufferView":1,"componentType":5126,"count":4828,"type":"VEC3"},{"bufferView":2,"componentType":5126,"count":4828,"type":"VEC2"},{"bufferView":3,"componentType":5126,"count":4828,"type":"VEC2"},{"bufferView":4,"componentType":5126,"count":4828,"type":"VEC4"},{"bufferView":5,"componentType":5123,"count":11172,"type":"SCALAR"}],"bufferViews":[{"buffer":0,"byteOffset":0,"byteLength":57936},{"buffer":0,"byteOffset":57936,"byteLength":57936},{"buffer":0,"byteOffset":115872,"byteLength":38624},{"buffer":0,"byteOffset":154496,"byteLength":38624},{"buffer":0,"byteOffset":193120,"byteLength":77248},{"buffer":0,"byteOffset":270368,"byteLength":22344}],"buffers":[{"byteLength":292712,"uri":"data:application/octet-stream;base64,"}]}
