{"asset":{"generator":"Khronos glTF Blender I/O v1.2.75","version":"2.0"},"scene":0,"scenes":[{"name":"Scene","nodes":[0]}],"nodes":[{"mesh":0,"name":"Mesh"}],"meshes":[{"name":"SM_PipeGroup28","primitives":[{"indices":5,"attributes":{"POSITION":0,"NORMAL":1,"TEXCOORD_0":2,"TEXCOORD_1":3,"TANGENT":4},"mode":4}]}],"accessors":[{"bufferView":0,"componentType":5126,"count":3185,"type":"VEC3","min":[-0.5540600204467774,-3.220301513671875,-1.7102056884765624],"max":[0.5544715881347656,3.860293273925781,13.464185791015625]},{"bufferView":1,"componentType":5126,"count":3185,"type":"VEC3"},{"bufferView":2,"componentType":5126,"count":3185,"type":"VEC2"},{"bufferView":3,"componentType":5126,"count":3185,"type":"VEC2"},{"bufferView":4,"componentType":5126,"count":3185,"type":"VEC4"},{"bufferView":5,"componentType":5123,"count":5586,"type":"SCALAR"}],"bufferViews":[{"buffer":0,"byteOffset":0,"byteLength":38220},{"buffer":0,"byteOffset":38220,"byteLength":38220},{"buffer":0,"byteOffset":76440,"byteLength":25480},{"buffer":0,"byteOffset":101920,"byteLength":25480},{"buffer":0,"byteOffset":127400,"byteLength":50960},{"buffer":0,"byteOffset":178360,"byteLength":11172}],"buffers":[{"byteLength":189532,"uri":"data:application/octet-stream;base64,"}]}
