{"asset":{"generator":"Khronos glTF Blender I/O v1.2.75","version":"2.0"},"scene":0,"scenes":[{"name":"Scene","nodes":[0]}],"nodes":[{"mesh":0,"name":"Mesh"}],"meshes":[{"name":"SM_ContainerP4_01","primitives":[{"indices":6,"attributes":{"POSITION":0,"NORMAL":1,"COLOR_0":2,"TEXCOORD_0":3,"TEXCOORD_1":4,"TANGENT":5},"mode":4}]}],"accessors":[{"bufferView":0,"componentType":5126,"count":23808,"type":"VEC3","min":[-1.6724449157714845,-0.009203728437423706,-2.7570928955078124],"max":[1.6724452209472656,4.720633544921875,2.767481689453125]},{"bufferView":1,"componentType":5126,"count":23808,"type":"VEC3"},{"bufferView":2,"componentType":5126,"count":23808,"type":"VEC4"},{"bufferView":3,"componentType":5126,"count":23808,"type":"VEC2"},{"bufferView":4,"componentType":5126,"count":23808,"type":"VEC2"},{"bufferView":5,"componentType":5126,"count":23808,"type":"VEC4"},{"bufferView":6,"componentType":5123,"count":34050,"type":"SCALAR"}],"bufferViews":[{"buffer":0,"byteOffset":0,"byteLength":285696},{"buffer":0,"byteOffset":285696,"byteLength":285696},{"buffer":0,"byteOffset":571392,"byteLength":380928},{"buffer":0,"byteOffset":952320,"byteLength":190464},{"buffer":0,"byteOffset":1142784,"byteLength":190464},{"buffer":0,"byteOffset":1333248,"byteLength":380928},{"buffer":0,"byteOffset":1714176,"byteLength":68100}],"buffers":[{"byteLength":1782276,"uri":"data:application/octet-stream;base64,"}]}
