{"asset":{"generator":"Khronos glTF Blender I/O v1.2.75","version":"2.0"},"scene":0,"scenes":[{"name":"Scene","nodes":[0]}],"nodes":[{"mesh":0,"name":"Mesh"}],"meshes":[{"name":"SM_GarbageBag01","primitives":[{"indices":5,"attributes":{"POSITION":0,"NORMAL":1,"TEXCOORD_0":2,"TEXCOORD_1":3,"TANGENT":4},"mode":4}]}],"accessors":[{"bufferView":0,"componentType":5126,"count":389,"type":"VEC3","min":[-0.51772705078125,-0.014615859985351563,-0.5855417251586914],"max":[0.51772705078125,1.0973902130126953,0.5865053176879883]},{"bufferView":1,"componentType":5126,"count":389,"type":"VEC3"},{"bufferView":2,"componentType":5126,"count":389,"type":"VEC2"},{"bufferView":3,"componentType":5126,"count":389,"type":"VEC2"},{"bufferView":4,"componentType":5126,"count":389,"type":"VEC4"},{"bufferView":5,"componentType":5123,"count":1650,"type":"SCALAR"}],"bufferViews":[{"buffer":0,"byteOffset":0,"byteLength":4668},{"buffer":0,"byteOffset":4668,"byteLength":4668},{"buffer":0,"byteOffset":9336,"byteLength":3112},{"buffer":0,"byteOffset":12448,"byteLength":3112},{"buffer":0,"byteOffset":15560,"byteLength":6224},{"buffer":0,"byteOffset":21784,"byteLength":3300}],"buffers":[{"byteLength":25084,"uri":"data:application/octet-stream;base64,"}]}
