{"asset":{"generator":"Khronos glTF Blender I/O v1.2.75","version":"2.0"},"scene":0,"scenes":[{"name":"Scene","nodes":[0]}],"nodes":[{"mesh":0,"name":"Mesh"}],"meshes":[{"name":"SM_Fence09","primitives":[{"indices":6,"attributes":{"POSITION":0,"NORMAL":1,"COLOR_0":2,"TEXCOORD_0":3,"TEXCOORD_1":4,"TANGENT":5},"mode":4},{"indices":13,"attributes":{"POSITION":7,"NORMAL":8,"COLOR_0":9,"TEXCOORD_0":10,"TEXCOORD_1":11,"TANGENT":12},"mode":4}]}],"accessors":[{"bufferView":0,"componentType":5126,"count":352,"type":"VEC3","min":[-0.0405014419555664,-0.024969758987426757,0.07320366382598877],"max":[0.6466712188720704,1.1307139587402344,1.6189649963378907]},{"bufferView":1,"componentType":5126,"count":352,"type":"VEC3"},{"bufferView":2,"componentType":5126,"count":368,"type":"VEC4"},{"bufferView":3,"componentType":5126,"count":352,"type":"VEC2"},{"bufferView":4,"componentType":5126,"count":352,"type":"VEC2"},{"bufferView":5,"componentType":5126,"count":352,"type":"VEC4"},{"bufferView":6,"componentType":5123,"count":486,"type":"SCALAR"},{"bufferView":7,"componentType":5126,"count":16,"type":"VEC3","min":[-0.0405014419555664,-0.024969758987426757,0.07320366382598877],"max":[0.6466712188720704,1.1307139587402344,1.6189649963378907]},{"bufferView":8,"componentType":5126,"count":16,"type":"VEC3"},{"bufferView":9,"componentType":5126,"count":368,"type":"VEC4"},{"bufferView":10,"componentType":5126,"count":16,"type":"VEC2"},{"bufferView":11,"componentType":5126,"count":16,"type":"VEC2"},{"bufferView":12,"componentType":5126,"count":16,"type":"VEC4"},{"bufferView":13,"componentType":5123,"count":24,"type":"SCALAR"}],"bufferViews":[{"buffer":0,"byteOffset":0,"byteLength":4224},{"buffer":0,"byteOffset":4224,"byteLength":4224},{"buffer":0,"byteOffset":8448,"byteLength":5888},{"buffer":0,"byteOffset":14336,"byteLength":2816},{"buffer":0,"byteOffset":17152,"byteLength":2816},{"buffer":0,"byteOffset":19968,"byteLength":5632},{"buffer":0,"byteOffset":25600,"byteLength":972},{"buffer":1,"byteOffset":0,"byteLength":192},{"buffer":1,"byteOffset":192,"byteLength":192},{"buffer":1,"byteOffset":384,"byteLength":5888},{"buffer":1,"byteOffset":6272,"byteLength":128},{"buffer":1,"byteOffset":6400,"byteLength":128},{"buffer":1,"byteOffset":6528,"byteLength":256},{"buffer":1,"byteOffset":6784,"byteLength":48}],"buffers":[{"byteLength":26572,"uri":"data:application/octet-stream;base64,"},{"byteLength":6832,"uri":"data:application/octet-stream;base64,"}]}
