{"asset":{"generator":"Khronos glTF Blender I/O v1.2.75","version":"2.0"},"scene":0,"scenes":[{"name":"Scene","nodes":[0]}],"nodes":[{"mesh":0,"name":"Mesh"}],"meshes":[{"name":"SM_Fence09","primitives":[{"indices":6,"attributes":{"POSITION":0,"NORMAL":1,"COLOR_0":2,"TEXCOORD_0":3,"TEXCOORD_1":4,"TANGENT":5},"mode":4},{"indices":13,"attributes":{"POSITION":7,"NORMAL":8,"COLOR_0":9,"TEXCOORD_0":10,"TEXCOORD_1":11,"TANGENT":12},"mode":4}]}],"accessors":[{"bufferView":0,"componentType":5126,"count":992,"type":"VEC3","min":[-0.0405014419555664,-0.024969758987426757,0.07320366382598877],"max":[0.6466712188720704,1.1307139587402344,1.6189649963378907]},{"bufferView":1,"componentType":5126,"count":992,"type":"VEC3"},{"bufferView":2,"componentType":5126,"count":1008,"type":"VEC4"},{"bufferView":3,"componentType":5126,"count":992,"type":"VEC2"},{"bufferView":4,"componentType":5126,"count":992,"type":"VEC2"},{"bufferView":5,"componentType":5126,"count":992,"type":"VEC4"},{"bufferView":6,"componentType":5123,"count":2016,"type":"SCALAR"},{"bufferView":7,"componentType":5126,"count":16,"type":"VEC3","min":[-0.0405014419555664,-0.024969758987426757,0.07320366382598877],"max":[0.6466712188720704,1.1307139587402344,1.6189649963378907]},{"bufferView":8,"componentType":5126,"count":16,"type":"VEC3"},{"bufferView":9,"componentType":5126,"count":1008,"type":"VEC4"},{"bufferView":10,"componentType":5126,"count":16,"type":"VEC2"},{"bufferView":11,"componentType":5126,"count":16,"type":"VEC2"},{"bufferView":12,"componentType":5126,"count":16,"type":"VEC4"},{"bufferView":13,"componentType":5123,"count":24,"type":"SCALAR"}],"bufferViews":[{"buffer":0,"byteOffset":0,"byteLength":11904},{"buffer":0,"byteOffset":11904,"byteLength":11904},{"buffer":0,"byteOffset":23808,"byteLength":16128},{"buffer":0,"byteOffset":39936,"byteLength":7936},{"buffer":0,"byteOffset":47872,"byteLength":7936},{"buffer":0,"byteOffset":55808,"byteLength":15872},{"buffer":0,"byteOffset":71680,"byteLength":4032},{"buffer":1,"byteOffset":0,"byteLength":192},{"buffer":1,"byteOffset":192,"byteLength":192},{"buffer":1,"byteOffset":384,"byteLength":16128},{"buffer":1,"byteOffset":16512,"byteLength":128},{"buffer":1,"byteOffset":16640,"byteLength":128},{"buffer":1,"byteOffset":16768,"byteLength":256},{"buffer":1,"byteOffset":17024,"byteLength":48}],"buffers":[{"byteLength":75712,"uri":"data:application/octet-stream;base64,"},{"byteLength":17072,"uri":"data:application/octet-stream;base64,"}]}
