{"asset":{"generator":"Khronos glTF Blender I/O v1.2.75","version":"2.0"},"scene":0,"scenes":[{"name":"Scene","nodes":[0]}],"nodes":[{"mesh":0,"name":"Mesh"}],"meshes":[{"name":"SM_Fence09","primitives":[{"indices":6,"attributes":{"POSITION":0,"NORMAL":1,"COLOR_0":2,"TEXCOORD_0":3,"TEXCOORD_1":4,"TANGENT":5},"mode":4},{"indices":13,"attributes":{"POSITION":7,"NORMAL":8,"COLOR_0":9,"TEXCOORD_0":10,"TEXCOORD_1":11,"TANGENT":12},"mode":4}]}],"accessors":[{"bufferView":0,"componentType":5126,"count":412,"type":"VEC3","min":[-0.0405014419555664,-0.024969758987426757,0.07320366382598877],"max":[0.6466712188720704,1.1307139587402344,1.6189649963378907]},{"bufferView":1,"componentType":5126,"count":412,"type":"VEC3"},{"bufferView":2,"componentType":5126,"count":428,"type":"VEC4"},{"bufferView":3,"componentType":5126,"count":412,"type":"VEC2"},{"bufferView":4,"componentType":5126,"count":412,"type":"VEC2"},{"bufferView":5,"componentType":5126,"count":412,"type":"VEC4"},{"bufferView":6,"componentType":5123,"count":588,"type":"SCALAR"},{"bufferView":7,"componentType":5126,"count":16,"type":"VEC3","min":[-0.0405014419555664,-0.024969758987426757,0.07320366382598877],"max":[0.6466712188720704,1.1307139587402344,1.6189649963378907]},{"bufferView":8,"componentType":5126,"count":16,"type":"VEC3"},{"bufferView":9,"componentType":5126,"count":428,"type":"VEC4"},{"bufferView":10,"componentType":5126,"count":16,"type":"VEC2"},{"bufferView":11,"componentType":5126,"count":16,"type":"VEC2"},{"bufferView":12,"componentType":5126,"count":16,"type":"VEC4"},{"bufferView":13,"componentType":5123,"count":24,"type":"SCALAR"}],"bufferViews":[{"buffer":0,"byteOffset":0,"byteLength":4944},{"buffer":0,"byteOffset":4944,"byteLength":4944},{"buffer":0,"byteOffset":9888,"byteLength":6848},{"buffer":0,"byteOffset":16736,"byteLength":3296},{"buffer":0,"byteOffset":20032,"byteLength":3296},{"buffer":0,"byteOffset":23328,"byteLength":6592},{"buffer":0,"byteOffset":29920,"byteLength":1176},{"buffer":1,"byteOffset":0,"byteLength":192},{"buffer":1,"byteOffset":192,"byteLength":192},{"buffer":1,"byteOffset":384,"byteLength":6848},{"buffer":1,"byteOffset":7232,"byteLength":128},{"buffer":1,"byteOffset":7360,"byteLength":128},{"buffer":1,"byteOffset":7488,"byteLength":256},{"buffer":1,"byteOffset":7744,"byteLength":48}],"buffers":[{"byteLength":31096,"uri":"data:application/octet-stream;base64,"},{"byteLength":7792,"uri":"data:application/octet-stream;base64,"}]}
