{"asset":{"generator":"Khronos glTF Blender I/O v1.2.75","version":"2.0"},"scene":0,"scenes":[{"name":"Scene","nodes":[0]}],"nodes":[{"mesh":0,"name":"Mesh"}],"meshes":[{"name":"SM_AirConditioning_01","primitives":[{"indices":6,"attributes":{"POSITION":0,"NORMAL":1,"COLOR_0":2,"TEXCOORD_0":3,"TEXCOORD_1":4,"TANGENT":5},"mode":4}]}],"accessors":[{"bufferView":0,"componentType":5126,"count":722,"type":"VEC3","min":[-0.6392057037353516,0.0018527559936046601,-0.8499530029296875],"max":[0.6436377716064453,2.985048828125,0.8502716827392578]},{"bufferView":1,"componentType":5126,"count":722,"type":"VEC3"},{"bufferView":2,"componentType":5126,"count":722,"type":"VEC4"},{"bufferView":3,"componentType":5126,"count":722,"type":"VEC2"},{"bufferView":4,"componentType":5126,"count":722,"type":"VEC2"},{"bufferView":5,"componentType":5126,"count":722,"type":"VEC4"},{"bufferView":6,"componentType":5123,"count":1272,"type":"SCALAR"}],"bufferViews":[{"buffer":0,"byteOffset":0,"byteLength":8664},{"buffer":0,"byteOffset":8664,"byteLength":8664},{"buffer":0,"byteOffset":17328,"byteLength":11552},{"buffer":0,"byteOffset":28880,"byteLength":5776},{"buffer":0,"byteOffset":34656,"byteLength":5776},{"buffer":0,"byteOffset":40432,"byteLength":11552},{"buffer":0,"byteOffset":51984,"byteLength":2544}],"buffers":[{"byteLength":54528,"uri":"data:application/octet-stream;base64,"}]}
