{"asset":{"generator":"Khronos glTF Blender I/O v1.2.75","version":"2.0"},"scene":0,"scenes":[{"name":"Scene","nodes":[0]}],"nodes":[{"mesh":0,"name":"Mesh"}],"meshes":[{"name":"SM_FrontWall01","primitives":[{"indices":6,"attributes":{"POSITION":0,"NORMAL":1,"COLOR_0":2,"TEXCOORD_0":3,"TEXCOORD_1":4,"TANGENT":5},"mode":4},{"indices":13,"attributes":{"POSITION":7,"NORMAL":8,"COLOR_0":9,"TEXCOORD_0":10,"TEXCOORD_1":11,"TANGENT":12},"mode":4},{"indices":20,"attributes":{"POSITION":14,"NORMAL":15,"COLOR_0":16,"TEXCOORD_0":17,"TEXCOORD_1":18,"TANGENT":19},"mode":4}]}],"accessors":[{"bufferView":0,"componentType":5126,"count":102,"type":"VEC3","min":[-0.7435955810546875,-0.013687591552734375,-11.786649169921875],"max":[3.913580017089844,30.4429541015625,11.786370849609375]},{"bufferView":1,"componentType":5126,"count":102,"type":"VEC3"},{"bufferView":2,"componentType":5126,"count":4858,"type":"VEC4"},{"bufferView":3,"componentType":5126,"count":102,"type":"VEC2"},{"bufferView":4,"componentType":5126,"count":102,"type":"VEC2"},{"bufferView":5,"componentType":5126,"count":102,"type":"VEC4"},{"bufferView":6,"componentType":5123,"count":168,"type":"SCALAR"},{"bufferView":7,"componentType":5126,"count":63,"type":"VEC3","min":[-0.7435955810546875,-0.013687591552734375,-11.786649169921875],"max":[3.913580017089844,30.4429541015625,11.786370849609375]},{"bufferView":8,"componentType":5126,"count":63,"type":"VEC3"},{"bufferView":9,"componentType":5126,"count":4858,"type":"VEC4"},{"bufferView":10,"componentType":5126,"count":63,"type":"VEC2"},{"bufferView":11,"componentType":5126,"count":63,"type":"VEC2"},{"bufferView":12,"componentType":5126,"count":63,"type":"VEC4"},{"bufferView":13,"componentType":5123,"count":96,"type":"SCALAR"},{"bufferView":14,"componentType":5126,"count":4693,"type":"VEC3","min":[-0.7435955810546875,-0.013687591552734375,-11.786649169921875],"max":[3.913580017089844,30.4429541015625,11.786370849609375]},{"bufferView":15,"componentType":5126,"count":4693,"type":"VEC3"},{"bufferView":16,"componentType":5126,"count":4858,"type":"VEC4"},{"bufferView":17,"componentType":5126,"count":4693,"type":"VEC2"},{"bufferView":18,"componentType":5126,"count":4693,"type":"VEC2"},{"bufferView":19,"componentType":5126,"count":4693,"type":"VEC4"},{"bufferView":20,"componentType":5123,"count":8727,"type":"SCALAR"}],"bufferViews":[{"buffer":0,"byteOffset":0,"byteLength":1224},{"buffer":0,"byteOffset":1224,"byteLength":1224},{"buffer":0,"byteOffset":2448,"byteLength":77728},{"buffer":0,"byteOffset":80176,"byteLength":816},{"buffer":0,"byteOffset":80992,"byteLength":816},{"buffer":0,"byteOffset":81808,"byteLength":1632},{"buffer":0,"byteOffset":83440,"byteLength":336},{"buffer":1,"byteOffset":0,"byteLength":756},{"buffer":1,"byteOffset":756,"byteLength":756},{"buffer":1,"byteOffset":1512,"byteLength":77728},{"buffer":1,"byteOffset":79240,"byteLength":504},{"buffer":1,"byteOffset":79744,"byteLength":504},{"buffer":1,"byteOffset":80248,"byteLength":1008},{"buffer":1,"byteOffset":81256,"byteLength":192},{"buffer":2,"byteOffset":0,"byteLength":56316},{"buffer":2,"byteOffset":56316,"byteLength":56316},{"buffer":2,"byteOffset":112632,"byteLength":77728},{"buffer":2,"byteOffset":190360,"byteLength":37544},{"buffer":2,"byteOffset":227904,"byteLength":37544},{"buffer":2,"byteOffset":265448,"byteLength":75088},{"buffer":2,"byteOffset":340536,"byteLength":17454}],"buffers":[{"byteLength":83776,"uri":"data:application/octet-stream;base64,"},{"byteLength":81448,"uri":"data:application/octet-stream;base64,"},{"byteLength":357990,"uri":"data:application/octet-stream;base64,"}]}
