{"asset":{"generator":"Khronos glTF Blender I/O v1.2.75","version":"2.0"},"scene":0,"scenes":[{"name":"Scene","nodes":[0]}],"nodes":[{"mesh":0,"name":"Mesh"}],"meshes":[{"name":"SM_FrontWall01","primitives":[{"indices":6,"attributes":{"POSITION":0,"NORMAL":1,"COLOR_0":2,"TEXCOORD_0":3,"TEXCOORD_1":4,"TANGENT":5},"mode":4},{"indices":13,"attributes":{"POSITION":7,"NORMAL":8,"COLOR_0":9,"TEXCOORD_0":10,"TEXCOORD_1":11,"TANGENT":12},"mode":4},{"indices":20,"attributes":{"POSITION":14,"NORMAL":15,"COLOR_0":16,"TEXCOORD_0":17,"TEXCOORD_1":18,"TANGENT":19},"mode":4}]}],"accessors":[{"bufferView":0,"componentType":5126,"count":118,"type":"VEC3","min":[-0.7435955810546875,-0.013687591552734375,-11.786649169921875],"max":[3.913580017089844,30.4429541015625,11.786370849609375]},{"bufferView":1,"componentType":5126,"count":118,"type":"VEC3"},{"bufferView":2,"componentType":5126,"count":7885,"type":"VEC4"},{"bufferView":3,"componentType":5126,"count":118,"type":"VEC2"},{"bufferView":4,"componentType":5126,"count":118,"type":"VEC2"},{"bufferView":5,"componentType":5126,"count":118,"type":"VEC4"},{"bufferView":6,"componentType":5123,"count":216,"type":"SCALAR"},{"bufferView":7,"componentType":5126,"count":67,"type":"VEC3","min":[-0.7435955810546875,-0.013687591552734375,-11.786649169921875],"max":[3.913580017089844,30.4429541015625,11.786370849609375]},{"bufferView":8,"componentType":5126,"count":67,"type":"VEC3"},{"bufferView":9,"componentType":5126,"count":7885,"type":"VEC4"},{"bufferView":10,"componentType":5126,"count":67,"type":"VEC2"},{"bufferView":11,"componentType":5126,"count":67,"type":"VEC2"},{"bufferView":12,"componentType":5126,"count":67,"type":"VEC4"},{"bufferView":13,"componentType":5123,"count":108,"type":"SCALAR"},{"bufferView":14,"componentType":5126,"count":7700,"type":"VEC3","min":[-0.7435955810546875,-0.013687591552734375,-11.786649169921875],"max":[3.913580017089844,30.4429541015625,11.786370849609375]},{"bufferView":15,"componentType":5126,"count":7700,"type":"VEC3"},{"bufferView":16,"componentType":5126,"count":7885,"type":"VEC4"},{"bufferView":17,"componentType":5126,"count":7700,"type":"VEC2"},{"bufferView":18,"componentType":5126,"count":7700,"type":"VEC2"},{"bufferView":19,"componentType":5126,"count":7700,"type":"VEC4"},{"bufferView":20,"componentType":5123,"count":17664,"type":"SCALAR"}],"bufferViews":[{"buffer":0,"byteOffset":0,"byteLength":1416},{"buffer":0,"byteOffset":1416,"byteLength":1416},{"buffer":0,"byteOffset":2832,"byteLength":126160},{"buffer":0,"byteOffset":128992,"byteLength":944},{"buffer":0,"byteOffset":129936,"byteLength":944},{"buffer":0,"byteOffset":130880,"byteLength":1888},{"buffer":0,"byteOffset":132768,"byteLength":432},{"buffer":1,"byteOffset":0,"byteLength":804},{"buffer":1,"byteOffset":804,"byteLength":804},{"buffer":1,"byteOffset":1608,"byteLength":126160},{"buffer":1,"byteOffset":127768,"byteLength":536},{"buffer":1,"byteOffset":128304,"byteLength":536},{"buffer":1,"byteOffset":128840,"byteLength":1072},{"buffer":1,"byteOffset":129912,"byteLength":216},{"buffer":2,"byteOffset":0,"byteLength":92400},{"buffer":2,"byteOffset":92400,"byteLength":92400},{"buffer":2,"byteOffset":184800,"byteLength":126160},{"buffer":2,"byteOffset":310960,"byteLength":61600},{"buffer":2,"byteOffset":372560,"byteLength":61600},{"buffer":2,"byteOffset":434160,"byteLength":123200},{"buffer":2,"byteOffset":557360,"byteLength":35328}],"buffers":[{"byteLength":133200,"uri":"data:application/octet-stream;base64,"},{"byteLength":130128,"uri":"data:application/octet-stream;base64,"},{"byteLength":592688,"uri":"data:application/octet-stream;base64,"}]}
