{"asset":{"generator":"Khronos glTF Blender I/O v1.2.75","version":"2.0"},"scene":0,"scenes":[{"name":"Scene","nodes":[0]}],"nodes":[{"mesh":0,"name":"Mesh"}],"meshes":[{"name":"SM_PipeGroup31","primitives":[{"indices":5,"attributes":{"POSITION":0,"NORMAL":1,"TEXCOORD_0":2,"TEXCOORD_1":3,"TANGENT":4},"mode":4}]}],"accessors":[{"bufferView":0,"componentType":5126,"count":971,"type":"VEC3","min":[-0.13140012741088866,-0.8150779724121093,-0.14206546783447266],"max":[20.30734375,0.43864776611328127,0.14087594032287598]},{"bufferView":1,"componentType":5126,"count":971,"type":"VEC3"},{"bufferView":2,"componentType":5126,"count":971,"type":"VEC2"},{"bufferView":3,"componentType":5126,"count":971,"type":"VEC2"},{"bufferView":4,"componentType":5126,"count":971,"type":"VEC4"},{"bufferView":5,"componentType":5123,"count":2619,"type":"SCALAR"}],"bufferViews":[{"buffer":0,"byteOffset":0,"byteLength":11652},{"buffer":0,"byteOffset":11652,"byteLength":11652},{"buffer":0,"byteOffset":23304,"byteLength":7768},{"buffer":0,"byteOffset":31072,"byteLength":7768},{"buffer":0,"byteOffset":38840,"byteLength":15536},{"buffer":0,"byteOffset":54376,"byteLength":5238}],"buffers":[{"byteLength":59614,"uri":"data:application/octet-stream;base64,"}]}
