{"asset":{"generator":"Khronos glTF Blender I/O v1.2.75","version":"2.0"},"scene":0,"scenes":[{"name":"Scene","nodes":[0]}],"nodes":[{"mesh":0,"name":"Mesh"}],"meshes":[{"name":"SM_IndustrialPlatform03","primitives":[{"indices":6,"attributes":{"POSITION":0,"NORMAL":1,"COLOR_0":2,"TEXCOORD_0":3,"TEXCOORD_1":4,"TANGENT":5},"mode":4}]}],"accessors":[{"bufferView":0,"componentType":5126,"count":386,"type":"VEC3","min":[-1.5074026489257812,8.0108642578125e-7,-1.5000013732910156],"max":[1.5236302185058594,0.6975637817382813,1.4999998474121095]},{"bufferView":1,"componentType":5126,"count":386,"type":"VEC3"},{"bufferView":2,"componentType":5126,"count":386,"type":"VEC4"},{"bufferView":3,"componentType":5126,"count":386,"type":"VEC2"},{"bufferView":4,"componentType":5126,"count":386,"type":"VEC2"},{"bufferView":5,"componentType":5126,"count":386,"type":"VEC4"},{"bufferView":6,"componentType":5123,"count":762,"type":"SCALAR"}],"bufferViews":[{"buffer":0,"byteOffset":0,"byteLength":4632},{"buffer":0,"byteOffset":4632,"byteLength":4632},{"buffer":0,"byteOffset":9264,"byteLength":6176},{"buffer":0,"byteOffset":15440,"byteLength":3088},{"buffer":0,"byteOffset":18528,"byteLength":3088},{"buffer":0,"byteOffset":21616,"byteLength":6176},{"buffer":0,"byteOffset":27792,"byteLength":1524}],"buffers":[{"byteLength":29316,"uri":"data:application/octet-stream;base64,"}]}
