{"asset":{"generator":"Khronos glTF Blender I/O v1.2.75","version":"2.0"},"scene":0,"scenes":[{"name":"Scene","nodes":[0]}],"nodes":[{"mesh":0,"name":"Mesh"}],"meshes":[{"name":"SM_SaleShelf_02","primitives":[{"indices":5,"attributes":{"POSITION":0,"NORMAL":1,"TEXCOORD_0":2,"TEXCOORD_1":3,"TANGENT":4},"mode":4}]}],"accessors":[{"bufferView":0,"componentType":5126,"count":2682,"type":"VEC3","min":[-0.0023752593994140624,0.008721564412117005,4.1961669921875e-7],"max":[0.2999994659423828,1.6183216857910157,0.7999997711181641]},{"bufferView":1,"componentType":5126,"count":2682,"type":"VEC3"},{"bufferView":2,"componentType":5126,"count":2682,"type":"VEC2"},{"bufferView":3,"componentType":5126,"count":2682,"type":"VEC2"},{"bufferView":4,"componentType":5126,"count":2682,"type":"VEC4"},{"bufferView":5,"componentType":5123,"count":6672,"type":"SCALAR"}],"bufferViews":[{"buffer":0,"byteOffset":0,"byteLength":32184},{"buffer":0,"byteOffset":32184,"byteLength":32184},{"buffer":0,"byteOffset":64368,"byteLength":21456},{"buffer":0,"byteOffset":85824,"byteLength":21456},{"buffer":0,"byteOffset":107280,"byteLength":42912},{"buffer":0,"byteOffset":150192,"byteLength":13344}],"buffers":[{"byteLength":163536,"uri":"data:application/octet-stream;base64,"}]}
