{"asset":{"generator":"Khronos glTF Blender I/O v1.2.75","version":"2.0"},"scene":0,"scenes":[{"name":"Scene","nodes":[0]}],"nodes":[{"mesh":0,"name":"Mesh"}],"meshes":[{"name":"SM_Stair_01","primitives":[{"indices":6,"attributes":{"POSITION":0,"NORMAL":1,"COLOR_0":2,"TEXCOORD_0":3,"TEXCOORD_1":4,"TANGENT":5},"mode":4}]}],"accessors":[{"bufferView":0,"componentType":5126,"count":5125,"type":"VEC3","min":[-5.259242553710937,-9.343313999825804e-24,-2.0255783081054686],"max":[0.00018096923828125,4.559537963867188,0.09073471069335938]},{"bufferView":1,"componentType":5126,"count":5125,"type":"VEC3"},{"bufferView":2,"componentType":5126,"count":5125,"type":"VEC4"},{"bufferView":3,"componentType":5126,"count":5125,"type":"VEC2"},{"bufferView":4,"componentType":5126,"count":5125,"type":"VEC2"},{"bufferView":5,"componentType":5126,"count":5125,"type":"VEC4"},{"bufferView":6,"componentType":5123,"count":6558,"type":"SCALAR"}],"bufferViews":[{"buffer":0,"byteOffset":0,"byteLength":61500},{"buffer":0,"byteOffset":61500,"byteLength":61500},{"buffer":0,"byteOffset":123000,"byteLength":82000},{"buffer":0,"byteOffset":205000,"byteLength":41000},{"buffer":0,"byteOffset":246000,"byteLength":41000},{"buffer":0,"byteOffset":287000,"byteLength":82000},{"buffer":0,"byteOffset":369000,"byteLength":13116}],"buffers":[{"byteLength":382116,"uri":"data:application/octet-stream;base64,"}]}
