{"asset":{"generator":"Khronos glTF Blender I/O v1.2.75","version":"2.0"},"scene":0,"scenes":[{"name":"Scene","nodes":[0]}],"nodes":[{"mesh":0,"name":"Mesh"}],"meshes":[{"name":"SM_Handrail_01","primitives":[{"indices":5,"attributes":{"POSITION":0,"NORMAL":1,"TEXCOORD_0":2,"TEXCOORD_1":3,"TANGENT":4},"mode":4}]}],"accessors":[{"bufferView":0,"componentType":5126,"count":148,"type":"VEC3","min":[-0.07499992370605468,-6.398780380475208e-17,-1.045],"max":[0.07500007629394531,0.85,1.0450001525878907]},{"bufferView":1,"componentType":5126,"count":148,"type":"VEC3"},{"bufferView":2,"componentType":5126,"count":148,"type":"VEC2"},{"bufferView":3,"componentType":5126,"count":148,"type":"VEC2"},{"bufferView":4,"componentType":5126,"count":148,"type":"VEC4"},{"bufferView":5,"componentType":5123,"count":372,"type":"SCALAR"}],"bufferViews":[{"buffer":0,"byteOffset":0,"byteLength":1776},{"buffer":0,"byteOffset":1776,"byteLength":1776},{"buffer":0,"byteOffset":3552,"byteLength":1184},{"buffer":0,"byteOffset":4736,"byteLength":1184},{"buffer":0,"byteOffset":5920,"byteLength":2368},{"buffer":0,"byteOffset":8288,"byteLength":744}],"buffers":[{"byteLength":9032,"uri":"data:application/octet-stream;base64,"}]}
