{"asset":{"generator":"Khronos glTF Blender I/O v1.2.75","version":"2.0"},"scene":0,"scenes":[{"name":"Scene","nodes":[0]}],"nodes":[{"mesh":0,"name":"Mesh"}],"meshes":[{"name":"SM_GarbageBag03","primitives":[{"indices":5,"attributes":{"POSITION":0,"NORMAL":1,"TEXCOORD_0":2,"TEXCOORD_1":3,"TANGENT":4},"mode":4}]}],"accessors":[{"bufferView":0,"componentType":5126,"count":3559,"type":"VEC3","min":[-0.49110424041748046,-0.0018487998843193054,-0.49236751556396485],"max":[0.4893438720703125,1.1632073211669922,0.49826583862304685]},{"bufferView":1,"componentType":5126,"count":3559,"type":"VEC3"},{"bufferView":2,"componentType":5126,"count":3559,"type":"VEC2"},{"bufferView":3,"componentType":5126,"count":3559,"type":"VEC2"},{"bufferView":4,"componentType":5126,"count":3559,"type":"VEC4"},{"bufferView":5,"componentType":5123,"count":19164,"type":"SCALAR"}],"bufferViews":[{"buffer":0,"byteOffset":0,"byteLength":42708},{"buffer":0,"byteOffset":42708,"byteLength":42708},{"buffer":0,"byteOffset":85416,"byteLength":28472},{"buffer":0,"byteOffset":113888,"byteLength":28472},{"buffer":0,"byteOffset":142360,"byteLength":56944},{"buffer":0,"byteOffset":199304,"byteLength":38328}],"buffers":[{"byteLength":237632,"uri":"data:application/octet-stream;base64,"}]}
