{"asset":{"generator":"Khronos glTF Blender I/O v1.2.75","version":"2.0"},"scene":0,"scenes":[{"name":"Scene","nodes":[0]}],"nodes":[{"mesh":0,"name":"Mesh"}],"meshes":[{"name":"SM_GarbageBag03","primitives":[{"indices":5,"attributes":{"POSITION":0,"NORMAL":1,"TEXCOORD_0":2,"TEXCOORD_1":3,"TANGENT":4},"mode":4}]}],"accessors":[{"bufferView":0,"componentType":5126,"count":1899,"type":"VEC3","min":[-0.49110424041748046,-0.0018487998843193054,-0.49236751556396485],"max":[0.4893438720703125,1.1632073211669922,0.49826583862304685]},{"bufferView":1,"componentType":5126,"count":1899,"type":"VEC3"},{"bufferView":2,"componentType":5126,"count":1899,"type":"VEC2"},{"bufferView":3,"componentType":5126,"count":1899,"type":"VEC2"},{"bufferView":4,"componentType":5126,"count":1899,"type":"VEC4"},{"bufferView":5,"componentType":5123,"count":9579,"type":"SCALAR"}],"bufferViews":[{"buffer":0,"byteOffset":0,"byteLength":22788},{"buffer":0,"byteOffset":22788,"byteLength":22788},{"buffer":0,"byteOffset":45576,"byteLength":15192},{"buffer":0,"byteOffset":60768,"byteLength":15192},{"buffer":0,"byteOffset":75960,"byteLength":30384},{"buffer":0,"byteOffset":106344,"byteLength":19158}],"buffers":[{"byteLength":125502,"uri":"data:application/octet-stream;base64,"}]}
