{"asset":{"generator":"Khronos glTF Blender I/O v1.2.75","version":"2.0"},"scene":0,"scenes":[{"name":"Scene","nodes":[0]}],"nodes":[{"mesh":0,"name":"Mesh"}],"meshes":[{"name":"SM_WashPan","primitives":[{"indices":5,"attributes":{"POSITION":0,"NORMAL":1,"TEXCOORD_0":2,"TEXCOORD_1":3,"TANGENT":4},"mode":4}]}],"accessors":[{"bufferView":0,"componentType":5126,"count":134,"type":"VEC3","min":[-7.62939453125e-8,-4.073016953043407e-8,-0.25000003814697264],"max":[0.49999992370605467,2.05,0.2500003433227539]},{"bufferView":1,"componentType":5126,"count":134,"type":"VEC3"},{"bufferView":2,"componentType":5126,"count":134,"type":"VEC2"},{"bufferView":3,"componentType":5126,"count":134,"type":"VEC2"},{"bufferView":4,"componentType":5126,"count":134,"type":"VEC4"},{"bufferView":5,"componentType":5123,"count":264,"type":"SCALAR"}],"bufferViews":[{"buffer":0,"byteOffset":0,"byteLength":1608},{"buffer":0,"byteOffset":1608,"byteLength":1608},{"buffer":0,"byteOffset":3216,"byteLength":1072},{"buffer":0,"byteOffset":4288,"byteLength":1072},{"buffer":0,"byteOffset":5360,"byteLength":2144},{"buffer":0,"byteOffset":7504,"byteLength":528}],"buffers":[{"byteLength":8032,"uri":"data:application/octet-stream;base64,"}]}
