{"asset":{"generator":"Khronos glTF Blender I/O v1.2.75","version":"2.0"},"scene":0,"scenes":[{"name":"Scene","nodes":[0]}],"nodes":[{"mesh":0,"name":"Mesh"}],"meshes":[{"name":"SM_LampSet_part_01","primitives":[{"indices":6,"attributes":{"POSITION":0,"NORMAL":1,"COLOR_0":2,"TEXCOORD_0":3,"TEXCOORD_1":4,"TANGENT":5},"mode":4}]}],"accessors":[{"bufferView":0,"componentType":5126,"count":41,"type":"VEC3","min":[-0.14429113388061524,-0.0035293695330619814,-0.7183782196044922],"max":[0.1442911720275879,0.1359652805328369,0.7182151031494141]},{"bufferView":1,"componentType":5126,"count":41,"type":"VEC3"},{"bufferView":2,"componentType":5126,"count":41,"type":"VEC4"},{"bufferView":3,"componentType":5126,"count":41,"type":"VEC2"},{"bufferView":4,"componentType":5126,"count":41,"type":"VEC2"},{"bufferView":5,"componentType":5126,"count":41,"type":"VEC4"},{"bufferView":6,"componentType":5123,"count":69,"type":"SCALAR"}],"bufferViews":[{"buffer":0,"byteOffset":0,"byteLength":492},{"buffer":0,"byteOffset":492,"byteLength":492},{"buffer":0,"byteOffset":984,"byteLength":656},{"buffer":0,"byteOffset":1640,"byteLength":328},{"buffer":0,"byteOffset":1968,"byteLength":328},{"buffer":0,"byteOffset":2296,"byteLength":656},{"buffer":0,"byteOffset":2952,"byteLength":138}],"buffers":[{"byteLength":3090,"uri":"data:application/octet-stream;base64,"}]}
