{"asset":{"generator":"Khronos glTF Blender I/O v1.2.75","version":"2.0"},"scene":0,"scenes":[{"name":"Scene","nodes":[0]}],"nodes":[{"mesh":0,"name":"Mesh"}],"meshes":[{"name":"SM_SaleShelf_G01","primitives":[{"indices":5,"attributes":{"POSITION":0,"NORMAL":1,"TEXCOORD_0":2,"TEXCOORD_1":3,"TANGENT":4},"mode":4}]}],"accessors":[{"bufferView":0,"componentType":5126,"count":608,"type":"VEC3","min":[-0.3,0.00871795654296875,-0.0000048828125],"max":[0.3,1.50872314453125,1.70000732421875]},{"bufferView":1,"componentType":5126,"count":608,"type":"VEC3"},{"bufferView":2,"componentType":5126,"count":608,"type":"VEC2"},{"bufferView":3,"componentType":5126,"count":608,"type":"VEC2"},{"bufferView":4,"componentType":5126,"count":608,"type":"VEC4"},{"bufferView":5,"componentType":5123,"count":1056,"type":"SCALAR"}],"bufferViews":[{"buffer":0,"byteOffset":0,"byteLength":7296},{"buffer":0,"byteOffset":7296,"byteLength":7296},{"buffer":0,"byteOffset":14592,"byteLength":4864},{"buffer":0,"byteOffset":19456,"byteLength":4864},{"buffer":0,"byteOffset":24320,"byteLength":9728},{"buffer":0,"byteOffset":34048,"byteLength":2112}],"buffers":[{"byteLength":36160,"uri":"data:application/octet-stream;base64,"}]}
