{"asset":{"generator":"Khronos glTF Blender I/O v1.2.75","version":"2.0"},"scene":0,"scenes":[{"name":"Scene","nodes":[0]}],"nodes":[{"mesh":0,"name":"Mesh"}],"meshes":[{"name":"SM_NeonFrame01","primitives":[{"indices":5,"attributes":{"POSITION":0,"NORMAL":1,"TEXCOORD_0":2,"TEXCOORD_1":3,"TANGENT":4},"mode":4}]}],"accessors":[{"bufferView":0,"componentType":5126,"count":198,"type":"VEC3","min":[-0.420355224609375,-0.0784814453125,-2.1635546875],"max":[0.4176641845703125,0.10809844970703125,2.163553466796875]},{"bufferView":1,"componentType":5126,"count":198,"type":"VEC3"},{"bufferView":2,"componentType":5126,"count":198,"type":"VEC2"},{"bufferView":3,"componentType":5126,"count":198,"type":"VEC2"},{"bufferView":4,"componentType":5126,"count":198,"type":"VEC4"},{"bufferView":5,"componentType":5123,"count":564,"type":"SCALAR"}],"bufferViews":[{"buffer":0,"byteOffset":0,"byteLength":2376},{"buffer":0,"byteOffset":2376,"byteLength":2376},{"buffer":0,"byteOffset":4752,"byteLength":1584},{"buffer":0,"byteOffset":6336,"byteLength":1584},{"buffer":0,"byteOffset":7920,"byteLength":3168},{"buffer":0,"byteOffset":11088,"byteLength":1128}],"buffers":[{"byteLength":12216,"uri":"data:application/octet-stream;base64,"}]}
