{"asset":{"generator":"Khronos glTF Blender I/O v1.2.75","version":"2.0"},"scene":0,"scenes":[{"name":"Scene","nodes":[0]}],"nodes":[{"mesh":0,"name":"Mesh"}],"meshes":[{"name":"SM_BagsMerged02","primitives":[{"indices":5,"attributes":{"POSITION":0,"NORMAL":1,"TEXCOORD_0":2,"TEXCOORD_1":3,"TANGENT":4},"mode":4}]}],"accessors":[{"bufferView":0,"componentType":5126,"count":9275,"type":"VEC3","min":[-5.7109619140625,-0.25263759613037107,-1.3897216796875],"max":[0.9842527770996093,2.1052459716796874,3.3194918823242188]},{"bufferView":1,"componentType":5126,"count":9275,"type":"VEC3"},{"bufferView":2,"componentType":5126,"count":9275,"type":"VEC2"},{"bufferView":3,"componentType":5126,"count":9275,"type":"VEC2"},{"bufferView":4,"componentType":5126,"count":9275,"type":"VEC4"},{"bufferView":5,"componentType":5123,"count":40923,"type":"SCALAR"}],"bufferViews":[{"buffer":0,"byteOffset":0,"byteLength":111300},{"buffer":0,"byteOffset":111300,"byteLength":111300},{"buffer":0,"byteOffset":222600,"byteLength":74200},{"buffer":0,"byteOffset":296800,"byteLength":74200},{"buffer":0,"byteOffset":371000,"byteLength":148400},{"buffer":0,"byteOffset":519400,"byteLength":81846}],"buffers":[{"byteLength":601246,"uri":"data:application/octet-stream;base64,"}]}
