{"asset":{"generator":"Khronos glTF Blender I/O v1.2.75","version":"2.0"},"scene":0,"scenes":[{"name":"Scene","nodes":[0]}],"nodes":[{"mesh":0,"name":"Mesh"}],"meshes":[{"name":"SM_BagsMerged02","primitives":[{"indices":5,"attributes":{"POSITION":0,"NORMAL":1,"TEXCOORD_0":2,"TEXCOORD_1":3,"TANGENT":4},"mode":4}]}],"accessors":[{"bufferView":0,"componentType":5126,"count":39343,"type":"VEC3","min":[-5.7109619140625,-0.25263759613037107,-1.3897216796875],"max":[0.9842527770996093,2.1052459716796874,3.3194918823242188]},{"bufferView":1,"componentType":5126,"count":39343,"type":"VEC3"},{"bufferView":2,"componentType":5126,"count":39343,"type":"VEC2"},{"bufferView":3,"componentType":5126,"count":39343,"type":"VEC2"},{"bufferView":4,"componentType":5126,"count":39343,"type":"VEC4"},{"bufferView":5,"componentType":5123,"count":204621,"type":"SCALAR"}],"bufferViews":[{"buffer":0,"byteOffset":0,"byteLength":472116},{"buffer":0,"byteOffset":472116,"byteLength":472116},{"buffer":0,"byteOffset":944232,"byteLength":314744},{"buffer":0,"byteOffset":1258976,"byteLength":314744},{"buffer":0,"byteOffset":1573720,"byteLength":629488},{"buffer":0,"byteOffset":2203208,"byteLength":409242}],"buffers":[{"byteLength":2612450,"uri":"data:application/octet-stream;base64,"}]}
