{"asset":{"generator":"Khronos glTF Blender I/O v1.2.75","version":"2.0"},"scene":0,"scenes":[{"name":"Scene","nodes":[0]}],"nodes":[{"mesh":0,"name":"Mesh"}],"meshes":[{"name":"SM_Steps_01","primitives":[{"indices":5,"attributes":{"POSITION":0,"NORMAL":1,"TEXCOORD_0":2,"TEXCOORD_1":3,"TANGENT":4},"mode":4}]}],"accessors":[{"bufferView":0,"componentType":5126,"count":451,"type":"VEC3","min":[0.15,0.0031247279047966004,-2.575],"max":[1.5336216735839843,3.2593203735351564,0.09166812896728516]},{"bufferView":1,"componentType":5126,"count":451,"type":"VEC3"},{"bufferView":2,"componentType":5126,"count":451,"type":"VEC2"},{"bufferView":3,"componentType":5126,"count":451,"type":"VEC2"},{"bufferView":4,"componentType":5126,"count":451,"type":"VEC4"},{"bufferView":5,"componentType":5123,"count":774,"type":"SCALAR"}],"bufferViews":[{"buffer":0,"byteOffset":0,"byteLength":5412},{"buffer":0,"byteOffset":5412,"byteLength":5412},{"buffer":0,"byteOffset":10824,"byteLength":3608},{"buffer":0,"byteOffset":14432,"byteLength":3608},{"buffer":0,"byteOffset":18040,"byteLength":7216},{"buffer":0,"byteOffset":25256,"byteLength":1548}],"buffers":[{"byteLength":26804,"uri":"data:application/octet-stream;base64,"}]}
