{"asset":{"generator":"Khronos glTF Blender I/O v1.2.75","version":"2.0"},"scene":0,"scenes":[{"name":"Scene","nodes":[0]}],"nodes":[{"mesh":0,"name":"Mesh"}],"meshes":[{"name":"SM_Steps_01","primitives":[{"indices":5,"attributes":{"POSITION":0,"NORMAL":1,"TEXCOORD_0":2,"TEXCOORD_1":3,"TANGENT":4},"mode":4}]}],"accessors":[{"bufferView":0,"componentType":5126,"count":697,"type":"VEC3","min":[0.15,0.0031247279047966004,-2.575],"max":[1.5336216735839843,3.2593203735351564,0.09166812896728516]},{"bufferView":1,"componentType":5126,"count":697,"type":"VEC3"},{"bufferView":2,"componentType":5126,"count":697,"type":"VEC2"},{"bufferView":3,"componentType":5126,"count":697,"type":"VEC2"},{"bufferView":4,"componentType":5126,"count":697,"type":"VEC4"},{"bufferView":5,"componentType":5123,"count":1548,"type":"SCALAR"}],"bufferViews":[{"buffer":0,"byteOffset":0,"byteLength":8364},{"buffer":0,"byteOffset":8364,"byteLength":8364},{"buffer":0,"byteOffset":16728,"byteLength":5576},{"buffer":0,"byteOffset":22304,"byteLength":5576},{"buffer":0,"byteOffset":27880,"byteLength":11152},{"buffer":0,"byteOffset":39032,"byteLength":3096}],"buffers":[{"byteLength":42128,"uri":"data:application/octet-stream;base64,"}]}
