{"asset":{"generator":"Khronos glTF Blender I/O v1.2.75","version":"2.0"},"scene":0,"scenes":[{"name":"Scene","nodes":[0]}],"nodes":[{"mesh":0,"name":"Mesh"}],"meshes":[{"name":"SM_BackgroundBuildingPipe01","primitives":[{"indices":5,"attributes":{"POSITION":0,"NORMAL":1,"TEXCOORD_0":2,"TEXCOORD_1":3,"TANGENT":4},"mode":4}]}],"accessors":[{"bufferView":0,"componentType":5126,"count":1404,"type":"VEC3","min":[-9.739955444335937,-10.598529052734374,-8.303025512695312],"max":[10.905367431640625,51.1009423828125,12.67153564453125]},{"bufferView":1,"componentType":5126,"count":1404,"type":"VEC3"},{"bufferView":2,"componentType":5126,"count":1404,"type":"VEC2"},{"bufferView":3,"componentType":5126,"count":1404,"type":"VEC2"},{"bufferView":4,"componentType":5126,"count":1404,"type":"VEC4"},{"bufferView":5,"componentType":5123,"count":6336,"type":"SCALAR"}],"bufferViews":[{"buffer":0,"byteOffset":0,"byteLength":16848},{"buffer":0,"byteOffset":16848,"byteLength":16848},{"buffer":0,"byteOffset":33696,"byteLength":11232},{"buffer":0,"byteOffset":44928,"byteLength":11232},{"buffer":0,"byteOffset":56160,"byteLength":22464},{"buffer":0,"byteOffset":78624,"byteLength":12672}],"buffers":[{"byteLength":91296,"uri":"data:application/octet-stream;base64,"}]}
