{"asset":{"generator":"Khronos glTF Blender I/O v1.2.75","version":"2.0"},"scene":0,"scenes":[{"name":"Scene","nodes":[0]}],"nodes":[{"mesh":0,"name":"Mesh"}],"meshes":[{"name":"SM_BackgroundBuildingPipe01","primitives":[{"indices":5,"attributes":{"POSITION":0,"NORMAL":1,"TEXCOORD_0":2,"TEXCOORD_1":3,"TANGENT":4},"mode":4}]}],"accessors":[{"bufferView":0,"componentType":5126,"count":481,"type":"VEC3","min":[-9.739955444335937,-10.598529052734374,-8.303025512695312],"max":[10.905367431640625,51.1009423828125,12.67153564453125]},{"bufferView":1,"componentType":5126,"count":481,"type":"VEC3"},{"bufferView":2,"componentType":5126,"count":481,"type":"VEC2"},{"bufferView":3,"componentType":5126,"count":481,"type":"VEC2"},{"bufferView":4,"componentType":5126,"count":481,"type":"VEC4"},{"bufferView":5,"componentType":5123,"count":1584,"type":"SCALAR"}],"bufferViews":[{"buffer":0,"byteOffset":0,"byteLength":5772},{"buffer":0,"byteOffset":5772,"byteLength":5772},{"buffer":0,"byteOffset":11544,"byteLength":3848},{"buffer":0,"byteOffset":15392,"byteLength":3848},{"buffer":0,"byteOffset":19240,"byteLength":7696},{"buffer":0,"byteOffset":26936,"byteLength":3168}],"buffers":[{"byteLength":30104,"uri":"data:application/octet-stream;base64,"}]}
