{"asset":{"generator":"Khronos glTF Blender I/O v1.2.75","version":"2.0"},"scene":0,"scenes":[{"name":"Scene","nodes":[0]}],"nodes":[{"mesh":0,"name":"Mesh"}],"meshes":[{"name":"SM_PipeMerged05","primitives":[{"indices":5,"attributes":{"POSITION":0,"NORMAL":1,"TEXCOORD_0":2,"TEXCOORD_1":3,"TANGENT":4},"mode":4}]}],"accessors":[{"bufferView":0,"componentType":5126,"count":732,"type":"VEC3","min":[-1.5534434509277344,-2.000028076171875,-0.04377471923828125],"max":[1.0374451446533204,2.5,0.41726318359375]},{"bufferView":1,"componentType":5126,"count":732,"type":"VEC3"},{"bufferView":2,"componentType":5126,"count":732,"type":"VEC2"},{"bufferView":3,"componentType":5126,"count":732,"type":"VEC2"},{"bufferView":4,"componentType":5126,"count":732,"type":"VEC4"},{"bufferView":5,"componentType":5123,"count":1476,"type":"SCALAR"}],"bufferViews":[{"buffer":0,"byteOffset":0,"byteLength":8784},{"buffer":0,"byteOffset":8784,"byteLength":8784},{"buffer":0,"byteOffset":17568,"byteLength":5856},{"buffer":0,"byteOffset":23424,"byteLength":5856},{"buffer":0,"byteOffset":29280,"byteLength":11712},{"buffer":0,"byteOffset":40992,"byteLength":2952}],"buffers":[{"byteLength":43944,"uri":"data:application/octet-stream;base64,"}]}
