{"asset":{"generator":"Khronos glTF Blender I/O v1.2.75","version":"2.0"},"scene":0,"scenes":[{"name":"Scene","nodes":[0]}],"nodes":[{"mesh":0,"name":"Mesh"}],"meshes":[{"name":"SM_PipeMerged05","primitives":[{"indices":5,"attributes":{"POSITION":0,"NORMAL":1,"TEXCOORD_0":2,"TEXCOORD_1":3,"TANGENT":4},"mode":4}]}],"accessors":[{"bufferView":0,"componentType":5126,"count":3066,"type":"VEC3","min":[-1.5534434509277344,-2.000028076171875,-0.04377471923828125],"max":[1.0374451446533204,2.5,0.41726318359375]},{"bufferView":1,"componentType":5126,"count":3066,"type":"VEC3"},{"bufferView":2,"componentType":5126,"count":3066,"type":"VEC2"},{"bufferView":3,"componentType":5126,"count":3066,"type":"VEC2"},{"bufferView":4,"componentType":5126,"count":3066,"type":"VEC4"},{"bufferView":5,"componentType":5123,"count":7386,"type":"SCALAR"}],"bufferViews":[{"buffer":0,"byteOffset":0,"byteLength":36792},{"buffer":0,"byteOffset":36792,"byteLength":36792},{"buffer":0,"byteOffset":73584,"byteLength":24528},{"buffer":0,"byteOffset":98112,"byteLength":24528},{"buffer":0,"byteOffset":122640,"byteLength":49056},{"buffer":0,"byteOffset":171696,"byteLength":14772}],"buffers":[{"byteLength":186468,"uri":"data:application/octet-stream;base64,"}]}
