{"asset":{"generator":"Khronos glTF Blender I/O v1.2.75","version":"2.0"},"scene":0,"scenes":[{"name":"Scene","nodes":[0]}],"nodes":[{"mesh":0,"name":"Mesh"}],"meshes":[{"name":"SM_Pipe_round_radius_transition2","primitives":[{"indices":6,"attributes":{"POSITION":0,"NORMAL":1,"COLOR_0":2,"TEXCOORD_0":3,"TEXCOORD_1":4,"TANGENT":5},"mode":4}]}],"accessors":[{"bufferView":0,"componentType":5126,"count":225,"type":"VEC3","min":[-0.3151295280456543,-0.3151294898986816,-3.0517578125e-7],"max":[0.3151297378540039,0.31512939453125,0.19999969482421875]},{"bufferView":1,"componentType":5126,"count":225,"type":"VEC3"},{"bufferView":2,"componentType":5126,"count":225,"type":"VEC4"},{"bufferView":3,"componentType":5126,"count":225,"type":"VEC2"},{"bufferView":4,"componentType":5126,"count":225,"type":"VEC2"},{"bufferView":5,"componentType":5126,"count":225,"type":"VEC4"},{"bufferView":6,"componentType":5123,"count":720,"type":"SCALAR"}],"bufferViews":[{"buffer":0,"byteOffset":0,"byteLength":2700},{"buffer":0,"byteOffset":2700,"byteLength":2700},{"buffer":0,"byteOffset":5400,"byteLength":3600},{"buffer":0,"byteOffset":9000,"byteLength":1800},{"buffer":0,"byteOffset":10800,"byteLength":1800},{"buffer":0,"byteOffset":12600,"byteLength":3600},{"buffer":0,"byteOffset":16200,"byteLength":1440}],"buffers":[{"byteLength":17640,"uri":"data:application/octet-stream;base64,"}]}
