{"asset":{"generator":"Khronos glTF Blender I/O v1.2.75","version":"2.0"},"scene":0,"scenes":[{"name":"Scene","nodes":[0]}],"nodes":[{"mesh":0,"name":"Mesh"}],"meshes":[{"name":"SM_RoadMarkings05","primitives":[{"indices":5,"attributes":{"POSITION":0,"NORMAL":1,"TEXCOORD_0":2,"TEXCOORD_1":3,"TANGENT":4},"mode":4}]}],"accessors":[{"bufferView":0,"componentType":5126,"count":32,"type":"VEC3","min":[-0.22257381439208984,-3.1001424927748705e-17,-0.43152660369873047],"max":[0.22320816040039063,2.642338337201103e-17,0.5062916946411132]},{"bufferView":1,"componentType":5126,"count":32,"type":"VEC3"},{"bufferView":2,"componentType":5126,"count":32,"type":"VEC2"},{"bufferView":3,"componentType":5126,"count":32,"type":"VEC2"},{"bufferView":4,"componentType":5126,"count":32,"type":"VEC4"},{"bufferView":5,"componentType":5123,"count":48,"type":"SCALAR"}],"bufferViews":[{"buffer":0,"byteOffset":0,"byteLength":384},{"buffer":0,"byteOffset":384,"byteLength":384},{"buffer":0,"byteOffset":768,"byteLength":256},{"buffer":0,"byteOffset":1024,"byteLength":256},{"buffer":0,"byteOffset":1280,"byteLength":512},{"buffer":0,"byteOffset":1792,"byteLength":96}],"buffers":[{"byteLength":1888,"uri":"data:application/octet-stream;base64,"}]}
