{"asset":{"generator":"Khronos glTF Blender I/O v1.2.75","version":"2.0"},"scene":0,"scenes":[{"name":"Scene","nodes":[0]}],"nodes":[{"mesh":0,"name":"Mesh"}],"meshes":[{"name":"SM_PaperBox_02_02","primitives":[{"indices":6,"attributes":{"POSITION":0,"NORMAL":1,"COLOR_0":2,"TEXCOORD_0":3,"TEXCOORD_1":4,"TANGENT":5},"mode":4}]}],"accessors":[{"bufferView":0,"componentType":5126,"count":88,"type":"VEC3","min":[-0.34105289459228516,-0.0512364673614502,-0.5458008575439454],"max":[0.3964666748046875,1.061631317138672,0.47474002838134766]},{"bufferView":1,"componentType":5126,"count":88,"type":"VEC3"},{"bufferView":2,"componentType":5126,"count":88,"type":"VEC4"},{"bufferView":3,"componentType":5126,"count":88,"type":"VEC2"},{"bufferView":4,"componentType":5126,"count":88,"type":"VEC2"},{"bufferView":5,"componentType":5126,"count":88,"type":"VEC4"},{"bufferView":6,"componentType":5123,"count":96,"type":"SCALAR"}],"bufferViews":[{"buffer":0,"byteOffset":0,"byteLength":1056},{"buffer":0,"byteOffset":1056,"byteLength":1056},{"buffer":0,"byteOffset":2112,"byteLength":1408},{"buffer":0,"byteOffset":3520,"byteLength":704},{"buffer":0,"byteOffset":4224,"byteLength":704},{"buffer":0,"byteOffset":4928,"byteLength":1408},{"buffer":0,"byteOffset":6336,"byteLength":192}],"buffers":[{"byteLength":6528,"uri":"data:application/octet-stream;base64,"}]}
