{"asset":{"generator":"Khronos glTF Blender I/O v1.2.75","version":"2.0"},"scene":0,"scenes":[{"name":"Scene","nodes":[0]}],"nodes":[{"mesh":0,"name":"Mesh"}],"meshes":[{"name":"SM_PipeGroup30","primitives":[{"indices":5,"attributes":{"POSITION":0,"NORMAL":1,"TEXCOORD_0":2,"TEXCOORD_1":3,"TANGENT":4},"mode":4}]}],"accessors":[{"bufferView":0,"componentType":5126,"count":464,"type":"VEC3","min":[-0.6299343490600586,-0.6153219985961914,-5.33352783203125],"max":[0.15102556228637695,15.931585693359375,0.1378375244140625]},{"bufferView":1,"componentType":5126,"count":464,"type":"VEC3"},{"bufferView":2,"componentType":5126,"count":464,"type":"VEC2"},{"bufferView":3,"componentType":5126,"count":464,"type":"VEC2"},{"bufferView":4,"componentType":5126,"count":464,"type":"VEC4"},{"bufferView":5,"componentType":5123,"count":1113,"type":"SCALAR"}],"bufferViews":[{"buffer":0,"byteOffset":0,"byteLength":5568},{"buffer":0,"byteOffset":5568,"byteLength":5568},{"buffer":0,"byteOffset":11136,"byteLength":3712},{"buffer":0,"byteOffset":14848,"byteLength":3712},{"buffer":0,"byteOffset":18560,"byteLength":7424},{"buffer":0,"byteOffset":25984,"byteLength":2226}],"buffers":[{"byteLength":28210,"uri":"data:application/octet-stream;base64,"}]}
