{"asset":{"generator":"Khronos glTF Blender I/O v1.2.75","version":"2.0"},"scene":0,"scenes":[{"name":"Scene","nodes":[0]}],"nodes":[{"mesh":0,"name":"Mesh"}],"meshes":[{"name":"SM_PipeGroup30","primitives":[{"indices":5,"attributes":{"POSITION":0,"NORMAL":1,"TEXCOORD_0":2,"TEXCOORD_1":3,"TANGENT":4},"mode":4}]}],"accessors":[{"bufferView":0,"componentType":5126,"count":1416,"type":"VEC3","min":[-0.6299343490600586,-0.6153219985961914,-5.33352783203125],"max":[0.15102556228637695,15.931585693359375,0.1378375244140625]},{"bufferView":1,"componentType":5126,"count":1416,"type":"VEC3"},{"bufferView":2,"componentType":5126,"count":1416,"type":"VEC2"},{"bufferView":3,"componentType":5126,"count":1416,"type":"VEC2"},{"bufferView":4,"componentType":5126,"count":1416,"type":"VEC4"},{"bufferView":5,"componentType":5123,"count":4452,"type":"SCALAR"}],"bufferViews":[{"buffer":0,"byteOffset":0,"byteLength":16992},{"buffer":0,"byteOffset":16992,"byteLength":16992},{"buffer":0,"byteOffset":33984,"byteLength":11328},{"buffer":0,"byteOffset":45312,"byteLength":11328},{"buffer":0,"byteOffset":56640,"byteLength":22656},{"buffer":0,"byteOffset":79296,"byteLength":8904}],"buffers":[{"byteLength":88200,"uri":"data:application/octet-stream;base64,"}]}
