{"asset":{"generator":"Khronos glTF Blender I/O v1.2.75","version":"2.0"},"scene":0,"scenes":[{"name":"Scene","nodes":[0]}],"nodes":[{"mesh":0,"name":"Mesh"}],"meshes":[{"name":"SM_CocosLogo_01","primitives":[{"indices":5,"attributes":{"POSITION":0,"NORMAL":1,"TEXCOORD_0":2,"TEXCOORD_1":3,"TANGENT":4},"mode":4}]}],"accessors":[{"bufferView":0,"componentType":5126,"count":1560,"type":"VEC3","min":[-0.8789036560058594,-0.5035094833374023,-1.3625308383780066e-7],"max":[0.8457939910888672,0.5599010467529297,0.13483664512634277]},{"bufferView":1,"componentType":5126,"count":1560,"type":"VEC3"},{"bufferView":2,"componentType":5126,"count":1560,"type":"VEC2"},{"bufferView":3,"componentType":5126,"count":1560,"type":"VEC2"},{"bufferView":4,"componentType":5126,"count":1560,"type":"VEC4"},{"bufferView":5,"componentType":5123,"count":5199,"type":"SCALAR"}],"bufferViews":[{"buffer":0,"byteOffset":0,"byteLength":18720},{"buffer":0,"byteOffset":18720,"byteLength":18720},{"buffer":0,"byteOffset":37440,"byteLength":12480},{"buffer":0,"byteOffset":49920,"byteLength":12480},{"buffer":0,"byteOffset":62400,"byteLength":24960},{"buffer":0,"byteOffset":87360,"byteLength":10398}],"buffers":[{"byteLength":97758,"uri":"data:application/octet-stream;base64,"}]}
