{"asset":{"generator":"Khronos glTF Blender I/O v1.2.75","version":"2.0"},"scene":0,"scenes":[{"name":"Scene","nodes":[0]}],"nodes":[{"mesh":0,"name":"Mesh"}],"meshes":[{"name":"SM_CocosLogo_01","primitives":[{"indices":5,"attributes":{"POSITION":0,"NORMAL":1,"TEXCOORD_0":2,"TEXCOORD_1":3,"TANGENT":4},"mode":4}]}],"accessors":[{"bufferView":0,"componentType":5126,"count":2697,"type":"VEC3","min":[-0.8789036560058594,-0.5035094833374023,-1.3625308383780066e-7],"max":[0.8457939910888672,0.5599010467529297,0.13483664512634277]},{"bufferView":1,"componentType":5126,"count":2697,"type":"VEC3"},{"bufferView":2,"componentType":5126,"count":2697,"type":"VEC2"},{"bufferView":3,"componentType":5126,"count":2697,"type":"VEC2"},{"bufferView":4,"componentType":5126,"count":2697,"type":"VEC4"},{"bufferView":5,"componentType":5123,"count":10392,"type":"SCALAR"}],"bufferViews":[{"buffer":0,"byteOffset":0,"byteLength":32364},{"buffer":0,"byteOffset":32364,"byteLength":32364},{"buffer":0,"byteOffset":64728,"byteLength":21576},{"buffer":0,"byteOffset":86304,"byteLength":21576},{"buffer":0,"byteOffset":107880,"byteLength":43152},{"buffer":0,"byteOffset":151032,"byteLength":20784}],"buffers":[{"byteLength":171816,"uri":"data:application/octet-stream;base64,"}]}
