{"asset":{"generator":"Khronos glTF Blender I/O v1.2.75","version":"2.0"},"scene":0,"scenes":[{"name":"Scene","nodes":[0]}],"nodes":[{"mesh":0,"name":"Mesh"}],"meshes":[{"name":"SM_CocosLogo_01","primitives":[{"indices":5,"attributes":{"POSITION":0,"NORMAL":1,"TEXCOORD_0":2,"TEXCOORD_1":3,"TANGENT":4},"mode":4}]}],"accessors":[{"bufferView":0,"componentType":5126,"count":4740,"type":"VEC3","min":[-0.8789036560058594,-0.5035094833374023,-1.3625308383780066e-7],"max":[0.8457939910888672,0.5599010467529297,0.13483664512634277]},{"bufferView":1,"componentType":5126,"count":4740,"type":"VEC3"},{"bufferView":2,"componentType":5126,"count":4740,"type":"VEC2"},{"bufferView":3,"componentType":5126,"count":4740,"type":"VEC2"},{"bufferView":4,"componentType":5126,"count":4740,"type":"VEC4"},{"bufferView":5,"componentType":5123,"count":20790,"type":"SCALAR"}],"bufferViews":[{"buffer":0,"byteOffset":0,"byteLength":56880},{"buffer":0,"byteOffset":56880,"byteLength":56880},{"buffer":0,"byteOffset":113760,"byteLength":37920},{"buffer":0,"byteOffset":151680,"byteLength":37920},{"buffer":0,"byteOffset":189600,"byteLength":75840},{"buffer":0,"byteOffset":265440,"byteLength":41580}],"buffers":[{"byteLength":307020,"uri":"data:application/octet-stream;base64,"}]}
