{"asset":{"generator":"Khronos glTF Blender I/O v1.2.75","version":"2.0"},"scene":0,"scenes":[{"name":"Scene","nodes":[0]}],"nodes":[{"mesh":0,"name":"Mesh"}],"meshes":[{"name":"SM_PipeGroup14","primitives":[{"indices":5,"attributes":{"POSITION":0,"NORMAL":1,"TEXCOORD_0":2,"TEXCOORD_1":3,"TANGENT":4},"mode":4}]}],"accessors":[{"bufferView":0,"componentType":5126,"count":4040,"type":"VEC3","min":[-6.700167236328125,-3.6433465576171873,-8.980128784179687],"max":[0.5552880859375,15.4503173828125,0.31008338928222656]},{"bufferView":1,"componentType":5126,"count":4040,"type":"VEC3"},{"bufferView":2,"componentType":5126,"count":4040,"type":"VEC2"},{"bufferView":3,"componentType":5126,"count":4040,"type":"VEC2"},{"bufferView":4,"componentType":5126,"count":4040,"type":"VEC4"},{"bufferView":5,"componentType":5123,"count":7176,"type":"SCALAR"}],"bufferViews":[{"buffer":0,"byteOffset":0,"byteLength":48480},{"buffer":0,"byteOffset":48480,"byteLength":48480},{"buffer":0,"byteOffset":96960,"byteLength":32320},{"buffer":0,"byteOffset":129280,"byteLength":32320},{"buffer":0,"byteOffset":161600,"byteLength":64640},{"buffer":0,"byteOffset":226240,"byteLength":14352}],"buffers":[{"byteLength":240592,"uri":"data:application/octet-stream;base64,"}]}
