{"asset":{"generator":"Khronos glTF Blender I/O v1.2.75","version":"2.0"},"scene":0,"scenes":[{"name":"Scene","nodes":[0]}],"nodes":[{"mesh":0,"name":"Mesh"}],"meshes":[{"name":"SM_Lamp_01","primitives":[{"indices":5,"attributes":{"POSITION":0,"NORMAL":1,"TEXCOORD_0":2,"TEXCOORD_1":3,"TANGENT":4},"mode":4}]}],"accessors":[{"bufferView":0,"componentType":5126,"count":106,"type":"VEC3","min":[-0.2,-0.19999998092651367,-1.3510647249859176e-8],"max":[0.2,0.04999998569488526,0.1263224220275879]},{"bufferView":1,"componentType":5126,"count":106,"type":"VEC3"},{"bufferView":2,"componentType":5126,"count":106,"type":"VEC2"},{"bufferView":3,"componentType":5126,"count":106,"type":"VEC2"},{"bufferView":4,"componentType":5126,"count":106,"type":"VEC4"},{"bufferView":5,"componentType":5123,"count":276,"type":"SCALAR"}],"bufferViews":[{"buffer":0,"byteOffset":0,"byteLength":1272},{"buffer":0,"byteOffset":1272,"byteLength":1272},{"buffer":0,"byteOffset":2544,"byteLength":848},{"buffer":0,"byteOffset":3392,"byteLength":848},{"buffer":0,"byteOffset":4240,"byteLength":1696},{"buffer":0,"byteOffset":5936,"byteLength":552}],"buffers":[{"byteLength":6488,"uri":"data:application/octet-stream;base64,"}]}
