{"asset":{"generator":"Khronos glTF Blender I/O v1.2.75","version":"2.0"},"scene":0,"scenes":[{"name":"Scene","nodes":[0]}],"nodes":[{"mesh":0,"name":"Mesh"}],"meshes":[{"name":"SM_SignboardText04","primitives":[{"indices":5,"attributes":{"POSITION":0,"NORMAL":1,"TEXCOORD_0":2,"TEXCOORD_1":3,"TANGENT":4},"mode":4}]}],"accessors":[{"bufferView":0,"componentType":5126,"count":732,"type":"VEC3","min":[-4.370849609375,-1.2567326354980468,-5.301495548337698e-8],"max":[4.370849609375,1.2567330932617187,0.34999996185302734]},{"bufferView":1,"componentType":5126,"count":732,"type":"VEC3"},{"bufferView":2,"componentType":5126,"count":732,"type":"VEC2"},{"bufferView":3,"componentType":5126,"count":732,"type":"VEC2"},{"bufferView":4,"componentType":5126,"count":732,"type":"VEC4"},{"bufferView":5,"componentType":5123,"count":1860,"type":"SCALAR"}],"bufferViews":[{"buffer":0,"byteOffset":0,"byteLength":8784},{"buffer":0,"byteOffset":8784,"byteLength":8784},{"buffer":0,"byteOffset":17568,"byteLength":5856},{"buffer":0,"byteOffset":23424,"byteLength":5856},{"buffer":0,"byteOffset":29280,"byteLength":11712},{"buffer":0,"byteOffset":40992,"byteLength":3720}],"buffers":[{"byteLength":44712,"uri":"data:application/octet-stream;base64,"}]}
