{"asset":{"generator":"Khronos glTF Blender I/O v1.2.75","version":"2.0"},"scene":0,"scenes":[{"name":"Scene","nodes":[0]}],"nodes":[{"mesh":0,"name":"Mesh"}],"meshes":[{"name":"SM_PaperBox_02_06","primitives":[{"indices":6,"attributes":{"POSITION":0,"NORMAL":1,"COLOR_0":2,"TEXCOORD_0":3,"TEXCOORD_1":4,"TANGENT":5},"mode":4}]}],"accessors":[{"bufferView":0,"componentType":5126,"count":242,"type":"VEC3","min":[-0.9278200531005859,-0.07570693016052246,-0.7038481140136719],"max":[0.9588204193115234,0.1013104248046875,0.7623594665527343]},{"bufferView":1,"componentType":5126,"count":242,"type":"VEC3"},{"bufferView":2,"componentType":5126,"count":242,"type":"VEC4"},{"bufferView":3,"componentType":5126,"count":242,"type":"VEC2"},{"bufferView":4,"componentType":5126,"count":242,"type":"VEC2"},{"bufferView":5,"componentType":5126,"count":242,"type":"VEC4"},{"bufferView":6,"componentType":5123,"count":294,"type":"SCALAR"}],"bufferViews":[{"buffer":0,"byteOffset":0,"byteLength":2904},{"buffer":0,"byteOffset":2904,"byteLength":2904},{"buffer":0,"byteOffset":5808,"byteLength":3872},{"buffer":0,"byteOffset":9680,"byteLength":1936},{"buffer":0,"byteOffset":11616,"byteLength":1936},{"buffer":0,"byteOffset":13552,"byteLength":3872},{"buffer":0,"byteOffset":17424,"byteLength":588}],"buffers":[{"byteLength":18012,"uri":"data:application/octet-stream;base64,"}]}
