{"asset":{"generator":"Khronos glTF Blender I/O v1.2.75","version":"2.0"},"scene":0,"scenes":[{"name":"Scene","nodes":[0]}],"nodes":[{"mesh":0,"name":"Mesh"}],"meshes":[{"name":"SM_PipeGroup24","primitives":[{"indices":5,"attributes":{"POSITION":0,"NORMAL":1,"TEXCOORD_0":2,"TEXCOORD_1":3,"TANGENT":4},"mode":4}]}],"accessors":[{"bufferView":0,"componentType":5126,"count":5317,"type":"VEC3","min":[-1.1755686950683595,-0.4746221160888672,-2.3345767211914064],"max":[0.16951339721679687,0.9786498260498047,10.408697509765625]},{"bufferView":1,"componentType":5126,"count":5317,"type":"VEC3"},{"bufferView":2,"componentType":5126,"count":5317,"type":"VEC2"},{"bufferView":3,"componentType":5126,"count":5317,"type":"VEC2"},{"bufferView":4,"componentType":5126,"count":5317,"type":"VEC4"},{"bufferView":5,"componentType":5123,"count":14664,"type":"SCALAR"}],"bufferViews":[{"buffer":0,"byteOffset":0,"byteLength":63804},{"buffer":0,"byteOffset":63804,"byteLength":63804},{"buffer":0,"byteOffset":127608,"byteLength":42536},{"buffer":0,"byteOffset":170144,"byteLength":42536},{"buffer":0,"byteOffset":212680,"byteLength":85072},{"buffer":0,"byteOffset":297752,"byteLength":29328}],"buffers":[{"byteLength":327080,"uri":"data:application/octet-stream;base64,"}]}
