{"asset":{"generator":"Khronos glTF Blender I/O v1.2.75","version":"2.0"},"scene":0,"scenes":[{"name":"Scene","nodes":[0]}],"nodes":[{"mesh":0,"name":"Mesh"}],"meshes":[{"name":"SM_PipeGroup24","primitives":[{"indices":5,"attributes":{"POSITION":0,"NORMAL":1,"TEXCOORD_0":2,"TEXCOORD_1":3,"TANGENT":4},"mode":4}]}],"accessors":[{"bufferView":0,"componentType":5126,"count":3076,"type":"VEC3","min":[-1.1755686950683595,-0.4746221160888672,-2.3345767211914064],"max":[0.16951339721679687,0.9786498260498047,10.408697509765625]},{"bufferView":1,"componentType":5126,"count":3076,"type":"VEC3"},{"bufferView":2,"componentType":5126,"count":3076,"type":"VEC2"},{"bufferView":3,"componentType":5126,"count":3076,"type":"VEC2"},{"bufferView":4,"componentType":5126,"count":3076,"type":"VEC4"},{"bufferView":5,"componentType":5123,"count":7329,"type":"SCALAR"}],"bufferViews":[{"buffer":0,"byteOffset":0,"byteLength":36912},{"buffer":0,"byteOffset":36912,"byteLength":36912},{"buffer":0,"byteOffset":73824,"byteLength":24608},{"buffer":0,"byteOffset":98432,"byteLength":24608},{"buffer":0,"byteOffset":123040,"byteLength":49216},{"buffer":0,"byteOffset":172256,"byteLength":14658}],"buffers":[{"byteLength":186914,"uri":"data:application/octet-stream;base64,"}]}
