{"asset":{"generator":"Khronos glTF Blender I/O v1.2.75","version":"2.0"},"scene":0,"scenes":[{"name":"Scene","nodes":[0]}],"nodes":[{"mesh":0,"name":"Mesh"}],"meshes":[{"name":"SM_Building02_06","primitives":[{"indices":5,"attributes":{"POSITION":0,"NORMAL":1,"TEXCOORD_0":2,"TEXCOORD_1":3,"TANGENT":4},"mode":4},{"indices":11,"attributes":{"POSITION":6,"NORMAL":7,"TEXCOORD_0":8,"TEXCOORD_1":9,"TANGENT":10},"mode":4},{"indices":17,"attributes":{"POSITION":12,"NORMAL":13,"TEXCOORD_0":14,"TEXCOORD_1":15,"TANGENT":16},"mode":4},{"indices":23,"attributes":{"POSITION":18,"NORMAL":19,"TEXCOORD_0":20,"TEXCOORD_1":21,"TANGENT":22},"mode":4}]}],"accessors":[{"bufferView":0,"componentType":5126,"count":9,"type":"VEC3","min":[-7.015144653320313,-0.002385966181755066,-0.1148779296875],"max":[0.0015500107407569886,4.000133056640625,0.3851141357421875]},{"bufferView":1,"componentType":5126,"count":9,"type":"VEC3"},{"bufferView":2,"componentType":5126,"count":9,"type":"VEC2"},{"bufferView":3,"componentType":5126,"count":9,"type":"VEC2"},{"bufferView":4,"componentType":5126,"count":9,"type":"VEC4"},{"bufferView":5,"componentType":5123,"count":21,"type":"SCALAR"},{"bufferView":6,"componentType":5126,"count":70,"type":"VEC3","min":[-7.015144653320313,-0.002385966181755066,-0.1148779296875],"max":[0.0015500107407569886,4.000133056640625,0.3851141357421875]},{"bufferView":7,"componentType":5126,"count":70,"type":"VEC3"},{"bufferView":8,"componentType":5126,"count":70,"type":"VEC2"},{"bufferView":9,"componentType":5126,"count":70,"type":"VEC2"},{"bufferView":10,"componentType":5126,"count":70,"type":"VEC4"},{"bufferView":11,"componentType":5123,"count":135,"type":"SCALAR"},{"bufferView":12,"componentType":5126,"count":302,"type":"VEC3","min":[-7.015144653320313,-0.002385966181755066,-0.1148779296875],"max":[0.0015500107407569886,4.000133056640625,0.3851141357421875]},{"bufferView":13,"componentType":5126,"count":302,"type":"VEC3"},{"bufferView":14,"componentType":5126,"count":302,"type":"VEC2"},{"bufferView":15,"componentType":5126,"count":302,"type":"VEC2"},{"bufferView":16,"componentType":5126,"count":302,"type":"VEC4"},{"bufferView":17,"componentType":5123,"count":567,"type":"SCALAR"},{"bufferView":18,"componentType":5126,"count":28,"type":"VEC3","min":[-7.015144653320313,-0.002385966181755066,-0.1148779296875],"max":[0.0015500107407569886,4.000133056640625,0.3851141357421875]},{"bufferView":19,"componentType":5126,"count":28,"type":"VEC3"},{"bufferView":20,"componentType":5126,"count":28,"type":"VEC2"},{"bufferView":21,"componentType":5126,"count":28,"type":"VEC2"},{"bufferView":22,"componentType":5126,"count":28,"type":"VEC4"},{"bufferView":23,"componentType":5123,"count":48,"type":"SCALAR"}],"bufferViews":[{"buffer":0,"byteOffset":0,"byteLength":108},{"buffer":0,"byteOffset":108,"byteLength":108},{"buffer":0,"byteOffset":216,"byteLength":72},{"buffer":0,"byteOffset":288,"byteLength":72},{"buffer":0,"byteOffset":360,"byteLength":144},{"buffer":0,"byteOffset":504,"byteLength":42},{"buffer":1,"byteOffset":0,"byteLength":840},{"buffer":1,"byteOffset":840,"byteLength":840},{"buffer":1,"byteOffset":1680,"byteLength":560},{"buffer":1,"byteOffset":2240,"byteLength":560},{"buffer":1,"byteOffset":2800,"byteLength":1120},{"buffer":1,"byteOffset":3920,"byteLength":270},{"buffer":2,"byteOffset":0,"byteLength":3624},{"buffer":2,"byteOffset":3624,"byteLength":3624},{"buffer":2,"byteOffset":7248,"byteLength":2416},{"buffer":2,"byteOffset":9664,"byteLength":2416},{"buffer":2,"byteOffset":12080,"byteLength":4832},{"buffer":2,"byteOffset":16912,"byteLength":1134},{"buffer":3,"byteOffset":0,"byteLength":336},{"buffer":3,"byteOffset":336,"byteLength":336},{"buffer":3,"byteOffset":672,"byteLength":224},{"buffer":3,"byteOffset":896,"byteLength":224},{"buffer":3,"byteOffset":1120,"byteLength":448},{"buffer":3,"byteOffset":1568,"byteLength":96}],"buffers":[{"byteLength":546,"uri":"data:application/octet-stream;base64,"},{"byteLength":4190,"uri":"data:application/octet-stream;base64,"},{"byteLength":18046,"uri":"data:application/octet-stream;base64,"},{"byteLength":1664,"uri":"data:application/octet-stream;base64,"}]}
