{"asset":{"generator":"Khronos glTF Blender I/O v1.2.75","version":"2.0"},"scene":0,"scenes":[{"name":"Scene","nodes":[0]}],"nodes":[{"mesh":0,"name":"Mesh"}],"meshes":[{"name":"SM_Building02_06","primitives":[{"indices":5,"attributes":{"POSITION":0,"NORMAL":1,"TEXCOORD_0":2,"TEXCOORD_1":3,"TANGENT":4},"mode":4},{"indices":11,"attributes":{"POSITION":6,"NORMAL":7,"TEXCOORD_0":8,"TEXCOORD_1":9,"TANGENT":10},"mode":4},{"indices":17,"attributes":{"POSITION":12,"NORMAL":13,"TEXCOORD_0":14,"TEXCOORD_1":15,"TANGENT":16},"mode":4},{"indices":23,"attributes":{"POSITION":18,"NORMAL":19,"TEXCOORD_0":20,"TEXCOORD_1":21,"TANGENT":22},"mode":4}]}],"accessors":[{"bufferView":0,"componentType":5126,"count":5,"type":"VEC3","min":[-7.015144653320313,-0.002385966181755066,-0.1148779296875],"max":[0.0015500107407569886,4.000133056640625,0.3851141357421875]},{"bufferView":1,"componentType":5126,"count":5,"type":"VEC3"},{"bufferView":2,"componentType":5126,"count":5,"type":"VEC2"},{"bufferView":3,"componentType":5126,"count":5,"type":"VEC2"},{"bufferView":4,"componentType":5126,"count":5,"type":"VEC4"},{"bufferView":5,"componentType":5123,"count":9,"type":"SCALAR"},{"bufferView":6,"componentType":5126,"count":61,"type":"VEC3","min":[-7.015144653320313,-0.002385966181755066,-0.1148779296875],"max":[0.0015500107407569886,4.000133056640625,0.3851141357421875]},{"bufferView":7,"componentType":5126,"count":61,"type":"VEC3"},{"bufferView":8,"componentType":5126,"count":61,"type":"VEC2"},{"bufferView":9,"componentType":5126,"count":61,"type":"VEC2"},{"bufferView":10,"componentType":5126,"count":61,"type":"VEC4"},{"bufferView":11,"componentType":5123,"count":117,"type":"SCALAR"},{"bufferView":12,"componentType":5126,"count":142,"type":"VEC3","min":[-7.015144653320313,-0.002385966181755066,-0.1148779296875],"max":[0.0015500107407569886,4.000133056640625,0.3851141357421875]},{"bufferView":13,"componentType":5126,"count":142,"type":"VEC3"},{"bufferView":14,"componentType":5126,"count":142,"type":"VEC2"},{"bufferView":15,"componentType":5126,"count":142,"type":"VEC2"},{"bufferView":16,"componentType":5126,"count":142,"type":"VEC4"},{"bufferView":17,"componentType":5123,"count":222,"type":"SCALAR"},{"bufferView":18,"componentType":5126,"count":24,"type":"VEC3","min":[-7.015144653320313,-0.002385966181755066,-0.1148779296875],"max":[0.0015500107407569886,4.000133056640625,0.3851141357421875]},{"bufferView":19,"componentType":5126,"count":24,"type":"VEC3"},{"bufferView":20,"componentType":5126,"count":24,"type":"VEC2"},{"bufferView":21,"componentType":5126,"count":24,"type":"VEC2"},{"bufferView":22,"componentType":5126,"count":24,"type":"VEC4"},{"bufferView":23,"componentType":5123,"count":36,"type":"SCALAR"}],"bufferViews":[{"buffer":0,"byteOffset":0,"byteLength":60},{"buffer":0,"byteOffset":60,"byteLength":60},{"buffer":0,"byteOffset":120,"byteLength":40},{"buffer":0,"byteOffset":160,"byteLength":40},{"buffer":0,"byteOffset":200,"byteLength":80},{"buffer":0,"byteOffset":280,"byteLength":18},{"buffer":1,"byteOffset":0,"byteLength":732},{"buffer":1,"byteOffset":732,"byteLength":732},{"buffer":1,"byteOffset":1464,"byteLength":488},{"buffer":1,"byteOffset":1952,"byteLength":488},{"buffer":1,"byteOffset":2440,"byteLength":976},{"buffer":1,"byteOffset":3416,"byteLength":234},{"buffer":2,"byteOffset":0,"byteLength":1704},{"buffer":2,"byteOffset":1704,"byteLength":1704},{"buffer":2,"byteOffset":3408,"byteLength":1136},{"buffer":2,"byteOffset":4544,"byteLength":1136},{"buffer":2,"byteOffset":5680,"byteLength":2272},{"buffer":2,"byteOffset":7952,"byteLength":444},{"buffer":3,"byteOffset":0,"byteLength":288},{"buffer":3,"byteOffset":288,"byteLength":288},{"buffer":3,"byteOffset":576,"byteLength":192},{"buffer":3,"byteOffset":768,"byteLength":192},{"buffer":3,"byteOffset":960,"byteLength":384},{"buffer":3,"byteOffset":1344,"byteLength":72}],"buffers":[{"byteLength":298,"uri":"data:application/octet-stream;base64,"},{"byteLength":3650,"uri":"data:application/octet-stream;base64,"},{"byteLength":8396,"uri":"data:application/octet-stream;base64,"},{"byteLength":1416,"uri":"data:application/octet-stream;base64,"}]}
