{"asset":{"generator":"Khronos glTF Blender I/O v1.2.75","version":"2.0"},"scene":0,"scenes":[{"name":"Scene","nodes":[0]}],"nodes":[{"mesh":0,"name":"Mesh"}],"meshes":[{"name":"SM_Pipe_T","primitives":[{"indices":5,"attributes":{"POSITION":0,"NORMAL":1,"TEXCOORD_0":2,"TEXCOORD_1":3,"TANGENT":4},"mode":4}]}],"accessors":[{"bufferView":0,"componentType":5126,"count":399,"type":"VEC3","min":[-0.6,-0.12742557525634765,-0.30000001907348633],"max":[0,0.12742561340332031,0.127425537109375]},{"bufferView":1,"componentType":5126,"count":399,"type":"VEC3"},{"bufferView":2,"componentType":5126,"count":399,"type":"VEC2"},{"bufferView":3,"componentType":5126,"count":399,"type":"VEC2"},{"bufferView":4,"componentType":5126,"count":399,"type":"VEC4"},{"bufferView":5,"componentType":5123,"count":1152,"type":"SCALAR"}],"bufferViews":[{"buffer":0,"byteOffset":0,"byteLength":4788},{"buffer":0,"byteOffset":4788,"byteLength":4788},{"buffer":0,"byteOffset":9576,"byteLength":3192},{"buffer":0,"byteOffset":12768,"byteLength":3192},{"buffer":0,"byteOffset":15960,"byteLength":6384},{"buffer":0,"byteOffset":22344,"byteLength":2304}],"buffers":[{"byteLength":24648,"uri":"data:application/octet-stream;base64,"}]}
