{"asset":{"generator":"Khronos glTF Blender I/O v1.2.75","version":"2.0"},"scene":0,"scenes":[{"name":"Scene","nodes":[0]}],"nodes":[{"mesh":0,"name":"Mesh"}],"meshes":[{"name":"SM_Pipe01","primitives":[{"indices":5,"attributes":{"POSITION":0,"NORMAL":1,"TEXCOORD_0":2,"TEXCOORD_1":3,"TANGENT":4},"mode":4}]}],"accessors":[{"bufferView":0,"componentType":5126,"count":404,"type":"VEC3","min":[-0.4157343673706055,-0.0011186622083187102,-0.41817245483398435],"max":[0.41046356201171874,7.023958740234375,0.4127411651611328]},{"bufferView":1,"componentType":5126,"count":404,"type":"VEC3"},{"bufferView":2,"componentType":5126,"count":404,"type":"VEC2"},{"bufferView":3,"componentType":5126,"count":404,"type":"VEC2"},{"bufferView":4,"componentType":5126,"count":404,"type":"VEC4"},{"bufferView":5,"componentType":5123,"count":1152,"type":"SCALAR"}],"bufferViews":[{"buffer":0,"byteOffset":0,"byteLength":4848},{"buffer":0,"byteOffset":4848,"byteLength":4848},{"buffer":0,"byteOffset":9696,"byteLength":3232},{"buffer":0,"byteOffset":12928,"byteLength":3232},{"buffer":0,"byteOffset":16160,"byteLength":6464},{"buffer":0,"byteOffset":22624,"byteLength":2304}],"buffers":[{"byteLength":24928,"uri":"data:application/octet-stream;base64,"}]}
