{"asset":{"generator":"Khronos glTF Blender I/O v1.2.75","version":"2.0"},"scene":0,"scenes":[{"name":"Scene","nodes":[0]}],"nodes":[{"mesh":0,"name":"Mesh"}],"meshes":[{"name":"SM_Pipe01","primitives":[{"indices":5,"attributes":{"POSITION":0,"NORMAL":1,"TEXCOORD_0":2,"TEXCOORD_1":3,"TANGENT":4},"mode":4}]}],"accessors":[{"bufferView":0,"componentType":5126,"count":212,"type":"VEC3","min":[-0.4157343673706055,-0.0011186622083187102,-0.41817245483398435],"max":[0.41046356201171874,7.023958740234375,0.4127411651611328]},{"bufferView":1,"componentType":5126,"count":212,"type":"VEC3"},{"bufferView":2,"componentType":5126,"count":212,"type":"VEC2"},{"bufferView":3,"componentType":5126,"count":212,"type":"VEC2"},{"bufferView":4,"componentType":5126,"count":212,"type":"VEC4"},{"bufferView":5,"componentType":5123,"count":576,"type":"SCALAR"}],"bufferViews":[{"buffer":0,"byteOffset":0,"byteLength":2544},{"buffer":0,"byteOffset":2544,"byteLength":2544},{"buffer":0,"byteOffset":5088,"byteLength":1696},{"buffer":0,"byteOffset":6784,"byteLength":1696},{"buffer":0,"byteOffset":8480,"byteLength":3392},{"buffer":0,"byteOffset":11872,"byteLength":1152}],"buffers":[{"byteLength":13024,"uri":"data:application/octet-stream;base64,"}]}
