{"asset":{"generator":"Khronos glTF Blender I/O v1.2.75","version":"2.0"},"scene":0,"scenes":[{"name":"Scene","nodes":[0]}],"nodes":[{"mesh":0,"name":"Mesh"}],"meshes":[{"name":"SM_Building08_02","primitives":[{"indices":5,"attributes":{"POSITION":0,"NORMAL":1,"TEXCOORD_0":2,"TEXCOORD_1":3,"TANGENT":4},"mode":4}]}],"accessors":[{"bufferView":0,"componentType":5126,"count":112,"type":"VEC3","min":[-20.239501953125,-0.0000030517578125,-1.3000048828125],"max":[-5.99041668465361e-7,8.58382568359375,0.000004343905311543495]},{"bufferView":1,"componentType":5126,"count":112,"type":"VEC3"},{"bufferView":2,"componentType":5126,"count":112,"type":"VEC2"},{"bufferView":3,"componentType":5126,"count":112,"type":"VEC2"},{"bufferView":4,"componentType":5126,"count":112,"type":"VEC4"},{"bufferView":5,"componentType":5123,"count":180,"type":"SCALAR"}],"bufferViews":[{"buffer":0,"byteOffset":0,"byteLength":1344},{"buffer":0,"byteOffset":1344,"byteLength":1344},{"buffer":0,"byteOffset":2688,"byteLength":896},{"buffer":0,"byteOffset":3584,"byteLength":896},{"buffer":0,"byteOffset":4480,"byteLength":1792},{"buffer":0,"byteOffset":6272,"byteLength":360}],"buffers":[{"byteLength":6632,"uri":"data:application/octet-stream;base64,"}]}
