{"asset":{"generator":"Khronos glTF Blender I/O v1.2.75","version":"2.0"},"scene":0,"scenes":[{"name":"Scene","nodes":[0]}],"nodes":[{"mesh":0,"name":"Mesh"}],"meshes":[{"name":"occ_merge_circle","primitives":[{"indices":5,"attributes":{"POSITION":0,"NORMAL":1,"TEXCOORD_0":2,"TEXCOORD_1":3,"TANGENT":4},"mode":4}]}],"accessors":[{"bufferView":0,"componentType":5126,"count":24412,"type":"VEC3","min":[-0.5771968460083008,0.022420880794525148,-0.028386695384979246],"max":[-0.42720081329345705,0.17278648376464845,0.019613330364227296]},{"bufferView":1,"componentType":5126,"count":24412,"type":"VEC3"},{"bufferView":2,"componentType":5126,"count":24412,"type":"VEC2"},{"bufferView":3,"componentType":5126,"count":24412,"type":"VEC2"},{"bufferView":4,"componentType":5126,"count":24412,"type":"VEC4"},{"bufferView":5,"componentType":5123,"count":139230,"type":"SCALAR"}],"bufferViews":[{"buffer":0,"byteOffset":0,"byteLength":292944},{"buffer":0,"byteOffset":292944,"byteLength":292944},{"buffer":0,"byteOffset":585888,"byteLength":195296},{"buffer":0,"byteOffset":781184,"byteLength":195296},{"buffer":0,"byteOffset":976480,"byteLength":390592},{"buffer":0,"byteOffset":1367072,"byteLength":278460}],"buffers":[{"byteLength":1645532,"uri":"data:application/octet-stream;base64,"}]}
