{"asset":{"generator":"Khronos glTF Blender I/O v1.2.75","version":"2.0"},"scene":0,"scenes":[{"name":"Scene","nodes":[0]}],"nodes":[{"mesh":0,"name":"Mesh"}],"meshes":[{"name":"SM_NeonSig04","primitives":[{"indices":5,"attributes":{"POSITION":0,"NORMAL":1,"TEXCOORD_0":2,"TEXCOORD_1":3,"TANGENT":4},"mode":4}]}],"accessors":[{"bufferView":0,"componentType":5126,"count":150,"type":"VEC3","min":[-0.000001220703125,-1.0231815394945442e-14,1.9073486328125e-8],"max":[4.999998779296875,0.545595703125,0.274789981842041]},{"bufferView":1,"componentType":5126,"count":150,"type":"VEC3"},{"bufferView":2,"componentType":5126,"count":150,"type":"VEC2"},{"bufferView":3,"componentType":5126,"count":150,"type":"VEC2"},{"bufferView":4,"componentType":5126,"count":150,"type":"VEC4"},{"bufferView":5,"componentType":5123,"count":408,"type":"SCALAR"}],"bufferViews":[{"buffer":0,"byteOffset":0,"byteLength":1800},{"buffer":0,"byteOffset":1800,"byteLength":1800},{"buffer":0,"byteOffset":3600,"byteLength":1200},{"buffer":0,"byteOffset":4800,"byteLength":1200},{"buffer":0,"byteOffset":6000,"byteLength":2400},{"buffer":0,"byteOffset":8400,"byteLength":816}],"buffers":[{"byteLength":9216,"uri":"data:application/octet-stream;base64,"}]}
