{"asset":{"generator":"Khronos glTF Blender I/O v1.2.75","version":"2.0"},"scene":0,"scenes":[{"name":"Scene","nodes":[0]}],"nodes":[{"mesh":0,"name":"Mesh"}],"meshes":[{"name":"SM_Pipe_round_vent","primitives":[{"indices":6,"attributes":{"POSITION":0,"NORMAL":1,"COLOR_0":2,"TEXCOORD_0":3,"TEXCOORD_1":4,"TANGENT":5},"mode":4}]}],"accessors":[{"bufferView":0,"componentType":5126,"count":273,"type":"VEC3","min":[-0.2,-0.043225855827331544,-0.1999998664855957],"max":[0.2,7.390975952148437e-8,0.1999998664855957]},{"bufferView":1,"componentType":5126,"count":273,"type":"VEC3"},{"bufferView":2,"componentType":5126,"count":273,"type":"VEC4"},{"bufferView":3,"componentType":5126,"count":273,"type":"VEC2"},{"bufferView":4,"componentType":5126,"count":273,"type":"VEC2"},{"bufferView":5,"componentType":5126,"count":273,"type":"VEC4"},{"bufferView":6,"componentType":5123,"count":792,"type":"SCALAR"}],"bufferViews":[{"buffer":0,"byteOffset":0,"byteLength":3276},{"buffer":0,"byteOffset":3276,"byteLength":3276},{"buffer":0,"byteOffset":6552,"byteLength":4368},{"buffer":0,"byteOffset":10920,"byteLength":2184},{"buffer":0,"byteOffset":13104,"byteLength":2184},{"buffer":0,"byteOffset":15288,"byteLength":4368},{"buffer":0,"byteOffset":19656,"byteLength":1584}],"buffers":[{"byteLength":21240,"uri":"data:application/octet-stream;base64,"}]}
