{"asset":{"generator":"Khronos glTF Blender I/O v1.2.75","version":"2.0"},"scene":0,"scenes":[{"name":"Scene","nodes":[0]}],"nodes":[{"mesh":0,"name":"Mesh"}],"meshes":[{"name":"SM_PlatformGrillMerged01","primitives":[{"indices":5,"attributes":{"POSITION":0,"NORMAL":1,"TEXCOORD_0":2,"TEXCOORD_1":3,"TANGENT":4},"mode":4}]}],"accessors":[{"bufferView":0,"componentType":5126,"count":6912,"type":"VEC3","min":[-7.4837109375,-0.060422544479370115,-6.288444213867187],"max":[7.9812451171875,0.6539039611816406,18.330032958984376]},{"bufferView":1,"componentType":5126,"count":6912,"type":"VEC3"},{"bufferView":2,"componentType":5126,"count":6912,"type":"VEC2"},{"bufferView":3,"componentType":5126,"count":6912,"type":"VEC2"},{"bufferView":4,"componentType":5126,"count":6912,"type":"VEC4"},{"bufferView":5,"componentType":5123,"count":10656,"type":"SCALAR"}],"bufferViews":[{"buffer":0,"byteOffset":0,"byteLength":82944},{"buffer":0,"byteOffset":82944,"byteLength":82944},{"buffer":0,"byteOffset":165888,"byteLength":55296},{"buffer":0,"byteOffset":221184,"byteLength":55296},{"buffer":0,"byteOffset":276480,"byteLength":110592},{"buffer":0,"byteOffset":387072,"byteLength":21312}],"buffers":[{"byteLength":408384,"uri":"data:application/octet-stream;base64,"}]}
