{"asset":{"generator":"Khronos glTF Blender I/O v1.2.75","version":"2.0"},"scene":0,"scenes":[{"name":"Scene","nodes":[0]}],"nodes":[{"mesh":0,"name":"Mesh"}],"meshes":[{"name":"SM_MetalBumper02","primitives":[{"indices":6,"attributes":{"POSITION":0,"NORMAL":1,"COLOR_0":2,"TEXCOORD_0":3,"TEXCOORD_1":4,"TANGENT":5},"mode":4}]}],"accessors":[{"bufferView":0,"componentType":5126,"count":741,"type":"VEC3","min":[-9.912703717418481e-8,2.0041970552000554e-24,-1.1000001525878906],"max":[1.1000003051757812,0.6587661743164063,-3.273102265666239e-8]},{"bufferView":1,"componentType":5126,"count":741,"type":"VEC3"},{"bufferView":2,"componentType":5126,"count":741,"type":"VEC4"},{"bufferView":3,"componentType":5126,"count":741,"type":"VEC2"},{"bufferView":4,"componentType":5126,"count":741,"type":"VEC2"},{"bufferView":5,"componentType":5126,"count":741,"type":"VEC4"},{"bufferView":6,"componentType":5123,"count":3006,"type":"SCALAR"}],"bufferViews":[{"buffer":0,"byteOffset":0,"byteLength":8892},{"buffer":0,"byteOffset":8892,"byteLength":8892},{"buffer":0,"byteOffset":17784,"byteLength":11856},{"buffer":0,"byteOffset":29640,"byteLength":5928},{"buffer":0,"byteOffset":35568,"byteLength":5928},{"buffer":0,"byteOffset":41496,"byteLength":11856},{"buffer":0,"byteOffset":53352,"byteLength":6012}],"buffers":[{"byteLength":59364,"uri":"data:application/octet-stream;base64,"}]}
