{"asset":{"generator":"Khronos glTF Blender I/O v1.2.75","version":"2.0"},"scene":0,"scenes":[{"name":"Scene","nodes":[0]}],"nodes":[{"mesh":0,"name":"Mesh"}],"meshes":[{"name":"SM_FloorMatsMerged03","primitives":[{"indices":5,"attributes":{"POSITION":0,"NORMAL":1,"TEXCOORD_0":2,"TEXCOORD_1":3,"TANGENT":4},"mode":4}]}],"accessors":[{"bufferView":0,"componentType":5126,"count":1139,"type":"VEC3","min":[-9.7112353515625,-0.06728741645812988,-7.822415771484375],"max":[1.5455172729492188,0.0493270492553711,3.0786541748046874]},{"bufferView":1,"componentType":5126,"count":1139,"type":"VEC3"},{"bufferView":2,"componentType":5126,"count":1139,"type":"VEC2"},{"bufferView":3,"componentType":5126,"count":1139,"type":"VEC2"},{"bufferView":4,"componentType":5126,"count":1139,"type":"VEC4"},{"bufferView":5,"componentType":5123,"count":5244,"type":"SCALAR"}],"bufferViews":[{"buffer":0,"byteOffset":0,"byteLength":13668},{"buffer":0,"byteOffset":13668,"byteLength":13668},{"buffer":0,"byteOffset":27336,"byteLength":9112},{"buffer":0,"byteOffset":36448,"byteLength":9112},{"buffer":0,"byteOffset":45560,"byteLength":18224},{"buffer":0,"byteOffset":63784,"byteLength":10488}],"buffers":[{"byteLength":74272,"uri":"data:application/octet-stream;base64,"}]}
