{"asset":{"generator":"Khronos glTF Blender I/O v1.2.75","version":"2.0"},"scene":0,"scenes":[{"name":"Scene","nodes":[0]}],"nodes":[{"mesh":0,"name":"Mesh"}],"meshes":[{"name":"SM_Pipe_square_grate2","primitives":[{"indices":6,"attributes":{"POSITION":0,"NORMAL":1,"COLOR_0":2,"TEXCOORD_0":3,"TEXCOORD_1":4,"TANGENT":5},"mode":4}]}],"accessors":[{"bufferView":0,"componentType":5126,"count":48,"type":"VEC3","min":[-0.18,-0.010000019073486329,-0.1800030517578125],"max":[0.17999998092651368,7.62939453125e-8,0.17999900817871095]},{"bufferView":1,"componentType":5126,"count":48,"type":"VEC3"},{"bufferView":2,"componentType":5126,"count":48,"type":"VEC4"},{"bufferView":3,"componentType":5126,"count":48,"type":"VEC2"},{"bufferView":4,"componentType":5126,"count":48,"type":"VEC2"},{"bufferView":5,"componentType":5126,"count":48,"type":"VEC4"},{"bufferView":6,"componentType":5123,"count":102,"type":"SCALAR"}],"bufferViews":[{"buffer":0,"byteOffset":0,"byteLength":576},{"buffer":0,"byteOffset":576,"byteLength":576},{"buffer":0,"byteOffset":1152,"byteLength":768},{"buffer":0,"byteOffset":1920,"byteLength":384},{"buffer":0,"byteOffset":2304,"byteLength":384},{"buffer":0,"byteOffset":2688,"byteLength":768},{"buffer":0,"byteOffset":3456,"byteLength":204}],"buffers":[{"byteLength":3660,"uri":"data:application/octet-stream;base64,"}]}
