{"asset":{"generator":"Khronos glTF Blender I/O v1.2.75","version":"2.0"},"scene":0,"scenes":[{"name":"Scene","nodes":[0]}],"nodes":[{"mesh":0,"name":"Mesh"}],"meshes":[{"name":"SM_handrail_03","primitives":[{"indices":5,"attributes":{"POSITION":0,"NORMAL":1,"TEXCOORD_0":2,"TEXCOORD_1":3,"TANGENT":4},"mode":4}]}],"accessors":[{"bufferView":0,"componentType":5126,"count":148,"type":"VEC3","min":[-0.5449999618530273,0,-0.545000228881836],"max":[0.07419231414794922,0.85,0.07596779823303222]},{"bufferView":1,"componentType":5126,"count":148,"type":"VEC3"},{"bufferView":2,"componentType":5126,"count":148,"type":"VEC2"},{"bufferView":3,"componentType":5126,"count":148,"type":"VEC2"},{"bufferView":4,"componentType":5126,"count":148,"type":"VEC4"},{"bufferView":5,"componentType":5123,"count":372,"type":"SCALAR"}],"bufferViews":[{"buffer":0,"byteOffset":0,"byteLength":1776},{"buffer":0,"byteOffset":1776,"byteLength":1776},{"buffer":0,"byteOffset":3552,"byteLength":1184},{"buffer":0,"byteOffset":4736,"byteLength":1184},{"buffer":0,"byteOffset":5920,"byteLength":2368},{"buffer":0,"byteOffset":8288,"byteLength":744}],"buffers":[{"byteLength":9032,"uri":"data:application/octet-stream;base64,"}]}
