{"asset":{"generator":"Khronos glTF Blender I/O v1.2.75","version":"2.0"},"scene":0,"scenes":[{"name":"Scene","nodes":[0]}],"nodes":[{"mesh":0,"name":"Mesh"}],"meshes":[{"name":"SM_pipe_conditioning01_02","primitives":[{"indices":5,"attributes":{"POSITION":0,"NORMAL":1,"TEXCOORD_0":2,"TEXCOORD_1":3,"TANGENT":4},"mode":4}]}],"accessors":[{"bufferView":0,"componentType":5126,"count":186,"type":"VEC3","min":[-0.4641028594970703,-0.46410282135009767,-0.12386137008666992],"max":[0.4641028594970703,0.46410282135009767,0.12383371353149414]},{"bufferView":1,"componentType":5126,"count":186,"type":"VEC3"},{"bufferView":2,"componentType":5126,"count":186,"type":"VEC2"},{"bufferView":3,"componentType":5126,"count":186,"type":"VEC2"},{"bufferView":4,"componentType":5126,"count":186,"type":"VEC4"},{"bufferView":5,"componentType":5123,"count":444,"type":"SCALAR"}],"bufferViews":[{"buffer":0,"byteOffset":0,"byteLength":2232},{"buffer":0,"byteOffset":2232,"byteLength":2232},{"buffer":0,"byteOffset":4464,"byteLength":1488},{"buffer":0,"byteOffset":5952,"byteLength":1488},{"buffer":0,"byteOffset":7440,"byteLength":2976},{"buffer":0,"byteOffset":10416,"byteLength":888}],"buffers":[{"byteLength":11304,"uri":"data:application/octet-stream;base64,"}]}
