{"asset":{"generator":"Khronos glTF Blender I/O v1.2.75","version":"2.0"},"scene":0,"scenes":[{"name":"Scene","nodes":[0]}],"nodes":[{"mesh":0,"name":"Mesh"}],"meshes":[{"name":"SM_pipe_conditioning01_02","primitives":[{"indices":5,"attributes":{"POSITION":0,"NORMAL":1,"TEXCOORD_0":2,"TEXCOORD_1":3,"TANGENT":4},"mode":4}]}],"accessors":[{"bufferView":0,"componentType":5126,"count":534,"type":"VEC3","min":[-0.4641028594970703,-0.46410282135009767,-0.12386137008666992],"max":[0.4641028594970703,0.46410282135009767,0.12383371353149414]},{"bufferView":1,"componentType":5126,"count":534,"type":"VEC3"},{"bufferView":2,"componentType":5126,"count":534,"type":"VEC2"},{"bufferView":3,"componentType":5126,"count":534,"type":"VEC2"},{"bufferView":4,"componentType":5126,"count":534,"type":"VEC4"},{"bufferView":5,"componentType":5123,"count":1488,"type":"SCALAR"}],"bufferViews":[{"buffer":0,"byteOffset":0,"byteLength":6408},{"buffer":0,"byteOffset":6408,"byteLength":6408},{"buffer":0,"byteOffset":12816,"byteLength":4272},{"buffer":0,"byteOffset":17088,"byteLength":4272},{"buffer":0,"byteOffset":21360,"byteLength":8544},{"buffer":0,"byteOffset":29904,"byteLength":2976}],"buffers":[{"byteLength":32880,"uri":"data:application/octet-stream;base64,"}]}
