{"asset":{"generator":"Khronos glTF Blender I/O v1.2.75","version":"2.0"},"scene":0,"scenes":[{"name":"Scene","nodes":[0]}],"nodes":[{"mesh":0,"name":"Mesh"}],"meshes":[{"name":"SM_Building11_02","primitives":[{"indices":5,"attributes":{"POSITION":0,"NORMAL":1,"TEXCOORD_0":2,"TEXCOORD_1":3,"TANGENT":4},"mode":4},{"indices":11,"attributes":{"POSITION":6,"NORMAL":7,"TEXCOORD_0":8,"TEXCOORD_1":9,"TANGENT":10},"mode":4}]}],"accessors":[{"bufferView":0,"componentType":5126,"count":349,"type":"VEC3","min":[-0.01724363327026367,0.000003662109375,-6.63658203125],"max":[4.417300720214843,76.63240234375,2.5527403259277346]},{"bufferView":1,"componentType":5126,"count":349,"type":"VEC3"},{"bufferView":2,"componentType":5126,"count":349,"type":"VEC2"},{"bufferView":3,"componentType":5126,"count":349,"type":"VEC2"},{"bufferView":4,"componentType":5126,"count":349,"type":"VEC4"},{"bufferView":5,"componentType":5123,"count":669,"type":"SCALAR"},{"bufferView":6,"componentType":5126,"count":20,"type":"VEC3","min":[-0.01724363327026367,0.000003662109375,-6.63658203125],"max":[4.417300720214843,76.63240234375,2.5527403259277346]},{"bufferView":7,"componentType":5126,"count":20,"type":"VEC3"},{"bufferView":8,"componentType":5126,"count":20,"type":"VEC2"},{"bufferView":9,"componentType":5126,"count":20,"type":"VEC2"},{"bufferView":10,"componentType":5126,"count":20,"type":"VEC4"},{"bufferView":11,"componentType":5123,"count":30,"type":"SCALAR"}],"bufferViews":[{"buffer":0,"byteOffset":0,"byteLength":4188},{"buffer":0,"byteOffset":4188,"byteLength":4188},{"buffer":0,"byteOffset":8376,"byteLength":2792},{"buffer":0,"byteOffset":11168,"byteLength":2792},{"buffer":0,"byteOffset":13960,"byteLength":5584},{"buffer":0,"byteOffset":19544,"byteLength":1338},{"buffer":1,"byteOffset":0,"byteLength":240},{"buffer":1,"byteOffset":240,"byteLength":240},{"buffer":1,"byteOffset":480,"byteLength":160},{"buffer":1,"byteOffset":640,"byteLength":160},{"buffer":1,"byteOffset":800,"byteLength":320},{"buffer":1,"byteOffset":1120,"byteLength":60}],"buffers":[{"byteLength":20882,"uri":"data:application/octet-stream;base64,"},{"byteLength":1180,"uri":"data:application/octet-stream;base64,"}]}
