{"asset":{"generator":"Khronos glTF Blender I/O v1.2.75","version":"2.0"},"scene":0,"scenes":[{"name":"Scene","nodes":[0]}],"nodes":[{"mesh":0,"name":"Mesh"}],"meshes":[{"name":"SM_Fence04","primitives":[{"indices":6,"attributes":{"POSITION":0,"NORMAL":1,"COLOR_0":2,"TEXCOORD_0":3,"TEXCOORD_1":4,"TANGENT":5},"mode":4},{"indices":13,"attributes":{"POSITION":7,"NORMAL":8,"COLOR_0":9,"TEXCOORD_0":10,"TEXCOORD_1":11,"TANGENT":12},"mode":4}]}],"accessors":[{"bufferView":0,"componentType":5126,"count":508,"type":"VEC3","min":[-0.04050145149230957,-0.02496971845626831,0.07156051635742187],"max":[1.4763973999023436,1.1307139587402344,1.5858744812011718]},{"bufferView":1,"componentType":5126,"count":508,"type":"VEC3"},{"bufferView":2,"componentType":5126,"count":532,"type":"VEC4"},{"bufferView":3,"componentType":5126,"count":508,"type":"VEC2"},{"bufferView":4,"componentType":5126,"count":508,"type":"VEC2"},{"bufferView":5,"componentType":5126,"count":508,"type":"VEC4"},{"bufferView":6,"componentType":5123,"count":696,"type":"SCALAR"},{"bufferView":7,"componentType":5126,"count":24,"type":"VEC3","min":[-0.04050145149230957,-0.02496971845626831,0.07156051635742187],"max":[1.4763973999023436,1.1307139587402344,1.5858744812011718]},{"bufferView":8,"componentType":5126,"count":24,"type":"VEC3"},{"bufferView":9,"componentType":5126,"count":532,"type":"VEC4"},{"bufferView":10,"componentType":5126,"count":24,"type":"VEC2"},{"bufferView":11,"componentType":5126,"count":24,"type":"VEC2"},{"bufferView":12,"componentType":5126,"count":24,"type":"VEC4"},{"bufferView":13,"componentType":5123,"count":36,"type":"SCALAR"}],"bufferViews":[{"buffer":0,"byteOffset":0,"byteLength":6096},{"buffer":0,"byteOffset":6096,"byteLength":6096},{"buffer":0,"byteOffset":12192,"byteLength":8512},{"buffer":0,"byteOffset":20704,"byteLength":4064},{"buffer":0,"byteOffset":24768,"byteLength":4064},{"buffer":0,"byteOffset":28832,"byteLength":8128},{"buffer":0,"byteOffset":36960,"byteLength":1392},{"buffer":1,"byteOffset":0,"byteLength":288},{"buffer":1,"byteOffset":288,"byteLength":288},{"buffer":1,"byteOffset":576,"byteLength":8512},{"buffer":1,"byteOffset":9088,"byteLength":192},{"buffer":1,"byteOffset":9280,"byteLength":192},{"buffer":1,"byteOffset":9472,"byteLength":384},{"buffer":1,"byteOffset":9856,"byteLength":72}],"buffers":[{"byteLength":38352,"uri":"data:application/octet-stream;base64,"},{"byteLength":9928,"uri":"data:application/octet-stream;base64,"}]}
