{"asset":{"generator":"Khronos glTF Blender I/O v1.2.75","version":"2.0"},"scene":0,"scenes":[{"name":"Scene","nodes":[0]}],"nodes":[{"mesh":0,"name":"Mesh"}],"meshes":[{"name":"SM_Fence04","primitives":[{"indices":6,"attributes":{"POSITION":0,"NORMAL":1,"COLOR_0":2,"TEXCOORD_0":3,"TEXCOORD_1":4,"TANGENT":5},"mode":4},{"indices":13,"attributes":{"POSITION":7,"NORMAL":8,"COLOR_0":9,"TEXCOORD_0":10,"TEXCOORD_1":11,"TANGENT":12},"mode":4}]}],"accessors":[{"bufferView":0,"componentType":5126,"count":1236,"type":"VEC3","min":[-0.04050145149230957,-0.02496971845626831,0.07156051635742187],"max":[1.4763973999023436,1.1307139587402344,1.5858744812011718]},{"bufferView":1,"componentType":5126,"count":1236,"type":"VEC3"},{"bufferView":2,"componentType":5126,"count":1260,"type":"VEC4"},{"bufferView":3,"componentType":5126,"count":1236,"type":"VEC2"},{"bufferView":4,"componentType":5126,"count":1236,"type":"VEC2"},{"bufferView":5,"componentType":5126,"count":1236,"type":"VEC4"},{"bufferView":6,"componentType":5123,"count":2400,"type":"SCALAR"},{"bufferView":7,"componentType":5126,"count":24,"type":"VEC3","min":[-0.04050145149230957,-0.02496971845626831,0.07156051635742187],"max":[1.4763973999023436,1.1307139587402344,1.5858744812011718]},{"bufferView":8,"componentType":5126,"count":24,"type":"VEC3"},{"bufferView":9,"componentType":5126,"count":1260,"type":"VEC4"},{"bufferView":10,"componentType":5126,"count":24,"type":"VEC2"},{"bufferView":11,"componentType":5126,"count":24,"type":"VEC2"},{"bufferView":12,"componentType":5126,"count":24,"type":"VEC4"},{"bufferView":13,"componentType":5123,"count":36,"type":"SCALAR"}],"bufferViews":[{"buffer":0,"byteOffset":0,"byteLength":14832},{"buffer":0,"byteOffset":14832,"byteLength":14832},{"buffer":0,"byteOffset":29664,"byteLength":20160},{"buffer":0,"byteOffset":49824,"byteLength":9888},{"buffer":0,"byteOffset":59712,"byteLength":9888},{"buffer":0,"byteOffset":69600,"byteLength":19776},{"buffer":0,"byteOffset":89376,"byteLength":4800},{"buffer":1,"byteOffset":0,"byteLength":288},{"buffer":1,"byteOffset":288,"byteLength":288},{"buffer":1,"byteOffset":576,"byteLength":20160},{"buffer":1,"byteOffset":20736,"byteLength":192},{"buffer":1,"byteOffset":20928,"byteLength":192},{"buffer":1,"byteOffset":21120,"byteLength":384},{"buffer":1,"byteOffset":21504,"byteLength":72}],"buffers":[{"byteLength":94176,"uri":"data:application/octet-stream;base64,"},{"byteLength":21576,"uri":"data:application/octet-stream;base64,"}]}
