{"asset":{"generator":"Khronos glTF Blender I/O v1.2.75","version":"2.0"},"scene":0,"scenes":[{"name":"Scene","nodes":[0]}],"nodes":[{"mesh":0,"name":"Mesh"}],"meshes":[{"name":"SM_Fence04","primitives":[{"indices":6,"attributes":{"POSITION":0,"NORMAL":1,"COLOR_0":2,"TEXCOORD_0":3,"TEXCOORD_1":4,"TANGENT":5},"mode":4},{"indices":13,"attributes":{"POSITION":7,"NORMAL":8,"COLOR_0":9,"TEXCOORD_0":10,"TEXCOORD_1":11,"TANGENT":12},"mode":4}]}],"accessors":[{"bufferView":0,"componentType":5126,"count":408,"type":"VEC3","min":[-0.04050145149230957,-0.02496971845626831,0.07156051635742187],"max":[1.4763973999023436,1.1307139587402344,1.5858744812011718]},{"bufferView":1,"componentType":5126,"count":408,"type":"VEC3"},{"bufferView":2,"componentType":5126,"count":432,"type":"VEC4"},{"bufferView":3,"componentType":5126,"count":408,"type":"VEC2"},{"bufferView":4,"componentType":5126,"count":408,"type":"VEC2"},{"bufferView":5,"componentType":5126,"count":408,"type":"VEC4"},{"bufferView":6,"componentType":5123,"count":570,"type":"SCALAR"},{"bufferView":7,"componentType":5126,"count":24,"type":"VEC3","min":[-0.04050145149230957,-0.02496971845626831,0.07156051635742187],"max":[1.4763973999023436,1.1307139587402344,1.5858744812011718]},{"bufferView":8,"componentType":5126,"count":24,"type":"VEC3"},{"bufferView":9,"componentType":5126,"count":432,"type":"VEC4"},{"bufferView":10,"componentType":5126,"count":24,"type":"VEC2"},{"bufferView":11,"componentType":5126,"count":24,"type":"VEC2"},{"bufferView":12,"componentType":5126,"count":24,"type":"VEC4"},{"bufferView":13,"componentType":5123,"count":36,"type":"SCALAR"}],"bufferViews":[{"buffer":0,"byteOffset":0,"byteLength":4896},{"buffer":0,"byteOffset":4896,"byteLength":4896},{"buffer":0,"byteOffset":9792,"byteLength":6912},{"buffer":0,"byteOffset":16704,"byteLength":3264},{"buffer":0,"byteOffset":19968,"byteLength":3264},{"buffer":0,"byteOffset":23232,"byteLength":6528},{"buffer":0,"byteOffset":29760,"byteLength":1140},{"buffer":1,"byteOffset":0,"byteLength":288},{"buffer":1,"byteOffset":288,"byteLength":288},{"buffer":1,"byteOffset":576,"byteLength":6912},{"buffer":1,"byteOffset":7488,"byteLength":192},{"buffer":1,"byteOffset":7680,"byteLength":192},{"buffer":1,"byteOffset":7872,"byteLength":384},{"buffer":1,"byteOffset":8256,"byteLength":72}],"buffers":[{"byteLength":30900,"uri":"data:application/octet-stream;base64,"},{"byteLength":8328,"uri":"data:application/octet-stream;base64,"}]}
