{"asset":{"generator":"Khronos glTF Blender I/O v1.2.75","version":"2.0"},"scene":0,"scenes":[{"name":"Scene","nodes":[0]}],"nodes":[{"mesh":0,"name":"Mesh"}],"meshes":[{"name":"SM_NeonSigAnim02","primitives":[{"indices":5,"attributes":{"POSITION":0,"NORMAL":1,"TEXCOORD_0":2,"TEXCOORD_1":3,"TANGENT":4},"mode":4},{"indices":11,"attributes":{"POSITION":6,"NORMAL":7,"TEXCOORD_0":8,"TEXCOORD_1":9,"TANGENT":10},"mode":4}]}],"accessors":[{"bufferView":0,"componentType":5126,"count":34,"type":"VEC3","min":[-6.103515625e-7,-0.00000213623046875,-0.0000016293380758725106],"max":[9.999999389648437,1.4642440795898437,0.7321216583251953]},{"bufferView":1,"componentType":5126,"count":34,"type":"VEC3"},{"bufferView":2,"componentType":5126,"count":34,"type":"VEC2"},{"bufferView":3,"componentType":5126,"count":34,"type":"VEC2"},{"bufferView":4,"componentType":5126,"count":34,"type":"VEC4"},{"bufferView":5,"componentType":5123,"count":96,"type":"SCALAR"},{"bufferView":6,"componentType":5126,"count":210,"type":"VEC3","min":[-6.103515625e-7,-0.00000213623046875,-0.0000016293380758725106],"max":[9.999999389648437,1.4642440795898437,0.7321216583251953]},{"bufferView":7,"componentType":5126,"count":210,"type":"VEC3"},{"bufferView":8,"componentType":5126,"count":210,"type":"VEC2"},{"bufferView":9,"componentType":5126,"count":210,"type":"VEC2"},{"bufferView":10,"componentType":5126,"count":210,"type":"VEC4"},{"bufferView":11,"componentType":5123,"count":564,"type":"SCALAR"}],"bufferViews":[{"buffer":0,"byteOffset":0,"byteLength":408},{"buffer":0,"byteOffset":408,"byteLength":408},{"buffer":0,"byteOffset":816,"byteLength":272},{"buffer":0,"byteOffset":1088,"byteLength":272},{"buffer":0,"byteOffset":1360,"byteLength":544},{"buffer":0,"byteOffset":1904,"byteLength":192},{"buffer":1,"byteOffset":0,"byteLength":2520},{"buffer":1,"byteOffset":2520,"byteLength":2520},{"buffer":1,"byteOffset":5040,"byteLength":1680},{"buffer":1,"byteOffset":6720,"byteLength":1680},{"buffer":1,"byteOffset":8400,"byteLength":3360},{"buffer":1,"byteOffset":11760,"byteLength":1128}],"buffers":[{"byteLength":2096,"uri":"data:application/octet-stream;base64,"},{"byteLength":12888,"uri":"data:application/octet-stream;base64,"}]}
