{"asset":{"generator":"Khronos glTF Blender I/O v1.2.75","version":"2.0"},"scene":0,"scenes":[{"name":"Scene","nodes":[0]}],"nodes":[{"mesh":0,"name":"Mesh"}],"meshes":[{"name":"SM_MetalWin01","primitives":[{"indices":5,"attributes":{"POSITION":0,"NORMAL":1,"TEXCOORD_0":2,"TEXCOORD_1":3,"TANGENT":4},"mode":4}]}],"accessors":[{"bufferView":0,"componentType":5126,"count":200,"type":"VEC3","min":[-2.2981573486328126,0,-0.0618048095703125],"max":[-5.340576171875e-7,1.6911676025390625,0.045811767578125]},{"bufferView":1,"componentType":5126,"count":200,"type":"VEC3"},{"bufferView":2,"componentType":5126,"count":200,"type":"VEC2"},{"bufferView":3,"componentType":5126,"count":200,"type":"VEC2"},{"bufferView":4,"componentType":5126,"count":200,"type":"VEC4"},{"bufferView":5,"componentType":5123,"count":372,"type":"SCALAR"}],"bufferViews":[{"buffer":0,"byteOffset":0,"byteLength":2400},{"buffer":0,"byteOffset":2400,"byteLength":2400},{"buffer":0,"byteOffset":4800,"byteLength":1600},{"buffer":0,"byteOffset":6400,"byteLength":1600},{"buffer":0,"byteOffset":8000,"byteLength":3200},{"buffer":0,"byteOffset":11200,"byteLength":744}],"buffers":[{"byteLength":11944,"uri":"data:application/octet-stream;base64,"}]}
