{"asset":{"generator":"Khronos glTF Blender I/O v1.2.75","version":"2.0"},"scene":0,"scenes":[{"name":"Scene","nodes":[0]}],"nodes":[{"mesh":0,"name":"Mesh"}],"meshes":[{"name":"SM_Building12_03","primitives":[{"indices":5,"attributes":{"POSITION":0,"NORMAL":1,"TEXCOORD_0":2,"TEXCOORD_1":3,"TANGENT":4},"mode":4}]}],"accessors":[{"bufferView":0,"componentType":5126,"count":406,"type":"VEC3","min":[-0.9871098327636719,-0.020657930374145508,-6.60000244140625],"max":[1.1444091796875e-7,12.061488037109376,-0.0000010541300434852019]},{"bufferView":1,"componentType":5126,"count":406,"type":"VEC3"},{"bufferView":2,"componentType":5126,"count":406,"type":"VEC2"},{"bufferView":3,"componentType":5126,"count":406,"type":"VEC2"},{"bufferView":4,"componentType":5126,"count":406,"type":"VEC4"},{"bufferView":5,"componentType":5123,"count":660,"type":"SCALAR"}],"bufferViews":[{"buffer":0,"byteOffset":0,"byteLength":4872},{"buffer":0,"byteOffset":4872,"byteLength":4872},{"buffer":0,"byteOffset":9744,"byteLength":3248},{"buffer":0,"byteOffset":12992,"byteLength":3248},{"buffer":0,"byteOffset":16240,"byteLength":6496},{"buffer":0,"byteOffset":22736,"byteLength":1320}],"buffers":[{"byteLength":24056,"uri":"data:application/octet-stream;base64,"}]}
