{"asset":{"generator":"Khronos glTF Blender I/O v1.2.75","version":"2.0"},"scene":0,"scenes":[{"name":"Scene","nodes":[0]}],"nodes":[{"mesh":0,"name":"Mesh"}],"meshes":[{"name":"SM_Building12_03","primitives":[{"indices":5,"attributes":{"POSITION":0,"NORMAL":1,"TEXCOORD_0":2,"TEXCOORD_1":3,"TANGENT":4},"mode":4}]}],"accessors":[{"bufferView":0,"componentType":5126,"count":284,"type":"VEC3","min":[-0.9871098327636719,-0.020657930374145508,-6.60000244140625],"max":[1.1444091796875e-7,12.061488037109376,-0.0000010541300434852019]},{"bufferView":1,"componentType":5126,"count":284,"type":"VEC3"},{"bufferView":2,"componentType":5126,"count":284,"type":"VEC2"},{"bufferView":3,"componentType":5126,"count":284,"type":"VEC2"},{"bufferView":4,"componentType":5126,"count":284,"type":"VEC4"},{"bufferView":5,"componentType":5123,"count":330,"type":"SCALAR"}],"bufferViews":[{"buffer":0,"byteOffset":0,"byteLength":3408},{"buffer":0,"byteOffset":3408,"byteLength":3408},{"buffer":0,"byteOffset":6816,"byteLength":2272},{"buffer":0,"byteOffset":9088,"byteLength":2272},{"buffer":0,"byteOffset":11360,"byteLength":4544},{"buffer":0,"byteOffset":15904,"byteLength":660}],"buffers":[{"byteLength":16564,"uri":"data:application/octet-stream;base64,"}]}
