{"asset":{"generator":"Khronos glTF Blender I/O v1.2.75","version":"2.0"},"scene":0,"scenes":[{"name":"Scene","nodes":[0]}],"nodes":[{"mesh":0,"name":"Mesh"}],"meshes":[{"name":"SM_PipeMerged03","primitives":[{"indices":5,"attributes":{"POSITION":0,"NORMAL":1,"TEXCOORD_0":2,"TEXCOORD_1":3,"TANGENT":4},"mode":4}]}],"accessors":[{"bufferView":0,"componentType":5126,"count":4190,"type":"VEC3","min":[-0.17002304077148436,-1.0188037872314453,-0.16576381683349609],"max":[4.777395324707031,3.672374572753906,0.17285751342773437]},{"bufferView":1,"componentType":5126,"count":4190,"type":"VEC3"},{"bufferView":2,"componentType":5126,"count":4190,"type":"VEC2"},{"bufferView":3,"componentType":5126,"count":4190,"type":"VEC2"},{"bufferView":4,"componentType":5126,"count":4190,"type":"VEC4"},{"bufferView":5,"componentType":5123,"count":12156,"type":"SCALAR"}],"bufferViews":[{"buffer":0,"byteOffset":0,"byteLength":50280},{"buffer":0,"byteOffset":50280,"byteLength":50280},{"buffer":0,"byteOffset":100560,"byteLength":33520},{"buffer":0,"byteOffset":134080,"byteLength":33520},{"buffer":0,"byteOffset":167600,"byteLength":67040},{"buffer":0,"byteOffset":234640,"byteLength":24312}],"buffers":[{"byteLength":258952,"uri":"data:application/octet-stream;base64,"}]}
