{
	"asset":{
		"generator":"Khronos glTF Blender I/O v3.6.0",
		"version":"2.0"
	},
	"scene":0,
	"scenes":[
		{
			"name":"Scene",
			"nodes":[
				0
			]
		}
	],
	"nodes":[
		{
			"mesh":0,
			"name":"sci_fi_medkit"
		}
	],
	"materials":[
		{
			"doubleSided":true,
			"name":"mat_sci_fi_medkit",
			"pbrMetallicRoughness":{}
		}
	],
	"meshes":[
		{
			"name":"mesh_sci_fi_medkit",
			"primitives":[
				{
					"attributes":{
						"POSITION":0,
						"TEXCOORD_0":1,
						"TEXCOORD_1":2,
						"NORMAL":3
					},
					"indices":4,
					"material":0
				}
			]
		}
	],
	"accessors":[
		{
			"bufferView":0,
			"componentType":5126,
			"count":24422,
			"max":[
				0.25,
				0.5001174211502075,
				0.25057321786880493
			],
			"min":[
				-0.25,
				-0.02249409444630146,
				-0.25057321786880493
			],
			"type":"VEC3"
		},
		{
			"bufferView":1,
			"componentType":5126,
			"count":24422,
			"type":"VEC2"
		},
		{
			"bufferView":2,
			"componentType":5126,
			"count":24422,
			"type":"VEC2"
		},
		{
			"bufferView":3,
			"componentType":5126,
			"count":24422,
			"type":"VEC3"
		},
		{
			"bufferView":4,
			"componentType":5123,
			"count":79644,
			"type":"SCALAR"
		}
	],
	"bufferViews":[
		{
			"buffer":0,
			"byteLength":293064,
			"byteOffset":0,
			"target":34962
		},
		{
			"buffer":0,
			"byteLength":195376,
			"byteOffset":293064,
			"target":34962
		},
		{
			"buffer":0,
			"byteLength":195376,
			"byteOffset":488440,
			"target":34962
		},
		{
			"buffer":0,
			"byteLength":293064,
			"byteOffset":683816,
			"target":34962
		},
		{
			"buffer":0,
			"byteLength":159288,
			"byteOffset":976880,
			"target":34963
		}
	],
	"buffers":[
		{
			"byteLength":1136168,
			"uri":"sci_fi_medkit.bin"
		}
	]
}
