{"asset":{"generator":"Khronos glTF Blender I/O v1.2.75","version":"2.0"},"scene":0,"scenes":[{"name":"Scene","nodes":[0]}],"nodes":[{"mesh":0,"name":"Mesh"}],"meshes":[{"name":"SM_Vent01","primitives":[{"indices":6,"attributes":{"POSITION":0,"NORMAL":1,"COLOR_0":2,"TEXCOORD_0":3,"TEXCOORD_1":4,"TANGENT":5},"mode":4}]}],"accessors":[{"bufferView":0,"componentType":5126,"count":426,"type":"VEC3","min":[-2.412720031738281,-0.006626136302947998,-2.412720031738281],"max":[2.4084649658203126,1.053408660888672,2.412720031738281]},{"bufferView":1,"componentType":5126,"count":426,"type":"VEC3"},{"bufferView":2,"componentType":5126,"count":426,"type":"VEC4"},{"bufferView":3,"componentType":5126,"count":426,"type":"VEC2"},{"bufferView":4,"componentType":5126,"count":426,"type":"VEC2"},{"bufferView":5,"componentType":5126,"count":426,"type":"VEC4"},{"bufferView":6,"componentType":5123,"count":1086,"type":"SCALAR"}],"bufferViews":[{"buffer":0,"byteOffset":0,"byteLength":5112},{"buffer":0,"byteOffset":5112,"byteLength":5112},{"buffer":0,"byteOffset":10224,"byteLength":6816},{"buffer":0,"byteOffset":17040,"byteLength":3408},{"buffer":0,"byteOffset":20448,"byteLength":3408},{"buffer":0,"byteOffset":23856,"byteLength":6816},{"buffer":0,"byteOffset":30672,"byteLength":2172}],"buffers":[{"byteLength":32844,"uri":"data:application/octet-stream;base64,"}]}
