{"asset":{"generator":"Khronos glTF Blender I/O v1.2.75","version":"2.0"},"scene":0,"scenes":[{"name":"Scene","nodes":[0]}],"nodes":[{"mesh":0,"name":"Mesh"}],"meshes":[{"name":"SM_Vent01","primitives":[{"indices":6,"attributes":{"POSITION":0,"NORMAL":1,"COLOR_0":2,"TEXCOORD_0":3,"TEXCOORD_1":4,"TANGENT":5},"mode":4}]}],"accessors":[{"bufferView":0,"componentType":5126,"count":970,"type":"VEC3","min":[-2.412720031738281,-0.006626136302947998,-2.412720031738281],"max":[2.4084649658203126,1.053408660888672,2.412720031738281]},{"bufferView":1,"componentType":5126,"count":970,"type":"VEC3"},{"bufferView":2,"componentType":5126,"count":970,"type":"VEC4"},{"bufferView":3,"componentType":5126,"count":970,"type":"VEC2"},{"bufferView":4,"componentType":5126,"count":970,"type":"VEC2"},{"bufferView":5,"componentType":5126,"count":970,"type":"VEC4"},{"bufferView":6,"componentType":5123,"count":2712,"type":"SCALAR"}],"bufferViews":[{"buffer":0,"byteOffset":0,"byteLength":11640},{"buffer":0,"byteOffset":11640,"byteLength":11640},{"buffer":0,"byteOffset":23280,"byteLength":15520},{"buffer":0,"byteOffset":38800,"byteLength":7760},{"buffer":0,"byteOffset":46560,"byteLength":7760},{"buffer":0,"byteOffset":54320,"byteLength":15520},{"buffer":0,"byteOffset":69840,"byteLength":5424}],"buffers":[{"byteLength":75264,"uri":"data:application/octet-stream;base64,"}]}
