{"asset":{"generator":"Khronos glTF Blender I/O v1.2.75","version":"2.0"},"scene":0,"scenes":[{"name":"Scene","nodes":[0]}],"nodes":[{"mesh":0,"name":"Mesh"}],"meshes":[{"name":"Play_Signboard_01","primitives":[{"indices":4,"attributes":{"POSITION":0,"NORMAL":1,"TEXCOORD_0":2,"TEXCOORD_1":3},"mode":4}]}],"accessors":[{"bufferView":0,"componentType":5126,"count":1555,"type":"VEC3","min":[-0.8347013092041016,-0.48800559997558596,-1.3625308383780066e-7],"max":[0.8475886535644531,0.5599010467529297,0.10156792640686035]},{"bufferView":1,"componentType":5126,"count":1555,"type":"VEC3"},{"bufferView":2,"componentType":5126,"count":1555,"type":"VEC2"},{"bufferView":3,"componentType":5126,"count":1555,"type":"VEC2"},{"bufferView":4,"componentType":5123,"count":4983,"type":"SCALAR"}],"bufferViews":[{"buffer":0,"byteOffset":0,"byteLength":18660},{"buffer":0,"byteOffset":18660,"byteLength":18660},{"buffer":0,"byteOffset":37320,"byteLength":12440},{"buffer":0,"byteOffset":49760,"byteLength":12440},{"buffer":0,"byteOffset":62200,"byteLength":9966}],"buffers":[{"byteLength":72166,"uri":"data:application/octet-stream;base64,"}]}
