{"asset":{"generator":"Khronos glTF Blender I/O v1.2.75","version":"2.0"},"scene":0,"scenes":[{"name":"Scene","nodes":[0]}],"nodes":[{"mesh":0,"name":"Mesh"}],"meshes":[{"name":"SM_PipeMerged07","primitives":[{"indices":5,"attributes":{"POSITION":0,"NORMAL":1,"TEXCOORD_0":2,"TEXCOORD_1":3,"TANGENT":4},"mode":4}]}],"accessors":[{"bufferView":0,"componentType":5126,"count":1413,"type":"VEC3","min":[-5.2301513671875,-1.0035464477539062,-0.5023871612548828],"max":[4.247540588378906,4.619362182617188,0.42380294799804685]},{"bufferView":1,"componentType":5126,"count":1413,"type":"VEC3"},{"bufferView":2,"componentType":5126,"count":1413,"type":"VEC2"},{"bufferView":3,"componentType":5126,"count":1413,"type":"VEC2"},{"bufferView":4,"componentType":5126,"count":1413,"type":"VEC4"},{"bufferView":5,"componentType":5123,"count":2718,"type":"SCALAR"}],"bufferViews":[{"buffer":0,"byteOffset":0,"byteLength":16956},{"buffer":0,"byteOffset":16956,"byteLength":16956},{"buffer":0,"byteOffset":33912,"byteLength":11304},{"buffer":0,"byteOffset":45216,"byteLength":11304},{"buffer":0,"byteOffset":56520,"byteLength":22608},{"buffer":0,"byteOffset":79128,"byteLength":5436}],"buffers":[{"byteLength":84564,"uri":"data:application/octet-stream;base64,"}]}
