{"asset":{"generator":"Khronos glTF Blender I/O v1.2.75","version":"2.0"},"scene":0,"scenes":[{"name":"Scene","nodes":[0]}],"nodes":[{"mesh":0,"name":"Mesh"}],"meshes":[{"name":"SM_MetalWallPart_05","primitives":[{"indices":6,"attributes":{"POSITION":0,"NORMAL":1,"COLOR_0":2,"TEXCOORD_0":3,"TEXCOORD_1":4,"TANGENT":5},"mode":4}]}],"accessors":[{"bufferView":0,"componentType":5126,"count":306,"type":"VEC3","min":[-0.027187414169311523,-0.003093676269054413,-4.0000003051757815],"max":[0.18397796630859375,4.000018920898437,9.5367431640625e-9]},{"bufferView":1,"componentType":5126,"count":306,"type":"VEC3"},{"bufferView":2,"componentType":5126,"count":306,"type":"VEC4"},{"bufferView":3,"componentType":5126,"count":306,"type":"VEC2"},{"bufferView":4,"componentType":5126,"count":306,"type":"VEC2"},{"bufferView":5,"componentType":5126,"count":306,"type":"VEC4"},{"bufferView":6,"componentType":5123,"count":762,"type":"SCALAR"}],"bufferViews":[{"buffer":0,"byteOffset":0,"byteLength":3672},{"buffer":0,"byteOffset":3672,"byteLength":3672},{"buffer":0,"byteOffset":7344,"byteLength":4896},{"buffer":0,"byteOffset":12240,"byteLength":2448},{"buffer":0,"byteOffset":14688,"byteLength":2448},{"buffer":0,"byteOffset":17136,"byteLength":4896},{"buffer":0,"byteOffset":22032,"byteLength":1524}],"buffers":[{"byteLength":23556,"uri":"data:application/octet-stream;base64,"}]}
