{"asset":{"generator":"Khronos glTF Blender I/O v1.2.75","version":"2.0"},"scene":0,"scenes":[{"name":"Scene","nodes":[0]}],"nodes":[{"mesh":0,"name":"Mesh"}],"meshes":[{"name":"SM_Pipe_square_radius_transition","primitives":[{"indices":6,"attributes":{"POSITION":0,"NORMAL":1,"COLOR_0":2,"TEXCOORD_0":3,"TEXCOORD_1":4,"TANGENT":5},"mode":4}]}],"accessors":[{"bufferView":0,"componentType":5126,"count":368,"type":"VEC3","min":[-0.3299998092651367,-0.18000011444091796,-7.62939453125e-8],"max":[0.3300001907348633,0.17999990463256835,0.5000006484985352]},{"bufferView":1,"componentType":5126,"count":368,"type":"VEC3"},{"bufferView":2,"componentType":5126,"count":368,"type":"VEC4"},{"bufferView":3,"componentType":5126,"count":368,"type":"VEC2"},{"bufferView":4,"componentType":5126,"count":368,"type":"VEC2"},{"bufferView":5,"componentType":5126,"count":368,"type":"VEC4"},{"bufferView":6,"componentType":5123,"count":732,"type":"SCALAR"}],"bufferViews":[{"buffer":0,"byteOffset":0,"byteLength":4416},{"buffer":0,"byteOffset":4416,"byteLength":4416},{"buffer":0,"byteOffset":8832,"byteLength":5888},{"buffer":0,"byteOffset":14720,"byteLength":2944},{"buffer":0,"byteOffset":17664,"byteLength":2944},{"buffer":0,"byteOffset":20608,"byteLength":5888},{"buffer":0,"byteOffset":26496,"byteLength":1464}],"buffers":[{"byteLength":27960,"uri":"data:application/octet-stream;base64,"}]}
