{"asset":{"generator":"Khronos glTF Blender I/O v1.2.75","version":"2.0"},"scene":0,"scenes":[{"name":"Scene","nodes":[0]}],"nodes":[{"mesh":0,"name":"Mesh"}],"meshes":[{"name":"SM_Pipe_round_cross_transition2","primitives":[{"indices":6,"attributes":{"POSITION":0,"NORMAL":1,"COLOR_0":2,"TEXCOORD_0":3,"TEXCOORD_1":4,"TANGENT":5},"mode":4}]}],"accessors":[{"bufferView":0,"componentType":5126,"count":600,"type":"VEC3","min":[-0.34174381256103514,-0.4041510009765625,-0.4057329559326172],"max":[0.3256022262573242,0.4041510772705078,0.40895584106445315]},{"bufferView":1,"componentType":5126,"count":600,"type":"VEC3"},{"bufferView":2,"componentType":5126,"count":600,"type":"VEC4"},{"bufferView":3,"componentType":5126,"count":600,"type":"VEC2"},{"bufferView":4,"componentType":5126,"count":600,"type":"VEC2"},{"bufferView":5,"componentType":5126,"count":600,"type":"VEC4"},{"bufferView":6,"componentType":5123,"count":2160,"type":"SCALAR"}],"bufferViews":[{"buffer":0,"byteOffset":0,"byteLength":7200},{"buffer":0,"byteOffset":7200,"byteLength":7200},{"buffer":0,"byteOffset":14400,"byteLength":9600},{"buffer":0,"byteOffset":24000,"byteLength":4800},{"buffer":0,"byteOffset":28800,"byteLength":4800},{"buffer":0,"byteOffset":33600,"byteLength":9600},{"buffer":0,"byteOffset":43200,"byteLength":4320}],"buffers":[{"byteLength":47520,"uri":"data:application/octet-stream;base64,"}]}
