{"asset":{"generator":"Khronos glTF Blender I/O v1.2.75","version":"2.0"},"scene":0,"scenes":[{"name":"Scene","nodes":[0]}],"nodes":[{"mesh":0,"name":"Mesh"}],"meshes":[{"name":"SM_PipeGroup07","primitives":[{"indices":5,"attributes":{"POSITION":0,"NORMAL":1,"TEXCOORD_0":2,"TEXCOORD_1":3,"TANGENT":4},"mode":4}]}],"accessors":[{"bufferView":0,"componentType":5126,"count":5076,"type":"VEC3","min":[-1.7005078125,-15.605924072265625,-0.560366325378418],"max":[11.897186279296875,10.54,8.851484985351563]},{"bufferView":1,"componentType":5126,"count":5076,"type":"VEC3"},{"bufferView":2,"componentType":5126,"count":5076,"type":"VEC2"},{"bufferView":3,"componentType":5126,"count":5076,"type":"VEC2"},{"bufferView":4,"componentType":5126,"count":5076,"type":"VEC4"},{"bufferView":5,"componentType":5123,"count":8454,"type":"SCALAR"}],"bufferViews":[{"buffer":0,"byteOffset":0,"byteLength":60912},{"buffer":0,"byteOffset":60912,"byteLength":60912},{"buffer":0,"byteOffset":121824,"byteLength":40608},{"buffer":0,"byteOffset":162432,"byteLength":40608},{"buffer":0,"byteOffset":203040,"byteLength":81216},{"buffer":0,"byteOffset":284256,"byteLength":16908}],"buffers":[{"byteLength":301164,"uri":"data:application/octet-stream;base64,"}]}
