{"asset":{"generator":"Khronos glTF Blender I/O v1.2.75","version":"2.0"},"scene":0,"scenes":[{"name":"Scene","nodes":[0]}],"nodes":[{"mesh":0,"name":"Mesh"}],"meshes":[{"name":"SM_PipeGroup18","primitives":[{"indices":5,"attributes":{"POSITION":0,"NORMAL":1,"TEXCOORD_0":2,"TEXCOORD_1":3,"TANGENT":4},"mode":4}]}],"accessors":[{"bufferView":0,"componentType":5126,"count":612,"type":"VEC3","min":[-1.739654541015625,-0.4635482406616211,-1.2754608917236328],"max":[11.824794921875,0.4469519805908203,17.9265673828125]},{"bufferView":1,"componentType":5126,"count":612,"type":"VEC3"},{"bufferView":2,"componentType":5126,"count":612,"type":"VEC2"},{"bufferView":3,"componentType":5126,"count":612,"type":"VEC2"},{"bufferView":4,"componentType":5126,"count":612,"type":"VEC4"},{"bufferView":5,"componentType":5123,"count":1050,"type":"SCALAR"}],"bufferViews":[{"buffer":0,"byteOffset":0,"byteLength":7344},{"buffer":0,"byteOffset":7344,"byteLength":7344},{"buffer":0,"byteOffset":14688,"byteLength":4896},{"buffer":0,"byteOffset":19584,"byteLength":4896},{"buffer":0,"byteOffset":24480,"byteLength":9792},{"buffer":0,"byteOffset":34272,"byteLength":2100}],"buffers":[{"byteLength":36372,"uri":"data:application/octet-stream;base64,"}]}
