{"asset":{"generator":"Khronos glTF Blender I/O v1.2.75","version":"2.0"},"scene":0,"scenes":[{"name":"Scene","nodes":[0]}],"nodes":[{"mesh":0,"name":"Mesh"}],"meshes":[{"name":"SM_FloorMatsMerged02","primitives":[{"indices":5,"attributes":{"POSITION":0,"NORMAL":1,"TEXCOORD_0":2,"TEXCOORD_1":3,"TANGENT":4},"mode":4}]}],"accessors":[{"bufferView":0,"componentType":5126,"count":256,"type":"VEC3","min":[-0.4903324890136719,-7.62939453125e-8,-1.506361083984375],"max":[1.5163613891601562,0.020715172290802,0.5073027420043945]},{"bufferView":1,"componentType":5126,"count":256,"type":"VEC3"},{"bufferView":2,"componentType":5126,"count":256,"type":"VEC2"},{"bufferView":3,"componentType":5126,"count":256,"type":"VEC2"},{"bufferView":4,"componentType":5126,"count":256,"type":"VEC4"},{"bufferView":5,"componentType":5123,"count":1320,"type":"SCALAR"}],"bufferViews":[{"buffer":0,"byteOffset":0,"byteLength":3072},{"buffer":0,"byteOffset":3072,"byteLength":3072},{"buffer":0,"byteOffset":6144,"byteLength":2048},{"buffer":0,"byteOffset":8192,"byteLength":2048},{"buffer":0,"byteOffset":10240,"byteLength":4096},{"buffer":0,"byteOffset":14336,"byteLength":2640}],"buffers":[{"byteLength":16976,"uri":"data:application/octet-stream;base64,"}]}
