{"asset":{"generator":"Khronos glTF Blender I/O v1.2.75","version":"2.0"},"scene":0,"scenes":[{"name":"Scene","nodes":[0]}],"nodes":[{"mesh":0,"name":"Mesh"}],"meshes":[{"name":"SM_FloorMatsMerged02","primitives":[{"indices":5,"attributes":{"POSITION":0,"NORMAL":1,"TEXCOORD_0":2,"TEXCOORD_1":3,"TANGENT":4},"mode":4}]}],"accessors":[{"bufferView":0,"componentType":5126,"count":36,"type":"VEC3","min":[-0.4903324890136719,-7.62939453125e-8,-1.506361083984375],"max":[1.5163613891601562,0.020715172290802,0.5073027420043945]},{"bufferView":1,"componentType":5126,"count":36,"type":"VEC3"},{"bufferView":2,"componentType":5126,"count":36,"type":"VEC2"},{"bufferView":3,"componentType":5126,"count":36,"type":"VEC2"},{"bufferView":4,"componentType":5126,"count":36,"type":"VEC4"},{"bufferView":5,"componentType":5123,"count":132,"type":"SCALAR"}],"bufferViews":[{"buffer":0,"byteOffset":0,"byteLength":432},{"buffer":0,"byteOffset":432,"byteLength":432},{"buffer":0,"byteOffset":864,"byteLength":288},{"buffer":0,"byteOffset":1152,"byteLength":288},{"buffer":0,"byteOffset":1440,"byteLength":576},{"buffer":0,"byteOffset":2016,"byteLength":264}],"buffers":[{"byteLength":2280,"uri":"data:application/octet-stream;base64,"}]}
