{"asset":{"generator":"Khronos glTF Blender I/O v1.2.75","version":"2.0"},"scene":0,"scenes":[{"name":"Scene","nodes":[0]}],"nodes":[{"mesh":0,"name":"Mesh"}],"meshes":[{"name":"SM_Pipe_2m","primitives":[{"indices":5,"attributes":{"POSITION":0,"NORMAL":1,"TEXCOORD_0":2,"TEXCOORD_1":3,"TANGENT":4},"mode":4}]}],"accessors":[{"bufferView":0,"componentType":5126,"count":238,"type":"VEC3","min":[-2,-0.12742560386657714,-0.12742568969726562],"max":[0,0.127425594329834,0.127425537109375]},{"bufferView":1,"componentType":5126,"count":238,"type":"VEC3"},{"bufferView":2,"componentType":5126,"count":238,"type":"VEC2"},{"bufferView":3,"componentType":5126,"count":238,"type":"VEC2"},{"bufferView":4,"componentType":5126,"count":238,"type":"VEC4"},{"bufferView":5,"componentType":5123,"count":672,"type":"SCALAR"}],"bufferViews":[{"buffer":0,"byteOffset":0,"byteLength":2856},{"buffer":0,"byteOffset":2856,"byteLength":2856},{"buffer":0,"byteOffset":5712,"byteLength":1904},{"buffer":0,"byteOffset":7616,"byteLength":1904},{"buffer":0,"byteOffset":9520,"byteLength":3808},{"buffer":0,"byteOffset":13328,"byteLength":1344}],"buffers":[{"byteLength":14672,"uri":"data:application/octet-stream;base64,"}]}
