{"asset":{"generator":"Khronos glTF Blender I/O v1.2.75","version":"2.0"},"scene":0,"scenes":[{"name":"Scene","nodes":[0]}],"nodes":[{"mesh":0,"name":"Mesh"}],"meshes":[{"name":"SM_LampPost","primitives":[{"indices":5,"attributes":{"POSITION":0,"NORMAL":1,"TEXCOORD_0":2,"TEXCOORD_1":3,"TANGENT":4},"mode":4}]}],"accessors":[{"bufferView":0,"componentType":5126,"count":267,"type":"VEC3","min":[-0.4000005340576172,3.0517578125e-7,-0.39610843658447265],"max":[0.39999984741210937,8.45378662109375,3.6597164916992186]},{"bufferView":1,"componentType":5126,"count":267,"type":"VEC3"},{"bufferView":2,"componentType":5126,"count":267,"type":"VEC2"},{"bufferView":3,"componentType":5126,"count":267,"type":"VEC2"},{"bufferView":4,"componentType":5126,"count":267,"type":"VEC4"},{"bufferView":5,"componentType":5123,"count":441,"type":"SCALAR"}],"bufferViews":[{"buffer":0,"byteOffset":0,"byteLength":3204},{"buffer":0,"byteOffset":3204,"byteLength":3204},{"buffer":0,"byteOffset":6408,"byteLength":2136},{"buffer":0,"byteOffset":8544,"byteLength":2136},{"buffer":0,"byteOffset":10680,"byteLength":4272},{"buffer":0,"byteOffset":14952,"byteLength":882}],"buffers":[{"byteLength":15834,"uri":"data:application/octet-stream;base64,"}]}
