{"asset":{"generator":"Khronos glTF Blender I/O v1.2.75","version":"2.0"},"scene":0,"scenes":[{"name":"Scene","nodes":[0]}],"nodes":[{"mesh":0,"name":"Mesh"}],"meshes":[{"name":"SM_LampPost","primitives":[{"indices":5,"attributes":{"POSITION":0,"NORMAL":1,"TEXCOORD_0":2,"TEXCOORD_1":3,"TANGENT":4},"mode":4}]}],"accessors":[{"bufferView":0,"componentType":5126,"count":598,"type":"VEC3","min":[-0.4000005340576172,3.0517578125e-7,-0.39610843658447265],"max":[0.39999984741210937,8.45378662109375,3.6597164916992186]},{"bufferView":1,"componentType":5126,"count":598,"type":"VEC3"},{"bufferView":2,"componentType":5126,"count":598,"type":"VEC2"},{"bufferView":3,"componentType":5126,"count":598,"type":"VEC2"},{"bufferView":4,"componentType":5126,"count":598,"type":"VEC4"},{"bufferView":5,"componentType":5123,"count":1758,"type":"SCALAR"}],"bufferViews":[{"buffer":0,"byteOffset":0,"byteLength":7176},{"buffer":0,"byteOffset":7176,"byteLength":7176},{"buffer":0,"byteOffset":14352,"byteLength":4784},{"buffer":0,"byteOffset":19136,"byteLength":4784},{"buffer":0,"byteOffset":23920,"byteLength":9568},{"buffer":0,"byteOffset":33488,"byteLength":3516}],"buffers":[{"byteLength":37004,"uri":"data:application/octet-stream;base64,"}]}
