{"asset":{"generator":"Khronos glTF Blender I/O v1.2.75","version":"2.0"},"scene":0,"scenes":[{"name":"Scene","nodes":[0]}],"nodes":[{"mesh":0,"name":"Mesh"}],"meshes":[{"name":"SM_MetalBeam10","primitives":[{"indices":6,"attributes":{"POSITION":0,"NORMAL":1,"COLOR_0":2,"TEXCOORD_0":3,"TEXCOORD_1":4,"TANGENT":5},"mode":4}]}],"accessors":[{"bufferView":0,"componentType":5126,"count":138,"type":"VEC3","min":[-0.550478515625,2.86102294921875e-8,-0.5567489624023437],"max":[0.56302001953125,8,0.556749382019043]},{"bufferView":1,"componentType":5126,"count":138,"type":"VEC3"},{"bufferView":2,"componentType":5126,"count":138,"type":"VEC4"},{"bufferView":3,"componentType":5126,"count":138,"type":"VEC2"},{"bufferView":4,"componentType":5126,"count":138,"type":"VEC2"},{"bufferView":5,"componentType":5126,"count":138,"type":"VEC4"},{"bufferView":6,"componentType":5123,"count":480,"type":"SCALAR"}],"bufferViews":[{"buffer":0,"byteOffset":0,"byteLength":1656},{"buffer":0,"byteOffset":1656,"byteLength":1656},{"buffer":0,"byteOffset":3312,"byteLength":2208},{"buffer":0,"byteOffset":5520,"byteLength":1104},{"buffer":0,"byteOffset":6624,"byteLength":1104},{"buffer":0,"byteOffset":7728,"byteLength":2208},{"buffer":0,"byteOffset":9936,"byteLength":960}],"buffers":[{"byteLength":10896,"uri":"data:application/octet-stream;base64,"}]}
