{"asset":{"generator":"Khronos glTF Blender I/O v1.2.75","version":"2.0"},"scene":0,"scenes":[{"name":"Scene","nodes":[0]}],"nodes":[{"mesh":0,"name":"Mesh"}],"meshes":[{"name":"SM_Building02_14","primitives":[{"indices":5,"attributes":{"POSITION":0,"NORMAL":1,"TEXCOORD_0":2,"TEXCOORD_1":3,"TANGENT":4},"mode":4}]}],"accessors":[{"bufferView":0,"componentType":5126,"count":49,"type":"VEC3","min":[-4,-3.0517578125e-7,0],"max":[0.000001220703125,0.8709974670410157,0.242152099609375]},{"bufferView":1,"componentType":5126,"count":49,"type":"VEC3"},{"bufferView":2,"componentType":5126,"count":49,"type":"VEC2"},{"bufferView":3,"componentType":5126,"count":49,"type":"VEC2"},{"bufferView":4,"componentType":5126,"count":49,"type":"VEC4"},{"bufferView":5,"componentType":5123,"count":84,"type":"SCALAR"}],"bufferViews":[{"buffer":0,"byteOffset":0,"byteLength":588},{"buffer":0,"byteOffset":588,"byteLength":588},{"buffer":0,"byteOffset":1176,"byteLength":392},{"buffer":0,"byteOffset":1568,"byteLength":392},{"buffer":0,"byteOffset":1960,"byteLength":784},{"buffer":0,"byteOffset":2744,"byteLength":168}],"buffers":[{"byteLength":2912,"uri":"data:application/octet-stream;base64,"}]}
