{"asset":{"generator":"Khronos glTF Blender I/O v1.2.75","version":"2.0"},"scene":0,"scenes":[{"name":"Scene","nodes":[0]}],"nodes":[{"mesh":0,"name":"Mesh"}],"meshes":[{"name":"SM_Building06_03","primitives":[{"indices":5,"attributes":{"POSITION":0,"NORMAL":1,"TEXCOORD_0":2,"TEXCOORD_1":3,"TANGENT":4},"mode":4}]}],"accessors":[{"bufferView":0,"componentType":5126,"count":182,"type":"VEC3","min":[-0.00000244140625,-0.0000024064129684120417,-0.3174981689453125],"max":[3.999998779296875,12,0.22975889205932618]},{"bufferView":1,"componentType":5126,"count":182,"type":"VEC3"},{"bufferView":2,"componentType":5126,"count":182,"type":"VEC2"},{"bufferView":3,"componentType":5126,"count":182,"type":"VEC2"},{"bufferView":4,"componentType":5126,"count":182,"type":"VEC4"},{"bufferView":5,"componentType":5123,"count":294,"type":"SCALAR"}],"bufferViews":[{"buffer":0,"byteOffset":0,"byteLength":2184},{"buffer":0,"byteOffset":2184,"byteLength":2184},{"buffer":0,"byteOffset":4368,"byteLength":1456},{"buffer":0,"byteOffset":5824,"byteLength":1456},{"buffer":0,"byteOffset":7280,"byteLength":2912},{"buffer":0,"byteOffset":10192,"byteLength":588}],"buffers":[{"byteLength":10780,"uri":"data:application/octet-stream;base64,"}]}
