{"asset":{"generator":"Khronos glTF Blender I/O v1.2.75","version":"2.0"},"scene":0,"scenes":[{"name":"Scene","nodes":[0]}],"nodes":[{"mesh":0,"name":"Mesh"}],"meshes":[{"name":"SM_Building06_03","primitives":[{"indices":5,"attributes":{"POSITION":0,"NORMAL":1,"TEXCOORD_0":2,"TEXCOORD_1":3,"TANGENT":4},"mode":4}]}],"accessors":[{"bufferView":0,"componentType":5126,"count":316,"type":"VEC3","min":[-0.00000244140625,-0.0000024064129684120417,-0.3174981689453125],"max":[3.999998779296875,12,0.22975889205932618]},{"bufferView":1,"componentType":5126,"count":316,"type":"VEC3"},{"bufferView":2,"componentType":5126,"count":316,"type":"VEC2"},{"bufferView":3,"componentType":5126,"count":316,"type":"VEC2"},{"bufferView":4,"componentType":5126,"count":316,"type":"VEC4"},{"bufferView":5,"componentType":5123,"count":594,"type":"SCALAR"}],"bufferViews":[{"buffer":0,"byteOffset":0,"byteLength":3792},{"buffer":0,"byteOffset":3792,"byteLength":3792},{"buffer":0,"byteOffset":7584,"byteLength":2528},{"buffer":0,"byteOffset":10112,"byteLength":2528},{"buffer":0,"byteOffset":12640,"byteLength":5056},{"buffer":0,"byteOffset":17696,"byteLength":1188}],"buffers":[{"byteLength":18884,"uri":"data:application/octet-stream;base64,"}]}
