{"asset":{"generator":"Khronos glTF Blender I/O v1.2.75","version":"2.0"},"scene":0,"scenes":[{"name":"Scene","nodes":[0]}],"nodes":[{"mesh":0,"name":"Mesh"}],"meshes":[{"name":"SM_CornerBuildingMerged04","primitives":[{"indices":5,"attributes":{"POSITION":0,"NORMAL":1,"TEXCOORD_0":2,"TEXCOORD_1":3,"TANGENT":4},"mode":4},{"indices":11,"attributes":{"POSITION":6,"NORMAL":7,"TEXCOORD_0":8,"TEXCOORD_1":9,"TANGENT":10},"mode":4},{"indices":17,"attributes":{"POSITION":12,"NORMAL":13,"TEXCOORD_0":14,"TEXCOORD_1":15,"TANGENT":16},"mode":4},{"indices":23,"attributes":{"POSITION":18,"NORMAL":19,"TEXCOORD_0":20,"TEXCOORD_1":21,"TANGENT":22},"mode":4}]}],"accessors":[{"bufferView":0,"componentType":5126,"count":168,"type":"VEC3","min":[-18.167088623046876,-0.44261199951171876,-0.0517724609375],"max":[1.3069171142578124,6.946046752929687,9.73838623046875]},{"bufferView":1,"componentType":5126,"count":168,"type":"VEC3"},{"bufferView":2,"componentType":5126,"count":168,"type":"VEC2"},{"bufferView":3,"componentType":5126,"count":168,"type":"VEC2"},{"bufferView":4,"componentType":5126,"count":168,"type":"VEC4"},{"bufferView":5,"componentType":5123,"count":288,"type":"SCALAR"},{"bufferView":6,"componentType":5126,"count":48,"type":"VEC3","min":[-18.167088623046876,-0.44261199951171876,-0.0517724609375],"max":[1.3069171142578124,6.946046752929687,9.73838623046875]},{"bufferView":7,"componentType":5126,"count":48,"type":"VEC3"},{"bufferView":8,"componentType":5126,"count":48,"type":"VEC2"},{"bufferView":9,"componentType":5126,"count":48,"type":"VEC2"},{"bufferView":10,"componentType":5126,"count":48,"type":"VEC4"},{"bufferView":11,"componentType":5123,"count":72,"type":"SCALAR"},{"bufferView":12,"componentType":5126,"count":380,"type":"VEC3","min":[-18.167088623046876,-0.44261199951171876,-0.0517724609375],"max":[1.3069171142578124,6.946046752929687,9.73838623046875]},{"bufferView":13,"componentType":5126,"count":380,"type":"VEC3"},{"bufferView":14,"componentType":5126,"count":380,"type":"VEC2"},{"bufferView":15,"componentType":5126,"count":380,"type":"VEC2"},{"bufferView":16,"componentType":5126,"count":380,"type":"VEC4"},{"bufferView":17,"componentType":5123,"count":564,"type":"SCALAR"},{"bufferView":18,"componentType":5126,"count":96,"type":"VEC3","min":[-18.167088623046876,-0.44261199951171876,-0.0517724609375],"max":[1.3069171142578124,6.946046752929687,9.73838623046875]},{"bufferView":19,"componentType":5126,"count":96,"type":"VEC3"},{"bufferView":20,"componentType":5126,"count":96,"type":"VEC2"},{"bufferView":21,"componentType":5126,"count":96,"type":"VEC2"},{"bufferView":22,"componentType":5126,"count":96,"type":"VEC4"},{"bufferView":23,"componentType":5123,"count":144,"type":"SCALAR"}],"bufferViews":[{"buffer":0,"byteOffset":0,"byteLength":2016},{"buffer":0,"byteOffset":2016,"byteLength":2016},{"buffer":0,"byteOffset":4032,"byteLength":1344},{"buffer":0,"byteOffset":5376,"byteLength":1344},{"buffer":0,"byteOffset":6720,"byteLength":2688},{"buffer":0,"byteOffset":9408,"byteLength":576},{"buffer":1,"byteOffset":0,"byteLength":576},{"buffer":1,"byteOffset":576,"byteLength":576},{"buffer":1,"byteOffset":1152,"byteLength":384},{"buffer":1,"byteOffset":1536,"byteLength":384},{"buffer":1,"byteOffset":1920,"byteLength":768},{"buffer":1,"byteOffset":2688,"byteLength":144},{"buffer":2,"byteOffset":0,"byteLength":4560},{"buffer":2,"byteOffset":4560,"byteLength":4560},{"buffer":2,"byteOffset":9120,"byteLength":3040},{"buffer":2,"byteOffset":12160,"byteLength":3040},{"buffer":2,"byteOffset":15200,"byteLength":6080},{"buffer":2,"byteOffset":21280,"byteLength":1128},{"buffer":3,"byteOffset":0,"byteLength":1152},{"buffer":3,"byteOffset":1152,"byteLength":1152},{"buffer":3,"byteOffset":2304,"byteLength":768},{"buffer":3,"byteOffset":3072,"byteLength":768},{"buffer":3,"byteOffset":3840,"byteLength":1536},{"buffer":3,"byteOffset":5376,"byteLength":288}],"buffers":[{"byteLength":9984,"uri":"data:application/octet-stream;base64,"},{"byteLength":2832,"uri":"data:application/octet-stream;base64,"},{"byteLength":22408,"uri":"data:application/octet-stream;base64,"},{"byteLength":5664,"uri":"data:application/octet-stream;base64,"}]}
