{"asset":{"generator":"Khronos glTF Blender I/O v1.2.75","version":"2.0"},"scene":0,"scenes":[{"name":"Scene","nodes":[0]}],"nodes":[{"mesh":0,"name":"Mesh"}],"meshes":[{"name":"SM_PipeGroup20","primitives":[{"indices":5,"attributes":{"POSITION":0,"NORMAL":1,"TEXCOORD_0":2,"TEXCOORD_1":3,"TANGENT":4},"mode":4}]}],"accessors":[{"bufferView":0,"componentType":5126,"count":2202,"type":"VEC3","min":[-19.612613525390625,-1.48655029296875,-10.612943115234375],"max":[0.23440479278564452,0.2157050895690918,0.8684925079345703]},{"bufferView":1,"componentType":5126,"count":2202,"type":"VEC3"},{"bufferView":2,"componentType":5126,"count":2202,"type":"VEC2"},{"bufferView":3,"componentType":5126,"count":2202,"type":"VEC2"},{"bufferView":4,"componentType":5126,"count":2202,"type":"VEC4"},{"bufferView":5,"componentType":5123,"count":6045,"type":"SCALAR"}],"bufferViews":[{"buffer":0,"byteOffset":0,"byteLength":26424},{"buffer":0,"byteOffset":26424,"byteLength":26424},{"buffer":0,"byteOffset":52848,"byteLength":17616},{"buffer":0,"byteOffset":70464,"byteLength":17616},{"buffer":0,"byteOffset":88080,"byteLength":35232},{"buffer":0,"byteOffset":123312,"byteLength":12090}],"buffers":[{"byteLength":135402,"uri":"data:application/octet-stream;base64,"}]}
