{"asset":{"generator":"Khronos glTF Blender I/O v1.2.75","version":"2.0"},"scene":0,"scenes":[{"name":"Scene","nodes":[0]}],"nodes":[{"mesh":0,"name":"Mesh"}],"meshes":[{"name":"SM_PipeGroup20","primitives":[{"indices":5,"attributes":{"POSITION":0,"NORMAL":1,"TEXCOORD_0":2,"TEXCOORD_1":3,"TANGENT":4},"mode":4}]}],"accessors":[{"bufferView":0,"componentType":5126,"count":4899,"type":"VEC3","min":[-19.612613525390625,-1.48655029296875,-10.612943115234375],"max":[0.23440479278564452,0.2157050895690918,0.8684925079345703]},{"bufferView":1,"componentType":5126,"count":4899,"type":"VEC3"},{"bufferView":2,"componentType":5126,"count":4899,"type":"VEC2"},{"bufferView":3,"componentType":5126,"count":4899,"type":"VEC2"},{"bufferView":4,"componentType":5126,"count":4899,"type":"VEC4"},{"bufferView":5,"componentType":5123,"count":15120,"type":"SCALAR"}],"bufferViews":[{"buffer":0,"byteOffset":0,"byteLength":58788},{"buffer":0,"byteOffset":58788,"byteLength":58788},{"buffer":0,"byteOffset":117576,"byteLength":39192},{"buffer":0,"byteOffset":156768,"byteLength":39192},{"buffer":0,"byteOffset":195960,"byteLength":78384},{"buffer":0,"byteOffset":274344,"byteLength":30240}],"buffers":[{"byteLength":304584,"uri":"data:application/octet-stream;base64,"}]}
