{"asset":{"generator":"Khronos glTF Blender I/O v1.2.75","version":"2.0"},"scene":0,"scenes":[{"name":"Scene","nodes":[0]}],"nodes":[{"mesh":0,"name":"Mesh"}],"meshes":[{"name":"SM_Lamp03","primitives":[{"indices":5,"attributes":{"POSITION":0,"NORMAL":1,"TEXCOORD_0":2,"TEXCOORD_1":3,"TANGENT":4},"mode":4}]}],"accessors":[{"bufferView":0,"componentType":5126,"count":155,"type":"VEC3","min":[-0.022304537296295165,-0.0009218233078718185,-2.370450286865234],"max":[0.10961777687072755,1.43793212890625,0.0233721923828125]},{"bufferView":1,"componentType":5126,"count":155,"type":"VEC3"},{"bufferView":2,"componentType":5126,"count":155,"type":"VEC2"},{"bufferView":3,"componentType":5126,"count":155,"type":"VEC2"},{"bufferView":4,"componentType":5126,"count":155,"type":"VEC4"},{"bufferView":5,"componentType":5123,"count":336,"type":"SCALAR"}],"bufferViews":[{"buffer":0,"byteOffset":0,"byteLength":1860},{"buffer":0,"byteOffset":1860,"byteLength":1860},{"buffer":0,"byteOffset":3720,"byteLength":1240},{"buffer":0,"byteOffset":4960,"byteLength":1240},{"buffer":0,"byteOffset":6200,"byteLength":2480},{"buffer":0,"byteOffset":8680,"byteLength":672}],"buffers":[{"byteLength":9352,"uri":"data:application/octet-stream;base64,"}]}
