{"asset":{"generator":"Khronos glTF Blender I/O v1.2.75","version":"2.0"},"scene":0,"scenes":[{"name":"Scene","nodes":[0]}],"nodes":[{"mesh":0,"name":"Mesh"}],"meshes":[{"name":"SM_Lamp03","primitives":[{"indices":5,"attributes":{"POSITION":0,"NORMAL":1,"TEXCOORD_0":2,"TEXCOORD_1":3,"TANGENT":4},"mode":4}]}],"accessors":[{"bufferView":0,"componentType":5126,"count":520,"type":"VEC3","min":[-0.022304537296295165,-0.0009218233078718185,-2.370450286865234],"max":[0.10961777687072755,1.43793212890625,0.0233721923828125]},{"bufferView":1,"componentType":5126,"count":520,"type":"VEC3"},{"bufferView":2,"componentType":5126,"count":520,"type":"VEC2"},{"bufferView":3,"componentType":5126,"count":520,"type":"VEC2"},{"bufferView":4,"componentType":5126,"count":520,"type":"VEC4"},{"bufferView":5,"componentType":5123,"count":1668,"type":"SCALAR"}],"bufferViews":[{"buffer":0,"byteOffset":0,"byteLength":6240},{"buffer":0,"byteOffset":6240,"byteLength":6240},{"buffer":0,"byteOffset":12480,"byteLength":4160},{"buffer":0,"byteOffset":16640,"byteLength":4160},{"buffer":0,"byteOffset":20800,"byteLength":8320},{"buffer":0,"byteOffset":29120,"byteLength":3336}],"buffers":[{"byteLength":32456,"uri":"data:application/octet-stream;base64,"}]}
