{"asset":{"generator":"Khronos glTF Blender I/O v1.2.75","version":"2.0"},"scene":0,"scenes":[{"name":"Scene","nodes":[0]}],"nodes":[{"mesh":0,"name":"Mesh"}],"meshes":[{"name":"SM_Building05_01","primitives":[{"indices":5,"attributes":{"POSITION":0,"NORMAL":1,"TEXCOORD_0":2,"TEXCOORD_1":3,"TANGENT":4},"mode":4}]}],"accessors":[{"bufferView":0,"componentType":5126,"count":175,"type":"VEC3","min":[0,-0.034758546352386475,-0.23249465942382813],"max":[5.600000610351563,12,0.19578144073486328]},{"bufferView":1,"componentType":5126,"count":175,"type":"VEC3"},{"bufferView":2,"componentType":5126,"count":175,"type":"VEC2"},{"bufferView":3,"componentType":5126,"count":175,"type":"VEC2"},{"bufferView":4,"componentType":5126,"count":175,"type":"VEC4"},{"bufferView":5,"componentType":5123,"count":297,"type":"SCALAR"}],"bufferViews":[{"buffer":0,"byteOffset":0,"byteLength":2100},{"buffer":0,"byteOffset":2100,"byteLength":2100},{"buffer":0,"byteOffset":4200,"byteLength":1400},{"buffer":0,"byteOffset":5600,"byteLength":1400},{"buffer":0,"byteOffset":7000,"byteLength":2800},{"buffer":0,"byteOffset":9800,"byteLength":594}],"buffers":[{"byteLength":10394,"uri":"data:application/octet-stream;base64,"}]}
