{"asset":{"generator":"Khronos glTF Blender I/O v1.2.75","version":"2.0"},"scene":0,"scenes":[{"name":"Scene","nodes":[0]}],"nodes":[{"mesh":0,"name":"Mesh"}],"meshes":[{"name":"SM_RoofMain_01","primitives":[{"indices":5,"attributes":{"POSITION":0,"NORMAL":1,"TEXCOORD_0":2,"TEXCOORD_1":3,"TANGENT":4},"mode":4}]}],"accessors":[{"bufferView":0,"componentType":5126,"count":1939,"type":"VEC3","min":[0,-2.4926298546924796e-15,-2.306264208740919e-16],"max":[11.12304931640625,1.5,11.1]},{"bufferView":1,"componentType":5126,"count":1939,"type":"VEC3"},{"bufferView":2,"componentType":5126,"count":1939,"type":"VEC2"},{"bufferView":3,"componentType":5126,"count":1939,"type":"VEC2"},{"bufferView":4,"componentType":5126,"count":1939,"type":"VEC4"},{"bufferView":5,"componentType":5123,"count":4749,"type":"SCALAR"}],"bufferViews":[{"buffer":0,"byteOffset":0,"byteLength":23268},{"buffer":0,"byteOffset":23268,"byteLength":23268},{"buffer":0,"byteOffset":46536,"byteLength":15512},{"buffer":0,"byteOffset":62048,"byteLength":15512},{"buffer":0,"byteOffset":77560,"byteLength":31024},{"buffer":0,"byteOffset":108584,"byteLength":9498}],"buffers":[{"byteLength":118082,"uri":"data:application/octet-stream;base64,"}]}
