{"asset":{"generator":"Khronos glTF Blender I/O v1.2.75","version":"2.0"},"scene":0,"scenes":[{"name":"Scene","nodes":[0]}],"nodes":[{"mesh":0,"name":"Mesh"}],"meshes":[{"name":"SM_MetalWallPart_07","primitives":[{"indices":6,"attributes":{"POSITION":0,"NORMAL":1,"COLOR_0":2,"TEXCOORD_0":3,"TEXCOORD_1":4,"TANGENT":5},"mode":4},{"indices":13,"attributes":{"POSITION":7,"NORMAL":8,"COLOR_0":9,"TEXCOORD_0":10,"TEXCOORD_1":11,"TANGENT":12},"mode":4},{"indices":20,"attributes":{"POSITION":14,"NORMAL":15,"COLOR_0":16,"TEXCOORD_0":17,"TEXCOORD_1":18,"TANGENT":19},"mode":4},{"indices":27,"attributes":{"POSITION":21,"NORMAL":22,"COLOR_0":23,"TEXCOORD_0":24,"TEXCOORD_1":25,"TANGENT":26},"mode":4}]}],"accessors":[{"bufferView":0,"componentType":5126,"count":288,"type":"VEC3","min":[-0.047918472290039066,-0.016602544784545897,-4.100558166503906],"max":[0.4754207992553711,9.015197143554687,0.02263852596282959]},{"bufferView":1,"componentType":5126,"count":288,"type":"VEC3"},{"bufferView":2,"componentType":5126,"count":1316,"type":"VEC4"},{"bufferView":3,"componentType":5126,"count":288,"type":"VEC2"},{"bufferView":4,"componentType":5126,"count":288,"type":"VEC2"},{"bufferView":5,"componentType":5126,"count":288,"type":"VEC4"},{"bufferView":6,"componentType":5123,"count":456,"type":"SCALAR"},{"bufferView":7,"componentType":5126,"count":526,"type":"VEC3","min":[-0.047918472290039066,-0.016602544784545897,-4.100558166503906],"max":[0.4754207992553711,9.015197143554687,0.02263852596282959]},{"bufferView":8,"componentType":5126,"count":526,"type":"VEC3"},{"bufferView":9,"componentType":5126,"count":1316,"type":"VEC4"},{"bufferView":10,"componentType":5126,"count":526,"type":"VEC2"},{"bufferView":11,"componentType":5126,"count":526,"type":"VEC2"},{"bufferView":12,"componentType":5126,"count":526,"type":"VEC4"},{"bufferView":13,"componentType":5123,"count":918,"type":"SCALAR"},{"bufferView":14,"componentType":5126,"count":386,"type":"VEC3","min":[-0.047918472290039066,-0.016602544784545897,-4.100558166503906],"max":[0.4754207992553711,9.015197143554687,0.02263852596282959]},{"bufferView":15,"componentType":5126,"count":386,"type":"VEC3"},{"bufferView":16,"componentType":5126,"count":1316,"type":"VEC4"},{"bufferView":17,"componentType":5126,"count":386,"type":"VEC2"},{"bufferView":18,"componentType":5126,"count":386,"type":"VEC2"},{"bufferView":19,"componentType":5126,"count":386,"type":"VEC4"},{"bufferView":20,"componentType":5123,"count":846,"type":"SCALAR"},{"bufferView":21,"componentType":5126,"count":116,"type":"VEC3","min":[-0.047918472290039066,-0.016602544784545897,-4.100558166503906],"max":[0.4754207992553711,9.015197143554687,0.02263852596282959]},{"bufferView":22,"componentType":5126,"count":116,"type":"VEC3"},{"bufferView":23,"componentType":5126,"count":1316,"type":"VEC4"},{"bufferView":24,"componentType":5126,"count":116,"type":"VEC2"},{"bufferView":25,"componentType":5126,"count":116,"type":"VEC2"},{"bufferView":26,"componentType":5126,"count":116,"type":"VEC4"},{"bufferView":27,"componentType":5123,"count":204,"type":"SCALAR"}],"bufferViews":[{"buffer":0,"byteOffset":0,"byteLength":3456},{"buffer":0,"byteOffset":3456,"byteLength":3456},{"buffer":0,"byteOffset":6912,"byteLength":21056},{"buffer":0,"byteOffset":27968,"byteLength":2304},{"buffer":0,"byteOffset":30272,"byteLength":2304},{"buffer":0,"byteOffset":32576,"byteLength":4608},{"buffer":0,"byteOffset":37184,"byteLength":912},{"buffer":1,"byteOffset":0,"byteLength":6312},{"buffer":1,"byteOffset":6312,"byteLength":6312},{"buffer":1,"byteOffset":12624,"byteLength":21056},{"buffer":1,"byteOffset":33680,"byteLength":4208},{"buffer":1,"byteOffset":37888,"byteLength":4208},{"buffer":1,"byteOffset":42096,"byteLength":8416},{"buffer":1,"byteOffset":50512,"byteLength":1836},{"buffer":2,"byteOffset":0,"byteLength":4632},{"buffer":2,"byteOffset":4632,"byteLength":4632},{"buffer":2,"byteOffset":9264,"byteLength":21056},{"buffer":2,"byteOffset":30320,"byteLength":3088},{"buffer":2,"byteOffset":33408,"byteLength":3088},{"buffer":2,"byteOffset":36496,"byteLength":6176},{"buffer":2,"byteOffset":42672,"byteLength":1692},{"buffer":3,"byteOffset":0,"byteLength":1392},{"buffer":3,"byteOffset":1392,"byteLength":1392},{"buffer":3,"byteOffset":2784,"byteLength":21056},{"buffer":3,"byteOffset":23840,"byteLength":928},{"buffer":3,"byteOffset":24768,"byteLength":928},{"buffer":3,"byteOffset":25696,"byteLength":1856},{"buffer":3,"byteOffset":27552,"byteLength":408}],"buffers":[{"byteLength":38096,"uri":"data:application/octet-stream;base64,"},{"byteLength":52348,"uri":"data:application/octet-stream;base64,"},{"byteLength":44364,"uri":"data:application/octet-stream;base64,"},{"byteLength":27960,"uri":"data:application/octet-stream;base64,"}]}
