{"asset":{"generator":"Khronos glTF Blender I/O v1.2.75","version":"2.0"},"scene":0,"scenes":[{"name":"Scene","nodes":[0]}],"nodes":[{"mesh":0,"name":"Mesh"}],"meshes":[{"name":"SM_MetalWallPart_07","primitives":[{"indices":6,"attributes":{"POSITION":0,"NORMAL":1,"COLOR_0":2,"TEXCOORD_0":3,"TEXCOORD_1":4,"TANGENT":5},"mode":4},{"indices":13,"attributes":{"POSITION":7,"NORMAL":8,"COLOR_0":9,"TEXCOORD_0":10,"TEXCOORD_1":11,"TANGENT":12},"mode":4},{"indices":20,"attributes":{"POSITION":14,"NORMAL":15,"COLOR_0":16,"TEXCOORD_0":17,"TEXCOORD_1":18,"TANGENT":19},"mode":4},{"indices":27,"attributes":{"POSITION":21,"NORMAL":22,"COLOR_0":23,"TEXCOORD_0":24,"TEXCOORD_1":25,"TANGENT":26},"mode":4}]}],"accessors":[{"bufferView":0,"componentType":5126,"count":288,"type":"VEC3","min":[-0.047918472290039066,-0.016602544784545897,-4.100558166503906],"max":[0.4754207992553711,9.015197143554687,0.02263852596282959]},{"bufferView":1,"componentType":5126,"count":288,"type":"VEC3"},{"bufferView":2,"componentType":5126,"count":2096,"type":"VEC4"},{"bufferView":3,"componentType":5126,"count":288,"type":"VEC2"},{"bufferView":4,"componentType":5126,"count":288,"type":"VEC2"},{"bufferView":5,"componentType":5126,"count":288,"type":"VEC4"},{"bufferView":6,"componentType":5123,"count":456,"type":"SCALAR"},{"bufferView":7,"componentType":5126,"count":560,"type":"VEC3","min":[-0.047918472290039066,-0.016602544784545897,-4.100558166503906],"max":[0.4754207992553711,9.015197143554687,0.02263852596282959]},{"bufferView":8,"componentType":5126,"count":560,"type":"VEC3"},{"bufferView":9,"componentType":5126,"count":2096,"type":"VEC4"},{"bufferView":10,"componentType":5126,"count":560,"type":"VEC2"},{"bufferView":11,"componentType":5126,"count":560,"type":"VEC2"},{"bufferView":12,"componentType":5126,"count":560,"type":"VEC4"},{"bufferView":13,"componentType":5123,"count":1092,"type":"SCALAR"},{"bufferView":14,"componentType":5126,"count":1120,"type":"VEC3","min":[-0.047918472290039066,-0.016602544784545897,-4.100558166503906],"max":[0.4754207992553711,9.015197143554687,0.02263852596282959]},{"bufferView":15,"componentType":5126,"count":1120,"type":"VEC3"},{"bufferView":16,"componentType":5126,"count":2096,"type":"VEC4"},{"bufferView":17,"componentType":5126,"count":1120,"type":"VEC2"},{"bufferView":18,"componentType":5126,"count":1120,"type":"VEC2"},{"bufferView":19,"componentType":5126,"count":1120,"type":"VEC4"},{"bufferView":20,"componentType":5123,"count":3048,"type":"SCALAR"},{"bufferView":21,"componentType":5126,"count":128,"type":"VEC3","min":[-0.047918472290039066,-0.016602544784545897,-4.100558166503906],"max":[0.4754207992553711,9.015197143554687,0.02263852596282959]},{"bufferView":22,"componentType":5126,"count":128,"type":"VEC3"},{"bufferView":23,"componentType":5126,"count":2096,"type":"VEC4"},{"bufferView":24,"componentType":5126,"count":128,"type":"VEC2"},{"bufferView":25,"componentType":5126,"count":128,"type":"VEC2"},{"bufferView":26,"componentType":5126,"count":128,"type":"VEC4"},{"bufferView":27,"componentType":5123,"count":252,"type":"SCALAR"}],"bufferViews":[{"buffer":0,"byteOffset":0,"byteLength":3456},{"buffer":0,"byteOffset":3456,"byteLength":3456},{"buffer":0,"byteOffset":6912,"byteLength":33536},{"buffer":0,"byteOffset":40448,"byteLength":2304},{"buffer":0,"byteOffset":42752,"byteLength":2304},{"buffer":0,"byteOffset":45056,"byteLength":4608},{"buffer":0,"byteOffset":49664,"byteLength":912},{"buffer":1,"byteOffset":0,"byteLength":6720},{"buffer":1,"byteOffset":6720,"byteLength":6720},{"buffer":1,"byteOffset":13440,"byteLength":33536},{"buffer":1,"byteOffset":46976,"byteLength":4480},{"buffer":1,"byteOffset":51456,"byteLength":4480},{"buffer":1,"byteOffset":55936,"byteLength":8960},{"buffer":1,"byteOffset":64896,"byteLength":2184},{"buffer":2,"byteOffset":0,"byteLength":13440},{"buffer":2,"byteOffset":13440,"byteLength":13440},{"buffer":2,"byteOffset":26880,"byteLength":33536},{"buffer":2,"byteOffset":60416,"byteLength":8960},{"buffer":2,"byteOffset":69376,"byteLength":8960},{"buffer":2,"byteOffset":78336,"byteLength":17920},{"buffer":2,"byteOffset":96256,"byteLength":6096},{"buffer":3,"byteOffset":0,"byteLength":1536},{"buffer":3,"byteOffset":1536,"byteLength":1536},{"buffer":3,"byteOffset":3072,"byteLength":33536},{"buffer":3,"byteOffset":36608,"byteLength":1024},{"buffer":3,"byteOffset":37632,"byteLength":1024},{"buffer":3,"byteOffset":38656,"byteLength":2048},{"buffer":3,"byteOffset":40704,"byteLength":504}],"buffers":[{"byteLength":50576,"uri":"data:application/octet-stream;base64,"},{"byteLength":67080,"uri":"data:application/octet-stream;base64,"},{"byteLength":102352,"uri":"data:application/octet-stream;base64,"},{"byteLength":41208,"uri":"data:application/octet-stream;base64,"}]}
