{"asset":{"generator":"Khronos glTF Blender I/O v1.2.75","version":"2.0"},"scene":0,"scenes":[{"name":"Scene","nodes":[0]}],"nodes":[{"mesh":0,"name":"Mesh"}],"meshes":[{"name":"SM_MetalWallPart_07","primitives":[{"indices":6,"attributes":{"POSITION":0,"NORMAL":1,"COLOR_0":2,"TEXCOORD_0":3,"TEXCOORD_1":4,"TANGENT":5},"mode":4},{"indices":13,"attributes":{"POSITION":7,"NORMAL":8,"COLOR_0":9,"TEXCOORD_0":10,"TEXCOORD_1":11,"TANGENT":12},"mode":4},{"indices":20,"attributes":{"POSITION":14,"NORMAL":15,"COLOR_0":16,"TEXCOORD_0":17,"TEXCOORD_1":18,"TANGENT":19},"mode":4},{"indices":27,"attributes":{"POSITION":21,"NORMAL":22,"COLOR_0":23,"TEXCOORD_0":24,"TEXCOORD_1":25,"TANGENT":26},"mode":4}]}],"accessors":[{"bufferView":0,"componentType":5126,"count":113,"type":"VEC3","min":[-0.047918472290039066,-0.016602544784545897,-4.100558166503906],"max":[0.4754207992553711,9.015197143554687,0.02263852596282959]},{"bufferView":1,"componentType":5126,"count":113,"type":"VEC3"},{"bufferView":2,"componentType":5126,"count":662,"type":"VEC4"},{"bufferView":3,"componentType":5126,"count":113,"type":"VEC2"},{"bufferView":4,"componentType":5126,"count":113,"type":"VEC2"},{"bufferView":5,"componentType":5126,"count":113,"type":"VEC4"},{"bufferView":6,"componentType":5123,"count":150,"type":"SCALAR"},{"bufferView":7,"componentType":5126,"count":289,"type":"VEC3","min":[-0.047918472290039066,-0.016602544784545897,-4.100558166503906],"max":[0.4754207992553711,9.015197143554687,0.02263852596282959]},{"bufferView":8,"componentType":5126,"count":289,"type":"VEC3"},{"bufferView":9,"componentType":5126,"count":662,"type":"VEC4"},{"bufferView":10,"componentType":5126,"count":289,"type":"VEC2"},{"bufferView":11,"componentType":5126,"count":289,"type":"VEC2"},{"bufferView":12,"componentType":5126,"count":289,"type":"VEC4"},{"bufferView":13,"componentType":5123,"count":438,"type":"SCALAR"},{"bufferView":14,"componentType":5126,"count":182,"type":"VEC3","min":[-0.047918472290039066,-0.016602544784545897,-4.100558166503906],"max":[0.4754207992553711,9.015197143554687,0.02263852596282959]},{"bufferView":15,"componentType":5126,"count":182,"type":"VEC3"},{"bufferView":16,"componentType":5126,"count":662,"type":"VEC4"},{"bufferView":17,"componentType":5126,"count":182,"type":"VEC2"},{"bufferView":18,"componentType":5126,"count":182,"type":"VEC2"},{"bufferView":19,"componentType":5126,"count":182,"type":"VEC4"},{"bufferView":20,"componentType":5123,"count":258,"type":"SCALAR"},{"bufferView":21,"componentType":5126,"count":78,"type":"VEC3","min":[-0.047918472290039066,-0.016602544784545897,-4.100558166503906],"max":[0.4754207992553711,9.015197143554687,0.02263852596282959]},{"bufferView":22,"componentType":5126,"count":78,"type":"VEC3"},{"bufferView":23,"componentType":5126,"count":662,"type":"VEC4"},{"bufferView":24,"componentType":5126,"count":78,"type":"VEC2"},{"bufferView":25,"componentType":5126,"count":78,"type":"VEC2"},{"bufferView":26,"componentType":5126,"count":78,"type":"VEC4"},{"bufferView":27,"componentType":5123,"count":126,"type":"SCALAR"}],"bufferViews":[{"buffer":0,"byteOffset":0,"byteLength":1356},{"buffer":0,"byteOffset":1356,"byteLength":1356},{"buffer":0,"byteOffset":2712,"byteLength":10592},{"buffer":0,"byteOffset":13304,"byteLength":904},{"buffer":0,"byteOffset":14208,"byteLength":904},{"buffer":0,"byteOffset":15112,"byteLength":1808},{"buffer":0,"byteOffset":16920,"byteLength":300},{"buffer":1,"byteOffset":0,"byteLength":3468},{"buffer":1,"byteOffset":3468,"byteLength":3468},{"buffer":1,"byteOffset":6936,"byteLength":10592},{"buffer":1,"byteOffset":17528,"byteLength":2312},{"buffer":1,"byteOffset":19840,"byteLength":2312},{"buffer":1,"byteOffset":22152,"byteLength":4624},{"buffer":1,"byteOffset":26776,"byteLength":876},{"buffer":2,"byteOffset":0,"byteLength":2184},{"buffer":2,"byteOffset":2184,"byteLength":2184},{"buffer":2,"byteOffset":4368,"byteLength":10592},{"buffer":2,"byteOffset":14960,"byteLength":1456},{"buffer":2,"byteOffset":16416,"byteLength":1456},{"buffer":2,"byteOffset":17872,"byteLength":2912},{"buffer":2,"byteOffset":20784,"byteLength":516},{"buffer":3,"byteOffset":0,"byteLength":936},{"buffer":3,"byteOffset":936,"byteLength":936},{"buffer":3,"byteOffset":1872,"byteLength":10592},{"buffer":3,"byteOffset":12464,"byteLength":624},{"buffer":3,"byteOffset":13088,"byteLength":624},{"buffer":3,"byteOffset":13712,"byteLength":1248},{"buffer":3,"byteOffset":14960,"byteLength":252}],"buffers":[{"byteLength":17220,"uri":"data:application/octet-stream;base64,"},{"byteLength":27652,"uri":"data:application/octet-stream;base64,"},{"byteLength":21300,"uri":"data:application/octet-stream;base64,"},{"byteLength":15212,"uri":"data:application/octet-stream;base64,"}]}
