{"asset":{"generator":"Khronos glTF Blender I/O v1.2.75","version":"2.0"},"scene":0,"scenes":[{"name":"Scene","nodes":[0]}],"nodes":[{"mesh":0,"name":"Mesh"}],"meshes":[{"name":"SM_PlatformGrillMerged02","primitives":[{"indices":5,"attributes":{"POSITION":0,"NORMAL":1,"TEXCOORD_0":2,"TEXCOORD_1":3,"TANGENT":4},"mode":4}]}],"accessors":[{"bufferView":0,"componentType":5126,"count":524,"type":"VEC3","min":[-5.54149658203125,-0.030401926040649414,-1.5546702575683593],"max":[1.65572021484375,0.32598419189453126,1.8850103759765624]},{"bufferView":1,"componentType":5126,"count":524,"type":"VEC3"},{"bufferView":2,"componentType":5126,"count":524,"type":"VEC2"},{"bufferView":3,"componentType":5126,"count":524,"type":"VEC2"},{"bufferView":4,"componentType":5126,"count":524,"type":"VEC4"},{"bufferView":5,"componentType":5123,"count":666,"type":"SCALAR"}],"bufferViews":[{"buffer":0,"byteOffset":0,"byteLength":6288},{"buffer":0,"byteOffset":6288,"byteLength":6288},{"buffer":0,"byteOffset":12576,"byteLength":4192},{"buffer":0,"byteOffset":16768,"byteLength":4192},{"buffer":0,"byteOffset":20960,"byteLength":8384},{"buffer":0,"byteOffset":29344,"byteLength":1332}],"buffers":[{"byteLength":30676,"uri":"data:application/octet-stream;base64,"}]}
