{"asset":{"generator":"Khronos glTF Blender I/O v1.2.75","version":"2.0"},"scene":0,"scenes":[{"name":"Scene","nodes":[0]}],"nodes":[{"mesh":0,"name":"Mesh"}],"meshes":[{"name":"SM_PlatformGrillMerged02","primitives":[{"indices":5,"attributes":{"POSITION":0,"NORMAL":1,"TEXCOORD_0":2,"TEXCOORD_1":3,"TANGENT":4},"mode":4}]}],"accessors":[{"bufferView":0,"componentType":5126,"count":1560,"type":"VEC3","min":[-5.54149658203125,-0.030401926040649414,-1.5546702575683593],"max":[1.65572021484375,0.32598419189453126,1.8850103759765624]},{"bufferView":1,"componentType":5126,"count":1560,"type":"VEC3"},{"bufferView":2,"componentType":5126,"count":1560,"type":"VEC2"},{"bufferView":3,"componentType":5126,"count":1560,"type":"VEC2"},{"bufferView":4,"componentType":5126,"count":1560,"type":"VEC4"},{"bufferView":5,"componentType":5123,"count":2220,"type":"SCALAR"}],"bufferViews":[{"buffer":0,"byteOffset":0,"byteLength":18720},{"buffer":0,"byteOffset":18720,"byteLength":18720},{"buffer":0,"byteOffset":37440,"byteLength":12480},{"buffer":0,"byteOffset":49920,"byteLength":12480},{"buffer":0,"byteOffset":62400,"byteLength":24960},{"buffer":0,"byteOffset":87360,"byteLength":4440}],"buffers":[{"byteLength":91800,"uri":"data:application/octet-stream;base64,"}]}
