{"asset":{"generator":"Khronos glTF Blender I/O v1.2.75","version":"2.0"},"scene":0,"scenes":[{"name":"Scene","nodes":[0]}],"nodes":[{"mesh":0,"name":"Mesh"}],"meshes":[{"name":"SM_AirConditioningPlatform_01","primitives":[{"indices":6,"attributes":{"POSITION":0,"NORMAL":1,"COLOR_0":2,"TEXCOORD_0":3,"TEXCOORD_1":4,"TANGENT":5},"mode":4}]}],"accessors":[{"bufferView":0,"componentType":5126,"count":1286,"type":"VEC3","min":[-1.5093544006347657,-0.007507196068763733,-0.9299262237548828],"max":[1.504520721435547,0.32083118438720704,0.9267389678955078]},{"bufferView":1,"componentType":5126,"count":1286,"type":"VEC3"},{"bufferView":2,"componentType":5126,"count":1286,"type":"VEC4"},{"bufferView":3,"componentType":5126,"count":1286,"type":"VEC2"},{"bufferView":4,"componentType":5126,"count":1286,"type":"VEC2"},{"bufferView":5,"componentType":5126,"count":1286,"type":"VEC4"},{"bufferView":6,"componentType":5123,"count":1872,"type":"SCALAR"}],"bufferViews":[{"buffer":0,"byteOffset":0,"byteLength":15432},{"buffer":0,"byteOffset":15432,"byteLength":15432},{"buffer":0,"byteOffset":30864,"byteLength":20576},{"buffer":0,"byteOffset":51440,"byteLength":10288},{"buffer":0,"byteOffset":61728,"byteLength":10288},{"buffer":0,"byteOffset":72016,"byteLength":20576},{"buffer":0,"byteOffset":92592,"byteLength":3744}],"buffers":[{"byteLength":96336,"uri":"data:application/octet-stream;base64,"}]}
