{"asset":{"generator":"Khronos glTF Blender I/O v1.2.75","version":"2.0"},"scene":0,"scenes":[{"name":"Scene","nodes":[0]}],"nodes":[{"mesh":0,"name":"Mesh"}],"meshes":[{"name":"SM_AirConditioningPlatform_01","primitives":[{"indices":6,"attributes":{"POSITION":0,"NORMAL":1,"COLOR_0":2,"TEXCOORD_0":3,"TEXCOORD_1":4,"TANGENT":5},"mode":4}]}],"accessors":[{"bufferView":0,"componentType":5126,"count":496,"type":"VEC3","min":[-1.5093544006347657,-0.007507196068763733,-0.9299262237548828],"max":[1.504520721435547,0.32083118438720704,0.9267389678955078]},{"bufferView":1,"componentType":5126,"count":496,"type":"VEC3"},{"bufferView":2,"componentType":5126,"count":496,"type":"VEC4"},{"bufferView":3,"componentType":5126,"count":496,"type":"VEC2"},{"bufferView":4,"componentType":5126,"count":496,"type":"VEC2"},{"bufferView":5,"componentType":5126,"count":496,"type":"VEC4"},{"bufferView":6,"componentType":5123,"count":780,"type":"SCALAR"}],"bufferViews":[{"buffer":0,"byteOffset":0,"byteLength":5952},{"buffer":0,"byteOffset":5952,"byteLength":5952},{"buffer":0,"byteOffset":11904,"byteLength":7936},{"buffer":0,"byteOffset":19840,"byteLength":3968},{"buffer":0,"byteOffset":23808,"byteLength":3968},{"buffer":0,"byteOffset":27776,"byteLength":7936},{"buffer":0,"byteOffset":35712,"byteLength":1560}],"buffers":[{"byteLength":37272,"uri":"data:application/octet-stream;base64,"}]}
