{"asset":{"generator":"Khronos glTF Blender I/O v1.2.75","version":"2.0"},"scene":0,"scenes":[{"name":"Scene","nodes":[0]}],"nodes":[{"mesh":0,"name":"Mesh"}],"meshes":[{"name":"SM_Building12_07","primitives":[{"indices":5,"attributes":{"POSITION":0,"NORMAL":1,"TEXCOORD_0":2,"TEXCOORD_1":3,"TANGENT":4},"mode":4},{"indices":11,"attributes":{"POSITION":6,"NORMAL":7,"TEXCOORD_0":8,"TEXCOORD_1":9,"TANGENT":10},"mode":4}]}],"accessors":[{"bufferView":0,"componentType":5126,"count":10484,"type":"VEC3","min":[-20.34,-0.00007174070458859205,-22.276904296875],"max":[6.006555122439749e-7,15.471767578125,4.666845703125]},{"bufferView":1,"componentType":5126,"count":10484,"type":"VEC3"},{"bufferView":2,"componentType":5126,"count":10484,"type":"VEC2"},{"bufferView":3,"componentType":5126,"count":10484,"type":"VEC2"},{"bufferView":4,"componentType":5126,"count":10484,"type":"VEC4"},{"bufferView":5,"componentType":5123,"count":22416,"type":"SCALAR"},{"bufferView":6,"componentType":5126,"count":192,"type":"VEC3","min":[-20.34,-0.00007174070458859205,-22.276904296875],"max":[6.006555122439749e-7,15.471767578125,4.666845703125]},{"bufferView":7,"componentType":5126,"count":192,"type":"VEC3"},{"bufferView":8,"componentType":5126,"count":192,"type":"VEC2"},{"bufferView":9,"componentType":5126,"count":192,"type":"VEC2"},{"bufferView":10,"componentType":5126,"count":192,"type":"VEC4"},{"bufferView":11,"componentType":5123,"count":288,"type":"SCALAR"}],"bufferViews":[{"buffer":0,"byteOffset":0,"byteLength":125808},{"buffer":0,"byteOffset":125808,"byteLength":125808},{"buffer":0,"byteOffset":251616,"byteLength":83872},{"buffer":0,"byteOffset":335488,"byteLength":83872},{"buffer":0,"byteOffset":419360,"byteLength":167744},{"buffer":0,"byteOffset":587104,"byteLength":44832},{"buffer":1,"byteOffset":0,"byteLength":2304},{"buffer":1,"byteOffset":2304,"byteLength":2304},{"buffer":1,"byteOffset":4608,"byteLength":1536},{"buffer":1,"byteOffset":6144,"byteLength":1536},{"buffer":1,"byteOffset":7680,"byteLength":3072},{"buffer":1,"byteOffset":10752,"byteLength":576}],"buffers":[{"byteLength":631936,"uri":"data:application/octet-stream;base64,"},{"byteLength":11328,"uri":"data:application/octet-stream;base64,"}]}
