{"asset":{"generator":"Khronos glTF Blender I/O v1.2.75","version":"2.0"},"scene":0,"scenes":[{"name":"Scene","nodes":[0]}],"nodes":[{"mesh":0,"name":"Mesh"}],"meshes":[{"name":"SM_PipeGroup19","primitives":[{"indices":5,"attributes":{"POSITION":0,"NORMAL":1,"TEXCOORD_0":2,"TEXCOORD_1":3,"TANGENT":4},"mode":4}]}],"accessors":[{"bufferView":0,"componentType":5126,"count":908,"type":"VEC3","min":[-0.42644535064697264,-0.46700641632080075,-7.304756469726563],"max":[22.897734375,0.5104415130615234,1.7853932189941406]},{"bufferView":1,"componentType":5126,"count":908,"type":"VEC3"},{"bufferView":2,"componentType":5126,"count":908,"type":"VEC2"},{"bufferView":3,"componentType":5126,"count":908,"type":"VEC2"},{"bufferView":4,"componentType":5126,"count":908,"type":"VEC4"},{"bufferView":5,"componentType":5123,"count":2478,"type":"SCALAR"}],"bufferViews":[{"buffer":0,"byteOffset":0,"byteLength":10896},{"buffer":0,"byteOffset":10896,"byteLength":10896},{"buffer":0,"byteOffset":21792,"byteLength":7264},{"buffer":0,"byteOffset":29056,"byteLength":7264},{"buffer":0,"byteOffset":36320,"byteLength":14528},{"buffer":0,"byteOffset":50848,"byteLength":4956}],"buffers":[{"byteLength":55804,"uri":"data:application/octet-stream;base64,"}]}
