{"asset":{"generator":"Khronos glTF Blender I/O v1.2.75","version":"2.0"},"scene":0,"scenes":[{"name":"Scene","nodes":[0]}],"nodes":[{"mesh":0,"name":"Mesh"}],"meshes":[{"name":"SM_PaperBox_03_05","primitives":[{"indices":6,"attributes":{"POSITION":0,"NORMAL":1,"COLOR_0":2,"TEXCOORD_0":3,"TEXCOORD_1":4,"TANGENT":5},"mode":4}]}],"accessors":[{"bufferView":0,"componentType":5126,"count":489,"type":"VEC3","min":[-0.47171573638916015,-0.039621682167053224,-0.7925629425048828],"max":[0.37980926513671875,0.7521846771240235,0.5702622604370117]},{"bufferView":1,"componentType":5126,"count":489,"type":"VEC3"},{"bufferView":2,"componentType":5126,"count":489,"type":"VEC4"},{"bufferView":3,"componentType":5126,"count":489,"type":"VEC2"},{"bufferView":4,"componentType":5126,"count":489,"type":"VEC2"},{"bufferView":5,"componentType":5126,"count":489,"type":"VEC4"},{"bufferView":6,"componentType":5123,"count":552,"type":"SCALAR"}],"bufferViews":[{"buffer":0,"byteOffset":0,"byteLength":5868},{"buffer":0,"byteOffset":5868,"byteLength":5868},{"buffer":0,"byteOffset":11736,"byteLength":7824},{"buffer":0,"byteOffset":19560,"byteLength":3912},{"buffer":0,"byteOffset":23472,"byteLength":3912},{"buffer":0,"byteOffset":27384,"byteLength":7824},{"buffer":0,"byteOffset":35208,"byteLength":1104}],"buffers":[{"byteLength":36312,"uri":"data:application/octet-stream;base64,"}]}
