{"asset":{"generator":"Khronos glTF Blender I/O v1.2.75","version":"2.0"},"scene":0,"scenes":[{"name":"Scene","nodes":[0]}],"nodes":[{"mesh":0,"name":"Mesh"}],"meshes":[{"name":"SM_PaperBox_03_05","primitives":[{"indices":6,"attributes":{"POSITION":0,"NORMAL":1,"COLOR_0":2,"TEXCOORD_0":3,"TEXCOORD_1":4,"TANGENT":5},"mode":4}]}],"accessors":[{"bufferView":0,"componentType":5126,"count":98,"type":"VEC3","min":[-0.47171573638916015,-0.039621682167053224,-0.7925629425048828],"max":[0.37980926513671875,0.7521846771240235,0.5702622604370117]},{"bufferView":1,"componentType":5126,"count":98,"type":"VEC3"},{"bufferView":2,"componentType":5126,"count":98,"type":"VEC4"},{"bufferView":3,"componentType":5126,"count":98,"type":"VEC2"},{"bufferView":4,"componentType":5126,"count":98,"type":"VEC2"},{"bufferView":5,"componentType":5126,"count":98,"type":"VEC4"},{"bufferView":6,"componentType":5123,"count":102,"type":"SCALAR"}],"bufferViews":[{"buffer":0,"byteOffset":0,"byteLength":1176},{"buffer":0,"byteOffset":1176,"byteLength":1176},{"buffer":0,"byteOffset":2352,"byteLength":1568},{"buffer":0,"byteOffset":3920,"byteLength":784},{"buffer":0,"byteOffset":4704,"byteLength":784},{"buffer":0,"byteOffset":5488,"byteLength":1568},{"buffer":0,"byteOffset":7056,"byteLength":204}],"buffers":[{"byteLength":7260,"uri":"data:application/octet-stream;base64,"}]}
