{"asset":{"generator":"Khronos glTF Blender I/O v1.2.75","version":"2.0"},"scene":0,"scenes":[{"name":"Scene","nodes":[0]}],"nodes":[{"mesh":0,"name":"Mesh"}],"meshes":[{"name":"SM_PowderStorage_01","primitives":[{"indices":6,"attributes":{"POSITION":0,"NORMAL":1,"COLOR_0":2,"TEXCOORD_0":3,"TEXCOORD_1":4,"TANGENT":5},"mode":4}]}],"accessors":[{"bufferView":0,"componentType":5126,"count":1164,"type":"VEC3","min":[-1.9287657165527343,-0.005343571901321411,-2.875516662597656],"max":[1.926005859375,5.5341455078125,3.7446890258789063]},{"bufferView":1,"componentType":5126,"count":1164,"type":"VEC3"},{"bufferView":2,"componentType":5126,"count":1164,"type":"VEC4"},{"bufferView":3,"componentType":5126,"count":1164,"type":"VEC2"},{"bufferView":4,"componentType":5126,"count":1164,"type":"VEC2"},{"bufferView":5,"componentType":5126,"count":1164,"type":"VEC4"},{"bufferView":6,"componentType":5123,"count":1887,"type":"SCALAR"}],"bufferViews":[{"buffer":0,"byteOffset":0,"byteLength":13968},{"buffer":0,"byteOffset":13968,"byteLength":13968},{"buffer":0,"byteOffset":27936,"byteLength":18624},{"buffer":0,"byteOffset":46560,"byteLength":9312},{"buffer":0,"byteOffset":55872,"byteLength":9312},{"buffer":0,"byteOffset":65184,"byteLength":18624},{"buffer":0,"byteOffset":83808,"byteLength":3774}],"buffers":[{"byteLength":87582,"uri":"data:application/octet-stream;base64,"}]}
