{"asset":{"generator":"Khronos glTF Blender I/O v1.2.75","version":"2.0"},"scene":0,"scenes":[{"name":"Scene","nodes":[0]}],"nodes":[{"mesh":0,"name":"Mesh"}],"meshes":[{"name":"SM_NeonSig03Merged01","primitives":[{"indices":5,"attributes":{"POSITION":0,"NORMAL":1,"TEXCOORD_0":2,"TEXCOORD_1":3,"TANGENT":4},"mode":4}]}],"accessors":[{"bufferView":0,"componentType":5126,"count":1012,"type":"VEC3","min":[-1.9098577880859375,-18.00001220703125,-0.00007171839941293001],"max":[0.09026080131530761,2.003199462890625,0.924156265258789]},{"bufferView":1,"componentType":5126,"count":1012,"type":"VEC3"},{"bufferView":2,"componentType":5126,"count":1012,"type":"VEC2"},{"bufferView":3,"componentType":5126,"count":1012,"type":"VEC2"},{"bufferView":4,"componentType":5126,"count":1012,"type":"VEC4"},{"bufferView":5,"componentType":5123,"count":2346,"type":"SCALAR"}],"bufferViews":[{"buffer":0,"byteOffset":0,"byteLength":12144},{"buffer":0,"byteOffset":12144,"byteLength":12144},{"buffer":0,"byteOffset":24288,"byteLength":8096},{"buffer":0,"byteOffset":32384,"byteLength":8096},{"buffer":0,"byteOffset":40480,"byteLength":16192},{"buffer":0,"byteOffset":56672,"byteLength":4692}],"buffers":[{"byteLength":61364,"uri":"data:application/octet-stream;base64,"}]}
