{"asset":{"generator":"Khronos glTF Blender I/O v1.2.75","version":"2.0"},"scene":0,"scenes":[{"name":"Scene","nodes":[0]}],"nodes":[{"mesh":0,"name":"Mesh"}],"meshes":[{"name":"SM_Pipe_G01","primitives":[{"indices":5,"attributes":{"POSITION":0,"NORMAL":1,"TEXCOORD_0":2,"TEXCOORD_1":3,"TANGENT":4},"mode":4}]}],"accessors":[{"bufferView":0,"componentType":5126,"count":5288,"type":"VEC3","min":[-0.500001220703125,-3.8,-1.232470703125],"max":[0.13246826171875,0.13246795654296875,2.632467041015625]},{"bufferView":1,"componentType":5126,"count":5288,"type":"VEC3"},{"bufferView":2,"componentType":5126,"count":5288,"type":"VEC2"},{"bufferView":3,"componentType":5126,"count":5288,"type":"VEC2"},{"bufferView":4,"componentType":5126,"count":5288,"type":"VEC4"},{"bufferView":5,"componentType":5123,"count":14448,"type":"SCALAR"}],"bufferViews":[{"buffer":0,"byteOffset":0,"byteLength":63456},{"buffer":0,"byteOffset":63456,"byteLength":63456},{"buffer":0,"byteOffset":126912,"byteLength":42304},{"buffer":0,"byteOffset":169216,"byteLength":42304},{"buffer":0,"byteOffset":211520,"byteLength":84608},{"buffer":0,"byteOffset":296128,"byteLength":28896}],"buffers":[{"byteLength":325024,"uri":"data:application/octet-stream;base64,"}]}
