{"asset":{"generator":"Khronos glTF Blender I/O v1.2.75","version":"2.0"},"scene":0,"scenes":[{"name":"Scene","nodes":[0]}],"nodes":[{"mesh":0,"name":"Mesh"}],"meshes":[{"name":"SM_PipeGroup26","primitives":[{"indices":5,"attributes":{"POSITION":0,"NORMAL":1,"TEXCOORD_0":2,"TEXCOORD_1":3,"TANGENT":4},"mode":4}]}],"accessors":[{"bufferView":0,"componentType":5126,"count":3100,"type":"VEC3","min":[-0.5503877258300781,-30.1731982421875,-0.0011391007900238036],"max":[0.5574390029907227,0.31369115829467775,10.363709716796874]},{"bufferView":1,"componentType":5126,"count":3100,"type":"VEC3"},{"bufferView":2,"componentType":5126,"count":3100,"type":"VEC2"},{"bufferView":3,"componentType":5126,"count":3100,"type":"VEC2"},{"bufferView":4,"componentType":5126,"count":3100,"type":"VEC4"},{"bufferView":5,"componentType":5123,"count":6480,"type":"SCALAR"}],"bufferViews":[{"buffer":0,"byteOffset":0,"byteLength":37200},{"buffer":0,"byteOffset":37200,"byteLength":37200},{"buffer":0,"byteOffset":74400,"byteLength":24800},{"buffer":0,"byteOffset":99200,"byteLength":24800},{"buffer":0,"byteOffset":124000,"byteLength":49600},{"buffer":0,"byteOffset":173600,"byteLength":12960}],"buffers":[{"byteLength":186560,"uri":"data:application/octet-stream;base64,"}]}
