{"asset":{"generator":"Khronos glTF Blender I/O v1.2.75","version":"2.0"},"scene":0,"scenes":[{"name":"Scene","nodes":[0]}],"nodes":[{"mesh":0,"name":"Mesh"}],"meshes":[{"name":"SM_Fence_03","primitives":[{"indices":6,"attributes":{"POSITION":0,"NORMAL":1,"COLOR_0":2,"TEXCOORD_0":3,"TEXCOORD_1":4,"TANGENT":5},"mode":4},{"indices":13,"attributes":{"POSITION":7,"NORMAL":8,"COLOR_0":9,"TEXCOORD_0":10,"TEXCOORD_1":11,"TANGENT":12},"mode":4}]}],"accessors":[{"bufferView":0,"componentType":5126,"count":646,"type":"VEC3","min":[-1.35471923828125,-0.024969701766967774,-0.16227027893066406],"max":[0.15540865898132325,1.1307139587402344,1.3652920532226562]},{"bufferView":1,"componentType":5126,"count":646,"type":"VEC3"},{"bufferView":2,"componentType":5126,"count":662,"type":"VEC4"},{"bufferView":3,"componentType":5126,"count":646,"type":"VEC2"},{"bufferView":4,"componentType":5126,"count":646,"type":"VEC2"},{"bufferView":5,"componentType":5126,"count":646,"type":"VEC4"},{"bufferView":6,"componentType":5123,"count":1254,"type":"SCALAR"},{"bufferView":7,"componentType":5126,"count":16,"type":"VEC3","min":[-1.35471923828125,-0.024969701766967774,-0.16227027893066406],"max":[0.15540865898132325,1.1307139587402344,1.3652920532226562]},{"bufferView":8,"componentType":5126,"count":16,"type":"VEC3"},{"bufferView":9,"componentType":5126,"count":662,"type":"VEC4"},{"bufferView":10,"componentType":5126,"count":16,"type":"VEC2"},{"bufferView":11,"componentType":5126,"count":16,"type":"VEC2"},{"bufferView":12,"componentType":5126,"count":16,"type":"VEC4"},{"bufferView":13,"componentType":5123,"count":24,"type":"SCALAR"}],"bufferViews":[{"buffer":0,"byteOffset":0,"byteLength":7752},{"buffer":0,"byteOffset":7752,"byteLength":7752},{"buffer":0,"byteOffset":15504,"byteLength":10592},{"buffer":0,"byteOffset":26096,"byteLength":5168},{"buffer":0,"byteOffset":31264,"byteLength":5168},{"buffer":0,"byteOffset":36432,"byteLength":10336},{"buffer":0,"byteOffset":46768,"byteLength":2508},{"buffer":1,"byteOffset":0,"byteLength":192},{"buffer":1,"byteOffset":192,"byteLength":192},{"buffer":1,"byteOffset":384,"byteLength":10592},{"buffer":1,"byteOffset":10976,"byteLength":128},{"buffer":1,"byteOffset":11104,"byteLength":128},{"buffer":1,"byteOffset":11232,"byteLength":256},{"buffer":1,"byteOffset":11488,"byteLength":48}],"buffers":[{"byteLength":49276,"uri":"data:application/octet-stream;base64,"},{"byteLength":11536,"uri":"data:application/octet-stream;base64,"}]}
