{"asset":{"generator":"Khronos glTF Blender I/O v1.2.75","version":"2.0"},"scene":0,"scenes":[{"name":"Scene","nodes":[0]}],"nodes":[{"mesh":0,"name":"Mesh"}],"meshes":[{"name":"SM_Fence_03","primitives":[{"indices":6,"attributes":{"POSITION":0,"NORMAL":1,"COLOR_0":2,"TEXCOORD_0":3,"TEXCOORD_1":4,"TANGENT":5},"mode":4},{"indices":13,"attributes":{"POSITION":7,"NORMAL":8,"COLOR_0":9,"TEXCOORD_0":10,"TEXCOORD_1":11,"TANGENT":12},"mode":4}]}],"accessors":[{"bufferView":0,"componentType":5126,"count":212,"type":"VEC3","min":[-1.35471923828125,-0.024969701766967774,-0.16227027893066406],"max":[0.15540865898132325,1.1307139587402344,1.3652920532226562]},{"bufferView":1,"componentType":5126,"count":212,"type":"VEC3"},{"bufferView":2,"componentType":5126,"count":228,"type":"VEC4"},{"bufferView":3,"componentType":5126,"count":212,"type":"VEC2"},{"bufferView":4,"componentType":5126,"count":212,"type":"VEC2"},{"bufferView":5,"componentType":5126,"count":212,"type":"VEC4"},{"bufferView":6,"componentType":5123,"count":294,"type":"SCALAR"},{"bufferView":7,"componentType":5126,"count":16,"type":"VEC3","min":[-1.35471923828125,-0.024969701766967774,-0.16227027893066406],"max":[0.15540865898132325,1.1307139587402344,1.3652920532226562]},{"bufferView":8,"componentType":5126,"count":16,"type":"VEC3"},{"bufferView":9,"componentType":5126,"count":228,"type":"VEC4"},{"bufferView":10,"componentType":5126,"count":16,"type":"VEC2"},{"bufferView":11,"componentType":5126,"count":16,"type":"VEC2"},{"bufferView":12,"componentType":5126,"count":16,"type":"VEC4"},{"bufferView":13,"componentType":5123,"count":24,"type":"SCALAR"}],"bufferViews":[{"buffer":0,"byteOffset":0,"byteLength":2544},{"buffer":0,"byteOffset":2544,"byteLength":2544},{"buffer":0,"byteOffset":5088,"byteLength":3648},{"buffer":0,"byteOffset":8736,"byteLength":1696},{"buffer":0,"byteOffset":10432,"byteLength":1696},{"buffer":0,"byteOffset":12128,"byteLength":3392},{"buffer":0,"byteOffset":15520,"byteLength":588},{"buffer":1,"byteOffset":0,"byteLength":192},{"buffer":1,"byteOffset":192,"byteLength":192},{"buffer":1,"byteOffset":384,"byteLength":3648},{"buffer":1,"byteOffset":4032,"byteLength":128},{"buffer":1,"byteOffset":4160,"byteLength":128},{"buffer":1,"byteOffset":4288,"byteLength":256},{"buffer":1,"byteOffset":4544,"byteLength":48}],"buffers":[{"byteLength":16108,"uri":"data:application/octet-stream;base64,"},{"byteLength":4592,"uri":"data:application/octet-stream;base64,"}]}
