{"asset":{"generator":"Khronos glTF Blender I/O v1.2.75","version":"2.0"},"scene":0,"scenes":[{"name":"Scene","nodes":[0]}],"nodes":[{"mesh":0,"name":"Mesh"}],"meshes":[{"name":"SM_Fence_03","primitives":[{"indices":6,"attributes":{"POSITION":0,"NORMAL":1,"COLOR_0":2,"TEXCOORD_0":3,"TEXCOORD_1":4,"TANGENT":5},"mode":4},{"indices":13,"attributes":{"POSITION":7,"NORMAL":8,"COLOR_0":9,"TEXCOORD_0":10,"TEXCOORD_1":11,"TANGENT":12},"mode":4}]}],"accessors":[{"bufferView":0,"componentType":5126,"count":328,"type":"VEC3","min":[-1.35471923828125,-0.024969701766967774,-0.16227027893066406],"max":[0.15540865898132325,1.1307139587402344,1.3652920532226562]},{"bufferView":1,"componentType":5126,"count":328,"type":"VEC3"},{"bufferView":2,"componentType":5126,"count":344,"type":"VEC4"},{"bufferView":3,"componentType":5126,"count":328,"type":"VEC2"},{"bufferView":4,"componentType":5126,"count":328,"type":"VEC2"},{"bufferView":5,"componentType":5126,"count":328,"type":"VEC4"},{"bufferView":6,"componentType":5123,"count":486,"type":"SCALAR"},{"bufferView":7,"componentType":5126,"count":16,"type":"VEC3","min":[-1.35471923828125,-0.024969701766967774,-0.16227027893066406],"max":[0.15540865898132325,1.1307139587402344,1.3652920532226562]},{"bufferView":8,"componentType":5126,"count":16,"type":"VEC3"},{"bufferView":9,"componentType":5126,"count":344,"type":"VEC4"},{"bufferView":10,"componentType":5126,"count":16,"type":"VEC2"},{"bufferView":11,"componentType":5126,"count":16,"type":"VEC2"},{"bufferView":12,"componentType":5126,"count":16,"type":"VEC4"},{"bufferView":13,"componentType":5123,"count":24,"type":"SCALAR"}],"bufferViews":[{"buffer":0,"byteOffset":0,"byteLength":3936},{"buffer":0,"byteOffset":3936,"byteLength":3936},{"buffer":0,"byteOffset":7872,"byteLength":5504},{"buffer":0,"byteOffset":13376,"byteLength":2624},{"buffer":0,"byteOffset":16000,"byteLength":2624},{"buffer":0,"byteOffset":18624,"byteLength":5248},{"buffer":0,"byteOffset":23872,"byteLength":972},{"buffer":1,"byteOffset":0,"byteLength":192},{"buffer":1,"byteOffset":192,"byteLength":192},{"buffer":1,"byteOffset":384,"byteLength":5504},{"buffer":1,"byteOffset":5888,"byteLength":128},{"buffer":1,"byteOffset":6016,"byteLength":128},{"buffer":1,"byteOffset":6144,"byteLength":256},{"buffer":1,"byteOffset":6400,"byteLength":48}],"buffers":[{"byteLength":24844,"uri":"data:application/octet-stream;base64,"},{"byteLength":6448,"uri":"data:application/octet-stream;base64,"}]}
