{"asset":{"generator":"Khronos glTF Blender I/O v1.2.75","version":"2.0"},"scene":0,"scenes":[{"name":"Scene","nodes":[0]}],"nodes":[{"mesh":0,"name":"Mesh"}],"meshes":[{"name":"SM_Fence06","primitives":[{"indices":6,"attributes":{"POSITION":0,"NORMAL":1,"COLOR_0":2,"TEXCOORD_0":3,"TEXCOORD_1":4,"TANGENT":5},"mode":4},{"indices":13,"attributes":{"POSITION":7,"NORMAL":8,"COLOR_0":9,"TEXCOORD_0":10,"TEXCOORD_1":11,"TANGENT":12},"mode":4}]}],"accessors":[{"bufferView":0,"componentType":5126,"count":196,"type":"VEC3","min":[-0.010487300157546998,-0.0285469913482666,-0.18454435348510742],"max":[1.4273204040527343,1.8516673278808593,0.018227925300598146]},{"bufferView":1,"componentType":5126,"count":196,"type":"VEC3"},{"bufferView":2,"componentType":5126,"count":212,"type":"VEC4"},{"bufferView":3,"componentType":5126,"count":196,"type":"VEC2"},{"bufferView":4,"componentType":5126,"count":196,"type":"VEC2"},{"bufferView":5,"componentType":5126,"count":196,"type":"VEC4"},{"bufferView":6,"componentType":5123,"count":276,"type":"SCALAR"},{"bufferView":7,"componentType":5126,"count":16,"type":"VEC3","min":[-0.010487300157546998,-0.0285469913482666,-0.18454435348510742],"max":[1.4273204040527343,1.8516673278808593,0.018227925300598146]},{"bufferView":8,"componentType":5126,"count":16,"type":"VEC3"},{"bufferView":9,"componentType":5126,"count":212,"type":"VEC4"},{"bufferView":10,"componentType":5126,"count":16,"type":"VEC2"},{"bufferView":11,"componentType":5126,"count":16,"type":"VEC2"},{"bufferView":12,"componentType":5126,"count":16,"type":"VEC4"},{"bufferView":13,"componentType":5123,"count":24,"type":"SCALAR"}],"bufferViews":[{"buffer":0,"byteOffset":0,"byteLength":2352},{"buffer":0,"byteOffset":2352,"byteLength":2352},{"buffer":0,"byteOffset":4704,"byteLength":3392},{"buffer":0,"byteOffset":8096,"byteLength":1568},{"buffer":0,"byteOffset":9664,"byteLength":1568},{"buffer":0,"byteOffset":11232,"byteLength":3136},{"buffer":0,"byteOffset":14368,"byteLength":552},{"buffer":1,"byteOffset":0,"byteLength":192},{"buffer":1,"byteOffset":192,"byteLength":192},{"buffer":1,"byteOffset":384,"byteLength":3392},{"buffer":1,"byteOffset":3776,"byteLength":128},{"buffer":1,"byteOffset":3904,"byteLength":128},{"buffer":1,"byteOffset":4032,"byteLength":256},{"buffer":1,"byteOffset":4288,"byteLength":48}],"buffers":[{"byteLength":14920,"uri":"data:application/octet-stream;base64,"},{"byteLength":4336,"uri":"data:application/octet-stream;base64,"}]}
