{
    "asset" : {
        "generator" : "Khronos glTF Blender I/O v3.5.5",
        "version" : "2.0"
    },
    "scene" : 0,
    "scenes" : [
        {
            "name" : "Scene",
            "nodes" : [
                0
            ]
        }
    ],
    "nodes" : [
        {
            "mesh" : 0,
            "name" : "obj_grenade_1_cc",
            "rotation" : [
                0,
                -1,
                0,
                4.371138828673793e-08
            ],
            "translation" : [
                0.10915633291006088,
                0,
                0
            ]
        }
    ],
    "materials" : [
        {
            "doubleSided" : true,
            "name" : "mat_grenade_1_cc",
            "normalTexture" : {
                "index" : 0
            },
            "pbrMetallicRoughness" : {
                "baseColorTexture" : {
                    "index" : 1
                },
                "metallicFactor" : 0,
                "metallicRoughnessTexture" : {
                    "index" : 2
                }
            }
        }
    ],
    "meshes" : [
        {
            "name" : "mesh_grenade_1_cc",
            "primitives" : [
                {
                    "attributes" : {
                        "POSITION" : 0,
                        "TEXCOORD_0" : 1,
                        "NORMAL" : 2
                    },
                    "indices" : 3,
                    "material" : 0
                }
            ]
        }
    ],
    "textures" : [
        {
            "sampler" : 0,
            "source" : 0
        },
        {
            "sampler" : 0,
            "source" : 1
        },
        {
            "sampler" : 0,
            "source" : 2
        }
    ],
    "images" : [
        {
            "mimeType" : "image/png",
            "name" : "Scene_-_Root_normal",
            "uri" : "Scene_-_Root_normal.png"
        },
        {
            "mimeType" : "image/png",
            "name" : "Scene_-_Root_baseColor",
            "uri" : "Scene_-_Root_baseColor.png"
        },
        {
            "mimeType" : "image/png",
            "name" : "Scene_-_Root_metallicRoughness",
            "uri" : "Scene_-_Root_metallicRoughness.png"
        }
    ],
    "accessors" : [
        {
            "bufferView" : 0,
            "componentType" : 5126,
            "count" : 2309,
            "max" : [
                0.03021216206252575,
                0.11298096925020218,
                0.019506337121129036
            ],
            "min" : [
                -0.01954890601336956,
                0.00020310442778281868,
                -0.019531818106770515
            ],
            "type" : "VEC3"
        },
        {
            "bufferView" : 1,
            "componentType" : 5126,
            "count" : 2309,
            "type" : "VEC2"
        },
        {
            "bufferView" : 2,
            "componentType" : 5126,
            "count" : 2309,
            "type" : "VEC3"
        },
        {
            "bufferView" : 3,
            "componentType" : 5123,
            "count" : 4206,
            "type" : "SCALAR"
        }
    ],
    "bufferViews" : [
        {
            "buffer" : 0,
            "byteLength" : 27708,
            "byteOffset" : 0,
            "target" : 34962
        },
        {
            "buffer" : 0,
            "byteLength" : 18472,
            "byteOffset" : 27708,
            "target" : 34962
        },
        {
            "buffer" : 0,
            "byteLength" : 27708,
            "byteOffset" : 46180,
            "target" : 34962
        },
        {
            "buffer" : 0,
            "byteLength" : 8412,
            "byteOffset" : 73888,
            "target" : 34963
        }
    ],
    "samplers" : [
        {
            "magFilter" : 9729,
            "minFilter" : 9987
        }
    ],
    "buffers" : [
        {
            "byteLength" : 82300,
            "uri" : "obj_grenade_1_cc.bin"
        }
    ]
}
