{"asset":{"generator":"Khronos glTF Blender I/O v1.2.75","version":"2.0"},"scene":0,"scenes":[{"name":"Scene","nodes":[0]}],"nodes":[{"mesh":0,"name":"Mesh"}],"meshes":[{"name":"SM_PlatformRailing_05","primitives":[{"indices":6,"attributes":{"POSITION":0,"NORMAL":1,"COLOR_0":2,"TEXCOORD_0":3,"TEXCOORD_1":4,"TANGENT":5},"mode":4}]}],"accessors":[{"bufferView":0,"componentType":5126,"count":198,"type":"VEC3","min":[-0.043137497901916504,7.361799362115562e-8,-0.057059917449951175],"max":[0.043137426376342776,1.2747242736816407,0.057060012817382814]},{"bufferView":1,"componentType":5126,"count":198,"type":"VEC3"},{"bufferView":2,"componentType":5126,"count":198,"type":"VEC4"},{"bufferView":3,"componentType":5126,"count":198,"type":"VEC2"},{"bufferView":4,"componentType":5126,"count":198,"type":"VEC2"},{"bufferView":5,"componentType":5126,"count":198,"type":"VEC4"},{"bufferView":6,"componentType":5123,"count":564,"type":"SCALAR"}],"bufferViews":[{"buffer":0,"byteOffset":0,"byteLength":2376},{"buffer":0,"byteOffset":2376,"byteLength":2376},{"buffer":0,"byteOffset":4752,"byteLength":3168},{"buffer":0,"byteOffset":7920,"byteLength":1584},{"buffer":0,"byteOffset":9504,"byteLength":1584},{"buffer":0,"byteOffset":11088,"byteLength":3168},{"buffer":0,"byteOffset":14256,"byteLength":1128}],"buffers":[{"byteLength":15384,"uri":"data:application/octet-stream;base64,"}]}
