{"asset":{"generator":"Khronos glTF Blender I/O v1.2.75","version":"2.0"},"scene":0,"scenes":[{"name":"Scene","nodes":[0]}],"nodes":[{"mesh":0,"name":"Mesh"}],"meshes":[{"name":"SM_FencePart_01","primitives":[{"indices":6,"attributes":{"POSITION":0,"NORMAL":1,"COLOR_0":2,"TEXCOORD_0":3,"TEXCOORD_1":4,"TANGENT":5},"mode":4}]}],"accessors":[{"bufferView":0,"componentType":5126,"count":370,"type":"VEC3","min":[-0.08126866340637207,-0.014806782007217406,-0.04050163269042969],"max":[0.08303363800048828,1.1338349151611329,0.15540894508361816]},{"bufferView":1,"componentType":5126,"count":370,"type":"VEC3"},{"bufferView":2,"componentType":5126,"count":370,"type":"VEC4"},{"bufferView":3,"componentType":5126,"count":370,"type":"VEC2"},{"bufferView":4,"componentType":5126,"count":370,"type":"VEC2"},{"bufferView":5,"componentType":5126,"count":370,"type":"VEC4"},{"bufferView":6,"componentType":5123,"count":828,"type":"SCALAR"}],"bufferViews":[{"buffer":0,"byteOffset":0,"byteLength":4440},{"buffer":0,"byteOffset":4440,"byteLength":4440},{"buffer":0,"byteOffset":8880,"byteLength":5920},{"buffer":0,"byteOffset":14800,"byteLength":2960},{"buffer":0,"byteOffset":17760,"byteLength":2960},{"buffer":0,"byteOffset":20720,"byteLength":5920},{"buffer":0,"byteOffset":26640,"byteLength":1656}],"buffers":[{"byteLength":28296,"uri":"data:application/octet-stream;base64,"}]}
