{"asset":{"generator":"Khronos glTF Blender I/O v1.2.75","version":"2.0"},"scene":0,"scenes":[{"name":"Scene","nodes":[0]}],"nodes":[{"mesh":0,"name":"Mesh"}],"meshes":[{"name":"HotelChina01","primitives":[{"indices":5,"attributes":{"POSITION":0,"NORMAL":1,"TEXCOORD_0":2,"TEXCOORD_1":3,"TANGENT":4},"mode":4}]}],"accessors":[{"bufferView":0,"componentType":5126,"count":847,"type":"VEC3","min":[-0.7119375610351563,-1.0319142150878906,-0.08996373176574707],"max":[0,1.0319142150878906,0.11449165344238281]},{"bufferView":1,"componentType":5126,"count":847,"type":"VEC3"},{"bufferView":2,"componentType":5126,"count":847,"type":"VEC2"},{"bufferView":3,"componentType":5126,"count":847,"type":"VEC2"},{"bufferView":4,"componentType":5126,"count":847,"type":"VEC4"},{"bufferView":5,"componentType":5123,"count":1119,"type":"SCALAR"}],"bufferViews":[{"buffer":0,"byteOffset":0,"byteLength":10164},{"buffer":0,"byteOffset":10164,"byteLength":10164},{"buffer":0,"byteOffset":20328,"byteLength":6776},{"buffer":0,"byteOffset":27104,"byteLength":6776},{"buffer":0,"byteOffset":33880,"byteLength":13552},{"buffer":0,"byteOffset":47432,"byteLength":2238}],"buffers":[{"byteLength":49670,"uri":"data:application/octet-stream;base64,"}]}
