{"asset":{"generator":"Khronos glTF Blender I/O v1.2.75","version":"2.0"},"scene":0,"scenes":[{"name":"Scene","nodes":[0]}],"nodes":[{"mesh":0,"name":"Mesh"}],"meshes":[{"name":"SM_BatLoad","primitives":[{"indices":5,"attributes":{"POSITION":0,"NORMAL":1,"TEXCOORD_0":2,"TEXCOORD_1":3,"TANGENT":4},"mode":4}]}],"accessors":[{"bufferView":0,"componentType":5126,"count":814,"type":"VEC3","min":[0,-1.4662861758552026e-7,-0.9],"max":[0.5005839157104492,1.9002189636230469,0.9000003051757812]},{"bufferView":1,"componentType":5126,"count":814,"type":"VEC3"},{"bufferView":2,"componentType":5126,"count":814,"type":"VEC2"},{"bufferView":3,"componentType":5126,"count":814,"type":"VEC2"},{"bufferView":4,"componentType":5126,"count":814,"type":"VEC4"},{"bufferView":5,"componentType":5123,"count":1572,"type":"SCALAR"}],"bufferViews":[{"buffer":0,"byteOffset":0,"byteLength":9768},{"buffer":0,"byteOffset":9768,"byteLength":9768},{"buffer":0,"byteOffset":19536,"byteLength":6512},{"buffer":0,"byteOffset":26048,"byteLength":6512},{"buffer":0,"byteOffset":32560,"byteLength":13024},{"buffer":0,"byteOffset":45584,"byteLength":3144}],"buffers":[{"byteLength":48728,"uri":"data:application/octet-stream;base64,"}]}
