{"asset":{"generator":"Khronos glTF Blender I/O v1.2.75","version":"2.0"},"scene":0,"scenes":[{"name":"Scene","nodes":[0]}],"nodes":[{"mesh":0,"name":"Mesh"}],"meshes":[{"name":"SM_BatLoad","primitives":[{"indices":5,"attributes":{"POSITION":0,"NORMAL":1,"TEXCOORD_0":2,"TEXCOORD_1":3,"TANGENT":4},"mode":4}]}],"accessors":[{"bufferView":0,"componentType":5126,"count":2424,"type":"VEC3","min":[0,-1.4662861758552026e-7,-0.9],"max":[0.5005839157104492,1.9002189636230469,0.9000003051757812]},{"bufferView":1,"componentType":5126,"count":2424,"type":"VEC3"},{"bufferView":2,"componentType":5126,"count":2424,"type":"VEC2"},{"bufferView":3,"componentType":5126,"count":2424,"type":"VEC2"},{"bufferView":4,"componentType":5126,"count":2424,"type":"VEC4"},{"bufferView":5,"componentType":5123,"count":6282,"type":"SCALAR"}],"bufferViews":[{"buffer":0,"byteOffset":0,"byteLength":29088},{"buffer":0,"byteOffset":29088,"byteLength":29088},{"buffer":0,"byteOffset":58176,"byteLength":19392},{"buffer":0,"byteOffset":77568,"byteLength":19392},{"buffer":0,"byteOffset":96960,"byteLength":38784},{"buffer":0,"byteOffset":135744,"byteLength":12564}],"buffers":[{"byteLength":148308,"uri":"data:application/octet-stream;base64,"}]}
