{"asset":{"generator":"Khronos glTF Blender I/O v1.2.75","version":"2.0"},"scene":0,"scenes":[{"name":"Scene","nodes":[0]}],"nodes":[{"mesh":0,"name":"Mesh"}],"meshes":[{"name":"SM_BatLoad","primitives":[{"indices":5,"attributes":{"POSITION":0,"NORMAL":1,"TEXCOORD_0":2,"TEXCOORD_1":3,"TANGENT":4},"mode":4}]}],"accessors":[{"bufferView":0,"componentType":5126,"count":1368,"type":"VEC3","min":[0,-1.4662861758552026e-7,-0.9],"max":[0.5005839157104492,1.9002189636230469,0.9000003051757812]},{"bufferView":1,"componentType":5126,"count":1368,"type":"VEC3"},{"bufferView":2,"componentType":5126,"count":1368,"type":"VEC2"},{"bufferView":3,"componentType":5126,"count":1368,"type":"VEC2"},{"bufferView":4,"componentType":5126,"count":1368,"type":"VEC4"},{"bufferView":5,"componentType":5123,"count":3138,"type":"SCALAR"}],"bufferViews":[{"buffer":0,"byteOffset":0,"byteLength":16416},{"buffer":0,"byteOffset":16416,"byteLength":16416},{"buffer":0,"byteOffset":32832,"byteLength":10944},{"buffer":0,"byteOffset":43776,"byteLength":10944},{"buffer":0,"byteOffset":54720,"byteLength":21888},{"buffer":0,"byteOffset":76608,"byteLength":6276}],"buffers":[{"byteLength":82884,"uri":"data:application/octet-stream;base64,"}]}
