{"asset":{"generator":"Khronos glTF Blender I/O v1.2.75","version":"2.0"},"scene":0,"scenes":[{"name":"Scene","nodes":[0]}],"nodes":[{"mesh":0,"name":"Mesh"}],"meshes":[{"name":"SM_Window01","primitives":[{"indices":5,"attributes":{"POSITION":0,"NORMAL":1,"TEXCOORD_0":2,"TEXCOORD_1":3,"TANGENT":4},"mode":4}]}],"accessors":[{"bufferView":0,"componentType":5126,"count":486,"type":"VEC3","min":[-5.20541259765625,-0.00181976318359375,-0.462850341796875],"max":[0,2.87287841796875,0.0044677734375]},{"bufferView":1,"componentType":5126,"count":486,"type":"VEC3"},{"bufferView":2,"componentType":5126,"count":486,"type":"VEC2"},{"bufferView":3,"componentType":5126,"count":486,"type":"VEC2"},{"bufferView":4,"componentType":5126,"count":486,"type":"VEC4"},{"bufferView":5,"componentType":5123,"count":1170,"type":"SCALAR"}],"bufferViews":[{"buffer":0,"byteOffset":0,"byteLength":5832},{"buffer":0,"byteOffset":5832,"byteLength":5832},{"buffer":0,"byteOffset":11664,"byteLength":3888},{"buffer":0,"byteOffset":15552,"byteLength":3888},{"buffer":0,"byteOffset":19440,"byteLength":7776},{"buffer":0,"byteOffset":27216,"byteLength":2340}],"buffers":[{"byteLength":29556,"uri":"data:application/octet-stream;base64,"}]}
