{"asset":{"generator":"Khronos glTF Blender I/O v1.2.75","version":"2.0"},"scene":0,"scenes":[{"name":"Scene","nodes":[0]}],"nodes":[{"mesh":0,"name":"Mesh"}],"meshes":[{"name":"Play_Signboard_03","primitives":[{"indices":5,"attributes":{"POSITION":0,"NORMAL":1,"TEXCOORD_0":2,"TEXCOORD_1":3,"TANGENT":4},"mode":4}]}],"accessors":[{"bufferView":0,"componentType":5126,"count":279,"type":"VEC3","min":[-1.0119231414794922,-0.24861730575561525,-1.7763568394002505e-17],"max":[1.0042631530761719,0.25654701232910154,0.17814619064331055]},{"bufferView":1,"componentType":5126,"count":279,"type":"VEC3"},{"bufferView":2,"componentType":5126,"count":279,"type":"VEC2"},{"bufferView":3,"componentType":5126,"count":279,"type":"VEC2"},{"bufferView":4,"componentType":5126,"count":279,"type":"VEC4"},{"bufferView":5,"componentType":5123,"count":750,"type":"SCALAR"}],"bufferViews":[{"buffer":0,"byteOffset":0,"byteLength":3348},{"buffer":0,"byteOffset":3348,"byteLength":3348},{"buffer":0,"byteOffset":6696,"byteLength":2232},{"buffer":0,"byteOffset":8928,"byteLength":2232},{"buffer":0,"byteOffset":11160,"byteLength":4464},{"buffer":0,"byteOffset":15624,"byteLength":1500}],"buffers":[{"byteLength":17124,"uri":"data:application/octet-stream;base64,"}]}
