{"asset":{"generator":"Khronos glTF Blender I/O v1.2.75","version":"2.0"},"scene":0,"scenes":[{"name":"Scene","nodes":[0]}],"nodes":[{"mesh":0,"name":"Mesh"}],"meshes":[{"name":"Play_Signboard_03","primitives":[{"indices":5,"attributes":{"POSITION":0,"NORMAL":1,"TEXCOORD_0":2,"TEXCOORD_1":3,"TANGENT":4},"mode":4}]}],"accessors":[{"bufferView":0,"componentType":5126,"count":757,"type":"VEC3","min":[-1.0119231414794922,-0.24861730575561525,-1.7763568394002505e-17],"max":[1.0042631530761719,0.25654701232910154,0.17814619064331055]},{"bufferView":1,"componentType":5126,"count":757,"type":"VEC3"},{"bufferView":2,"componentType":5126,"count":757,"type":"VEC2"},{"bufferView":3,"componentType":5126,"count":757,"type":"VEC2"},{"bufferView":4,"componentType":5126,"count":757,"type":"VEC4"},{"bufferView":5,"componentType":5123,"count":3000,"type":"SCALAR"}],"bufferViews":[{"buffer":0,"byteOffset":0,"byteLength":9084},{"buffer":0,"byteOffset":9084,"byteLength":9084},{"buffer":0,"byteOffset":18168,"byteLength":6056},{"buffer":0,"byteOffset":24224,"byteLength":6056},{"buffer":0,"byteOffset":30280,"byteLength":12112},{"buffer":0,"byteOffset":42392,"byteLength":6000}],"buffers":[{"byteLength":48392,"uri":"data:application/octet-stream;base64,"}]}
