{"asset":{"generator":"Khronos glTF Blender I/O v1.2.75","version":"2.0"},"scene":0,"scenes":[{"name":"Scene","nodes":[0]}],"nodes":[{"mesh":0,"name":"Mesh"}],"meshes":[{"name":"SM_Cable_G02","primitives":[{"indices":5,"attributes":{"POSITION":0,"NORMAL":1,"TEXCOORD_0":2,"TEXCOORD_1":3,"TANGENT":4},"mode":4}]}],"accessors":[{"bufferView":0,"componentType":5126,"count":3612,"type":"VEC3","min":[-0.001030179187655449,-3.000028076171875,-0.5000477981567383],"max":[0.059452900886535646,0.2874324035644531,4.939586181640625]},{"bufferView":1,"componentType":5126,"count":3612,"type":"VEC3"},{"bufferView":2,"componentType":5126,"count":3612,"type":"VEC2"},{"bufferView":3,"componentType":5126,"count":3612,"type":"VEC2"},{"bufferView":4,"componentType":5126,"count":3612,"type":"VEC4"},{"bufferView":5,"componentType":5123,"count":5967,"type":"SCALAR"}],"bufferViews":[{"buffer":0,"byteOffset":0,"byteLength":43344},{"buffer":0,"byteOffset":43344,"byteLength":43344},{"buffer":0,"byteOffset":86688,"byteLength":28896},{"buffer":0,"byteOffset":115584,"byteLength":28896},{"buffer":0,"byteOffset":144480,"byteLength":57792},{"buffer":0,"byteOffset":202272,"byteLength":11934}],"buffers":[{"byteLength":214206,"uri":"data:application/octet-stream;base64,"}]}
