{"asset":{"generator":"Khronos glTF Blender I/O v1.2.75","version":"2.0"},"scene":0,"scenes":[{"name":"Scene","nodes":[0]}],"nodes":[{"mesh":0,"name":"Mesh"}],"meshes":[{"name":"SM_Cable_G02","primitives":[{"indices":5,"attributes":{"POSITION":0,"NORMAL":1,"TEXCOORD_0":2,"TEXCOORD_1":3,"TANGENT":4},"mode":4}]}],"accessors":[{"bufferView":0,"componentType":5126,"count":6136,"type":"VEC3","min":[-0.001030179187655449,-3.000028076171875,-0.5000477981567383],"max":[0.059452900886535646,0.2874324035644531,4.939586181640625]},{"bufferView":1,"componentType":5126,"count":6136,"type":"VEC3"},{"bufferView":2,"componentType":5126,"count":6136,"type":"VEC2"},{"bufferView":3,"componentType":5126,"count":6136,"type":"VEC2"},{"bufferView":4,"componentType":5126,"count":6136,"type":"VEC4"},{"bufferView":5,"componentType":5123,"count":11931,"type":"SCALAR"}],"bufferViews":[{"buffer":0,"byteOffset":0,"byteLength":73632},{"buffer":0,"byteOffset":73632,"byteLength":73632},{"buffer":0,"byteOffset":147264,"byteLength":49088},{"buffer":0,"byteOffset":196352,"byteLength":49088},{"buffer":0,"byteOffset":245440,"byteLength":98176},{"buffer":0,"byteOffset":343616,"byteLength":23862}],"buffers":[{"byteLength":367478,"uri":"data:application/octet-stream;base64,"}]}
