{"asset":{"generator":"Khronos glTF Blender I/O v1.2.75","version":"2.0"},"scene":0,"scenes":[{"name":"Scene","nodes":[0]}],"nodes":[{"mesh":0,"name":"Mesh"}],"meshes":[{"name":"SM_Fence07","primitives":[{"indices":6,"attributes":{"POSITION":0,"NORMAL":1,"COLOR_0":2,"TEXCOORD_0":3,"TEXCOORD_1":4,"TANGENT":5},"mode":4},{"indices":13,"attributes":{"POSITION":7,"NORMAL":8,"COLOR_0":9,"TEXCOORD_0":10,"TEXCOORD_1":11,"TANGENT":12},"mode":4}]}],"accessors":[{"bufferView":0,"componentType":5126,"count":296,"type":"VEC3","min":[-1.2822299194335938,-0.6185652923583984,-0.18454435348510742],"max":[0.15381475448608398,1.1325585174560546,0.018227925300598146]},{"bufferView":1,"componentType":5126,"count":296,"type":"VEC3"},{"bufferView":2,"componentType":5126,"count":312,"type":"VEC4"},{"bufferView":3,"componentType":5126,"count":296,"type":"VEC2"},{"bufferView":4,"componentType":5126,"count":296,"type":"VEC2"},{"bufferView":5,"componentType":5126,"count":296,"type":"VEC4"},{"bufferView":6,"componentType":5123,"count":474,"type":"SCALAR"},{"bufferView":7,"componentType":5126,"count":16,"type":"VEC3","min":[-1.2822299194335938,-0.6185652923583984,-0.18454435348510742],"max":[0.15381475448608398,1.1325585174560546,0.018227925300598146]},{"bufferView":8,"componentType":5126,"count":16,"type":"VEC3"},{"bufferView":9,"componentType":5126,"count":312,"type":"VEC4"},{"bufferView":10,"componentType":5126,"count":16,"type":"VEC2"},{"bufferView":11,"componentType":5126,"count":16,"type":"VEC2"},{"bufferView":12,"componentType":5126,"count":16,"type":"VEC4"},{"bufferView":13,"componentType":5123,"count":24,"type":"SCALAR"}],"bufferViews":[{"buffer":0,"byteOffset":0,"byteLength":3552},{"buffer":0,"byteOffset":3552,"byteLength":3552},{"buffer":0,"byteOffset":7104,"byteLength":4992},{"buffer":0,"byteOffset":12096,"byteLength":2368},{"buffer":0,"byteOffset":14464,"byteLength":2368},{"buffer":0,"byteOffset":16832,"byteLength":4736},{"buffer":0,"byteOffset":21568,"byteLength":948},{"buffer":1,"byteOffset":0,"byteLength":192},{"buffer":1,"byteOffset":192,"byteLength":192},{"buffer":1,"byteOffset":384,"byteLength":4992},{"buffer":1,"byteOffset":5376,"byteLength":128},{"buffer":1,"byteOffset":5504,"byteLength":128},{"buffer":1,"byteOffset":5632,"byteLength":256},{"buffer":1,"byteOffset":5888,"byteLength":48}],"buffers":[{"byteLength":22516,"uri":"data:application/octet-stream;base64,"},{"byteLength":5936,"uri":"data:application/octet-stream;base64,"}]}
