{"asset":{"generator":"Khronos glTF Blender I/O v1.2.75","version":"2.0"},"scene":0,"scenes":[{"name":"Scene","nodes":[0]}],"nodes":[{"mesh":0,"name":"Mesh"}],"meshes":[{"name":"SM_Fence07","primitives":[{"indices":6,"attributes":{"POSITION":0,"NORMAL":1,"COLOR_0":2,"TEXCOORD_0":3,"TEXCOORD_1":4,"TANGENT":5},"mode":4},{"indices":13,"attributes":{"POSITION":7,"NORMAL":8,"COLOR_0":9,"TEXCOORD_0":10,"TEXCOORD_1":11,"TANGENT":12},"mode":4}]}],"accessors":[{"bufferView":0,"componentType":5126,"count":158,"type":"VEC3","min":[-1.2822299194335938,-0.6185652923583984,-0.18454435348510742],"max":[0.15381475448608398,1.1325585174560546,0.018227925300598146]},{"bufferView":1,"componentType":5126,"count":158,"type":"VEC3"},{"bufferView":2,"componentType":5126,"count":174,"type":"VEC4"},{"bufferView":3,"componentType":5126,"count":158,"type":"VEC2"},{"bufferView":4,"componentType":5126,"count":158,"type":"VEC2"},{"bufferView":5,"componentType":5126,"count":158,"type":"VEC4"},{"bufferView":6,"componentType":5123,"count":228,"type":"SCALAR"},{"bufferView":7,"componentType":5126,"count":16,"type":"VEC3","min":[-1.2822299194335938,-0.6185652923583984,-0.18454435348510742],"max":[0.15381475448608398,1.1325585174560546,0.018227925300598146]},{"bufferView":8,"componentType":5126,"count":16,"type":"VEC3"},{"bufferView":9,"componentType":5126,"count":174,"type":"VEC4"},{"bufferView":10,"componentType":5126,"count":16,"type":"VEC2"},{"bufferView":11,"componentType":5126,"count":16,"type":"VEC2"},{"bufferView":12,"componentType":5126,"count":16,"type":"VEC4"},{"bufferView":13,"componentType":5123,"count":24,"type":"SCALAR"}],"bufferViews":[{"buffer":0,"byteOffset":0,"byteLength":1896},{"buffer":0,"byteOffset":1896,"byteLength":1896},{"buffer":0,"byteOffset":3792,"byteLength":2784},{"buffer":0,"byteOffset":6576,"byteLength":1264},{"buffer":0,"byteOffset":7840,"byteLength":1264},{"buffer":0,"byteOffset":9104,"byteLength":2528},{"buffer":0,"byteOffset":11632,"byteLength":456},{"buffer":1,"byteOffset":0,"byteLength":192},{"buffer":1,"byteOffset":192,"byteLength":192},{"buffer":1,"byteOffset":384,"byteLength":2784},{"buffer":1,"byteOffset":3168,"byteLength":128},{"buffer":1,"byteOffset":3296,"byteLength":128},{"buffer":1,"byteOffset":3424,"byteLength":256},{"buffer":1,"byteOffset":3680,"byteLength":48}],"buffers":[{"byteLength":12088,"uri":"data:application/octet-stream;base64,"},{"byteLength":3728,"uri":"data:application/octet-stream;base64,"}]}
