{"asset":{"generator":"Khronos glTF Blender I/O v1.2.75","version":"2.0"},"scene":0,"scenes":[{"name":"Scene","nodes":[0]}],"nodes":[{"mesh":0,"name":"Mesh"}],"meshes":[{"name":"SM_Fence07","primitives":[{"indices":6,"attributes":{"POSITION":0,"NORMAL":1,"COLOR_0":2,"TEXCOORD_0":3,"TEXCOORD_1":4,"TANGENT":5},"mode":4},{"indices":13,"attributes":{"POSITION":7,"NORMAL":8,"COLOR_0":9,"TEXCOORD_0":10,"TEXCOORD_1":11,"TANGENT":12},"mode":4}]}],"accessors":[{"bufferView":0,"componentType":5126,"count":466,"type":"VEC3","min":[-1.2822299194335938,-0.6185652923583984,-0.18454435348510742],"max":[0.15381475448608398,1.1325585174560546,0.018227925300598146]},{"bufferView":1,"componentType":5126,"count":466,"type":"VEC3"},{"bufferView":2,"componentType":5126,"count":484,"type":"VEC4"},{"bufferView":3,"componentType":5126,"count":466,"type":"VEC2"},{"bufferView":4,"componentType":5126,"count":466,"type":"VEC2"},{"bufferView":5,"componentType":5126,"count":466,"type":"VEC4"},{"bufferView":6,"componentType":5123,"count":972,"type":"SCALAR"},{"bufferView":7,"componentType":5126,"count":18,"type":"VEC3","min":[-1.2822299194335938,-0.6185652923583984,-0.18454435348510742],"max":[0.15381475448608398,1.1325585174560546,0.018227925300598146]},{"bufferView":8,"componentType":5126,"count":18,"type":"VEC3"},{"bufferView":9,"componentType":5126,"count":484,"type":"VEC4"},{"bufferView":10,"componentType":5126,"count":18,"type":"VEC2"},{"bufferView":11,"componentType":5126,"count":18,"type":"VEC2"},{"bufferView":12,"componentType":5126,"count":18,"type":"VEC4"},{"bufferView":13,"componentType":5123,"count":30,"type":"SCALAR"}],"bufferViews":[{"buffer":0,"byteOffset":0,"byteLength":5592},{"buffer":0,"byteOffset":5592,"byteLength":5592},{"buffer":0,"byteOffset":11184,"byteLength":7744},{"buffer":0,"byteOffset":18928,"byteLength":3728},{"buffer":0,"byteOffset":22656,"byteLength":3728},{"buffer":0,"byteOffset":26384,"byteLength":7456},{"buffer":0,"byteOffset":33840,"byteLength":1944},{"buffer":1,"byteOffset":0,"byteLength":216},{"buffer":1,"byteOffset":216,"byteLength":216},{"buffer":1,"byteOffset":432,"byteLength":7744},{"buffer":1,"byteOffset":8176,"byteLength":144},{"buffer":1,"byteOffset":8320,"byteLength":144},{"buffer":1,"byteOffset":8464,"byteLength":288},{"buffer":1,"byteOffset":8752,"byteLength":60}],"buffers":[{"byteLength":35784,"uri":"data:application/octet-stream;base64,"},{"byteLength":8812,"uri":"data:application/octet-stream;base64,"}]}
