{"asset":{"generator":"Khronos glTF Blender I/O v1.2.75","version":"2.0"},"scene":0,"scenes":[{"name":"Scene","nodes":[0]}],"nodes":[{"mesh":0,"name":"Mesh"}],"meshes":[{"name":"SM_Pipe_round_corner1","primitives":[{"indices":6,"attributes":{"POSITION":0,"NORMAL":1,"COLOR_0":2,"TEXCOORD_0":3,"TEXCOORD_1":4,"TANGENT":5},"mode":4}]}],"accessors":[{"bufferView":0,"componentType":5126,"count":700,"type":"VEC3","min":[-0.23628568649291992,-0.7986235046386718,-0.020716679096221925],"max":[0.22216869354248048,0.23585430145263672,1.0145355987548828]},{"bufferView":1,"componentType":5126,"count":700,"type":"VEC3"},{"bufferView":2,"componentType":5126,"count":700,"type":"VEC4"},{"bufferView":3,"componentType":5126,"count":700,"type":"VEC2"},{"bufferView":4,"componentType":5126,"count":700,"type":"VEC2"},{"bufferView":5,"componentType":5126,"count":700,"type":"VEC4"},{"bufferView":6,"componentType":5123,"count":2592,"type":"SCALAR"}],"bufferViews":[{"buffer":0,"byteOffset":0,"byteLength":8400},{"buffer":0,"byteOffset":8400,"byteLength":8400},{"buffer":0,"byteOffset":16800,"byteLength":11200},{"buffer":0,"byteOffset":28000,"byteLength":5600},{"buffer":0,"byteOffset":33600,"byteLength":5600},{"buffer":0,"byteOffset":39200,"byteLength":11200},{"buffer":0,"byteOffset":50400,"byteLength":5184}],"buffers":[{"byteLength":55584,"uri":"data:application/octet-stream;base64,"}]}
