{"asset":{"generator":"Khronos glTF Blender I/O v1.2.75","version":"2.0"},"scene":0,"scenes":[{"name":"Scene","nodes":[0]}],"nodes":[{"mesh":0,"name":"Mesh"}],"meshes":[{"name":"SM_Building02_09","primitives":[{"indices":5,"attributes":{"POSITION":0,"NORMAL":1,"TEXCOORD_0":2,"TEXCOORD_1":3,"TANGENT":4},"mode":4},{"indices":11,"attributes":{"POSITION":6,"NORMAL":7,"TEXCOORD_0":8,"TEXCOORD_1":9,"TANGENT":10},"mode":4},{"indices":17,"attributes":{"POSITION":12,"NORMAL":13,"TEXCOORD_0":14,"TEXCOORD_1":15,"TANGENT":16},"mode":4},{"indices":23,"attributes":{"POSITION":18,"NORMAL":19,"TEXCOORD_0":20,"TEXCOORD_1":21,"TANGENT":22},"mode":4}]}],"accessors":[{"bufferView":0,"componentType":5126,"count":48,"type":"VEC3","min":[-0.5438563919067383,0.000001220703125,-0.09428554534912109],"max":[2.93900390625,2.9999993896484374,0.1999976921081543]},{"bufferView":1,"componentType":5126,"count":48,"type":"VEC3"},{"bufferView":2,"componentType":5126,"count":48,"type":"VEC2"},{"bufferView":3,"componentType":5126,"count":48,"type":"VEC2"},{"bufferView":4,"componentType":5126,"count":48,"type":"VEC4"},{"bufferView":5,"componentType":5123,"count":96,"type":"SCALAR"},{"bufferView":6,"componentType":5126,"count":30,"type":"VEC3","min":[-0.5438563919067383,0.000001220703125,-0.09428554534912109],"max":[2.93900390625,2.9999993896484374,0.1999976921081543]},{"bufferView":7,"componentType":5126,"count":30,"type":"VEC3"},{"bufferView":8,"componentType":5126,"count":30,"type":"VEC2"},{"bufferView":9,"componentType":5126,"count":30,"type":"VEC2"},{"bufferView":10,"componentType":5126,"count":30,"type":"VEC4"},{"bufferView":11,"componentType":5123,"count":48,"type":"SCALAR"},{"bufferView":12,"componentType":5126,"count":252,"type":"VEC3","min":[-0.5438563919067383,0.000001220703125,-0.09428554534912109],"max":[2.93900390625,2.9999993896484374,0.1999976921081543]},{"bufferView":13,"componentType":5126,"count":252,"type":"VEC3"},{"bufferView":14,"componentType":5126,"count":252,"type":"VEC2"},{"bufferView":15,"componentType":5126,"count":252,"type":"VEC2"},{"bufferView":16,"componentType":5126,"count":252,"type":"VEC4"},{"bufferView":17,"componentType":5123,"count":366,"type":"SCALAR"},{"bufferView":18,"componentType":5126,"count":40,"type":"VEC3","min":[-0.5438563919067383,0.000001220703125,-0.09428554534912109],"max":[2.93900390625,2.9999993896484374,0.1999976921081543]},{"bufferView":19,"componentType":5126,"count":40,"type":"VEC3"},{"bufferView":20,"componentType":5126,"count":40,"type":"VEC2"},{"bufferView":21,"componentType":5126,"count":40,"type":"VEC2"},{"bufferView":22,"componentType":5126,"count":40,"type":"VEC4"},{"bufferView":23,"componentType":5123,"count":60,"type":"SCALAR"}],"bufferViews":[{"buffer":0,"byteOffset":0,"byteLength":576},{"buffer":0,"byteOffset":576,"byteLength":576},{"buffer":0,"byteOffset":1152,"byteLength":384},{"buffer":0,"byteOffset":1536,"byteLength":384},{"buffer":0,"byteOffset":1920,"byteLength":768},{"buffer":0,"byteOffset":2688,"byteLength":192},{"buffer":1,"byteOffset":0,"byteLength":360},{"buffer":1,"byteOffset":360,"byteLength":360},{"buffer":1,"byteOffset":720,"byteLength":240},{"buffer":1,"byteOffset":960,"byteLength":240},{"buffer":1,"byteOffset":1200,"byteLength":480},{"buffer":1,"byteOffset":1680,"byteLength":96},{"buffer":2,"byteOffset":0,"byteLength":3024},{"buffer":2,"byteOffset":3024,"byteLength":3024},{"buffer":2,"byteOffset":6048,"byteLength":2016},{"buffer":2,"byteOffset":8064,"byteLength":2016},{"buffer":2,"byteOffset":10080,"byteLength":4032},{"buffer":2,"byteOffset":14112,"byteLength":732},{"buffer":3,"byteOffset":0,"byteLength":480},{"buffer":3,"byteOffset":480,"byteLength":480},{"buffer":3,"byteOffset":960,"byteLength":320},{"buffer":3,"byteOffset":1280,"byteLength":320},{"buffer":3,"byteOffset":1600,"byteLength":640},{"buffer":3,"byteOffset":2240,"byteLength":120}],"buffers":[{"byteLength":2880,"uri":"data:application/octet-stream;base64,"},{"byteLength":1776,"uri":"data:application/octet-stream;base64,"},{"byteLength":14844,"uri":"data:application/octet-stream;base64,"},{"byteLength":2360,"uri":"data:application/octet-stream;base64,"}]}
