{"asset":{"generator":"Khronos glTF Blender I/O v1.2.75","version":"2.0"},"scene":0,"scenes":[{"name":"Scene","nodes":[0]}],"nodes":[{"mesh":0,"name":"Mesh"}],"meshes":[{"name":"SM_Building02_09","primitives":[{"indices":5,"attributes":{"POSITION":0,"NORMAL":1,"TEXCOORD_0":2,"TEXCOORD_1":3,"TANGENT":4},"mode":4},{"indices":11,"attributes":{"POSITION":6,"NORMAL":7,"TEXCOORD_0":8,"TEXCOORD_1":9,"TANGENT":10},"mode":4},{"indices":17,"attributes":{"POSITION":12,"NORMAL":13,"TEXCOORD_0":14,"TEXCOORD_1":15,"TANGENT":16},"mode":4},{"indices":23,"attributes":{"POSITION":18,"NORMAL":19,"TEXCOORD_0":20,"TEXCOORD_1":21,"TANGENT":22},"mode":4}]}],"accessors":[{"bufferView":0,"componentType":5126,"count":80,"type":"VEC3","min":[-0.5438563919067383,0.000001220703125,-0.09428554534912109],"max":[2.93900390625,2.9999993896484374,0.1999976921081543]},{"bufferView":1,"componentType":5126,"count":80,"type":"VEC3"},{"bufferView":2,"componentType":5126,"count":80,"type":"VEC2"},{"bufferView":3,"componentType":5126,"count":80,"type":"VEC2"},{"bufferView":4,"componentType":5126,"count":80,"type":"VEC4"},{"bufferView":5,"componentType":5123,"count":192,"type":"SCALAR"},{"bufferView":6,"componentType":5126,"count":30,"type":"VEC3","min":[-0.5438563919067383,0.000001220703125,-0.09428554534912109],"max":[2.93900390625,2.9999993896484374,0.1999976921081543]},{"bufferView":7,"componentType":5126,"count":30,"type":"VEC3"},{"bufferView":8,"componentType":5126,"count":30,"type":"VEC2"},{"bufferView":9,"componentType":5126,"count":30,"type":"VEC2"},{"bufferView":10,"componentType":5126,"count":30,"type":"VEC4"},{"bufferView":11,"componentType":5123,"count":48,"type":"SCALAR"},{"bufferView":12,"componentType":5126,"count":460,"type":"VEC3","min":[-0.5438563919067383,0.000001220703125,-0.09428554534912109],"max":[2.93900390625,2.9999993896484374,0.1999976921081543]},{"bufferView":13,"componentType":5126,"count":460,"type":"VEC3"},{"bufferView":14,"componentType":5126,"count":460,"type":"VEC2"},{"bufferView":15,"componentType":5126,"count":460,"type":"VEC2"},{"bufferView":16,"componentType":5126,"count":460,"type":"VEC4"},{"bufferView":17,"componentType":5123,"count":840,"type":"SCALAR"},{"bufferView":18,"componentType":5126,"count":40,"type":"VEC3","min":[-0.5438563919067383,0.000001220703125,-0.09428554534912109],"max":[2.93900390625,2.9999993896484374,0.1999976921081543]},{"bufferView":19,"componentType":5126,"count":40,"type":"VEC3"},{"bufferView":20,"componentType":5126,"count":40,"type":"VEC2"},{"bufferView":21,"componentType":5126,"count":40,"type":"VEC2"},{"bufferView":22,"componentType":5126,"count":40,"type":"VEC4"},{"bufferView":23,"componentType":5123,"count":60,"type":"SCALAR"}],"bufferViews":[{"buffer":0,"byteOffset":0,"byteLength":960},{"buffer":0,"byteOffset":960,"byteLength":960},{"buffer":0,"byteOffset":1920,"byteLength":640},{"buffer":0,"byteOffset":2560,"byteLength":640},{"buffer":0,"byteOffset":3200,"byteLength":1280},{"buffer":0,"byteOffset":4480,"byteLength":384},{"buffer":1,"byteOffset":0,"byteLength":360},{"buffer":1,"byteOffset":360,"byteLength":360},{"buffer":1,"byteOffset":720,"byteLength":240},{"buffer":1,"byteOffset":960,"byteLength":240},{"buffer":1,"byteOffset":1200,"byteLength":480},{"buffer":1,"byteOffset":1680,"byteLength":96},{"buffer":2,"byteOffset":0,"byteLength":5520},{"buffer":2,"byteOffset":5520,"byteLength":5520},{"buffer":2,"byteOffset":11040,"byteLength":3680},{"buffer":2,"byteOffset":14720,"byteLength":3680},{"buffer":2,"byteOffset":18400,"byteLength":7360},{"buffer":2,"byteOffset":25760,"byteLength":1680},{"buffer":3,"byteOffset":0,"byteLength":480},{"buffer":3,"byteOffset":480,"byteLength":480},{"buffer":3,"byteOffset":960,"byteLength":320},{"buffer":3,"byteOffset":1280,"byteLength":320},{"buffer":3,"byteOffset":1600,"byteLength":640},{"buffer":3,"byteOffset":2240,"byteLength":120}],"buffers":[{"byteLength":4864,"uri":"data:application/octet-stream;base64,"},{"byteLength":1776,"uri":"data:application/octet-stream;base64,"},{"byteLength":27440,"uri":"data:application/octet-stream;base64,"},{"byteLength":2360,"uri":"data:application/octet-stream;base64,"}]}
