{"asset":{"generator":"Khronos glTF Blender I/O v1.2.75","version":"2.0"},"scene":0,"scenes":[{"name":"Scene","nodes":[0]}],"nodes":[{"mesh":0,"name":"Mesh"}],"meshes":[{"name":"SM_Building02_16","primitives":[{"indices":5,"attributes":{"POSITION":0,"NORMAL":1,"TEXCOORD_0":2,"TEXCOORD_1":3,"TANGENT":4},"mode":4},{"indices":11,"attributes":{"POSITION":6,"NORMAL":7,"TEXCOORD_0":8,"TEXCOORD_1":9,"TANGENT":10},"mode":4},{"indices":17,"attributes":{"POSITION":12,"NORMAL":13,"TEXCOORD_0":14,"TEXCOORD_1":15,"TANGENT":16},"mode":4}]}],"accessors":[{"bufferView":0,"componentType":5126,"count":158,"type":"VEC3","min":[-0.14246241569519044,-3.535897364292072e-16,-0.0028031143546104432],"max":[0.8642810821533203,8.614158935546875,5.783252563476562]},{"bufferView":1,"componentType":5126,"count":158,"type":"VEC3"},{"bufferView":2,"componentType":5126,"count":158,"type":"VEC2"},{"bufferView":3,"componentType":5126,"count":158,"type":"VEC2"},{"bufferView":4,"componentType":5126,"count":158,"type":"VEC4"},{"bufferView":5,"componentType":5123,"count":348,"type":"SCALAR"},{"bufferView":6,"componentType":5126,"count":36,"type":"VEC3","min":[-0.14246241569519044,-3.535897364292072e-16,-0.0028031143546104432],"max":[0.8642810821533203,8.614158935546875,5.783252563476562]},{"bufferView":7,"componentType":5126,"count":36,"type":"VEC3"},{"bufferView":8,"componentType":5126,"count":36,"type":"VEC2"},{"bufferView":9,"componentType":5126,"count":36,"type":"VEC2"},{"bufferView":10,"componentType":5126,"count":36,"type":"VEC4"},{"bufferView":11,"componentType":5123,"count":90,"type":"SCALAR"},{"bufferView":12,"componentType":5126,"count":336,"type":"VEC3","min":[-0.14246241569519044,-3.535897364292072e-16,-0.0028031143546104432],"max":[0.8642810821533203,8.614158935546875,5.783252563476562]},{"bufferView":13,"componentType":5126,"count":336,"type":"VEC3"},{"bufferView":14,"componentType":5126,"count":336,"type":"VEC2"},{"bufferView":15,"componentType":5126,"count":336,"type":"VEC2"},{"bufferView":16,"componentType":5126,"count":336,"type":"VEC4"},{"bufferView":17,"componentType":5123,"count":504,"type":"SCALAR"}],"bufferViews":[{"buffer":0,"byteOffset":0,"byteLength":1896},{"buffer":0,"byteOffset":1896,"byteLength":1896},{"buffer":0,"byteOffset":3792,"byteLength":1264},{"buffer":0,"byteOffset":5056,"byteLength":1264},{"buffer":0,"byteOffset":6320,"byteLength":2528},{"buffer":0,"byteOffset":8848,"byteLength":696},{"buffer":1,"byteOffset":0,"byteLength":432},{"buffer":1,"byteOffset":432,"byteLength":432},{"buffer":1,"byteOffset":864,"byteLength":288},{"buffer":1,"byteOffset":1152,"byteLength":288},{"buffer":1,"byteOffset":1440,"byteLength":576},{"buffer":1,"byteOffset":2016,"byteLength":180},{"buffer":2,"byteOffset":0,"byteLength":4032},{"buffer":2,"byteOffset":4032,"byteLength":4032},{"buffer":2,"byteOffset":8064,"byteLength":2688},{"buffer":2,"byteOffset":10752,"byteLength":2688},{"buffer":2,"byteOffset":13440,"byteLength":5376},{"buffer":2,"byteOffset":18816,"byteLength":1008}],"buffers":[{"byteLength":9544,"uri":"data:application/octet-stream;base64,"},{"byteLength":2196,"uri":"data:application/octet-stream;base64,"},{"byteLength":19824,"uri":"data:application/octet-stream;base64,"}]}
