{"asset":{"generator":"Khronos glTF Blender I/O v1.2.75","version":"2.0"},"scene":0,"scenes":[{"name":"Scene","nodes":[0]}],"nodes":[{"mesh":0,"name":"Mesh"}],"meshes":[{"name":"SM_Building02_16","primitives":[{"indices":5,"attributes":{"POSITION":0,"NORMAL":1,"TEXCOORD_0":2,"TEXCOORD_1":3,"TANGENT":4},"mode":4},{"indices":11,"attributes":{"POSITION":6,"NORMAL":7,"TEXCOORD_0":8,"TEXCOORD_1":9,"TANGENT":10},"mode":4},{"indices":17,"attributes":{"POSITION":12,"NORMAL":13,"TEXCOORD_0":14,"TEXCOORD_1":15,"TANGENT":16},"mode":4}]}],"accessors":[{"bufferView":0,"componentType":5126,"count":92,"type":"VEC3","min":[-0.14246241569519044,-3.535897364292072e-16,-0.0028031143546104432],"max":[0.8642810821533203,8.614158935546875,5.783252563476562]},{"bufferView":1,"componentType":5126,"count":92,"type":"VEC3"},{"bufferView":2,"componentType":5126,"count":92,"type":"VEC2"},{"bufferView":3,"componentType":5126,"count":92,"type":"VEC2"},{"bufferView":4,"componentType":5126,"count":92,"type":"VEC4"},{"bufferView":5,"componentType":5123,"count":192,"type":"SCALAR"},{"bufferView":6,"componentType":5126,"count":12,"type":"VEC3","min":[-0.14246241569519044,-3.535897364292072e-16,-0.0028031143546104432],"max":[0.8642810821533203,8.614158935546875,5.783252563476562]},{"bufferView":7,"componentType":5126,"count":12,"type":"VEC3"},{"bufferView":8,"componentType":5126,"count":12,"type":"VEC2"},{"bufferView":9,"componentType":5126,"count":12,"type":"VEC2"},{"bufferView":10,"componentType":5126,"count":12,"type":"VEC4"},{"bufferView":11,"componentType":5123,"count":18,"type":"SCALAR"},{"bufferView":12,"componentType":5126,"count":16,"type":"VEC3","min":[-0.14246241569519044,-3.535897364292072e-16,-0.0028031143546104432],"max":[0.8642810821533203,8.614158935546875,5.783252563476562]},{"bufferView":13,"componentType":5126,"count":16,"type":"VEC3"},{"bufferView":14,"componentType":5126,"count":16,"type":"VEC2"},{"bufferView":15,"componentType":5126,"count":16,"type":"VEC2"},{"bufferView":16,"componentType":5126,"count":16,"type":"VEC4"},{"bufferView":17,"componentType":5123,"count":24,"type":"SCALAR"}],"bufferViews":[{"buffer":0,"byteOffset":0,"byteLength":1104},{"buffer":0,"byteOffset":1104,"byteLength":1104},{"buffer":0,"byteOffset":2208,"byteLength":736},{"buffer":0,"byteOffset":2944,"byteLength":736},{"buffer":0,"byteOffset":3680,"byteLength":1472},{"buffer":0,"byteOffset":5152,"byteLength":384},{"buffer":1,"byteOffset":0,"byteLength":144},{"buffer":1,"byteOffset":144,"byteLength":144},{"buffer":1,"byteOffset":288,"byteLength":96},{"buffer":1,"byteOffset":384,"byteLength":96},{"buffer":1,"byteOffset":480,"byteLength":192},{"buffer":1,"byteOffset":672,"byteLength":36},{"buffer":2,"byteOffset":0,"byteLength":192},{"buffer":2,"byteOffset":192,"byteLength":192},{"buffer":2,"byteOffset":384,"byteLength":128},{"buffer":2,"byteOffset":512,"byteLength":128},{"buffer":2,"byteOffset":640,"byteLength":256},{"buffer":2,"byteOffset":896,"byteLength":48}],"buffers":[{"byteLength":5536,"uri":"data:application/octet-stream;base64,"},{"byteLength":708,"uri":"data:application/octet-stream;base64,"},{"byteLength":944,"uri":"data:application/octet-stream;base64,"}]}
