{"asset":{"generator":"Khronos glTF Blender I/O v1.2.75","version":"2.0"},"scene":0,"scenes":[{"name":"Scene","nodes":[0]}],"nodes":[{"mesh":0,"name":"Mesh"}],"meshes":[{"name":"SM_Building02_16","primitives":[{"indices":5,"attributes":{"POSITION":0,"NORMAL":1,"TEXCOORD_0":2,"TEXCOORD_1":3,"TANGENT":4},"mode":4},{"indices":11,"attributes":{"POSITION":6,"NORMAL":7,"TEXCOORD_0":8,"TEXCOORD_1":9,"TANGENT":10},"mode":4},{"indices":17,"attributes":{"POSITION":12,"NORMAL":13,"TEXCOORD_0":14,"TEXCOORD_1":15,"TANGENT":16},"mode":4}]}],"accessors":[{"bufferView":0,"componentType":5126,"count":125,"type":"VEC3","min":[-0.14246241569519044,-3.535897364292072e-16,-0.0028031143546104432],"max":[0.8642810821533203,8.614158935546875,5.783252563476562]},{"bufferView":1,"componentType":5126,"count":125,"type":"VEC3"},{"bufferView":2,"componentType":5126,"count":125,"type":"VEC2"},{"bufferView":3,"componentType":5126,"count":125,"type":"VEC2"},{"bufferView":4,"componentType":5126,"count":125,"type":"VEC4"},{"bufferView":5,"componentType":5123,"count":249,"type":"SCALAR"},{"bufferView":6,"componentType":5126,"count":12,"type":"VEC3","min":[-0.14246241569519044,-3.535897364292072e-16,-0.0028031143546104432],"max":[0.8642810821533203,8.614158935546875,5.783252563476562]},{"bufferView":7,"componentType":5126,"count":12,"type":"VEC3"},{"bufferView":8,"componentType":5126,"count":12,"type":"VEC2"},{"bufferView":9,"componentType":5126,"count":12,"type":"VEC2"},{"bufferView":10,"componentType":5126,"count":12,"type":"VEC4"},{"bufferView":11,"componentType":5123,"count":18,"type":"SCALAR"},{"bufferView":12,"componentType":5126,"count":140,"type":"VEC3","min":[-0.14246241569519044,-3.535897364292072e-16,-0.0028031143546104432],"max":[0.8642810821533203,8.614158935546875,5.783252563476562]},{"bufferView":13,"componentType":5126,"count":140,"type":"VEC3"},{"bufferView":14,"componentType":5126,"count":140,"type":"VEC2"},{"bufferView":15,"componentType":5126,"count":140,"type":"VEC2"},{"bufferView":16,"componentType":5126,"count":140,"type":"VEC4"},{"bufferView":17,"componentType":5123,"count":204,"type":"SCALAR"}],"bufferViews":[{"buffer":0,"byteOffset":0,"byteLength":1500},{"buffer":0,"byteOffset":1500,"byteLength":1500},{"buffer":0,"byteOffset":3000,"byteLength":1000},{"buffer":0,"byteOffset":4000,"byteLength":1000},{"buffer":0,"byteOffset":5000,"byteLength":2000},{"buffer":0,"byteOffset":7000,"byteLength":498},{"buffer":1,"byteOffset":0,"byteLength":144},{"buffer":1,"byteOffset":144,"byteLength":144},{"buffer":1,"byteOffset":288,"byteLength":96},{"buffer":1,"byteOffset":384,"byteLength":96},{"buffer":1,"byteOffset":480,"byteLength":192},{"buffer":1,"byteOffset":672,"byteLength":36},{"buffer":2,"byteOffset":0,"byteLength":1680},{"buffer":2,"byteOffset":1680,"byteLength":1680},{"buffer":2,"byteOffset":3360,"byteLength":1120},{"buffer":2,"byteOffset":4480,"byteLength":1120},{"buffer":2,"byteOffset":5600,"byteLength":2240},{"buffer":2,"byteOffset":7840,"byteLength":408}],"buffers":[{"byteLength":7498,"uri":"data:application/octet-stream;base64,"},{"byteLength":708,"uri":"data:application/octet-stream;base64,"},{"byteLength":8248,"uri":"data:application/octet-stream;base64,"}]}
