{"asset":{"generator":"Khronos glTF Blender I/O v1.2.75","version":"2.0"},"scene":0,"scenes":[{"name":"Scene","nodes":[0]}],"nodes":[{"mesh":0,"name":"Mesh"}],"meshes":[{"name":"SM_Signboard_03","primitives":[{"indices":5,"attributes":{"POSITION":0,"NORMAL":1,"TEXCOORD_0":2,"TEXCOORD_1":3,"TANGENT":4},"mode":4}]}],"accessors":[{"bufferView":0,"componentType":5126,"count":120,"type":"VEC3","min":[-5.490762939453125,-0.0000018310546875,-0.1398114013671875],"max":[-0.0000016021728515625,1.428841552734375,-0.000001220703125]},{"bufferView":1,"componentType":5126,"count":120,"type":"VEC3"},{"bufferView":2,"componentType":5126,"count":120,"type":"VEC2"},{"bufferView":3,"componentType":5126,"count":120,"type":"VEC2"},{"bufferView":4,"componentType":5126,"count":120,"type":"VEC4"},{"bufferView":5,"componentType":5123,"count":180,"type":"SCALAR"}],"bufferViews":[{"buffer":0,"byteOffset":0,"byteLength":1440},{"buffer":0,"byteOffset":1440,"byteLength":1440},{"buffer":0,"byteOffset":2880,"byteLength":960},{"buffer":0,"byteOffset":3840,"byteLength":960},{"buffer":0,"byteOffset":4800,"byteLength":1920},{"buffer":0,"byteOffset":6720,"byteLength":360}],"buffers":[{"byteLength":7080,"uri":"data:application/octet-stream;base64,"}]}
