{"asset":{"generator":"Khronos glTF Blender I/O v1.2.75","version":"2.0"},"scene":0,"scenes":[{"name":"Scene","nodes":[0]}],"nodes":[{"mesh":0,"name":"Mesh"}],"meshes":[{"name":"SM_CornerBuilding01_06","primitives":[{"indices":5,"attributes":{"POSITION":0,"NORMAL":1,"TEXCOORD_0":2,"TEXCOORD_1":3,"TANGENT":4},"mode":4}]}],"accessors":[{"bufferView":0,"componentType":5126,"count":154,"type":"VEC3","min":[-0.10729007720947266,-0.0002692890167236328,-1.1510382080078125],"max":[0.11400872230529785,5.000273132324219,0.05660125732421875]},{"bufferView":1,"componentType":5126,"count":154,"type":"VEC3"},{"bufferView":2,"componentType":5126,"count":154,"type":"VEC2"},{"bufferView":3,"componentType":5126,"count":154,"type":"VEC2"},{"bufferView":4,"componentType":5126,"count":154,"type":"VEC4"},{"bufferView":5,"componentType":5123,"count":558,"type":"SCALAR"}],"bufferViews":[{"buffer":0,"byteOffset":0,"byteLength":1848},{"buffer":0,"byteOffset":1848,"byteLength":1848},{"buffer":0,"byteOffset":3696,"byteLength":1232},{"buffer":0,"byteOffset":4928,"byteLength":1232},{"buffer":0,"byteOffset":6160,"byteLength":2464},{"buffer":0,"byteOffset":8624,"byteLength":1116}],"buffers":[{"byteLength":9740,"uri":"data:application/octet-stream;base64,"}]}
