{"asset":{"generator":"Khronos glTF Blender I/O v1.2.75","version":"2.0"},"scene":0,"scenes":[{"name":"Scene","nodes":[0]}],"nodes":[{"mesh":0,"name":"Mesh"}],"meshes":[{"name":"SM_PipeGroup22","primitives":[{"indices":5,"attributes":{"POSITION":0,"NORMAL":1,"TEXCOORD_0":2,"TEXCOORD_1":3,"TANGENT":4},"mode":4}]}],"accessors":[{"bufferView":0,"componentType":5126,"count":2644,"type":"VEC3","min":[-0.43353034973144533,-1.0154593658447266,-3.7330673217773436],"max":[0.39290714263916016,2.092726135253906,0.1600579833984375]},{"bufferView":1,"componentType":5126,"count":2644,"type":"VEC3"},{"bufferView":2,"componentType":5126,"count":2644,"type":"VEC2"},{"bufferView":3,"componentType":5126,"count":2644,"type":"VEC2"},{"bufferView":4,"componentType":5126,"count":2644,"type":"VEC4"},{"bufferView":5,"componentType":5123,"count":7101,"type":"SCALAR"}],"bufferViews":[{"buffer":0,"byteOffset":0,"byteLength":31728},{"buffer":0,"byteOffset":31728,"byteLength":31728},{"buffer":0,"byteOffset":63456,"byteLength":21152},{"buffer":0,"byteOffset":84608,"byteLength":21152},{"buffer":0,"byteOffset":105760,"byteLength":42304},{"buffer":0,"byteOffset":148064,"byteLength":14202}],"buffers":[{"byteLength":162266,"uri":"data:application/octet-stream;base64,"}]}
