{"asset":{"generator":"Khronos glTF Blender I/O v1.2.75","version":"2.0"},"scene":0,"scenes":[{"name":"Scene","nodes":[0]}],"nodes":[{"mesh":0,"name":"Mesh"}],"meshes":[{"name":"SM_ElPanel","primitives":[{"indices":5,"attributes":{"POSITION":0,"NORMAL":1,"TEXCOORD_0":2,"TEXCOORD_1":3,"TANGENT":4},"mode":4}]}],"accessors":[{"bufferView":0,"componentType":5126,"count":186,"type":"VEC3","min":[0,-1.8084259033203125,-0.02828089237213135],"max":[1.2328868865966798,0.03075000047683716,0.2]},{"bufferView":1,"componentType":5126,"count":186,"type":"VEC3"},{"bufferView":2,"componentType":5126,"count":186,"type":"VEC2"},{"bufferView":3,"componentType":5126,"count":186,"type":"VEC2"},{"bufferView":4,"componentType":5126,"count":186,"type":"VEC4"},{"bufferView":5,"componentType":5123,"count":414,"type":"SCALAR"}],"bufferViews":[{"buffer":0,"byteOffset":0,"byteLength":2232},{"buffer":0,"byteOffset":2232,"byteLength":2232},{"buffer":0,"byteOffset":4464,"byteLength":1488},{"buffer":0,"byteOffset":5952,"byteLength":1488},{"buffer":0,"byteOffset":7440,"byteLength":2976},{"buffer":0,"byteOffset":10416,"byteLength":828}],"buffers":[{"byteLength":11244,"uri":"data:application/octet-stream;base64,"}]}
