{"asset":{"generator":"Khronos glTF Blender I/O v1.2.75","version":"2.0"},"scene":0,"scenes":[{"name":"Scene","nodes":[0]}],"nodes":[{"mesh":0,"name":"Mesh"}],"meshes":[{"name":"SM_ElPanel","primitives":[{"indices":5,"attributes":{"POSITION":0,"NORMAL":1,"TEXCOORD_0":2,"TEXCOORD_1":3,"TANGENT":4},"mode":4}]}],"accessors":[{"bufferView":0,"componentType":5126,"count":68,"type":"VEC3","min":[0,-1.8084259033203125,-0.02828089237213135],"max":[1.2328868865966798,0.03075000047683716,0.2]},{"bufferView":1,"componentType":5126,"count":68,"type":"VEC3"},{"bufferView":2,"componentType":5126,"count":68,"type":"VEC2"},{"bufferView":3,"componentType":5126,"count":68,"type":"VEC2"},{"bufferView":4,"componentType":5126,"count":68,"type":"VEC4"},{"bufferView":5,"componentType":5123,"count":102,"type":"SCALAR"}],"bufferViews":[{"buffer":0,"byteOffset":0,"byteLength":816},{"buffer":0,"byteOffset":816,"byteLength":816},{"buffer":0,"byteOffset":1632,"byteLength":544},{"buffer":0,"byteOffset":2176,"byteLength":544},{"buffer":0,"byteOffset":2720,"byteLength":1088},{"buffer":0,"byteOffset":3808,"byteLength":204}],"buffers":[{"byteLength":4012,"uri":"data:application/octet-stream;base64,"}]}
