{"asset":{"generator":"Khronos glTF Blender I/O v1.2.75","version":"2.0"},"scene":0,"scenes":[{"name":"Scene","nodes":[0]}],"nodes":[{"mesh":0,"name":"Mesh"}],"meshes":[{"name":"SM_ElPanel","primitives":[{"indices":5,"attributes":{"POSITION":0,"NORMAL":1,"TEXCOORD_0":2,"TEXCOORD_1":3,"TANGENT":4},"mode":4}]}],"accessors":[{"bufferView":0,"componentType":5126,"count":112,"type":"VEC3","min":[0,-1.8084259033203125,-0.02828089237213135],"max":[1.2328868865966798,0.03075000047683716,0.2]},{"bufferView":1,"componentType":5126,"count":112,"type":"VEC3"},{"bufferView":2,"componentType":5126,"count":112,"type":"VEC2"},{"bufferView":3,"componentType":5126,"count":112,"type":"VEC2"},{"bufferView":4,"componentType":5126,"count":112,"type":"VEC4"},{"bufferView":5,"componentType":5123,"count":204,"type":"SCALAR"}],"bufferViews":[{"buffer":0,"byteOffset":0,"byteLength":1344},{"buffer":0,"byteOffset":1344,"byteLength":1344},{"buffer":0,"byteOffset":2688,"byteLength":896},{"buffer":0,"byteOffset":3584,"byteLength":896},{"buffer":0,"byteOffset":4480,"byteLength":1792},{"buffer":0,"byteOffset":6272,"byteLength":408}],"buffers":[{"byteLength":6680,"uri":"data:application/octet-stream;base64,"}]}
