{"asset":{"generator":"Khronos glTF Blender I/O v1.2.75","version":"2.0"},"scene":0,"scenes":[{"name":"Scene","nodes":[0]}],"nodes":[{"mesh":0,"name":"Mesh"}],"meshes":[{"name":"SM_Pipe_round_fixator","primitives":[{"indices":6,"attributes":{"POSITION":0,"NORMAL":1,"COLOR_0":2,"TEXCOORD_0":3,"TEXCOORD_1":4,"TANGENT":5},"mode":4}]}],"accessors":[{"bufferView":0,"componentType":5126,"count":280,"type":"VEC3","min":[-0.20999500274658203,-0.21,-0.03599998712539673],"max":[0.20999500274658203,0.2980037307739258,0.03600000619888306]},{"bufferView":1,"componentType":5126,"count":280,"type":"VEC3"},{"bufferView":2,"componentType":5126,"count":280,"type":"VEC4"},{"bufferView":3,"componentType":5126,"count":280,"type":"VEC2"},{"bufferView":4,"componentType":5126,"count":280,"type":"VEC2"},{"bufferView":5,"componentType":5126,"count":280,"type":"VEC4"},{"bufferView":6,"componentType":5123,"count":720,"type":"SCALAR"}],"bufferViews":[{"buffer":0,"byteOffset":0,"byteLength":3360},{"buffer":0,"byteOffset":3360,"byteLength":3360},{"buffer":0,"byteOffset":6720,"byteLength":4480},{"buffer":0,"byteOffset":11200,"byteLength":2240},{"buffer":0,"byteOffset":13440,"byteLength":2240},{"buffer":0,"byteOffset":15680,"byteLength":4480},{"buffer":0,"byteOffset":20160,"byteLength":1440}],"buffers":[{"byteLength":21600,"uri":"data:application/octet-stream;base64,"}]}
