{"asset":{"generator":"Khronos glTF Blender I/O v1.2.75","version":"2.0"},"scene":0,"scenes":[{"name":"Scene","nodes":[0]}],"nodes":[{"mesh":0,"name":"Mesh"}],"meshes":[{"name":"SM_Car02","primitives":[{"indices":5,"attributes":{"POSITION":0,"NORMAL":1,"TEXCOORD_0":2,"TEXCOORD_1":3,"TANGENT":4},"mode":4}]}],"accessors":[{"bufferView":0,"componentType":5126,"count":10460,"type":"VEC3","min":[-1.6102670288085938,-0.06496017456054687,-1.7986695861816406],"max":[1.610266876220703,0.9891216278076171,1.9381736755371093]},{"bufferView":1,"componentType":5126,"count":10460,"type":"VEC3"},{"bufferView":2,"componentType":5126,"count":10460,"type":"VEC2"},{"bufferView":3,"componentType":5126,"count":10460,"type":"VEC2"},{"bufferView":4,"componentType":5126,"count":10460,"type":"VEC4"},{"bufferView":5,"componentType":5123,"count":30954,"type":"SCALAR"}],"bufferViews":[{"buffer":0,"byteOffset":0,"byteLength":125520},{"buffer":0,"byteOffset":125520,"byteLength":125520},{"buffer":0,"byteOffset":251040,"byteLength":83680},{"buffer":0,"byteOffset":334720,"byteLength":83680},{"buffer":0,"byteOffset":418400,"byteLength":167360},{"buffer":0,"byteOffset":585760,"byteLength":61908}],"buffers":[{"byteLength":647668,"uri":"data:application/octet-stream;base64,"}]}
