{"asset":{"generator":"Khronos glTF Blender I/O v1.2.75","version":"2.0"},"scene":0,"scenes":[{"name":"Scene","nodes":[0]}],"nodes":[{"mesh":0,"name":"Mesh"}],"meshes":[{"name":"SM_Car02","primitives":[{"indices":5,"attributes":{"POSITION":0,"NORMAL":1,"TEXCOORD_0":2,"TEXCOORD_1":3,"TANGENT":4},"mode":4}]}],"accessors":[{"bufferView":0,"componentType":5126,"count":1345,"type":"VEC3","min":[-1.6102670288085938,-0.06496017456054687,-1.7986695861816406],"max":[1.610266876220703,0.9891216278076171,1.9381736755371093]},{"bufferView":1,"componentType":5126,"count":1345,"type":"VEC3"},{"bufferView":2,"componentType":5126,"count":1345,"type":"VEC2"},{"bufferView":3,"componentType":5126,"count":1345,"type":"VEC2"},{"bufferView":4,"componentType":5126,"count":1345,"type":"VEC4"},{"bufferView":5,"componentType":5123,"count":2169,"type":"SCALAR"}],"bufferViews":[{"buffer":0,"byteOffset":0,"byteLength":16140},{"buffer":0,"byteOffset":16140,"byteLength":16140},{"buffer":0,"byteOffset":32280,"byteLength":10760},{"buffer":0,"byteOffset":43040,"byteLength":10760},{"buffer":0,"byteOffset":53800,"byteLength":21520},{"buffer":0,"byteOffset":75320,"byteLength":4338}],"buffers":[{"byteLength":79658,"uri":"data:application/octet-stream;base64,"}]}
