{"asset":{"generator":"Khronos glTF Blender I/O v1.2.75","version":"2.0"},"scene":0,"scenes":[{"name":"Scene","nodes":[0]}],"nodes":[{"mesh":0,"name":"Mesh"}],"meshes":[{"name":"SM_PipeGroup34","primitives":[{"indices":5,"attributes":{"POSITION":0,"NORMAL":1,"TEXCOORD_0":2,"TEXCOORD_1":3,"TANGENT":4},"mode":4}]}],"accessors":[{"bufferView":0,"componentType":5126,"count":1283,"type":"VEC3","min":[-4.782216796875,-49.5672412109375,-0.3426436614990234],"max":[15.607633056640625,10.592642822265624,11.0250244140625]},{"bufferView":1,"componentType":5126,"count":1283,"type":"VEC3"},{"bufferView":2,"componentType":5126,"count":1283,"type":"VEC2"},{"bufferView":3,"componentType":5126,"count":1283,"type":"VEC2"},{"bufferView":4,"componentType":5126,"count":1283,"type":"VEC4"},{"bufferView":5,"componentType":5123,"count":1959,"type":"SCALAR"}],"bufferViews":[{"buffer":0,"byteOffset":0,"byteLength":15396},{"buffer":0,"byteOffset":15396,"byteLength":15396},{"buffer":0,"byteOffset":30792,"byteLength":10264},{"buffer":0,"byteOffset":41056,"byteLength":10264},{"buffer":0,"byteOffset":51320,"byteLength":20528},{"buffer":0,"byteOffset":71848,"byteLength":3918}],"buffers":[{"byteLength":75766,"uri":"data:application/octet-stream;base64,"}]}
