{"asset":{"generator":"Khronos glTF Blender I/O v1.2.75","version":"2.0"},"scene":0,"scenes":[{"name":"Scene","nodes":[0]}],"nodes":[{"mesh":0,"name":"Mesh"}],"meshes":[{"name":"SM_PipeGroup34","primitives":[{"indices":5,"attributes":{"POSITION":0,"NORMAL":1,"TEXCOORD_0":2,"TEXCOORD_1":3,"TANGENT":4},"mode":4}]}],"accessors":[{"bufferView":0,"componentType":5126,"count":9104,"type":"VEC3","min":[-4.782216796875,-49.5672412109375,-0.3426436614990234],"max":[15.607633056640625,10.592642822265624,11.0250244140625]},{"bufferView":1,"componentType":5126,"count":9104,"type":"VEC3"},{"bufferView":2,"componentType":5126,"count":9104,"type":"VEC2"},{"bufferView":3,"componentType":5126,"count":9104,"type":"VEC2"},{"bufferView":4,"componentType":5126,"count":9104,"type":"VEC4"},{"bufferView":5,"componentType":5123,"count":14676,"type":"SCALAR"}],"bufferViews":[{"buffer":0,"byteOffset":0,"byteLength":109248},{"buffer":0,"byteOffset":109248,"byteLength":109248},{"buffer":0,"byteOffset":218496,"byteLength":72832},{"buffer":0,"byteOffset":291328,"byteLength":72832},{"buffer":0,"byteOffset":364160,"byteLength":145664},{"buffer":0,"byteOffset":509824,"byteLength":29352}],"buffers":[{"byteLength":539176,"uri":"data:application/octet-stream;base64,"}]}
