{"asset":{"generator":"Khronos glTF Blender I/O v1.2.75","version":"2.0"},"scene":0,"scenes":[{"name":"Scene","nodes":[0]}],"nodes":[{"mesh":0,"name":"Mesh"}],"meshes":[{"name":"SM_Fence_02","primitives":[{"indices":5,"attributes":{"POSITION":0,"NORMAL":1,"TEXCOORD_0":2,"TEXCOORD_1":3,"TANGENT":4},"mode":4}]}],"accessors":[{"bufferView":0,"componentType":5126,"count":538,"type":"VEC3","min":[-0.08126835823059082,-0.024969704151153564,-0.04050129890441895],"max":[1.35471923828125,1.1307139587402344,0.16227056503295897]},{"bufferView":1,"componentType":5126,"count":538,"type":"VEC3"},{"bufferView":2,"componentType":5126,"count":538,"type":"VEC2"},{"bufferView":3,"componentType":5126,"count":538,"type":"VEC2"},{"bufferView":4,"componentType":5126,"count":538,"type":"VEC4"},{"bufferView":5,"componentType":5123,"count":1080,"type":"SCALAR"}],"bufferViews":[{"buffer":0,"byteOffset":0,"byteLength":6456},{"buffer":0,"byteOffset":6456,"byteLength":6456},{"buffer":0,"byteOffset":12912,"byteLength":4304},{"buffer":0,"byteOffset":17216,"byteLength":4304},{"buffer":0,"byteOffset":21520,"byteLength":8608},{"buffer":0,"byteOffset":30128,"byteLength":2160}],"buffers":[{"byteLength":32288,"uri":"data:application/octet-stream;base64,"}]}
