{"asset":{"generator":"Khronos glTF Blender I/O v1.2.75","version":"2.0"},"scene":0,"scenes":[{"name":"Scene","nodes":[0]}],"nodes":[{"mesh":0,"name":"Mesh"}],"meshes":[{"name":"SM_Fence_02","primitives":[{"indices":5,"attributes":{"POSITION":0,"NORMAL":1,"TEXCOORD_0":2,"TEXCOORD_1":3,"TANGENT":4},"mode":4}]}],"accessors":[{"bufferView":0,"componentType":5126,"count":199,"type":"VEC3","min":[-0.08126835823059082,-0.024969704151153564,-0.04050129890441895],"max":[1.35471923828125,1.1307139587402344,0.16227056503295897]},{"bufferView":1,"componentType":5126,"count":199,"type":"VEC3"},{"bufferView":2,"componentType":5126,"count":199,"type":"VEC2"},{"bufferView":3,"componentType":5126,"count":199,"type":"VEC2"},{"bufferView":4,"componentType":5126,"count":199,"type":"VEC4"},{"bufferView":5,"componentType":5123,"count":267,"type":"SCALAR"}],"bufferViews":[{"buffer":0,"byteOffset":0,"byteLength":2388},{"buffer":0,"byteOffset":2388,"byteLength":2388},{"buffer":0,"byteOffset":4776,"byteLength":1592},{"buffer":0,"byteOffset":6368,"byteLength":1592},{"buffer":0,"byteOffset":7960,"byteLength":3184},{"buffer":0,"byteOffset":11144,"byteLength":534}],"buffers":[{"byteLength":11678,"uri":"data:application/octet-stream;base64,"}]}
