{"asset":{"generator":"Khronos glTF Blender I/O v1.2.75","version":"2.0"},"scene":0,"scenes":[{"name":"Scene","nodes":[0]}],"nodes":[{"mesh":0,"name":"Mesh"}],"meshes":[{"name":"Hotel02","primitives":[{"indices":5,"attributes":{"POSITION":0,"NORMAL":1,"TEXCOORD_0":2,"TEXCOORD_1":3,"TANGENT":4},"mode":4}]}],"accessors":[{"bufferView":0,"componentType":5126,"count":917,"type":"VEC3","min":[-0.6380621337890625,-1.2863473510742187,-0.23084794998168945],"max":[0,1.0993254089355469,0.23084810256958008]},{"bufferView":1,"componentType":5126,"count":917,"type":"VEC3"},{"bufferView":2,"componentType":5126,"count":917,"type":"VEC2"},{"bufferView":3,"componentType":5126,"count":917,"type":"VEC2"},{"bufferView":4,"componentType":5126,"count":917,"type":"VEC4"},{"bufferView":5,"componentType":5123,"count":1512,"type":"SCALAR"}],"bufferViews":[{"buffer":0,"byteOffset":0,"byteLength":11004},{"buffer":0,"byteOffset":11004,"byteLength":11004},{"buffer":0,"byteOffset":22008,"byteLength":7336},{"buffer":0,"byteOffset":29344,"byteLength":7336},{"buffer":0,"byteOffset":36680,"byteLength":14672},{"buffer":0,"byteOffset":51352,"byteLength":3024}],"buffers":[{"byteLength":54376,"uri":"data:application/octet-stream;base64,"}]}
