{"asset":{"generator":"Khronos glTF Blender I/O v1.2.75","version":"2.0"},"scene":0,"scenes":[{"name":"Scene","nodes":[0]}],"nodes":[{"mesh":0,"name":"Mesh"}],"meshes":[{"name":"SM_NeonSig09","primitives":[{"indices":5,"attributes":{"POSITION":0,"NORMAL":1,"TEXCOORD_0":2,"TEXCOORD_1":3,"TANGENT":4},"mode":4}]}],"accessors":[{"bufferView":0,"componentType":5126,"count":74,"type":"VEC3","min":[-0.000001220703125,-9.238502389052882e-7,-0.000001277923583984375],"max":[4.999998779296875,1.3872723388671875,0.1396352481842041]},{"bufferView":1,"componentType":5126,"count":74,"type":"VEC3"},{"bufferView":2,"componentType":5126,"count":74,"type":"VEC2"},{"bufferView":3,"componentType":5126,"count":74,"type":"VEC2"},{"bufferView":4,"componentType":5126,"count":74,"type":"VEC4"},{"bufferView":5,"componentType":5123,"count":144,"type":"SCALAR"}],"bufferViews":[{"buffer":0,"byteOffset":0,"byteLength":888},{"buffer":0,"byteOffset":888,"byteLength":888},{"buffer":0,"byteOffset":1776,"byteLength":592},{"buffer":0,"byteOffset":2368,"byteLength":592},{"buffer":0,"byteOffset":2960,"byteLength":1184},{"buffer":0,"byteOffset":4144,"byteLength":288}],"buffers":[{"byteLength":4432,"uri":"data:application/octet-stream;base64,"}]}
