{"asset":{"generator":"Khronos glTF Blender I/O v1.2.75","version":"2.0"},"scene":0,"scenes":[{"name":"Scene","nodes":[0]}],"nodes":[{"mesh":0,"name":"Mesh"}],"meshes":[{"name":"Cube","primitives":[{"indices":4,"attributes":{"POSITION":0,"NORMAL":1,"TEXCOORD_0":2,"TEXCOORD_1":3},"mode":4}]}],"accessors":[{"bufferView":0,"componentType":5126,"count":54,"type":"VEC3","min":[-0.5,-0.5,-0.5],"max":[0.5,0.5,0.5]},{"bufferView":1,"componentType":5126,"count":54,"type":"VEC3"},{"bufferView":2,"componentType":5126,"count":54,"type":"VEC2"},{"bufferView":3,"componentType":5126,"count":54,"type":"VEC2"},{"bufferView":4,"componentType":5123,"count":144,"type":"SCALAR"}],"bufferViews":[{"buffer":0,"byteOffset":0,"byteLength":648},{"buffer":0,"byteOffset":648,"byteLength":648},{"buffer":0,"byteOffset":1296,"byteLength":432},{"buffer":0,"byteOffset":1728,"byteLength":432},{"buffer":0,"byteOffset":2160,"byteLength":288}],"buffers":[{"byteLength":2448,"uri":"data:application/octet-stream;base64,"}]}
