{"asset":{"generator":"Khronos glTF Blender I/O v1.2.75","version":"2.0"},"scene":0,"scenes":[{"name":"Scene","nodes":[0]}],"nodes":[{"mesh":0,"name":"Mesh"}],"meshes":[{"name":"SM_Pipe_square_tee_transition","primitives":[{"indices":6,"attributes":{"POSITION":0,"NORMAL":1,"COLOR_0":2,"TEXCOORD_0":3,"TEXCOORD_1":4,"TANGENT":5},"mode":4}]}],"accessors":[{"bufferView":0,"componentType":5126,"count":576,"type":"VEC3","min":[-0.27998178482055663,-0.12000001907348633,-0.279981803894043],"max":[0.22000022888183593,0.12000028610229492,0.2799817657470703]},{"bufferView":1,"componentType":5126,"count":576,"type":"VEC3"},{"bufferView":2,"componentType":5126,"count":576,"type":"VEC4"},{"bufferView":3,"componentType":5126,"count":576,"type":"VEC2"},{"bufferView":4,"componentType":5126,"count":576,"type":"VEC2"},{"bufferView":5,"componentType":5126,"count":576,"type":"VEC4"},{"bufferView":6,"componentType":5123,"count":1200,"type":"SCALAR"}],"bufferViews":[{"buffer":0,"byteOffset":0,"byteLength":6912},{"buffer":0,"byteOffset":6912,"byteLength":6912},{"buffer":0,"byteOffset":13824,"byteLength":9216},{"buffer":0,"byteOffset":23040,"byteLength":4608},{"buffer":0,"byteOffset":27648,"byteLength":4608},{"buffer":0,"byteOffset":32256,"byteLength":9216},{"buffer":0,"byteOffset":41472,"byteLength":2400}],"buffers":[{"byteLength":43872,"uri":"data:application/octet-stream;base64,"}]}
