{"asset":{"generator":"Khronos glTF Blender I/O v1.2.75","version":"2.0"},"scene":0,"scenes":[{"name":"Scene","nodes":[0]}],"nodes":[{"mesh":0,"name":"Mesh"}],"meshes":[{"name":"SM_SaleShelf_01","primitives":[{"indices":5,"attributes":{"POSITION":0,"NORMAL":1,"TEXCOORD_0":2,"TEXCOORD_1":3,"TANGENT":4},"mode":4}]}],"accessors":[{"bufferView":0,"componentType":5126,"count":3223,"type":"VEC3","min":[-5.340576171875e-7,0.008721564412117005,4.1961669921875e-7],"max":[0.2999994659423828,1.7114459228515626,0.7999997711181641]},{"bufferView":1,"componentType":5126,"count":3223,"type":"VEC3"},{"bufferView":2,"componentType":5126,"count":3223,"type":"VEC2"},{"bufferView":3,"componentType":5126,"count":3223,"type":"VEC2"},{"bufferView":4,"componentType":5126,"count":3223,"type":"VEC4"},{"bufferView":5,"componentType":5123,"count":7770,"type":"SCALAR"}],"bufferViews":[{"buffer":0,"byteOffset":0,"byteLength":38676},{"buffer":0,"byteOffset":38676,"byteLength":38676},{"buffer":0,"byteOffset":77352,"byteLength":25784},{"buffer":0,"byteOffset":103136,"byteLength":25784},{"buffer":0,"byteOffset":128920,"byteLength":51568},{"buffer":0,"byteOffset":180488,"byteLength":15540}],"buffers":[{"byteLength":196028,"uri":"data:application/octet-stream;base64,"}]}
