{"asset":{"generator":"Khronos glTF Blender I/O v1.2.75","version":"2.0"},"scene":0,"scenes":[{"name":"Scene","nodes":[0]}],"nodes":[{"mesh":0,"name":"Mesh"}],"meshes":[{"name":"SM_pipe_conditioning01_06","primitives":[{"indices":6,"attributes":{"POSITION":0,"NORMAL":1,"COLOR_0":2,"TEXCOORD_0":3,"TEXCOORD_1":4,"TANGENT":5},"mode":4}]}],"accessors":[{"bufferView":0,"componentType":5126,"count":740,"type":"VEC3","min":[-2.000005340576172,-0.40819602966308594,-2.4139421081542967],"max":[0.41350990295410156,0.40819618225097654,0.000036541558802127835]},{"bufferView":1,"componentType":5126,"count":740,"type":"VEC3"},{"bufferView":2,"componentType":5126,"count":740,"type":"VEC4"},{"bufferView":3,"componentType":5126,"count":740,"type":"VEC2"},{"bufferView":4,"componentType":5126,"count":740,"type":"VEC2"},{"bufferView":5,"componentType":5126,"count":740,"type":"VEC4"},{"bufferView":6,"componentType":5123,"count":4104,"type":"SCALAR"}],"bufferViews":[{"buffer":0,"byteOffset":0,"byteLength":8880},{"buffer":0,"byteOffset":8880,"byteLength":8880},{"buffer":0,"byteOffset":17760,"byteLength":11840},{"buffer":0,"byteOffset":29600,"byteLength":5920},{"buffer":0,"byteOffset":35520,"byteLength":5920},{"buffer":0,"byteOffset":41440,"byteLength":11840},{"buffer":0,"byteOffset":53280,"byteLength":8208}],"buffers":[{"byteLength":61488,"uri":"data:application/octet-stream;base64,"}]}
