{"asset":{"generator":"Khronos glTF Blender I/O v1.2.75","version":"2.0"},"scene":0,"scenes":[{"name":"Scene","nodes":[0]}],"nodes":[{"mesh":0,"name":"Mesh"}],"meshes":[{"name":"SM_MetalBeam06","primitives":[{"indices":6,"attributes":{"POSITION":0,"NORMAL":1,"COLOR_0":2,"TEXCOORD_0":3,"TEXCOORD_1":4,"TANGENT":5},"mode":4}]}],"accessors":[{"bufferView":0,"componentType":5126,"count":1206,"type":"VEC3","min":[-0.9770976257324219,0,-1.2556168365478515],"max":[0.9755292510986329,16.76336669921875,1.2556168365478515]},{"bufferView":1,"componentType":5126,"count":1206,"type":"VEC3"},{"bufferView":2,"componentType":5126,"count":1206,"type":"VEC4"},{"bufferView":3,"componentType":5126,"count":1206,"type":"VEC2"},{"bufferView":4,"componentType":5126,"count":1206,"type":"VEC2"},{"bufferView":5,"componentType":5126,"count":1206,"type":"VEC4"},{"bufferView":6,"componentType":5123,"count":2460,"type":"SCALAR"}],"bufferViews":[{"buffer":0,"byteOffset":0,"byteLength":14472},{"buffer":0,"byteOffset":14472,"byteLength":14472},{"buffer":0,"byteOffset":28944,"byteLength":19296},{"buffer":0,"byteOffset":48240,"byteLength":9648},{"buffer":0,"byteOffset":57888,"byteLength":9648},{"buffer":0,"byteOffset":67536,"byteLength":19296},{"buffer":0,"byteOffset":86832,"byteLength":4920}],"buffers":[{"byteLength":91752,"uri":"data:application/octet-stream;base64,"}]}
