{"asset":{"generator":"Khronos glTF Blender I/O v1.2.75","version":"2.0"},"scene":0,"scenes":[{"name":"Scene","nodes":[0]}],"nodes":[{"mesh":0,"name":"Mesh"}],"meshes":[{"name":"SM_PaperBox_01_04","primitives":[{"indices":6,"attributes":{"POSITION":0,"NORMAL":1,"COLOR_0":2,"TEXCOORD_0":3,"TEXCOORD_1":4,"TANGENT":5},"mode":4}]}],"accessors":[{"bufferView":0,"componentType":5126,"count":66,"type":"VEC3","min":[-0.3036305236816406,-0.06111830711364746,-0.4397857666015625],"max":[0.31338918685913086,0.7434977722167969,0.5097773742675781]},{"bufferView":1,"componentType":5126,"count":66,"type":"VEC3"},{"bufferView":2,"componentType":5126,"count":66,"type":"VEC4"},{"bufferView":3,"componentType":5126,"count":66,"type":"VEC2"},{"bufferView":4,"componentType":5126,"count":66,"type":"VEC2"},{"bufferView":5,"componentType":5126,"count":66,"type":"VEC4"},{"bufferView":6,"componentType":5123,"count":66,"type":"SCALAR"}],"bufferViews":[{"buffer":0,"byteOffset":0,"byteLength":792},{"buffer":0,"byteOffset":792,"byteLength":792},{"buffer":0,"byteOffset":1584,"byteLength":1056},{"buffer":0,"byteOffset":2640,"byteLength":528},{"buffer":0,"byteOffset":3168,"byteLength":528},{"buffer":0,"byteOffset":3696,"byteLength":1056},{"buffer":0,"byteOffset":4752,"byteLength":132}],"buffers":[{"byteLength":4884,"uri":"data:application/octet-stream;base64,"}]}
