{"asset":{"generator":"Khronos glTF Blender I/O v1.2.75","version":"2.0"},"scene":0,"scenes":[{"name":"Scene","nodes":[0]}],"nodes":[{"mesh":0,"name":"Mesh"}],"meshes":[{"name":"SM_Pipe_round_moderate","primitives":[{"indices":6,"attributes":{"POSITION":0,"NORMAL":1,"COLOR_0":2,"TEXCOORD_0":3,"TEXCOORD_1":4,"TANGENT":5},"mode":4}]}],"accessors":[{"bufferView":0,"componentType":5126,"count":250,"type":"VEC3","min":[-0.21008636474609374,-0.21008634567260742,-3.0517578125e-7],"max":[0.2100863265991211,0.21008628845214844,0.9999996948242188]},{"bufferView":1,"componentType":5126,"count":250,"type":"VEC3"},{"bufferView":2,"componentType":5126,"count":250,"type":"VEC4"},{"bufferView":3,"componentType":5126,"count":250,"type":"VEC2"},{"bufferView":4,"componentType":5126,"count":250,"type":"VEC2"},{"bufferView":5,"componentType":5126,"count":250,"type":"VEC4"},{"bufferView":6,"componentType":5123,"count":864,"type":"SCALAR"}],"bufferViews":[{"buffer":0,"byteOffset":0,"byteLength":3000},{"buffer":0,"byteOffset":3000,"byteLength":3000},{"buffer":0,"byteOffset":6000,"byteLength":4000},{"buffer":0,"byteOffset":10000,"byteLength":2000},{"buffer":0,"byteOffset":12000,"byteLength":2000},{"buffer":0,"byteOffset":14000,"byteLength":4000},{"buffer":0,"byteOffset":18000,"byteLength":1728}],"buffers":[{"byteLength":19728,"uri":"data:application/octet-stream;base64,"}]}
