{"asset":{"generator":"Khronos glTF Blender I/O v1.2.75","version":"2.0"},"scene":0,"scenes":[{"name":"Scene","nodes":[0]}],"nodes":[{"mesh":0,"name":"Mesh"}],"meshes":[{"name":"SM_CornerBuildingMerged02","primitives":[{"indices":5,"attributes":{"POSITION":0,"NORMAL":1,"TEXCOORD_0":2,"TEXCOORD_1":3,"TANGENT":4},"mode":4}]}],"accessors":[{"bufferView":0,"componentType":5126,"count":2102,"type":"VEC3","min":[-0.3142754745483398,-0.010154281854629516,-0.95],"max":[19.137994384765626,7.1107080078125,19.758748779296877]},{"bufferView":1,"componentType":5126,"count":2102,"type":"VEC3"},{"bufferView":2,"componentType":5126,"count":2102,"type":"VEC2"},{"bufferView":3,"componentType":5126,"count":2102,"type":"VEC2"},{"bufferView":4,"componentType":5126,"count":2102,"type":"VEC4"},{"bufferView":5,"componentType":5123,"count":3744,"type":"SCALAR"}],"bufferViews":[{"buffer":0,"byteOffset":0,"byteLength":25224},{"buffer":0,"byteOffset":25224,"byteLength":25224},{"buffer":0,"byteOffset":50448,"byteLength":16816},{"buffer":0,"byteOffset":67264,"byteLength":16816},{"buffer":0,"byteOffset":84080,"byteLength":33632},{"buffer":0,"byteOffset":117712,"byteLength":7488}],"buffers":[{"byteLength":125200,"uri":"data:application/octet-stream;base64,"}]}
