{"asset":{"generator":"Khronos glTF Blender I/O v1.2.75","version":"2.0"},"scene":0,"scenes":[{"name":"Scene","nodes":[0]}],"nodes":[{"mesh":0,"name":"Mesh"}],"meshes":[{"name":"SM_RoofAntena01","primitives":[{"indices":5,"attributes":{"POSITION":0,"NORMAL":1,"TEXCOORD_0":2,"TEXCOORD_1":3,"TANGENT":4},"mode":4}]}],"accessors":[{"bufferView":0,"componentType":5126,"count":1805,"type":"VEC3","min":[-1.3276991271972656,-0.026511552333831786,-1.0613358306884766],"max":[1.3553276062011719,40.320361328125,1.0376461791992186]},{"bufferView":1,"componentType":5126,"count":1805,"type":"VEC3"},{"bufferView":2,"componentType":5126,"count":1805,"type":"VEC2"},{"bufferView":3,"componentType":5126,"count":1805,"type":"VEC2"},{"bufferView":4,"componentType":5126,"count":1805,"type":"VEC4"},{"bufferView":5,"componentType":5123,"count":3294,"type":"SCALAR"}],"bufferViews":[{"buffer":0,"byteOffset":0,"byteLength":21660},{"buffer":0,"byteOffset":21660,"byteLength":21660},{"buffer":0,"byteOffset":43320,"byteLength":14440},{"buffer":0,"byteOffset":57760,"byteLength":14440},{"buffer":0,"byteOffset":72200,"byteLength":28880},{"buffer":0,"byteOffset":101080,"byteLength":6588}],"buffers":[{"byteLength":107668,"uri":"data:application/octet-stream;base64,"}]}
