{"asset":{"generator":"Khronos glTF Blender I/O v1.2.75","version":"2.0"},"scene":0,"scenes":[{"name":"Scene","nodes":[0]}],"nodes":[{"mesh":0,"name":"Mesh"}],"meshes":[{"name":"SM_TrashCan","primitives":[{"indices":5,"attributes":{"POSITION":0,"NORMAL":1,"TEXCOORD_0":2,"TEXCOORD_1":3,"TANGENT":4},"mode":4}]}],"accessors":[{"bufferView":0,"componentType":5126,"count":117,"type":"VEC3","min":[-0.21558090209960937,-1.3698856946575688e-8,-7.629394076502649e-8],"max":[0.21534481048583984,0.9,0.31822757720947265]},{"bufferView":1,"componentType":5126,"count":117,"type":"VEC3"},{"bufferView":2,"componentType":5126,"count":117,"type":"VEC2"},{"bufferView":3,"componentType":5126,"count":117,"type":"VEC2"},{"bufferView":4,"componentType":5126,"count":117,"type":"VEC4"},{"bufferView":5,"componentType":5123,"count":300,"type":"SCALAR"}],"bufferViews":[{"buffer":0,"byteOffset":0,"byteLength":1404},{"buffer":0,"byteOffset":1404,"byteLength":1404},{"buffer":0,"byteOffset":2808,"byteLength":936},{"buffer":0,"byteOffset":3744,"byteLength":936},{"buffer":0,"byteOffset":4680,"byteLength":1872},{"buffer":0,"byteOffset":6552,"byteLength":600}],"buffers":[{"byteLength":7152,"uri":"data:application/octet-stream;base64,"}]}
