{"asset":{"generator":"Khronos glTF Blender I/O v1.2.75","version":"2.0"},"scene":0,"scenes":[{"name":"Scene","nodes":[0]}],"nodes":[{"mesh":0,"name":"Mesh"}],"meshes":[{"name":"SM_GroundDetail02","primitives":[{"indices":5,"attributes":{"POSITION":0,"NORMAL":1,"TEXCOORD_0":2,"TEXCOORD_1":3,"TANGENT":4},"mode":4}]}],"accessors":[{"bufferView":0,"componentType":5126,"count":56,"type":"VEC3","min":[-0.37251220703125,2.288818359375e-7,-0.35664306640625],"max":[0.3725115966796875,2.8233798217773436,0.3566461181640625]},{"bufferView":1,"componentType":5126,"count":56,"type":"VEC3"},{"bufferView":2,"componentType":5126,"count":56,"type":"VEC2"},{"bufferView":3,"componentType":5126,"count":56,"type":"VEC2"},{"bufferView":4,"componentType":5126,"count":56,"type":"VEC4"},{"bufferView":5,"componentType":5123,"count":120,"type":"SCALAR"}],"bufferViews":[{"buffer":0,"byteOffset":0,"byteLength":672},{"buffer":0,"byteOffset":672,"byteLength":672},{"buffer":0,"byteOffset":1344,"byteLength":448},{"buffer":0,"byteOffset":1792,"byteLength":448},{"buffer":0,"byteOffset":2240,"byteLength":896},{"buffer":0,"byteOffset":3136,"byteLength":240}],"buffers":[{"byteLength":3376,"uri":"data:application/octet-stream;base64,"}]}
