{"asset":{"generator":"Khronos glTF Blender I/O v1.2.75","version":"2.0"},"scene":0,"scenes":[{"name":"Scene","nodes":[0]}],"nodes":[{"mesh":0,"name":"Mesh"}],"meshes":[{"name":"SM_MetalBeam05","primitives":[{"indices":6,"attributes":{"POSITION":0,"NORMAL":1,"COLOR_0":2,"TEXCOORD_0":3,"TEXCOORD_1":4,"TANGENT":5},"mode":4}]}],"accessors":[{"bufferView":0,"componentType":5126,"count":84,"type":"VEC3","min":[-0.9032135009765625,-0.709647216796875,-0.050480194091796875],"max":[0.90321533203125,0.7096466064453125,0.050480194091796875]},{"bufferView":1,"componentType":5126,"count":84,"type":"VEC3"},{"bufferView":2,"componentType":5126,"count":84,"type":"VEC4"},{"bufferView":3,"componentType":5126,"count":84,"type":"VEC2"},{"bufferView":4,"componentType":5126,"count":84,"type":"VEC2"},{"bufferView":5,"componentType":5126,"count":84,"type":"VEC4"},{"bufferView":6,"componentType":5123,"count":276,"type":"SCALAR"}],"bufferViews":[{"buffer":0,"byteOffset":0,"byteLength":1008},{"buffer":0,"byteOffset":1008,"byteLength":1008},{"buffer":0,"byteOffset":2016,"byteLength":1344},{"buffer":0,"byteOffset":3360,"byteLength":672},{"buffer":0,"byteOffset":4032,"byteLength":672},{"buffer":0,"byteOffset":4704,"byteLength":1344},{"buffer":0,"byteOffset":6048,"byteLength":552}],"buffers":[{"byteLength":6600,"uri":"data:application/octet-stream;base64,"}]}
