{"asset":{"generator":"Khronos glTF Blender I/O v1.2.75","version":"2.0"},"scene":0,"scenes":[{"name":"Scene","nodes":[0]}],"nodes":[{"mesh":0,"name":"Mesh"}],"meshes":[{"name":"SM_BackgroundBuilding02","primitives":[{"indices":5,"attributes":{"POSITION":0,"NORMAL":1,"TEXCOORD_0":2,"TEXCOORD_1":3,"TANGENT":4},"mode":4}]}],"accessors":[{"bufferView":0,"componentType":5126,"count":952,"type":"VEC3","min":[-10.016139526367187,-6.103515625e-7,-10.365648193359375],"max":[10.012122802734375,50.322236328125,10.36644775390625]},{"bufferView":1,"componentType":5126,"count":952,"type":"VEC3"},{"bufferView":2,"componentType":5126,"count":952,"type":"VEC2"},{"bufferView":3,"componentType":5126,"count":952,"type":"VEC2"},{"bufferView":4,"componentType":5126,"count":952,"type":"VEC4"},{"bufferView":5,"componentType":5123,"count":3282,"type":"SCALAR"}],"bufferViews":[{"buffer":0,"byteOffset":0,"byteLength":11424},{"buffer":0,"byteOffset":11424,"byteLength":11424},{"buffer":0,"byteOffset":22848,"byteLength":7616},{"buffer":0,"byteOffset":30464,"byteLength":7616},{"buffer":0,"byteOffset":38080,"byteLength":15232},{"buffer":0,"byteOffset":53312,"byteLength":6564}],"buffers":[{"byteLength":59876,"uri":"data:application/octet-stream;base64,"}]}
