{"asset":{"generator":"Khronos glTF Blender I/O v1.2.75","version":"2.0"},"scene":0,"scenes":[{"name":"Scene","nodes":[0]}],"nodes":[{"mesh":0,"name":"Mesh"}],"meshes":[{"name":"SM_BackgroundBuilding02","primitives":[{"indices":5,"attributes":{"POSITION":0,"NORMAL":1,"TEXCOORD_0":2,"TEXCOORD_1":3,"TANGENT":4},"mode":4}]}],"accessors":[{"bufferView":0,"componentType":5126,"count":588,"type":"VEC3","min":[-10.016139526367187,-6.103515625e-7,-10.365648193359375],"max":[10.012122802734375,50.322236328125,10.36644775390625]},{"bufferView":1,"componentType":5126,"count":588,"type":"VEC3"},{"bufferView":2,"componentType":5126,"count":588,"type":"VEC2"},{"bufferView":3,"componentType":5126,"count":588,"type":"VEC2"},{"bufferView":4,"componentType":5126,"count":588,"type":"VEC4"},{"bufferView":5,"componentType":5123,"count":1638,"type":"SCALAR"}],"bufferViews":[{"buffer":0,"byteOffset":0,"byteLength":7056},{"buffer":0,"byteOffset":7056,"byteLength":7056},{"buffer":0,"byteOffset":14112,"byteLength":4704},{"buffer":0,"byteOffset":18816,"byteLength":4704},{"buffer":0,"byteOffset":23520,"byteLength":9408},{"buffer":0,"byteOffset":32928,"byteLength":3276}],"buffers":[{"byteLength":36204,"uri":"data:application/octet-stream;base64,"}]}
