{"asset":{"generator":"Khronos glTF Blender I/O v1.2.75","version":"2.0"},"scene":0,"scenes":[{"name":"Scene","nodes":[0]}],"nodes":[{"mesh":0,"name":"Mesh"}],"meshes":[{"name":"SM_Beam_2m","primitives":[{"indices":5,"attributes":{"POSITION":0,"NORMAL":1,"TEXCOORD_0":2,"TEXCOORD_1":3,"TANGENT":4},"mode":4}]}],"accessors":[{"bufferView":0,"componentType":5126,"count":94,"type":"VEC3","min":[-1,-0.12142547607421875,-0.005105310678482055],"max":[1,0.023148677349090575,0.5181349563598633]},{"bufferView":1,"componentType":5126,"count":94,"type":"VEC3"},{"bufferView":2,"componentType":5126,"count":94,"type":"VEC2"},{"bufferView":3,"componentType":5126,"count":94,"type":"VEC2"},{"bufferView":4,"componentType":5126,"count":94,"type":"VEC4"},{"bufferView":5,"componentType":5123,"count":156,"type":"SCALAR"}],"bufferViews":[{"buffer":0,"byteOffset":0,"byteLength":1128},{"buffer":0,"byteOffset":1128,"byteLength":1128},{"buffer":0,"byteOffset":2256,"byteLength":752},{"buffer":0,"byteOffset":3008,"byteLength":752},{"buffer":0,"byteOffset":3760,"byteLength":1504},{"buffer":0,"byteOffset":5264,"byteLength":312}],"buffers":[{"byteLength":5576,"uri":"data:application/octet-stream;base64,"}]}
