{"asset":{"generator":"Khronos glTF Blender I/O v1.2.75","version":"2.0"},"scene":0,"scenes":[{"name":"Scene","nodes":[0]}],"nodes":[{"mesh":0,"name":"Mesh"}],"meshes":[{"name":"SM_Beam_2m","primitives":[{"indices":5,"attributes":{"POSITION":0,"NORMAL":1,"TEXCOORD_0":2,"TEXCOORD_1":3,"TANGENT":4},"mode":4}]}],"accessors":[{"bufferView":0,"componentType":5126,"count":248,"type":"VEC3","min":[-1,-0.12142547607421875,-0.005105310678482055],"max":[1,0.023148677349090575,0.5181349563598633]},{"bufferView":1,"componentType":5126,"count":248,"type":"VEC3"},{"bufferView":2,"componentType":5126,"count":248,"type":"VEC2"},{"bufferView":3,"componentType":5126,"count":248,"type":"VEC2"},{"bufferView":4,"componentType":5126,"count":248,"type":"VEC4"},{"bufferView":5,"componentType":5123,"count":630,"type":"SCALAR"}],"bufferViews":[{"buffer":0,"byteOffset":0,"byteLength":2976},{"buffer":0,"byteOffset":2976,"byteLength":2976},{"buffer":0,"byteOffset":5952,"byteLength":1984},{"buffer":0,"byteOffset":7936,"byteLength":1984},{"buffer":0,"byteOffset":9920,"byteLength":3968},{"buffer":0,"byteOffset":13888,"byteLength":1260}],"buffers":[{"byteLength":15148,"uri":"data:application/octet-stream;base64,"}]}
