{"asset":{"generator":"Khronos glTF Blender I/O v1.2.75","version":"2.0"},"scene":0,"scenes":[{"name":"Scene","nodes":[0]}],"nodes":[{"mesh":0,"name":"Mesh"}],"meshes":[{"name":"SM_Rail01","primitives":[{"indices":6,"attributes":{"POSITION":0,"NORMAL":1,"COLOR_0":2,"TEXCOORD_0":3,"TEXCOORD_1":4,"TANGENT":5},"mode":4}]}],"accessors":[{"bufferView":0,"componentType":5126,"count":371,"type":"VEC3","min":[-4.079632263183594,-0.14368293762207032,-3.999999694824219],"max":[1.0660197448730468,0.7722813415527344,2.489412841796875]},{"bufferView":1,"componentType":5126,"count":371,"type":"VEC3"},{"bufferView":2,"componentType":5126,"count":371,"type":"VEC4"},{"bufferView":3,"componentType":5126,"count":371,"type":"VEC2"},{"bufferView":4,"componentType":5126,"count":371,"type":"VEC2"},{"bufferView":5,"componentType":5126,"count":371,"type":"VEC4"},{"bufferView":6,"componentType":5123,"count":1386,"type":"SCALAR"}],"bufferViews":[{"buffer":0,"byteOffset":0,"byteLength":4452},{"buffer":0,"byteOffset":4452,"byteLength":4452},{"buffer":0,"byteOffset":8904,"byteLength":5936},{"buffer":0,"byteOffset":14840,"byteLength":2968},{"buffer":0,"byteOffset":17808,"byteLength":2968},{"buffer":0,"byteOffset":20776,"byteLength":5936},{"buffer":0,"byteOffset":26712,"byteLength":2772}],"buffers":[{"byteLength":29484,"uri":"data:application/octet-stream;base64,"}]}
