{"asset":{"generator":"Khronos glTF Blender I/O v1.2.75","version":"2.0"},"scene":0,"scenes":[{"name":"Scene","nodes":[0]}],"nodes":[{"mesh":0,"name":"Mesh"}],"meshes":[{"name":"SM_PipeGroup21","primitives":[{"indices":5,"attributes":{"POSITION":0,"NORMAL":1,"TEXCOORD_0":2,"TEXCOORD_1":3,"TANGENT":4},"mode":4}]}],"accessors":[{"bufferView":0,"componentType":5126,"count":2555,"type":"VEC3","min":[-7.4429052734375,-1.2357030487060547,-0.3472597885131836],"max":[0.8957283020019531,1.2498358917236327,0.6335272598266601]},{"bufferView":1,"componentType":5126,"count":2555,"type":"VEC3"},{"bufferView":2,"componentType":5126,"count":2555,"type":"VEC2"},{"bufferView":3,"componentType":5126,"count":2555,"type":"VEC2"},{"bufferView":4,"componentType":5126,"count":2555,"type":"VEC4"},{"bufferView":5,"componentType":5123,"count":6996,"type":"SCALAR"}],"bufferViews":[{"buffer":0,"byteOffset":0,"byteLength":30660},{"buffer":0,"byteOffset":30660,"byteLength":30660},{"buffer":0,"byteOffset":61320,"byteLength":20440},{"buffer":0,"byteOffset":81760,"byteLength":20440},{"buffer":0,"byteOffset":102200,"byteLength":40880},{"buffer":0,"byteOffset":143080,"byteLength":13992}],"buffers":[{"byteLength":157072,"uri":"data:application/octet-stream;base64,"}]}
