{"asset":{"generator":"Khronos glTF Blender I/O v1.2.75","version":"2.0"},"scene":0,"scenes":[{"name":"Scene","nodes":[0]}],"nodes":[{"mesh":0,"name":"Mesh"}],"meshes":[{"name":"SM_PipeGroup21","primitives":[{"indices":5,"attributes":{"POSITION":0,"NORMAL":1,"TEXCOORD_0":2,"TEXCOORD_1":3,"TANGENT":4},"mode":4}]}],"accessors":[{"bufferView":0,"componentType":5126,"count":4480,"type":"VEC3","min":[-7.4429052734375,-1.2357030487060547,-0.3472597885131836],"max":[0.8957283020019531,1.2498358917236327,0.6335272598266601]},{"bufferView":1,"componentType":5126,"count":4480,"type":"VEC3"},{"bufferView":2,"componentType":5126,"count":4480,"type":"VEC2"},{"bufferView":3,"componentType":5126,"count":4480,"type":"VEC2"},{"bufferView":4,"componentType":5126,"count":4480,"type":"VEC4"},{"bufferView":5,"componentType":5123,"count":13992,"type":"SCALAR"}],"bufferViews":[{"buffer":0,"byteOffset":0,"byteLength":53760},{"buffer":0,"byteOffset":53760,"byteLength":53760},{"buffer":0,"byteOffset":107520,"byteLength":35840},{"buffer":0,"byteOffset":143360,"byteLength":35840},{"buffer":0,"byteOffset":179200,"byteLength":71680},{"buffer":0,"byteOffset":250880,"byteLength":27984}],"buffers":[{"byteLength":278864,"uri":"data:application/octet-stream;base64,"}]}
