{"asset":{"generator":"Khronos glTF Blender I/O v1.2.75","version":"2.0"},"scene":0,"scenes":[{"name":"Scene","nodes":[0]}],"nodes":[{"mesh":0,"name":"Mesh"}],"meshes":[{"name":"SM_Building09","primitives":[{"indices":5,"attributes":{"POSITION":0,"NORMAL":1,"TEXCOORD_0":2,"TEXCOORD_1":3,"TANGENT":4},"mode":4}]}],"accessors":[{"bufferView":0,"componentType":5126,"count":804,"type":"VEC3","min":[6.087731526349671e-7,-0.12051204681396484,-1.0147872161865235],"max":[10,10.174866943359374,6.103515625e-7]},{"bufferView":1,"componentType":5126,"count":804,"type":"VEC3"},{"bufferView":2,"componentType":5126,"count":804,"type":"VEC2"},{"bufferView":3,"componentType":5126,"count":804,"type":"VEC2"},{"bufferView":4,"componentType":5126,"count":804,"type":"VEC4"},{"bufferView":5,"componentType":5123,"count":1404,"type":"SCALAR"}],"bufferViews":[{"buffer":0,"byteOffset":0,"byteLength":9648},{"buffer":0,"byteOffset":9648,"byteLength":9648},{"buffer":0,"byteOffset":19296,"byteLength":6432},{"buffer":0,"byteOffset":25728,"byteLength":6432},{"buffer":0,"byteOffset":32160,"byteLength":12864},{"buffer":0,"byteOffset":45024,"byteLength":2808}],"buffers":[{"byteLength":47832,"uri":"data:application/octet-stream;base64,"}]}
