{"asset":{"generator":"Khronos glTF Blender I/O v1.2.75","version":"2.0"},"scene":0,"scenes":[{"name":"Scene","nodes":[0]}],"nodes":[{"mesh":0,"name":"Mesh"}],"meshes":[{"name":"SM_Banner_01","primitives":[{"indices":5,"attributes":{"POSITION":0,"NORMAL":1,"TEXCOORD_0":2,"TEXCOORD_1":3,"TANGENT":4},"mode":4}]}],"accessors":[{"bufferView":0,"componentType":5126,"count":28,"type":"VEC3","min":[-2.5,-0.5,-2.842170943040401e-16],"max":[2.5,0.5,0.1]},{"bufferView":1,"componentType":5126,"count":28,"type":"VEC3"},{"bufferView":2,"componentType":5126,"count":28,"type":"VEC2"},{"bufferView":3,"componentType":5126,"count":28,"type":"VEC2"},{"bufferView":4,"componentType":5126,"count":28,"type":"VEC4"},{"bufferView":5,"componentType":5123,"count":54,"type":"SCALAR"}],"bufferViews":[{"buffer":0,"byteOffset":0,"byteLength":336},{"buffer":0,"byteOffset":336,"byteLength":336},{"buffer":0,"byteOffset":672,"byteLength":224},{"buffer":0,"byteOffset":896,"byteLength":224},{"buffer":0,"byteOffset":1120,"byteLength":448},{"buffer":0,"byteOffset":1568,"byteLength":108}],"buffers":[{"byteLength":1676,"uri":"data:application/octet-stream;base64,"}]}
