{"asset":{"generator":"Khronos glTF Blender I/O v1.2.75","version":"2.0"},"scene":0,"scenes":[{"name":"Scene","nodes":[0]}],"nodes":[{"mesh":0,"name":"Mesh"}],"meshes":[{"name":"SM_Building03_01","primitives":[{"indices":5,"attributes":{"POSITION":0,"NORMAL":1,"TEXCOORD_0":2,"TEXCOORD_1":3,"TANGENT":4},"mode":4},{"indices":11,"attributes":{"POSITION":6,"NORMAL":7,"TEXCOORD_0":8,"TEXCOORD_1":9,"TANGENT":10},"mode":4}]}],"accessors":[{"bufferView":0,"componentType":5126,"count":52,"type":"VEC3","min":[-8,0,7.62939453125e-8],"max":[3.0517578125e-7,5.652130126953125,0.17508552551269532]},{"bufferView":1,"componentType":5126,"count":52,"type":"VEC3"},{"bufferView":2,"componentType":5126,"count":52,"type":"VEC2"},{"bufferView":3,"componentType":5126,"count":52,"type":"VEC2"},{"bufferView":4,"componentType":5126,"count":52,"type":"VEC4"},{"bufferView":5,"componentType":5123,"count":96,"type":"SCALAR"},{"bufferView":6,"componentType":5126,"count":8,"type":"VEC3","min":[-8,0,7.62939453125e-8],"max":[3.0517578125e-7,5.652130126953125,0.17508552551269532]},{"bufferView":7,"componentType":5126,"count":8,"type":"VEC3"},{"bufferView":8,"componentType":5126,"count":8,"type":"VEC2"},{"bufferView":9,"componentType":5126,"count":8,"type":"VEC2"},{"bufferView":10,"componentType":5126,"count":8,"type":"VEC4"},{"bufferView":11,"componentType":5123,"count":12,"type":"SCALAR"}],"bufferViews":[{"buffer":0,"byteOffset":0,"byteLength":624},{"buffer":0,"byteOffset":624,"byteLength":624},{"buffer":0,"byteOffset":1248,"byteLength":416},{"buffer":0,"byteOffset":1664,"byteLength":416},{"buffer":0,"byteOffset":2080,"byteLength":832},{"buffer":0,"byteOffset":2912,"byteLength":192},{"buffer":1,"byteOffset":0,"byteLength":96},{"buffer":1,"byteOffset":96,"byteLength":96},{"buffer":1,"byteOffset":192,"byteLength":64},{"buffer":1,"byteOffset":256,"byteLength":64},{"buffer":1,"byteOffset":320,"byteLength":128},{"buffer":1,"byteOffset":448,"byteLength":24}],"buffers":[{"byteLength":3104,"uri":"data:application/octet-stream;base64,"},{"byteLength":472,"uri":"data:application/octet-stream;base64,"}]}
