{"asset":{"generator":"Khronos glTF Blender I/O v1.2.75","version":"2.0"},"scene":0,"scenes":[{"name":"Scene","nodes":[0]}],"nodes":[{"mesh":0,"name":"Mesh"}],"meshes":[{"name":"SM_PipeGroup12","primitives":[{"indices":5,"attributes":{"POSITION":0,"NORMAL":1,"TEXCOORD_0":2,"TEXCOORD_1":3,"TANGENT":4},"mode":4}]}],"accessors":[{"bufferView":0,"componentType":5126,"count":3759,"type":"VEC3","min":[-8.349990844726562,-0.7051673889160156,-2.4005870056152343],"max":[0.3012666130065918,24.7651708984375,30.0073828125]},{"bufferView":1,"componentType":5126,"count":3759,"type":"VEC3"},{"bufferView":2,"componentType":5126,"count":3759,"type":"VEC2"},{"bufferView":3,"componentType":5126,"count":3759,"type":"VEC2"},{"bufferView":4,"componentType":5126,"count":3759,"type":"VEC4"},{"bufferView":5,"componentType":5123,"count":6495,"type":"SCALAR"}],"bufferViews":[{"buffer":0,"byteOffset":0,"byteLength":45108},{"buffer":0,"byteOffset":45108,"byteLength":45108},{"buffer":0,"byteOffset":90216,"byteLength":30072},{"buffer":0,"byteOffset":120288,"byteLength":30072},{"buffer":0,"byteOffset":150360,"byteLength":60144},{"buffer":0,"byteOffset":210504,"byteLength":12990}],"buffers":[{"byteLength":223494,"uri":"data:application/octet-stream;base64,"}]}
