{"asset":{"generator":"Khronos glTF Blender I/O v1.2.75","version":"2.0"},"scene":0,"scenes":[{"name":"Scene","nodes":[0]}],"nodes":[{"mesh":0,"name":"Mesh"}],"meshes":[{"name":"SM_Pipe02","primitives":[{"indices":5,"attributes":{"POSITION":0,"NORMAL":1,"TEXCOORD_0":2,"TEXCOORD_1":3,"TANGENT":4},"mode":4}]}],"accessors":[{"bufferView":0,"componentType":5126,"count":134,"type":"VEC3","min":[-0.4174687576293945,-1.2361078643798828,-0.43017662048339844],"max":[0.3989254379272461,0.4147742462158203,1.2382671356201171]},{"bufferView":1,"componentType":5126,"count":134,"type":"VEC3"},{"bufferView":2,"componentType":5126,"count":134,"type":"VEC2"},{"bufferView":3,"componentType":5126,"count":134,"type":"VEC2"},{"bufferView":4,"componentType":5126,"count":134,"type":"VEC4"},{"bufferView":5,"componentType":5123,"count":393,"type":"SCALAR"}],"bufferViews":[{"buffer":0,"byteOffset":0,"byteLength":1608},{"buffer":0,"byteOffset":1608,"byteLength":1608},{"buffer":0,"byteOffset":3216,"byteLength":1072},{"buffer":0,"byteOffset":4288,"byteLength":1072},{"buffer":0,"byteOffset":5360,"byteLength":2144},{"buffer":0,"byteOffset":7504,"byteLength":786}],"buffers":[{"byteLength":8290,"uri":"data:application/octet-stream;base64,"}]}
