{"asset":{"generator":"Khronos glTF Blender I/O v1.2.75","version":"2.0"},"scene":0,"scenes":[{"name":"Scene","nodes":[0]}],"nodes":[{"mesh":0,"name":"Mesh"}],"meshes":[{"name":"SM_Building06_01","primitives":[{"indices":5,"attributes":{"POSITION":0,"NORMAL":1,"TEXCOORD_0":2,"TEXCOORD_1":3,"TANGENT":4},"mode":4}]}],"accessors":[{"bufferView":0,"componentType":5126,"count":242,"type":"VEC3","min":[-0.0000018310546875,-0.000002593994140625,-0.3194394302368164],"max":[10.000000610351563,12.000001220703124,0.22975889205932618]},{"bufferView":1,"componentType":5126,"count":242,"type":"VEC3"},{"bufferView":2,"componentType":5126,"count":242,"type":"VEC2"},{"bufferView":3,"componentType":5126,"count":242,"type":"VEC2"},{"bufferView":4,"componentType":5126,"count":242,"type":"VEC4"},{"bufferView":5,"componentType":5123,"count":438,"type":"SCALAR"}],"bufferViews":[{"buffer":0,"byteOffset":0,"byteLength":2904},{"buffer":0,"byteOffset":2904,"byteLength":2904},{"buffer":0,"byteOffset":5808,"byteLength":1936},{"buffer":0,"byteOffset":7744,"byteLength":1936},{"buffer":0,"byteOffset":9680,"byteLength":3872},{"buffer":0,"byteOffset":13552,"byteLength":876}],"buffers":[{"byteLength":14428,"uri":"data:application/octet-stream;base64,"}]}
