{"asset":{"generator":"Khronos glTF Blender I/O v1.2.75","version":"2.0"},"scene":0,"scenes":[{"name":"Scene","nodes":[0]}],"nodes":[{"mesh":0,"name":"Mesh"}],"meshes":[{"name":"SM_gun02","primitives":[{"indices":5,"attributes":{"POSITION":0,"NORMAL":1,"TEXCOORD_0":2,"TEXCOORD_1":3,"TANGENT":4},"mode":4}]}],"accessors":[{"bufferView":0,"componentType":5126,"count":1665,"type":"VEC3","min":[-0.12211714744567871,0.05450518608093262,-0.01782770872116089],"max":[0.17466438293457032,0.24322282791137695,0.01782770872116089]},{"bufferView":1,"componentType":5126,"count":1665,"type":"VEC3"},{"bufferView":2,"componentType":5126,"count":1665,"type":"VEC2"},{"bufferView":3,"componentType":5126,"count":1665,"type":"VEC2"},{"bufferView":4,"componentType":5126,"count":1665,"type":"VEC4"},{"bufferView":5,"componentType":5123,"count":4776,"type":"SCALAR"}],"bufferViews":[{"buffer":0,"byteOffset":0,"byteLength":19980},{"buffer":0,"byteOffset":19980,"byteLength":19980},{"buffer":0,"byteOffset":39960,"byteLength":13320},{"buffer":0,"byteOffset":53280,"byteLength":13320},{"buffer":0,"byteOffset":66600,"byteLength":26640},{"buffer":0,"byteOffset":93240,"byteLength":9552}],"buffers":[{"byteLength":102792,"uri":"data:application/octet-stream;base64,"}]}
