{"asset":{"generator":"Khronos glTF Blender I/O v1.2.75","version":"2.0"},"scene":0,"scenes":[{"name":"Scene","nodes":[0]}],"nodes":[{"mesh":0,"name":"Mesh"}],"meshes":[{"name":"SM_MetalBeam15","primitives":[{"indices":6,"attributes":{"POSITION":0,"NORMAL":1,"COLOR_0":2,"TEXCOORD_0":3,"TEXCOORD_1":4,"TANGENT":5},"mode":4}]}],"accessors":[{"bufferView":0,"componentType":5126,"count":308,"type":"VEC3","min":[-6.103515625e-7,-0.27330860137939456,-0.4535906982421875],"max":[12,0.27330860137939456,0.45359073638916014]},{"bufferView":1,"componentType":5126,"count":308,"type":"VEC3"},{"bufferView":2,"componentType":5126,"count":308,"type":"VEC4"},{"bufferView":3,"componentType":5126,"count":308,"type":"VEC2"},{"bufferView":4,"componentType":5126,"count":308,"type":"VEC2"},{"bufferView":5,"componentType":5126,"count":308,"type":"VEC4"},{"bufferView":6,"componentType":5123,"count":960,"type":"SCALAR"}],"bufferViews":[{"buffer":0,"byteOffset":0,"byteLength":3696},{"buffer":0,"byteOffset":3696,"byteLength":3696},{"buffer":0,"byteOffset":7392,"byteLength":4928},{"buffer":0,"byteOffset":12320,"byteLength":2464},{"buffer":0,"byteOffset":14784,"byteLength":2464},{"buffer":0,"byteOffset":17248,"byteLength":4928},{"buffer":0,"byteOffset":22176,"byteLength":1920}],"buffers":[{"byteLength":24096,"uri":"data:application/octet-stream;base64,"}]}
