{"asset":{"generator":"Khronos glTF Blender I/O v1.2.75","version":"2.0"},"scene":0,"scenes":[{"name":"Scene","nodes":[0]}],"nodes":[{"mesh":0,"name":"Mesh"}],"meshes":[{"name":"SM_PlatformGrill_01","primitives":[{"indices":6,"attributes":{"POSITION":0,"NORMAL":1,"COLOR_0":2,"TEXCOORD_0":3,"TEXCOORD_1":4,"TANGENT":5},"mode":4}]}],"accessors":[{"bufferView":0,"componentType":5126,"count":576,"type":"VEC3","min":[-0.08019456863403321,0.00011827530339360237,-1.0000001525878905],"max":[1.0928746795654296,0.19366186141967773,1.1858364911562454e-17]},{"bufferView":1,"componentType":5126,"count":576,"type":"VEC3"},{"bufferView":2,"componentType":5126,"count":576,"type":"VEC4"},{"bufferView":3,"componentType":5126,"count":576,"type":"VEC2"},{"bufferView":4,"componentType":5126,"count":576,"type":"VEC2"},{"bufferView":5,"componentType":5126,"count":576,"type":"VEC4"},{"bufferView":6,"componentType":5123,"count":888,"type":"SCALAR"}],"bufferViews":[{"buffer":0,"byteOffset":0,"byteLength":6912},{"buffer":0,"byteOffset":6912,"byteLength":6912},{"buffer":0,"byteOffset":13824,"byteLength":9216},{"buffer":0,"byteOffset":23040,"byteLength":4608},{"buffer":0,"byteOffset":27648,"byteLength":4608},{"buffer":0,"byteOffset":32256,"byteLength":9216},{"buffer":0,"byteOffset":41472,"byteLength":1776}],"buffers":[{"byteLength":43248,"uri":"data:application/octet-stream;base64,"}]}
