{"asset":{"generator":"Khronos glTF Blender I/O v1.2.75","version":"2.0"},"scene":0,"scenes":[{"name":"Scene","nodes":[0]}],"nodes":[{"mesh":0,"name":"Mesh"}],"meshes":[{"name":"SM_Building02_01","primitives":[{"indices":5,"attributes":{"POSITION":0,"NORMAL":1,"TEXCOORD_0":2,"TEXCOORD_1":3,"TANGENT":4},"mode":4},{"indices":11,"attributes":{"POSITION":6,"NORMAL":7,"TEXCOORD_0":8,"TEXCOORD_1":9,"TANGENT":10},"mode":4}]}],"accessors":[{"bufferView":0,"componentType":5126,"count":3,"type":"VEC3","min":[-4.004649353027344,-0.01401464581489563,-0.16824569702148437],"max":[0.087445707321167,7.066323852539062,0.4157377624511719]},{"bufferView":1,"componentType":5126,"count":3,"type":"VEC3"},{"bufferView":2,"componentType":5126,"count":3,"type":"VEC2"},{"bufferView":3,"componentType":5126,"count":3,"type":"VEC2"},{"bufferView":4,"componentType":5126,"count":3,"type":"VEC4"},{"bufferView":5,"componentType":5123,"count":3,"type":"SCALAR"},{"bufferView":6,"componentType":5126,"count":15,"type":"VEC3","min":[-4.004649353027344,-0.01401464581489563,-0.16824569702148437],"max":[0.087445707321167,7.066323852539062,0.4157377624511719]},{"bufferView":7,"componentType":5126,"count":15,"type":"VEC3"},{"bufferView":8,"componentType":5126,"count":15,"type":"VEC2"},{"bufferView":9,"componentType":5126,"count":15,"type":"VEC2"},{"bufferView":10,"componentType":5126,"count":15,"type":"VEC4"},{"bufferView":11,"componentType":5123,"count":21,"type":"SCALAR"}],"bufferViews":[{"buffer":0,"byteOffset":0,"byteLength":36},{"buffer":0,"byteOffset":36,"byteLength":36},{"buffer":0,"byteOffset":72,"byteLength":24},{"buffer":0,"byteOffset":96,"byteLength":24},{"buffer":0,"byteOffset":120,"byteLength":48},{"buffer":0,"byteOffset":168,"byteLength":6},{"buffer":1,"byteOffset":0,"byteLength":180},{"buffer":1,"byteOffset":180,"byteLength":180},{"buffer":1,"byteOffset":360,"byteLength":120},{"buffer":1,"byteOffset":480,"byteLength":120},{"buffer":1,"byteOffset":600,"byteLength":240},{"buffer":1,"byteOffset":840,"byteLength":42}],"buffers":[{"byteLength":174,"uri":"data:application/octet-stream;base64,"},{"byteLength":882,"uri":"data:application/octet-stream;base64,"}]}
