{"asset":{"generator":"Khronos glTF Blender I/O v1.2.75","version":"2.0"},"scene":0,"scenes":[{"name":"Scene","nodes":[0]}],"nodes":[{"mesh":0,"name":"Mesh"}],"meshes":[{"name":"SM_Handrail_02","primitives":[{"indices":5,"attributes":{"POSITION":0,"NORMAL":1,"TEXCOORD_0":2,"TEXCOORD_1":3,"TANGENT":4},"mode":4}]}],"accessors":[{"bufferView":0,"componentType":5126,"count":196,"type":"VEC3","min":[-0.075,-1.8645244988799507e-16,-3.044999694824219],"max":[0.075,0.8500000762939454,3.044999694824219]},{"bufferView":1,"componentType":5126,"count":196,"type":"VEC3"},{"bufferView":2,"componentType":5126,"count":196,"type":"VEC2"},{"bufferView":3,"componentType":5126,"count":196,"type":"VEC2"},{"bufferView":4,"componentType":5126,"count":196,"type":"VEC4"},{"bufferView":5,"componentType":5123,"count":396,"type":"SCALAR"}],"bufferViews":[{"buffer":0,"byteOffset":0,"byteLength":2352},{"buffer":0,"byteOffset":2352,"byteLength":2352},{"buffer":0,"byteOffset":4704,"byteLength":1568},{"buffer":0,"byteOffset":6272,"byteLength":1568},{"buffer":0,"byteOffset":7840,"byteLength":3136},{"buffer":0,"byteOffset":10976,"byteLength":792}],"buffers":[{"byteLength":11768,"uri":"data:application/octet-stream;base64,"}]}
