{"asset":{"generator":"Khronos glTF Blender I/O v1.2.75","version":"2.0"},"scene":0,"scenes":[{"name":"Scene","nodes":[0]}],"nodes":[{"mesh":0,"name":"Mesh"}],"meshes":[{"name":"SM_MetalBeam03","primitives":[{"indices":6,"attributes":{"POSITION":0,"NORMAL":1,"COLOR_0":2,"TEXCOORD_0":3,"TEXCOORD_1":4,"TANGENT":5},"mode":4}]}],"accessors":[{"bufferView":0,"componentType":5126,"count":852,"type":"VEC3","min":[-0.9770977783203125,0,-1.124549331665039],"max":[0.9755292510986329,8.960764770507813,1.1111335754394531]},{"bufferView":1,"componentType":5126,"count":852,"type":"VEC3"},{"bufferView":2,"componentType":5126,"count":852,"type":"VEC4"},{"bufferView":3,"componentType":5126,"count":852,"type":"VEC2"},{"bufferView":4,"componentType":5126,"count":852,"type":"VEC2"},{"bufferView":5,"componentType":5126,"count":852,"type":"VEC4"},{"bufferView":6,"componentType":5123,"count":1620,"type":"SCALAR"}],"bufferViews":[{"buffer":0,"byteOffset":0,"byteLength":10224},{"buffer":0,"byteOffset":10224,"byteLength":10224},{"buffer":0,"byteOffset":20448,"byteLength":13632},{"buffer":0,"byteOffset":34080,"byteLength":6816},{"buffer":0,"byteOffset":40896,"byteLength":6816},{"buffer":0,"byteOffset":47712,"byteLength":13632},{"buffer":0,"byteOffset":61344,"byteLength":3240}],"buffers":[{"byteLength":64584,"uri":"data:application/octet-stream;base64,"}]}
