{"asset":{"generator":"Khronos glTF Blender I/O v1.2.75","version":"2.0"},"scene":0,"scenes":[{"name":"Scene","nodes":[0]}],"nodes":[{"mesh":0,"name":"Mesh"}],"meshes":[{"name":"SM_CyberGas_Large","primitives":[{"indices":5,"attributes":{"POSITION":0,"NORMAL":1,"TEXCOORD_0":2,"TEXCOORD_1":3,"TANGENT":4},"mode":4}]}],"accessors":[{"bufferView":0,"componentType":5126,"count":884,"type":"VEC3","min":[-0.14978475570678712,-0.36623302459716794,-0.2793107604980469],"max":[0,0.37924411773681643,0.27987356185913087]},{"bufferView":1,"componentType":5126,"count":884,"type":"VEC3"},{"bufferView":2,"componentType":5126,"count":884,"type":"VEC2"},{"bufferView":3,"componentType":5126,"count":884,"type":"VEC2"},{"bufferView":4,"componentType":5126,"count":884,"type":"VEC4"},{"bufferView":5,"componentType":5123,"count":1800,"type":"SCALAR"}],"bufferViews":[{"buffer":0,"byteOffset":0,"byteLength":10608},{"buffer":0,"byteOffset":10608,"byteLength":10608},{"buffer":0,"byteOffset":21216,"byteLength":7072},{"buffer":0,"byteOffset":28288,"byteLength":7072},{"buffer":0,"byteOffset":35360,"byteLength":14144},{"buffer":0,"byteOffset":49504,"byteLength":3600}],"buffers":[{"byteLength":53104,"uri":"data:application/octet-stream;base64,"}]}
