{"asset":{"generator":"Khronos glTF Blender I/O v1.2.75","version":"2.0"},"scene":0,"scenes":[{"name":"Scene","nodes":[0]}],"nodes":[{"mesh":0,"name":"Mesh"}],"meshes":[{"name":"SM_CyberGas_Large","primitives":[{"indices":5,"attributes":{"POSITION":0,"NORMAL":1,"TEXCOORD_0":2,"TEXCOORD_1":3,"TANGENT":4},"mode":4}]}],"accessors":[{"bufferView":0,"componentType":5126,"count":500,"type":"VEC3","min":[-0.14978475570678712,-0.36623302459716794,-0.2793107604980469],"max":[0,0.37924411773681643,0.27987356185913087]},{"bufferView":1,"componentType":5126,"count":500,"type":"VEC3"},{"bufferView":2,"componentType":5126,"count":500,"type":"VEC2"},{"bufferView":3,"componentType":5126,"count":500,"type":"VEC2"},{"bufferView":4,"componentType":5126,"count":500,"type":"VEC4"},{"bufferView":5,"componentType":5123,"count":900,"type":"SCALAR"}],"bufferViews":[{"buffer":0,"byteOffset":0,"byteLength":6000},{"buffer":0,"byteOffset":6000,"byteLength":6000},{"buffer":0,"byteOffset":12000,"byteLength":4000},{"buffer":0,"byteOffset":16000,"byteLength":4000},{"buffer":0,"byteOffset":20000,"byteLength":8000},{"buffer":0,"byteOffset":28000,"byteLength":1800}],"buffers":[{"byteLength":29800,"uri":"data:application/octet-stream;base64,"}]}
