{"asset":{"generator":"Khronos glTF Blender I/O v1.2.75","version":"2.0"},"scene":0,"scenes":[{"name":"Scene","nodes":[0]}],"nodes":[{"mesh":0,"name":"Mesh"}],"meshes":[{"name":"SM_PipeGroup11","primitives":[{"indices":5,"attributes":{"POSITION":0,"NORMAL":1,"TEXCOORD_0":2,"TEXCOORD_1":3,"TANGENT":4},"mode":4}]}],"accessors":[{"bufferView":0,"componentType":5126,"count":1190,"type":"VEC3","min":[-0.18865207672119141,-0.15415132522583008,-21.19627685546875],"max":[0.1823269271850586,0.13604410171508788,0.010682395696640014]},{"bufferView":1,"componentType":5126,"count":1190,"type":"VEC3"},{"bufferView":2,"componentType":5126,"count":1190,"type":"VEC2"},{"bufferView":3,"componentType":5126,"count":1190,"type":"VEC2"},{"bufferView":4,"componentType":5126,"count":1190,"type":"VEC4"},{"bufferView":5,"componentType":5123,"count":3360,"type":"SCALAR"}],"bufferViews":[{"buffer":0,"byteOffset":0,"byteLength":14280},{"buffer":0,"byteOffset":14280,"byteLength":14280},{"buffer":0,"byteOffset":28560,"byteLength":9520},{"buffer":0,"byteOffset":38080,"byteLength":9520},{"buffer":0,"byteOffset":47600,"byteLength":19040},{"buffer":0,"byteOffset":66640,"byteLength":6720}],"buffers":[{"byteLength":73360,"uri":"data:application/octet-stream;base64,"}]}
