{"asset":{"generator":"Khronos glTF Blender I/O v1.2.75","version":"2.0"},"scene":0,"scenes":[{"name":"Scene","nodes":[0]}],"nodes":[{"mesh":0,"name":"Mesh"}],"meshes":[{"name":"SM_PipeGroup11","primitives":[{"indices":5,"attributes":{"POSITION":0,"NORMAL":1,"TEXCOORD_0":2,"TEXCOORD_1":3,"TANGENT":4},"mode":4}]}],"accessors":[{"bufferView":0,"componentType":5126,"count":291,"type":"VEC3","min":[-0.18865207672119141,-0.15415132522583008,-21.19627685546875],"max":[0.1823269271850586,0.13604410171508788,0.010682395696640014]},{"bufferView":1,"componentType":5126,"count":291,"type":"VEC3"},{"bufferView":2,"componentType":5126,"count":291,"type":"VEC2"},{"bufferView":3,"componentType":5126,"count":291,"type":"VEC2"},{"bufferView":4,"componentType":5126,"count":291,"type":"VEC4"},{"bufferView":5,"componentType":5123,"count":672,"type":"SCALAR"}],"bufferViews":[{"buffer":0,"byteOffset":0,"byteLength":3492},{"buffer":0,"byteOffset":3492,"byteLength":3492},{"buffer":0,"byteOffset":6984,"byteLength":2328},{"buffer":0,"byteOffset":9312,"byteLength":2328},{"buffer":0,"byteOffset":11640,"byteLength":4656},{"buffer":0,"byteOffset":16296,"byteLength":1344}],"buffers":[{"byteLength":17640,"uri":"data:application/octet-stream;base64,"}]}
