{"asset":{"generator":"Khronos glTF Blender I/O v1.2.75","version":"2.0"},"scene":0,"scenes":[{"name":"Scene","nodes":[0]}],"nodes":[{"mesh":0,"name":"Mesh"}],"meshes":[{"name":"SM_MetalBeam04","primitives":[{"indices":6,"attributes":{"POSITION":0,"NORMAL":1,"COLOR_0":2,"TEXCOORD_0":3,"TEXCOORD_1":4,"TANGENT":5},"mode":4}]}],"accessors":[{"bufferView":0,"componentType":5126,"count":170,"type":"VEC3","min":[-0.20685211181640625,-6.092658226414531e-18,-0.14070360183715822],"max":[0.2068524169921875,7.999999389648438,0.14070396423339843]},{"bufferView":1,"componentType":5126,"count":170,"type":"VEC3"},{"bufferView":2,"componentType":5126,"count":170,"type":"VEC4"},{"bufferView":3,"componentType":5126,"count":170,"type":"VEC2"},{"bufferView":4,"componentType":5126,"count":170,"type":"VEC2"},{"bufferView":5,"componentType":5126,"count":170,"type":"VEC4"},{"bufferView":6,"componentType":5123,"count":348,"type":"SCALAR"}],"bufferViews":[{"buffer":0,"byteOffset":0,"byteLength":2040},{"buffer":0,"byteOffset":2040,"byteLength":2040},{"buffer":0,"byteOffset":4080,"byteLength":2720},{"buffer":0,"byteOffset":6800,"byteLength":1360},{"buffer":0,"byteOffset":8160,"byteLength":1360},{"buffer":0,"byteOffset":9520,"byteLength":2720},{"buffer":0,"byteOffset":12240,"byteLength":696}],"buffers":[{"byteLength":12936,"uri":"data:application/octet-stream;base64,"}]}
