{"asset":{"generator":"Khronos glTF Blender I/O v1.2.75","version":"2.0"},"scene":0,"scenes":[{"name":"Scene","nodes":[0]}],"nodes":[{"mesh":0,"name":"Mesh"}],"meshes":[{"name":"SM_PaperBox_02_05","primitives":[{"indices":6,"attributes":{"POSITION":0,"NORMAL":1,"COLOR_0":2,"TEXCOORD_0":3,"TEXCOORD_1":4,"TANGENT":5},"mode":4}]}],"accessors":[{"bufferView":0,"componentType":5126,"count":168,"type":"VEC3","min":[-0.31811737060546874,-0.05387770175933838,-0.40007251739501953],"max":[0.32964550018310546,0.7547705078125,0.4082321548461914]},{"bufferView":1,"componentType":5126,"count":168,"type":"VEC3"},{"bufferView":2,"componentType":5126,"count":168,"type":"VEC4"},{"bufferView":3,"componentType":5126,"count":168,"type":"VEC2"},{"bufferView":4,"componentType":5126,"count":168,"type":"VEC2"},{"bufferView":5,"componentType":5126,"count":168,"type":"VEC4"},{"bufferView":6,"componentType":5123,"count":186,"type":"SCALAR"}],"bufferViews":[{"buffer":0,"byteOffset":0,"byteLength":2016},{"buffer":0,"byteOffset":2016,"byteLength":2016},{"buffer":0,"byteOffset":4032,"byteLength":2688},{"buffer":0,"byteOffset":6720,"byteLength":1344},{"buffer":0,"byteOffset":8064,"byteLength":1344},{"buffer":0,"byteOffset":9408,"byteLength":2688},{"buffer":0,"byteOffset":12096,"byteLength":372}],"buffers":[{"byteLength":12468,"uri":"data:application/octet-stream;base64,"}]}
