{"asset":{"generator":"Khronos glTF Blender I/O v1.2.75","version":"2.0"},"scene":0,"scenes":[{"name":"Scene","nodes":[0]}],"nodes":[{"mesh":0,"name":"Mesh"}],"meshes":[{"name":"SM_PaperBox_02_05","primitives":[{"indices":6,"attributes":{"POSITION":0,"NORMAL":1,"COLOR_0":2,"TEXCOORD_0":3,"TEXCOORD_1":4,"TANGENT":5},"mode":4}]}],"accessors":[{"bufferView":0,"componentType":5126,"count":360,"type":"VEC3","min":[-0.31811737060546874,-0.05387770175933838,-0.40007251739501953],"max":[0.32964550018310546,0.7547705078125,0.4082321548461914]},{"bufferView":1,"componentType":5126,"count":360,"type":"VEC3"},{"bufferView":2,"componentType":5126,"count":360,"type":"VEC4"},{"bufferView":3,"componentType":5126,"count":360,"type":"VEC2"},{"bufferView":4,"componentType":5126,"count":360,"type":"VEC2"},{"bufferView":5,"componentType":5126,"count":360,"type":"VEC4"},{"bufferView":6,"componentType":5123,"count":540,"type":"SCALAR"}],"bufferViews":[{"buffer":0,"byteOffset":0,"byteLength":4320},{"buffer":0,"byteOffset":4320,"byteLength":4320},{"buffer":0,"byteOffset":8640,"byteLength":5760},{"buffer":0,"byteOffset":14400,"byteLength":2880},{"buffer":0,"byteOffset":17280,"byteLength":2880},{"buffer":0,"byteOffset":20160,"byteLength":5760},{"buffer":0,"byteOffset":25920,"byteLength":1080}],"buffers":[{"byteLength":27000,"uri":"data:application/octet-stream;base64,"}]}
