{"asset":{"generator":"Khronos glTF Blender I/O v1.2.75","version":"2.0"},"scene":0,"scenes":[{"name":"Scene","nodes":[0]}],"nodes":[{"mesh":0,"name":"Mesh"}],"meshes":[{"name":"SM_pipe_conditioning01_04","primitives":[{"indices":5,"attributes":{"POSITION":0,"NORMAL":1,"TEXCOORD_0":2,"TEXCOORD_1":3,"TANGENT":4},"mode":4}]}],"accessors":[{"bufferView":0,"componentType":5126,"count":203,"type":"VEC3","min":[-0.45611724853515623,-0.45834793090820314,-0.29760501861572264],"max":[0.4609346771240234,0.45796913146972656,0.29654401779174805]},{"bufferView":1,"componentType":5126,"count":203,"type":"VEC3"},{"bufferView":2,"componentType":5126,"count":203,"type":"VEC2"},{"bufferView":3,"componentType":5126,"count":203,"type":"VEC2"},{"bufferView":4,"componentType":5126,"count":203,"type":"VEC4"},{"bufferView":5,"componentType":5123,"count":519,"type":"SCALAR"}],"bufferViews":[{"buffer":0,"byteOffset":0,"byteLength":2436},{"buffer":0,"byteOffset":2436,"byteLength":2436},{"buffer":0,"byteOffset":4872,"byteLength":1624},{"buffer":0,"byteOffset":6496,"byteLength":1624},{"buffer":0,"byteOffset":8120,"byteLength":3248},{"buffer":0,"byteOffset":11368,"byteLength":1038}],"buffers":[{"byteLength":12406,"uri":"data:application/octet-stream;base64,"}]}
