{"asset":{"generator":"Khronos glTF Blender I/O v1.2.75","version":"2.0"},"scene":0,"scenes":[{"name":"Scene","nodes":[0]}],"nodes":[{"mesh":0,"name":"Mesh"}],"meshes":[{"name":"SM_GroundCable01","primitives":[{"indices":5,"attributes":{"POSITION":0,"NORMAL":1,"TEXCOORD_0":2,"TEXCOORD_1":3,"TANGENT":4},"mode":4}]}],"accessors":[{"bufferView":0,"componentType":5126,"count":3875,"type":"VEC3","min":[-0.4359457015991211,-0.02555612087249756,-6.788713989257812],"max":[4.930091247558594,0.10114137649536133,0.050633172988891605]},{"bufferView":1,"componentType":5126,"count":3875,"type":"VEC3"},{"bufferView":2,"componentType":5126,"count":3875,"type":"VEC2"},{"bufferView":3,"componentType":5126,"count":3875,"type":"VEC2"},{"bufferView":4,"componentType":5126,"count":3875,"type":"VEC4"},{"bufferView":5,"componentType":5123,"count":20472,"type":"SCALAR"}],"bufferViews":[{"buffer":0,"byteOffset":0,"byteLength":46500},{"buffer":0,"byteOffset":46500,"byteLength":46500},{"buffer":0,"byteOffset":93000,"byteLength":31000},{"buffer":0,"byteOffset":124000,"byteLength":31000},{"buffer":0,"byteOffset":155000,"byteLength":62000},{"buffer":0,"byteOffset":217000,"byteLength":40944}],"buffers":[{"byteLength":257944,"uri":"data:application/octet-stream;base64,"}]}
