{"asset":{"generator":"Khronos glTF Blender I/O v1.2.75","version":"2.0"},"scene":0,"scenes":[{"name":"Scene","nodes":[0]}],"nodes":[{"mesh":0,"name":"Mesh"}],"meshes":[{"name":"SM_GroundCable01","primitives":[{"indices":5,"attributes":{"POSITION":0,"NORMAL":1,"TEXCOORD_0":2,"TEXCOORD_1":3,"TANGENT":4},"mode":4}]}],"accessors":[{"bufferView":0,"componentType":5126,"count":433,"type":"VEC3","min":[-0.4359457015991211,-0.02555612087249756,-6.788713989257812],"max":[4.930091247558594,0.10114137649536133,0.050633172988891605]},{"bufferView":1,"componentType":5126,"count":433,"type":"VEC3"},{"bufferView":2,"componentType":5126,"count":433,"type":"VEC2"},{"bufferView":3,"componentType":5126,"count":433,"type":"VEC2"},{"bufferView":4,"componentType":5126,"count":433,"type":"VEC4"},{"bufferView":5,"componentType":5123,"count":2046,"type":"SCALAR"}],"bufferViews":[{"buffer":0,"byteOffset":0,"byteLength":5196},{"buffer":0,"byteOffset":5196,"byteLength":5196},{"buffer":0,"byteOffset":10392,"byteLength":3464},{"buffer":0,"byteOffset":13856,"byteLength":3464},{"buffer":0,"byteOffset":17320,"byteLength":6928},{"buffer":0,"byteOffset":24248,"byteLength":4092}],"buffers":[{"byteLength":28340,"uri":"data:application/octet-stream;base64,"}]}
