{"asset":{"generator":"Khronos glTF Blender I/O v1.2.75","version":"2.0"},"scene":0,"scenes":[{"name":"Scene","nodes":[0]}],"nodes":[{"mesh":0,"name":"Mesh"}],"meshes":[{"name":"SM_WaterTower01","primitives":[{"indices":5,"attributes":{"POSITION":0,"NORMAL":1,"TEXCOORD_0":2,"TEXCOORD_1":3,"TANGENT":4},"mode":4}]}],"accessors":[{"bufferView":0,"componentType":5126,"count":2987,"type":"VEC3","min":[-1.2594597625732422,-0.1116337776184082,-1.2595597076416016],"max":[1.2594597625732422,6.979829711914062,1.2594599151611328]},{"bufferView":1,"componentType":5126,"count":2987,"type":"VEC3"},{"bufferView":2,"componentType":5126,"count":2987,"type":"VEC2"},{"bufferView":3,"componentType":5126,"count":2987,"type":"VEC2"},{"bufferView":4,"componentType":5126,"count":2987,"type":"VEC4"},{"bufferView":5,"componentType":5123,"count":6654,"type":"SCALAR"}],"bufferViews":[{"buffer":0,"byteOffset":0,"byteLength":35844},{"buffer":0,"byteOffset":35844,"byteLength":35844},{"buffer":0,"byteOffset":71688,"byteLength":23896},{"buffer":0,"byteOffset":95584,"byteLength":23896},{"buffer":0,"byteOffset":119480,"byteLength":47792},{"buffer":0,"byteOffset":167272,"byteLength":13308}],"buffers":[{"byteLength":180580,"uri":"data:application/octet-stream;base64,"}]}
