{"asset":{"generator":"Khronos glTF Blender I/O v1.2.75","version":"2.0"},"scene":0,"scenes":[{"name":"Scene","nodes":[0]}],"nodes":[{"mesh":0,"name":"Mesh"}],"meshes":[{"name":"SM_WaterTower01","primitives":[{"indices":5,"attributes":{"POSITION":0,"NORMAL":1,"TEXCOORD_0":2,"TEXCOORD_1":3,"TANGENT":4},"mode":4}]}],"accessors":[{"bufferView":0,"componentType":5126,"count":1883,"type":"VEC3","min":[-1.2594597625732422,-0.1116337776184082,-1.2595597076416016],"max":[1.2594597625732422,6.979829711914062,1.2594599151611328]},{"bufferView":1,"componentType":5126,"count":1883,"type":"VEC3"},{"bufferView":2,"componentType":5126,"count":1883,"type":"VEC2"},{"bufferView":3,"componentType":5126,"count":1883,"type":"VEC2"},{"bufferView":4,"componentType":5126,"count":1883,"type":"VEC4"},{"bufferView":5,"componentType":5123,"count":3324,"type":"SCALAR"}],"bufferViews":[{"buffer":0,"byteOffset":0,"byteLength":22596},{"buffer":0,"byteOffset":22596,"byteLength":22596},{"buffer":0,"byteOffset":45192,"byteLength":15064},{"buffer":0,"byteOffset":60256,"byteLength":15064},{"buffer":0,"byteOffset":75320,"byteLength":30128},{"buffer":0,"byteOffset":105448,"byteLength":6648}],"buffers":[{"byteLength":112096,"uri":"data:application/octet-stream;base64,"}]}
