{"asset":{"generator":"Khronos glTF Blender I/O v1.2.75","version":"2.0"},"scene":0,"scenes":[{"name":"Scene","nodes":[0]}],"nodes":[{"mesh":0,"name":"Mesh"}],"meshes":[{"name":"SM_RoadMarkings03","primitives":[{"indices":5,"attributes":{"POSITION":0,"NORMAL":1,"TEXCOORD_0":2,"TEXCOORD_1":3,"TANGENT":4},"mode":4}]}],"accessors":[{"bufferView":0,"componentType":5126,"count":96,"type":"VEC3","min":[-0.20145946502685547,-4.994869232177735e-7,-0.20145946502685547],"max":[0.20145946502685547,-4.982948303222656e-7,0.20145946502685547]},{"bufferView":1,"componentType":5126,"count":96,"type":"VEC3"},{"bufferView":2,"componentType":5126,"count":96,"type":"VEC2"},{"bufferView":3,"componentType":5126,"count":96,"type":"VEC2"},{"bufferView":4,"componentType":5126,"count":96,"type":"VEC4"},{"bufferView":5,"componentType":5123,"count":240,"type":"SCALAR"}],"bufferViews":[{"buffer":0,"byteOffset":0,"byteLength":1152},{"buffer":0,"byteOffset":1152,"byteLength":1152},{"buffer":0,"byteOffset":2304,"byteLength":768},{"buffer":0,"byteOffset":3072,"byteLength":768},{"buffer":0,"byteOffset":3840,"byteLength":1536},{"buffer":0,"byteOffset":5376,"byteLength":480}],"buffers":[{"byteLength":5856,"uri":"data:application/octet-stream;base64,"}]}
