{"asset":{"generator":"Khronos glTF Blender I/O v1.2.75","version":"2.0"},"scene":0,"scenes":[{"name":"Scene","nodes":[0]}],"nodes":[{"mesh":0,"name":"Mesh"}],"meshes":[{"name":"SM_NeonSig08","primitives":[{"indices":5,"attributes":{"POSITION":0,"NORMAL":1,"TEXCOORD_0":2,"TEXCOORD_1":3,"TANGENT":4},"mode":4}]}],"accessors":[{"bufferView":0,"componentType":5126,"count":448,"type":"VEC3","min":[-0.000001373291015625,-9.238502389052882e-7,-3.183096923828125],"max":[3.322734375,1.387272491455078,0.1396352481842041]},{"bufferView":1,"componentType":5126,"count":448,"type":"VEC3"},{"bufferView":2,"componentType":5126,"count":448,"type":"VEC2"},{"bufferView":3,"componentType":5126,"count":448,"type":"VEC2"},{"bufferView":4,"componentType":5126,"count":448,"type":"VEC4"},{"bufferView":5,"componentType":5123,"count":1464,"type":"SCALAR"}],"bufferViews":[{"buffer":0,"byteOffset":0,"byteLength":5376},{"buffer":0,"byteOffset":5376,"byteLength":5376},{"buffer":0,"byteOffset":10752,"byteLength":3584},{"buffer":0,"byteOffset":14336,"byteLength":3584},{"buffer":0,"byteOffset":17920,"byteLength":7168},{"buffer":0,"byteOffset":25088,"byteLength":2928}],"buffers":[{"byteLength":28016,"uri":"data:application/octet-stream;base64,"}]}
