{"asset":{"generator":"Khronos glTF Blender I/O v1.2.75","version":"2.0"},"scene":0,"scenes":[{"name":"Scene","nodes":[0]}],"nodes":[{"mesh":0,"name":"Mesh"}],"meshes":[{"name":"SM_Pipe_square_fixator","primitives":[{"indices":6,"attributes":{"POSITION":0,"NORMAL":1,"COLOR_0":2,"TEXCOORD_0":3,"TEXCOORD_1":4,"TANGENT":5},"mode":4}]}],"accessors":[{"bufferView":0,"componentType":5126,"count":140,"type":"VEC3","min":[-0.25358030319213865,-0.14053565979003907,-0.03599998474121094],"max":[0.2535800743103027,-0.09332254409790039,0.03599998474121094]},{"bufferView":1,"componentType":5126,"count":140,"type":"VEC3"},{"bufferView":2,"componentType":5126,"count":140,"type":"VEC4"},{"bufferView":3,"componentType":5126,"count":140,"type":"VEC2"},{"bufferView":4,"componentType":5126,"count":140,"type":"VEC2"},{"bufferView":5,"componentType":5126,"count":140,"type":"VEC4"},{"bufferView":6,"componentType":5123,"count":300,"type":"SCALAR"}],"bufferViews":[{"buffer":0,"byteOffset":0,"byteLength":1680},{"buffer":0,"byteOffset":1680,"byteLength":1680},{"buffer":0,"byteOffset":3360,"byteLength":2240},{"buffer":0,"byteOffset":5600,"byteLength":1120},{"buffer":0,"byteOffset":6720,"byteLength":1120},{"buffer":0,"byteOffset":7840,"byteLength":2240},{"buffer":0,"byteOffset":10080,"byteLength":600}],"buffers":[{"byteLength":10680,"uri":"data:application/octet-stream;base64,"}]}
