{"asset":{"generator":"Khronos glTF Blender I/O v1.2.75","version":"2.0"},"scene":0,"scenes":[{"name":"Scene","nodes":[0]}],"nodes":[{"mesh":0,"name":"Mesh"}],"meshes":[{"name":"SM_IndustrialPlatform05","primitives":[{"indices":6,"attributes":{"POSITION":0,"NORMAL":1,"COLOR_0":2,"TEXCOORD_0":3,"TEXCOORD_1":4,"TANGENT":5},"mode":4},{"indices":13,"attributes":{"POSITION":7,"NORMAL":8,"COLOR_0":9,"TEXCOORD_0":10,"TEXCOORD_1":11,"TANGENT":12},"mode":4}]}],"accessors":[{"bufferView":0,"componentType":5126,"count":664,"type":"VEC3","min":[-3.538778076171875,8.0108642578125e-7,-1.6101910400390624],"max":[3.537064514160156,1.961962890625,1.6101910400390624]},{"bufferView":1,"componentType":5126,"count":664,"type":"VEC3"},{"bufferView":2,"componentType":5126,"count":1852,"type":"VEC4"},{"bufferView":3,"componentType":5126,"count":664,"type":"VEC2"},{"bufferView":4,"componentType":5126,"count":664,"type":"VEC2"},{"bufferView":5,"componentType":5126,"count":664,"type":"VEC4"},{"bufferView":6,"componentType":5123,"count":1452,"type":"SCALAR"},{"bufferView":7,"componentType":5126,"count":1188,"type":"VEC3","min":[-3.538778076171875,8.0108642578125e-7,-1.6101910400390624],"max":[3.537064514160156,1.961962890625,1.6101910400390624]},{"bufferView":8,"componentType":5126,"count":1188,"type":"VEC3"},{"bufferView":9,"componentType":5126,"count":1852,"type":"VEC4"},{"bufferView":10,"componentType":5126,"count":1188,"type":"VEC2"},{"bufferView":11,"componentType":5126,"count":1188,"type":"VEC2"},{"bufferView":12,"componentType":5126,"count":1188,"type":"VEC4"},{"bufferView":13,"componentType":5123,"count":3372,"type":"SCALAR"}],"bufferViews":[{"buffer":0,"byteOffset":0,"byteLength":7968},{"buffer":0,"byteOffset":7968,"byteLength":7968},{"buffer":0,"byteOffset":15936,"byteLength":29632},{"buffer":0,"byteOffset":45568,"byteLength":5312},{"buffer":0,"byteOffset":50880,"byteLength":5312},{"buffer":0,"byteOffset":56192,"byteLength":10624},{"buffer":0,"byteOffset":66816,"byteLength":2904},{"buffer":1,"byteOffset":0,"byteLength":14256},{"buffer":1,"byteOffset":14256,"byteLength":14256},{"buffer":1,"byteOffset":28512,"byteLength":29632},{"buffer":1,"byteOffset":58144,"byteLength":9504},{"buffer":1,"byteOffset":67648,"byteLength":9504},{"buffer":1,"byteOffset":77152,"byteLength":19008},{"buffer":1,"byteOffset":96160,"byteLength":6744}],"buffers":[{"byteLength":69720,"uri":"data:application/octet-stream;base64,"},{"byteLength":102904,"uri":"data:application/octet-stream;base64,"}]}
