{"asset":{"generator":"Khronos glTF Blender I/O v1.2.75","version":"2.0"},"scene":0,"scenes":[{"name":"Scene","nodes":[0]}],"nodes":[{"mesh":0,"name":"Mesh"}],"meshes":[{"name":"SM_IndustrialPlatform05","primitives":[{"indices":6,"attributes":{"POSITION":0,"NORMAL":1,"COLOR_0":2,"TEXCOORD_0":3,"TEXCOORD_1":4,"TANGENT":5},"mode":4},{"indices":13,"attributes":{"POSITION":7,"NORMAL":8,"COLOR_0":9,"TEXCOORD_0":10,"TEXCOORD_1":11,"TANGENT":12},"mode":4}]}],"accessors":[{"bufferView":0,"componentType":5126,"count":400,"type":"VEC3","min":[-3.538778076171875,8.0108642578125e-7,-1.6101910400390624],"max":[3.537064514160156,1.961962890625,1.6101910400390624]},{"bufferView":1,"componentType":5126,"count":400,"type":"VEC3"},{"bufferView":2,"componentType":5126,"count":750,"type":"VEC4"},{"bufferView":3,"componentType":5126,"count":400,"type":"VEC2"},{"bufferView":4,"componentType":5126,"count":400,"type":"VEC2"},{"bufferView":5,"componentType":5126,"count":400,"type":"VEC4"},{"bufferView":6,"componentType":5123,"count":774,"type":"SCALAR"},{"bufferView":7,"componentType":5126,"count":350,"type":"VEC3","min":[-3.538778076171875,8.0108642578125e-7,-1.6101910400390624],"max":[3.537064514160156,1.961962890625,1.6101910400390624]},{"bufferView":8,"componentType":5126,"count":350,"type":"VEC3"},{"bufferView":9,"componentType":5126,"count":750,"type":"VEC4"},{"bufferView":10,"componentType":5126,"count":350,"type":"VEC2"},{"bufferView":11,"componentType":5126,"count":350,"type":"VEC2"},{"bufferView":12,"componentType":5126,"count":350,"type":"VEC4"},{"bufferView":13,"componentType":5123,"count":672,"type":"SCALAR"}],"bufferViews":[{"buffer":0,"byteOffset":0,"byteLength":4800},{"buffer":0,"byteOffset":4800,"byteLength":4800},{"buffer":0,"byteOffset":9600,"byteLength":12000},{"buffer":0,"byteOffset":21600,"byteLength":3200},{"buffer":0,"byteOffset":24800,"byteLength":3200},{"buffer":0,"byteOffset":28000,"byteLength":6400},{"buffer":0,"byteOffset":34400,"byteLength":1548},{"buffer":1,"byteOffset":0,"byteLength":4200},{"buffer":1,"byteOffset":4200,"byteLength":4200},{"buffer":1,"byteOffset":8400,"byteLength":12000},{"buffer":1,"byteOffset":20400,"byteLength":2800},{"buffer":1,"byteOffset":23200,"byteLength":2800},{"buffer":1,"byteOffset":26000,"byteLength":5600},{"buffer":1,"byteOffset":31600,"byteLength":1344}],"buffers":[{"byteLength":35948,"uri":"data:application/octet-stream;base64,"},{"byteLength":32944,"uri":"data:application/octet-stream;base64,"}]}
