{"asset":{"generator":"Khronos glTF Blender I/O v1.2.75","version":"2.0"},"scene":0,"scenes":[{"name":"Scene","nodes":[0]}],"nodes":[{"mesh":0,"name":"Mesh"}],"meshes":[{"name":"SM_GasStat_Column_02","primitives":[{"indices":5,"attributes":{"POSITION":0,"NORMAL":1,"TEXCOORD_0":2,"TEXCOORD_1":3,"TANGENT":4},"mode":4}]}],"accessors":[{"bufferView":0,"componentType":5126,"count":518,"type":"VEC3","min":[-1,-0.15,-5],"max":[-5.7046065649046795e-9,0.15,2.0816681711721685e-17]},{"bufferView":1,"componentType":5126,"count":518,"type":"VEC3"},{"bufferView":2,"componentType":5126,"count":518,"type":"VEC2"},{"bufferView":3,"componentType":5126,"count":518,"type":"VEC2"},{"bufferView":4,"componentType":5126,"count":518,"type":"VEC4"},{"bufferView":5,"componentType":5123,"count":1152,"type":"SCALAR"}],"bufferViews":[{"buffer":0,"byteOffset":0,"byteLength":6216},{"buffer":0,"byteOffset":6216,"byteLength":6216},{"buffer":0,"byteOffset":12432,"byteLength":4144},{"buffer":0,"byteOffset":16576,"byteLength":4144},{"buffer":0,"byteOffset":20720,"byteLength":8288},{"buffer":0,"byteOffset":29008,"byteLength":2304}],"buffers":[{"byteLength":31312,"uri":"data:application/octet-stream;base64,"}]}
