{"asset":{"generator":"Khronos glTF Blender I/O v1.2.75","version":"2.0"},"scene":0,"scenes":[{"name":"Scene","nodes":[0]}],"nodes":[{"mesh":0,"name":"Mesh"}],"meshes":[{"name":"SM_PipeGroup03","primitives":[{"indices":5,"attributes":{"POSITION":0,"NORMAL":1,"TEXCOORD_0":2,"TEXCOORD_1":3,"TANGENT":4},"mode":4}]}],"accessors":[{"bufferView":0,"componentType":5126,"count":2944,"type":"VEC3","min":[-0.13011186599731445,-8.001367797851563,-0.7228290557861328],"max":[0.12011677742004395,0.0013681058585643768,0.22282825469970702]},{"bufferView":1,"componentType":5126,"count":2944,"type":"VEC3"},{"bufferView":2,"componentType":5126,"count":2944,"type":"VEC2"},{"bufferView":3,"componentType":5126,"count":2944,"type":"VEC2"},{"bufferView":4,"componentType":5126,"count":2944,"type":"VEC4"},{"bufferView":5,"componentType":5123,"count":5856,"type":"SCALAR"}],"bufferViews":[{"buffer":0,"byteOffset":0,"byteLength":35328},{"buffer":0,"byteOffset":35328,"byteLength":35328},{"buffer":0,"byteOffset":70656,"byteLength":23552},{"buffer":0,"byteOffset":94208,"byteLength":23552},{"buffer":0,"byteOffset":117760,"byteLength":47104},{"buffer":0,"byteOffset":164864,"byteLength":11712}],"buffers":[{"byteLength":176576,"uri":"data:application/octet-stream;base64,"}]}
