{"asset":{"generator":"Khronos glTF Blender I/O v1.2.75","version":"2.0"},"scene":0,"scenes":[{"name":"Scene","nodes":[0]}],"nodes":[{"mesh":0,"name":"Mesh"}],"meshes":[{"name":"SM_PipeGroup03","primitives":[{"indices":5,"attributes":{"POSITION":0,"NORMAL":1,"TEXCOORD_0":2,"TEXCOORD_1":3,"TANGENT":4},"mode":4}]}],"accessors":[{"bufferView":0,"componentType":5126,"count":481,"type":"VEC3","min":[-0.13011186599731445,-8.001367797851563,-0.7228290557861328],"max":[0.12011677742004395,0.0013681058585643768,0.22282825469970702]},{"bufferView":1,"componentType":5126,"count":481,"type":"VEC3"},{"bufferView":2,"componentType":5126,"count":481,"type":"VEC2"},{"bufferView":3,"componentType":5126,"count":481,"type":"VEC2"},{"bufferView":4,"componentType":5126,"count":481,"type":"VEC4"},{"bufferView":5,"componentType":5123,"count":879,"type":"SCALAR"}],"bufferViews":[{"buffer":0,"byteOffset":0,"byteLength":5772},{"buffer":0,"byteOffset":5772,"byteLength":5772},{"buffer":0,"byteOffset":11544,"byteLength":3848},{"buffer":0,"byteOffset":15392,"byteLength":3848},{"buffer":0,"byteOffset":19240,"byteLength":7696},{"buffer":0,"byteOffset":26936,"byteLength":1758}],"buffers":[{"byteLength":28694,"uri":"data:application/octet-stream;base64,"}]}
