{"asset":{"generator":"Khronos glTF Blender I/O v1.2.75","version":"2.0"},"scene":0,"scenes":[{"name":"Scene","nodes":[0]}],"nodes":[{"mesh":0,"name":"Mesh"}],"meshes":[{"name":"SM_Building02_03","primitives":[{"indices":5,"attributes":{"POSITION":0,"NORMAL":1,"TEXCOORD_0":2,"TEXCOORD_1":3,"TANGENT":4},"mode":4},{"indices":11,"attributes":{"POSITION":6,"NORMAL":7,"TEXCOORD_0":8,"TEXCOORD_1":9,"TANGENT":10},"mode":4}]}],"accessors":[{"bufferView":0,"componentType":5126,"count":5,"type":"VEC3","min":[-4.008565063476563,-0.017797362804412842,-0.18669675827026366],"max":[0.0895078182220459,4.072016296386718,0.4005910491943359]},{"bufferView":1,"componentType":5126,"count":5,"type":"VEC3"},{"bufferView":2,"componentType":5126,"count":5,"type":"VEC2"},{"bufferView":3,"componentType":5126,"count":5,"type":"VEC2"},{"bufferView":4,"componentType":5126,"count":5,"type":"VEC4"},{"bufferView":5,"componentType":5123,"count":9,"type":"SCALAR"},{"bufferView":6,"componentType":5126,"count":27,"type":"VEC3","min":[-4.008565063476563,-0.017797362804412842,-0.18669675827026366],"max":[0.0895078182220459,4.072016296386718,0.4005910491943359]},{"bufferView":7,"componentType":5126,"count":27,"type":"VEC3"},{"bufferView":8,"componentType":5126,"count":27,"type":"VEC2"},{"bufferView":9,"componentType":5126,"count":27,"type":"VEC2"},{"bufferView":10,"componentType":5126,"count":27,"type":"VEC4"},{"bufferView":11,"componentType":5123,"count":45,"type":"SCALAR"}],"bufferViews":[{"buffer":0,"byteOffset":0,"byteLength":60},{"buffer":0,"byteOffset":60,"byteLength":60},{"buffer":0,"byteOffset":120,"byteLength":40},{"buffer":0,"byteOffset":160,"byteLength":40},{"buffer":0,"byteOffset":200,"byteLength":80},{"buffer":0,"byteOffset":280,"byteLength":18},{"buffer":1,"byteOffset":0,"byteLength":324},{"buffer":1,"byteOffset":324,"byteLength":324},{"buffer":1,"byteOffset":648,"byteLength":216},{"buffer":1,"byteOffset":864,"byteLength":216},{"buffer":1,"byteOffset":1080,"byteLength":432},{"buffer":1,"byteOffset":1512,"byteLength":90}],"buffers":[{"byteLength":298,"uri":"data:application/octet-stream;base64,"},{"byteLength":1602,"uri":"data:application/octet-stream;base64,"}]}
