{"asset":{"generator":"Khronos glTF Blender I/O v1.2.75","version":"2.0"},"scene":0,"scenes":[{"name":"Scene","nodes":[0]}],"nodes":[{"mesh":0,"name":"Mesh"}],"meshes":[{"name":"SM_Building02_03","primitives":[{"indices":5,"attributes":{"POSITION":0,"NORMAL":1,"TEXCOORD_0":2,"TEXCOORD_1":3,"TANGENT":4},"mode":4},{"indices":11,"attributes":{"POSITION":6,"NORMAL":7,"TEXCOORD_0":8,"TEXCOORD_1":9,"TANGENT":10},"mode":4}]}],"accessors":[{"bufferView":0,"componentType":5126,"count":10,"type":"VEC3","min":[-4.008565063476563,-0.017797362804412842,-0.18669675827026366],"max":[0.0895078182220459,4.072016296386718,0.4005910491943359]},{"bufferView":1,"componentType":5126,"count":10,"type":"VEC3"},{"bufferView":2,"componentType":5126,"count":10,"type":"VEC2"},{"bufferView":3,"componentType":5126,"count":10,"type":"VEC2"},{"bufferView":4,"componentType":5126,"count":10,"type":"VEC4"},{"bufferView":5,"componentType":5123,"count":24,"type":"SCALAR"},{"bufferView":6,"componentType":5126,"count":42,"type":"VEC3","min":[-4.008565063476563,-0.017797362804412842,-0.18669675827026366],"max":[0.0895078182220459,4.072016296386718,0.4005910491943359]},{"bufferView":7,"componentType":5126,"count":42,"type":"VEC3"},{"bufferView":8,"componentType":5126,"count":42,"type":"VEC2"},{"bufferView":9,"componentType":5126,"count":42,"type":"VEC2"},{"bufferView":10,"componentType":5126,"count":42,"type":"VEC4"},{"bufferView":11,"componentType":5123,"count":84,"type":"SCALAR"}],"bufferViews":[{"buffer":0,"byteOffset":0,"byteLength":120},{"buffer":0,"byteOffset":120,"byteLength":120},{"buffer":0,"byteOffset":240,"byteLength":80},{"buffer":0,"byteOffset":320,"byteLength":80},{"buffer":0,"byteOffset":400,"byteLength":160},{"buffer":0,"byteOffset":560,"byteLength":48},{"buffer":1,"byteOffset":0,"byteLength":504},{"buffer":1,"byteOffset":504,"byteLength":504},{"buffer":1,"byteOffset":1008,"byteLength":336},{"buffer":1,"byteOffset":1344,"byteLength":336},{"buffer":1,"byteOffset":1680,"byteLength":672},{"buffer":1,"byteOffset":2352,"byteLength":168}],"buffers":[{"byteLength":608,"uri":"data:application/octet-stream;base64,"},{"byteLength":2520,"uri":"data:application/octet-stream;base64,"}]}
