{"asset":{"generator":"Khronos glTF Blender I/O v1.2.75","version":"2.0"},"scene":0,"scenes":[{"name":"Scene","nodes":[0]}],"nodes":[{"mesh":0,"name":"Mesh"}],"meshes":[{"name":"SM_Building06_06","primitives":[{"indices":5,"attributes":{"POSITION":0,"NORMAL":1,"TEXCOORD_0":2,"TEXCOORD_1":3,"TANGENT":4},"mode":4}]}],"accessors":[{"bufferView":0,"componentType":5126,"count":8713,"type":"VEC3","min":[-0.373773193359375,-12.01520263671875,-0.37377197265625],"max":[20.373779296875,12.037828369140625,20.3666943359375]},{"bufferView":1,"componentType":5126,"count":8713,"type":"VEC3"},{"bufferView":2,"componentType":5126,"count":8713,"type":"VEC2"},{"bufferView":3,"componentType":5126,"count":8713,"type":"VEC2"},{"bufferView":4,"componentType":5126,"count":8713,"type":"VEC4"},{"bufferView":5,"componentType":5123,"count":14109,"type":"SCALAR"}],"bufferViews":[{"buffer":0,"byteOffset":0,"byteLength":104556},{"buffer":0,"byteOffset":104556,"byteLength":104556},{"buffer":0,"byteOffset":209112,"byteLength":69704},{"buffer":0,"byteOffset":278816,"byteLength":69704},{"buffer":0,"byteOffset":348520,"byteLength":139408},{"buffer":0,"byteOffset":487928,"byteLength":28218}],"buffers":[{"byteLength":516146,"uri":"data:application/octet-stream;base64,"}]}
