{"asset":{"generator":"Khronos glTF Blender I/O v1.2.75","version":"2.0"},"scene":0,"scenes":[{"name":"Scene","nodes":[0]}],"nodes":[{"mesh":0,"name":"Mesh"}],"meshes":[{"name":"SM_Building06_07","primitives":[{"indices":5,"attributes":{"POSITION":0,"NORMAL":1,"TEXCOORD_0":2,"TEXCOORD_1":3,"TANGENT":4},"mode":4},{"indices":11,"attributes":{"POSITION":6,"NORMAL":7,"TEXCOORD_0":8,"TEXCOORD_1":9,"TANGENT":10},"mode":4}]}],"accessors":[{"bufferView":0,"componentType":5126,"count":352,"type":"VEC3","min":[-0.09105833053588867,-0.5999187088012695,-0.2119133949279785],"max":[20.575166015625,1.668186798095703,20.411943359375]},{"bufferView":1,"componentType":5126,"count":352,"type":"VEC3"},{"bufferView":2,"componentType":5126,"count":352,"type":"VEC2"},{"bufferView":3,"componentType":5126,"count":352,"type":"VEC2"},{"bufferView":4,"componentType":5126,"count":352,"type":"VEC4"},{"bufferView":5,"componentType":5123,"count":528,"type":"SCALAR"},{"bufferView":6,"componentType":5126,"count":240,"type":"VEC3","min":[-0.09105833053588867,-0.5999187088012695,-0.2119133949279785],"max":[20.575166015625,1.668186798095703,20.411943359375]},{"bufferView":7,"componentType":5126,"count":240,"type":"VEC3"},{"bufferView":8,"componentType":5126,"count":240,"type":"VEC2"},{"bufferView":9,"componentType":5126,"count":240,"type":"VEC2"},{"bufferView":10,"componentType":5126,"count":240,"type":"VEC4"},{"bufferView":11,"componentType":5123,"count":360,"type":"SCALAR"}],"bufferViews":[{"buffer":0,"byteOffset":0,"byteLength":4224},{"buffer":0,"byteOffset":4224,"byteLength":4224},{"buffer":0,"byteOffset":8448,"byteLength":2816},{"buffer":0,"byteOffset":11264,"byteLength":2816},{"buffer":0,"byteOffset":14080,"byteLength":5632},{"buffer":0,"byteOffset":19712,"byteLength":1056},{"buffer":1,"byteOffset":0,"byteLength":2880},{"buffer":1,"byteOffset":2880,"byteLength":2880},{"buffer":1,"byteOffset":5760,"byteLength":1920},{"buffer":1,"byteOffset":7680,"byteLength":1920},{"buffer":1,"byteOffset":9600,"byteLength":3840},{"buffer":1,"byteOffset":13440,"byteLength":720}],"buffers":[{"byteLength":20768,"uri":"data:application/octet-stream;base64,"},{"byteLength":14160,"uri":"data:application/octet-stream;base64,"}]}
