{"asset":{"generator":"Khronos glTF Blender I/O v1.2.75","version":"2.0"},"scene":0,"scenes":[{"name":"Scene","nodes":[0]}],"nodes":[{"mesh":0,"name":"Mesh"}],"meshes":[{"name":"SM_Building06_07","primitives":[{"indices":5,"attributes":{"POSITION":0,"NORMAL":1,"TEXCOORD_0":2,"TEXCOORD_1":3,"TANGENT":4},"mode":4},{"indices":11,"attributes":{"POSITION":6,"NORMAL":7,"TEXCOORD_0":8,"TEXCOORD_1":9,"TANGENT":10},"mode":4}]}],"accessors":[{"bufferView":0,"componentType":5126,"count":52,"type":"VEC3","min":[-0.09105833053588867,-0.5999187088012695,-0.2119133949279785],"max":[20.575166015625,1.668186798095703,20.411943359375]},{"bufferView":1,"componentType":5126,"count":52,"type":"VEC3"},{"bufferView":2,"componentType":5126,"count":52,"type":"VEC2"},{"bufferView":3,"componentType":5126,"count":52,"type":"VEC2"},{"bufferView":4,"componentType":5126,"count":52,"type":"VEC4"},{"bufferView":5,"componentType":5123,"count":54,"type":"SCALAR"},{"bufferView":6,"componentType":5126,"count":120,"type":"VEC3","min":[-0.09105833053588867,-0.5999187088012695,-0.2119133949279785],"max":[20.575166015625,1.668186798095703,20.411943359375]},{"bufferView":7,"componentType":5126,"count":120,"type":"VEC3"},{"bufferView":8,"componentType":5126,"count":120,"type":"VEC2"},{"bufferView":9,"componentType":5126,"count":120,"type":"VEC2"},{"bufferView":10,"componentType":5126,"count":120,"type":"VEC4"},{"bufferView":11,"componentType":5123,"count":168,"type":"SCALAR"}],"bufferViews":[{"buffer":0,"byteOffset":0,"byteLength":624},{"buffer":0,"byteOffset":624,"byteLength":624},{"buffer":0,"byteOffset":1248,"byteLength":416},{"buffer":0,"byteOffset":1664,"byteLength":416},{"buffer":0,"byteOffset":2080,"byteLength":832},{"buffer":0,"byteOffset":2912,"byteLength":108},{"buffer":1,"byteOffset":0,"byteLength":1440},{"buffer":1,"byteOffset":1440,"byteLength":1440},{"buffer":1,"byteOffset":2880,"byteLength":960},{"buffer":1,"byteOffset":3840,"byteLength":960},{"buffer":1,"byteOffset":4800,"byteLength":1920},{"buffer":1,"byteOffset":6720,"byteLength":336}],"buffers":[{"byteLength":3020,"uri":"data:application/octet-stream;base64,"},{"byteLength":7056,"uri":"data:application/octet-stream;base64,"}]}
