{"asset":{"generator":"Khronos glTF Blender I/O v1.2.75","version":"2.0"},"scene":0,"scenes":[{"name":"Scene","nodes":[0]}],"nodes":[{"mesh":0,"name":"Mesh"}],"meshes":[{"name":"SM_PlatformRailing_04","primitives":[{"indices":6,"attributes":{"POSITION":0,"NORMAL":1,"COLOR_0":2,"TEXCOORD_0":3,"TEXCOORD_1":4,"TANGENT":5},"mode":4}]}],"accessors":[{"bufferView":0,"componentType":5126,"count":283,"type":"VEC3","min":[-0.04855888843536377,-0.000010835675057023764,-1.0436695098876954],"max":[1.0000052642822266,1.2807363891601562,0.000004983595572412014]},{"bufferView":1,"componentType":5126,"count":283,"type":"VEC3"},{"bufferView":2,"componentType":5126,"count":283,"type":"VEC4"},{"bufferView":3,"componentType":5126,"count":283,"type":"VEC2"},{"bufferView":4,"componentType":5126,"count":283,"type":"VEC2"},{"bufferView":5,"componentType":5126,"count":283,"type":"VEC4"},{"bufferView":6,"componentType":5123,"count":849,"type":"SCALAR"}],"bufferViews":[{"buffer":0,"byteOffset":0,"byteLength":3396},{"buffer":0,"byteOffset":3396,"byteLength":3396},{"buffer":0,"byteOffset":6792,"byteLength":4528},{"buffer":0,"byteOffset":11320,"byteLength":2264},{"buffer":0,"byteOffset":13584,"byteLength":2264},{"buffer":0,"byteOffset":15848,"byteLength":4528},{"buffer":0,"byteOffset":20376,"byteLength":1698}],"buffers":[{"byteLength":22074,"uri":"data:application/octet-stream;base64,"}]}
