{"asset":{"generator":"Khronos glTF Blender I/O v1.2.75","version":"2.0"},"scene":0,"scenes":[{"name":"Scene","nodes":[0]}],"nodes":[{"mesh":0,"name":"Mesh"}],"meshes":[{"name":"SM_Pipe_round_cross_transition1","primitives":[{"indices":6,"attributes":{"POSITION":0,"NORMAL":1,"COLOR_0":2,"TEXCOORD_0":3,"TEXCOORD_1":4,"TANGENT":5},"mode":4}]}],"accessors":[{"bufferView":0,"componentType":5126,"count":356,"type":"VEC3","min":[-0.2314459228515625,-0.402385368347168,-0.40557861328125],"max":[0.22664827346801758,0.4023853302001953,0.40149860382080077]},{"bufferView":1,"componentType":5126,"count":356,"type":"VEC3"},{"bufferView":2,"componentType":5126,"count":356,"type":"VEC4"},{"bufferView":3,"componentType":5126,"count":356,"type":"VEC2"},{"bufferView":4,"componentType":5126,"count":356,"type":"VEC2"},{"bufferView":5,"componentType":5126,"count":356,"type":"VEC4"},{"bufferView":6,"componentType":5123,"count":1077,"type":"SCALAR"}],"bufferViews":[{"buffer":0,"byteOffset":0,"byteLength":4272},{"buffer":0,"byteOffset":4272,"byteLength":4272},{"buffer":0,"byteOffset":8544,"byteLength":5696},{"buffer":0,"byteOffset":14240,"byteLength":2848},{"buffer":0,"byteOffset":17088,"byteLength":2848},{"buffer":0,"byteOffset":19936,"byteLength":5696},{"buffer":0,"byteOffset":25632,"byteLength":2154}],"buffers":[{"byteLength":27786,"uri":"data:application/octet-stream;base64,"}]}
