{"asset":{"generator":"Khronos glTF Blender I/O v1.2.75","version":"2.0"},"scene":0,"scenes":[{"name":"Scene","nodes":[0]}],"nodes":[{"mesh":0,"name":"Mesh"}],"meshes":[{"name":"SM_Pipe_round_cross_transition1","primitives":[{"indices":6,"attributes":{"POSITION":0,"NORMAL":1,"COLOR_0":2,"TEXCOORD_0":3,"TEXCOORD_1":4,"TANGENT":5},"mode":4}]}],"accessors":[{"bufferView":0,"componentType":5126,"count":600,"type":"VEC3","min":[-0.2314459228515625,-0.402385368347168,-0.40557861328125],"max":[0.22664827346801758,0.4023853302001953,0.40149860382080077]},{"bufferView":1,"componentType":5126,"count":600,"type":"VEC3"},{"bufferView":2,"componentType":5126,"count":600,"type":"VEC4"},{"bufferView":3,"componentType":5126,"count":600,"type":"VEC2"},{"bufferView":4,"componentType":5126,"count":600,"type":"VEC2"},{"bufferView":5,"componentType":5126,"count":600,"type":"VEC4"},{"bufferView":6,"componentType":5123,"count":2160,"type":"SCALAR"}],"bufferViews":[{"buffer":0,"byteOffset":0,"byteLength":7200},{"buffer":0,"byteOffset":7200,"byteLength":7200},{"buffer":0,"byteOffset":14400,"byteLength":9600},{"buffer":0,"byteOffset":24000,"byteLength":4800},{"buffer":0,"byteOffset":28800,"byteLength":4800},{"buffer":0,"byteOffset":33600,"byteLength":9600},{"buffer":0,"byteOffset":43200,"byteLength":4320}],"buffers":[{"byteLength":47520,"uri":"data:application/octet-stream;base64,"}]}
