{"asset":{"generator":"Khronos glTF Blender I/O v1.2.75","version":"2.0"},"scene":0,"scenes":[{"name":"Scene","nodes":[0]}],"nodes":[{"mesh":0,"name":"Mesh"}],"meshes":[{"name":"SM_Building06_02","primitives":[{"indices":5,"attributes":{"POSITION":0,"NORMAL":1,"TEXCOORD_0":2,"TEXCOORD_1":3,"TANGENT":4},"mode":4}]}],"accessors":[{"bufferView":0,"componentType":5126,"count":610,"type":"VEC3","min":[-0.0000018310546875,-8.392336894758045e-7,-0.3170209121704102],"max":[6.000001220703125,12.00000244140625,0.22975889205932618]},{"bufferView":1,"componentType":5126,"count":610,"type":"VEC3"},{"bufferView":2,"componentType":5126,"count":610,"type":"VEC2"},{"bufferView":3,"componentType":5126,"count":610,"type":"VEC2"},{"bufferView":4,"componentType":5126,"count":610,"type":"VEC4"},{"bufferView":5,"componentType":5123,"count":1170,"type":"SCALAR"}],"bufferViews":[{"buffer":0,"byteOffset":0,"byteLength":7320},{"buffer":0,"byteOffset":7320,"byteLength":7320},{"buffer":0,"byteOffset":14640,"byteLength":4880},{"buffer":0,"byteOffset":19520,"byteLength":4880},{"buffer":0,"byteOffset":24400,"byteLength":9760},{"buffer":0,"byteOffset":34160,"byteLength":2340}],"buffers":[{"byteLength":36500,"uri":"data:application/octet-stream;base64,"}]}
