{"asset":{"generator":"Khronos glTF Blender I/O v1.2.75","version":"2.0"},"scene":0,"scenes":[{"name":"Scene","nodes":[0]}],"nodes":[{"mesh":0,"name":"Mesh"}],"meshes":[{"name":"SM_Building06_02","primitives":[{"indices":5,"attributes":{"POSITION":0,"NORMAL":1,"TEXCOORD_0":2,"TEXCOORD_1":3,"TANGENT":4},"mode":4}]}],"accessors":[{"bufferView":0,"componentType":5126,"count":360,"type":"VEC3","min":[-0.0000018310546875,-8.392336894758045e-7,-0.3170209121704102],"max":[6.000001220703125,12.00000244140625,0.22975889205932618]},{"bufferView":1,"componentType":5126,"count":360,"type":"VEC3"},{"bufferView":2,"componentType":5126,"count":360,"type":"VEC2"},{"bufferView":3,"componentType":5126,"count":360,"type":"VEC2"},{"bufferView":4,"componentType":5126,"count":360,"type":"VEC4"},{"bufferView":5,"componentType":5123,"count":582,"type":"SCALAR"}],"bufferViews":[{"buffer":0,"byteOffset":0,"byteLength":4320},{"buffer":0,"byteOffset":4320,"byteLength":4320},{"buffer":0,"byteOffset":8640,"byteLength":2880},{"buffer":0,"byteOffset":11520,"byteLength":2880},{"buffer":0,"byteOffset":14400,"byteLength":5760},{"buffer":0,"byteOffset":20160,"byteLength":1164}],"buffers":[{"byteLength":21324,"uri":"data:application/octet-stream;base64,"}]}
