{"asset":{"generator":"Khronos glTF Blender I/O v1.2.75","version":"2.0"},"scene":0,"scenes":[{"name":"Scene","nodes":[0]}],"nodes":[{"mesh":0,"name":"Mesh"}],"meshes":[{"name":"SM_PaperBox_01_05","primitives":[{"indices":6,"attributes":{"POSITION":0,"NORMAL":1,"COLOR_0":2,"TEXCOORD_0":3,"TEXCOORD_1":4,"TANGENT":5},"mode":4}]}],"accessors":[{"bufferView":0,"componentType":5126,"count":592,"type":"VEC3","min":[-0.6278832626342773,-0.05763937473297119,-0.8439137268066407],"max":[0.6309457778930664,1.5384686279296875,0.8442186737060546]},{"bufferView":1,"componentType":5126,"count":592,"type":"VEC3"},{"bufferView":2,"componentType":5126,"count":592,"type":"VEC4"},{"bufferView":3,"componentType":5126,"count":592,"type":"VEC2"},{"bufferView":4,"componentType":5126,"count":592,"type":"VEC2"},{"bufferView":5,"componentType":5126,"count":592,"type":"VEC4"},{"bufferView":6,"componentType":5123,"count":624,"type":"SCALAR"}],"bufferViews":[{"buffer":0,"byteOffset":0,"byteLength":7104},{"buffer":0,"byteOffset":7104,"byteLength":7104},{"buffer":0,"byteOffset":14208,"byteLength":9472},{"buffer":0,"byteOffset":23680,"byteLength":4736},{"buffer":0,"byteOffset":28416,"byteLength":4736},{"buffer":0,"byteOffset":33152,"byteLength":9472},{"buffer":0,"byteOffset":42624,"byteLength":1248}],"buffers":[{"byteLength":43872,"uri":"data:application/octet-stream;base64,"}]}
