{"asset":{"generator":"Khronos glTF Blender I/O v1.2.75","version":"2.0"},"scene":0,"scenes":[{"name":"Scene","nodes":[0]}],"nodes":[{"mesh":0,"name":"Mesh"}],"meshes":[{"name":"SM_PaperBox_01_05","primitives":[{"indices":6,"attributes":{"POSITION":0,"NORMAL":1,"COLOR_0":2,"TEXCOORD_0":3,"TEXCOORD_1":4,"TANGENT":5},"mode":4}]}],"accessors":[{"bufferView":0,"componentType":5126,"count":964,"type":"VEC3","min":[-0.6278832626342773,-0.05763937473297119,-0.8439137268066407],"max":[0.6309457778930664,1.5384686279296875,0.8442186737060546]},{"bufferView":1,"componentType":5126,"count":964,"type":"VEC3"},{"bufferView":2,"componentType":5126,"count":964,"type":"VEC4"},{"bufferView":3,"componentType":5126,"count":964,"type":"VEC2"},{"bufferView":4,"componentType":5126,"count":964,"type":"VEC2"},{"bufferView":5,"componentType":5126,"count":964,"type":"VEC4"},{"bufferView":6,"componentType":5123,"count":1044,"type":"SCALAR"}],"bufferViews":[{"buffer":0,"byteOffset":0,"byteLength":11568},{"buffer":0,"byteOffset":11568,"byteLength":11568},{"buffer":0,"byteOffset":23136,"byteLength":15424},{"buffer":0,"byteOffset":38560,"byteLength":7712},{"buffer":0,"byteOffset":46272,"byteLength":7712},{"buffer":0,"byteOffset":53984,"byteLength":15424},{"buffer":0,"byteOffset":69408,"byteLength":2088}],"buffers":[{"byteLength":71496,"uri":"data:application/octet-stream;base64,"}]}
