{"asset":{"generator":"Khronos glTF Blender I/O v1.2.75","version":"2.0"},"scene":0,"scenes":[{"name":"Scene","nodes":[0]}],"nodes":[{"mesh":0,"name":"Mesh"}],"meshes":[{"name":"SM_Column","primitives":[{"indices":5,"attributes":{"POSITION":0,"NORMAL":1,"TEXCOORD_0":2,"TEXCOORD_1":3,"TANGENT":4},"mode":4}]}],"accessors":[{"bufferView":0,"componentType":5126,"count":170,"type":"VEC3","min":[-0.2765279006958008,-1.1086360245826655e-7,-0.27008825302124023],"max":[0.2765279579162598,5.01869873046875,0.2765279197692871]},{"bufferView":1,"componentType":5126,"count":170,"type":"VEC3"},{"bufferView":2,"componentType":5126,"count":170,"type":"VEC2"},{"bufferView":3,"componentType":5126,"count":170,"type":"VEC2"},{"bufferView":4,"componentType":5126,"count":170,"type":"VEC4"},{"bufferView":5,"componentType":5123,"count":420,"type":"SCALAR"}],"bufferViews":[{"buffer":0,"byteOffset":0,"byteLength":2040},{"buffer":0,"byteOffset":2040,"byteLength":2040},{"buffer":0,"byteOffset":4080,"byteLength":1360},{"buffer":0,"byteOffset":5440,"byteLength":1360},{"buffer":0,"byteOffset":6800,"byteLength":2720},{"buffer":0,"byteOffset":9520,"byteLength":840}],"buffers":[{"byteLength":10360,"uri":"data:application/octet-stream;base64,"}]}
