{"asset":{"generator":"Khronos glTF Blender I/O v1.2.75","version":"2.0"},"scene":0,"scenes":[{"name":"Scene","nodes":[0]}],"nodes":[{"mesh":0,"name":"Mesh"}],"meshes":[{"name":"SM_Column","primitives":[{"indices":5,"attributes":{"POSITION":0,"NORMAL":1,"TEXCOORD_0":2,"TEXCOORD_1":3,"TANGENT":4},"mode":4}]}],"accessors":[{"bufferView":0,"componentType":5126,"count":70,"type":"VEC3","min":[-0.2765279006958008,-1.1086360245826655e-7,-0.27008825302124023],"max":[0.2765279579162598,5.01869873046875,0.2765279197692871]},{"bufferView":1,"componentType":5126,"count":70,"type":"VEC3"},{"bufferView":2,"componentType":5126,"count":70,"type":"VEC2"},{"bufferView":3,"componentType":5126,"count":70,"type":"VEC2"},{"bufferView":4,"componentType":5126,"count":70,"type":"VEC4"},{"bufferView":5,"componentType":5123,"count":102,"type":"SCALAR"}],"bufferViews":[{"buffer":0,"byteOffset":0,"byteLength":840},{"buffer":0,"byteOffset":840,"byteLength":840},{"buffer":0,"byteOffset":1680,"byteLength":560},{"buffer":0,"byteOffset":2240,"byteLength":560},{"buffer":0,"byteOffset":2800,"byteLength":1120},{"buffer":0,"byteOffset":3920,"byteLength":204}],"buffers":[{"byteLength":4124,"uri":"data:application/octet-stream;base64,"}]}
