{"asset":{"generator":"Khronos glTF Blender I/O v1.2.75","version":"2.0"},"scene":0,"scenes":[{"name":"Scene","nodes":[0]}],"nodes":[{"mesh":0,"name":"Mesh"}],"meshes":[{"name":"SM_Pipe_square_corner_vertical","primitives":[{"indices":6,"attributes":{"POSITION":0,"NORMAL":1,"COLOR_0":2,"TEXCOORD_0":3,"TEXCOORD_1":4,"TANGENT":5},"mode":4}]}],"accessors":[{"bufferView":0,"componentType":5126,"count":572,"type":"VEC3","min":[-0.21999984741210937,-0.7799998474121094,-1.5676021575927734e-7],"max":[0.22000024795532228,0.12000015258789062,0.90999755859375]},{"bufferView":1,"componentType":5126,"count":572,"type":"VEC3"},{"bufferView":2,"componentType":5126,"count":572,"type":"VEC4"},{"bufferView":3,"componentType":5126,"count":572,"type":"VEC2"},{"bufferView":4,"componentType":5126,"count":572,"type":"VEC2"},{"bufferView":5,"componentType":5126,"count":572,"type":"VEC4"},{"bufferView":6,"componentType":5123,"count":1548,"type":"SCALAR"}],"bufferViews":[{"buffer":0,"byteOffset":0,"byteLength":6864},{"buffer":0,"byteOffset":6864,"byteLength":6864},{"buffer":0,"byteOffset":13728,"byteLength":9152},{"buffer":0,"byteOffset":22880,"byteLength":4576},{"buffer":0,"byteOffset":27456,"byteLength":4576},{"buffer":0,"byteOffset":32032,"byteLength":9152},{"buffer":0,"byteOffset":41184,"byteLength":3096}],"buffers":[{"byteLength":44280,"uri":"data:application/octet-stream;base64,"}]}
