{"asset":{"generator":"Khronos glTF Blender I/O v1.2.75","version":"2.0"},"scene":0,"scenes":[{"name":"Scene","nodes":[0]}],"nodes":[{"mesh":0,"name":"Mesh"}],"meshes":[{"name":"SM_Building12_01","primitives":[{"indices":5,"attributes":{"POSITION":0,"NORMAL":1,"TEXCOORD_0":2,"TEXCOORD_1":3,"TANGENT":4},"mode":4}]}],"accessors":[{"bufferView":0,"componentType":5126,"count":465,"type":"VEC3","min":[-0.9945258331298829,-0.02178830623626709,-11.000001220703124],"max":[-0.007415885925292969,12.021785888671875,7.742643356323242e-7]},{"bufferView":1,"componentType":5126,"count":465,"type":"VEC3"},{"bufferView":2,"componentType":5126,"count":465,"type":"VEC2"},{"bufferView":3,"componentType":5126,"count":465,"type":"VEC2"},{"bufferView":4,"componentType":5126,"count":465,"type":"VEC4"},{"bufferView":5,"componentType":5123,"count":549,"type":"SCALAR"}],"bufferViews":[{"buffer":0,"byteOffset":0,"byteLength":5580},{"buffer":0,"byteOffset":5580,"byteLength":5580},{"buffer":0,"byteOffset":11160,"byteLength":3720},{"buffer":0,"byteOffset":14880,"byteLength":3720},{"buffer":0,"byteOffset":18600,"byteLength":7440},{"buffer":0,"byteOffset":26040,"byteLength":1098}],"buffers":[{"byteLength":27138,"uri":"data:application/octet-stream;base64,"}]}
