{"asset":{"generator":"Khronos glTF Blender I/O v1.2.75","version":"2.0"},"scene":0,"scenes":[{"name":"Scene","nodes":[0]}],"nodes":[{"mesh":0,"name":"Mesh"}],"meshes":[{"name":"SM_Building12_01","primitives":[{"indices":5,"attributes":{"POSITION":0,"NORMAL":1,"TEXCOORD_0":2,"TEXCOORD_1":3,"TANGENT":4},"mode":4}]}],"accessors":[{"bufferView":0,"componentType":5126,"count":1042,"type":"VEC3","min":[-0.9945258331298829,-0.02178830623626709,-11.000001220703124],"max":[-0.007415885925292969,12.021785888671875,7.742643356323242e-7]},{"bufferView":1,"componentType":5126,"count":1042,"type":"VEC3"},{"bufferView":2,"componentType":5126,"count":1042,"type":"VEC2"},{"bufferView":3,"componentType":5126,"count":1042,"type":"VEC2"},{"bufferView":4,"componentType":5126,"count":1042,"type":"VEC4"},{"bufferView":5,"componentType":5123,"count":2196,"type":"SCALAR"}],"bufferViews":[{"buffer":0,"byteOffset":0,"byteLength":12504},{"buffer":0,"byteOffset":12504,"byteLength":12504},{"buffer":0,"byteOffset":25008,"byteLength":8336},{"buffer":0,"byteOffset":33344,"byteLength":8336},{"buffer":0,"byteOffset":41680,"byteLength":16672},{"buffer":0,"byteOffset":58352,"byteLength":4392}],"buffers":[{"byteLength":62744,"uri":"data:application/octet-stream;base64,"}]}
