{"asset":{"generator":"Khronos glTF Blender I/O v1.2.75","version":"2.0"},"scene":0,"scenes":[{"name":"Scene","nodes":[0]}],"nodes":[{"mesh":0,"name":"Mesh"}],"meshes":[{"name":"occ_merge_logo","primitives":[{"indices":5,"attributes":{"POSITION":0,"NORMAL":1,"TEXCOORD_0":2,"TEXCOORD_1":3,"TANGENT":4},"mode":4}]}],"accessors":[{"bufferView":0,"componentType":5126,"count":33028,"type":"VEC3","min":[-0.6564227294921875,-0.058315825462341306,-0.029433832168579102],"max":[0.67258056640625,0.25413654327392576,-0.0013144329190254212]},{"bufferView":1,"componentType":5126,"count":33028,"type":"VEC3"},{"bufferView":2,"componentType":5126,"count":33028,"type":"VEC2"},{"bufferView":3,"componentType":5126,"count":33028,"type":"VEC2"},{"bufferView":4,"componentType":5126,"count":33028,"type":"VEC4"},{"bufferView":5,"componentType":5123,"count":156672,"type":"SCALAR"}],"bufferViews":[{"buffer":0,"byteOffset":0,"byteLength":396336},{"buffer":0,"byteOffset":396336,"byteLength":396336},{"buffer":0,"byteOffset":792672,"byteLength":264224},{"buffer":0,"byteOffset":1056896,"byteLength":264224},{"buffer":0,"byteOffset":1321120,"byteLength":528448},{"buffer":0,"byteOffset":1849568,"byteLength":313344}],"buffers":[{"byteLength":2162912,"uri":"data:application/octet-stream;base64,"}]}
