{"asset":{"generator":"Khronos glTF Blender I/O v1.2.75","version":"2.0"},"scene":0,"scenes":[{"name":"Scene","nodes":[0]}],"nodes":[{"mesh":0,"name":"Mesh"}],"meshes":[{"name":"SM_PipeGroup27","primitives":[{"indices":5,"attributes":{"POSITION":0,"NORMAL":1,"TEXCOORD_0":2,"TEXCOORD_1":3,"TANGENT":4},"mode":4}]}],"accessors":[{"bufferView":0,"componentType":5126,"count":948,"type":"VEC3","min":[-4.800651550292969,-12.25516845703125,-7.57994384765625],"max":[2.4530372619628906,5.04001953125,1.7003871154785157]},{"bufferView":1,"componentType":5126,"count":948,"type":"VEC3"},{"bufferView":2,"componentType":5126,"count":948,"type":"VEC2"},{"bufferView":3,"componentType":5126,"count":948,"type":"VEC2"},{"bufferView":4,"componentType":5126,"count":948,"type":"VEC4"},{"bufferView":5,"componentType":5123,"count":1872,"type":"SCALAR"}],"bufferViews":[{"buffer":0,"byteOffset":0,"byteLength":11376},{"buffer":0,"byteOffset":11376,"byteLength":11376},{"buffer":0,"byteOffset":22752,"byteLength":7584},{"buffer":0,"byteOffset":30336,"byteLength":7584},{"buffer":0,"byteOffset":37920,"byteLength":15168},{"buffer":0,"byteOffset":53088,"byteLength":3744}],"buffers":[{"byteLength":56832,"uri":"data:application/octet-stream;base64,"}]}
