{"asset":{"generator":"Khronos glTF Blender I/O v1.2.75","version":"2.0"},"scene":0,"scenes":[{"name":"Scene","nodes":[0]}],"nodes":[{"mesh":0,"name":"Mesh"}],"meshes":[{"name":"SM_Building11_05","primitives":[{"indices":5,"attributes":{"POSITION":0,"NORMAL":1,"TEXCOORD_0":2,"TEXCOORD_1":3,"TANGENT":4},"mode":4},{"indices":11,"attributes":{"POSITION":6,"NORMAL":7,"TEXCOORD_0":8,"TEXCOORD_1":9,"TANGENT":10},"mode":4},{"indices":17,"attributes":{"POSITION":12,"NORMAL":13,"TEXCOORD_0":14,"TEXCOORD_1":15,"TANGENT":16},"mode":4},{"indices":23,"attributes":{"POSITION":18,"NORMAL":19,"TEXCOORD_0":20,"TEXCOORD_1":21,"TANGENT":22},"mode":4},{"indices":29,"attributes":{"POSITION":24,"NORMAL":25,"TEXCOORD_0":26,"TEXCOORD_1":27,"TANGENT":28},"mode":4},{"indices":35,"attributes":{"POSITION":30,"NORMAL":31,"TEXCOORD_0":32,"TEXCOORD_1":33,"TANGENT":34},"mode":4}]}],"accessors":[{"bufferView":0,"componentType":5126,"count":1918,"type":"VEC3","min":[-17.95,-3.4037384033203124,-22.7911962890625],"max":[2.5511962890625,84.86041015625,9.255413208007813]},{"bufferView":1,"componentType":5126,"count":1918,"type":"VEC3"},{"bufferView":2,"componentType":5126,"count":1918,"type":"VEC2"},{"bufferView":3,"componentType":5126,"count":1918,"type":"VEC2"},{"bufferView":4,"componentType":5126,"count":1918,"type":"VEC4"},{"bufferView":5,"componentType":5123,"count":3510,"type":"SCALAR"},{"bufferView":6,"componentType":5126,"count":312,"type":"VEC3","min":[-17.95,-3.4037384033203124,-22.7911962890625],"max":[2.5511962890625,84.86041015625,9.255413208007813]},{"bufferView":7,"componentType":5126,"count":312,"type":"VEC3"},{"bufferView":8,"componentType":5126,"count":312,"type":"VEC2"},{"bufferView":9,"componentType":5126,"count":312,"type":"VEC2"},{"bufferView":10,"componentType":5126,"count":312,"type":"VEC4"},{"bufferView":11,"componentType":5123,"count":468,"type":"SCALAR"},{"bufferView":12,"componentType":5126,"count":1886,"type":"VEC3","min":[-17.95,-3.4037384033203124,-22.7911962890625],"max":[2.5511962890625,84.86041015625,9.255413208007813]},{"bufferView":13,"componentType":5126,"count":1886,"type":"VEC3"},{"bufferView":14,"componentType":5126,"count":1886,"type":"VEC2"},{"bufferView":15,"componentType":5126,"count":1886,"type":"VEC2"},{"bufferView":16,"componentType":5126,"count":1886,"type":"VEC4"},{"bufferView":17,"componentType":5123,"count":2718,"type":"SCALAR"},{"bufferView":18,"componentType":5126,"count":56,"type":"VEC3","min":[-17.95,-3.4037384033203124,-22.7911962890625],"max":[2.5511962890625,84.86041015625,9.255413208007813]},{"bufferView":19,"componentType":5126,"count":56,"type":"VEC3"},{"bufferView":20,"componentType":5126,"count":56,"type":"VEC2"},{"bufferView":21,"componentType":5126,"count":56,"type":"VEC2"},{"bufferView":22,"componentType":5126,"count":56,"type":"VEC4"},{"bufferView":23,"componentType":5123,"count":96,"type":"SCALAR"},{"bufferView":24,"componentType":5126,"count":160,"type":"VEC3","min":[-17.95,-3.4037384033203124,-22.7911962890625],"max":[2.5511962890625,84.86041015625,9.255413208007813]},{"bufferView":25,"componentType":5126,"count":160,"type":"VEC3"},{"bufferView":26,"componentType":5126,"count":160,"type":"VEC2"},{"bufferView":27,"componentType":5126,"count":160,"type":"VEC2"},{"bufferView":28,"componentType":5126,"count":160,"type":"VEC4"},{"bufferView":29,"componentType":5123,"count":192,"type":"SCALAR"},{"bufferView":30,"componentType":5126,"count":72,"type":"VEC3","min":[-17.95,-3.4037384033203124,-22.7911962890625],"max":[2.5511962890625,84.86041015625,9.255413208007813]},{"bufferView":31,"componentType":5126,"count":72,"type":"VEC3"},{"bufferView":32,"componentType":5126,"count":72,"type":"VEC2"},{"bufferView":33,"componentType":5126,"count":72,"type":"VEC2"},{"bufferView":34,"componentType":5126,"count":72,"type":"VEC4"},{"bufferView":35,"componentType":5123,"count":108,"type":"SCALAR"}],"bufferViews":[{"buffer":0,"byteOffset":0,"byteLength":23016},{"buffer":0,"byteOffset":23016,"byteLength":23016},{"buffer":0,"byteOffset":46032,"byteLength":15344},{"buffer":0,"byteOffset":61376,"byteLength":15344},{"buffer":0,"byteOffset":76720,"byteLength":30688},{"buffer":0,"byteOffset":107408,"byteLength":7020},{"buffer":1,"byteOffset":0,"byteLength":3744},{"buffer":1,"byteOffset":3744,"byteLength":3744},{"buffer":1,"byteOffset":7488,"byteLength":2496},{"buffer":1,"byteOffset":9984,"byteLength":2496},{"buffer":1,"byteOffset":12480,"byteLength":4992},{"buffer":1,"byteOffset":17472,"byteLength":936},{"buffer":2,"byteOffset":0,"byteLength":22632},{"buffer":2,"byteOffset":22632,"byteLength":22632},{"buffer":2,"byteOffset":45264,"byteLength":15088},{"buffer":2,"byteOffset":60352,"byteLength":15088},{"buffer":2,"byteOffset":75440,"byteLength":30176},{"buffer":2,"byteOffset":105616,"byteLength":5436},{"buffer":3,"byteOffset":0,"byteLength":672},{"buffer":3,"byteOffset":672,"byteLength":672},{"buffer":3,"byteOffset":1344,"byteLength":448},{"buffer":3,"byteOffset":1792,"byteLength":448},{"buffer":3,"byteOffset":2240,"byteLength":896},{"buffer":3,"byteOffset":3136,"byteLength":192},{"buffer":4,"byteOffset":0,"byteLength":1920},{"buffer":4,"byteOffset":1920,"byteLength":1920},{"buffer":4,"byteOffset":3840,"byteLength":1280},{"buffer":4,"byteOffset":5120,"byteLength":1280},{"buffer":4,"byteOffset":6400,"byteLength":2560},{"buffer":4,"byteOffset":8960,"byteLength":384},{"buffer":5,"byteOffset":0,"byteLength":864},{"buffer":5,"byteOffset":864,"byteLength":864},{"buffer":5,"byteOffset":1728,"byteLength":576},{"buffer":5,"byteOffset":2304,"byteLength":576},{"buffer":5,"byteOffset":2880,"byteLength":1152},{"buffer":5,"byteOffset":4032,"byteLength":216}],"buffers":[{"byteLength":114428,"uri":"data:application/octet-stream;base64,"},{"byteLength":18408,"uri":"data:application/octet-stream;base64,"},{"byteLength":111052,"uri":"data:application/octet-stream;base64,"},{"byteLength":3328,"uri":"data:application/octet-stream;base64,"},{"byteLength":9344,"uri":"data:application/octet-stream;base64,"},{"byteLength":4248,"uri":"data:application/octet-stream;base64,"}]}
