{"asset":{"generator":"Khronos glTF Blender I/O v1.2.75","version":"2.0"},"scene":0,"scenes":[{"name":"Scene","nodes":[0]}],"nodes":[{"mesh":0,"name":"Mesh"}],"meshes":[{"name":"SM_Building11_05","primitives":[{"indices":5,"attributes":{"POSITION":0,"NORMAL":1,"TEXCOORD_0":2,"TEXCOORD_1":3,"TANGENT":4},"mode":4},{"indices":11,"attributes":{"POSITION":6,"NORMAL":7,"TEXCOORD_0":8,"TEXCOORD_1":9,"TANGENT":10},"mode":4},{"indices":17,"attributes":{"POSITION":12,"NORMAL":13,"TEXCOORD_0":14,"TEXCOORD_1":15,"TANGENT":16},"mode":4},{"indices":23,"attributes":{"POSITION":18,"NORMAL":19,"TEXCOORD_0":20,"TEXCOORD_1":21,"TANGENT":22},"mode":4},{"indices":29,"attributes":{"POSITION":24,"NORMAL":25,"TEXCOORD_0":26,"TEXCOORD_1":27,"TANGENT":28},"mode":4},{"indices":35,"attributes":{"POSITION":30,"NORMAL":31,"TEXCOORD_0":32,"TEXCOORD_1":33,"TANGENT":34},"mode":4},{"indices":41,"attributes":{"POSITION":36,"NORMAL":37,"TEXCOORD_0":38,"TEXCOORD_1":39,"TANGENT":40},"mode":4}]}],"accessors":[{"bufferView":0,"componentType":5126,"count":3946,"type":"VEC3","min":[-17.95,-3.4037384033203124,-22.7911962890625],"max":[2.5511962890625,84.86041015625,9.255413208007813]},{"bufferView":1,"componentType":5126,"count":3946,"type":"VEC3"},{"bufferView":2,"componentType":5126,"count":3946,"type":"VEC2"},{"bufferView":3,"componentType":5126,"count":3946,"type":"VEC2"},{"bufferView":4,"componentType":5126,"count":3946,"type":"VEC4"},{"bufferView":5,"componentType":5123,"count":8490,"type":"SCALAR"},{"bufferView":6,"componentType":5126,"count":312,"type":"VEC3","min":[-17.95,-3.4037384033203124,-22.7911962890625],"max":[2.5511962890625,84.86041015625,9.255413208007813]},{"bufferView":7,"componentType":5126,"count":312,"type":"VEC3"},{"bufferView":8,"componentType":5126,"count":312,"type":"VEC2"},{"bufferView":9,"componentType":5126,"count":312,"type":"VEC2"},{"bufferView":10,"componentType":5126,"count":312,"type":"VEC4"},{"bufferView":11,"componentType":5123,"count":468,"type":"SCALAR"},{"bufferView":12,"componentType":5126,"count":1936,"type":"VEC3","min":[-17.95,-3.4037384033203124,-22.7911962890625],"max":[2.5511962890625,84.86041015625,9.255413208007813]},{"bufferView":13,"componentType":5126,"count":1936,"type":"VEC3"},{"bufferView":14,"componentType":5126,"count":1936,"type":"VEC2"},{"bufferView":15,"componentType":5126,"count":1936,"type":"VEC2"},{"bufferView":16,"componentType":5126,"count":1936,"type":"VEC4"},{"bufferView":17,"componentType":5123,"count":3432,"type":"SCALAR"},{"bufferView":18,"componentType":5126,"count":18200,"type":"VEC3","min":[-17.95,-3.4037384033203124,-22.7911962890625],"max":[2.5511962890625,84.86041015625,9.255413208007813]},{"bufferView":19,"componentType":5126,"count":18200,"type":"VEC3"},{"bufferView":20,"componentType":5126,"count":18200,"type":"VEC2"},{"bufferView":21,"componentType":5126,"count":18200,"type":"VEC2"},{"bufferView":22,"componentType":5126,"count":18200,"type":"VEC4"},{"bufferView":23,"componentType":5123,"count":33900,"type":"SCALAR"},{"bufferView":24,"componentType":5126,"count":104,"type":"VEC3","min":[-17.95,-3.4037384033203124,-22.7911962890625],"max":[2.5511962890625,84.86041015625,9.255413208007813]},{"bufferView":25,"componentType":5126,"count":104,"type":"VEC3"},{"bufferView":26,"componentType":5126,"count":104,"type":"VEC2"},{"bufferView":27,"componentType":5126,"count":104,"type":"VEC2"},{"bufferView":28,"componentType":5126,"count":104,"type":"VEC4"},{"bufferView":29,"componentType":5123,"count":192,"type":"SCALAR"},{"bufferView":30,"componentType":5126,"count":320,"type":"VEC3","min":[-17.95,-3.4037384033203124,-22.7911962890625],"max":[2.5511962890625,84.86041015625,9.255413208007813]},{"bufferView":31,"componentType":5126,"count":320,"type":"VEC3"},{"bufferView":32,"componentType":5126,"count":320,"type":"VEC2"},{"bufferView":33,"componentType":5126,"count":320,"type":"VEC2"},{"bufferView":34,"componentType":5126,"count":320,"type":"VEC4"},{"bufferView":35,"componentType":5123,"count":672,"type":"SCALAR"},{"bufferView":36,"componentType":5126,"count":72,"type":"VEC3","min":[-17.95,-3.4037384033203124,-22.7911962890625],"max":[2.5511962890625,84.86041015625,9.255413208007813]},{"bufferView":37,"componentType":5126,"count":72,"type":"VEC3"},{"bufferView":38,"componentType":5126,"count":72,"type":"VEC2"},{"bufferView":39,"componentType":5126,"count":72,"type":"VEC2"},{"bufferView":40,"componentType":5126,"count":72,"type":"VEC4"},{"bufferView":41,"componentType":5123,"count":108,"type":"SCALAR"}],"bufferViews":[{"buffer":0,"byteOffset":0,"byteLength":47352},{"buffer":0,"byteOffset":47352,"byteLength":47352},{"buffer":0,"byteOffset":94704,"byteLength":31568},{"buffer":0,"byteOffset":126272,"byteLength":31568},{"buffer":0,"byteOffset":157840,"byteLength":63136},{"buffer":0,"byteOffset":220976,"byteLength":16980},{"buffer":1,"byteOffset":0,"byteLength":3744},{"buffer":1,"byteOffset":3744,"byteLength":3744},{"buffer":1,"byteOffset":7488,"byteLength":2496},{"buffer":1,"byteOffset":9984,"byteLength":2496},{"buffer":1,"byteOffset":12480,"byteLength":4992},{"buffer":1,"byteOffset":17472,"byteLength":936},{"buffer":2,"byteOffset":0,"byteLength":23232},{"buffer":2,"byteOffset":23232,"byteLength":23232},{"buffer":2,"byteOffset":46464,"byteLength":15488},{"buffer":2,"byteOffset":61952,"byteLength":15488},{"buffer":2,"byteOffset":77440,"byteLength":30976},{"buffer":2,"byteOffset":108416,"byteLength":6864},{"buffer":3,"byteOffset":0,"byteLength":218400},{"buffer":3,"byteOffset":218400,"byteLength":218400},{"buffer":3,"byteOffset":436800,"byteLength":145600},{"buffer":3,"byteOffset":582400,"byteLength":145600},{"buffer":3,"byteOffset":728000,"byteLength":291200},{"buffer":3,"byteOffset":1019200,"byteLength":67800},{"buffer":4,"byteOffset":0,"byteLength":1248},{"buffer":4,"byteOffset":1248,"byteLength":1248},{"buffer":4,"byteOffset":2496,"byteLength":832},{"buffer":4,"byteOffset":3328,"byteLength":832},{"buffer":4,"byteOffset":4160,"byteLength":1664},{"buffer":4,"byteOffset":5824,"byteLength":384},{"buffer":5,"byteOffset":0,"byteLength":3840},{"buffer":5,"byteOffset":3840,"byteLength":3840},{"buffer":5,"byteOffset":7680,"byteLength":2560},{"buffer":5,"byteOffset":10240,"byteLength":2560},{"buffer":5,"byteOffset":12800,"byteLength":5120},{"buffer":5,"byteOffset":17920,"byteLength":1344},{"buffer":6,"byteOffset":0,"byteLength":864},{"buffer":6,"byteOffset":864,"byteLength":864},{"buffer":6,"byteOffset":1728,"byteLength":576},{"buffer":6,"byteOffset":2304,"byteLength":576},{"buffer":6,"byteOffset":2880,"byteLength":1152},{"buffer":6,"byteOffset":4032,"byteLength":216}],"buffers":[{"byteLength":237956,"uri":"data:application/octet-stream;base64,"},{"byteLength":18408,"uri":"data:application/octet-stream;base64,"},{"byteLength":115280,"uri":"data:application/octet-stream;base64,"},{"byteLength":1087000,"uri":"data:application/octet-stream;base64,"},{"byteLength":6208,"uri":"data:application/octet-stream;base64,"},{"byteLength":19264,"uri":"data:application/octet-stream;base64,"},{"byteLength":4248,"uri":"data:application/octet-stream;base64,"}]}
