{"asset":{"generator":"Khronos glTF Blender I/O v1.2.75","version":"2.0"},"scene":0,"scenes":[{"name":"Scene","nodes":[0]}],"nodes":[{"mesh":0,"name":"Mesh"}],"meshes":[{"name":"SM_Building11_05","primitives":[{"indices":5,"attributes":{"POSITION":0,"NORMAL":1,"TEXCOORD_0":2,"TEXCOORD_1":3,"TANGENT":4},"mode":4},{"indices":11,"attributes":{"POSITION":6,"NORMAL":7,"TEXCOORD_0":8,"TEXCOORD_1":9,"TANGENT":10},"mode":4},{"indices":17,"attributes":{"POSITION":12,"NORMAL":13,"TEXCOORD_0":14,"TEXCOORD_1":15,"TANGENT":16},"mode":4},{"indices":23,"attributes":{"POSITION":18,"NORMAL":19,"TEXCOORD_0":20,"TEXCOORD_1":21,"TANGENT":22},"mode":4},{"indices":29,"attributes":{"POSITION":24,"NORMAL":25,"TEXCOORD_0":26,"TEXCOORD_1":27,"TANGENT":28},"mode":4},{"indices":35,"attributes":{"POSITION":30,"NORMAL":31,"TEXCOORD_0":32,"TEXCOORD_1":33,"TANGENT":34},"mode":4},{"indices":41,"attributes":{"POSITION":36,"NORMAL":37,"TEXCOORD_0":38,"TEXCOORD_1":39,"TANGENT":40},"mode":4}]}],"accessors":[{"bufferView":0,"componentType":5126,"count":2776,"type":"VEC3","min":[-17.95,-3.4037384033203124,-22.7911962890625],"max":[2.5511962890625,84.86041015625,9.255413208007813]},{"bufferView":1,"componentType":5126,"count":2776,"type":"VEC3"},{"bufferView":2,"componentType":5126,"count":2776,"type":"VEC2"},{"bufferView":3,"componentType":5126,"count":2776,"type":"VEC2"},{"bufferView":4,"componentType":5126,"count":2776,"type":"VEC4"},{"bufferView":5,"componentType":5123,"count":4956,"type":"SCALAR"},{"bufferView":6,"componentType":5126,"count":312,"type":"VEC3","min":[-17.95,-3.4037384033203124,-22.7911962890625],"max":[2.5511962890625,84.86041015625,9.255413208007813]},{"bufferView":7,"componentType":5126,"count":312,"type":"VEC3"},{"bufferView":8,"componentType":5126,"count":312,"type":"VEC2"},{"bufferView":9,"componentType":5126,"count":312,"type":"VEC2"},{"bufferView":10,"componentType":5126,"count":312,"type":"VEC4"},{"bufferView":11,"componentType":5123,"count":468,"type":"SCALAR"},{"bufferView":12,"componentType":5126,"count":968,"type":"VEC3","min":[-17.95,-3.4037384033203124,-22.7911962890625],"max":[2.5511962890625,84.86041015625,9.255413208007813]},{"bufferView":13,"componentType":5126,"count":968,"type":"VEC3"},{"bufferView":14,"componentType":5126,"count":968,"type":"VEC2"},{"bufferView":15,"componentType":5126,"count":968,"type":"VEC2"},{"bufferView":16,"componentType":5126,"count":968,"type":"VEC4"},{"bufferView":17,"componentType":5123,"count":1320,"type":"SCALAR"},{"bufferView":18,"componentType":5126,"count":10742,"type":"VEC3","min":[-17.95,-3.4037384033203124,-22.7911962890625],"max":[2.5511962890625,84.86041015625,9.255413208007813]},{"bufferView":19,"componentType":5126,"count":10742,"type":"VEC3"},{"bufferView":20,"componentType":5126,"count":10742,"type":"VEC2"},{"bufferView":21,"componentType":5126,"count":10742,"type":"VEC2"},{"bufferView":22,"componentType":5126,"count":10742,"type":"VEC4"},{"bufferView":23,"componentType":5123,"count":16380,"type":"SCALAR"},{"bufferView":24,"componentType":5126,"count":64,"type":"VEC3","min":[-17.95,-3.4037384033203124,-22.7911962890625],"max":[2.5511962890625,84.86041015625,9.255413208007813]},{"bufferView":25,"componentType":5126,"count":64,"type":"VEC3"},{"bufferView":26,"componentType":5126,"count":64,"type":"VEC2"},{"bufferView":27,"componentType":5126,"count":64,"type":"VEC2"},{"bufferView":28,"componentType":5126,"count":64,"type":"VEC4"},{"bufferView":29,"componentType":5123,"count":108,"type":"SCALAR"},{"bufferView":30,"componentType":5126,"count":192,"type":"VEC3","min":[-17.95,-3.4037384033203124,-22.7911962890625],"max":[2.5511962890625,84.86041015625,9.255413208007813]},{"bufferView":31,"componentType":5126,"count":192,"type":"VEC3"},{"bufferView":32,"componentType":5126,"count":192,"type":"VEC2"},{"bufferView":33,"componentType":5126,"count":192,"type":"VEC2"},{"bufferView":34,"componentType":5126,"count":192,"type":"VEC4"},{"bufferView":35,"componentType":5123,"count":288,"type":"SCALAR"},{"bufferView":36,"componentType":5126,"count":72,"type":"VEC3","min":[-17.95,-3.4037384033203124,-22.7911962890625],"max":[2.5511962890625,84.86041015625,9.255413208007813]},{"bufferView":37,"componentType":5126,"count":72,"type":"VEC3"},{"bufferView":38,"componentType":5126,"count":72,"type":"VEC2"},{"bufferView":39,"componentType":5126,"count":72,"type":"VEC2"},{"bufferView":40,"componentType":5126,"count":72,"type":"VEC4"},{"bufferView":41,"componentType":5123,"count":108,"type":"SCALAR"}],"bufferViews":[{"buffer":0,"byteOffset":0,"byteLength":33312},{"buffer":0,"byteOffset":33312,"byteLength":33312},{"buffer":0,"byteOffset":66624,"byteLength":22208},{"buffer":0,"byteOffset":88832,"byteLength":22208},{"buffer":0,"byteOffset":111040,"byteLength":44416},{"buffer":0,"byteOffset":155456,"byteLength":9912},{"buffer":1,"byteOffset":0,"byteLength":3744},{"buffer":1,"byteOffset":3744,"byteLength":3744},{"buffer":1,"byteOffset":7488,"byteLength":2496},{"buffer":1,"byteOffset":9984,"byteLength":2496},{"buffer":1,"byteOffset":12480,"byteLength":4992},{"buffer":1,"byteOffset":17472,"byteLength":936},{"buffer":2,"byteOffset":0,"byteLength":11616},{"buffer":2,"byteOffset":11616,"byteLength":11616},{"buffer":2,"byteOffset":23232,"byteLength":7744},{"buffer":2,"byteOffset":30976,"byteLength":7744},{"buffer":2,"byteOffset":38720,"byteLength":15488},{"buffer":2,"byteOffset":54208,"byteLength":2640},{"buffer":3,"byteOffset":0,"byteLength":128904},{"buffer":3,"byteOffset":128904,"byteLength":128904},{"buffer":3,"byteOffset":257808,"byteLength":85936},{"buffer":3,"byteOffset":343744,"byteLength":85936},{"buffer":3,"byteOffset":429680,"byteLength":171872},{"buffer":3,"byteOffset":601552,"byteLength":32760},{"buffer":4,"byteOffset":0,"byteLength":768},{"buffer":4,"byteOffset":768,"byteLength":768},{"buffer":4,"byteOffset":1536,"byteLength":512},{"buffer":4,"byteOffset":2048,"byteLength":512},{"buffer":4,"byteOffset":2560,"byteLength":1024},{"buffer":4,"byteOffset":3584,"byteLength":216},{"buffer":5,"byteOffset":0,"byteLength":2304},{"buffer":5,"byteOffset":2304,"byteLength":2304},{"buffer":5,"byteOffset":4608,"byteLength":1536},{"buffer":5,"byteOffset":6144,"byteLength":1536},{"buffer":5,"byteOffset":7680,"byteLength":3072},{"buffer":5,"byteOffset":10752,"byteLength":576},{"buffer":6,"byteOffset":0,"byteLength":864},{"buffer":6,"byteOffset":864,"byteLength":864},{"buffer":6,"byteOffset":1728,"byteLength":576},{"buffer":6,"byteOffset":2304,"byteLength":576},{"buffer":6,"byteOffset":2880,"byteLength":1152},{"buffer":6,"byteOffset":4032,"byteLength":216}],"buffers":[{"byteLength":165368,"uri":"data:application/octet-stream;base64,"},{"byteLength":18408,"uri":"data:application/octet-stream;base64,"},{"byteLength":56848,"uri":"data:application/octet-stream;base64,"},{"byteLength":634312,"uri":"data:application/octet-stream;base64,"},{"byteLength":3800,"uri":"data:application/octet-stream;base64,"},{"byteLength":11328,"uri":"data:application/octet-stream;base64,"},{"byteLength":4248,"uri":"data:application/octet-stream;base64,"}]}
