{"asset":{"generator":"Khronos glTF Blender I/O v1.2.75","version":"2.0"},"scene":0,"scenes":[{"name":"Scene","nodes":[0]}],"nodes":[{"mesh":0,"name":"Mesh"}],"meshes":[{"name":"SM_PlatformRailing_01","primitives":[{"indices":6,"attributes":{"POSITION":0,"NORMAL":1,"COLOR_0":2,"TEXCOORD_0":3,"TEXCOORD_1":4,"TANGENT":5},"mode":4}]}],"accessors":[{"bufferView":0,"componentType":5126,"count":906,"type":"VEC3","min":[-0.03799987554550171,-0.0001087188720703125,-0.010691157579421996],"max":[0.03800048589706421,1.2694132232666016,3.5106906127929687]},{"bufferView":1,"componentType":5126,"count":906,"type":"VEC3"},{"bufferView":2,"componentType":5126,"count":906,"type":"VEC4"},{"bufferView":3,"componentType":5126,"count":906,"type":"VEC2"},{"bufferView":4,"componentType":5126,"count":906,"type":"VEC2"},{"bufferView":5,"componentType":5126,"count":906,"type":"VEC4"},{"bufferView":6,"componentType":5123,"count":2412,"type":"SCALAR"}],"bufferViews":[{"buffer":0,"byteOffset":0,"byteLength":10872},{"buffer":0,"byteOffset":10872,"byteLength":10872},{"buffer":0,"byteOffset":21744,"byteLength":14496},{"buffer":0,"byteOffset":36240,"byteLength":7248},{"buffer":0,"byteOffset":43488,"byteLength":7248},{"buffer":0,"byteOffset":50736,"byteLength":14496},{"buffer":0,"byteOffset":65232,"byteLength":4824}],"buffers":[{"byteLength":70056,"uri":"data:application/octet-stream;base64,"}]}
