{"asset":{"generator":"Khronos glTF Blender I/O v1.2.75","version":"2.0"},"scene":0,"scenes":[{"name":"Scene","nodes":[0]}],"nodes":[{"mesh":0,"name":"Mesh"}],"meshes":[{"name":"SM_PipeGroup04","primitives":[{"indices":5,"attributes":{"POSITION":0,"NORMAL":1,"TEXCOORD_0":2,"TEXCOORD_1":3,"TANGENT":4},"mode":4}]}],"accessors":[{"bufferView":0,"componentType":5126,"count":567,"type":"VEC3","min":[-1.7005331420898437,-1.425169677734375,-6.700047607421875],"max":[7.5799267578125,17.670150146484374,0.5541720581054688]},{"bufferView":1,"componentType":5126,"count":567,"type":"VEC3"},{"bufferView":2,"componentType":5126,"count":567,"type":"VEC2"},{"bufferView":3,"componentType":5126,"count":567,"type":"VEC2"},{"bufferView":4,"componentType":5126,"count":567,"type":"VEC4"},{"bufferView":5,"componentType":5123,"count":1146,"type":"SCALAR"}],"bufferViews":[{"buffer":0,"byteOffset":0,"byteLength":6804},{"buffer":0,"byteOffset":6804,"byteLength":6804},{"buffer":0,"byteOffset":13608,"byteLength":4536},{"buffer":0,"byteOffset":18144,"byteLength":4536},{"buffer":0,"byteOffset":22680,"byteLength":9072},{"buffer":0,"byteOffset":31752,"byteLength":2292}],"buffers":[{"byteLength":34044,"uri":"data:application/octet-stream;base64,"}]}
