{"asset":{"generator":"Khronos glTF Blender I/O v1.2.75","version":"2.0"},"scene":0,"scenes":[{"name":"Scene","nodes":[0]}],"nodes":[{"mesh":0,"name":"Mesh"}],"meshes":[{"name":"SM_Lamp_02","primitives":[{"indices":5,"attributes":{"POSITION":0,"NORMAL":1,"TEXCOORD_0":2,"TEXCOORD_1":3,"TANGENT":4},"mode":4}]}],"accessors":[{"bufferView":0,"componentType":5126,"count":40,"type":"VEC3","min":[-0.3,-0.05000002384185791,-0.15000000953674317],"max":[0.3,2.4438102173007793e-8,0.15]},{"bufferView":1,"componentType":5126,"count":40,"type":"VEC3"},{"bufferView":2,"componentType":5126,"count":40,"type":"VEC2"},{"bufferView":3,"componentType":5126,"count":40,"type":"VEC2"},{"bufferView":4,"componentType":5126,"count":40,"type":"VEC4"},{"bufferView":5,"componentType":5123,"count":66,"type":"SCALAR"}],"bufferViews":[{"buffer":0,"byteOffset":0,"byteLength":480},{"buffer":0,"byteOffset":480,"byteLength":480},{"buffer":0,"byteOffset":960,"byteLength":320},{"buffer":0,"byteOffset":1280,"byteLength":320},{"buffer":0,"byteOffset":1600,"byteLength":640},{"buffer":0,"byteOffset":2240,"byteLength":132}],"buffers":[{"byteLength":2372,"uri":"data:application/octet-stream;base64,"}]}
