{"asset":{"generator":"Khronos glTF Blender I/O v1.2.75","version":"2.0"},"scene":0,"scenes":[{"name":"Scene","nodes":[0]}],"nodes":[{"mesh":0,"name":"Mesh"}],"meshes":[{"name":"SM_PaperBox_01_01","primitives":[{"indices":6,"attributes":{"POSITION":0,"NORMAL":1,"COLOR_0":2,"TEXCOORD_0":3,"TEXCOORD_1":4,"TANGENT":5},"mode":4}]}],"accessors":[{"bufferView":0,"componentType":5126,"count":67,"type":"VEC3","min":[-0.30156835556030276,-0.04935178279876709,-0.4463918685913086],"max":[0.3010051536560059,0.519376335144043,0.4228566741943359]},{"bufferView":1,"componentType":5126,"count":67,"type":"VEC3"},{"bufferView":2,"componentType":5126,"count":67,"type":"VEC4"},{"bufferView":3,"componentType":5126,"count":67,"type":"VEC2"},{"bufferView":4,"componentType":5126,"count":67,"type":"VEC2"},{"bufferView":5,"componentType":5126,"count":67,"type":"VEC4"},{"bufferView":6,"componentType":5123,"count":72,"type":"SCALAR"}],"bufferViews":[{"buffer":0,"byteOffset":0,"byteLength":804},{"buffer":0,"byteOffset":804,"byteLength":804},{"buffer":0,"byteOffset":1608,"byteLength":1072},{"buffer":0,"byteOffset":2680,"byteLength":536},{"buffer":0,"byteOffset":3216,"byteLength":536},{"buffer":0,"byteOffset":3752,"byteLength":1072},{"buffer":0,"byteOffset":4824,"byteLength":144}],"buffers":[{"byteLength":4968,"uri":"data:application/octet-stream;base64,"}]}
