{"asset":{"generator":"Khronos glTF Blender I/O v1.2.75","version":"2.0"},"scene":0,"scenes":[{"name":"Scene","nodes":[0]}],"nodes":[{"mesh":0,"name":"Mesh"}],"meshes":[{"name":"SM_PaperBox_01_01","primitives":[{"indices":6,"attributes":{"POSITION":0,"NORMAL":1,"COLOR_0":2,"TEXCOORD_0":3,"TEXCOORD_1":4,"TANGENT":5},"mode":4}]}],"accessors":[{"bufferView":0,"componentType":5126,"count":123,"type":"VEC3","min":[-0.30156835556030276,-0.04935178279876709,-0.4463918685913086],"max":[0.3010051536560059,0.519376335144043,0.4228566741943359]},{"bufferView":1,"componentType":5126,"count":123,"type":"VEC3"},{"bufferView":2,"componentType":5126,"count":123,"type":"VEC4"},{"bufferView":3,"componentType":5126,"count":123,"type":"VEC2"},{"bufferView":4,"componentType":5126,"count":123,"type":"VEC2"},{"bufferView":5,"componentType":5126,"count":123,"type":"VEC4"},{"bufferView":6,"componentType":5123,"count":132,"type":"SCALAR"}],"bufferViews":[{"buffer":0,"byteOffset":0,"byteLength":1476},{"buffer":0,"byteOffset":1476,"byteLength":1476},{"buffer":0,"byteOffset":2952,"byteLength":1968},{"buffer":0,"byteOffset":4920,"byteLength":984},{"buffer":0,"byteOffset":5904,"byteLength":984},{"buffer":0,"byteOffset":6888,"byteLength":1968},{"buffer":0,"byteOffset":8856,"byteLength":264}],"buffers":[{"byteLength":9120,"uri":"data:application/octet-stream;base64,"}]}
