{"asset":{"generator":"Khronos glTF Blender I/O v1.2.75","version":"2.0"},"scene":0,"scenes":[{"name":"Scene","nodes":[0]}],"nodes":[{"mesh":0,"name":"Mesh"}],"meshes":[{"name":"SM_PipeGroup08","primitives":[{"indices":5,"attributes":{"POSITION":0,"NORMAL":1,"TEXCOORD_0":2,"TEXCOORD_1":3,"TANGENT":4},"mode":4}]}],"accessors":[{"bufferView":0,"componentType":5126,"count":2994,"type":"VEC3","min":[-0.4208415603637695,-0.41004554748535155,-1.6699346923828124],"max":[9.90890625,23.98077392578125,8.68787109375]},{"bufferView":1,"componentType":5126,"count":2994,"type":"VEC3"},{"bufferView":2,"componentType":5126,"count":2994,"type":"VEC2"},{"bufferView":3,"componentType":5126,"count":2994,"type":"VEC2"},{"bufferView":4,"componentType":5126,"count":2994,"type":"VEC4"},{"bufferView":5,"componentType":5123,"count":8412,"type":"SCALAR"}],"bufferViews":[{"buffer":0,"byteOffset":0,"byteLength":35928},{"buffer":0,"byteOffset":35928,"byteLength":35928},{"buffer":0,"byteOffset":71856,"byteLength":23952},{"buffer":0,"byteOffset":95808,"byteLength":23952},{"buffer":0,"byteOffset":119760,"byteLength":47904},{"buffer":0,"byteOffset":167664,"byteLength":16824}],"buffers":[{"byteLength":184488,"uri":"data:application/octet-stream;base64,"}]}
