{"asset":{"generator":"Khronos glTF Blender I/O v1.2.75","version":"2.0"},"scene":0,"scenes":[{"name":"Scene","nodes":[0]}],"nodes":[{"mesh":0,"name":"Mesh"}],"meshes":[{"name":"SM_PipeGroup08","primitives":[{"indices":5,"attributes":{"POSITION":0,"NORMAL":1,"TEXCOORD_0":2,"TEXCOORD_1":3,"TANGENT":4},"mode":4}]}],"accessors":[{"bufferView":0,"componentType":5126,"count":6566,"type":"VEC3","min":[-0.4208415603637695,-0.41004554748535155,-1.6699346923828124],"max":[9.90890625,23.98077392578125,8.68787109375]},{"bufferView":1,"componentType":5126,"count":6566,"type":"VEC3"},{"bufferView":2,"componentType":5126,"count":6566,"type":"VEC2"},{"bufferView":3,"componentType":5126,"count":6566,"type":"VEC2"},{"bufferView":4,"componentType":5126,"count":6566,"type":"VEC4"},{"bufferView":5,"componentType":5123,"count":21024,"type":"SCALAR"}],"bufferViews":[{"buffer":0,"byteOffset":0,"byteLength":78792},{"buffer":0,"byteOffset":78792,"byteLength":78792},{"buffer":0,"byteOffset":157584,"byteLength":52528},{"buffer":0,"byteOffset":210112,"byteLength":52528},{"buffer":0,"byteOffset":262640,"byteLength":105056},{"buffer":0,"byteOffset":367696,"byteLength":42048}],"buffers":[{"byteLength":409744,"uri":"data:application/octet-stream;base64,"}]}
