{"asset":{"generator":"Khronos glTF Blender I/O v1.2.75","version":"2.0"},"scene":0,"scenes":[{"name":"Scene","nodes":[0]}],"nodes":[{"mesh":0,"name":"Mesh"}],"meshes":[{"name":"SM_GarbageBag04","primitives":[{"indices":5,"attributes":{"POSITION":0,"NORMAL":1,"TEXCOORD_0":2,"TEXCOORD_1":3,"TANGENT":4},"mode":4}]}],"accessors":[{"bufferView":0,"componentType":5126,"count":2309,"type":"VEC3","min":[-0.4881563568115234,-0.03324986219406128,-0.5726161193847656],"max":[0.48565547943115234,1.221902084350586,0.561114501953125]},{"bufferView":1,"componentType":5126,"count":2309,"type":"VEC3"},{"bufferView":2,"componentType":5126,"count":2309,"type":"VEC2"},{"bufferView":3,"componentType":5126,"count":2309,"type":"VEC2"},{"bufferView":4,"componentType":5126,"count":2309,"type":"VEC4"},{"bufferView":5,"componentType":5123,"count":12240,"type":"SCALAR"}],"bufferViews":[{"buffer":0,"byteOffset":0,"byteLength":27708},{"buffer":0,"byteOffset":27708,"byteLength":27708},{"buffer":0,"byteOffset":55416,"byteLength":18472},{"buffer":0,"byteOffset":73888,"byteLength":18472},{"buffer":0,"byteOffset":92360,"byteLength":36944},{"buffer":0,"byteOffset":129304,"byteLength":24480}],"buffers":[{"byteLength":153784,"uri":"data:application/octet-stream;base64,"}]}
