{"asset":{"generator":"Khronos glTF Blender I/O v1.2.75","version":"2.0"},"scene":0,"scenes":[{"name":"Scene","nodes":[0]}],"nodes":[{"mesh":0,"name":"Mesh"}],"meshes":[{"name":"SM_GarbageBag04","primitives":[{"indices":5,"attributes":{"POSITION":0,"NORMAL":1,"TEXCOORD_0":2,"TEXCOORD_1":3,"TANGENT":4},"mode":4}]}],"accessors":[{"bufferView":0,"componentType":5126,"count":396,"type":"VEC3","min":[-0.4881563568115234,-0.03324986219406128,-0.5726161193847656],"max":[0.48565547943115234,1.221902084350586,0.561114501953125]},{"bufferView":1,"componentType":5126,"count":396,"type":"VEC3"},{"bufferView":2,"componentType":5126,"count":396,"type":"VEC2"},{"bufferView":3,"componentType":5126,"count":396,"type":"VEC2"},{"bufferView":4,"componentType":5126,"count":396,"type":"VEC4"},{"bufferView":5,"componentType":5123,"count":1716,"type":"SCALAR"}],"bufferViews":[{"buffer":0,"byteOffset":0,"byteLength":4752},{"buffer":0,"byteOffset":4752,"byteLength":4752},{"buffer":0,"byteOffset":9504,"byteLength":3168},{"buffer":0,"byteOffset":12672,"byteLength":3168},{"buffer":0,"byteOffset":15840,"byteLength":6336},{"buffer":0,"byteOffset":22176,"byteLength":3432}],"buffers":[{"byteLength":25608,"uri":"data:application/octet-stream;base64,"}]}
