{"asset":{"generator":"Khronos glTF Blender I/O v1.2.75","version":"2.0"},"scene":0,"scenes":[{"name":"Scene","nodes":[0]}],"nodes":[{"mesh":0,"name":"Mesh"}],"meshes":[{"name":"SM_Building10_04","primitives":[{"indices":5,"attributes":{"POSITION":0,"NORMAL":1,"TEXCOORD_0":2,"TEXCOORD_1":3,"TANGENT":4},"mode":4}]}],"accessors":[{"bufferView":0,"componentType":5126,"count":4748,"type":"VEC3","min":[-20.550029296875,-0.04519959449768066,-8.5199951171875],"max":[0,10.020723876953125,12.046990966796875]},{"bufferView":1,"componentType":5126,"count":4748,"type":"VEC3"},{"bufferView":2,"componentType":5126,"count":4748,"type":"VEC2"},{"bufferView":3,"componentType":5126,"count":4748,"type":"VEC2"},{"bufferView":4,"componentType":5126,"count":4748,"type":"VEC4"},{"bufferView":5,"componentType":5123,"count":8070,"type":"SCALAR"}],"bufferViews":[{"buffer":0,"byteOffset":0,"byteLength":56976},{"buffer":0,"byteOffset":56976,"byteLength":56976},{"buffer":0,"byteOffset":113952,"byteLength":37984},{"buffer":0,"byteOffset":151936,"byteLength":37984},{"buffer":0,"byteOffset":189920,"byteLength":75968},{"buffer":0,"byteOffset":265888,"byteLength":16140}],"buffers":[{"byteLength":282028,"uri":"data:application/octet-stream;base64,"}]}
