{"asset":{"generator":"Khronos glTF Blender I/O v1.2.75","version":"2.0"},"scene":0,"scenes":[{"name":"Scene","nodes":[0]}],"nodes":[{"mesh":0,"name":"Mesh"}],"meshes":[{"name":"SM_Building10_04","primitives":[{"indices":5,"attributes":{"POSITION":0,"NORMAL":1,"TEXCOORD_0":2,"TEXCOORD_1":3,"TANGENT":4},"mode":4}]}],"accessors":[{"bufferView":0,"componentType":5126,"count":793,"type":"VEC3","min":[-20.550029296875,-0.04519959449768066,-8.5199951171875],"max":[0,10.020723876953125,12.046990966796875]},{"bufferView":1,"componentType":5126,"count":793,"type":"VEC3"},{"bufferView":2,"componentType":5126,"count":793,"type":"VEC2"},{"bufferView":3,"componentType":5126,"count":793,"type":"VEC2"},{"bufferView":4,"componentType":5126,"count":793,"type":"VEC4"},{"bufferView":5,"componentType":5123,"count":1212,"type":"SCALAR"}],"bufferViews":[{"buffer":0,"byteOffset":0,"byteLength":9516},{"buffer":0,"byteOffset":9516,"byteLength":9516},{"buffer":0,"byteOffset":19032,"byteLength":6344},{"buffer":0,"byteOffset":25376,"byteLength":6344},{"buffer":0,"byteOffset":31720,"byteLength":12688},{"buffer":0,"byteOffset":44408,"byteLength":2424}],"buffers":[{"byteLength":46832,"uri":"data:application/octet-stream;base64,"}]}
