{"asset":{"generator":"Khronos glTF Blender I/O v1.2.75","version":"2.0"},"scene":0,"scenes":[{"name":"Scene","nodes":[0]}],"nodes":[{"mesh":0,"name":"Mesh"}],"meshes":[{"name":"SM_MetalBeamMerged02","primitives":[{"indices":5,"attributes":{"POSITION":0,"NORMAL":1,"TEXCOORD_0":2,"TEXCOORD_1":3,"TANGENT":4},"mode":4},{"indices":11,"attributes":{"POSITION":6,"NORMAL":7,"TEXCOORD_0":8,"TEXCOORD_1":9,"TANGENT":10},"mode":4},{"indices":17,"attributes":{"POSITION":12,"NORMAL":13,"TEXCOORD_0":14,"TEXCOORD_1":15,"TANGENT":16},"mode":4}]}],"accessors":[{"bufferView":0,"componentType":5126,"count":704,"type":"VEC3","min":[-0.5515141677856445,-0.006526166200637817,-16.185458984375],"max":[0.5515126800537109,5.625203857421875,0.6354590225219726]},{"bufferView":1,"componentType":5126,"count":704,"type":"VEC3"},{"bufferView":2,"componentType":5126,"count":704,"type":"VEC2"},{"bufferView":3,"componentType":5126,"count":704,"type":"VEC2"},{"bufferView":4,"componentType":5126,"count":704,"type":"VEC4"},{"bufferView":5,"componentType":5123,"count":1158,"type":"SCALAR"},{"bufferView":6,"componentType":5126,"count":288,"type":"VEC3","min":[-0.5515141677856445,-0.006526166200637817,-16.185458984375],"max":[0.5515126800537109,5.625203857421875,0.6354590225219726]},{"bufferView":7,"componentType":5126,"count":288,"type":"VEC3"},{"bufferView":8,"componentType":5126,"count":288,"type":"VEC2"},{"bufferView":9,"componentType":5126,"count":288,"type":"VEC2"},{"bufferView":10,"componentType":5126,"count":288,"type":"VEC4"},{"bufferView":11,"componentType":5123,"count":528,"type":"SCALAR"},{"bufferView":12,"componentType":5126,"count":124,"type":"VEC3","min":[-0.5515141677856445,-0.006526166200637817,-16.185458984375],"max":[0.5515126800537109,5.625203857421875,0.6354590225219726]},{"bufferView":13,"componentType":5126,"count":124,"type":"VEC3"},{"bufferView":14,"componentType":5126,"count":124,"type":"VEC2"},{"bufferView":15,"componentType":5126,"count":124,"type":"VEC2"},{"bufferView":16,"componentType":5126,"count":124,"type":"VEC4"},{"bufferView":17,"componentType":5123,"count":204,"type":"SCALAR"}],"bufferViews":[{"buffer":0,"byteOffset":0,"byteLength":8448},{"buffer":0,"byteOffset":8448,"byteLength":8448},{"buffer":0,"byteOffset":16896,"byteLength":5632},{"buffer":0,"byteOffset":22528,"byteLength":5632},{"buffer":0,"byteOffset":28160,"byteLength":11264},{"buffer":0,"byteOffset":39424,"byteLength":2316},{"buffer":1,"byteOffset":0,"byteLength":3456},{"buffer":1,"byteOffset":3456,"byteLength":3456},{"buffer":1,"byteOffset":6912,"byteLength":2304},{"buffer":1,"byteOffset":9216,"byteLength":2304},{"buffer":1,"byteOffset":11520,"byteLength":4608},{"buffer":1,"byteOffset":16128,"byteLength":1056},{"buffer":2,"byteOffset":0,"byteLength":1488},{"buffer":2,"byteOffset":1488,"byteLength":1488},{"buffer":2,"byteOffset":2976,"byteLength":992},{"buffer":2,"byteOffset":3968,"byteLength":992},{"buffer":2,"byteOffset":4960,"byteLength":1984},{"buffer":2,"byteOffset":6944,"byteLength":408}],"buffers":[{"byteLength":41740,"uri":"data:application/octet-stream;base64,"},{"byteLength":17184,"uri":"data:application/octet-stream;base64,"},{"byteLength":7352,"uri":"data:application/octet-stream;base64,"}]}
