{"asset":{"generator":"Khronos glTF Blender I/O v1.2.75","version":"2.0"},"scene":0,"scenes":[{"name":"Scene","nodes":[0]}],"nodes":[{"mesh":0,"name":"Mesh"}],"meshes":[{"name":"SM_MetalBeamMerged02","primitives":[{"indices":5,"attributes":{"POSITION":0,"NORMAL":1,"TEXCOORD_0":2,"TEXCOORD_1":3,"TANGENT":4},"mode":4},{"indices":11,"attributes":{"POSITION":6,"NORMAL":7,"TEXCOORD_0":8,"TEXCOORD_1":9,"TANGENT":10},"mode":4},{"indices":17,"attributes":{"POSITION":12,"NORMAL":13,"TEXCOORD_0":14,"TEXCOORD_1":15,"TANGENT":16},"mode":4}]}],"accessors":[{"bufferView":0,"componentType":5126,"count":2666,"type":"VEC3","min":[-0.5515141677856445,-0.006526166200637817,-16.185458984375],"max":[0.5515126800537109,5.625203857421875,0.6354590225219726]},{"bufferView":1,"componentType":5126,"count":2666,"type":"VEC3"},{"bufferView":2,"componentType":5126,"count":2666,"type":"VEC2"},{"bufferView":3,"componentType":5126,"count":2666,"type":"VEC2"},{"bufferView":4,"componentType":5126,"count":2666,"type":"VEC4"},{"bufferView":5,"componentType":5123,"count":6516,"type":"SCALAR"},{"bufferView":6,"componentType":5126,"count":584,"type":"VEC3","min":[-0.5515141677856445,-0.006526166200637817,-16.185458984375],"max":[0.5515126800537109,5.625203857421875,0.6354590225219726]},{"bufferView":7,"componentType":5126,"count":584,"type":"VEC3"},{"bufferView":8,"componentType":5126,"count":584,"type":"VEC2"},{"bufferView":9,"componentType":5126,"count":584,"type":"VEC2"},{"bufferView":10,"componentType":5126,"count":584,"type":"VEC4"},{"bufferView":11,"componentType":5123,"count":1728,"type":"SCALAR"},{"bufferView":12,"componentType":5126,"count":504,"type":"VEC3","min":[-0.5515141677856445,-0.006526166200637817,-16.185458984375],"max":[0.5515126800537109,5.625203857421875,0.6354590225219726]},{"bufferView":13,"componentType":5126,"count":504,"type":"VEC3"},{"bufferView":14,"componentType":5126,"count":504,"type":"VEC2"},{"bufferView":15,"componentType":5126,"count":504,"type":"VEC2"},{"bufferView":16,"componentType":5126,"count":504,"type":"VEC4"},{"bufferView":17,"componentType":5123,"count":1200,"type":"SCALAR"}],"bufferViews":[{"buffer":0,"byteOffset":0,"byteLength":31992},{"buffer":0,"byteOffset":31992,"byteLength":31992},{"buffer":0,"byteOffset":63984,"byteLength":21328},{"buffer":0,"byteOffset":85312,"byteLength":21328},{"buffer":0,"byteOffset":106640,"byteLength":42656},{"buffer":0,"byteOffset":149296,"byteLength":13032},{"buffer":1,"byteOffset":0,"byteLength":7008},{"buffer":1,"byteOffset":7008,"byteLength":7008},{"buffer":1,"byteOffset":14016,"byteLength":4672},{"buffer":1,"byteOffset":18688,"byteLength":4672},{"buffer":1,"byteOffset":23360,"byteLength":9344},{"buffer":1,"byteOffset":32704,"byteLength":3456},{"buffer":2,"byteOffset":0,"byteLength":6048},{"buffer":2,"byteOffset":6048,"byteLength":6048},{"buffer":2,"byteOffset":12096,"byteLength":4032},{"buffer":2,"byteOffset":16128,"byteLength":4032},{"buffer":2,"byteOffset":20160,"byteLength":8064},{"buffer":2,"byteOffset":28224,"byteLength":2400}],"buffers":[{"byteLength":162328,"uri":"data:application/octet-stream;base64,"},{"byteLength":36160,"uri":"data:application/octet-stream;base64,"},{"byteLength":30624,"uri":"data:application/octet-stream;base64,"}]}
