{"asset":{"generator":"Khronos glTF Blender I/O v1.2.75","version":"2.0"},"scene":0,"scenes":[{"name":"Scene","nodes":[0]}],"nodes":[{"mesh":0,"name":"Mesh"}],"meshes":[{"name":"SM_Building04_02","primitives":[{"indices":5,"attributes":{"POSITION":0,"NORMAL":1,"TEXCOORD_0":2,"TEXCOORD_1":3,"TANGENT":4},"mode":4}]}],"accessors":[{"bufferView":0,"componentType":5126,"count":4,"type":"VEC3","min":[0,-1.52587890625e-7,3.874301910400391e-8],"max":[1.0000006103515624,4,4.57763671875e-7]},{"bufferView":1,"componentType":5126,"count":4,"type":"VEC3"},{"bufferView":2,"componentType":5126,"count":4,"type":"VEC2"},{"bufferView":3,"componentType":5126,"count":4,"type":"VEC2"},{"bufferView":4,"componentType":5126,"count":4,"type":"VEC4"},{"bufferView":5,"componentType":5123,"count":6,"type":"SCALAR"}],"bufferViews":[{"buffer":0,"byteOffset":0,"byteLength":48},{"buffer":0,"byteOffset":48,"byteLength":48},{"buffer":0,"byteOffset":96,"byteLength":32},{"buffer":0,"byteOffset":128,"byteLength":32},{"buffer":0,"byteOffset":160,"byteLength":64},{"buffer":0,"byteOffset":224,"byteLength":12}],"buffers":[{"byteLength":236,"uri":"data:application/octet-stream;base64,"}]}
