{"asset":{"generator":"Khronos glTF Blender I/O v1.2.75","version":"2.0"},"scene":0,"scenes":[{"name":"Scene","nodes":[0]}],"nodes":[{"mesh":0,"name":"Mesh"}],"meshes":[{"name":"SM_BackgroundBuilding03","primitives":[{"indices":5,"attributes":{"POSITION":0,"NORMAL":1,"TEXCOORD_0":2,"TEXCOORD_1":3,"TANGENT":4},"mode":4}]}],"accessors":[{"bufferView":0,"componentType":5126,"count":1234,"type":"VEC3","min":[-14.484508056640625,-6.103515625e-7,-10.36563720703125],"max":[10.011837768554688,50.31115234375,10.3920849609375]},{"bufferView":1,"componentType":5126,"count":1234,"type":"VEC3"},{"bufferView":2,"componentType":5126,"count":1234,"type":"VEC2"},{"bufferView":3,"componentType":5126,"count":1234,"type":"VEC2"},{"bufferView":4,"componentType":5126,"count":1234,"type":"VEC4"},{"bufferView":5,"componentType":5123,"count":4104,"type":"SCALAR"}],"bufferViews":[{"buffer":0,"byteOffset":0,"byteLength":14808},{"buffer":0,"byteOffset":14808,"byteLength":14808},{"buffer":0,"byteOffset":29616,"byteLength":9872},{"buffer":0,"byteOffset":39488,"byteLength":9872},{"buffer":0,"byteOffset":49360,"byteLength":19744},{"buffer":0,"byteOffset":69104,"byteLength":8208}],"buffers":[{"byteLength":77312,"uri":"data:application/octet-stream;base64,"}]}
