{"asset":{"generator":"Khronos glTF Blender I/O v1.2.75","version":"2.0"},"scene":0,"scenes":[{"name":"Scene","nodes":[0]}],"nodes":[{"mesh":0,"name":"Mesh"}],"meshes":[{"name":"SM_Building13_01","primitives":[{"indices":5,"attributes":{"POSITION":0,"NORMAL":1,"TEXCOORD_0":2,"TEXCOORD_1":3,"TANGENT":4},"mode":4}]}],"accessors":[{"bufferView":0,"componentType":5126,"count":200,"type":"VEC3","min":[-0.000009765625,-0.0000012282431998755782,-1.008538055419922],"max":[10.000177612304688,10.57406982421875,1.6811721801757813]},{"bufferView":1,"componentType":5126,"count":200,"type":"VEC3"},{"bufferView":2,"componentType":5126,"count":200,"type":"VEC2"},{"bufferView":3,"componentType":5126,"count":200,"type":"VEC2"},{"bufferView":4,"componentType":5126,"count":200,"type":"VEC4"},{"bufferView":5,"componentType":5123,"count":321,"type":"SCALAR"}],"bufferViews":[{"buffer":0,"byteOffset":0,"byteLength":2400},{"buffer":0,"byteOffset":2400,"byteLength":2400},{"buffer":0,"byteOffset":4800,"byteLength":1600},{"buffer":0,"byteOffset":6400,"byteLength":1600},{"buffer":0,"byteOffset":8000,"byteLength":3200},{"buffer":0,"byteOffset":11200,"byteLength":642}],"buffers":[{"byteLength":11842,"uri":"data:application/octet-stream;base64,"}]}
