{"asset":{"generator":"Khronos glTF Blender I/O v1.2.75","version":"2.0"},"scene":0,"scenes":[{"name":"Scene","nodes":[0]}],"nodes":[{"mesh":0,"name":"Mesh"}],"meshes":[{"name":"SM_Building13_01","primitives":[{"indices":5,"attributes":{"POSITION":0,"NORMAL":1,"TEXCOORD_0":2,"TEXCOORD_1":3,"TANGENT":4},"mode":4}]}],"accessors":[{"bufferView":0,"componentType":5126,"count":117,"type":"VEC3","min":[-0.000009765625,-0.0000012282431998755782,-1.008538055419922],"max":[10.000177612304688,10.57406982421875,1.6811721801757813]},{"bufferView":1,"componentType":5126,"count":117,"type":"VEC3"},{"bufferView":2,"componentType":5126,"count":117,"type":"VEC2"},{"bufferView":3,"componentType":5126,"count":117,"type":"VEC2"},{"bufferView":4,"componentType":5126,"count":117,"type":"VEC4"},{"bufferView":5,"componentType":5123,"count":162,"type":"SCALAR"}],"bufferViews":[{"buffer":0,"byteOffset":0,"byteLength":1404},{"buffer":0,"byteOffset":1404,"byteLength":1404},{"buffer":0,"byteOffset":2808,"byteLength":936},{"buffer":0,"byteOffset":3744,"byteLength":936},{"buffer":0,"byteOffset":4680,"byteLength":1872},{"buffer":0,"byteOffset":6552,"byteLength":324}],"buffers":[{"byteLength":6876,"uri":"data:application/octet-stream;base64,"}]}
