{"asset":{"generator":"Khronos glTF Blender I/O v1.2.75","version":"2.0"},"scene":0,"scenes":[{"name":"Scene","nodes":[0]}],"nodes":[{"mesh":0,"name":"Mesh"}],"meshes":[{"name":"SM_Building06_05","primitives":[{"indices":5,"attributes":{"POSITION":0,"NORMAL":1,"TEXCOORD_0":2,"TEXCOORD_1":3,"TANGENT":4},"mode":4},{"indices":11,"attributes":{"POSITION":6,"NORMAL":7,"TEXCOORD_0":8,"TEXCOORD_1":9,"TANGENT":10},"mode":4},{"indices":17,"attributes":{"POSITION":12,"NORMAL":13,"TEXCOORD_0":14,"TEXCOORD_1":15,"TANGENT":16},"mode":4},{"indices":23,"attributes":{"POSITION":18,"NORMAL":19,"TEXCOORD_0":20,"TEXCOORD_1":21,"TANGENT":22},"mode":4}]}],"accessors":[{"bufferView":0,"componentType":5126,"count":4490,"type":"VEC3","min":[-0.407352409362793,-37.716455078125,-1.3425311279296874],"max":[20.9024755859375,20.8965869140625,18.9473828125]},{"bufferView":1,"componentType":5126,"count":4490,"type":"VEC3"},{"bufferView":2,"componentType":5126,"count":4490,"type":"VEC2"},{"bufferView":3,"componentType":5126,"count":4490,"type":"VEC2"},{"bufferView":4,"componentType":5126,"count":4490,"type":"VEC4"},{"bufferView":5,"componentType":5123,"count":7218,"type":"SCALAR"},{"bufferView":6,"componentType":5126,"count":144,"type":"VEC3","min":[-0.407352409362793,-37.716455078125,-1.3425311279296874],"max":[20.9024755859375,20.8965869140625,18.9473828125]},{"bufferView":7,"componentType":5126,"count":144,"type":"VEC3"},{"bufferView":8,"componentType":5126,"count":144,"type":"VEC2"},{"bufferView":9,"componentType":5126,"count":144,"type":"VEC2"},{"bufferView":10,"componentType":5126,"count":144,"type":"VEC4"},{"bufferView":11,"componentType":5123,"count":216,"type":"SCALAR"},{"bufferView":12,"componentType":5126,"count":84,"type":"VEC3","min":[-0.407352409362793,-37.716455078125,-1.3425311279296874],"max":[20.9024755859375,20.8965869140625,18.9473828125]},{"bufferView":13,"componentType":5126,"count":84,"type":"VEC3"},{"bufferView":14,"componentType":5126,"count":84,"type":"VEC2"},{"bufferView":15,"componentType":5126,"count":84,"type":"VEC2"},{"bufferView":16,"componentType":5126,"count":84,"type":"VEC4"},{"bufferView":17,"componentType":5123,"count":126,"type":"SCALAR"},{"bufferView":18,"componentType":5126,"count":358,"type":"VEC3","min":[-0.407352409362793,-37.716455078125,-1.3425311279296874],"max":[20.9024755859375,20.8965869140625,18.9473828125]},{"bufferView":19,"componentType":5126,"count":358,"type":"VEC3"},{"bufferView":20,"componentType":5126,"count":358,"type":"VEC2"},{"bufferView":21,"componentType":5126,"count":358,"type":"VEC2"},{"bufferView":22,"componentType":5126,"count":358,"type":"VEC4"},{"bufferView":23,"componentType":5123,"count":534,"type":"SCALAR"}],"bufferViews":[{"buffer":0,"byteOffset":0,"byteLength":53880},{"buffer":0,"byteOffset":53880,"byteLength":53880},{"buffer":0,"byteOffset":107760,"byteLength":35920},{"buffer":0,"byteOffset":143680,"byteLength":35920},{"buffer":0,"byteOffset":179600,"byteLength":71840},{"buffer":0,"byteOffset":251440,"byteLength":14436},{"buffer":1,"byteOffset":0,"byteLength":1728},{"buffer":1,"byteOffset":1728,"byteLength":1728},{"buffer":1,"byteOffset":3456,"byteLength":1152},{"buffer":1,"byteOffset":4608,"byteLength":1152},{"buffer":1,"byteOffset":5760,"byteLength":2304},{"buffer":1,"byteOffset":8064,"byteLength":432},{"buffer":2,"byteOffset":0,"byteLength":1008},{"buffer":2,"byteOffset":1008,"byteLength":1008},{"buffer":2,"byteOffset":2016,"byteLength":672},{"buffer":2,"byteOffset":2688,"byteLength":672},{"buffer":2,"byteOffset":3360,"byteLength":1344},{"buffer":2,"byteOffset":4704,"byteLength":252},{"buffer":3,"byteOffset":0,"byteLength":4296},{"buffer":3,"byteOffset":4296,"byteLength":4296},{"buffer":3,"byteOffset":8592,"byteLength":2864},{"buffer":3,"byteOffset":11456,"byteLength":2864},{"buffer":3,"byteOffset":14320,"byteLength":5728},{"buffer":3,"byteOffset":20048,"byteLength":1068}],"buffers":[{"byteLength":265876,"uri":"data:application/octet-stream;base64,"},{"byteLength":8496,"uri":"data:application/octet-stream;base64,"},{"byteLength":4956,"uri":"data:application/octet-stream;base64,"},{"byteLength":21116,"uri":"data:application/octet-stream;base64,"}]}
