{"asset":{"generator":"Khronos glTF Blender I/O v1.2.75","version":"2.0"},"scene":0,"scenes":[{"name":"Scene","nodes":[0]}],"nodes":[{"mesh":0,"name":"Mesh"}],"meshes":[{"name":"SM_GroundCable03","primitives":[{"indices":5,"attributes":{"POSITION":0,"NORMAL":1,"TEXCOORD_0":2,"TEXCOORD_1":3,"TANGENT":4},"mode":4}]}],"accessors":[{"bufferView":0,"componentType":5126,"count":1814,"type":"VEC3","min":[-1.2207347106933595,-0.02008399248123169,-1.1670687103271484],"max":[1.2215058135986328,0.09715862274169922,1.1670108032226563]},{"bufferView":1,"componentType":5126,"count":1814,"type":"VEC3"},{"bufferView":2,"componentType":5126,"count":1814,"type":"VEC2"},{"bufferView":3,"componentType":5126,"count":1814,"type":"VEC2"},{"bufferView":4,"componentType":5126,"count":1814,"type":"VEC4"},{"bufferView":5,"componentType":5123,"count":9480,"type":"SCALAR"}],"bufferViews":[{"buffer":0,"byteOffset":0,"byteLength":21768},{"buffer":0,"byteOffset":21768,"byteLength":21768},{"buffer":0,"byteOffset":43536,"byteLength":14512},{"buffer":0,"byteOffset":58048,"byteLength":14512},{"buffer":0,"byteOffset":72560,"byteLength":29024},{"buffer":0,"byteOffset":101584,"byteLength":18960}],"buffers":[{"byteLength":120544,"uri":"data:application/octet-stream;base64,"}]}
