{"asset":{"generator":"Khronos glTF Blender I/O v1.2.75","version":"2.0"},"scene":0,"scenes":[{"name":"Scene","nodes":[0]}],"nodes":[{"mesh":0,"name":"Mesh"}],"meshes":[{"name":"SM_GroundCable03","primitives":[{"indices":5,"attributes":{"POSITION":0,"NORMAL":1,"TEXCOORD_0":2,"TEXCOORD_1":3,"TANGENT":4},"mode":4}]}],"accessors":[{"bufferView":0,"componentType":5126,"count":308,"type":"VEC3","min":[-1.2207347106933595,-0.02008399248123169,-1.1670687103271484],"max":[1.2215058135986328,0.09715862274169922,1.1670108032226563]},{"bufferView":1,"componentType":5126,"count":308,"type":"VEC3"},{"bufferView":2,"componentType":5126,"count":308,"type":"VEC2"},{"bufferView":3,"componentType":5126,"count":308,"type":"VEC2"},{"bufferView":4,"componentType":5126,"count":308,"type":"VEC4"},{"bufferView":5,"componentType":5123,"count":1422,"type":"SCALAR"}],"bufferViews":[{"buffer":0,"byteOffset":0,"byteLength":3696},{"buffer":0,"byteOffset":3696,"byteLength":3696},{"buffer":0,"byteOffset":7392,"byteLength":2464},{"buffer":0,"byteOffset":9856,"byteLength":2464},{"buffer":0,"byteOffset":12320,"byteLength":4928},{"buffer":0,"byteOffset":17248,"byteLength":2844}],"buffers":[{"byteLength":20092,"uri":"data:application/octet-stream;base64,"}]}
