{"asset":{"generator":"Khronos glTF Blender I/O v1.2.75","version":"2.0"},"scene":0,"scenes":[{"name":"Scene","nodes":[0]}],"nodes":[{"mesh":0,"name":"Mesh"}],"meshes":[{"name":"SM_CornerBuilding01_07","primitives":[{"indices":5,"attributes":{"POSITION":0,"NORMAL":1,"TEXCOORD_0":2,"TEXCOORD_1":3,"TANGENT":4},"mode":4}]}],"accessors":[{"bufferView":0,"componentType":5126,"count":18,"type":"VEC3","min":[-0.056599998474121095,2.9802322387695314e-9,-0.056600341796875],"max":[0.056599998474121095,2.5,0.056600341796875]},{"bufferView":1,"componentType":5126,"count":18,"type":"VEC3"},{"bufferView":2,"componentType":5126,"count":18,"type":"VEC2"},{"bufferView":3,"componentType":5126,"count":18,"type":"VEC2"},{"bufferView":4,"componentType":5126,"count":18,"type":"VEC4"},{"bufferView":5,"componentType":5123,"count":36,"type":"SCALAR"}],"bufferViews":[{"buffer":0,"byteOffset":0,"byteLength":216},{"buffer":0,"byteOffset":216,"byteLength":216},{"buffer":0,"byteOffset":432,"byteLength":144},{"buffer":0,"byteOffset":576,"byteLength":144},{"buffer":0,"byteOffset":720,"byteLength":288},{"buffer":0,"byteOffset":1008,"byteLength":72}],"buffers":[{"byteLength":1080,"uri":"data:application/octet-stream;base64,"}]}
