{
    "asset" : {
        "generator" : "Khronos glTF Blender I/O v3.5.5",
        "version" : "2.0"
    },
    "scene" : 0,
    "scenes" : [
        {
            "name" : "Scene",
            "nodes" : [
                0
            ]
        }
    ],
    "nodes" : [
        {
            "mesh" : 0,
            "name" : "obj_grenade_0_cc",
            "scale" : [
                0.006591919809579849,
                0.006591919809579849,
                0.006591919809579849
            ]
        }
    ],
    "materials" : [
        {
            "doubleSided" : true,
            "name" : "mat_grenade_0_cc",
            "normalTexture" : {
                "index" : 0
            },
            "occlusionTexture" : {
                "index" : 1
            },
            "pbrMetallicRoughness" : {
                "baseColorTexture" : {
                    "index" : 2
                },
                "metallicRoughnessTexture" : {
                    "index" : 1
                }
            }
        },
        {
            "doubleSided" : true,
            "emissiveFactor" : [
                1,
                0.6141332983970642,
                0
            ],
            "name" : "mat_grenade_0_cc_1",
            "pbrMetallicRoughness" : {
                "baseColorFactor" : [
                    0,
                    0,
                    0,
                    1
                ],
                "metallicFactor" : 0
            }
        },
        {
            "alphaMode" : "BLEND",
            "doubleSided" : true,
            "name" : "mat_grenade_0_cc_2",
            "pbrMetallicRoughness" : {
                "baseColorFactor" : [
                    0.7839144468307495,
                    0.16162708401679993,
                    0.009924056939780712,
                    0.37028685212135315
                ],
                "metallicFactor" : 0,
                "roughnessFactor" : 0.020187489688396454
            }
        }
    ],
    "meshes" : [
        {
            "name" : "obj_grenade_0_cc",
            "primitives" : [
                {
                    "attributes" : {
                        "POSITION" : 0,
                        "TEXCOORD_0" : 1,
                        "NORMAL" : 2
                    },
                    "indices" : 3,
                    "material" : 0
                },
                {
                    "attributes" : {
                        "POSITION" : 4,
                        "TEXCOORD_0" : 5,
                        "NORMAL" : 6
                    },
                    "indices" : 7,
                    "material" : 1
                },
                {
                    "attributes" : {
                        "POSITION" : 8,
                        "TEXCOORD_0" : 9,
                        "NORMAL" : 10
                    },
                    "indices" : 11,
                    "material" : 2
                }
            ]
        }
    ],
    "textures" : [
        {
            "sampler" : 0,
            "source" : 0
        },
        {
            "sampler" : 0,
            "source" : 1
        },
        {
            "sampler" : 0,
            "source" : 2
        }
    ],
    "images" : [
        {
            "mimeType" : "image/png",
            "name" : "lambert1_normal",
            "uri" : "lambert1_normal.png"
        },
        {
            "mimeType" : "image/png",
            "name" : "lambert1_metallicRoughness",
            "uri" : "lambert1_metallicRoughness.png"
        },
        {
            "mimeType" : "image/png",
            "name" : "lambert1_baseColor",
            "uri" : "lambert1_baseColor.png"
        }
    ],
    "accessors" : [
        {
            "bufferView" : 0,
            "componentType" : 5126,
            "count" : 9424,
            "max" : [
                3.7693212032318115,
                17.164012908935547,
                3.7693216800689697
            ],
            "min" : [
                -5.038290500640869,
                0.016538379713892937,
                -3.7693212032318115
            ],
            "type" : "VEC3"
        },
        {
            "bufferView" : 1,
            "componentType" : 5126,
            "count" : 9424,
            "type" : "VEC2"
        },
        {
            "bufferView" : 2,
            "componentType" : 5126,
            "count" : 9424,
            "type" : "VEC3"
        },
        {
            "bufferView" : 3,
            "componentType" : 5123,
            "count" : 34998,
            "type" : "SCALAR"
        },
        {
            "bufferView" : 4,
            "componentType" : 5126,
            "count" : 654,
            "max" : [
                1.7496752738952637,
                17.22869300842285,
                0.5735795497894287
            ],
            "min" : [
                -2.5918755531311035,
                16.733932495117188,
                -0.12956666946411133
            ],
            "type" : "VEC3"
        },
        {
            "bufferView" : 5,
            "componentType" : 5126,
            "count" : 654,
            "type" : "VEC2"
        },
        {
            "bufferView" : 6,
            "componentType" : 5126,
            "count" : 654,
            "type" : "VEC3"
        },
        {
            "bufferView" : 7,
            "componentType" : 5123,
            "count" : 2880,
            "type" : "SCALAR"
        },
        {
            "bufferView" : 8,
            "componentType" : 5126,
            "count" : 2273,
            "max" : [
                0.9335927367210388,
                11.886021614074707,
                4.14643669128418
            ],
            "min" : [
                -0.9335927367210388,
                0.07293462753295898,
                -4.146671772003174
            ],
            "type" : "VEC3"
        },
        {
            "bufferView" : 9,
            "componentType" : 5126,
            "count" : 2273,
            "type" : "VEC2"
        },
        {
            "bufferView" : 10,
            "componentType" : 5126,
            "count" : 2273,
            "type" : "VEC3"
        },
        {
            "bufferView" : 11,
            "componentType" : 5123,
            "count" : 3816,
            "type" : "SCALAR"
        }
    ],
    "bufferViews" : [
        {
            "buffer" : 0,
            "byteLength" : 113088,
            "byteOffset" : 0,
            "target" : 34962
        },
        {
            "buffer" : 0,
            "byteLength" : 75392,
            "byteOffset" : 113088,
            "target" : 34962
        },
        {
            "buffer" : 0,
            "byteLength" : 113088,
            "byteOffset" : 188480,
            "target" : 34962
        },
        {
            "buffer" : 0,
            "byteLength" : 69996,
            "byteOffset" : 301568,
            "target" : 34963
        },
        {
            "buffer" : 0,
            "byteLength" : 7848,
            "byteOffset" : 371564,
            "target" : 34962
        },
        {
            "buffer" : 0,
            "byteLength" : 5232,
            "byteOffset" : 379412,
            "target" : 34962
        },
        {
            "buffer" : 0,
            "byteLength" : 7848,
            "byteOffset" : 384644,
            "target" : 34962
        },
        {
            "buffer" : 0,
            "byteLength" : 5760,
            "byteOffset" : 392492,
            "target" : 34963
        },
        {
            "buffer" : 0,
            "byteLength" : 27276,
            "byteOffset" : 398252,
            "target" : 34962
        },
        {
            "buffer" : 0,
            "byteLength" : 18184,
            "byteOffset" : 425528,
            "target" : 34962
        },
        {
            "buffer" : 0,
            "byteLength" : 27276,
            "byteOffset" : 443712,
            "target" : 34962
        },
        {
            "buffer" : 0,
            "byteLength" : 7632,
            "byteOffset" : 470988,
            "target" : 34963
        }
    ],
    "samplers" : [
        {
            "magFilter" : 9729,
            "minFilter" : 9987
        }
    ],
    "buffers" : [
        {
            "byteLength" : 478620,
            "uri" : "obj_grenade_0_cc.bin"
        }
    ]
}
