{"asset":{"generator":"Khronos glTF Blender I/O v1.2.75","version":"2.0"},"scene":0,"scenes":[{"name":"Scene","nodes":[0]}],"nodes":[{"mesh":0,"name":"Mesh"}],"meshes":[{"name":"SM_Venus","primitives":[{"indices":5,"attributes":{"POSITION":0,"NORMAL":1,"TEXCOORD_0":2,"TEXCOORD_1":3,"TANGENT":4},"mode":4}]}],"accessors":[{"bufferView":0,"componentType":5126,"count":6330,"type":"VEC3","min":[-0.18530113220214844,-0.0001916154846549034,-0.18530113220214844],"max":[0.1853011131286621,1.002883758544922,0.1853011131286621]},{"bufferView":1,"componentType":5126,"count":6330,"type":"VEC3"},{"bufferView":2,"componentType":5126,"count":6330,"type":"VEC2"},{"bufferView":3,"componentType":5126,"count":6330,"type":"VEC2"},{"bufferView":4,"componentType":5126,"count":6330,"type":"VEC4"},{"bufferView":5,"componentType":5123,"count":6402,"type":"SCALAR"}],"bufferViews":[{"buffer":0,"byteOffset":0,"byteLength":75960},{"buffer":0,"byteOffset":75960,"byteLength":75960},{"buffer":0,"byteOffset":151920,"byteLength":50640},{"buffer":0,"byteOffset":202560,"byteLength":50640},{"buffer":0,"byteOffset":253200,"byteLength":101280},{"buffer":0,"byteOffset":354480,"byteLength":12804}],"buffers":[{"byteLength":367284,"uri":"data:application/octet-stream;base64,"}]}
