{"asset":{"generator":"Khronos glTF Blender I/O v1.2.75","version":"2.0"},"scene":0,"scenes":[{"name":"Scene","nodes":[0]}],"nodes":[{"mesh":0,"name":"Mesh"}],"meshes":[{"name":"SM_ConcreteColumn01","primitives":[{"indices":5,"attributes":{"POSITION":0,"NORMAL":1,"TEXCOORD_0":2,"TEXCOORD_1":3,"TANGENT":4},"mode":4},{"indices":11,"attributes":{"POSITION":6,"NORMAL":7,"TEXCOORD_0":8,"TEXCOORD_1":9,"TANGENT":10},"mode":4}]}],"accessors":[{"bufferView":0,"componentType":5126,"count":66,"type":"VEC3","min":[-1.31021728515625,-2.594994701163745e-17,-0.02192268371582031],"max":[0.024752275943756105,8.846004638671875,0.4455626678466797]},{"bufferView":1,"componentType":5126,"count":66,"type":"VEC3"},{"bufferView":2,"componentType":5126,"count":66,"type":"VEC2"},{"bufferView":3,"componentType":5126,"count":66,"type":"VEC2"},{"bufferView":4,"componentType":5126,"count":66,"type":"VEC4"},{"bufferView":5,"componentType":5123,"count":132,"type":"SCALAR"},{"bufferView":6,"componentType":5126,"count":24,"type":"VEC3","min":[-1.31021728515625,-2.594994701163745e-17,-0.02192268371582031],"max":[0.024752275943756105,8.846004638671875,0.4455626678466797]},{"bufferView":7,"componentType":5126,"count":24,"type":"VEC3"},{"bufferView":8,"componentType":5126,"count":24,"type":"VEC2"},{"bufferView":9,"componentType":5126,"count":24,"type":"VEC2"},{"bufferView":10,"componentType":5126,"count":24,"type":"VEC4"},{"bufferView":11,"componentType":5123,"count":36,"type":"SCALAR"}],"bufferViews":[{"buffer":0,"byteOffset":0,"byteLength":792},{"buffer":0,"byteOffset":792,"byteLength":792},{"buffer":0,"byteOffset":1584,"byteLength":528},{"buffer":0,"byteOffset":2112,"byteLength":528},{"buffer":0,"byteOffset":2640,"byteLength":1056},{"buffer":0,"byteOffset":3696,"byteLength":264},{"buffer":1,"byteOffset":0,"byteLength":288},{"buffer":1,"byteOffset":288,"byteLength":288},{"buffer":1,"byteOffset":576,"byteLength":192},{"buffer":1,"byteOffset":768,"byteLength":192},{"buffer":1,"byteOffset":960,"byteLength":384},{"buffer":1,"byteOffset":1344,"byteLength":72}],"buffers":[{"byteLength":3960,"uri":"data:application/octet-stream;base64,"},{"byteLength":1416,"uri":"data:application/octet-stream;base64,"}]}
