{"asset":{"generator":"Khronos glTF Blender I/O v1.2.75","version":"2.0"},"scene":0,"scenes":[{"name":"Scene","nodes":[0]}],"nodes":[{"mesh":0,"name":"Mesh"}],"meshes":[{"name":"SM_FloorMat03","primitives":[{"indices":6,"attributes":{"POSITION":0,"NORMAL":1,"COLOR_0":2,"TEXCOORD_0":3,"TEXCOORD_1":4,"TANGENT":5},"mode":4}]}],"accessors":[{"bufferView":0,"componentType":5126,"count":64,"type":"VEC3","min":[-1.0082893371582031,-1.52587890625e-7,-0.9754142761230469],"max":[0.9917102813720703,0.03947737693786621,1.0245860290527344]},{"bufferView":1,"componentType":5126,"count":64,"type":"VEC3"},{"bufferView":2,"componentType":5126,"count":64,"type":"VEC4"},{"bufferView":3,"componentType":5126,"count":64,"type":"VEC2"},{"bufferView":4,"componentType":5126,"count":64,"type":"VEC2"},{"bufferView":5,"componentType":5126,"count":64,"type":"VEC4"},{"bufferView":6,"componentType":5123,"count":330,"type":"SCALAR"}],"bufferViews":[{"buffer":0,"byteOffset":0,"byteLength":768},{"buffer":0,"byteOffset":768,"byteLength":768},{"buffer":0,"byteOffset":1536,"byteLength":1024},{"buffer":0,"byteOffset":2560,"byteLength":512},{"buffer":0,"byteOffset":3072,"byteLength":512},{"buffer":0,"byteOffset":3584,"byteLength":1024},{"buffer":0,"byteOffset":4608,"byteLength":660}],"buffers":[{"byteLength":5268,"uri":"data:application/octet-stream;base64,"}]}
