{"asset":{"generator":"Khronos glTF Blender I/O v1.2.75","version":"2.0"},"scene":0,"scenes":[{"name":"Scene","nodes":[0]}],"nodes":[{"mesh":0,"name":"Mesh"}],"meshes":[{"name":"SM_Building02_02","primitives":[{"indices":5,"attributes":{"POSITION":0,"NORMAL":1,"TEXCOORD_0":2,"TEXCOORD_1":3,"TANGENT":4},"mode":4},{"indices":11,"attributes":{"POSITION":6,"NORMAL":7,"TEXCOORD_0":8,"TEXCOORD_1":9,"TANGENT":10},"mode":4}]}],"accessors":[{"bufferView":0,"componentType":5126,"count":22,"type":"VEC3","min":[-0.0326808762550354,-0.013518811464309692,0.003660144805908203],"max":[0.4959196853637695,7.000689697265625,0.5054779434204102]},{"bufferView":1,"componentType":5126,"count":22,"type":"VEC3"},{"bufferView":2,"componentType":5126,"count":22,"type":"VEC2"},{"bufferView":3,"componentType":5126,"count":22,"type":"VEC2"},{"bufferView":4,"componentType":5126,"count":22,"type":"VEC4"},{"bufferView":5,"componentType":5123,"count":48,"type":"SCALAR"},{"bufferView":6,"componentType":5126,"count":44,"type":"VEC3","min":[-0.0326808762550354,-0.013518811464309692,0.003660144805908203],"max":[0.4959196853637695,7.000689697265625,0.5054779434204102]},{"bufferView":7,"componentType":5126,"count":44,"type":"VEC3"},{"bufferView":8,"componentType":5126,"count":44,"type":"VEC2"},{"bufferView":9,"componentType":5126,"count":44,"type":"VEC2"},{"bufferView":10,"componentType":5126,"count":44,"type":"VEC4"},{"bufferView":11,"componentType":5123,"count":78,"type":"SCALAR"}],"bufferViews":[{"buffer":0,"byteOffset":0,"byteLength":264},{"buffer":0,"byteOffset":264,"byteLength":264},{"buffer":0,"byteOffset":528,"byteLength":176},{"buffer":0,"byteOffset":704,"byteLength":176},{"buffer":0,"byteOffset":880,"byteLength":352},{"buffer":0,"byteOffset":1232,"byteLength":96},{"buffer":1,"byteOffset":0,"byteLength":528},{"buffer":1,"byteOffset":528,"byteLength":528},{"buffer":1,"byteOffset":1056,"byteLength":352},{"buffer":1,"byteOffset":1408,"byteLength":352},{"buffer":1,"byteOffset":1760,"byteLength":704},{"buffer":1,"byteOffset":2464,"byteLength":156}],"buffers":[{"byteLength":1328,"uri":"data:application/octet-stream;base64,"},{"byteLength":2620,"uri":"data:application/octet-stream;base64,"}]}
