{"asset":{"generator":"Khronos glTF Blender I/O v1.2.75","version":"2.0"},"scene":0,"scenes":[{"name":"Scene","nodes":[0]}],"nodes":[{"mesh":0,"name":"Mesh"}],"meshes":[{"name":"SM_GateTopRight01","primitives":[{"indices":6,"attributes":{"POSITION":0,"NORMAL":1,"COLOR_0":2,"TEXCOORD_0":3,"TEXCOORD_1":4,"TANGENT":5},"mode":4},{"indices":13,"attributes":{"POSITION":7,"NORMAL":8,"COLOR_0":9,"TEXCOORD_0":10,"TEXCOORD_1":11,"TANGENT":12},"mode":4}]}],"accessors":[{"bufferView":0,"componentType":5126,"count":866,"type":"VEC3","min":[-5.9949951171875,0.3186090087890625,-0.6798561096191407],"max":[0.08508588790893555,7.913470458984375,0.05431803703308105]},{"bufferView":1,"componentType":5126,"count":866,"type":"VEC3"},{"bufferView":2,"componentType":5126,"count":1690,"type":"VEC4"},{"bufferView":3,"componentType":5126,"count":866,"type":"VEC2"},{"bufferView":4,"componentType":5126,"count":866,"type":"VEC2"},{"bufferView":5,"componentType":5126,"count":866,"type":"VEC4"},{"bufferView":6,"componentType":5123,"count":2490,"type":"SCALAR"},{"bufferView":7,"componentType":5126,"count":824,"type":"VEC3","min":[-5.9949951171875,0.3186090087890625,-0.6798561096191407],"max":[0.08508588790893555,7.913470458984375,0.05431803703308105]},{"bufferView":8,"componentType":5126,"count":824,"type":"VEC3"},{"bufferView":9,"componentType":5126,"count":1690,"type":"VEC4"},{"bufferView":10,"componentType":5126,"count":824,"type":"VEC2"},{"bufferView":11,"componentType":5126,"count":824,"type":"VEC2"},{"bufferView":12,"componentType":5126,"count":824,"type":"VEC4"},{"bufferView":13,"componentType":5123,"count":2478,"type":"SCALAR"}],"bufferViews":[{"buffer":0,"byteOffset":0,"byteLength":10392},{"buffer":0,"byteOffset":10392,"byteLength":10392},{"buffer":0,"byteOffset":20784,"byteLength":27040},{"buffer":0,"byteOffset":47824,"byteLength":6928},{"buffer":0,"byteOffset":54752,"byteLength":6928},{"buffer":0,"byteOffset":61680,"byteLength":13856},{"buffer":0,"byteOffset":75536,"byteLength":4980},{"buffer":1,"byteOffset":0,"byteLength":9888},{"buffer":1,"byteOffset":9888,"byteLength":9888},{"buffer":1,"byteOffset":19776,"byteLength":27040},{"buffer":1,"byteOffset":46816,"byteLength":6592},{"buffer":1,"byteOffset":53408,"byteLength":6592},{"buffer":1,"byteOffset":60000,"byteLength":13184},{"buffer":1,"byteOffset":73184,"byteLength":4956}],"buffers":[{"byteLength":80516,"uri":"data:application/octet-stream;base64,"},{"byteLength":78140,"uri":"data:application/octet-stream;base64,"}]}
