{"asset":{"generator":"Khronos glTF Blender I/O v1.2.75","version":"2.0"},"scene":0,"scenes":[{"name":"Scene","nodes":[0]}],"nodes":[{"mesh":0,"name":"Mesh"}],"meshes":[{"name":"SM_GateTopRight01","primitives":[{"indices":6,"attributes":{"POSITION":0,"NORMAL":1,"COLOR_0":2,"TEXCOORD_0":3,"TEXCOORD_1":4,"TANGENT":5},"mode":4},{"indices":13,"attributes":{"POSITION":7,"NORMAL":8,"COLOR_0":9,"TEXCOORD_0":10,"TEXCOORD_1":11,"TANGENT":12},"mode":4}]}],"accessors":[{"bufferView":0,"componentType":5126,"count":290,"type":"VEC3","min":[-5.9949951171875,0.3186090087890625,-0.6798561096191407],"max":[0.08508588790893555,7.913470458984375,0.05431803703308105]},{"bufferView":1,"componentType":5126,"count":290,"type":"VEC3"},{"bufferView":2,"componentType":5126,"count":548,"type":"VEC4"},{"bufferView":3,"componentType":5126,"count":290,"type":"VEC2"},{"bufferView":4,"componentType":5126,"count":290,"type":"VEC2"},{"bufferView":5,"componentType":5126,"count":290,"type":"VEC4"},{"bufferView":6,"componentType":5123,"count":564,"type":"SCALAR"},{"bufferView":7,"componentType":5126,"count":258,"type":"VEC3","min":[-5.9949951171875,0.3186090087890625,-0.6798561096191407],"max":[0.08508588790893555,7.913470458984375,0.05431803703308105]},{"bufferView":8,"componentType":5126,"count":258,"type":"VEC3"},{"bufferView":9,"componentType":5126,"count":548,"type":"VEC4"},{"bufferView":10,"componentType":5126,"count":258,"type":"VEC2"},{"bufferView":11,"componentType":5126,"count":258,"type":"VEC2"},{"bufferView":12,"componentType":5126,"count":258,"type":"VEC4"},{"bufferView":13,"componentType":5123,"count":432,"type":"SCALAR"}],"bufferViews":[{"buffer":0,"byteOffset":0,"byteLength":3480},{"buffer":0,"byteOffset":3480,"byteLength":3480},{"buffer":0,"byteOffset":6960,"byteLength":8768},{"buffer":0,"byteOffset":15728,"byteLength":2320},{"buffer":0,"byteOffset":18048,"byteLength":2320},{"buffer":0,"byteOffset":20368,"byteLength":4640},{"buffer":0,"byteOffset":25008,"byteLength":1128},{"buffer":1,"byteOffset":0,"byteLength":3096},{"buffer":1,"byteOffset":3096,"byteLength":3096},{"buffer":1,"byteOffset":6192,"byteLength":8768},{"buffer":1,"byteOffset":14960,"byteLength":2064},{"buffer":1,"byteOffset":17024,"byteLength":2064},{"buffer":1,"byteOffset":19088,"byteLength":4128},{"buffer":1,"byteOffset":23216,"byteLength":864}],"buffers":[{"byteLength":26136,"uri":"data:application/octet-stream;base64,"},{"byteLength":24080,"uri":"data:application/octet-stream;base64,"}]}
