{"asset":{"generator":"Khronos glTF Blender I/O v1.2.75","version":"2.0"},"scene":0,"scenes":[{"name":"Scene","nodes":[0]}],"nodes":[{"mesh":0,"name":"Mesh"}],"meshes":[{"name":"SM_GateTopRight01","primitives":[{"indices":6,"attributes":{"POSITION":0,"NORMAL":1,"COLOR_0":2,"TEXCOORD_0":3,"TEXCOORD_1":4,"TANGENT":5},"mode":4},{"indices":13,"attributes":{"POSITION":7,"NORMAL":8,"COLOR_0":9,"TEXCOORD_0":10,"TEXCOORD_1":11,"TANGENT":12},"mode":4}]}],"accessors":[{"bufferView":0,"componentType":5126,"count":176,"type":"VEC3","min":[-5.9949951171875,0.3186090087890625,-0.6798561096191407],"max":[0.08508588790893555,7.913470458984375,0.05431803703308105]},{"bufferView":1,"componentType":5126,"count":176,"type":"VEC3"},{"bufferView":2,"componentType":5126,"count":300,"type":"VEC4"},{"bufferView":3,"componentType":5126,"count":176,"type":"VEC2"},{"bufferView":4,"componentType":5126,"count":176,"type":"VEC2"},{"bufferView":5,"componentType":5126,"count":176,"type":"VEC4"},{"bufferView":6,"componentType":5123,"count":330,"type":"SCALAR"},{"bufferView":7,"componentType":5126,"count":124,"type":"VEC3","min":[-5.9949951171875,0.3186090087890625,-0.6798561096191407],"max":[0.08508588790893555,7.913470458984375,0.05431803703308105]},{"bufferView":8,"componentType":5126,"count":124,"type":"VEC3"},{"bufferView":9,"componentType":5126,"count":300,"type":"VEC4"},{"bufferView":10,"componentType":5126,"count":124,"type":"VEC2"},{"bufferView":11,"componentType":5126,"count":124,"type":"VEC2"},{"bufferView":12,"componentType":5126,"count":124,"type":"VEC4"},{"bufferView":13,"componentType":5123,"count":168,"type":"SCALAR"}],"bufferViews":[{"buffer":0,"byteOffset":0,"byteLength":2112},{"buffer":0,"byteOffset":2112,"byteLength":2112},{"buffer":0,"byteOffset":4224,"byteLength":4800},{"buffer":0,"byteOffset":9024,"byteLength":1408},{"buffer":0,"byteOffset":10432,"byteLength":1408},{"buffer":0,"byteOffset":11840,"byteLength":2816},{"buffer":0,"byteOffset":14656,"byteLength":660},{"buffer":1,"byteOffset":0,"byteLength":1488},{"buffer":1,"byteOffset":1488,"byteLength":1488},{"buffer":1,"byteOffset":2976,"byteLength":4800},{"buffer":1,"byteOffset":7776,"byteLength":992},{"buffer":1,"byteOffset":8768,"byteLength":992},{"buffer":1,"byteOffset":9760,"byteLength":1984},{"buffer":1,"byteOffset":11744,"byteLength":336}],"buffers":[{"byteLength":15316,"uri":"data:application/octet-stream;base64,"},{"byteLength":12080,"uri":"data:application/octet-stream;base64,"}]}
