{"asset":{"generator":"Khronos glTF Blender I/O v1.2.75","version":"2.0"},"scene":0,"scenes":[{"name":"Scene","nodes":[0]}],"nodes":[{"mesh":0,"name":"Mesh"}],"meshes":[{"name":"SM_MetalWallPart_06","primitives":[{"indices":6,"attributes":{"POSITION":0,"NORMAL":1,"COLOR_0":2,"TEXCOORD_0":3,"TEXCOORD_1":4,"TANGENT":5},"mode":4}]}],"accessors":[{"bufferView":0,"componentType":5126,"count":288,"type":"VEC3","min":[-0.02718754768371582,-7.62939453125e-7,-3.999999694824219],"max":[0.1839778518676758,1.249999771118164,-1.049041748046875e-7]},{"bufferView":1,"componentType":5126,"count":288,"type":"VEC3"},{"bufferView":2,"componentType":5126,"count":288,"type":"VEC4"},{"bufferView":3,"componentType":5126,"count":288,"type":"VEC2"},{"bufferView":4,"componentType":5126,"count":288,"type":"VEC2"},{"bufferView":5,"componentType":5126,"count":288,"type":"VEC4"},{"bufferView":6,"componentType":5123,"count":456,"type":"SCALAR"}],"bufferViews":[{"buffer":0,"byteOffset":0,"byteLength":3456},{"buffer":0,"byteOffset":3456,"byteLength":3456},{"buffer":0,"byteOffset":6912,"byteLength":4608},{"buffer":0,"byteOffset":11520,"byteLength":2304},{"buffer":0,"byteOffset":13824,"byteLength":2304},{"buffer":0,"byteOffset":16128,"byteLength":4608},{"buffer":0,"byteOffset":20736,"byteLength":912}],"buffers":[{"byteLength":21648,"uri":"data:application/octet-stream;base64,"}]}
