{"asset":{"generator":"Khronos glTF Blender I/O v1.2.75","version":"2.0"},"scene":0,"scenes":[{"name":"Scene","nodes":[0]}],"nodes":[{"mesh":0,"name":"Mesh"}],"meshes":[{"name":"SM_PaperBox_02_01","primitives":[{"indices":6,"attributes":{"POSITION":0,"NORMAL":1,"COLOR_0":2,"TEXCOORD_0":3,"TEXCOORD_1":4,"TANGENT":5},"mode":4}]}],"accessors":[{"bufferView":0,"componentType":5126,"count":68,"type":"VEC3","min":[-0.4504878234863281,-0.07670769691467286,-0.5028451919555664],"max":[0.3443806838989258,0.5490907669067383,0.5505065536499023]},{"bufferView":1,"componentType":5126,"count":68,"type":"VEC3"},{"bufferView":2,"componentType":5126,"count":68,"type":"VEC4"},{"bufferView":3,"componentType":5126,"count":68,"type":"VEC2"},{"bufferView":4,"componentType":5126,"count":68,"type":"VEC2"},{"bufferView":5,"componentType":5126,"count":68,"type":"VEC4"},{"bufferView":6,"componentType":5123,"count":72,"type":"SCALAR"}],"bufferViews":[{"buffer":0,"byteOffset":0,"byteLength":816},{"buffer":0,"byteOffset":816,"byteLength":816},{"buffer":0,"byteOffset":1632,"byteLength":1088},{"buffer":0,"byteOffset":2720,"byteLength":544},{"buffer":0,"byteOffset":3264,"byteLength":544},{"buffer":0,"byteOffset":3808,"byteLength":1088},{"buffer":0,"byteOffset":4896,"byteLength":144}],"buffers":[{"byteLength":5040,"uri":"data:application/octet-stream;base64,"}]}
