{"asset":{"generator":"Khronos glTF Blender I/O v1.2.75","version":"2.0"},"scene":0,"scenes":[{"name":"Scene","nodes":[0]}],"nodes":[{"mesh":0,"name":"Mesh"}],"meshes":[{"name":"SM_PaperBox_02_01","primitives":[{"indices":6,"attributes":{"POSITION":0,"NORMAL":1,"COLOR_0":2,"TEXCOORD_0":3,"TEXCOORD_1":4,"TANGENT":5},"mode":4}]}],"accessors":[{"bufferView":0,"componentType":5126,"count":41,"type":"VEC3","min":[-0.4504878234863281,-0.07670769691467286,-0.5028451919555664],"max":[0.3443806838989258,0.5490907669067383,0.5505065536499023]},{"bufferView":1,"componentType":5126,"count":41,"type":"VEC3"},{"bufferView":2,"componentType":5126,"count":41,"type":"VEC4"},{"bufferView":3,"componentType":5126,"count":41,"type":"VEC2"},{"bufferView":4,"componentType":5126,"count":41,"type":"VEC2"},{"bufferView":5,"componentType":5126,"count":41,"type":"VEC4"},{"bufferView":6,"componentType":5123,"count":42,"type":"SCALAR"}],"bufferViews":[{"buffer":0,"byteOffset":0,"byteLength":492},{"buffer":0,"byteOffset":492,"byteLength":492},{"buffer":0,"byteOffset":984,"byteLength":656},{"buffer":0,"byteOffset":1640,"byteLength":328},{"buffer":0,"byteOffset":1968,"byteLength":328},{"buffer":0,"byteOffset":2296,"byteLength":656},{"buffer":0,"byteOffset":2952,"byteLength":84}],"buffers":[{"byteLength":3036,"uri":"data:application/octet-stream;base64,"}]}
