{"asset":{"generator":"Khronos glTF Blender I/O v1.2.75","version":"2.0"},"scene":0,"scenes":[{"name":"Scene","nodes":[0]}],"nodes":[{"mesh":0,"name":"Mesh"}],"meshes":[{"name":"SM_CarPaintLight01","primitives":[{"indices":5,"attributes":{"POSITION":0,"NORMAL":1,"TEXCOORD_0":2,"TEXCOORD_1":3,"TANGENT":4},"mode":4},{"indices":11,"attributes":{"POSITION":6,"NORMAL":7,"TEXCOORD_0":8,"TEXCOORD_1":9,"TANGENT":10},"mode":4}]}],"accessors":[{"bufferView":0,"componentType":5126,"count":1022,"type":"VEC3","min":[-0.13736328125,-0.402879638671875,-0.1418116283416748],"max":[2.031328125,0.403341064453125,0.2071443748474121]},{"bufferView":1,"componentType":5126,"count":1022,"type":"VEC3"},{"bufferView":2,"componentType":5126,"count":1022,"type":"VEC2"},{"bufferView":3,"componentType":5126,"count":1022,"type":"VEC2"},{"bufferView":4,"componentType":5126,"count":1022,"type":"VEC4"},{"bufferView":5,"componentType":5123,"count":1512,"type":"SCALAR"},{"bufferView":6,"componentType":5126,"count":192,"type":"VEC3","min":[-0.13736328125,-0.402879638671875,-0.1418116283416748],"max":[2.031328125,0.403341064453125,0.2071443748474121]},{"bufferView":7,"componentType":5126,"count":192,"type":"VEC3"},{"bufferView":8,"componentType":5126,"count":192,"type":"VEC2"},{"bufferView":9,"componentType":5126,"count":192,"type":"VEC2"},{"bufferView":10,"componentType":5126,"count":192,"type":"VEC4"},{"bufferView":11,"componentType":5123,"count":432,"type":"SCALAR"}],"bufferViews":[{"buffer":0,"byteOffset":0,"byteLength":12264},{"buffer":0,"byteOffset":12264,"byteLength":12264},{"buffer":0,"byteOffset":24528,"byteLength":8176},{"buffer":0,"byteOffset":32704,"byteLength":8176},{"buffer":0,"byteOffset":40880,"byteLength":16352},{"buffer":0,"byteOffset":57232,"byteLength":3024},{"buffer":1,"byteOffset":0,"byteLength":2304},{"buffer":1,"byteOffset":2304,"byteLength":2304},{"buffer":1,"byteOffset":4608,"byteLength":1536},{"buffer":1,"byteOffset":6144,"byteLength":1536},{"buffer":1,"byteOffset":7680,"byteLength":3072},{"buffer":1,"byteOffset":10752,"byteLength":864}],"buffers":[{"byteLength":60256,"uri":"data:application/octet-stream;base64,"},{"byteLength":11616,"uri":"data:application/octet-stream;base64,"}]}
