{"asset":{"generator":"Khronos glTF Blender I/O v1.2.75","version":"2.0"},"scene":0,"scenes":[{"name":"Scene","nodes":[0]}],"nodes":[{"mesh":0,"name":"Mesh"}],"meshes":[{"name":"SM_CarPaintLight01","primitives":[{"indices":5,"attributes":{"POSITION":0,"NORMAL":1,"TEXCOORD_0":2,"TEXCOORD_1":3,"TANGENT":4},"mode":4},{"indices":11,"attributes":{"POSITION":6,"NORMAL":7,"TEXCOORD_0":8,"TEXCOORD_1":9,"TANGENT":10},"mode":4}]}],"accessors":[{"bufferView":0,"componentType":5126,"count":16896,"type":"VEC3","min":[-0.13736328125,-0.402879638671875,-0.1418116283416748],"max":[2.031328125,0.403341064453125,0.2071443748474121]},{"bufferView":1,"componentType":5126,"count":16896,"type":"VEC3"},{"bufferView":2,"componentType":5126,"count":16896,"type":"VEC2"},{"bufferView":3,"componentType":5126,"count":16896,"type":"VEC2"},{"bufferView":4,"componentType":5126,"count":16896,"type":"VEC4"},{"bufferView":5,"componentType":5123,"count":55440,"type":"SCALAR"},{"bufferView":6,"componentType":5126,"count":2016,"type":"VEC3","min":[-0.13736328125,-0.402879638671875,-0.1418116283416748],"max":[2.031328125,0.403341064453125,0.2071443748474121]},{"bufferView":7,"componentType":5126,"count":2016,"type":"VEC3"},{"bufferView":8,"componentType":5126,"count":2016,"type":"VEC2"},{"bufferView":9,"componentType":5126,"count":2016,"type":"VEC2"},{"bufferView":10,"componentType":5126,"count":2016,"type":"VEC4"},{"bufferView":11,"componentType":5123,"count":9456,"type":"SCALAR"}],"bufferViews":[{"buffer":0,"byteOffset":0,"byteLength":202752},{"buffer":0,"byteOffset":202752,"byteLength":202752},{"buffer":0,"byteOffset":405504,"byteLength":135168},{"buffer":0,"byteOffset":540672,"byteLength":135168},{"buffer":0,"byteOffset":675840,"byteLength":270336},{"buffer":0,"byteOffset":946176,"byteLength":110880},{"buffer":1,"byteOffset":0,"byteLength":24192},{"buffer":1,"byteOffset":24192,"byteLength":24192},{"buffer":1,"byteOffset":48384,"byteLength":16128},{"buffer":1,"byteOffset":64512,"byteLength":16128},{"buffer":1,"byteOffset":80640,"byteLength":32256},{"buffer":1,"byteOffset":112896,"byteLength":18912}],"buffers":[{"byteLength":1057056,"uri":"data:application/octet-stream;base64,"},{"byteLength":131808,"uri":"data:application/octet-stream;base64,"}]}
