{"asset":{"generator":"Khronos glTF Blender I/O v1.2.75","version":"2.0"},"scene":0,"scenes":[{"name":"Scene","nodes":[0]}],"nodes":[{"mesh":0,"name":"Mesh"}],"meshes":[{"name":"SM_CarPaintLight01","primitives":[{"indices":5,"attributes":{"POSITION":0,"NORMAL":1,"TEXCOORD_0":2,"TEXCOORD_1":3,"TANGENT":4},"mode":4},{"indices":11,"attributes":{"POSITION":6,"NORMAL":7,"TEXCOORD_0":8,"TEXCOORD_1":9,"TANGENT":10},"mode":4}]}],"accessors":[{"bufferView":0,"componentType":5126,"count":10144,"type":"VEC3","min":[-0.13736328125,-0.402879638671875,-0.1418116283416748],"max":[2.031328125,0.403341064453125,0.2071443748474121]},{"bufferView":1,"componentType":5126,"count":10144,"type":"VEC3"},{"bufferView":2,"componentType":5126,"count":10144,"type":"VEC2"},{"bufferView":3,"componentType":5126,"count":10144,"type":"VEC2"},{"bufferView":4,"componentType":5126,"count":10144,"type":"VEC4"},{"bufferView":5,"componentType":5123,"count":25968,"type":"SCALAR"},{"bufferView":6,"componentType":5126,"count":1488,"type":"VEC3","min":[-0.13736328125,-0.402879638671875,-0.1418116283416748],"max":[2.031328125,0.403341064453125,0.2071443748474121]},{"bufferView":7,"componentType":5126,"count":1488,"type":"VEC3"},{"bufferView":8,"componentType":5126,"count":1488,"type":"VEC2"},{"bufferView":9,"componentType":5126,"count":1488,"type":"VEC2"},{"bufferView":10,"componentType":5126,"count":1488,"type":"VEC4"},{"bufferView":11,"componentType":5123,"count":6480,"type":"SCALAR"}],"bufferViews":[{"buffer":0,"byteOffset":0,"byteLength":121728},{"buffer":0,"byteOffset":121728,"byteLength":121728},{"buffer":0,"byteOffset":243456,"byteLength":81152},{"buffer":0,"byteOffset":324608,"byteLength":81152},{"buffer":0,"byteOffset":405760,"byteLength":162304},{"buffer":0,"byteOffset":568064,"byteLength":51936},{"buffer":1,"byteOffset":0,"byteLength":17856},{"buffer":1,"byteOffset":17856,"byteLength":17856},{"buffer":1,"byteOffset":35712,"byteLength":11904},{"buffer":1,"byteOffset":47616,"byteLength":11904},{"buffer":1,"byteOffset":59520,"byteLength":23808},{"buffer":1,"byteOffset":83328,"byteLength":12960}],"buffers":[{"byteLength":620000,"uri":"data:application/octet-stream;base64,"},{"byteLength":96288,"uri":"data:application/octet-stream;base64,"}]}
