{"asset":{"generator":"Khronos glTF Blender I/O v1.2.75","version":"2.0"},"scene":0,"scenes":[{"name":"Scene","nodes":[0]}],"nodes":[{"mesh":0,"name":"Mesh"}],"meshes":[{"name":"SM_PipeGroup29","primitives":[{"indices":5,"attributes":{"POSITION":0,"NORMAL":1,"TEXCOORD_0":2,"TEXCOORD_1":3,"TANGENT":4},"mode":4}]}],"accessors":[{"bufferView":0,"componentType":5126,"count":7598,"type":"VEC3","min":[-7.5803271484375,-25.7152001953125,-0.5542970657348633],"max":[1.7005397033691407,5.04028076171875,2.2542254638671877]},{"bufferView":1,"componentType":5126,"count":7598,"type":"VEC3"},{"bufferView":2,"componentType":5126,"count":7598,"type":"VEC2"},{"bufferView":3,"componentType":5126,"count":7598,"type":"VEC2"},{"bufferView":4,"componentType":5126,"count":7598,"type":"VEC4"},{"bufferView":5,"componentType":5123,"count":13260,"type":"SCALAR"}],"bufferViews":[{"buffer":0,"byteOffset":0,"byteLength":91176},{"buffer":0,"byteOffset":91176,"byteLength":91176},{"buffer":0,"byteOffset":182352,"byteLength":60784},{"buffer":0,"byteOffset":243136,"byteLength":60784},{"buffer":0,"byteOffset":303920,"byteLength":121568},{"buffer":0,"byteOffset":425488,"byteLength":26520}],"buffers":[{"byteLength":452008,"uri":"data:application/octet-stream;base64,"}]}
