{"asset":{"generator":"Khronos glTF Blender I/O v1.2.75","version":"2.0"},"scene":0,"scenes":[{"name":"Scene","nodes":[0]}],"nodes":[{"mesh":0,"name":"Mesh"}],"meshes":[{"name":"SM_PipeGroup29","primitives":[{"indices":5,"attributes":{"POSITION":0,"NORMAL":1,"TEXCOORD_0":2,"TEXCOORD_1":3,"TANGENT":4},"mode":4}]}],"accessors":[{"bufferView":0,"componentType":5126,"count":11440,"type":"VEC3","min":[-7.5803271484375,-25.7152001953125,-0.5542970657348633],"max":[1.7005397033691407,5.04028076171875,2.2542254638671877]},{"bufferView":1,"componentType":5126,"count":11440,"type":"VEC3"},{"bufferView":2,"componentType":5126,"count":11440,"type":"VEC2"},{"bufferView":3,"componentType":5126,"count":11440,"type":"VEC2"},{"bufferView":4,"componentType":5126,"count":11440,"type":"VEC4"},{"bufferView":5,"componentType":5123,"count":26520,"type":"SCALAR"}],"bufferViews":[{"buffer":0,"byteOffset":0,"byteLength":137280},{"buffer":0,"byteOffset":137280,"byteLength":137280},{"buffer":0,"byteOffset":274560,"byteLength":91520},{"buffer":0,"byteOffset":366080,"byteLength":91520},{"buffer":0,"byteOffset":457600,"byteLength":183040},{"buffer":0,"byteOffset":640640,"byteLength":53040}],"buffers":[{"byteLength":693680,"uri":"data:application/octet-stream;base64,"}]}
