{"asset":{"generator":"Khronos glTF Blender I/O v1.2.75","version":"2.0"},"scene":0,"scenes":[{"name":"Scene","nodes":[0]}],"nodes":[{"mesh":0,"name":"Mesh"}],"meshes":[{"name":"SM_Column_03","primitives":[{"indices":6,"attributes":{"POSITION":0,"NORMAL":1,"COLOR_0":2,"TEXCOORD_0":3,"TEXCOORD_1":4,"TANGENT":5},"mode":4}]}],"accessors":[{"bufferView":0,"componentType":5126,"count":72,"type":"VEC3","min":[-0.494901123046875,0,-0.75],"max":[0.4949005126953125,5,0.75]},{"bufferView":1,"componentType":5126,"count":72,"type":"VEC3"},{"bufferView":2,"componentType":5126,"count":72,"type":"VEC4"},{"bufferView":3,"componentType":5126,"count":72,"type":"VEC2"},{"bufferView":4,"componentType":5126,"count":72,"type":"VEC2"},{"bufferView":5,"componentType":5126,"count":72,"type":"VEC4"},{"bufferView":6,"componentType":5123,"count":108,"type":"SCALAR"}],"bufferViews":[{"buffer":0,"byteOffset":0,"byteLength":864},{"buffer":0,"byteOffset":864,"byteLength":864},{"buffer":0,"byteOffset":1728,"byteLength":1152},{"buffer":0,"byteOffset":2880,"byteLength":576},{"buffer":0,"byteOffset":3456,"byteLength":576},{"buffer":0,"byteOffset":4032,"byteLength":1152},{"buffer":0,"byteOffset":5184,"byteLength":216}],"buffers":[{"byteLength":5400,"uri":"data:application/octet-stream;base64,"}]}
