{"asset":{"generator":"Khronos glTF Blender I/O v1.2.75","version":"2.0"},"scene":0,"scenes":[{"name":"Scene","nodes":[0]}],"nodes":[{"mesh":0,"name":"Mesh"}],"meshes":[{"name":"SM_PaperBox_03_07","primitives":[{"indices":6,"attributes":{"POSITION":0,"NORMAL":1,"COLOR_0":2,"TEXCOORD_0":3,"TEXCOORD_1":4,"TANGENT":5},"mode":4}]}],"accessors":[{"bufferView":0,"componentType":5126,"count":694,"type":"VEC3","min":[-0.40938983917236327,-0.10357098579406739,-0.457501220703125],"max":[0.3871333694458008,0.7028591918945313,0.46925079345703125]},{"bufferView":1,"componentType":5126,"count":694,"type":"VEC3"},{"bufferView":2,"componentType":5126,"count":694,"type":"VEC4"},{"bufferView":3,"componentType":5126,"count":694,"type":"VEC2"},{"bufferView":4,"componentType":5126,"count":694,"type":"VEC2"},{"bufferView":5,"componentType":5126,"count":694,"type":"VEC4"},{"bufferView":6,"componentType":5123,"count":756,"type":"SCALAR"}],"bufferViews":[{"buffer":0,"byteOffset":0,"byteLength":8328},{"buffer":0,"byteOffset":8328,"byteLength":8328},{"buffer":0,"byteOffset":16656,"byteLength":11104},{"buffer":0,"byteOffset":27760,"byteLength":5552},{"buffer":0,"byteOffset":33312,"byteLength":5552},{"buffer":0,"byteOffset":38864,"byteLength":11104},{"buffer":0,"byteOffset":49968,"byteLength":1512}],"buffers":[{"byteLength":51480,"uri":"data:application/octet-stream;base64,"}]}
