{"asset":{"generator":"Khronos glTF Blender I/O v1.2.75","version":"2.0"},"scene":0,"scenes":[{"name":"Scene","nodes":[0]}],"nodes":[{"mesh":0,"name":"Mesh"}],"meshes":[{"name":"CarWash","primitives":[{"indices":5,"attributes":{"POSITION":0,"NORMAL":1,"TEXCOORD_0":2,"TEXCOORD_1":3,"TANGENT":4},"mode":4}]}],"accessors":[{"bufferView":0,"componentType":5126,"count":2073,"type":"VEC3","min":[-0.9497377014160157,-0.45326446533203124,-0.06731055736541748],"max":[0,0.45326446533203124,0.02426525592803955]},{"bufferView":1,"componentType":5126,"count":2073,"type":"VEC3"},{"bufferView":2,"componentType":5126,"count":2073,"type":"VEC2"},{"bufferView":3,"componentType":5126,"count":2073,"type":"VEC2"},{"bufferView":4,"componentType":5126,"count":2073,"type":"VEC4"},{"bufferView":5,"componentType":5123,"count":5124,"type":"SCALAR"}],"bufferViews":[{"buffer":0,"byteOffset":0,"byteLength":24876},{"buffer":0,"byteOffset":24876,"byteLength":24876},{"buffer":0,"byteOffset":49752,"byteLength":16584},{"buffer":0,"byteOffset":66336,"byteLength":16584},{"buffer":0,"byteOffset":82920,"byteLength":33168},{"buffer":0,"byteOffset":116088,"byteLength":10248}],"buffers":[{"byteLength":126336,"uri":"data:application/octet-stream;base64,"}]}
