{"asset":{"generator":"Khronos glTF Blender I/O v1.2.75","version":"2.0"},"scene":0,"scenes":[{"name":"Scene","nodes":[0]}],"nodes":[{"mesh":0,"name":"Mesh"}],"meshes":[{"name":"SM_PaperBox_03_06","primitives":[{"indices":6,"attributes":{"POSITION":0,"NORMAL":1,"COLOR_0":2,"TEXCOORD_0":3,"TEXCOORD_1":4,"TANGENT":5},"mode":4}]}],"accessors":[{"bufferView":0,"componentType":5126,"count":785,"type":"VEC3","min":[-0.31185527801513674,-0.02999392032623291,-0.430517578125],"max":[0.31028844833374025,0.74127197265625,0.44321502685546876]},{"bufferView":1,"componentType":5126,"count":785,"type":"VEC3"},{"bufferView":2,"componentType":5126,"count":785,"type":"VEC4"},{"bufferView":3,"componentType":5126,"count":785,"type":"VEC2"},{"bufferView":4,"componentType":5126,"count":785,"type":"VEC2"},{"bufferView":5,"componentType":5126,"count":785,"type":"VEC4"},{"bufferView":6,"componentType":5123,"count":870,"type":"SCALAR"}],"bufferViews":[{"buffer":0,"byteOffset":0,"byteLength":9420},{"buffer":0,"byteOffset":9420,"byteLength":9420},{"buffer":0,"byteOffset":18840,"byteLength":12560},{"buffer":0,"byteOffset":31400,"byteLength":6280},{"buffer":0,"byteOffset":37680,"byteLength":6280},{"buffer":0,"byteOffset":43960,"byteLength":12560},{"buffer":0,"byteOffset":56520,"byteLength":1740}],"buffers":[{"byteLength":58260,"uri":"data:application/octet-stream;base64,"}]}
