{"asset":{"generator":"Khronos glTF Blender I/O v1.2.75","version":"2.0"},"scene":0,"scenes":[{"name":"Scene","nodes":[0]}],"nodes":[{"mesh":0,"name":"Mesh"}],"meshes":[{"name":"SM_PaperBox_03_06","primitives":[{"indices":6,"attributes":{"POSITION":0,"NORMAL":1,"COLOR_0":2,"TEXCOORD_0":3,"TEXCOORD_1":4,"TANGENT":5},"mode":4}]}],"accessors":[{"bufferView":0,"componentType":5126,"count":504,"type":"VEC3","min":[-0.31185527801513674,-0.02999392032623291,-0.430517578125],"max":[0.31028844833374025,0.74127197265625,0.44321502685546876]},{"bufferView":1,"componentType":5126,"count":504,"type":"VEC3"},{"bufferView":2,"componentType":5126,"count":504,"type":"VEC4"},{"bufferView":3,"componentType":5126,"count":504,"type":"VEC2"},{"bufferView":4,"componentType":5126,"count":504,"type":"VEC2"},{"bufferView":5,"componentType":5126,"count":504,"type":"VEC4"},{"bufferView":6,"componentType":5123,"count":564,"type":"SCALAR"}],"bufferViews":[{"buffer":0,"byteOffset":0,"byteLength":6048},{"buffer":0,"byteOffset":6048,"byteLength":6048},{"buffer":0,"byteOffset":12096,"byteLength":8064},{"buffer":0,"byteOffset":20160,"byteLength":4032},{"buffer":0,"byteOffset":24192,"byteLength":4032},{"buffer":0,"byteOffset":28224,"byteLength":8064},{"buffer":0,"byteOffset":36288,"byteLength":1128}],"buffers":[{"byteLength":37416,"uri":"data:application/octet-stream;base64,"}]}
