{"asset":{"generator":"Khronos glTF Blender I/O v1.2.75","version":"2.0"},"scene":0,"scenes":[{"name":"Scene","nodes":[0]}],"nodes":[{"mesh":0,"name":"Mesh"}],"meshes":[{"name":"SM_CocosLogo_02","primitives":[{"indices":5,"attributes":{"POSITION":0,"NORMAL":1,"TEXCOORD_0":2,"TEXCOORD_1":3,"TANGENT":4},"mode":4}]}],"accessors":[{"bufferView":0,"componentType":5126,"count":2226,"type":"VEC3","min":[-0.44060890197753905,-0.5433990097045899,-5.6461162785126364e-8],"max":[0.44060890197753905,0.710132827758789,0.12755948066711426]},{"bufferView":1,"componentType":5126,"count":2226,"type":"VEC3"},{"bufferView":2,"componentType":5126,"count":2226,"type":"VEC2"},{"bufferView":3,"componentType":5126,"count":2226,"type":"VEC2"},{"bufferView":4,"componentType":5126,"count":2226,"type":"VEC4"},{"bufferView":5,"componentType":5123,"count":5556,"type":"SCALAR"}],"bufferViews":[{"buffer":0,"byteOffset":0,"byteLength":26712},{"buffer":0,"byteOffset":26712,"byteLength":26712},{"buffer":0,"byteOffset":53424,"byteLength":17808},{"buffer":0,"byteOffset":71232,"byteLength":17808},{"buffer":0,"byteOffset":89040,"byteLength":35616},{"buffer":0,"byteOffset":124656,"byteLength":11112}],"buffers":[{"byteLength":135768,"uri":"data:application/octet-stream;base64,"}]}
