{"asset":{"generator":"Khronos glTF Blender I/O v1.2.75","version":"2.0"},"scene":0,"scenes":[{"name":"Scene","nodes":[0]}],"nodes":[{"mesh":0,"name":"Mesh"}],"meshes":[{"name":"SM_CocosLogo_02","primitives":[{"indices":5,"attributes":{"POSITION":0,"NORMAL":1,"TEXCOORD_0":2,"TEXCOORD_1":3,"TANGENT":4},"mode":4}]}],"accessors":[{"bufferView":0,"componentType":5126,"count":1307,"type":"VEC3","min":[-0.44060890197753905,-0.5433990097045899,-5.6461162785126364e-8],"max":[0.44060890197753905,0.710132827758789,0.12755948066711426]},{"bufferView":1,"componentType":5126,"count":1307,"type":"VEC3"},{"bufferView":2,"componentType":5126,"count":1307,"type":"VEC2"},{"bufferView":3,"componentType":5126,"count":1307,"type":"VEC2"},{"bufferView":4,"componentType":5126,"count":1307,"type":"VEC4"},{"bufferView":5,"componentType":5123,"count":2778,"type":"SCALAR"}],"bufferViews":[{"buffer":0,"byteOffset":0,"byteLength":15684},{"buffer":0,"byteOffset":15684,"byteLength":15684},{"buffer":0,"byteOffset":31368,"byteLength":10456},{"buffer":0,"byteOffset":41824,"byteLength":10456},{"buffer":0,"byteOffset":52280,"byteLength":20912},{"buffer":0,"byteOffset":73192,"byteLength":5556}],"buffers":[{"byteLength":78748,"uri":"data:application/octet-stream;base64,"}]}
