{"asset":{"generator":"Khronos glTF Blender I/O v1.2.75","version":"2.0"},"scene":0,"scenes":[{"name":"Scene","nodes":[0]}],"nodes":[{"mesh":0,"name":"Mesh"}],"meshes":[{"name":"SM_Building13_05","primitives":[{"indices":5,"attributes":{"POSITION":0,"NORMAL":1,"TEXCOORD_0":2,"TEXCOORD_1":3,"TANGENT":4},"mode":4}]}],"accessors":[{"bufferView":0,"componentType":5126,"count":72,"type":"VEC3","min":[-0.000009765625,-0.000001220703125,-0.7742031860351563],"max":[9.999990234375,3.4984747314453126,0.00000457763671875]},{"bufferView":1,"componentType":5126,"count":72,"type":"VEC3"},{"bufferView":2,"componentType":5126,"count":72,"type":"VEC2"},{"bufferView":3,"componentType":5126,"count":72,"type":"VEC2"},{"bufferView":4,"componentType":5126,"count":72,"type":"VEC4"},{"bufferView":5,"componentType":5123,"count":144,"type":"SCALAR"}],"bufferViews":[{"buffer":0,"byteOffset":0,"byteLength":864},{"buffer":0,"byteOffset":864,"byteLength":864},{"buffer":0,"byteOffset":1728,"byteLength":576},{"buffer":0,"byteOffset":2304,"byteLength":576},{"buffer":0,"byteOffset":2880,"byteLength":1152},{"buffer":0,"byteOffset":4032,"byteLength":288}],"buffers":[{"byteLength":4320,"uri":"data:application/octet-stream;base64,"}]}
