{"asset":{"generator":"Khronos glTF Blender I/O v1.2.75","version":"2.0"},"scene":0,"scenes":[{"name":"Scene","nodes":[0]}],"nodes":[{"mesh":0,"name":"Mesh"}],"meshes":[{"name":"SM_Building04_07","primitives":[{"indices":5,"attributes":{"POSITION":0,"NORMAL":1,"TEXCOORD_0":2,"TEXCOORD_1":3,"TANGENT":4},"mode":4}]}],"accessors":[{"bufferView":0,"componentType":5126,"count":876,"type":"VEC3","min":[-14.000001220703124,0,-0.0000048828125],"max":[0,12,1]},{"bufferView":1,"componentType":5126,"count":876,"type":"VEC3"},{"bufferView":2,"componentType":5126,"count":876,"type":"VEC2"},{"bufferView":3,"componentType":5126,"count":876,"type":"VEC2"},{"bufferView":4,"componentType":5126,"count":876,"type":"VEC4"},{"bufferView":5,"componentType":5123,"count":1854,"type":"SCALAR"}],"bufferViews":[{"buffer":0,"byteOffset":0,"byteLength":10512},{"buffer":0,"byteOffset":10512,"byteLength":10512},{"buffer":0,"byteOffset":21024,"byteLength":7008},{"buffer":0,"byteOffset":28032,"byteLength":7008},{"buffer":0,"byteOffset":35040,"byteLength":14016},{"buffer":0,"byteOffset":49056,"byteLength":3708}],"buffers":[{"byteLength":52764,"uri":"data:application/octet-stream;base64,"}]}
