{"asset":{"generator":"Khronos glTF Blender I/O v1.2.75","version":"2.0"},"scene":0,"scenes":[{"name":"Scene","nodes":[0]}],"nodes":[{"mesh":0,"name":"Mesh"}],"meshes":[{"name":"SM_PaperBox_03_02","primitives":[{"indices":6,"attributes":{"POSITION":0,"NORMAL":1,"COLOR_0":2,"TEXCOORD_0":3,"TEXCOORD_1":4,"TANGENT":5},"mode":4}]}],"accessors":[{"bufferView":0,"componentType":5126,"count":269,"type":"VEC3","min":[-0.38763381958007814,-0.013509773015975952,-0.5487669372558593],"max":[0.3931147003173828,0.6606986999511719,0.5831481170654297]},{"bufferView":1,"componentType":5126,"count":269,"type":"VEC3"},{"bufferView":2,"componentType":5126,"count":269,"type":"VEC4"},{"bufferView":3,"componentType":5126,"count":269,"type":"VEC2"},{"bufferView":4,"componentType":5126,"count":269,"type":"VEC2"},{"bufferView":5,"componentType":5126,"count":269,"type":"VEC4"},{"bufferView":6,"componentType":5123,"count":336,"type":"SCALAR"}],"bufferViews":[{"buffer":0,"byteOffset":0,"byteLength":3228},{"buffer":0,"byteOffset":3228,"byteLength":3228},{"buffer":0,"byteOffset":6456,"byteLength":4304},{"buffer":0,"byteOffset":10760,"byteLength":2152},{"buffer":0,"byteOffset":12912,"byteLength":2152},{"buffer":0,"byteOffset":15064,"byteLength":4304},{"buffer":0,"byteOffset":19368,"byteLength":672}],"buffers":[{"byteLength":20040,"uri":"data:application/octet-stream;base64,"}]}
