{"asset":{"generator":"Khronos glTF Blender I/O v1.2.75","version":"2.0"},"scene":0,"scenes":[{"name":"Scene","nodes":[0]}],"nodes":[{"mesh":0,"name":"Mesh"}],"meshes":[{"name":"SM_PaperBox_03_02","primitives":[{"indices":6,"attributes":{"POSITION":0,"NORMAL":1,"COLOR_0":2,"TEXCOORD_0":3,"TEXCOORD_1":4,"TANGENT":5},"mode":4}]}],"accessors":[{"bufferView":0,"componentType":5126,"count":471,"type":"VEC3","min":[-0.38763381958007814,-0.013509773015975952,-0.5487669372558593],"max":[0.3931147003173828,0.6606986999511719,0.5831481170654297]},{"bufferView":1,"componentType":5126,"count":471,"type":"VEC3"},{"bufferView":2,"componentType":5126,"count":471,"type":"VEC4"},{"bufferView":3,"componentType":5126,"count":471,"type":"VEC2"},{"bufferView":4,"componentType":5126,"count":471,"type":"VEC2"},{"bufferView":5,"componentType":5126,"count":471,"type":"VEC4"},{"bufferView":6,"componentType":5123,"count":564,"type":"SCALAR"}],"bufferViews":[{"buffer":0,"byteOffset":0,"byteLength":5652},{"buffer":0,"byteOffset":5652,"byteLength":5652},{"buffer":0,"byteOffset":11304,"byteLength":7536},{"buffer":0,"byteOffset":18840,"byteLength":3768},{"buffer":0,"byteOffset":22608,"byteLength":3768},{"buffer":0,"byteOffset":26376,"byteLength":7536},{"buffer":0,"byteOffset":33912,"byteLength":1128}],"buffers":[{"byteLength":35040,"uri":"data:application/octet-stream;base64,"}]}
