{"asset":{"generator":"Khronos glTF Blender I/O v1.2.75","version":"2.0"},"scene":0,"scenes":[{"name":"Scene","nodes":[0]}],"nodes":[{"mesh":0,"name":"Mesh"}],"meshes":[{"name":"SM_Building13_06","primitives":[{"indices":5,"attributes":{"POSITION":0,"NORMAL":1,"TEXCOORD_0":2,"TEXCOORD_1":3,"TANGENT":4},"mode":4}]}],"accessors":[{"bufferView":0,"componentType":5126,"count":236,"type":"VEC3","min":[-0.0738091516494751,-0.38505447387695313,-1.5214865112304687],"max":[10.139381103515625,7.322181396484375,1.8104086303710938]},{"bufferView":1,"componentType":5126,"count":236,"type":"VEC3"},{"bufferView":2,"componentType":5126,"count":236,"type":"VEC2"},{"bufferView":3,"componentType":5126,"count":236,"type":"VEC2"},{"bufferView":4,"componentType":5126,"count":236,"type":"VEC4"},{"bufferView":5,"componentType":5123,"count":504,"type":"SCALAR"}],"bufferViews":[{"buffer":0,"byteOffset":0,"byteLength":2832},{"buffer":0,"byteOffset":2832,"byteLength":2832},{"buffer":0,"byteOffset":5664,"byteLength":1888},{"buffer":0,"byteOffset":7552,"byteLength":1888},{"buffer":0,"byteOffset":9440,"byteLength":3776},{"buffer":0,"byteOffset":13216,"byteLength":1008}],"buffers":[{"byteLength":14224,"uri":"data:application/octet-stream;base64,"}]}
