{"asset":{"generator":"Khronos glTF Blender I/O v1.2.75","version":"2.0"},"scene":0,"scenes":[{"name":"Scene","nodes":[0]}],"nodes":[{"mesh":0,"name":"Mesh"}],"meshes":[{"name":"SM_Building02_04","primitives":[{"indices":5,"attributes":{"POSITION":0,"NORMAL":1,"TEXCOORD_0":2,"TEXCOORD_1":3,"TANGENT":4},"mode":4},{"indices":11,"attributes":{"POSITION":6,"NORMAL":7,"TEXCOORD_0":8,"TEXCOORD_1":9,"TANGENT":10},"mode":4}]}],"accessors":[{"bufferView":0,"componentType":5126,"count":23,"type":"VEC3","min":[-0.006556490063667297,-0.0004705161601305008,-0.000682978704571724],"max":[0.5001339721679687,4.000906372070313,0.5023942184448242]},{"bufferView":1,"componentType":5126,"count":23,"type":"VEC3"},{"bufferView":2,"componentType":5126,"count":23,"type":"VEC2"},{"bufferView":3,"componentType":5126,"count":23,"type":"VEC2"},{"bufferView":4,"componentType":5126,"count":23,"type":"VEC4"},{"bufferView":5,"componentType":5123,"count":51,"type":"SCALAR"},{"bufferView":6,"componentType":5126,"count":43,"type":"VEC3","min":[-0.006556490063667297,-0.0004705161601305008,-0.000682978704571724],"max":[0.5001339721679687,4.000906372070313,0.5023942184448242]},{"bufferView":7,"componentType":5126,"count":43,"type":"VEC3"},{"bufferView":8,"componentType":5126,"count":43,"type":"VEC2"},{"bufferView":9,"componentType":5126,"count":43,"type":"VEC2"},{"bufferView":10,"componentType":5126,"count":43,"type":"VEC4"},{"bufferView":11,"componentType":5123,"count":75,"type":"SCALAR"}],"bufferViews":[{"buffer":0,"byteOffset":0,"byteLength":276},{"buffer":0,"byteOffset":276,"byteLength":276},{"buffer":0,"byteOffset":552,"byteLength":184},{"buffer":0,"byteOffset":736,"byteLength":184},{"buffer":0,"byteOffset":920,"byteLength":368},{"buffer":0,"byteOffset":1288,"byteLength":102},{"buffer":1,"byteOffset":0,"byteLength":516},{"buffer":1,"byteOffset":516,"byteLength":516},{"buffer":1,"byteOffset":1032,"byteLength":344},{"buffer":1,"byteOffset":1376,"byteLength":344},{"buffer":1,"byteOffset":1720,"byteLength":688},{"buffer":1,"byteOffset":2408,"byteLength":150}],"buffers":[{"byteLength":1390,"uri":"data:application/octet-stream;base64,"},{"byteLength":2558,"uri":"data:application/octet-stream;base64,"}]}
