{"asset":{"generator":"Khronos glTF Blender I/O v1.2.75","version":"2.0"},"scene":0,"scenes":[{"name":"Scene","nodes":[0]}],"nodes":[{"mesh":0,"name":"Mesh"}],"meshes":[{"name":"SM_Building02_04","primitives":[{"indices":5,"attributes":{"POSITION":0,"NORMAL":1,"TEXCOORD_0":2,"TEXCOORD_1":3,"TANGENT":4},"mode":4},{"indices":11,"attributes":{"POSITION":6,"NORMAL":7,"TEXCOORD_0":8,"TEXCOORD_1":9,"TANGENT":10},"mode":4}]}],"accessors":[{"bufferView":0,"componentType":5126,"count":10,"type":"VEC3","min":[-0.006556490063667297,-0.0004705161601305008,-0.000682978704571724],"max":[0.5001339721679687,4.000906372070313,0.5023942184448242]},{"bufferView":1,"componentType":5126,"count":10,"type":"VEC3"},{"bufferView":2,"componentType":5126,"count":10,"type":"VEC2"},{"bufferView":3,"componentType":5126,"count":10,"type":"VEC2"},{"bufferView":4,"componentType":5126,"count":10,"type":"VEC4"},{"bufferView":5,"componentType":5123,"count":12,"type":"SCALAR"},{"bufferView":6,"componentType":5126,"count":36,"type":"VEC3","min":[-0.006556490063667297,-0.0004705161601305008,-0.000682978704571724],"max":[0.5001339721679687,4.000906372070313,0.5023942184448242]},{"bufferView":7,"componentType":5126,"count":36,"type":"VEC3"},{"bufferView":8,"componentType":5126,"count":36,"type":"VEC2"},{"bufferView":9,"componentType":5126,"count":36,"type":"VEC2"},{"bufferView":10,"componentType":5126,"count":36,"type":"VEC4"},{"bufferView":11,"componentType":5123,"count":54,"type":"SCALAR"}],"bufferViews":[{"buffer":0,"byteOffset":0,"byteLength":120},{"buffer":0,"byteOffset":120,"byteLength":120},{"buffer":0,"byteOffset":240,"byteLength":80},{"buffer":0,"byteOffset":320,"byteLength":80},{"buffer":0,"byteOffset":400,"byteLength":160},{"buffer":0,"byteOffset":560,"byteLength":24},{"buffer":1,"byteOffset":0,"byteLength":432},{"buffer":1,"byteOffset":432,"byteLength":432},{"buffer":1,"byteOffset":864,"byteLength":288},{"buffer":1,"byteOffset":1152,"byteLength":288},{"buffer":1,"byteOffset":1440,"byteLength":576},{"buffer":1,"byteOffset":2016,"byteLength":108}],"buffers":[{"byteLength":584,"uri":"data:application/octet-stream;base64,"},{"byteLength":2124,"uri":"data:application/octet-stream;base64,"}]}
