{"asset":{"generator":"Khronos glTF Blender I/O v1.2.75","version":"2.0"},"scene":0,"scenes":[{"name":"Scene","nodes":[0]}],"nodes":[{"mesh":0,"name":"Mesh"}],"meshes":[{"name":"SM_Condition_G01","primitives":[{"indices":5,"attributes":{"POSITION":0,"NORMAL":1,"TEXCOORD_0":2,"TEXCOORD_1":3,"TANGENT":4},"mode":4}]}],"accessors":[{"bufferView":0,"componentType":5126,"count":202,"type":"VEC3","min":[-1.05,0,-0.000001220703125],"max":[1,0.8000006103515624,0.4483133697509766]},{"bufferView":1,"componentType":5126,"count":202,"type":"VEC3"},{"bufferView":2,"componentType":5126,"count":202,"type":"VEC2"},{"bufferView":3,"componentType":5126,"count":202,"type":"VEC2"},{"bufferView":4,"componentType":5126,"count":202,"type":"VEC4"},{"bufferView":5,"componentType":5123,"count":348,"type":"SCALAR"}],"bufferViews":[{"buffer":0,"byteOffset":0,"byteLength":2424},{"buffer":0,"byteOffset":2424,"byteLength":2424},{"buffer":0,"byteOffset":4848,"byteLength":1616},{"buffer":0,"byteOffset":6464,"byteLength":1616},{"buffer":0,"byteOffset":8080,"byteLength":3232},{"buffer":0,"byteOffset":11312,"byteLength":696}],"buffers":[{"byteLength":12008,"uri":"data:application/octet-stream;base64,"}]}
