{"asset":{"generator":"Khronos glTF Blender I/O v1.2.75","version":"2.0"},"scene":0,"scenes":[{"name":"Scene","nodes":[0]}],"nodes":[{"mesh":0,"name":"Mesh"}],"meshes":[{"name":"SM_Condition_G01","primitives":[{"indices":5,"attributes":{"POSITION":0,"NORMAL":1,"TEXCOORD_0":2,"TEXCOORD_1":3,"TANGENT":4},"mode":4}]}],"accessors":[{"bufferView":0,"componentType":5126,"count":60,"type":"VEC3","min":[-1.05,0,-0.000001220703125],"max":[1,0.8000006103515624,0.4483133697509766]},{"bufferView":1,"componentType":5126,"count":60,"type":"VEC3"},{"bufferView":2,"componentType":5126,"count":60,"type":"VEC2"},{"bufferView":3,"componentType":5126,"count":60,"type":"VEC2"},{"bufferView":4,"componentType":5126,"count":60,"type":"VEC4"},{"bufferView":5,"componentType":5123,"count":84,"type":"SCALAR"}],"bufferViews":[{"buffer":0,"byteOffset":0,"byteLength":720},{"buffer":0,"byteOffset":720,"byteLength":720},{"buffer":0,"byteOffset":1440,"byteLength":480},{"buffer":0,"byteOffset":1920,"byteLength":480},{"buffer":0,"byteOffset":2400,"byteLength":960},{"buffer":0,"byteOffset":3360,"byteLength":168}],"buffers":[{"byteLength":3528,"uri":"data:application/octet-stream;base64,"}]}
