{"asset":{"generator":"Khronos glTF Blender I/O v1.2.75","version":"2.0"},"scene":0,"scenes":[{"name":"Scene","nodes":[0]}],"nodes":[{"mesh":0,"name":"Mesh"}],"meshes":[{"name":"SM_HoloBank","primitives":[{"indices":5,"attributes":{"POSITION":0,"NORMAL":1,"TEXCOORD_0":2,"TEXCOORD_1":3,"TANGENT":4},"mode":4}]}],"accessors":[{"bufferView":0,"componentType":5126,"count":2724,"type":"VEC3","min":[-2.835118408203125,-3.2921881103515624,-3.2921881103515624],"max":[2.744587707519531,3.2921875,3.2921884155273435]},{"bufferView":1,"componentType":5126,"count":2724,"type":"VEC3"},{"bufferView":2,"componentType":5126,"count":2724,"type":"VEC2"},{"bufferView":3,"componentType":5126,"count":2724,"type":"VEC2"},{"bufferView":4,"componentType":5126,"count":2724,"type":"VEC4"},{"bufferView":5,"componentType":5123,"count":4035,"type":"SCALAR"}],"bufferViews":[{"buffer":0,"byteOffset":0,"byteLength":32688},{"buffer":0,"byteOffset":32688,"byteLength":32688},{"buffer":0,"byteOffset":65376,"byteLength":21792},{"buffer":0,"byteOffset":87168,"byteLength":21792},{"buffer":0,"byteOffset":108960,"byteLength":43584},{"buffer":0,"byteOffset":152544,"byteLength":8070}],"buffers":[{"byteLength":160614,"uri":"data:application/octet-stream;base64,"}]}
