{"asset":{"generator":"Khronos glTF Blender I/O v1.2.75","version":"2.0"},"scene":0,"scenes":[{"name":"Scene","nodes":[0]}],"nodes":[{"mesh":0,"name":"Mesh"}],"meshes":[{"name":"SM_Cable_Corn","primitives":[{"indices":5,"attributes":{"POSITION":0,"NORMAL":1,"TEXCOORD_0":2,"TEXCOORD_1":3,"TANGENT":4},"mode":4}]}],"accessors":[{"bufferView":0,"componentType":5126,"count":128,"type":"VEC3","min":[-3.0517578125e-7,-0.0046573343873023984,-0.02505436897277832],"max":[0.1239996337890625,0.051093530654907224,0.10006390571594238]},{"bufferView":1,"componentType":5126,"count":128,"type":"VEC3"},{"bufferView":2,"componentType":5126,"count":128,"type":"VEC2"},{"bufferView":3,"componentType":5126,"count":128,"type":"VEC2"},{"bufferView":4,"componentType":5126,"count":128,"type":"VEC4"},{"bufferView":5,"componentType":5123,"count":378,"type":"SCALAR"}],"bufferViews":[{"buffer":0,"byteOffset":0,"byteLength":1536},{"buffer":0,"byteOffset":1536,"byteLength":1536},{"buffer":0,"byteOffset":3072,"byteLength":1024},{"buffer":0,"byteOffset":4096,"byteLength":1024},{"buffer":0,"byteOffset":5120,"byteLength":2048},{"buffer":0,"byteOffset":7168,"byteLength":756}],"buffers":[{"byteLength":7924,"uri":"data:application/octet-stream;base64,"}]}
