{"asset":{"generator":"Khronos glTF Blender I/O v1.2.75","version":"2.0"},"scene":0,"scenes":[{"name":"Scene","nodes":[0]}],"nodes":[{"mesh":0,"name":"Mesh"}],"meshes":[{"name":"SM_Cable_Corn","primitives":[{"indices":5,"attributes":{"POSITION":0,"NORMAL":1,"TEXCOORD_0":2,"TEXCOORD_1":3,"TANGENT":4},"mode":4}]}],"accessors":[{"bufferView":0,"componentType":5126,"count":42,"type":"VEC3","min":[-3.0517578125e-7,-0.0046573343873023984,-0.02505436897277832],"max":[0.1239996337890625,0.051093530654907224,0.10006390571594238]},{"bufferView":1,"componentType":5126,"count":42,"type":"VEC3"},{"bufferView":2,"componentType":5126,"count":42,"type":"VEC2"},{"bufferView":3,"componentType":5126,"count":42,"type":"VEC2"},{"bufferView":4,"componentType":5126,"count":42,"type":"VEC4"},{"bufferView":5,"componentType":5123,"count":96,"type":"SCALAR"}],"bufferViews":[{"buffer":0,"byteOffset":0,"byteLength":504},{"buffer":0,"byteOffset":504,"byteLength":504},{"buffer":0,"byteOffset":1008,"byteLength":336},{"buffer":0,"byteOffset":1344,"byteLength":336},{"buffer":0,"byteOffset":1680,"byteLength":672},{"buffer":0,"byteOffset":2352,"byteLength":192}],"buffers":[{"byteLength":2544,"uri":"data:application/octet-stream;base64,"}]}
