{"asset":{"generator":"Khronos glTF Blender I/O v1.2.75","version":"2.0"},"scene":0,"scenes":[{"name":"Scene","nodes":[0]}],"nodes":[{"mesh":0,"name":"Mesh"}],"meshes":[{"name":"SM_Cable_Corn","primitives":[{"indices":5,"attributes":{"POSITION":0,"NORMAL":1,"TEXCOORD_0":2,"TEXCOORD_1":3,"TANGENT":4},"mode":4}]}],"accessors":[{"bufferView":0,"componentType":5126,"count":74,"type":"VEC3","min":[-3.0517578125e-7,-0.0046573343873023984,-0.02505436897277832],"max":[0.1239996337890625,0.051093530654907224,0.10006390571594238]},{"bufferView":1,"componentType":5126,"count":74,"type":"VEC3"},{"bufferView":2,"componentType":5126,"count":74,"type":"VEC2"},{"bufferView":3,"componentType":5126,"count":74,"type":"VEC2"},{"bufferView":4,"componentType":5126,"count":74,"type":"VEC4"},{"bufferView":5,"componentType":5123,"count":186,"type":"SCALAR"}],"bufferViews":[{"buffer":0,"byteOffset":0,"byteLength":888},{"buffer":0,"byteOffset":888,"byteLength":888},{"buffer":0,"byteOffset":1776,"byteLength":592},{"buffer":0,"byteOffset":2368,"byteLength":592},{"buffer":0,"byteOffset":2960,"byteLength":1184},{"buffer":0,"byteOffset":4144,"byteLength":372}],"buffers":[{"byteLength":4516,"uri":"data:application/octet-stream;base64,"}]}
