{"asset":{"generator":"Khronos glTF Blender I/O v1.2.75","version":"2.0"},"scene":0,"scenes":[{"name":"Scene","nodes":[0]}],"nodes":[{"mesh":0,"name":"Mesh"}],"meshes":[{"name":"SM_Building13_07","primitives":[{"indices":5,"attributes":{"POSITION":0,"NORMAL":1,"TEXCOORD_0":2,"TEXCOORD_1":3,"TANGENT":4},"mode":4},{"indices":11,"attributes":{"POSITION":6,"NORMAL":7,"TEXCOORD_0":8,"TEXCOORD_1":9,"TANGENT":10},"mode":4}]}],"accessors":[{"bufferView":0,"componentType":5126,"count":3597,"type":"VEC3","min":[-33.0000048828125,-0.0916813850402832,-38.900009765625],"max":[3.712921447753906,30.8259765625,0.0000048828125]},{"bufferView":1,"componentType":5126,"count":3597,"type":"VEC3"},{"bufferView":2,"componentType":5126,"count":3597,"type":"VEC2"},{"bufferView":3,"componentType":5126,"count":3597,"type":"VEC2"},{"bufferView":4,"componentType":5126,"count":3597,"type":"VEC4"},{"bufferView":5,"componentType":5123,"count":5901,"type":"SCALAR"},{"bufferView":6,"componentType":5126,"count":24,"type":"VEC3","min":[-33.0000048828125,-0.0916813850402832,-38.900009765625],"max":[3.712921447753906,30.8259765625,0.0000048828125]},{"bufferView":7,"componentType":5126,"count":24,"type":"VEC3"},{"bufferView":8,"componentType":5126,"count":24,"type":"VEC2"},{"bufferView":9,"componentType":5126,"count":24,"type":"VEC2"},{"bufferView":10,"componentType":5126,"count":24,"type":"VEC4"},{"bufferView":11,"componentType":5123,"count":36,"type":"SCALAR"}],"bufferViews":[{"buffer":0,"byteOffset":0,"byteLength":43164},{"buffer":0,"byteOffset":43164,"byteLength":43164},{"buffer":0,"byteOffset":86328,"byteLength":28776},{"buffer":0,"byteOffset":115104,"byteLength":28776},{"buffer":0,"byteOffset":143880,"byteLength":57552},{"buffer":0,"byteOffset":201432,"byteLength":11802},{"buffer":1,"byteOffset":0,"byteLength":288},{"buffer":1,"byteOffset":288,"byteLength":288},{"buffer":1,"byteOffset":576,"byteLength":192},{"buffer":1,"byteOffset":768,"byteLength":192},{"buffer":1,"byteOffset":960,"byteLength":384},{"buffer":1,"byteOffset":1344,"byteLength":72}],"buffers":[{"byteLength":213234,"uri":"data:application/octet-stream;base64,"},{"byteLength":1416,"uri":"data:application/octet-stream;base64,"}]}
