{"asset":{"generator":"Khronos glTF Blender I/O v1.2.75","version":"2.0"},"scene":0,"scenes":[{"name":"Scene","nodes":[0]}],"nodes":[{"mesh":0,"name":"Mesh"}],"meshes":[{"name":"SM_AirPlatformMerged01","primitives":[{"indices":5,"attributes":{"POSITION":0,"NORMAL":1,"TEXCOORD_0":2,"TEXCOORD_1":3,"TANGENT":4},"mode":4}]}],"accessors":[{"bufferView":0,"componentType":5126,"count":10723,"type":"VEC3","min":[-2.3537942504882814,-51.0744677734375,-0.8727449035644531],"max":[2.3545790100097657,3.804437255859375,0.01856631278991699]},{"bufferView":1,"componentType":5126,"count":10723,"type":"VEC3"},{"bufferView":2,"componentType":5126,"count":10723,"type":"VEC2"},{"bufferView":3,"componentType":5126,"count":10723,"type":"VEC2"},{"bufferView":4,"componentType":5126,"count":10723,"type":"VEC4"},{"bufferView":5,"componentType":5123,"count":17496,"type":"SCALAR"}],"bufferViews":[{"buffer":0,"byteOffset":0,"byteLength":128676},{"buffer":0,"byteOffset":128676,"byteLength":128676},{"buffer":0,"byteOffset":257352,"byteLength":85784},{"buffer":0,"byteOffset":343136,"byteLength":85784},{"buffer":0,"byteOffset":428920,"byteLength":171568},{"buffer":0,"byteOffset":600488,"byteLength":34992}],"buffers":[{"byteLength":635480,"uri":"data:application/octet-stream;base64,"}]}
