{"asset":{"generator":"Khronos glTF Blender I/O v1.2.75","version":"2.0"},"scene":0,"scenes":[{"name":"Scene","nodes":[0]}],"nodes":[{"mesh":0,"name":"Mesh"}],"meshes":[{"name":"SM_MetalBeam02","primitives":[{"indices":6,"attributes":{"POSITION":0,"NORMAL":1,"COLOR_0":2,"TEXCOORD_0":3,"TEXCOORD_1":4,"TANGENT":5},"mode":4}]}],"accessors":[{"bufferView":0,"componentType":5126,"count":764,"type":"VEC3","min":[-5.000001831054687,-5.0000003051757815,-0.11574634552001953],"max":[5.000001220703125,4.9999996948242185,0.11574630737304688]},{"bufferView":1,"componentType":5126,"count":764,"type":"VEC3"},{"bufferView":2,"componentType":5126,"count":764,"type":"VEC4"},{"bufferView":3,"componentType":5126,"count":764,"type":"VEC2"},{"bufferView":4,"componentType":5126,"count":764,"type":"VEC2"},{"bufferView":5,"componentType":5126,"count":764,"type":"VEC4"},{"bufferView":6,"componentType":5123,"count":1668,"type":"SCALAR"}],"bufferViews":[{"buffer":0,"byteOffset":0,"byteLength":9168},{"buffer":0,"byteOffset":9168,"byteLength":9168},{"buffer":0,"byteOffset":18336,"byteLength":12224},{"buffer":0,"byteOffset":30560,"byteLength":6112},{"buffer":0,"byteOffset":36672,"byteLength":6112},{"buffer":0,"byteOffset":42784,"byteLength":12224},{"buffer":0,"byteOffset":55008,"byteLength":3336}],"buffers":[{"byteLength":58344,"uri":"data:application/octet-stream;base64,"}]}
