{"asset":{"generator":"Khronos glTF Blender I/O v1.2.75","version":"2.0"},"scene":0,"scenes":[{"name":"Scene","nodes":[0]}],"nodes":[{"mesh":0,"name":"Mesh"}],"meshes":[{"name":"SM_MetalBeam16","primitives":[{"indices":6,"attributes":{"POSITION":0,"NORMAL":1,"COLOR_0":2,"TEXCOORD_0":3,"TEXCOORD_1":4,"TANGENT":5},"mode":4}]}],"accessors":[{"bufferView":0,"componentType":5126,"count":276,"type":"VEC3","min":[-0.5630200576782226,2.86102294921875e-8,-0.5567494201660156],"max":[0.56302001953125,16,0.556749382019043]},{"bufferView":1,"componentType":5126,"count":276,"type":"VEC3"},{"bufferView":2,"componentType":5126,"count":276,"type":"VEC4"},{"bufferView":3,"componentType":5126,"count":276,"type":"VEC2"},{"bufferView":4,"componentType":5126,"count":276,"type":"VEC2"},{"bufferView":5,"componentType":5126,"count":276,"type":"VEC4"},{"bufferView":6,"componentType":5123,"count":960,"type":"SCALAR"}],"bufferViews":[{"buffer":0,"byteOffset":0,"byteLength":3312},{"buffer":0,"byteOffset":3312,"byteLength":3312},{"buffer":0,"byteOffset":6624,"byteLength":4416},{"buffer":0,"byteOffset":11040,"byteLength":2208},{"buffer":0,"byteOffset":13248,"byteLength":2208},{"buffer":0,"byteOffset":15456,"byteLength":4416},{"buffer":0,"byteOffset":19872,"byteLength":1920}],"buffers":[{"byteLength":21792,"uri":"data:application/octet-stream;base64,"}]}
