{"asset":{"generator":"Khronos glTF Blender I/O v1.2.75","version":"2.0"},"scene":0,"scenes":[{"name":"Scene","nodes":[0]}],"nodes":[{"mesh":0,"name":"Mesh"}],"meshes":[{"name":"SM_CornerBuilding01_08","primitives":[{"indices":5,"attributes":{"POSITION":0,"NORMAL":1,"TEXCOORD_0":2,"TEXCOORD_1":3,"TANGENT":4},"mode":4}]}],"accessors":[{"bufferView":0,"componentType":5126,"count":38,"type":"VEC3","min":[-0.056599998474121095,-0.5737637329101563,-0.05660049438476562],"max":[0.056599998474121095,0.05660064697265625,0.5472190856933594]},{"bufferView":1,"componentType":5126,"count":38,"type":"VEC3"},{"bufferView":2,"componentType":5126,"count":38,"type":"VEC2"},{"bufferView":3,"componentType":5126,"count":38,"type":"VEC2"},{"bufferView":4,"componentType":5126,"count":38,"type":"VEC4"},{"bufferView":5,"componentType":5123,"count":132,"type":"SCALAR"}],"bufferViews":[{"buffer":0,"byteOffset":0,"byteLength":456},{"buffer":0,"byteOffset":456,"byteLength":456},{"buffer":0,"byteOffset":912,"byteLength":304},{"buffer":0,"byteOffset":1216,"byteLength":304},{"buffer":0,"byteOffset":1520,"byteLength":608},{"buffer":0,"byteOffset":2128,"byteLength":264}],"buffers":[{"byteLength":2392,"uri":"data:application/octet-stream;base64,"}]}
