{"asset":{"generator":"Khronos glTF Blender I/O v1.2.75","version":"2.0"},"scene":0,"scenes":[{"name":"Scene","nodes":[0]}],"nodes":[{"mesh":0,"name":"Mesh"}],"meshes":[{"name":"SM_Building12_06","primitives":[{"indices":5,"attributes":{"POSITION":0,"NORMAL":1,"TEXCOORD_0":2,"TEXCOORD_1":3,"TANGENT":4},"mode":4}]}],"accessors":[{"bufferView":0,"componentType":5126,"count":7924,"type":"VEC3","min":[-20.34,0,-22.276904296875],"max":[5.647576472256332e-7,12,4.66684326171875]},{"bufferView":1,"componentType":5126,"count":7924,"type":"VEC3"},{"bufferView":2,"componentType":5126,"count":7924,"type":"VEC2"},{"bufferView":3,"componentType":5126,"count":7924,"type":"VEC2"},{"bufferView":4,"componentType":5126,"count":7924,"type":"VEC4"},{"bufferView":5,"componentType":5123,"count":16704,"type":"SCALAR"}],"bufferViews":[{"buffer":0,"byteOffset":0,"byteLength":95088},{"buffer":0,"byteOffset":95088,"byteLength":95088},{"buffer":0,"byteOffset":190176,"byteLength":63392},{"buffer":0,"byteOffset":253568,"byteLength":63392},{"buffer":0,"byteOffset":316960,"byteLength":126784},{"buffer":0,"byteOffset":443744,"byteLength":33408}],"buffers":[{"byteLength":477152,"uri":"data:application/octet-stream;base64,"}]}
