{"asset":{"generator":"Khronos glTF Blender I/O v1.2.75","version":"2.0"},"scene":0,"scenes":[{"name":"Scene","nodes":[0]}],"nodes":[{"mesh":0,"name":"Mesh"}],"meshes":[{"name":"SM_Building07","primitives":[{"indices":5,"attributes":{"POSITION":0,"NORMAL":1,"TEXCOORD_0":2,"TEXCOORD_1":3,"TANGENT":4},"mode":4}]}],"accessors":[{"bufferView":0,"componentType":5126,"count":210,"type":"VEC3","min":[-0.35320011138916013,9.706687706056983e-7,-17.000001220703126],"max":[0.07354249477386475,19.64285400390625,-0.0000010364662011852487]},{"bufferView":1,"componentType":5126,"count":210,"type":"VEC3"},{"bufferView":2,"componentType":5126,"count":210,"type":"VEC2"},{"bufferView":3,"componentType":5126,"count":210,"type":"VEC2"},{"bufferView":4,"componentType":5126,"count":210,"type":"VEC4"},{"bufferView":5,"componentType":5123,"count":366,"type":"SCALAR"}],"bufferViews":[{"buffer":0,"byteOffset":0,"byteLength":2520},{"buffer":0,"byteOffset":2520,"byteLength":2520},{"buffer":0,"byteOffset":5040,"byteLength":1680},{"buffer":0,"byteOffset":6720,"byteLength":1680},{"buffer":0,"byteOffset":8400,"byteLength":3360},{"buffer":0,"byteOffset":11760,"byteLength":732}],"buffers":[{"byteLength":12492,"uri":"data:application/octet-stream;base64,"}]}
