{"asset":{"generator":"Khronos glTF Blender I/O v1.2.75","version":"2.0"},"scene":0,"scenes":[{"name":"Scene","nodes":[0]}],"nodes":[{"mesh":0,"name":"Mesh"}],"meshes":[{"name":"SM_Building07","primitives":[{"indices":5,"attributes":{"POSITION":0,"NORMAL":1,"TEXCOORD_0":2,"TEXCOORD_1":3,"TANGENT":4},"mode":4}]}],"accessors":[{"bufferView":0,"componentType":5126,"count":476,"type":"VEC3","min":[-0.35320011138916013,9.706687706056983e-7,-17.000001220703126],"max":[0.07354249477386475,19.64285400390625,-0.0000010364662011852487]},{"bufferView":1,"componentType":5126,"count":476,"type":"VEC3"},{"bufferView":2,"componentType":5126,"count":476,"type":"VEC2"},{"bufferView":3,"componentType":5126,"count":476,"type":"VEC2"},{"bufferView":4,"componentType":5126,"count":476,"type":"VEC4"},{"bufferView":5,"componentType":5123,"count":738,"type":"SCALAR"}],"bufferViews":[{"buffer":0,"byteOffset":0,"byteLength":5712},{"buffer":0,"byteOffset":5712,"byteLength":5712},{"buffer":0,"byteOffset":11424,"byteLength":3808},{"buffer":0,"byteOffset":15232,"byteLength":3808},{"buffer":0,"byteOffset":19040,"byteLength":7616},{"buffer":0,"byteOffset":26656,"byteLength":1476}],"buffers":[{"byteLength":28132,"uri":"data:application/octet-stream;base64,"}]}
