{"asset":{"generator":"Khronos glTF Blender I/O v1.2.75","version":"2.0"},"scene":0,"scenes":[{"name":"Scene","nodes":[0]}],"nodes":[{"mesh":0,"name":"Mesh"}],"meshes":[{"name":"SM_HangingCable02","primitives":[{"indices":5,"attributes":{"POSITION":0,"NORMAL":1,"TEXCOORD_0":2,"TEXCOORD_1":3,"TANGENT":4},"mode":4}]}],"accessors":[{"bufferView":0,"componentType":5126,"count":421,"type":"VEC3","min":[-0.017052001953125,-2.3769522094726563,-0.02851869583129883],"max":[10.824068603515625,-0.0205706787109375,0.028518316745758058]},{"bufferView":1,"componentType":5126,"count":421,"type":"VEC3"},{"bufferView":2,"componentType":5126,"count":421,"type":"VEC2"},{"bufferView":3,"componentType":5126,"count":421,"type":"VEC2"},{"bufferView":4,"componentType":5126,"count":421,"type":"VEC4"},{"bufferView":5,"componentType":5123,"count":2148,"type":"SCALAR"}],"bufferViews":[{"buffer":0,"byteOffset":0,"byteLength":5052},{"buffer":0,"byteOffset":5052,"byteLength":5052},{"buffer":0,"byteOffset":10104,"byteLength":3368},{"buffer":0,"byteOffset":13472,"byteLength":3368},{"buffer":0,"byteOffset":16840,"byteLength":6736},{"buffer":0,"byteOffset":23576,"byteLength":4296}],"buffers":[{"byteLength":27872,"uri":"data:application/octet-stream;base64,"}]}
