{"asset":{"generator":"Khronos glTF Blender I/O v1.2.75","version":"2.0"},"scene":0,"scenes":[{"name":"Scene","nodes":[0]}],"nodes":[{"mesh":0,"name":"Mesh"}],"meshes":[{"name":"SM_Building13_03","primitives":[{"indices":5,"attributes":{"POSITION":0,"NORMAL":1,"TEXCOORD_0":2,"TEXCOORD_1":3,"TANGENT":4},"mode":4}]}],"accessors":[{"bufferView":0,"componentType":5126,"count":156,"type":"VEC3","min":[-0.000009765625,6.103515625e-7,-1.764410400390625],"max":[9.999989624023437,10.000003051757812,0.000008544921875]},{"bufferView":1,"componentType":5126,"count":156,"type":"VEC3"},{"bufferView":2,"componentType":5126,"count":156,"type":"VEC2"},{"bufferView":3,"componentType":5126,"count":156,"type":"VEC2"},{"bufferView":4,"componentType":5126,"count":156,"type":"VEC4"},{"bufferView":5,"componentType":5123,"count":300,"type":"SCALAR"}],"bufferViews":[{"buffer":0,"byteOffset":0,"byteLength":1872},{"buffer":0,"byteOffset":1872,"byteLength":1872},{"buffer":0,"byteOffset":3744,"byteLength":1248},{"buffer":0,"byteOffset":4992,"byteLength":1248},{"buffer":0,"byteOffset":6240,"byteLength":2496},{"buffer":0,"byteOffset":8736,"byteLength":600}],"buffers":[{"byteLength":9336,"uri":"data:application/octet-stream;base64,"}]}
