{"asset":{"generator":"Khronos glTF Blender I/O v1.2.75","version":"2.0"},"scene":0,"scenes":[{"name":"Scene","nodes":[0]}],"nodes":[{"mesh":0,"name":"Mesh"}],"meshes":[{"name":"CyberGas","primitives":[{"indices":5,"attributes":{"POSITION":0,"NORMAL":1,"TEXCOORD_0":2,"TEXCOORD_1":3,"TANGENT":4},"mode":4}]}],"accessors":[{"bufferView":0,"componentType":5126,"count":615,"type":"VEC3","min":[-0.8264527893066407,-0.5955289840698242,-0.04741560935974121],"max":[0,0.595461082458496,0.06154296875]},{"bufferView":1,"componentType":5126,"count":615,"type":"VEC3"},{"bufferView":2,"componentType":5126,"count":615,"type":"VEC2"},{"bufferView":3,"componentType":5126,"count":615,"type":"VEC2"},{"bufferView":4,"componentType":5126,"count":615,"type":"VEC4"},{"bufferView":5,"componentType":5123,"count":1266,"type":"SCALAR"}],"bufferViews":[{"buffer":0,"byteOffset":0,"byteLength":7380},{"buffer":0,"byteOffset":7380,"byteLength":7380},{"buffer":0,"byteOffset":14760,"byteLength":4920},{"buffer":0,"byteOffset":19680,"byteLength":4920},{"buffer":0,"byteOffset":24600,"byteLength":9840},{"buffer":0,"byteOffset":34440,"byteLength":2532}],"buffers":[{"byteLength":36972,"uri":"data:application/octet-stream;base64,"}]}
