{"asset":{"generator":"Khronos glTF Blender I/O v1.2.75","version":"2.0"},"scene":0,"scenes":[{"name":"Scene","nodes":[0]}],"nodes":[{"mesh":0,"name":"Mesh"}],"meshes":[{"name":"SM_PipeMerged08","primitives":[{"indices":5,"attributes":{"POSITION":0,"NORMAL":1,"TEXCOORD_0":2,"TEXCOORD_1":3,"TANGENT":4},"mode":4}]}],"accessors":[{"bufferView":0,"componentType":5126,"count":7924,"type":"VEC3","min":[-0.0437744140625,-2.3001142883300782,-0.737425537109375],"max":[0.41726318359375,2.1501144409179687,5.750028686523438]},{"bufferView":1,"componentType":5126,"count":7924,"type":"VEC3"},{"bufferView":2,"componentType":5126,"count":7924,"type":"VEC2"},{"bufferView":3,"componentType":5126,"count":7924,"type":"VEC2"},{"bufferView":4,"componentType":5126,"count":7924,"type":"VEC4"},{"bufferView":5,"componentType":5123,"count":23826,"type":"SCALAR"}],"bufferViews":[{"buffer":0,"byteOffset":0,"byteLength":95088},{"buffer":0,"byteOffset":95088,"byteLength":95088},{"buffer":0,"byteOffset":190176,"byteLength":63392},{"buffer":0,"byteOffset":253568,"byteLength":63392},{"buffer":0,"byteOffset":316960,"byteLength":126784},{"buffer":0,"byteOffset":443744,"byteLength":47652}],"buffers":[{"byteLength":491396,"uri":"data:application/octet-stream;base64,"}]}
