{"asset":{"generator":"Khronos glTF Blender I/O v1.2.75","version":"2.0"},"scene":0,"scenes":[{"name":"Scene","nodes":[0]}],"nodes":[{"mesh":0,"name":"Mesh"}],"meshes":[{"name":"SM_PipeMerged08","primitives":[{"indices":5,"attributes":{"POSITION":0,"NORMAL":1,"TEXCOORD_0":2,"TEXCOORD_1":3,"TANGENT":4},"mode":4}]}],"accessors":[{"bufferView":0,"componentType":5126,"count":1351,"type":"VEC3","min":[-0.0437744140625,-2.3001142883300782,-0.737425537109375],"max":[0.41726318359375,2.1501144409179687,5.750028686523438]},{"bufferView":1,"componentType":5126,"count":1351,"type":"VEC3"},{"bufferView":2,"componentType":5126,"count":1351,"type":"VEC2"},{"bufferView":3,"componentType":5126,"count":1351,"type":"VEC2"},{"bufferView":4,"componentType":5126,"count":1351,"type":"VEC4"},{"bufferView":5,"componentType":5123,"count":2382,"type":"SCALAR"}],"bufferViews":[{"buffer":0,"byteOffset":0,"byteLength":16212},{"buffer":0,"byteOffset":16212,"byteLength":16212},{"buffer":0,"byteOffset":32424,"byteLength":10808},{"buffer":0,"byteOffset":43232,"byteLength":10808},{"buffer":0,"byteOffset":54040,"byteLength":21616},{"buffer":0,"byteOffset":75656,"byteLength":4764}],"buffers":[{"byteLength":80420,"uri":"data:application/octet-stream;base64,"}]}
