{"asset":{"generator":"Khronos glTF Blender I/O v1.2.75","version":"2.0"},"scene":0,"scenes":[{"name":"Scene","nodes":[0]}],"nodes":[{"mesh":0,"name":"Mesh"}],"meshes":[{"name":"SM_GroundDetail03","primitives":[{"indices":5,"attributes":{"POSITION":0,"NORMAL":1,"TEXCOORD_0":2,"TEXCOORD_1":3,"TANGENT":4},"mode":4}]}],"accessors":[{"bufferView":0,"componentType":5126,"count":101,"type":"VEC3","min":[-0.9511248779296875,-3.337860107421875e-8,-0.95210693359375],"max":[0.9511245727539063,0.0914272689819336,0.952109375]},{"bufferView":1,"componentType":5126,"count":101,"type":"VEC3"},{"bufferView":2,"componentType":5126,"count":101,"type":"VEC2"},{"bufferView":3,"componentType":5126,"count":101,"type":"VEC2"},{"bufferView":4,"componentType":5126,"count":101,"type":"VEC4"},{"bufferView":5,"componentType":5123,"count":291,"type":"SCALAR"}],"bufferViews":[{"buffer":0,"byteOffset":0,"byteLength":1212},{"buffer":0,"byteOffset":1212,"byteLength":1212},{"buffer":0,"byteOffset":2424,"byteLength":808},{"buffer":0,"byteOffset":3232,"byteLength":808},{"buffer":0,"byteOffset":4040,"byteLength":1616},{"buffer":0,"byteOffset":5656,"byteLength":582}],"buffers":[{"byteLength":6238,"uri":"data:application/octet-stream;base64,"}]}
