{"asset":{"generator":"Khronos glTF Blender I/O v1.2.75","version":"2.0"},"scene":0,"scenes":[{"name":"Scene","nodes":[0]}],"nodes":[{"mesh":0,"name":"Mesh"}],"meshes":[{"name":"SM_BaseCorner","primitives":[{"indices":5,"attributes":{"POSITION":0,"NORMAL":1,"TEXCOORD_0":2,"TEXCOORD_1":3,"TANGENT":4},"mode":4}]}],"accessors":[{"bufferView":0,"componentType":5126,"count":24,"type":"VEC3","min":[0,-0.002372865676879883,-5],"max":[5.608861083984375,5.22447021484375,0.4022610855102539]},{"bufferView":1,"componentType":5126,"count":24,"type":"VEC3"},{"bufferView":2,"componentType":5126,"count":24,"type":"VEC2"},{"bufferView":3,"componentType":5126,"count":24,"type":"VEC2"},{"bufferView":4,"componentType":5126,"count":24,"type":"VEC4"},{"bufferView":5,"componentType":5123,"count":51,"type":"SCALAR"}],"bufferViews":[{"buffer":0,"byteOffset":0,"byteLength":288},{"buffer":0,"byteOffset":288,"byteLength":288},{"buffer":0,"byteOffset":576,"byteLength":192},{"buffer":0,"byteOffset":768,"byteLength":192},{"buffer":0,"byteOffset":960,"byteLength":384},{"buffer":0,"byteOffset":1344,"byteLength":102}],"buffers":[{"byteLength":1446,"uri":"data:application/octet-stream;base64,"}]}
