{
    "asset" : {
        "generator" : "Khronos glTF Blender I/O v3.5.5",
        "version" : "2.0"
    },
    "scene" : 0,
    "scenes" : [
        {
            "name" : "Scene",
            "nodes" : [
                2
            ]
        }
    ],
    "nodes" : [
        {
            "mesh" : 0,
            "name" : "handgun_1_body",
            "rotation" : [
                -0.004900572821497917,
                -0.7042747139930725,
                -0.7099065184593201,
                0.0024138109292834997
            ],
            "scale" : [
                0.024692051112651825,
                0.024692051112651825,
                0.024692054837942123
            ],
            "translation" : [
                0,
                0.005845353938639164,
                0.021208293735980988
            ]
        },
        {
            "mesh" : 1,
            "name" : "handgun_1_energy",
            "rotation" : [
                -0.004900572821497917,
                -0.7042747139930725,
                -0.7099065184593201,
                0.0024138109292834997
            ],
            "scale" : [
                0.024692051112651825,
                0.024692051112651825,
                0.024692054837942123
            ],
            "translation" : [
                0,
                0.005845353938639164,
                0.021208293735980988
            ]
        },
        {
            "children" : [
                0,
                1
            ],
            "name" : "obj_handgun_1_cc"
        }
    ],
    "materials" : [
        {
            "alphaMode" : "BLEND",
            "doubleSided" : true,
            "emissiveFactor" : [
                1,
                1,
                1
            ],
            "emissiveTexture" : {
                "index" : 0
            },
            "name" : "WaterGun",
            "normalTexture" : {
                "index" : 2
            },
            "occlusionTexture" : {
                "index" : 3,
                "strength" : 0.2947879731655121
            },
            "pbrMetallicRoughness" : {
                "baseColorTexture" : {
                    "index" : 4
                },
                "metallicRoughnessTexture" : {
                    "index" : 3
                }
            }
        },
        {
            "doubleSided" : true,
            "emissiveFactor" : [
                1,
                1,
                1
            ],
            "emissiveTexture" : {
                "index" : 5
            },
            "name" : "Energy",
            "normalTexture" : {
                "index" : 6
            },
            "occlusionTexture" : {
                "index" : 7,
                "strength" : 0.30000001192092896
            },
            "pbrMetallicRoughness" : {
                "baseColorTexture" : {
                    "index" : 8
                },
                "metallicRoughnessTexture" : {
                    "index" : 7
                }
            }
        }
    ],
    "meshes" : [
        {
            "name" : "mesh_handgun_1_body",
            "primitives" : [
                {
                    "attributes" : {
                        "POSITION" : 0,
                        "TEXCOORD_0" : 1,
                        "NORMAL" : 2
                    },
                    "indices" : 3,
                    "material" : 0
                }
            ]
        },
        {
            "name" : "mesh_handgun_1_energy",
            "primitives" : [
                {
                    "attributes" : {
                        "POSITION" : 4,
                        "TEXCOORD_0" : 5,
                        "NORMAL" : 6
                    },
                    "indices" : 7,
                    "material" : 1
                }
            ]
        }
    ],
    "textures" : [
        {
            "sampler" : 0,
            "source" : 0
        },
        {
            "sampler" : 0,
            "source" : 1
        },
        {
            "sampler" : 0,
            "source" : 2
        },
        {
            "sampler" : 0,
            "source" : 3
        },
        {
            "sampler" : 0,
            "source" : 4
        },
        {
            "sampler" : 0,
            "source" : 5
        },
        {
            "sampler" : 0,
            "source" : 6
        },
        {
            "sampler" : 0,
            "source" : 7
        },
        {
            "sampler" : 0,
            "source" : 8
        }
    ],
    "images" : [
        {
            "mimeType" : "image/png",
            "name" : "WaterGun_emissive",
            "uri" : "WaterGun_emissive.png"
        },
        {
            "mimeType" : "image/png",
            "name" : "WaterGun_transmission",
            "uri" : "WaterGun_transmission.png"
        },
        {
            "mimeType" : "image/png",
            "name" : "WaterGun_normal",
            "uri" : "WaterGun_normal.png"
        },
        {
            "mimeType" : "image/png",
            "name" : "WaterGun_metallicRoughness",
            "uri" : "WaterGun_metallicRoughness.png"
        },
        {
            "mimeType" : "image/png",
            "name" : "WaterGun_baseColor",
            "uri" : "WaterGun_baseColor.png"
        },
        {
            "mimeType" : "image/png",
            "name" : "Energy_emissive",
            "uri" : "Energy_emissive.png"
        },
        {
            "mimeType" : "image/png",
            "name" : "Energy_normal",
            "uri" : "Energy_normal.png"
        },
        {
            "mimeType" : "image/png",
            "name" : "Energy_metallicRoughness",
            "uri" : "Energy_metallicRoughness.png"
        },
        {
            "mimeType" : "image/png",
            "name" : "Energy_baseColor",
            "uri" : "Energy_baseColor.png"
        }
    ],
    "accessors" : [
        {
            "bufferView" : 0,
            "componentType" : 5126,
            "count" : 6256,
            "max" : [
                0.7552308440208435,
                6.34466552734375,
                3.1091065406799316
            ],
            "min" : [
                -0.7552308440208435,
                -4.593568325042725,
                -4.201797008514404
            ],
            "type" : "VEC3"
        },
        {
            "bufferView" : 1,
            "componentType" : 5126,
            "count" : 6256,
            "type" : "VEC2"
        },
        {
            "bufferView" : 2,
            "componentType" : 5126,
            "count" : 6256,
            "type" : "VEC3"
        },
        {
            "bufferView" : 3,
            "componentType" : 5123,
            "count" : 16182,
            "type" : "SCALAR"
        },
        {
            "bufferView" : 4,
            "componentType" : 5126,
            "count" : 1282,
            "max" : [
                0.6117329001426697,
                1.4275155067443848,
                2.9994306564331055
            ],
            "min" : [
                -0.6117329001426697,
                -4.3326311111450195,
                -3.9909348487854004
            ],
            "type" : "VEC3"
        },
        {
            "bufferView" : 5,
            "componentType" : 5126,
            "count" : 1282,
            "type" : "VEC2"
        },
        {
            "bufferView" : 6,
            "componentType" : 5126,
            "count" : 1282,
            "type" : "VEC3"
        },
        {
            "bufferView" : 7,
            "componentType" : 5123,
            "count" : 4884,
            "type" : "SCALAR"
        }
    ],
    "bufferViews" : [
        {
            "buffer" : 0,
            "byteLength" : 75072,
            "byteOffset" : 0,
            "target" : 34962
        },
        {
            "buffer" : 0,
            "byteLength" : 50048,
            "byteOffset" : 75072,
            "target" : 34962
        },
        {
            "buffer" : 0,
            "byteLength" : 75072,
            "byteOffset" : 125120,
            "target" : 34962
        },
        {
            "buffer" : 0,
            "byteLength" : 32364,
            "byteOffset" : 200192,
            "target" : 34963
        },
        {
            "buffer" : 0,
            "byteLength" : 15384,
            "byteOffset" : 232556,
            "target" : 34962
        },
        {
            "buffer" : 0,
            "byteLength" : 10256,
            "byteOffset" : 247940,
            "target" : 34962
        },
        {
            "buffer" : 0,
            "byteLength" : 15384,
            "byteOffset" : 258196,
            "target" : 34962
        },
        {
            "buffer" : 0,
            "byteLength" : 9768,
            "byteOffset" : 273580,
            "target" : 34963
        }
    ],
    "samplers" : [
        {
            "magFilter" : 9729,
            "minFilter" : 9987
        }
    ],
    "buffers" : [
        {
            "byteLength" : 283348,
            "uri" : "handgun_1.bin"
        }
    ]
}
