{"asset":{"generator":"Khronos glTF Blender I/O v1.2.75","version":"2.0"},"scene":0,"scenes":[{"name":"Scene","nodes":[0]}],"nodes":[{"mesh":0,"name":"Mesh"}],"meshes":[{"name":"SM_MetalBeam13","primitives":[{"indices":6,"attributes":{"POSITION":0,"NORMAL":1,"COLOR_0":2,"TEXCOORD_0":3,"TEXCOORD_1":4,"TANGENT":5},"mode":4}]}],"accessors":[{"bufferView":0,"componentType":5126,"count":172,"type":"VEC3","min":[-0.5224078369140625,-1.0596405029296876,-3.814697265625e-8],"max":[0.5224078369140625,0,0.7069744873046875]},{"bufferView":1,"componentType":5126,"count":172,"type":"VEC3"},{"bufferView":2,"componentType":5126,"count":172,"type":"VEC4"},{"bufferView":3,"componentType":5126,"count":172,"type":"VEC2"},{"bufferView":4,"componentType":5126,"count":172,"type":"VEC2"},{"bufferView":5,"componentType":5126,"count":172,"type":"VEC4"},{"bufferView":6,"componentType":5123,"count":504,"type":"SCALAR"}],"bufferViews":[{"buffer":0,"byteOffset":0,"byteLength":2064},{"buffer":0,"byteOffset":2064,"byteLength":2064},{"buffer":0,"byteOffset":4128,"byteLength":2752},{"buffer":0,"byteOffset":6880,"byteLength":1376},{"buffer":0,"byteOffset":8256,"byteLength":1376},{"buffer":0,"byteOffset":9632,"byteLength":2752},{"buffer":0,"byteOffset":12384,"byteLength":1008}],"buffers":[{"byteLength":13392,"uri":"data:application/octet-stream;base64,"}]}
