{"asset":{"generator":"Khronos glTF Blender I/O v1.2.75","version":"2.0"},"scene":0,"scenes":[{"name":"Scene","nodes":[0]}],"nodes":[{"mesh":0,"name":"Mesh"}],"meshes":[{"name":"SM_PipeGroup32","primitives":[{"indices":5,"attributes":{"POSITION":0,"NORMAL":1,"TEXCOORD_0":2,"TEXCOORD_1":3,"TANGENT":4},"mode":4}]}],"accessors":[{"bufferView":0,"componentType":5126,"count":654,"type":"VEC3","min":[-0.30030038833618167,-0.003419944941997528,-0.5502958297729492],"max":[1.9879139709472655,46.819453125,0.5502704238891601]},{"bufferView":1,"componentType":5126,"count":654,"type":"VEC3"},{"bufferView":2,"componentType":5126,"count":654,"type":"VEC2"},{"bufferView":3,"componentType":5126,"count":654,"type":"VEC2"},{"bufferView":4,"componentType":5126,"count":654,"type":"VEC4"},{"bufferView":5,"componentType":5123,"count":1218,"type":"SCALAR"}],"bufferViews":[{"buffer":0,"byteOffset":0,"byteLength":7848},{"buffer":0,"byteOffset":7848,"byteLength":7848},{"buffer":0,"byteOffset":15696,"byteLength":5232},{"buffer":0,"byteOffset":20928,"byteLength":5232},{"buffer":0,"byteOffset":26160,"byteLength":10464},{"buffer":0,"byteOffset":36624,"byteLength":2436}],"buffers":[{"byteLength":39060,"uri":"data:application/octet-stream;base64,"}]}
