{"asset":{"generator":"Khronos glTF Blender I/O v1.2.75","version":"2.0"},"scene":0,"scenes":[{"name":"Scene","nodes":[0]}],"nodes":[{"mesh":0,"name":"Mesh"}],"meshes":[{"name":"SM_PipeGroup32","primitives":[{"indices":5,"attributes":{"POSITION":0,"NORMAL":1,"TEXCOORD_0":2,"TEXCOORD_1":3,"TANGENT":4},"mode":4}]}],"accessors":[{"bufferView":0,"componentType":5126,"count":2518,"type":"VEC3","min":[-0.30030038833618167,-0.003419944941997528,-0.5502958297729492],"max":[1.9879139709472655,46.819453125,0.5502704238891601]},{"bufferView":1,"componentType":5126,"count":2518,"type":"VEC3"},{"bufferView":2,"componentType":5126,"count":2518,"type":"VEC2"},{"bufferView":3,"componentType":5126,"count":2518,"type":"VEC2"},{"bufferView":4,"componentType":5126,"count":2518,"type":"VEC4"},{"bufferView":5,"componentType":5123,"count":4068,"type":"SCALAR"}],"bufferViews":[{"buffer":0,"byteOffset":0,"byteLength":30216},{"buffer":0,"byteOffset":30216,"byteLength":30216},{"buffer":0,"byteOffset":60432,"byteLength":20144},{"buffer":0,"byteOffset":80576,"byteLength":20144},{"buffer":0,"byteOffset":100720,"byteLength":40288},{"buffer":0,"byteOffset":141008,"byteLength":8136}],"buffers":[{"byteLength":149144,"uri":"data:application/octet-stream;base64,"}]}
