{"asset":{"generator":"Khronos glTF Blender I/O v1.2.75","version":"2.0"},"scene":0,"scenes":[{"name":"Scene","nodes":[0]}],"nodes":[{"mesh":0,"name":"Mesh"}],"meshes":[{"name":"SM_PipeGroup32","primitives":[{"indices":5,"attributes":{"POSITION":0,"NORMAL":1,"TEXCOORD_0":2,"TEXCOORD_1":3,"TANGENT":4},"mode":4}]}],"accessors":[{"bufferView":0,"componentType":5126,"count":3884,"type":"VEC3","min":[-0.30030038833618167,-0.003419944941997528,-0.5502958297729492],"max":[1.9879139709472655,46.819453125,0.5502704238891601]},{"bufferView":1,"componentType":5126,"count":3884,"type":"VEC3"},{"bufferView":2,"componentType":5126,"count":3884,"type":"VEC2"},{"bufferView":3,"componentType":5126,"count":3884,"type":"VEC2"},{"bufferView":4,"componentType":5126,"count":3884,"type":"VEC4"},{"bufferView":5,"componentType":5123,"count":8136,"type":"SCALAR"}],"bufferViews":[{"buffer":0,"byteOffset":0,"byteLength":46608},{"buffer":0,"byteOffset":46608,"byteLength":46608},{"buffer":0,"byteOffset":93216,"byteLength":31072},{"buffer":0,"byteOffset":124288,"byteLength":31072},{"buffer":0,"byteOffset":155360,"byteLength":62144},{"buffer":0,"byteOffset":217504,"byteLength":16272}],"buffers":[{"byteLength":233776,"uri":"data:application/octet-stream;base64,"}]}
