{"asset":{"generator":"Khronos glTF Blender I/O v1.2.75","version":"2.0"},"scene":0,"scenes":[{"name":"Scene","nodes":[0]}],"nodes":[{"mesh":0,"name":"Mesh"}],"meshes":[{"name":"SM_MetalWallPart_08","primitives":[{"indices":6,"attributes":{"POSITION":0,"NORMAL":1,"COLOR_0":2,"TEXCOORD_0":3,"TEXCOORD_1":4,"TANGENT":5},"mode":4},{"indices":13,"attributes":{"POSITION":7,"NORMAL":8,"COLOR_0":9,"TEXCOORD_0":10,"TEXCOORD_1":11,"TANGENT":12},"mode":4},{"indices":20,"attributes":{"POSITION":14,"NORMAL":15,"COLOR_0":16,"TEXCOORD_0":17,"TEXCOORD_1":18,"TANGENT":19},"mode":4}]}],"accessors":[{"bufferView":0,"componentType":5126,"count":58,"type":"VEC3","min":[-0.19450729370117187,-0.03557143449783325,-4.101446533203125],"max":[0.47543983459472655,13.263314208984376,0.031010854244232177]},{"bufferView":1,"componentType":5126,"count":58,"type":"VEC3"},{"bufferView":2,"componentType":5126,"count":1224,"type":"VEC4"},{"bufferView":3,"componentType":5126,"count":58,"type":"VEC2"},{"bufferView":4,"componentType":5126,"count":58,"type":"VEC2"},{"bufferView":5,"componentType":5126,"count":58,"type":"VEC4"},{"bufferView":6,"componentType":5123,"count":72,"type":"SCALAR"},{"bufferView":7,"componentType":5126,"count":86,"type":"VEC3","min":[-0.19450729370117187,-0.03557143449783325,-4.101446533203125],"max":[0.47543983459472655,13.263314208984376,0.031010854244232177]},{"bufferView":8,"componentType":5126,"count":86,"type":"VEC3"},{"bufferView":9,"componentType":5126,"count":1224,"type":"VEC4"},{"bufferView":10,"componentType":5126,"count":86,"type":"VEC2"},{"bufferView":11,"componentType":5126,"count":86,"type":"VEC2"},{"bufferView":12,"componentType":5126,"count":86,"type":"VEC4"},{"bufferView":13,"componentType":5123,"count":102,"type":"SCALAR"},{"bufferView":14,"componentType":5126,"count":1080,"type":"VEC3","min":[-0.19450729370117187,-0.03557143449783325,-4.101446533203125],"max":[0.47543983459472655,13.263314208984376,0.031010854244232177]},{"bufferView":15,"componentType":5126,"count":1080,"type":"VEC3"},{"bufferView":16,"componentType":5126,"count":1224,"type":"VEC4"},{"bufferView":17,"componentType":5126,"count":1080,"type":"VEC2"},{"bufferView":18,"componentType":5126,"count":1080,"type":"VEC2"},{"bufferView":19,"componentType":5126,"count":1080,"type":"VEC4"},{"bufferView":20,"componentType":5123,"count":1362,"type":"SCALAR"}],"bufferViews":[{"buffer":0,"byteOffset":0,"byteLength":696},{"buffer":0,"byteOffset":696,"byteLength":696},{"buffer":0,"byteOffset":1392,"byteLength":19584},{"buffer":0,"byteOffset":20976,"byteLength":464},{"buffer":0,"byteOffset":21440,"byteLength":464},{"buffer":0,"byteOffset":21904,"byteLength":928},{"buffer":0,"byteOffset":22832,"byteLength":144},{"buffer":1,"byteOffset":0,"byteLength":1032},{"buffer":1,"byteOffset":1032,"byteLength":1032},{"buffer":1,"byteOffset":2064,"byteLength":19584},{"buffer":1,"byteOffset":21648,"byteLength":688},{"buffer":1,"byteOffset":22336,"byteLength":688},{"buffer":1,"byteOffset":23024,"byteLength":1376},{"buffer":1,"byteOffset":24400,"byteLength":204},{"buffer":2,"byteOffset":0,"byteLength":12960},{"buffer":2,"byteOffset":12960,"byteLength":12960},{"buffer":2,"byteOffset":25920,"byteLength":19584},{"buffer":2,"byteOffset":45504,"byteLength":8640},{"buffer":2,"byteOffset":54144,"byteLength":8640},{"buffer":2,"byteOffset":62784,"byteLength":17280},{"buffer":2,"byteOffset":80064,"byteLength":2724}],"buffers":[{"byteLength":22976,"uri":"data:application/octet-stream;base64,"},{"byteLength":24604,"uri":"data:application/octet-stream;base64,"},{"byteLength":82788,"uri":"data:application/octet-stream;base64,"}]}
