{"asset":{"generator":"Khronos glTF Blender I/O v1.2.75","version":"2.0"},"scene":0,"scenes":[{"name":"Scene","nodes":[0]}],"nodes":[{"mesh":0,"name":"Mesh"}],"meshes":[{"name":"SM_MetalWallPart_08","primitives":[{"indices":6,"attributes":{"POSITION":0,"NORMAL":1,"COLOR_0":2,"TEXCOORD_0":3,"TEXCOORD_1":4,"TANGENT":5},"mode":4},{"indices":13,"attributes":{"POSITION":7,"NORMAL":8,"COLOR_0":9,"TEXCOORD_0":10,"TEXCOORD_1":11,"TANGENT":12},"mode":4},{"indices":20,"attributes":{"POSITION":14,"NORMAL":15,"COLOR_0":16,"TEXCOORD_0":17,"TEXCOORD_1":18,"TANGENT":19},"mode":4}]}],"accessors":[{"bufferView":0,"componentType":5126,"count":87,"type":"VEC3","min":[-0.19450729370117187,-0.03557143449783325,-4.101446533203125],"max":[0.47543983459472655,13.263314208984376,0.031010854244232177]},{"bufferView":1,"componentType":5126,"count":87,"type":"VEC3"},{"bufferView":2,"componentType":5126,"count":1925,"type":"VEC4"},{"bufferView":3,"componentType":5126,"count":87,"type":"VEC2"},{"bufferView":4,"componentType":5126,"count":87,"type":"VEC2"},{"bufferView":5,"componentType":5126,"count":87,"type":"VEC4"},{"bufferView":6,"componentType":5123,"count":120,"type":"SCALAR"},{"bufferView":7,"componentType":5126,"count":228,"type":"VEC3","min":[-0.19450729370117187,-0.03557143449783325,-4.101446533203125],"max":[0.47543983459472655,13.263314208984376,0.031010854244232177]},{"bufferView":8,"componentType":5126,"count":228,"type":"VEC3"},{"bufferView":9,"componentType":5126,"count":1925,"type":"VEC4"},{"bufferView":10,"componentType":5126,"count":228,"type":"VEC2"},{"bufferView":11,"componentType":5126,"count":228,"type":"VEC2"},{"bufferView":12,"componentType":5126,"count":228,"type":"VEC4"},{"bufferView":13,"componentType":5123,"count":330,"type":"SCALAR"},{"bufferView":14,"componentType":5126,"count":1610,"type":"VEC3","min":[-0.19450729370117187,-0.03557143449783325,-4.101446533203125],"max":[0.47543983459472655,13.263314208984376,0.031010854244232177]},{"bufferView":15,"componentType":5126,"count":1610,"type":"VEC3"},{"bufferView":16,"componentType":5126,"count":1925,"type":"VEC4"},{"bufferView":17,"componentType":5126,"count":1610,"type":"VEC2"},{"bufferView":18,"componentType":5126,"count":1610,"type":"VEC2"},{"bufferView":19,"componentType":5126,"count":1610,"type":"VEC4"},{"bufferView":20,"componentType":5123,"count":2616,"type":"SCALAR"}],"bufferViews":[{"buffer":0,"byteOffset":0,"byteLength":1044},{"buffer":0,"byteOffset":1044,"byteLength":1044},{"buffer":0,"byteOffset":2088,"byteLength":30800},{"buffer":0,"byteOffset":32888,"byteLength":696},{"buffer":0,"byteOffset":33584,"byteLength":696},{"buffer":0,"byteOffset":34280,"byteLength":1392},{"buffer":0,"byteOffset":35672,"byteLength":240},{"buffer":1,"byteOffset":0,"byteLength":2736},{"buffer":1,"byteOffset":2736,"byteLength":2736},{"buffer":1,"byteOffset":5472,"byteLength":30800},{"buffer":1,"byteOffset":36272,"byteLength":1824},{"buffer":1,"byteOffset":38096,"byteLength":1824},{"buffer":1,"byteOffset":39920,"byteLength":3648},{"buffer":1,"byteOffset":43568,"byteLength":660},{"buffer":2,"byteOffset":0,"byteLength":19320},{"buffer":2,"byteOffset":19320,"byteLength":19320},{"buffer":2,"byteOffset":38640,"byteLength":30800},{"buffer":2,"byteOffset":69440,"byteLength":12880},{"buffer":2,"byteOffset":82320,"byteLength":12880},{"buffer":2,"byteOffset":95200,"byteLength":25760},{"buffer":2,"byteOffset":120960,"byteLength":5232}],"buffers":[{"byteLength":35912,"uri":"data:application/octet-stream;base64,"},{"byteLength":44228,"uri":"data:application/octet-stream;base64,"},{"byteLength":126192,"uri":"data:application/octet-stream;base64,"}]}
