{"asset":{"generator":"Khronos glTF Blender I/O v1.2.75","version":"2.0"},"scene":0,"scenes":[{"name":"Scene","nodes":[0]}],"nodes":[{"mesh":0,"name":"Mesh"}],"meshes":[{"name":"SM_MetalWallPart_08","primitives":[{"indices":6,"attributes":{"POSITION":0,"NORMAL":1,"COLOR_0":2,"TEXCOORD_0":3,"TEXCOORD_1":4,"TANGENT":5},"mode":4},{"indices":13,"attributes":{"POSITION":7,"NORMAL":8,"COLOR_0":9,"TEXCOORD_0":10,"TEXCOORD_1":11,"TANGENT":12},"mode":4},{"indices":20,"attributes":{"POSITION":14,"NORMAL":15,"COLOR_0":16,"TEXCOORD_0":17,"TEXCOORD_1":18,"TANGENT":19},"mode":4}]}],"accessors":[{"bufferView":0,"componentType":5126,"count":288,"type":"VEC3","min":[-0.19450729370117187,-0.03557143449783325,-4.101446533203125],"max":[0.47543983459472655,13.263314208984376,0.031010854244232177]},{"bufferView":1,"componentType":5126,"count":288,"type":"VEC3"},{"bufferView":2,"componentType":5126,"count":3500,"type":"VEC4"},{"bufferView":3,"componentType":5126,"count":288,"type":"VEC2"},{"bufferView":4,"componentType":5126,"count":288,"type":"VEC2"},{"bufferView":5,"componentType":5126,"count":288,"type":"VEC4"},{"bufferView":6,"componentType":5123,"count":456,"type":"SCALAR"},{"bufferView":7,"componentType":5126,"count":560,"type":"VEC3","min":[-0.19450729370117187,-0.03557143449783325,-4.101446533203125],"max":[0.47543983459472655,13.263314208984376,0.031010854244232177]},{"bufferView":8,"componentType":5126,"count":560,"type":"VEC3"},{"bufferView":9,"componentType":5126,"count":3500,"type":"VEC4"},{"bufferView":10,"componentType":5126,"count":560,"type":"VEC2"},{"bufferView":11,"componentType":5126,"count":560,"type":"VEC2"},{"bufferView":12,"componentType":5126,"count":560,"type":"VEC4"},{"bufferView":13,"componentType":5123,"count":1092,"type":"SCALAR"},{"bufferView":14,"componentType":5126,"count":2652,"type":"VEC3","min":[-0.19450729370117187,-0.03557143449783325,-4.101446533203125],"max":[0.47543983459472655,13.263314208984376,0.031010854244232177]},{"bufferView":15,"componentType":5126,"count":2652,"type":"VEC3"},{"bufferView":16,"componentType":5126,"count":3500,"type":"VEC4"},{"bufferView":17,"componentType":5126,"count":2652,"type":"VEC2"},{"bufferView":18,"componentType":5126,"count":2652,"type":"VEC2"},{"bufferView":19,"componentType":5126,"count":2652,"type":"VEC4"},{"bufferView":20,"componentType":5123,"count":6120,"type":"SCALAR"}],"bufferViews":[{"buffer":0,"byteOffset":0,"byteLength":3456},{"buffer":0,"byteOffset":3456,"byteLength":3456},{"buffer":0,"byteOffset":6912,"byteLength":56000},{"buffer":0,"byteOffset":62912,"byteLength":2304},{"buffer":0,"byteOffset":65216,"byteLength":2304},{"buffer":0,"byteOffset":67520,"byteLength":4608},{"buffer":0,"byteOffset":72128,"byteLength":912},{"buffer":1,"byteOffset":0,"byteLength":6720},{"buffer":1,"byteOffset":6720,"byteLength":6720},{"buffer":1,"byteOffset":13440,"byteLength":56000},{"buffer":1,"byteOffset":69440,"byteLength":4480},{"buffer":1,"byteOffset":73920,"byteLength":4480},{"buffer":1,"byteOffset":78400,"byteLength":8960},{"buffer":1,"byteOffset":87360,"byteLength":2184},{"buffer":2,"byteOffset":0,"byteLength":31824},{"buffer":2,"byteOffset":31824,"byteLength":31824},{"buffer":2,"byteOffset":63648,"byteLength":56000},{"buffer":2,"byteOffset":119648,"byteLength":21216},{"buffer":2,"byteOffset":140864,"byteLength":21216},{"buffer":2,"byteOffset":162080,"byteLength":42432},{"buffer":2,"byteOffset":204512,"byteLength":12240}],"buffers":[{"byteLength":73040,"uri":"data:application/octet-stream;base64,"},{"byteLength":89544,"uri":"data:application/octet-stream;base64,"},{"byteLength":216752,"uri":"data:application/octet-stream;base64,"}]}
