{"asset":{"generator":"Khronos glTF Blender I/O v1.2.75","version":"2.0"},"scene":0,"scenes":[{"name":"Scene","nodes":[0]}],"nodes":[{"mesh":0,"name":"Mesh"}],"meshes":[{"name":"SM_RoadMarkings06","primitives":[{"indices":5,"attributes":{"POSITION":0,"NORMAL":1,"TEXCOORD_0":2,"TEXCOORD_1":3,"TANGENT":4},"mode":4}]}],"accessors":[{"bufferView":0,"componentType":5126,"count":80,"type":"VEC3","min":[-0.22257381439208984,-3.1001427045331075e-17,-0.43152660369873047],"max":[0.22320816040039063,2.642338337201103e-17,0.5062917327880859]},{"bufferView":1,"componentType":5126,"count":80,"type":"VEC3"},{"bufferView":2,"componentType":5126,"count":80,"type":"VEC2"},{"bufferView":3,"componentType":5126,"count":80,"type":"VEC2"},{"bufferView":4,"componentType":5126,"count":80,"type":"VEC4"},{"bufferView":5,"componentType":5123,"count":120,"type":"SCALAR"}],"bufferViews":[{"buffer":0,"byteOffset":0,"byteLength":960},{"buffer":0,"byteOffset":960,"byteLength":960},{"buffer":0,"byteOffset":1920,"byteLength":640},{"buffer":0,"byteOffset":2560,"byteLength":640},{"buffer":0,"byteOffset":3200,"byteLength":1280},{"buffer":0,"byteOffset":4480,"byteLength":240}],"buffers":[{"byteLength":4720,"uri":"data:application/octet-stream;base64,"}]}
