{"asset":{"generator":"Khronos glTF Blender I/O v1.2.75","version":"2.0"},"scene":0,"scenes":[{"name":"Scene","nodes":[0]}],"nodes":[{"mesh":0,"name":"Mesh"}],"meshes":[{"name":"SM_Building10_03","primitives":[{"indices":5,"attributes":{"POSITION":0,"NORMAL":1,"TEXCOORD_0":2,"TEXCOORD_1":3,"TANGENT":4},"mode":4}]}],"accessors":[{"bufferView":0,"componentType":5126,"count":84,"type":"VEC3","min":[-6.299267988651991e-7,-2.6716406864579765e-14,-0.1499391746520996],"max":[10.00041259765625,0.44891613006591796,2.384185791015625e-7]},{"bufferView":1,"componentType":5126,"count":84,"type":"VEC3"},{"bufferView":2,"componentType":5126,"count":84,"type":"VEC2"},{"bufferView":3,"componentType":5126,"count":84,"type":"VEC2"},{"bufferView":4,"componentType":5126,"count":84,"type":"VEC4"},{"bufferView":5,"componentType":5123,"count":180,"type":"SCALAR"}],"bufferViews":[{"buffer":0,"byteOffset":0,"byteLength":1008},{"buffer":0,"byteOffset":1008,"byteLength":1008},{"buffer":0,"byteOffset":2016,"byteLength":672},{"buffer":0,"byteOffset":2688,"byteLength":672},{"buffer":0,"byteOffset":3360,"byteLength":1344},{"buffer":0,"byteOffset":4704,"byteLength":360}],"buffers":[{"byteLength":5064,"uri":"data:application/octet-stream;base64,"}]}
