{"asset":{"generator":"Khronos glTF Blender I/O v1.2.75","version":"2.0"},"scene":0,"scenes":[{"name":"Scene","nodes":[0]}],"nodes":[{"mesh":0,"name":"Mesh"}],"meshes":[{"name":"SM_PaperBox_02_03","primitives":[{"indices":6,"attributes":{"POSITION":0,"NORMAL":1,"COLOR_0":2,"TEXCOORD_0":3,"TEXCOORD_1":4,"TANGENT":5},"mode":4}]}],"accessors":[{"bufferView":0,"componentType":5126,"count":63,"type":"VEC3","min":[-0.345938720703125,-0.006679911017417908,-0.4704734802246094],"max":[0.38298538208007815,0.30378721237182615,0.4112907028198242]},{"bufferView":1,"componentType":5126,"count":63,"type":"VEC3"},{"bufferView":2,"componentType":5126,"count":63,"type":"VEC4"},{"bufferView":3,"componentType":5126,"count":63,"type":"VEC2"},{"bufferView":4,"componentType":5126,"count":63,"type":"VEC2"},{"bufferView":5,"componentType":5126,"count":63,"type":"VEC4"},{"bufferView":6,"componentType":5123,"count":96,"type":"SCALAR"}],"bufferViews":[{"buffer":0,"byteOffset":0,"byteLength":756},{"buffer":0,"byteOffset":756,"byteLength":756},{"buffer":0,"byteOffset":1512,"byteLength":1008},{"buffer":0,"byteOffset":2520,"byteLength":504},{"buffer":0,"byteOffset":3024,"byteLength":504},{"buffer":0,"byteOffset":3528,"byteLength":1008},{"buffer":0,"byteOffset":4536,"byteLength":192}],"buffers":[{"byteLength":4728,"uri":"data:application/octet-stream;base64,"}]}
