{"asset":{"generator":"Khronos glTF Blender I/O v1.2.75","version":"2.0"},"scene":0,"scenes":[{"name":"Scene","nodes":[0]}],"nodes":[{"mesh":0,"name":"Mesh"}],"meshes":[{"name":"SM_PipeGroup25","primitives":[{"indices":5,"attributes":{"POSITION":0,"NORMAL":1,"TEXCOORD_0":2,"TEXCOORD_1":3,"TANGENT":4},"mode":4}]}],"accessors":[{"bufferView":0,"componentType":5126,"count":2068,"type":"VEC3","min":[-0.5517970275878906,-53.7,-1.001537094116211],"max":[0.5515535354614258,0.3010402679443359,5.949728393554688]},{"bufferView":1,"componentType":5126,"count":2068,"type":"VEC3"},{"bufferView":2,"componentType":5126,"count":2068,"type":"VEC2"},{"bufferView":3,"componentType":5126,"count":2068,"type":"VEC2"},{"bufferView":4,"componentType":5126,"count":2068,"type":"VEC4"},{"bufferView":5,"componentType":5123,"count":3552,"type":"SCALAR"}],"bufferViews":[{"buffer":0,"byteOffset":0,"byteLength":24816},{"buffer":0,"byteOffset":24816,"byteLength":24816},{"buffer":0,"byteOffset":49632,"byteLength":16544},{"buffer":0,"byteOffset":66176,"byteLength":16544},{"buffer":0,"byteOffset":82720,"byteLength":33088},{"buffer":0,"byteOffset":115808,"byteLength":7104}],"buffers":[{"byteLength":122912,"uri":"data:application/octet-stream;base64,"}]}
