{"asset":{"generator":"Khronos glTF Blender I/O v1.2.75","version":"2.0"},"scene":0,"scenes":[{"name":"Scene","nodes":[0]}],"nodes":[{"mesh":0,"name":"Mesh"}],"meshes":[{"name":"SM_NeonSig02","primitives":[{"indices":5,"attributes":{"POSITION":0,"NORMAL":1,"TEXCOORD_0":2,"TEXCOORD_1":3,"TANGENT":4},"mode":4}]}],"accessors":[{"bufferView":0,"componentType":5126,"count":244,"type":"VEC3","min":[-6.103515625e-7,-0.00000213623046875,-0.0000016293380758725106],"max":[9.999999389648437,1.4642440795898437,0.7321216583251953]},{"bufferView":1,"componentType":5126,"count":244,"type":"VEC3"},{"bufferView":2,"componentType":5126,"count":244,"type":"VEC2"},{"bufferView":3,"componentType":5126,"count":244,"type":"VEC2"},{"bufferView":4,"componentType":5126,"count":244,"type":"VEC4"},{"bufferView":5,"componentType":5123,"count":660,"type":"SCALAR"}],"bufferViews":[{"buffer":0,"byteOffset":0,"byteLength":2928},{"buffer":0,"byteOffset":2928,"byteLength":2928},{"buffer":0,"byteOffset":5856,"byteLength":1952},{"buffer":0,"byteOffset":7808,"byteLength":1952},{"buffer":0,"byteOffset":9760,"byteLength":3904},{"buffer":0,"byteOffset":13664,"byteLength":1320}],"buffers":[{"byteLength":14984,"uri":"data:application/octet-stream;base64,"}]}
