{"asset":{"generator":"Khronos glTF Blender I/O v1.2.75","version":"2.0"},"scene":0,"scenes":[{"name":"Scene","nodes":[0]}],"nodes":[{"mesh":0,"name":"Mesh"}],"meshes":[{"name":"SM_Lamp01","primitives":[{"indices":5,"attributes":{"POSITION":0,"NORMAL":1,"TEXCOORD_0":2,"TEXCOORD_1":3,"TANGENT":4},"mode":4}]}],"accessors":[{"bufferView":0,"componentType":5126,"count":368,"type":"VEC3","min":[-1.31182861328125,-0.20677947998046875,-0.117093505859375],"max":[0.00000244140625,3.0517578125e-7,-6.103515625e-7]},{"bufferView":1,"componentType":5126,"count":368,"type":"VEC3"},{"bufferView":2,"componentType":5126,"count":368,"type":"VEC2"},{"bufferView":3,"componentType":5126,"count":368,"type":"VEC2"},{"bufferView":4,"componentType":5126,"count":368,"type":"VEC4"},{"bufferView":5,"componentType":5123,"count":1140,"type":"SCALAR"}],"bufferViews":[{"buffer":0,"byteOffset":0,"byteLength":4416},{"buffer":0,"byteOffset":4416,"byteLength":4416},{"buffer":0,"byteOffset":8832,"byteLength":2944},{"buffer":0,"byteOffset":11776,"byteLength":2944},{"buffer":0,"byteOffset":14720,"byteLength":5888},{"buffer":0,"byteOffset":20608,"byteLength":2280}],"buffers":[{"byteLength":22888,"uri":"data:application/octet-stream;base64,"}]}
