{"asset":{"generator":"Khronos glTF Blender I/O v1.2.75","version":"2.0"},"scene":0,"scenes":[{"name":"Scene","nodes":[0]}],"nodes":[{"mesh":0,"name":"Mesh"}],"meshes":[{"name":"SM_Lamp01","primitives":[{"indices":6,"attributes":{"POSITION":0,"NORMAL":1,"COLOR_0":2,"TEXCOORD_0":3,"TEXCOORD_1":4,"TANGENT":5},"mode":4},{"indices":13,"attributes":{"POSITION":7,"NORMAL":8,"COLOR_0":9,"TEXCOORD_0":10,"TEXCOORD_1":11,"TANGENT":12},"mode":4}]}],"accessors":[{"bufferView":0,"componentType":5126,"count":425,"type":"VEC3","min":[-0.08488881111145019,-0.182347412109375,-0.08206241607666015],"max":[0.08490848541259766,0.01162682294845581,0.0897144603729248]},{"bufferView":1,"componentType":5126,"count":425,"type":"VEC3"},{"bufferView":2,"componentType":5126,"count":488,"type":"VEC4"},{"bufferView":3,"componentType":5126,"count":425,"type":"VEC2"},{"bufferView":4,"componentType":5126,"count":425,"type":"VEC2"},{"bufferView":5,"componentType":5126,"count":425,"type":"VEC4"},{"bufferView":6,"componentType":5123,"count":1101,"type":"SCALAR"},{"bufferView":7,"componentType":5126,"count":63,"type":"VEC3","min":[-0.08488881111145019,-0.182347412109375,-0.08206241607666015],"max":[0.08490848541259766,0.01162682294845581,0.0897144603729248]},{"bufferView":8,"componentType":5126,"count":63,"type":"VEC3"},{"bufferView":9,"componentType":5126,"count":488,"type":"VEC4"},{"bufferView":10,"componentType":5126,"count":63,"type":"VEC2"},{"bufferView":11,"componentType":5126,"count":63,"type":"VEC2"},{"bufferView":12,"componentType":5126,"count":63,"type":"VEC4"},{"bufferView":13,"componentType":5123,"count":183,"type":"SCALAR"}],"bufferViews":[{"buffer":0,"byteOffset":0,"byteLength":5100},{"buffer":0,"byteOffset":5100,"byteLength":5100},{"buffer":0,"byteOffset":10200,"byteLength":7808},{"buffer":0,"byteOffset":18008,"byteLength":3400},{"buffer":0,"byteOffset":21408,"byteLength":3400},{"buffer":0,"byteOffset":24808,"byteLength":6800},{"buffer":0,"byteOffset":31608,"byteLength":2202},{"buffer":1,"byteOffset":0,"byteLength":756},{"buffer":1,"byteOffset":756,"byteLength":756},{"buffer":1,"byteOffset":1512,"byteLength":7808},{"buffer":1,"byteOffset":9320,"byteLength":504},{"buffer":1,"byteOffset":9824,"byteLength":504},{"buffer":1,"byteOffset":10328,"byteLength":1008},{"buffer":1,"byteOffset":11336,"byteLength":366}],"buffers":[{"byteLength":33810,"uri":"data:application/octet-stream;base64,"},{"byteLength":11702,"uri":"data:application/octet-stream;base64,"}]}
