{"asset":{"generator":"Khronos glTF Blender I/O v1.2.75","version":"2.0"},"scene":0,"scenes":[{"name":"Scene","nodes":[0]}],"nodes":[{"mesh":0,"name":"Mesh"}],"meshes":[{"name":"SM_Lamp01","primitives":[{"indices":6,"attributes":{"POSITION":0,"NORMAL":1,"COLOR_0":2,"TEXCOORD_0":3,"TEXCOORD_1":4,"TANGENT":5},"mode":4},{"indices":13,"attributes":{"POSITION":7,"NORMAL":8,"COLOR_0":9,"TEXCOORD_0":10,"TEXCOORD_1":11,"TANGENT":12},"mode":4}]}],"accessors":[{"bufferView":0,"componentType":5126,"count":1002,"type":"VEC3","min":[-0.08488881111145019,-0.182347412109375,-0.08206241607666015],"max":[0.08490848541259766,0.01162682294845581,0.0897144603729248]},{"bufferView":1,"componentType":5126,"count":1002,"type":"VEC3"},{"bufferView":2,"componentType":5126,"count":1161,"type":"VEC4"},{"bufferView":3,"componentType":5126,"count":1002,"type":"VEC2"},{"bufferView":4,"componentType":5126,"count":1002,"type":"VEC2"},{"bufferView":5,"componentType":5126,"count":1002,"type":"VEC4"},{"bufferView":6,"componentType":5123,"count":3213,"type":"SCALAR"},{"bufferView":7,"componentType":5126,"count":159,"type":"VEC3","min":[-0.08488881111145019,-0.182347412109375,-0.08206241607666015],"max":[0.08490848541259766,0.01162682294845581,0.0897144603729248]},{"bufferView":8,"componentType":5126,"count":159,"type":"VEC3"},{"bufferView":9,"componentType":5126,"count":1161,"type":"VEC4"},{"bufferView":10,"componentType":5126,"count":159,"type":"VEC2"},{"bufferView":11,"componentType":5126,"count":159,"type":"VEC2"},{"bufferView":12,"componentType":5126,"count":159,"type":"VEC4"},{"bufferView":13,"componentType":5123,"count":645,"type":"SCALAR"}],"bufferViews":[{"buffer":0,"byteOffset":0,"byteLength":12024},{"buffer":0,"byteOffset":12024,"byteLength":12024},{"buffer":0,"byteOffset":24048,"byteLength":18576},{"buffer":0,"byteOffset":42624,"byteLength":8016},{"buffer":0,"byteOffset":50640,"byteLength":8016},{"buffer":0,"byteOffset":58656,"byteLength":16032},{"buffer":0,"byteOffset":74688,"byteLength":6426},{"buffer":1,"byteOffset":0,"byteLength":1908},{"buffer":1,"byteOffset":1908,"byteLength":1908},{"buffer":1,"byteOffset":3816,"byteLength":18576},{"buffer":1,"byteOffset":22392,"byteLength":1272},{"buffer":1,"byteOffset":23664,"byteLength":1272},{"buffer":1,"byteOffset":24936,"byteLength":2544},{"buffer":1,"byteOffset":27480,"byteLength":1290}],"buffers":[{"byteLength":81114,"uri":"data:application/octet-stream;base64,"},{"byteLength":28770,"uri":"data:application/octet-stream;base64,"}]}
