{"asset":{"generator":"Khronos glTF Blender I/O v1.2.75","version":"2.0"},"scene":0,"scenes":[{"name":"Scene","nodes":[0]}],"nodes":[{"mesh":0,"name":"Mesh"}],"meshes":[{"name":"SM_Door01","primitives":[{"indices":5,"attributes":{"POSITION":0,"NORMAL":1,"TEXCOORD_0":2,"TEXCOORD_1":3,"TANGENT":4},"mode":4}]}],"accessors":[{"bufferView":0,"componentType":5126,"count":1378,"type":"VEC3","min":[-1.744616241455078,0,-0.7010394287109375],"max":[0.001080661416053772,3.3310064697265624,0.15365952491760254]},{"bufferView":1,"componentType":5126,"count":1378,"type":"VEC3"},{"bufferView":2,"componentType":5126,"count":1378,"type":"VEC2"},{"bufferView":3,"componentType":5126,"count":1378,"type":"VEC2"},{"bufferView":4,"componentType":5126,"count":1378,"type":"VEC4"},{"bufferView":5,"componentType":5123,"count":3834,"type":"SCALAR"}],"bufferViews":[{"buffer":0,"byteOffset":0,"byteLength":16536},{"buffer":0,"byteOffset":16536,"byteLength":16536},{"buffer":0,"byteOffset":33072,"byteLength":11024},{"buffer":0,"byteOffset":44096,"byteLength":11024},{"buffer":0,"byteOffset":55120,"byteLength":22048},{"buffer":0,"byteOffset":77168,"byteLength":7668}],"buffers":[{"byteLength":84836,"uri":"data:application/octet-stream;base64,"}]}
