{"asset":{"generator":"Khronos glTF Blender I/O v1.2.75","version":"2.0"},"scene":0,"scenes":[{"name":"Scene","nodes":[0]}],"nodes":[{"mesh":0,"name":"Mesh"}],"meshes":[{"name":"SM_Stair_03","primitives":[{"indices":6,"attributes":{"POSITION":0,"NORMAL":1,"COLOR_0":2,"TEXCOORD_0":3,"TEXCOORD_1":4,"TANGENT":5},"mode":4}]}],"accessors":[{"bufferView":0,"componentType":5126,"count":1339,"type":"VEC3","min":[-2.115975341796875,-0.25007659912109376,-2.134415283203125],"max":[0.000001220703125,1.2490301513671875,-0.0000048828125]},{"bufferView":1,"componentType":5126,"count":1339,"type":"VEC3"},{"bufferView":2,"componentType":5126,"count":1339,"type":"VEC4"},{"bufferView":3,"componentType":5126,"count":1339,"type":"VEC2"},{"bufferView":4,"componentType":5126,"count":1339,"type":"VEC2"},{"bufferView":5,"componentType":5126,"count":1339,"type":"VEC4"},{"bufferView":6,"componentType":5123,"count":2784,"type":"SCALAR"}],"bufferViews":[{"buffer":0,"byteOffset":0,"byteLength":16068},{"buffer":0,"byteOffset":16068,"byteLength":16068},{"buffer":0,"byteOffset":32136,"byteLength":21424},{"buffer":0,"byteOffset":53560,"byteLength":10712},{"buffer":0,"byteOffset":64272,"byteLength":10712},{"buffer":0,"byteOffset":74984,"byteLength":21424},{"buffer":0,"byteOffset":96408,"byteLength":5568}],"buffers":[{"byteLength":101976,"uri":"data:application/octet-stream;base64,"}]}
