{"asset":{"generator":"Khronos glTF Blender I/O v1.2.75","version":"2.0"},"scene":0,"scenes":[{"name":"Scene","nodes":[0]}],"nodes":[{"mesh":0,"name":"Mesh"}],"meshes":[{"name":"SM_PipeGroup33","primitives":[{"indices":5,"attributes":{"POSITION":0,"NORMAL":1,"TEXCOORD_0":2,"TEXCOORD_1":3,"TANGENT":4},"mode":4}]}],"accessors":[{"bufferView":0,"componentType":5126,"count":1950,"type":"VEC3","min":[-1.18021484375,-0.31722442626953123,-14.9437353515625],"max":[0.332939453125,0.319500732421875,1.471129150390625]},{"bufferView":1,"componentType":5126,"count":1950,"type":"VEC3"},{"bufferView":2,"componentType":5126,"count":1950,"type":"VEC2"},{"bufferView":3,"componentType":5126,"count":1950,"type":"VEC2"},{"bufferView":4,"componentType":5126,"count":1950,"type":"VEC4"},{"bufferView":5,"componentType":5123,"count":6912,"type":"SCALAR"}],"bufferViews":[{"buffer":0,"byteOffset":0,"byteLength":23400},{"buffer":0,"byteOffset":23400,"byteLength":23400},{"buffer":0,"byteOffset":46800,"byteLength":15600},{"buffer":0,"byteOffset":62400,"byteLength":15600},{"buffer":0,"byteOffset":78000,"byteLength":31200},{"buffer":0,"byteOffset":109200,"byteLength":13824}],"buffers":[{"byteLength":123024,"uri":"data:application/octet-stream;base64,"}]}
