{"asset":{"generator":"Khronos glTF Blender I/O v1.2.75","version":"2.0"},"scene":0,"scenes":[{"name":"Scene","nodes":[0]}],"nodes":[{"mesh":0,"name":"Mesh"}],"meshes":[{"name":"SM_Fence05","primitives":[{"indices":6,"attributes":{"POSITION":0,"NORMAL":1,"COLOR_0":2,"TEXCOORD_0":3,"TEXCOORD_1":4,"TANGENT":5},"mode":4},{"indices":13,"attributes":{"POSITION":7,"NORMAL":8,"COLOR_0":9,"TEXCOORD_0":10,"TEXCOORD_1":11,"TANGENT":12},"mode":4}]}],"accessors":[{"bufferView":0,"componentType":5126,"count":96,"type":"VEC3","min":[-1.1568185982469004e-7,0.1005670166015625,-0.055880012512207033],"max":[1.2815725708007812,1.851690673828125,-0.011328052282333374]},{"bufferView":1,"componentType":5126,"count":96,"type":"VEC3"},{"bufferView":2,"componentType":5126,"count":114,"type":"VEC4"},{"bufferView":3,"componentType":5126,"count":96,"type":"VEC2"},{"bufferView":4,"componentType":5126,"count":96,"type":"VEC2"},{"bufferView":5,"componentType":5126,"count":96,"type":"VEC4"},{"bufferView":6,"componentType":5123,"count":144,"type":"SCALAR"},{"bufferView":7,"componentType":5126,"count":18,"type":"VEC3","min":[-1.1568185982469004e-7,0.1005670166015625,-0.055880012512207033],"max":[1.2815725708007812,1.851690673828125,-0.011328052282333374]},{"bufferView":8,"componentType":5126,"count":18,"type":"VEC3"},{"bufferView":9,"componentType":5126,"count":114,"type":"VEC4"},{"bufferView":10,"componentType":5126,"count":18,"type":"VEC2"},{"bufferView":11,"componentType":5126,"count":18,"type":"VEC2"},{"bufferView":12,"componentType":5126,"count":18,"type":"VEC4"},{"bufferView":13,"componentType":5123,"count":30,"type":"SCALAR"}],"bufferViews":[{"buffer":0,"byteOffset":0,"byteLength":1152},{"buffer":0,"byteOffset":1152,"byteLength":1152},{"buffer":0,"byteOffset":2304,"byteLength":1824},{"buffer":0,"byteOffset":4128,"byteLength":768},{"buffer":0,"byteOffset":4896,"byteLength":768},{"buffer":0,"byteOffset":5664,"byteLength":1536},{"buffer":0,"byteOffset":7200,"byteLength":288},{"buffer":1,"byteOffset":0,"byteLength":216},{"buffer":1,"byteOffset":216,"byteLength":216},{"buffer":1,"byteOffset":432,"byteLength":1824},{"buffer":1,"byteOffset":2256,"byteLength":144},{"buffer":1,"byteOffset":2400,"byteLength":144},{"buffer":1,"byteOffset":2544,"byteLength":288},{"buffer":1,"byteOffset":2832,"byteLength":60}],"buffers":[{"byteLength":7488,"uri":"data:application/octet-stream;base64,"},{"byteLength":2892,"uri":"data:application/octet-stream;base64,"}]}
