{"asset":{"generator":"Khronos glTF Blender I/O v1.2.75","version":"2.0"},"scene":0,"scenes":[{"name":"Scene","nodes":[0]}],"nodes":[{"mesh":0,"name":"Mesh"}],"meshes":[{"name":"SM_Pipe_round_fixator2","primitives":[{"indices":6,"attributes":{"POSITION":0,"NORMAL":1,"COLOR_0":2,"TEXCOORD_0":3,"TEXCOORD_1":4,"TANGENT":5},"mode":4}]}],"accessors":[{"bufferView":0,"componentType":5126,"count":52,"type":"VEC3","min":[-0.15909685134887697,0.2086663818359375,-0.006062217354774475],"max":[0.1590968418121338,0.5860689544677734,0.006062176823616028]},{"bufferView":1,"componentType":5126,"count":52,"type":"VEC3"},{"bufferView":2,"componentType":5126,"count":52,"type":"VEC4"},{"bufferView":3,"componentType":5126,"count":52,"type":"VEC2"},{"bufferView":4,"componentType":5126,"count":52,"type":"VEC2"},{"bufferView":5,"componentType":5126,"count":52,"type":"VEC4"},{"bufferView":6,"componentType":5123,"count":120,"type":"SCALAR"}],"bufferViews":[{"buffer":0,"byteOffset":0,"byteLength":624},{"buffer":0,"byteOffset":624,"byteLength":624},{"buffer":0,"byteOffset":1248,"byteLength":832},{"buffer":0,"byteOffset":2080,"byteLength":416},{"buffer":0,"byteOffset":2496,"byteLength":416},{"buffer":0,"byteOffset":2912,"byteLength":832},{"buffer":0,"byteOffset":3744,"byteLength":240}],"buffers":[{"byteLength":3984,"uri":"data:application/octet-stream;base64,"}]}
