{"asset":{"generator":"Khronos glTF Blender I/O v1.2.75","version":"2.0"},"scene":0,"scenes":[{"name":"Scene","nodes":[0]}],"nodes":[{"mesh":0,"name":"Mesh"}],"meshes":[{"name":"SM_Lamp02","primitives":[{"indices":6,"attributes":{"POSITION":0,"NORMAL":1,"COLOR_0":2,"TEXCOORD_0":3,"TEXCOORD_1":4,"TANGENT":5},"mode":4},{"indices":13,"attributes":{"POSITION":7,"NORMAL":8,"COLOR_0":9,"TEXCOORD_0":10,"TEXCOORD_1":11,"TANGENT":12},"mode":4}]}],"accessors":[{"bufferView":0,"componentType":5126,"count":197,"type":"VEC3","min":[-0.06650601387023926,3.4809112548828124e-7,-0.0415910816192627],"max":[0.06146610736846924,0.2746441078186035,0.04266950607299805]},{"bufferView":1,"componentType":5126,"count":197,"type":"VEC3"},{"bufferView":2,"componentType":5126,"count":251,"type":"VEC4"},{"bufferView":3,"componentType":5126,"count":197,"type":"VEC2"},{"bufferView":4,"componentType":5126,"count":197,"type":"VEC2"},{"bufferView":5,"componentType":5126,"count":197,"type":"VEC4"},{"bufferView":6,"componentType":5123,"count":423,"type":"SCALAR"},{"bufferView":7,"componentType":5126,"count":54,"type":"VEC3","min":[-0.06650601387023926,3.4809112548828124e-7,-0.0415910816192627],"max":[0.06146610736846924,0.2746441078186035,0.04266950607299805]},{"bufferView":8,"componentType":5126,"count":54,"type":"VEC3"},{"bufferView":9,"componentType":5126,"count":251,"type":"VEC4"},{"bufferView":10,"componentType":5126,"count":54,"type":"VEC2"},{"bufferView":11,"componentType":5126,"count":54,"type":"VEC2"},{"bufferView":12,"componentType":5126,"count":54,"type":"VEC4"},{"bufferView":13,"componentType":5123,"count":147,"type":"SCALAR"}],"bufferViews":[{"buffer":0,"byteOffset":0,"byteLength":2364},{"buffer":0,"byteOffset":2364,"byteLength":2364},{"buffer":0,"byteOffset":4728,"byteLength":4016},{"buffer":0,"byteOffset":8744,"byteLength":1576},{"buffer":0,"byteOffset":10320,"byteLength":1576},{"buffer":0,"byteOffset":11896,"byteLength":3152},{"buffer":0,"byteOffset":15048,"byteLength":846},{"buffer":1,"byteOffset":0,"byteLength":648},{"buffer":1,"byteOffset":648,"byteLength":648},{"buffer":1,"byteOffset":1296,"byteLength":4016},{"buffer":1,"byteOffset":5312,"byteLength":432},{"buffer":1,"byteOffset":5744,"byteLength":432},{"buffer":1,"byteOffset":6176,"byteLength":864},{"buffer":1,"byteOffset":7040,"byteLength":294}],"buffers":[{"byteLength":15894,"uri":"data:application/octet-stream;base64,"},{"byteLength":7334,"uri":"data:application/octet-stream;base64,"}]}
