{"asset":{"generator":"Khronos glTF Blender I/O v1.2.75","version":"2.0"},"scene":0,"scenes":[{"name":"Scene","nodes":[0]}],"nodes":[{"mesh":0,"name":"Mesh"}],"meshes":[{"name":"SM_Lamp02","primitives":[{"indices":6,"attributes":{"POSITION":0,"NORMAL":1,"COLOR_0":2,"TEXCOORD_0":3,"TEXCOORD_1":4,"TANGENT":5},"mode":4},{"indices":13,"attributes":{"POSITION":7,"NORMAL":8,"COLOR_0":9,"TEXCOORD_0":10,"TEXCOORD_1":11,"TANGENT":12},"mode":4}]}],"accessors":[{"bufferView":0,"componentType":5126,"count":2723,"type":"VEC3","min":[-0.06650601387023926,3.4809112548828124e-7,-0.0415910816192627],"max":[0.06146610736846924,0.2746441078186035,0.04266950607299805]},{"bufferView":1,"componentType":5126,"count":2723,"type":"VEC3"},{"bufferView":2,"componentType":5126,"count":3264,"type":"VEC4"},{"bufferView":3,"componentType":5126,"count":2723,"type":"VEC2"},{"bufferView":4,"componentType":5126,"count":2723,"type":"VEC2"},{"bufferView":5,"componentType":5126,"count":2723,"type":"VEC4"},{"bufferView":6,"componentType":5123,"count":8994,"type":"SCALAR"},{"bufferView":7,"componentType":5126,"count":541,"type":"VEC3","min":[-0.06650601387023926,3.4809112548828124e-7,-0.0415910816192627],"max":[0.06146610736846924,0.2746441078186035,0.04266950607299805]},{"bufferView":8,"componentType":5126,"count":541,"type":"VEC3"},{"bufferView":9,"componentType":5126,"count":3264,"type":"VEC4"},{"bufferView":10,"componentType":5126,"count":541,"type":"VEC2"},{"bufferView":11,"componentType":5126,"count":541,"type":"VEC2"},{"bufferView":12,"componentType":5126,"count":541,"type":"VEC4"},{"bufferView":13,"componentType":5123,"count":2400,"type":"SCALAR"}],"bufferViews":[{"buffer":0,"byteOffset":0,"byteLength":32676},{"buffer":0,"byteOffset":32676,"byteLength":32676},{"buffer":0,"byteOffset":65352,"byteLength":52224},{"buffer":0,"byteOffset":117576,"byteLength":21784},{"buffer":0,"byteOffset":139360,"byteLength":21784},{"buffer":0,"byteOffset":161144,"byteLength":43568},{"buffer":0,"byteOffset":204712,"byteLength":17988},{"buffer":1,"byteOffset":0,"byteLength":6492},{"buffer":1,"byteOffset":6492,"byteLength":6492},{"buffer":1,"byteOffset":12984,"byteLength":52224},{"buffer":1,"byteOffset":65208,"byteLength":4328},{"buffer":1,"byteOffset":69536,"byteLength":4328},{"buffer":1,"byteOffset":73864,"byteLength":8656},{"buffer":1,"byteOffset":82520,"byteLength":4800}],"buffers":[{"byteLength":222700,"uri":"data:application/octet-stream;base64,"},{"byteLength":87320,"uri":"data:application/octet-stream;base64,"}]}
