{"asset":{"generator":"Khronos glTF Blender I/O v1.2.75","version":"2.0"},"scene":0,"scenes":[{"name":"Scene","nodes":[0]}],"nodes":[{"mesh":0,"name":"Mesh"}],"meshes":[{"name":"SM_Lamp02","primitives":[{"indices":6,"attributes":{"POSITION":0,"NORMAL":1,"COLOR_0":2,"TEXCOORD_0":3,"TEXCOORD_1":4,"TANGENT":5},"mode":4},{"indices":13,"attributes":{"POSITION":7,"NORMAL":8,"COLOR_0":9,"TEXCOORD_0":10,"TEXCOORD_1":11,"TANGENT":12},"mode":4}]}],"accessors":[{"bufferView":0,"componentType":5126,"count":506,"type":"VEC3","min":[-0.06650601387023926,3.4809112548828124e-7,-0.0415910816192627],"max":[0.06146610736846924,0.2746441078186035,0.04266950607299805]},{"bufferView":1,"componentType":5126,"count":506,"type":"VEC3"},{"bufferView":2,"componentType":5126,"count":620,"type":"VEC4"},{"bufferView":3,"componentType":5126,"count":506,"type":"VEC2"},{"bufferView":4,"componentType":5126,"count":506,"type":"VEC2"},{"bufferView":5,"componentType":5126,"count":506,"type":"VEC4"},{"bufferView":6,"componentType":5123,"count":1320,"type":"SCALAR"},{"bufferView":7,"componentType":5126,"count":114,"type":"VEC3","min":[-0.06650601387023926,3.4809112548828124e-7,-0.0415910816192627],"max":[0.06146610736846924,0.2746441078186035,0.04266950607299805]},{"bufferView":8,"componentType":5126,"count":114,"type":"VEC3"},{"bufferView":9,"componentType":5126,"count":620,"type":"VEC4"},{"bufferView":10,"componentType":5126,"count":114,"type":"VEC2"},{"bufferView":11,"componentType":5126,"count":114,"type":"VEC2"},{"bufferView":12,"componentType":5126,"count":114,"type":"VEC4"},{"bufferView":13,"componentType":5123,"count":387,"type":"SCALAR"}],"bufferViews":[{"buffer":0,"byteOffset":0,"byteLength":6072},{"buffer":0,"byteOffset":6072,"byteLength":6072},{"buffer":0,"byteOffset":12144,"byteLength":9920},{"buffer":0,"byteOffset":22064,"byteLength":4048},{"buffer":0,"byteOffset":26112,"byteLength":4048},{"buffer":0,"byteOffset":30160,"byteLength":8096},{"buffer":0,"byteOffset":38256,"byteLength":2640},{"buffer":1,"byteOffset":0,"byteLength":1368},{"buffer":1,"byteOffset":1368,"byteLength":1368},{"buffer":1,"byteOffset":2736,"byteLength":9920},{"buffer":1,"byteOffset":12656,"byteLength":912},{"buffer":1,"byteOffset":13568,"byteLength":912},{"buffer":1,"byteOffset":14480,"byteLength":1824},{"buffer":1,"byteOffset":16304,"byteLength":774}],"buffers":[{"byteLength":40896,"uri":"data:application/octet-stream;base64,"},{"byteLength":17078,"uri":"data:application/octet-stream;base64,"}]}
