{"asset":{"generator":"Khronos glTF Blender I/O v1.2.75","version":"2.0"},"scene":0,"scenes":[{"name":"Scene","nodes":[0]}],"nodes":[{"mesh":0,"name":"Mesh"}],"meshes":[{"name":"SM_Building10_02","primitives":[{"indices":5,"attributes":{"POSITION":0,"NORMAL":1,"TEXCOORD_0":2,"TEXCOORD_1":3,"TANGENT":4},"mode":4}]}],"accessors":[{"bufferView":0,"componentType":5126,"count":364,"type":"VEC3","min":[-0.04733322143554688,-0.025742485523223876,-0.4621405029296875],"max":[5.0000003051757815,10.010300903320312,-0.12456527709960938]},{"bufferView":1,"componentType":5126,"count":364,"type":"VEC3"},{"bufferView":2,"componentType":5126,"count":364,"type":"VEC2"},{"bufferView":3,"componentType":5126,"count":364,"type":"VEC2"},{"bufferView":4,"componentType":5126,"count":364,"type":"VEC4"},{"bufferView":5,"componentType":5123,"count":678,"type":"SCALAR"}],"bufferViews":[{"buffer":0,"byteOffset":0,"byteLength":4368},{"buffer":0,"byteOffset":4368,"byteLength":4368},{"buffer":0,"byteOffset":8736,"byteLength":2912},{"buffer":0,"byteOffset":11648,"byteLength":2912},{"buffer":0,"byteOffset":14560,"byteLength":5824},{"buffer":0,"byteOffset":20384,"byteLength":1356}],"buffers":[{"byteLength":21740,"uri":"data:application/octet-stream;base64,"}]}
