{"asset":{"generator":"Khronos glTF Blender I/O v1.2.75","version":"2.0"},"scene":0,"scenes":[{"name":"Scene","nodes":[0]}],"nodes":[{"mesh":0,"name":"Mesh"}],"meshes":[{"name":"SM_Building10_02","primitives":[{"indices":5,"attributes":{"POSITION":0,"NORMAL":1,"TEXCOORD_0":2,"TEXCOORD_1":3,"TANGENT":4},"mode":4}]}],"accessors":[{"bufferView":0,"componentType":5126,"count":218,"type":"VEC3","min":[-0.04733322143554688,-0.025742485523223876,-0.4621405029296875],"max":[5.0000003051757815,10.010300903320312,-0.12456527709960938]},{"bufferView":1,"componentType":5126,"count":218,"type":"VEC3"},{"bufferView":2,"componentType":5126,"count":218,"type":"VEC2"},{"bufferView":3,"componentType":5126,"count":218,"type":"VEC2"},{"bufferView":4,"componentType":5126,"count":218,"type":"VEC4"},{"bufferView":5,"componentType":5123,"count":336,"type":"SCALAR"}],"bufferViews":[{"buffer":0,"byteOffset":0,"byteLength":2616},{"buffer":0,"byteOffset":2616,"byteLength":2616},{"buffer":0,"byteOffset":5232,"byteLength":1744},{"buffer":0,"byteOffset":6976,"byteLength":1744},{"buffer":0,"byteOffset":8720,"byteLength":3488},{"buffer":0,"byteOffset":12208,"byteLength":672}],"buffers":[{"byteLength":12880,"uri":"data:application/octet-stream;base64,"}]}
