{"asset":{"generator":"Khronos glTF Blender I/O v1.2.75","version":"2.0"},"scene":0,"scenes":[{"name":"Scene","nodes":[0]}],"nodes":[{"mesh":0,"name":"Mesh"}],"meshes":[{"name":"SM_PaperBox_01_03","primitives":[{"indices":6,"attributes":{"POSITION":0,"NORMAL":1,"COLOR_0":2,"TEXCOORD_0":3,"TEXCOORD_1":4,"TANGENT":5},"mode":4}]}],"accessors":[{"bufferView":0,"componentType":5126,"count":336,"type":"VEC3","min":[-0.6004155731201172,-0.07315837860107421,-0.8501040649414062],"max":[0.6013610076904297,1.0861627197265624,0.8983382415771485]},{"bufferView":1,"componentType":5126,"count":336,"type":"VEC3"},{"bufferView":2,"componentType":5126,"count":336,"type":"VEC4"},{"bufferView":3,"componentType":5126,"count":336,"type":"VEC2"},{"bufferView":4,"componentType":5126,"count":336,"type":"VEC2"},{"bufferView":5,"componentType":5126,"count":336,"type":"VEC4"},{"bufferView":6,"componentType":5123,"count":372,"type":"SCALAR"}],"bufferViews":[{"buffer":0,"byteOffset":0,"byteLength":4032},{"buffer":0,"byteOffset":4032,"byteLength":4032},{"buffer":0,"byteOffset":8064,"byteLength":5376},{"buffer":0,"byteOffset":13440,"byteLength":2688},{"buffer":0,"byteOffset":16128,"byteLength":2688},{"buffer":0,"byteOffset":18816,"byteLength":5376},{"buffer":0,"byteOffset":24192,"byteLength":744}],"buffers":[{"byteLength":24936,"uri":"data:application/octet-stream;base64,"}]}
