{"asset":{"generator":"Khronos glTF Blender I/O v1.2.75","version":"2.0"},"scene":0,"scenes":[{"name":"Scene","nodes":[0]}],"nodes":[{"mesh":0,"name":"Mesh"}],"meshes":[{"name":"SM_PaperBox_01_03","primitives":[{"indices":6,"attributes":{"POSITION":0,"NORMAL":1,"COLOR_0":2,"TEXCOORD_0":3,"TEXCOORD_1":4,"TANGENT":5},"mode":4}]}],"accessors":[{"bufferView":0,"componentType":5126,"count":214,"type":"VEC3","min":[-0.6004155731201172,-0.07315837860107421,-0.8501040649414062],"max":[0.6013610076904297,1.0861627197265624,0.8983382415771485]},{"bufferView":1,"componentType":5126,"count":214,"type":"VEC3"},{"bufferView":2,"componentType":5126,"count":214,"type":"VEC4"},{"bufferView":3,"componentType":5126,"count":214,"type":"VEC2"},{"bufferView":4,"componentType":5126,"count":214,"type":"VEC2"},{"bufferView":5,"componentType":5126,"count":214,"type":"VEC4"},{"bufferView":6,"componentType":5123,"count":240,"type":"SCALAR"}],"bufferViews":[{"buffer":0,"byteOffset":0,"byteLength":2568},{"buffer":0,"byteOffset":2568,"byteLength":2568},{"buffer":0,"byteOffset":5136,"byteLength":3424},{"buffer":0,"byteOffset":8560,"byteLength":1712},{"buffer":0,"byteOffset":10272,"byteLength":1712},{"buffer":0,"byteOffset":11984,"byteLength":3424},{"buffer":0,"byteOffset":15408,"byteLength":480}],"buffers":[{"byteLength":15888,"uri":"data:application/octet-stream;base64,"}]}
