{"asset":{"generator":"Khronos glTF Blender I/O v1.2.75","version":"2.0"},"scene":0,"scenes":[{"name":"Scene","nodes":[0]}],"nodes":[{"mesh":0,"name":"Mesh"}],"meshes":[{"name":"SM_Building09_04","primitives":[{"indices":5,"attributes":{"POSITION":0,"NORMAL":1,"TEXCOORD_0":2,"TEXCOORD_1":3,"TANGENT":4},"mode":4},{"indices":11,"attributes":{"POSITION":6,"NORMAL":7,"TEXCOORD_0":8,"TEXCOORD_1":9,"TANGENT":10},"mode":4}]}],"accessors":[{"bufferView":0,"componentType":5126,"count":80,"type":"VEC3","min":[-6.827210083007812,-0.2983956527709961,-0.9184834289550782],"max":[15.458553466796875,0.25244140625,21.36848876953125]},{"bufferView":1,"componentType":5126,"count":80,"type":"VEC3"},{"bufferView":2,"componentType":5126,"count":80,"type":"VEC2"},{"bufferView":3,"componentType":5126,"count":80,"type":"VEC2"},{"bufferView":4,"componentType":5126,"count":80,"type":"VEC4"},{"bufferView":5,"componentType":5123,"count":96,"type":"SCALAR"},{"bufferView":6,"componentType":5126,"count":228,"type":"VEC3","min":[-6.827210083007812,-0.2983956527709961,-0.9184834289550782],"max":[15.458553466796875,0.25244140625,21.36848876953125]},{"bufferView":7,"componentType":5126,"count":228,"type":"VEC3"},{"bufferView":8,"componentType":5126,"count":228,"type":"VEC2"},{"bufferView":9,"componentType":5126,"count":228,"type":"VEC2"},{"bufferView":10,"componentType":5126,"count":228,"type":"VEC4"},{"bufferView":11,"componentType":5123,"count":330,"type":"SCALAR"}],"bufferViews":[{"buffer":0,"byteOffset":0,"byteLength":960},{"buffer":0,"byteOffset":960,"byteLength":960},{"buffer":0,"byteOffset":1920,"byteLength":640},{"buffer":0,"byteOffset":2560,"byteLength":640},{"buffer":0,"byteOffset":3200,"byteLength":1280},{"buffer":0,"byteOffset":4480,"byteLength":192},{"buffer":1,"byteOffset":0,"byteLength":2736},{"buffer":1,"byteOffset":2736,"byteLength":2736},{"buffer":1,"byteOffset":5472,"byteLength":1824},{"buffer":1,"byteOffset":7296,"byteLength":1824},{"buffer":1,"byteOffset":9120,"byteLength":3648},{"buffer":1,"byteOffset":12768,"byteLength":660}],"buffers":[{"byteLength":4672,"uri":"data:application/octet-stream;base64,"},{"byteLength":13428,"uri":"data:application/octet-stream;base64,"}]}
