{"asset":{"generator":"Khronos glTF Blender I/O v1.2.75","version":"2.0"},"scene":0,"scenes":[{"name":"Scene","nodes":[0]}],"nodes":[{"mesh":0,"name":"Mesh"}],"meshes":[{"name":"SM_Building09_04","primitives":[{"indices":5,"attributes":{"POSITION":0,"NORMAL":1,"TEXCOORD_0":2,"TEXCOORD_1":3,"TANGENT":4},"mode":4},{"indices":11,"attributes":{"POSITION":6,"NORMAL":7,"TEXCOORD_0":8,"TEXCOORD_1":9,"TANGENT":10},"mode":4}]}],"accessors":[{"bufferView":0,"componentType":5126,"count":412,"type":"VEC3","min":[-6.827210083007812,-0.2983956527709961,-0.9184834289550782],"max":[15.458553466796875,0.25244140625,21.36848876953125]},{"bufferView":1,"componentType":5126,"count":412,"type":"VEC3"},{"bufferView":2,"componentType":5126,"count":412,"type":"VEC2"},{"bufferView":3,"componentType":5126,"count":412,"type":"VEC2"},{"bufferView":4,"componentType":5126,"count":412,"type":"VEC4"},{"bufferView":5,"componentType":5123,"count":660,"type":"SCALAR"},{"bufferView":6,"componentType":5126,"count":240,"type":"VEC3","min":[-6.827210083007812,-0.2983956527709961,-0.9184834289550782],"max":[15.458553466796875,0.25244140625,21.36848876953125]},{"bufferView":7,"componentType":5126,"count":240,"type":"VEC3"},{"bufferView":8,"componentType":5126,"count":240,"type":"VEC2"},{"bufferView":9,"componentType":5126,"count":240,"type":"VEC2"},{"bufferView":10,"componentType":5126,"count":240,"type":"VEC4"},{"bufferView":11,"componentType":5123,"count":360,"type":"SCALAR"}],"bufferViews":[{"buffer":0,"byteOffset":0,"byteLength":4944},{"buffer":0,"byteOffset":4944,"byteLength":4944},{"buffer":0,"byteOffset":9888,"byteLength":3296},{"buffer":0,"byteOffset":13184,"byteLength":3296},{"buffer":0,"byteOffset":16480,"byteLength":6592},{"buffer":0,"byteOffset":23072,"byteLength":1320},{"buffer":1,"byteOffset":0,"byteLength":2880},{"buffer":1,"byteOffset":2880,"byteLength":2880},{"buffer":1,"byteOffset":5760,"byteLength":1920},{"buffer":1,"byteOffset":7680,"byteLength":1920},{"buffer":1,"byteOffset":9600,"byteLength":3840},{"buffer":1,"byteOffset":13440,"byteLength":720}],"buffers":[{"byteLength":24392,"uri":"data:application/octet-stream;base64,"},{"byteLength":14160,"uri":"data:application/octet-stream;base64,"}]}
