{"asset":{"generator":"Khronos glTF Blender I/O v1.2.75","version":"2.0"},"scene":0,"scenes":[{"name":"Scene","nodes":[0]}],"nodes":[{"mesh":0,"name":"Mesh"}],"meshes":[{"name":"SM_GateDoor01","primitives":[{"indices":6,"attributes":{"POSITION":0,"NORMAL":1,"COLOR_0":2,"TEXCOORD_0":3,"TEXCOORD_1":4,"TANGENT":5},"mode":4}]}],"accessors":[{"bufferView":0,"componentType":5126,"count":328,"type":"VEC3","min":[-1.1863259887695312,0.009477574825286866,-0.22330324172973634],"max":[0.0634564208984375,2.514822692871094,0.029577198028564452]},{"bufferView":1,"componentType":5126,"count":328,"type":"VEC3"},{"bufferView":2,"componentType":5126,"count":328,"type":"VEC4"},{"bufferView":3,"componentType":5126,"count":328,"type":"VEC2"},{"bufferView":4,"componentType":5126,"count":328,"type":"VEC2"},{"bufferView":5,"componentType":5126,"count":328,"type":"VEC4"},{"bufferView":6,"componentType":5123,"count":672,"type":"SCALAR"}],"bufferViews":[{"buffer":0,"byteOffset":0,"byteLength":3936},{"buffer":0,"byteOffset":3936,"byteLength":3936},{"buffer":0,"byteOffset":7872,"byteLength":5248},{"buffer":0,"byteOffset":13120,"byteLength":2624},{"buffer":0,"byteOffset":15744,"byteLength":2624},{"buffer":0,"byteOffset":18368,"byteLength":5248},{"buffer":0,"byteOffset":23616,"byteLength":1344}],"buffers":[{"byteLength":24960,"uri":"data:application/octet-stream;base64,"}]}
