{"asset":{"generator":"Khronos glTF Blender I/O v1.2.75","version":"2.0"},"scene":0,"scenes":[{"name":"Scene","nodes":[0]}],"nodes":[{"mesh":0,"name":"Mesh"}],"meshes":[{"name":"SM_Pipe_round_bend_sector","primitives":[{"indices":6,"attributes":{"POSITION":0,"NORMAL":1,"COLOR_0":2,"TEXCOORD_0":3,"TEXCOORD_1":4,"TANGENT":5},"mode":4}]}],"accessors":[{"bufferView":0,"componentType":5126,"count":2800,"type":"VEC3","min":[-0.21008647918701173,-0.7081208038330078,-1.2023617553710937],"max":[0.21008644104003907,0.2100862121582031,1.2023621368408204]},{"bufferView":1,"componentType":5126,"count":2800,"type":"VEC3"},{"bufferView":2,"componentType":5126,"count":2800,"type":"VEC4"},{"bufferView":3,"componentType":5126,"count":2800,"type":"VEC2"},{"bufferView":4,"componentType":5126,"count":2800,"type":"VEC2"},{"bufferView":5,"componentType":5126,"count":2800,"type":"VEC4"},{"bufferView":6,"componentType":5123,"count":12672,"type":"SCALAR"}],"bufferViews":[{"buffer":0,"byteOffset":0,"byteLength":33600},{"buffer":0,"byteOffset":33600,"byteLength":33600},{"buffer":0,"byteOffset":67200,"byteLength":44800},{"buffer":0,"byteOffset":112000,"byteLength":22400},{"buffer":0,"byteOffset":134400,"byteLength":22400},{"buffer":0,"byteOffset":156800,"byteLength":44800},{"buffer":0,"byteOffset":201600,"byteLength":25344}],"buffers":[{"byteLength":226944,"uri":"data:application/octet-stream;base64,"}]}
