{"asset":{"generator":"Khronos glTF Blender I/O v1.2.75","version":"2.0"},"scene":0,"scenes":[{"name":"Scene","nodes":[0]}],"nodes":[{"mesh":0,"name":"Mesh"}],"meshes":[{"name":"SM_PipeGroup10","primitives":[{"indices":5,"attributes":{"POSITION":0,"NORMAL":1,"TEXCOORD_0":2,"TEXCOORD_1":3,"TANGENT":4},"mode":4}]}],"accessors":[{"bufferView":0,"componentType":5126,"count":594,"type":"VEC3","min":[-0.3493994140625,-0.18964683532714843,-1.496975860595703],"max":[8.104400024414062,4.741988830566406,3.7237799072265627]},{"bufferView":1,"componentType":5126,"count":594,"type":"VEC3"},{"bufferView":2,"componentType":5126,"count":594,"type":"VEC2"},{"bufferView":3,"componentType":5126,"count":594,"type":"VEC2"},{"bufferView":4,"componentType":5126,"count":594,"type":"VEC4"},{"bufferView":5,"componentType":5123,"count":1320,"type":"SCALAR"}],"bufferViews":[{"buffer":0,"byteOffset":0,"byteLength":7128},{"buffer":0,"byteOffset":7128,"byteLength":7128},{"buffer":0,"byteOffset":14256,"byteLength":4752},{"buffer":0,"byteOffset":19008,"byteLength":4752},{"buffer":0,"byteOffset":23760,"byteLength":9504},{"buffer":0,"byteOffset":33264,"byteLength":2640}],"buffers":[{"byteLength":35904,"uri":"data:application/octet-stream;base64,"}]}
