{"asset":{"generator":"Khronos glTF Blender I/O v1.2.75","version":"2.0"},"scene":0,"scenes":[{"name":"Scene","nodes":[0]}],"nodes":[{"mesh":0,"name":"Mesh"}],"meshes":[{"name":"SM_Building02_08","primitives":[{"indices":5,"attributes":{"POSITION":0,"NORMAL":1,"TEXCOORD_0":2,"TEXCOORD_1":3,"TANGENT":4},"mode":4}]}],"accessors":[{"bufferView":0,"componentType":5126,"count":6,"type":"VEC3","min":[-4.093595886230469,-0.11407374382019043,-0.18285102844238282],"max":[0.110679292678833,4.105609130859375,0.3838111114501953]},{"bufferView":1,"componentType":5126,"count":6,"type":"VEC3"},{"bufferView":2,"componentType":5126,"count":6,"type":"VEC2"},{"bufferView":3,"componentType":5126,"count":6,"type":"VEC2"},{"bufferView":4,"componentType":5126,"count":6,"type":"VEC4"},{"bufferView":5,"componentType":5123,"count":6,"type":"SCALAR"}],"bufferViews":[{"buffer":0,"byteOffset":0,"byteLength":72},{"buffer":0,"byteOffset":72,"byteLength":72},{"buffer":0,"byteOffset":144,"byteLength":48},{"buffer":0,"byteOffset":192,"byteLength":48},{"buffer":0,"byteOffset":240,"byteLength":96},{"buffer":0,"byteOffset":336,"byteLength":12}],"buffers":[{"byteLength":348,"uri":"data:application/octet-stream;base64,"}]}
