{"asset":{"generator":"Khronos glTF Blender I/O v1.2.75","version":"2.0"},"scene":0,"scenes":[{"name":"Scene","nodes":[0]}],"nodes":[{"mesh":0,"name":"Mesh"}],"meshes":[{"name":"SM_Pipe_round_corner3","primitives":[{"indices":6,"attributes":{"POSITION":0,"NORMAL":1,"COLOR_0":2,"TEXCOORD_0":3,"TEXCOORD_1":4,"TANGENT":5},"mode":4}]}],"accessors":[{"bufferView":0,"componentType":5126,"count":235,"type":"VEC3","min":[-0.22497007369995117,-0.2911819839477539,-0.0031310588121414183],"max":[0.21923709869384767,0.21008630752563476,0.5058942031860352]},{"bufferView":1,"componentType":5126,"count":235,"type":"VEC3"},{"bufferView":2,"componentType":5126,"count":235,"type":"VEC4"},{"bufferView":3,"componentType":5126,"count":235,"type":"VEC2"},{"bufferView":4,"componentType":5126,"count":235,"type":"VEC2"},{"bufferView":5,"componentType":5126,"count":235,"type":"VEC4"},{"bufferView":6,"componentType":5123,"count":720,"type":"SCALAR"}],"bufferViews":[{"buffer":0,"byteOffset":0,"byteLength":2820},{"buffer":0,"byteOffset":2820,"byteLength":2820},{"buffer":0,"byteOffset":5640,"byteLength":3760},{"buffer":0,"byteOffset":9400,"byteLength":1880},{"buffer":0,"byteOffset":11280,"byteLength":1880},{"buffer":0,"byteOffset":13160,"byteLength":3760},{"buffer":0,"byteOffset":16920,"byteLength":1440}],"buffers":[{"byteLength":18360,"uri":"data:application/octet-stream;base64,"}]}
