{"asset":{"generator":"Khronos glTF Blender I/O v1.2.75","version":"2.0"},"scene":0,"scenes":[{"name":"Scene","nodes":[0]}],"nodes":[{"mesh":0,"name":"Mesh"}],"meshes":[{"name":"SM_Pipe_round_corner3","primitives":[{"indices":6,"attributes":{"POSITION":0,"NORMAL":1,"COLOR_0":2,"TEXCOORD_0":3,"TEXCOORD_1":4,"TANGENT":5},"mode":4}]}],"accessors":[{"bufferView":0,"componentType":5126,"count":133,"type":"VEC3","min":[-0.22497007369995117,-0.2911819839477539,-0.0031310588121414183],"max":[0.21923709869384767,0.21008630752563476,0.5058942031860352]},{"bufferView":1,"componentType":5126,"count":133,"type":"VEC3"},{"bufferView":2,"componentType":5126,"count":133,"type":"VEC4"},{"bufferView":3,"componentType":5126,"count":133,"type":"VEC2"},{"bufferView":4,"componentType":5126,"count":133,"type":"VEC2"},{"bufferView":5,"componentType":5126,"count":133,"type":"VEC4"},{"bufferView":6,"componentType":5123,"count":360,"type":"SCALAR"}],"bufferViews":[{"buffer":0,"byteOffset":0,"byteLength":1596},{"buffer":0,"byteOffset":1596,"byteLength":1596},{"buffer":0,"byteOffset":3192,"byteLength":2128},{"buffer":0,"byteOffset":5320,"byteLength":1064},{"buffer":0,"byteOffset":6384,"byteLength":1064},{"buffer":0,"byteOffset":7448,"byteLength":2128},{"buffer":0,"byteOffset":9576,"byteLength":720}],"buffers":[{"byteLength":10296,"uri":"data:application/octet-stream;base64,"}]}
