{"asset":{"generator":"Khronos glTF Blender I/O v1.2.75","version":"2.0"},"scene":0,"scenes":[{"name":"Scene","nodes":[0]}],"nodes":[{"mesh":0,"name":"Mesh"}],"meshes":[{"name":"SM_Building02_17","primitives":[{"indices":5,"attributes":{"POSITION":0,"NORMAL":1,"TEXCOORD_0":2,"TEXCOORD_1":3,"TANGENT":4},"mode":4},{"indices":11,"attributes":{"POSITION":6,"NORMAL":7,"TEXCOORD_0":8,"TEXCOORD_1":9,"TANGENT":10},"mode":4}]}],"accessors":[{"bufferView":0,"componentType":5126,"count":242,"type":"VEC3","min":[-5.461441650390625,6.103515625e-7,-0.21470985412597657],"max":[-0.000001678466796875,4.026928100585938,0.2971767807006836]},{"bufferView":1,"componentType":5126,"count":242,"type":"VEC3"},{"bufferView":2,"componentType":5126,"count":242,"type":"VEC2"},{"bufferView":3,"componentType":5126,"count":242,"type":"VEC2"},{"bufferView":4,"componentType":5126,"count":242,"type":"VEC4"},{"bufferView":5,"componentType":5123,"count":516,"type":"SCALAR"},{"bufferView":6,"componentType":5126,"count":8,"type":"VEC3","min":[-5.461441650390625,6.103515625e-7,-0.21470985412597657],"max":[-0.000001678466796875,4.026928100585938,0.2971767807006836]},{"bufferView":7,"componentType":5126,"count":8,"type":"VEC3"},{"bufferView":8,"componentType":5126,"count":8,"type":"VEC2"},{"bufferView":9,"componentType":5126,"count":8,"type":"VEC2"},{"bufferView":10,"componentType":5126,"count":8,"type":"VEC4"},{"bufferView":11,"componentType":5123,"count":12,"type":"SCALAR"}],"bufferViews":[{"buffer":0,"byteOffset":0,"byteLength":2904},{"buffer":0,"byteOffset":2904,"byteLength":2904},{"buffer":0,"byteOffset":5808,"byteLength":1936},{"buffer":0,"byteOffset":7744,"byteLength":1936},{"buffer":0,"byteOffset":9680,"byteLength":3872},{"buffer":0,"byteOffset":13552,"byteLength":1032},{"buffer":1,"byteOffset":0,"byteLength":96},{"buffer":1,"byteOffset":96,"byteLength":96},{"buffer":1,"byteOffset":192,"byteLength":64},{"buffer":1,"byteOffset":256,"byteLength":64},{"buffer":1,"byteOffset":320,"byteLength":128},{"buffer":1,"byteOffset":448,"byteLength":24}],"buffers":[{"byteLength":14584,"uri":"data:application/octet-stream;base64,"},{"byteLength":472,"uri":"data:application/octet-stream;base64,"}]}
