{"asset":{"generator":"Khronos glTF Blender I/O v1.2.75","version":"2.0"},"scene":0,"scenes":[{"name":"Scene","nodes":[0]}],"nodes":[{"mesh":0,"name":"Mesh"}],"meshes":[{"name":"SM_PlatformRailing_02","primitives":[{"indices":6,"attributes":{"POSITION":0,"NORMAL":1,"COLOR_0":2,"TEXCOORD_0":3,"TEXCOORD_1":4,"TANGENT":5},"mode":4}]}],"accessors":[{"bufferView":0,"componentType":5126,"count":442,"type":"VEC3","min":[-0.04250038146972656,-3.4332275390625e-7,-0.05664965629577637],"max":[0.04377469539642334,1.27472412109375,2.0000001525878908]},{"bufferView":1,"componentType":5126,"count":442,"type":"VEC3"},{"bufferView":2,"componentType":5126,"count":442,"type":"VEC4"},{"bufferView":3,"componentType":5126,"count":442,"type":"VEC2"},{"bufferView":4,"componentType":5126,"count":442,"type":"VEC2"},{"bufferView":5,"componentType":5126,"count":442,"type":"VEC4"},{"bufferView":6,"componentType":5123,"count":1224,"type":"SCALAR"}],"bufferViews":[{"buffer":0,"byteOffset":0,"byteLength":5304},{"buffer":0,"byteOffset":5304,"byteLength":5304},{"buffer":0,"byteOffset":10608,"byteLength":7072},{"buffer":0,"byteOffset":17680,"byteLength":3536},{"buffer":0,"byteOffset":21216,"byteLength":3536},{"buffer":0,"byteOffset":24752,"byteLength":7072},{"buffer":0,"byteOffset":31824,"byteLength":2448}],"buffers":[{"byteLength":34272,"uri":"data:application/octet-stream;base64,"}]}
