{"asset":{"generator":"Khronos glTF Blender I/O v1.2.75","version":"2.0"},"scene":0,"scenes":[{"name":"Scene","nodes":[0]}],"nodes":[{"mesh":0,"name":"Mesh"}],"meshes":[{"name":"SM_Signboard_02","primitives":[{"indices":5,"attributes":{"POSITION":0,"NORMAL":1,"TEXCOORD_0":2,"TEXCOORD_1":3,"TANGENT":4},"mode":4}]}],"accessors":[{"bufferView":0,"componentType":5126,"count":744,"type":"VEC3","min":[-0.13447265625,-3.0607754516601564,-1.3732244873046875],"max":[0.13060783386230468,3.060775146484375,0.006934814453125]},{"bufferView":1,"componentType":5126,"count":744,"type":"VEC3"},{"bufferView":2,"componentType":5126,"count":744,"type":"VEC2"},{"bufferView":3,"componentType":5126,"count":744,"type":"VEC2"},{"bufferView":4,"componentType":5126,"count":744,"type":"VEC4"},{"bufferView":5,"componentType":5123,"count":2004,"type":"SCALAR"}],"bufferViews":[{"buffer":0,"byteOffset":0,"byteLength":8928},{"buffer":0,"byteOffset":8928,"byteLength":8928},{"buffer":0,"byteOffset":17856,"byteLength":5952},{"buffer":0,"byteOffset":23808,"byteLength":5952},{"buffer":0,"byteOffset":29760,"byteLength":11904},{"buffer":0,"byteOffset":41664,"byteLength":4008}],"buffers":[{"byteLength":45672,"uri":"data:application/octet-stream;base64,"}]}
