{"asset":{"generator":"Khronos glTF Blender I/O v1.2.75","version":"2.0"},"scene":0,"scenes":[{"name":"Scene","nodes":[0]}],"nodes":[{"mesh":0,"name":"Mesh"}],"meshes":[{"name":"SM_FloorStairs01","primitives":[{"indices":6,"attributes":{"POSITION":0,"NORMAL":1,"COLOR_0":2,"TEXCOORD_0":3,"TEXCOORD_1":4,"TANGENT":5},"mode":4}]}],"accessors":[{"bufferView":0,"componentType":5126,"count":1206,"type":"VEC3","min":[-5.095698270451976e-8,-1.7669378662109374,-0.7213105773925781],"max":[2.8624505615234375,1.5080731827765703e-7,0.7173445129394531]},{"bufferView":1,"componentType":5126,"count":1206,"type":"VEC3"},{"bufferView":2,"componentType":5126,"count":1206,"type":"VEC4"},{"bufferView":3,"componentType":5126,"count":1206,"type":"VEC2"},{"bufferView":4,"componentType":5126,"count":1206,"type":"VEC2"},{"bufferView":5,"componentType":5126,"count":1206,"type":"VEC4"},{"bufferView":6,"componentType":5123,"count":3036,"type":"SCALAR"}],"bufferViews":[{"buffer":0,"byteOffset":0,"byteLength":14472},{"buffer":0,"byteOffset":14472,"byteLength":14472},{"buffer":0,"byteOffset":28944,"byteLength":19296},{"buffer":0,"byteOffset":48240,"byteLength":9648},{"buffer":0,"byteOffset":57888,"byteLength":9648},{"buffer":0,"byteOffset":67536,"byteLength":19296},{"buffer":0,"byteOffset":86832,"byteLength":6072}],"buffers":[{"byteLength":92904,"uri":"data:application/octet-stream;base64,"}]}
