{"asset":{"generator":"Khronos glTF Blender I/O v1.2.75","version":"2.0"},"scene":0,"scenes":[{"name":"Scene","nodes":[0]}],"nodes":[{"mesh":0,"name":"Mesh"}],"meshes":[{"name":"SM_FloorStairs01","primitives":[{"indices":6,"attributes":{"POSITION":0,"NORMAL":1,"COLOR_0":2,"TEXCOORD_0":3,"TEXCOORD_1":4,"TANGENT":5},"mode":4}]}],"accessors":[{"bufferView":0,"componentType":5126,"count":449,"type":"VEC3","min":[-5.095698270451976e-8,-1.7669378662109374,-0.7213105773925781],"max":[2.8624505615234375,1.5080731827765703e-7,0.7173445129394531]},{"bufferView":1,"componentType":5126,"count":449,"type":"VEC3"},{"bufferView":2,"componentType":5126,"count":449,"type":"VEC4"},{"bufferView":3,"componentType":5126,"count":449,"type":"VEC2"},{"bufferView":4,"componentType":5126,"count":449,"type":"VEC2"},{"bufferView":5,"componentType":5126,"count":449,"type":"VEC4"},{"bufferView":6,"componentType":5123,"count":909,"type":"SCALAR"}],"bufferViews":[{"buffer":0,"byteOffset":0,"byteLength":5388},{"buffer":0,"byteOffset":5388,"byteLength":5388},{"buffer":0,"byteOffset":10776,"byteLength":7184},{"buffer":0,"byteOffset":17960,"byteLength":3592},{"buffer":0,"byteOffset":21552,"byteLength":3592},{"buffer":0,"byteOffset":25144,"byteLength":7184},{"buffer":0,"byteOffset":32328,"byteLength":1818}],"buffers":[{"byteLength":34146,"uri":"data:application/octet-stream;base64,"}]}
