{"asset":{"generator":"Khronos glTF Blender I/O v1.2.75","version":"2.0"},"scene":0,"scenes":[{"name":"Scene","nodes":[0]}],"nodes":[{"mesh":0,"name":"Mesh"}],"meshes":[{"name":"SM_FanCluster01","primitives":[{"indices":5,"attributes":{"POSITION":0,"NORMAL":1,"TEXCOORD_0":2,"TEXCOORD_1":3,"TANGENT":4},"mode":4}]}],"accessors":[{"bufferView":0,"componentType":5126,"count":995,"type":"VEC3","min":[-16.450096435546875,-9.849451293945313,-4.356807250976562],"max":[5.629983520507812,8.210765991210938,5.273419189453125]},{"bufferView":1,"componentType":5126,"count":995,"type":"VEC3"},{"bufferView":2,"componentType":5126,"count":995,"type":"VEC2"},{"bufferView":3,"componentType":5126,"count":995,"type":"VEC2"},{"bufferView":4,"componentType":5126,"count":995,"type":"VEC4"},{"bufferView":5,"componentType":5123,"count":1977,"type":"SCALAR"}],"bufferViews":[{"buffer":0,"byteOffset":0,"byteLength":11940},{"buffer":0,"byteOffset":11940,"byteLength":11940},{"buffer":0,"byteOffset":23880,"byteLength":7960},{"buffer":0,"byteOffset":31840,"byteLength":7960},{"buffer":0,"byteOffset":39800,"byteLength":15920},{"buffer":0,"byteOffset":55720,"byteLength":3954}],"buffers":[{"byteLength":59674,"uri":"data:application/octet-stream;base64,"}]}
