{"asset":{"generator":"Khronos glTF Blender I/O v1.2.75","version":"2.0"},"scene":0,"scenes":[{"name":"Scene","nodes":[0]}],"nodes":[{"mesh":0,"name":"Mesh"}],"meshes":[{"name":"SM_BackgroundBuilding01","primitives":[{"indices":5,"attributes":{"POSITION":0,"NORMAL":1,"TEXCOORD_0":2,"TEXCOORD_1":3,"TANGENT":4},"mode":4}]}],"accessors":[{"bufferView":0,"componentType":5126,"count":160,"type":"VEC3","min":[-19.261077880859375,-5.752019140940063e-16,-4.545335083007813],"max":[17.3512744140625,37.42056640625,4.459002075195312]},{"bufferView":1,"componentType":5126,"count":160,"type":"VEC3"},{"bufferView":2,"componentType":5126,"count":160,"type":"VEC2"},{"bufferView":3,"componentType":5126,"count":160,"type":"VEC2"},{"bufferView":4,"componentType":5126,"count":160,"type":"VEC4"},{"bufferView":5,"componentType":5123,"count":300,"type":"SCALAR"}],"bufferViews":[{"buffer":0,"byteOffset":0,"byteLength":1920},{"buffer":0,"byteOffset":1920,"byteLength":1920},{"buffer":0,"byteOffset":3840,"byteLength":1280},{"buffer":0,"byteOffset":5120,"byteLength":1280},{"buffer":0,"byteOffset":6400,"byteLength":2560},{"buffer":0,"byteOffset":8960,"byteLength":600}],"buffers":[{"byteLength":9560,"uri":"data:application/octet-stream;base64,"}]}
