{"asset":{"generator":"Khronos glTF Blender I/O v1.2.75","version":"2.0"},"scene":0,"scenes":[{"name":"Scene","nodes":[0]}],"nodes":[{"mesh":0,"name":"Mesh"}],"meshes":[{"name":"SM_PipeGroup23","primitives":[{"indices":5,"attributes":{"POSITION":0,"NORMAL":1,"TEXCOORD_0":2,"TEXCOORD_1":3,"TANGENT":4},"mode":4}]}],"accessors":[{"bufferView":0,"componentType":5126,"count":3300,"type":"VEC3","min":[-1.0032759857177735,-6.857234497070312,-8.106177368164062],"max":[0.41083641052246095,0.33586620330810546,0.3359962463378906]},{"bufferView":1,"componentType":5126,"count":3300,"type":"VEC3"},{"bufferView":2,"componentType":5126,"count":3300,"type":"VEC2"},{"bufferView":3,"componentType":5126,"count":3300,"type":"VEC2"},{"bufferView":4,"componentType":5126,"count":3300,"type":"VEC4"},{"bufferView":5,"componentType":5123,"count":10944,"type":"SCALAR"}],"bufferViews":[{"buffer":0,"byteOffset":0,"byteLength":39600},{"buffer":0,"byteOffset":39600,"byteLength":39600},{"buffer":0,"byteOffset":79200,"byteLength":26400},{"buffer":0,"byteOffset":105600,"byteLength":26400},{"buffer":0,"byteOffset":132000,"byteLength":52800},{"buffer":0,"byteOffset":184800,"byteLength":21888}],"buffers":[{"byteLength":206688,"uri":"data:application/octet-stream;base64,"}]}
