{"asset":{"generator":"Khronos glTF Blender I/O v1.2.75","version":"2.0"},"scene":0,"scenes":[{"name":"Scene","nodes":[0]}],"nodes":[{"mesh":0,"name":"Mesh"}],"meshes":[{"name":"SM_PipeGroup23","primitives":[{"indices":5,"attributes":{"POSITION":0,"NORMAL":1,"TEXCOORD_0":2,"TEXCOORD_1":3,"TANGENT":4},"mode":4}]}],"accessors":[{"bufferView":0,"componentType":5126,"count":1542,"type":"VEC3","min":[-1.0032759857177735,-6.857234497070312,-8.106177368164062],"max":[0.41083641052246095,0.33586620330810546,0.3359962463378906]},{"bufferView":1,"componentType":5126,"count":1542,"type":"VEC3"},{"bufferView":2,"componentType":5126,"count":1542,"type":"VEC2"},{"bufferView":3,"componentType":5126,"count":1542,"type":"VEC2"},{"bufferView":4,"componentType":5126,"count":1542,"type":"VEC4"},{"bufferView":5,"componentType":5123,"count":4380,"type":"SCALAR"}],"bufferViews":[{"buffer":0,"byteOffset":0,"byteLength":18504},{"buffer":0,"byteOffset":18504,"byteLength":18504},{"buffer":0,"byteOffset":37008,"byteLength":12336},{"buffer":0,"byteOffset":49344,"byteLength":12336},{"buffer":0,"byteOffset":61680,"byteLength":24672},{"buffer":0,"byteOffset":86352,"byteLength":8760}],"buffers":[{"byteLength":95112,"uri":"data:application/octet-stream;base64,"}]}
