{"asset":{"generator":"Khronos glTF Blender I/O v1.2.75","version":"2.0"},"scene":0,"scenes":[{"name":"Scene","nodes":[0]}],"nodes":[{"mesh":0,"name":"Mesh"}],"meshes":[{"name":"SM_RoadMarkings04","primitives":[{"indices":5,"attributes":{"POSITION":0,"NORMAL":1,"TEXCOORD_0":2,"TEXCOORD_1":3,"TANGENT":4},"mode":4}]}],"accessors":[{"bufferView":0,"componentType":5126,"count":92,"type":"VEC3","min":[-0.20145946502685547,-4.988908767700195e-7,-0.20145946502685547],"max":[0.20145944595336915,-4.976987838745117e-7,0.20145946502685547]},{"bufferView":1,"componentType":5126,"count":92,"type":"VEC3"},{"bufferView":2,"componentType":5126,"count":92,"type":"VEC2"},{"bufferView":3,"componentType":5126,"count":92,"type":"VEC2"},{"bufferView":4,"componentType":5126,"count":92,"type":"VEC4"},{"bufferView":5,"componentType":5123,"count":228,"type":"SCALAR"}],"bufferViews":[{"buffer":0,"byteOffset":0,"byteLength":1104},{"buffer":0,"byteOffset":1104,"byteLength":1104},{"buffer":0,"byteOffset":2208,"byteLength":736},{"buffer":0,"byteOffset":2944,"byteLength":736},{"buffer":0,"byteOffset":3680,"byteLength":1472},{"buffer":0,"byteOffset":5152,"byteLength":456}],"buffers":[{"byteLength":5608,"uri":"data:application/octet-stream;base64,"}]}
