{"asset":{"generator":"Khronos glTF Blender I/O v1.2.75","version":"2.0"},"scene":0,"scenes":[{"name":"Scene","nodes":[0]}],"nodes":[{"mesh":0,"name":"Mesh"}],"meshes":[{"name":"SM_AirConditioning01","primitives":[{"indices":5,"attributes":{"POSITION":0,"NORMAL":1,"TEXCOORD_0":2,"TEXCOORD_1":3,"TANGENT":4},"mode":4}]}],"accessors":[{"bufferView":0,"componentType":5126,"count":1060,"type":"VEC3","min":[-1.125408935546875,-0.13753912925720216,-0.6148138427734375],"max":[0.13698734283447267,0.72847412109375,0.031219654083251953]},{"bufferView":1,"componentType":5126,"count":1060,"type":"VEC3"},{"bufferView":2,"componentType":5126,"count":1060,"type":"VEC2"},{"bufferView":3,"componentType":5126,"count":1060,"type":"VEC2"},{"bufferView":4,"componentType":5126,"count":1060,"type":"VEC4"},{"bufferView":5,"componentType":5123,"count":2481,"type":"SCALAR"}],"bufferViews":[{"buffer":0,"byteOffset":0,"byteLength":12720},{"buffer":0,"byteOffset":12720,"byteLength":12720},{"buffer":0,"byteOffset":25440,"byteLength":8480},{"buffer":0,"byteOffset":33920,"byteLength":8480},{"buffer":0,"byteOffset":42400,"byteLength":16960},{"buffer":0,"byteOffset":59360,"byteLength":4962}],"buffers":[{"byteLength":64322,"uri":"data:application/octet-stream;base64,"}]}
