{"asset":{"generator":"Khronos glTF Blender I/O v1.2.75","version":"2.0"},"scene":0,"scenes":[{"name":"Scene","nodes":[0]}],"nodes":[{"mesh":0,"name":"Mesh"}],"meshes":[{"name":"SM_IndustrialPlatform01","primitives":[{"indices":6,"attributes":{"POSITION":0,"NORMAL":1,"COLOR_0":2,"TEXCOORD_0":3,"TEXCOORD_1":4,"TANGENT":5},"mode":4}]}],"accessors":[{"bufferView":0,"componentType":5126,"count":664,"type":"VEC3","min":[-3.499681091308594,8.0108642578125e-7,-1.4999996948242187],"max":[3.500164794921875,0.7154707336425781,1.4999996948242187]},{"bufferView":1,"componentType":5126,"count":664,"type":"VEC3"},{"bufferView":2,"componentType":5126,"count":664,"type":"VEC4"},{"bufferView":3,"componentType":5126,"count":664,"type":"VEC2"},{"bufferView":4,"componentType":5126,"count":664,"type":"VEC2"},{"bufferView":5,"componentType":5126,"count":664,"type":"VEC4"},{"bufferView":6,"componentType":5123,"count":1452,"type":"SCALAR"}],"bufferViews":[{"buffer":0,"byteOffset":0,"byteLength":7968},{"buffer":0,"byteOffset":7968,"byteLength":7968},{"buffer":0,"byteOffset":15936,"byteLength":10624},{"buffer":0,"byteOffset":26560,"byteLength":5312},{"buffer":0,"byteOffset":31872,"byteLength":5312},{"buffer":0,"byteOffset":37184,"byteLength":10624},{"buffer":0,"byteOffset":47808,"byteLength":2904}],"buffers":[{"byteLength":50712,"uri":"data:application/octet-stream;base64,"}]}
