{"asset":{"generator":"Khronos glTF Blender I/O v1.2.75","version":"2.0"},"scene":0,"scenes":[{"name":"Scene","nodes":[0]}],"nodes":[{"mesh":0,"name":"Mesh"}],"meshes":[{"name":"SM_IndustrialPlatform01","primitives":[{"indices":6,"attributes":{"POSITION":0,"NORMAL":1,"COLOR_0":2,"TEXCOORD_0":3,"TEXCOORD_1":4,"TANGENT":5},"mode":4}]}],"accessors":[{"bufferView":0,"componentType":5126,"count":384,"type":"VEC3","min":[-3.499681091308594,8.0108642578125e-7,-1.4999996948242187],"max":[3.500164794921875,0.7154707336425781,1.4999996948242187]},{"bufferView":1,"componentType":5126,"count":384,"type":"VEC3"},{"bufferView":2,"componentType":5126,"count":384,"type":"VEC4"},{"bufferView":3,"componentType":5126,"count":384,"type":"VEC2"},{"bufferView":4,"componentType":5126,"count":384,"type":"VEC2"},{"bufferView":5,"componentType":5126,"count":384,"type":"VEC4"},{"bufferView":6,"componentType":5123,"count":726,"type":"SCALAR"}],"bufferViews":[{"buffer":0,"byteOffset":0,"byteLength":4608},{"buffer":0,"byteOffset":4608,"byteLength":4608},{"buffer":0,"byteOffset":9216,"byteLength":6144},{"buffer":0,"byteOffset":15360,"byteLength":3072},{"buffer":0,"byteOffset":18432,"byteLength":3072},{"buffer":0,"byteOffset":21504,"byteLength":6144},{"buffer":0,"byteOffset":27648,"byteLength":1452}],"buffers":[{"byteLength":29100,"uri":"data:application/octet-stream;base64,"}]}
