{"asset":{"generator":"Khronos glTF Blender I/O v1.2.75","version":"2.0"},"scene":0,"scenes":[{"name":"Scene","nodes":[0]}],"nodes":[{"mesh":0,"name":"Mesh"}],"meshes":[{"name":"SM_IndustrialPlatform02","primitives":[{"indices":6,"attributes":{"POSITION":0,"NORMAL":1,"COLOR_0":2,"TEXCOORD_0":3,"TEXCOORD_1":4,"TANGENT":5},"mode":4}]}],"accessors":[{"bufferView":0,"componentType":5126,"count":738,"type":"VEC3","min":[-2.0024774169921873,8.0108642578125e-7,-1.5163958740234376],"max":[2.0009503173828125,0.7154707336425781,1.51106201171875]},{"bufferView":1,"componentType":5126,"count":738,"type":"VEC3"},{"bufferView":2,"componentType":5126,"count":738,"type":"VEC4"},{"bufferView":3,"componentType":5126,"count":738,"type":"VEC2"},{"bufferView":4,"componentType":5126,"count":738,"type":"VEC2"},{"bufferView":5,"componentType":5126,"count":738,"type":"VEC4"},{"bufferView":6,"componentType":5123,"count":1620,"type":"SCALAR"}],"bufferViews":[{"buffer":0,"byteOffset":0,"byteLength":8856},{"buffer":0,"byteOffset":8856,"byteLength":8856},{"buffer":0,"byteOffset":17712,"byteLength":11808},{"buffer":0,"byteOffset":29520,"byteLength":5904},{"buffer":0,"byteOffset":35424,"byteLength":5904},{"buffer":0,"byteOffset":41328,"byteLength":11808},{"buffer":0,"byteOffset":53136,"byteLength":3240}],"buffers":[{"byteLength":56376,"uri":"data:application/octet-stream;base64,"}]}
