{"asset":{"generator":"Khronos glTF Blender I/O v1.2.75","version":"2.0"},"scene":0,"scenes":[{"name":"Scene","nodes":[0]}],"nodes":[{"mesh":0,"name":"Mesh"}],"meshes":[{"name":"SM_Steps_04","primitives":[{"indices":5,"attributes":{"POSITION":0,"NORMAL":1,"TEXCOORD_0":2,"TEXCOORD_1":3,"TANGENT":4},"mode":4}]}],"accessors":[{"bufferView":0,"componentType":5126,"count":455,"type":"VEC3","min":[-0.0292169189453125,-0.2500002861022949,-2.4999998474121092],"max":[1.57864013671875,0.8297122192382812,0.0808223819732666]},{"bufferView":1,"componentType":5126,"count":455,"type":"VEC3"},{"bufferView":2,"componentType":5126,"count":455,"type":"VEC2"},{"bufferView":3,"componentType":5126,"count":455,"type":"VEC2"},{"bufferView":4,"componentType":5126,"count":455,"type":"VEC4"},{"bufferView":5,"componentType":5123,"count":1332,"type":"SCALAR"}],"bufferViews":[{"buffer":0,"byteOffset":0,"byteLength":5460},{"buffer":0,"byteOffset":5460,"byteLength":5460},{"buffer":0,"byteOffset":10920,"byteLength":3640},{"buffer":0,"byteOffset":14560,"byteLength":3640},{"buffer":0,"byteOffset":18200,"byteLength":7280},{"buffer":0,"byteOffset":25480,"byteLength":2664}],"buffers":[{"byteLength":28144,"uri":"data:application/octet-stream;base64,"}]}
